<svg width="1200" height="829" xmlns="http://www.w3.org/2000/svg"><g fill="none" fill-rule="evenodd"><path fill="#FFF" d="M0 0h1200v829H0z"/><g transform="translate(366 90)"><text transform="translate(425 271)" fill="#000" font-family="HelveticaNeue-Bold, Helvetica Neue" font-size="64" font-weight="bold">
                    <tspan x="0" y="62">B</tspan>
                </text><g fill="#4A90E2" font-family="HelveticaNeue-Thin, Helvetica Neue" font-weight="300"><text transform="translate(230 -5)" font-size="40">
                        <tspan x="0" y="44">R</tspan>
                    </text><text transform="translate(230 30)" font-size="20">
                        <tspan x="29" y="19">1</tspan>
                    </text></g><g fill-rule="nonzero" stroke="#4A90E2"><path d="M69 145c42.5-49.594 105.473-81 175.753-81 69.455 0 132.181 31.067 174.655 79.654" stroke-dasharray="8,10"/><path d="m398.782 137.81 21.09 6.255-6.808-20.224"/></g><g fill="#2474CD" font-family="HelveticaNeue-Thin, Helvetica Neue" font-weight="300"><text transform="translate(228 586)" font-size="40">
                        <tspan x="0" y="44">R</tspan>
                    </text><text transform="translate(228 621)" font-size="20">
                        <tspan x="29" y="19">2</tspan>
                    </text></g><g fill-rule="nonzero" stroke="#4A90E2"><path d="M69 501c42.5 49.594 105.473 81 175.753 81 69.455 0 132.181-31.067 174.655-79.654" stroke-dasharray="8,10"/><path d="m398.782 508.19 21.09-6.255-6.808 20.224"/></g><circle fill="#FFF" fill-rule="nonzero" cx="239" cy="520" r="29"/><circle fill="#FFF" fill-rule="nonzero" cx="29" cy="309" r="29"/><path d="m79.441 297.227 132.11-148.723M411.55 297.227 279.442 148.504m130.796 180.383L280.744 479.892M78.18 334.683l134.684 146.394" stroke="#2474CD" stroke-linecap="square" stroke-width="4"/><circle fill="#FFF" fill-rule="nonzero" cx="243" cy="111" r="29"/><text transform="translate(221 73)" fill="#000" font-family="HelveticaNeue-Bold, Helvetica Neue" font-size="64" font-weight="bold">
                    <tspan x="0" y="62">C</tspan>
                </text><text transform="translate(224 473)" fill="#000" font-family="HelveticaNeue-Bold, Helvetica Neue" font-size="64" font-weight="bold">
                    <tspan x="0" y="62">F</tspan>
                </text><text transform="translate(19 271)" fill="#000" font-family="HelveticaNeue-Bold, Helvetica Neue" font-size="64" font-weight="bold">
                    <tspan x="0" y="62">A</tspan>
                </text></g></g></svg>