<svg width="1200" height="860" xmlns="http://www.w3.org/2000/svg"><g fill="none" fill-rule="evenodd"><path fill="#FFF" d="M0 0h1200v860H0z"/><circle stroke="#979797" cx="595.5" cy="439.5" r="203.5"/><circle fill="#FFF" fill-rule="nonzero" cx="799.5" cy="441.5" r="41.5"/><circle fill="#FFF" fill-rule="nonzero" cx="393.5" cy="441.5" r="41.5"/><circle fill="#FFF" fill-rule="nonzero" cx="600.5" cy="242.5" r="41.5"/><circle fill="#FFF" fill-rule="nonzero" cx="600.5" cy="637.5" r="41.5"/><circle fill="#FFF" fill-rule="nonzero" cx="595" cy="652" r="29"/><circle fill="#FFF" fill-rule="nonzero" cx="803" cy="441" r="29"/><text font-family="HelveticaNeue-Thin, Helvetica Neue" font-size="40" font-weight="300" fill="#000">
            <tspan x="655" y="224">P</tspan>
        </text><path stroke="#979797" d="m654.659 253.906-17.69-13.062 20.27-6.748"/><text transform="translate(781 401)" fill="#000" font-family="HelveticaNeue-Bold, Helvetica Neue" font-size="64" font-weight="bold">
                <tspan x="0" y="62">B</tspan>
            </text><path d="m435.441 427.227 132.11-148.723M767.55 427.227 635.442 278.504m130.796 180.383L636.744 609.892M434.18 464.683l134.684 146.394" stroke="#2474CD" stroke-linecap="square" stroke-width="4"/><text transform="translate(577 203)" fill="#000" font-family="HelveticaNeue-Bold, Helvetica Neue" font-size="64" font-weight="bold">
                <tspan x="0" y="62">C</tspan>
            </text><text transform="translate(580 603)" fill="#000" font-family="HelveticaNeue-Bold, Helvetica Neue" font-size="64" font-weight="bold">
                <tspan x="0" y="62">F</tspan>
            </text><text transform="translate(375 401)" fill="#000" font-family="HelveticaNeue-Bold, Helvetica Neue" font-size="64" font-weight="bold">
                <tspan x="0" y="62">A</tspan>
            </text><g fill="#4A90E2" font-family="HelveticaNeue-Thin, Helvetica Neue" font-weight="300"><text transform="translate(557 94)" font-size="40">
                    <tspan x="0" y="44">R</tspan>
                </text><text transform="translate(557 94)" font-size="40">
                    <tspan x="41" y="44">+P</tspan>
                </text><text transform="translate(557 129)" font-size="20">
                    <tspan x="29" y="19">1</tspan>
                </text></g><g fill="#4A90E2" font-family="HelveticaNeue-Thin, Helvetica Neue" font-weight="300"><text transform="translate(557 719)" font-size="40">
                    <tspan x="0" y="44">R</tspan>
                </text><text transform="translate(557 719)" font-size="40">
                    <tspan x="41" y="44">-P</tspan>
                </text><text transform="translate(557 754)" font-size="20">
                    <tspan x="29" y="19">2</tspan>
                </text></g><g fill-rule="nonzero" stroke="#4A90E2"><path d="M425 244c42.5-49.594 105.473-81 175.753-81 69.455 0 132.181 31.067 174.655 79.654" stroke-dasharray="8,10"/><path d="m754.782 236.81 21.09 6.255-6.808-20.224"/></g><g fill-rule="nonzero" stroke="#4A90E2"><path d="M425 630c42.5 49.594 105.473 81 175.753 81 69.455 0 132.181-31.067 174.655-79.654" stroke-dasharray="8,10"/><path d="m754.782 637.19 21.09-6.255-6.808 20.224"/></g></g></svg>