<?xml version="1.0" encoding="UTF-8"?>
<svg id="simple-outlined" xmlns="http://www.w3.org/2000/svg" viewBox="0 0 1708.79 845.71">
  <defs>
    <style>
      .cls-1, .cls-2 {
        fill: #fa1336;
      }

      .cls-3 {
        fill: #cfd1d1;
      }

      .cls-4 {
        stroke: #00090c;
      }

      .cls-4, .cls-5, .cls-6, .cls-7 {
        fill: none;
        stroke-linejoin: round;
        stroke-width: 4px;
      }

      .cls-4, .cls-6 {
        stroke-dasharray: 12;
      }

      .cls-4, .cls-6, .cls-7 {
        stroke-linecap: round;
      }

      .cls-8, .cls-9 {
        fill: #43b929;
      }

      .cls-5 {
        stroke: #000;
      }

      .cls-6 {
        stroke: #cfd1d1;
      }

      .cls-9, .cls-10, .cls-2 {
        fill-rule: evenodd;
      }

      .cls-10, .cls-11 {
        fill: #00090c;
      }

      .cls-12 {
        fill: #f2f2f2;
      }

      .cls-7 {
        stroke: #e5e6e6;
      }
    </style>
  </defs>
  <g>
    <path d="M1168.09,580.55c-2.83,0-5.31-.64-7.46-1.91-2.14-1.27-3.82-3.05-5.04-5.33-1.22-2.28-1.83-4.93-1.83-7.96s.61-5.63,1.83-7.92c1.22-2.28,2.9-4.07,5.04-5.35,2.14-1.29,4.63-1.93,7.46-1.93s5.4.64,7.56,1.93c2.16,1.29,3.83,3.07,5.02,5.35,1.19,2.28,1.79,4.92,1.79,7.92s-.6,5.68-1.79,7.96c-1.19,2.28-2.86,4.06-5.02,5.33-2.16,1.28-4.68,1.91-7.56,1.91ZM1168.14,576.81c2.02,0,3.78-.46,5.29-1.39,1.51-.92,2.68-2.24,3.51-3.95s1.24-3.75,1.24-6.13-.41-4.42-1.24-6.13c-.83-1.71-2-3.02-3.51-3.93-1.51-.91-3.28-1.37-5.29-1.37s-3.78.46-5.29,1.37c-1.51.91-2.69,2.22-3.53,3.93-.84,1.71-1.26,3.75-1.26,6.13s.42,4.42,1.26,6.13c.84,1.71,2.02,3.02,3.53,3.95,1.51.92,3.28,1.39,5.29,1.39Z"/>
    <path d="M1185.31,562.44v-3.57h12.39v3.57h-12.39ZM1188.42,580.04v-24.02c0-1.46.24-2.65.73-3.57s1.21-1.6,2.16-2.02,2.1-.63,3.44-.63h2.48v3.57h-1.81c-1.01,0-1.73.2-2.16.61-.43.41-.65,1.11-.65,2.12v23.94h-4.2Z"/>
    <path d="M1200.01,562.44v-3.57h12.39v3.57h-12.39ZM1203.12,580.04v-24.02c0-1.46.24-2.65.73-3.57s1.21-1.6,2.16-2.02,2.1-.63,3.44-.63h2.48v3.57h-1.81c-1.01,0-1.73.2-2.16.61-.43.41-.65,1.11-.65,2.12v23.94h-4.2Z"/>
    <path d="M1216.94,569.42v-3.53h16.97v3.53h-16.97Z"/>
    <path d="M1249.66,580.55c-2.04,0-3.86-.47-5.46-1.41-1.6-.94-2.85-2.23-3.76-3.89-.91-1.65-1.37-3.57-1.37-5.75s.46-4.15,1.37-5.82,2.16-2.97,3.76-3.91c1.6-.94,3.42-1.41,5.46-1.41,2.58,0,4.73.67,6.47,2.02,1.74,1.34,2.84,3.16,3.32,5.46h-4.37c-.28-1.23-.92-2.18-1.91-2.86-1-.67-2.18-1.01-3.55-1.01-1.12,0-2.16.29-3.11.86-.95.57-1.72,1.42-2.29,2.52-.57,1.11-.86,2.47-.86,4.09,0,1.2.17,2.28.5,3.21.34.94.79,1.73,1.37,2.37.57.64,1.24,1.13,2,1.45.76.32,1.55.48,2.39.48.92,0,1.76-.15,2.5-.44s1.37-.74,1.89-1.32c.52-.59.88-1.29,1.07-2.1h4.37c-.48,2.24-1.58,4.04-3.32,5.4-1.74,1.36-3.89,2.04-6.47,2.04Z"/>
    <path d="M1264.36,580.04v-30.24h4.2v12.52c.7-1.23,1.67-2.2,2.92-2.9,1.25-.7,2.62-1.05,4.14-1.05,1.68,0,3.12.34,4.33,1.03,1.2.69,2.13,1.71,2.77,3.07.64,1.36.97,3.06.97,5.1v12.47h-4.16v-12.01c0-1.99-.42-3.49-1.26-4.51s-2.09-1.53-3.74-1.53c-1.12,0-2.13.27-3.02.8-.9.53-1.61,1.31-2.14,2.33-.53,1.02-.8,2.26-.8,3.72v11.21h-4.2Z"/>
    <path d="M1296.07,580.55c-1.74,0-3.18-.29-4.33-.88-1.15-.59-2-1.38-2.56-2.37-.56-.99-.84-2.06-.84-3.21,0-1.4.36-2.6,1.09-3.59.73-.99,1.76-1.76,3.11-2.29,1.34-.53,2.95-.8,4.83-.8h5.5c0-1.23-.18-2.25-.55-3.07-.36-.81-.9-1.42-1.62-1.83-.71-.41-1.62-.61-2.71-.61-1.26,0-2.34.3-3.23.9-.9.6-1.46,1.49-1.68,2.67h-4.2c.17-1.48.68-2.75,1.53-3.8s1.95-1.86,3.3-2.44c1.34-.57,2.77-.86,4.28-.86,1.99,0,3.65.35,5,1.05,1.34.7,2.36,1.69,3.04,2.96.69,1.27,1.03,2.79,1.03,4.56v13.1h-3.65l-.34-3.57c-.31.56-.67,1.09-1.09,1.6s-.92.94-1.49,1.3c-.57.36-1.23.65-1.97.86-.74.21-1.56.31-2.46.31ZM1296.86,577.14c.9,0,1.71-.18,2.44-.55.73-.36,1.35-.86,1.87-1.49s.91-1.34,1.18-2.14c.27-.8.41-1.62.44-2.46v-.13h-5c-1.2,0-2.18.15-2.92.44s-1.28.69-1.62,1.2-.5,1.09-.5,1.76.16,1.3.48,1.79c.32.49.79.88,1.41,1.16.62.28,1.36.42,2.23.42Z"/>
    <path d="M1314.88,554.88c-.81,0-1.48-.25-2-.76-.52-.5-.78-1.15-.78-1.93s.26-1.38.78-1.87c.52-.49,1.18-.74,2-.74s1.44.25,1.97.74c.53.49.8,1.11.8,1.87s-.27,1.43-.8,1.93-1.19.76-1.97.76ZM1312.74,580.04v-21.17h4.2v21.17h-4.2Z"/>
    <path d="M1322.95,580.04v-21.17h3.78l.25,3.61c.67-1.26,1.62-2.26,2.86-3,1.23-.74,2.65-1.11,4.24-1.11,1.68,0,3.12.34,4.33,1.01s2.14,1.69,2.81,3.04c.67,1.36,1.01,3.06,1.01,5.1v12.52h-4.2v-12.1c0-1.96-.43-3.44-1.3-4.45s-2.13-1.51-3.78-1.51c-1.09,0-2.07.26-2.94.78-.87.52-1.56,1.28-2.08,2.29-.52,1.01-.78,2.24-.78,3.7v11.3h-4.2Z"/>
  </g>
  <path class="cls-12" d="M1032.85,192.15h430.84c23.26,0,42.15,18.89,42.15,42.15v34.97h-515.14v-34.97c0-23.26,18.89-42.15,42.15-42.15Z"/>
  <path d="M1470.69,196.15c17.18,0,31.15,13.97,31.15,31.15v229.08c0,17.18-13.97,31.15-31.15,31.15h-444.84c-17.18,0-31.15-13.97-31.15-31.15v-229.08c0-17.18,13.97-31.15,31.15-31.15h444.84M1470.69,192.15h-444.84c-19.41,0-35.15,15.74-35.15,35.15v229.08c0,19.41,15.74,35.15,35.15,35.15h444.84c19.41,0,35.15-15.74,35.15-35.15v-229.08c0-19.41-15.74-35.15-35.15-35.15h0Z"/>
  <line class="cls-5" x1="990.7" y1="269.27" x2="1505.84" y2="269.27"/>
  <g>
    <line class="cls-7" x1="1248.27" y1="300.08" x2="1248.27" y2="466.33"/>
    <line class="cls-7" x1="1476.78" y1="383.21" x2="1385.72" y2="383.21"/>
    <line class="cls-7" x1="1339.97" y1="383.21" x2="1248.89" y2="383.21"/>
  </g>
  <g>
    <path d="M1037.08,245.04v-24.44h15.44v2.86h-11.94v7.82h10.9v2.79h-10.9v8.1h11.94v2.86h-15.44Z"/>
    <path d="M1055.17,245.04l6.08-8.8-6.08-8.8h3.77l4.61,6.84,4.64-6.84h3.74l-6.08,8.8,6.08,8.8h-3.74l-4.64-6.88-4.61,6.88h-3.77Z"/>
    <path d="M1077.03,224.13c-.68,0-1.23-.21-1.66-.63s-.65-.96-.65-1.61.21-1.15.65-1.55c.43-.41.98-.61,1.66-.61s1.2.2,1.64.61c.44.41.66.93.66,1.55s-.22,1.19-.66,1.61-.99.63-1.64.63ZM1075.25,245.04v-17.6h3.49v17.6h-3.49Z"/>
    <path d="M1090.97,245.04c-1.09,0-2.05-.17-2.86-.52-.81-.35-1.44-.93-1.89-1.75-.44-.81-.66-1.92-.66-3.32v-9.04h-3.04v-2.97h3.04l.42-4.4h3.07v4.4h4.99v2.97h-4.99v9.08c0,1,.21,1.68.63,2.04.42.36,1.14.54,2.17.54h2.03v2.97h-2.9Z"/>
  </g>
  <g>
    <path class="cls-3" d="M1356.14,392.66c-1.68,0-3.18-.39-4.52-1.17-1.34-.78-2.39-1.86-3.14-3.25-.76-1.38-1.13-2.97-1.13-4.77s.38-3.45,1.15-4.84c.77-1.38,1.82-2.47,3.16-3.25s2.85-1.17,4.52-1.17,3.18.39,4.52,1.17c1.34.78,2.39,1.86,3.14,3.23.76,1.37,1.13,2.98,1.13,4.82s-.38,3.45-1.15,4.82-1.82,2.45-3.16,3.23c-1.34.78-2.85,1.17-4.52,1.17ZM1356.14,389.06c.84,0,1.6-.21,2.29-.63.69-.42,1.24-1.05,1.66-1.89.42-.84.63-1.87.63-3.11s-.2-2.26-.61-3.09c-.41-.83-.96-1.45-1.64-1.87s-1.45-.63-2.29-.63-1.57.21-2.27.63c-.7.42-1.26,1.04-1.68,1.87-.42.83-.63,1.86-.63,3.09s.21,2.27.63,3.11c.42.84.97,1.47,1.66,1.89.69.42,1.44.63,2.25.63Z"/>
    <path class="cls-3" d="M1369.06,392.24v-17.6h3.74l.38,3.28c.42-.77.94-1.43,1.57-1.97.63-.55,1.37-.97,2.22-1.27s1.79-.45,2.81-.45v4.43h-1.47c-.7,0-1.36.09-1.99.26-.63.17-1.17.45-1.62.84-.45.38-.81.91-1.07,1.57-.26.66-.38,1.5-.38,2.5v8.42h-4.19Z"/>
  </g>
  <g>
    <path d="M1310.34,339.67c-1.3-1.33-2.47-2.85-3.49-4.56s-1.82-3.59-2.39-5.64-.86-4.21-.86-6.5.29-4.48.86-6.51,1.37-3.92,2.39-5.64,2.19-3.24,3.49-4.54h4.68v.45c-1.4,1.47-2.6,3.07-3.61,4.82-1.01,1.75-1.8,3.58-2.36,5.5-.56,1.92-.84,3.89-.84,5.92s.28,4,.84,5.92c.56,1.92,1.35,3.75,2.38,5.48,1.02,1.73,2.22,3.35,3.6,4.84v.45h-4.68Z"/>
    <path class="cls-1" d="M1323.4,334.6l8.94-24.44h5.34l8.9,24.44h-4.99l-6.6-19.07-6.64,19.07h-4.96ZM1327.34,329.05l1.26-3.67h12.43l1.22,3.67h-14.91Z"/>
    <path d="M1355,326.47v-3.95h17.04v3.95h-17.04ZM1361.53,332.47v-15.92h4.02v15.92h-4.02Z"/>
    <path class="cls-8" d="M1391.46,335.02c-1.77,0-3.35-.3-4.73-.91-1.39-.61-2.48-1.49-3.28-2.65-.8-1.16-1.22-2.57-1.24-4.23h4.99c.02.72.21,1.37.56,1.96.35.58.83,1.04,1.45,1.38.62.34,1.36.51,2.22.51.75,0,1.39-.12,1.94-.37s.97-.59,1.27-1.03c.3-.44.45-.97.45-1.57,0-.7-.17-1.28-.51-1.75-.34-.46-.8-.86-1.4-1.19-.59-.33-1.28-.62-2.06-.89s-1.6-.55-2.46-.86c-1.93-.63-3.4-1.47-4.42-2.51s-1.52-2.43-1.52-4.16c0-1.47.35-2.72,1.06-3.77.71-1.05,1.69-1.85,2.95-2.41,1.26-.56,2.69-.84,4.29-.84s3.1.29,4.35.86c1.25.57,2.24,1.39,2.97,2.46.73,1.07,1.11,2.33,1.13,3.77h-5.03c-.02-.54-.18-1.04-.47-1.52-.29-.48-.69-.86-1.21-1.15-.51-.29-1.12-.44-1.82-.44-.61-.02-1.16.07-1.66.28-.5.21-.9.52-1.19.92-.29.41-.44.91-.44,1.52s.15,1.07.44,1.47.69.74,1.21,1.03c.51.29,1.12.56,1.82.8.7.24,1.46.5,2.27.75,1.21.42,2.33.91,3.35,1.48,1.02.57,1.84,1.31,2.44,2.22.6.91.91,2.11.91,3.6,0,1.28-.34,2.47-1.01,3.56s-1.65,1.98-2.92,2.65c-1.27.68-2.85,1.01-4.73,1.01Z"/>
    <path d="M1414.5,339.67h-4.71v-.45c1.4-1.49,2.61-3.1,3.63-4.84,1.02-1.73,1.81-3.56,2.36-5.48.55-1.92.82-3.89.82-5.92s-.27-4-.82-5.92c-.55-1.92-1.33-3.75-2.36-5.5-1.02-1.75-2.23-3.35-3.63-4.82v-.45h4.71c1.3,1.3,2.46,2.82,3.47,4.54s1.81,3.6,2.39,5.64.87,4.21.87,6.51-.29,4.45-.87,6.5-1.38,3.93-2.39,5.64-2.17,3.23-3.47,4.56Z"/>
  </g>
  <path class="cls-1" d="M1336.96,456.88l8.94-24.44h5.34l8.9,24.44h-4.99l-6.6-19.07-6.64,19.07h-4.96ZM1340.9,451.32l1.26-3.67h12.43l1.22,3.67h-14.91Z"/>
  <g>
    <path d="M1043.16,402.62v-39.59l-8.23,2.09v-5.06l10.72-4.65h4.38v47.21h-6.88Z"/>
    <path d="M1077.15,402.62v-47.21h17.47c3.28,0,6.02.53,8.23,1.58,2.2,1.06,3.86,2.5,4.96,4.32,1.1,1.82,1.65,3.88,1.65,6.17s-.52,4.38-1.55,6c-1.04,1.62-2.39,2.87-4.08,3.74-1.69.88-3.5,1.38-5.43,1.52l.94-.67c2.07.04,3.96.6,5.67,1.65,1.71,1.06,3.06,2.46,4.05,4.22.99,1.75,1.48,3.69,1.48,5.8,0,2.43-.58,4.62-1.75,6.58-1.17,1.96-2.9,3.5-5.19,4.62-2.29,1.12-5.1,1.69-8.43,1.69h-18.01ZM1083.89,375.78h9.98c2.83,0,4.99-.66,6.47-1.99,1.48-1.33,2.23-3.16,2.23-5.5s-.74-4.04-2.23-5.36c-1.48-1.33-3.71-1.99-6.68-1.99h-9.78v14.84ZM1083.89,397.02h10.39c2.97,0,5.27-.68,6.91-2.06,1.64-1.37,2.46-3.32,2.46-5.83s-.84-4.45-2.53-5.93c-1.69-1.48-4.01-2.23-6.98-2.23h-10.25v16.05Z"/>
    <path d="M1128.6,402.62v-41.68h-13.96v-5.53h34.73v5.53h-14.03v41.68h-6.74Z"/>
    <path d="M1174.73,403.43c-4.63,0-8.62-1.02-11.97-3.07-3.35-2.04-5.93-4.9-7.75-8.56-1.82-3.66-2.73-7.92-2.73-12.78s.91-9.06,2.73-12.75c1.82-3.69,4.41-6.55,7.75-8.6,3.35-2.04,7.34-3.07,11.97-3.07,5.53,0,10.01,1.33,13.45,3.98,3.44,2.65,5.63,6.38,6.58,11.19h-7.42c-.67-2.79-2.06-5.01-4.15-6.68s-4.91-2.5-8.46-2.5c-3.19,0-5.96.74-8.29,2.23-2.34,1.48-4.14,3.6-5.4,6.34-1.26,2.74-1.89,6.03-1.89,9.85s.63,7.12,1.89,9.88c1.26,2.77,3.06,4.88,5.4,6.34,2.34,1.46,5.1,2.19,8.29,2.19,3.55,0,6.37-.8,8.46-2.39s3.47-3.77,4.15-6.51h7.42c-.94,4.68-3.14,8.33-6.58,10.96-3.44,2.63-7.92,3.94-13.45,3.94Z"/>
  </g>
  <g>
    <path d="M379.24,580.55c-2.83,0-5.31-.64-7.46-1.91-2.14-1.27-3.82-3.05-5.04-5.33-1.22-2.28-1.83-4.93-1.83-7.96s.61-5.63,1.83-7.92c1.22-2.28,2.9-4.07,5.04-5.35,2.14-1.29,4.63-1.93,7.46-1.93s5.4.64,7.56,1.93c2.16,1.29,3.83,3.07,5.02,5.35,1.19,2.28,1.79,4.92,1.79,7.92s-.6,5.68-1.79,7.96c-1.19,2.28-2.86,4.06-5.02,5.33-2.16,1.28-4.68,1.91-7.56,1.91ZM379.29,576.81c2.02,0,3.78-.46,5.29-1.39,1.51-.92,2.68-2.24,3.51-3.95s1.24-3.75,1.24-6.13-.41-4.42-1.24-6.13c-.83-1.71-2-3.02-3.51-3.93-1.51-.91-3.28-1.37-5.29-1.37s-3.78.46-5.29,1.37c-1.51.91-2.69,2.22-3.53,3.93-.84,1.71-1.26,3.75-1.26,6.13s.42,4.42,1.26,6.13c.84,1.71,2.02,3.02,3.53,3.95,1.51.92,3.28,1.39,5.29,1.39Z"/>
    <path d="M398.44,580.04v-21.17h3.78l.25,3.61c.67-1.26,1.62-2.26,2.86-3,1.23-.74,2.65-1.11,4.24-1.11,1.68,0,3.12.34,4.33,1.01s2.14,1.69,2.81,3.04c.67,1.36,1.01,3.06,1.01,5.1v12.52h-4.2v-12.1c0-1.96-.43-3.44-1.3-4.45s-2.13-1.51-3.78-1.51c-1.09,0-2.07.26-2.94.78-.87.52-1.56,1.28-2.08,2.29-.52,1.01-.78,2.24-.78,3.7v11.3h-4.2Z"/>
    <path d="M423.34,569.42v-3.53h16.97v3.53h-16.97Z"/>
    <path d="M456.06,580.55c-2.04,0-3.86-.47-5.46-1.41-1.6-.94-2.85-2.23-3.76-3.89-.91-1.65-1.37-3.57-1.37-5.75s.46-4.15,1.37-5.82,2.16-2.97,3.76-3.91c1.6-.94,3.42-1.41,5.46-1.41,2.58,0,4.73.67,6.47,2.02,1.74,1.34,2.84,3.16,3.32,5.46h-4.37c-.28-1.23-.92-2.18-1.91-2.86-1-.67-2.18-1.01-3.55-1.01-1.12,0-2.16.29-3.11.86-.95.57-1.72,1.42-2.29,2.52-.57,1.11-.86,2.47-.86,4.09,0,1.2.17,2.28.5,3.21.34.94.79,1.73,1.37,2.37.57.64,1.24,1.13,2,1.45.76.32,1.55.48,2.39.48.92,0,1.76-.15,2.5-.44s1.37-.74,1.89-1.32c.52-.59.88-1.29,1.07-2.1h4.37c-.48,2.24-1.58,4.04-3.32,5.4-1.74,1.36-3.89,2.04-6.47,2.04Z"/>
    <path d="M470.76,580.04v-30.24h4.2v12.52c.7-1.23,1.67-2.2,2.92-2.9,1.25-.7,2.62-1.05,4.14-1.05,1.68,0,3.12.34,4.33,1.03,1.2.69,2.13,1.71,2.77,3.07.64,1.36.97,3.06.97,5.1v12.47h-4.16v-12.01c0-1.99-.42-3.49-1.26-4.51s-2.09-1.53-3.74-1.53c-1.12,0-2.13.27-3.02.8-.9.53-1.61,1.31-2.14,2.33-.53,1.02-.8,2.26-.8,3.72v11.21h-4.2Z"/>
    <path d="M502.47,580.55c-1.74,0-3.18-.29-4.33-.88-1.15-.59-2-1.38-2.56-2.37-.56-.99-.84-2.06-.84-3.21,0-1.4.36-2.6,1.09-3.59.73-.99,1.76-1.76,3.11-2.29,1.34-.53,2.95-.8,4.83-.8h5.5c0-1.23-.18-2.25-.55-3.07-.36-.81-.9-1.42-1.62-1.83-.71-.41-1.62-.61-2.71-.61-1.26,0-2.34.3-3.23.9-.9.6-1.46,1.49-1.68,2.67h-4.2c.17-1.48.68-2.75,1.53-3.8s1.95-1.86,3.3-2.44c1.34-.57,2.77-.86,4.28-.86,1.99,0,3.65.35,5,1.05,1.34.7,2.36,1.69,3.04,2.96.69,1.27,1.03,2.79,1.03,4.56v13.1h-3.65l-.34-3.57c-.31.56-.67,1.09-1.09,1.6s-.92.94-1.49,1.3c-.57.36-1.23.65-1.97.86-.74.21-1.56.31-2.46.31ZM503.27,577.14c.9,0,1.71-.18,2.44-.55.73-.36,1.35-.86,1.87-1.49s.91-1.34,1.18-2.14c.27-.8.41-1.62.44-2.46v-.13h-5c-1.2,0-2.18.15-2.92.44s-1.28.69-1.62,1.2-.5,1.09-.5,1.76.16,1.3.48,1.79c.32.49.79.88,1.41,1.16.62.28,1.36.42,2.23.42Z"/>
    <path d="M521.29,554.88c-.81,0-1.48-.25-2-.76-.52-.5-.78-1.15-.78-1.93s.26-1.38.78-1.87c.52-.49,1.18-.74,2-.74s1.44.25,1.97.74c.53.49.8,1.11.8,1.87s-.27,1.43-.8,1.93-1.19.76-1.97.76ZM519.15,580.04v-21.17h4.2v21.17h-4.2Z"/>
    <path d="M529.35,580.04v-21.17h3.78l.25,3.61c.67-1.26,1.62-2.26,2.86-3,1.23-.74,2.65-1.11,4.24-1.11,1.68,0,3.12.34,4.33,1.01s2.14,1.69,2.81,3.04c.67,1.36,1.01,3.06,1.01,5.1v12.52h-4.2v-12.1c0-1.96-.43-3.44-1.3-4.45s-2.13-1.51-3.78-1.51c-1.09,0-2.07.26-2.94.78-.87.52-1.56,1.28-2.08,2.29-.52,1.01-.78,2.24-.78,3.7v11.3h-4.2Z"/>
  </g>
  <path class="cls-12" d="M241.63,192.15h430.84c23.26,0,42.15,18.89,42.15,42.15v34.97H199.48v-34.97c0-23.26,18.89-42.15,42.15-42.15Z"/>
  <path d="M679.47,196.15c17.18,0,31.15,13.97,31.15,31.15v229.08c0,17.18-13.97,31.15-31.15,31.15H234.63c-17.18,0-31.15-13.97-31.15-31.15v-229.08c0-17.18,13.97-31.15,31.15-31.15h444.84M679.47,192.15H234.63c-19.41,0-35.15,15.74-35.15,35.15v229.08c0,19.41,15.74,35.15,35.15,35.15h444.84c19.41,0,35.15-15.74,35.15-35.15v-229.08c0-19.41-15.74-35.15-35.15-35.15h0Z"/>
  <line class="cls-5" x1="199.48" y1="269.27" x2="714.62" y2="269.27"/>
  <g>
    <line class="cls-7" x1="457.05" y1="300.08" x2="457.05" y2="466.33"/>
    <line class="cls-7" x1="685.55" y1="383.21" x2="594.49" y2="383.21"/>
    <line class="cls-7" x1="548.75" y1="383.21" x2="457.66" y2="383.21"/>
  </g>
  <g>
    <path d="M245.86,245.04v-24.44h15.19v2.86h-11.7v7.93h9.78v2.79h-9.78v10.86h-3.49Z"/>
    <path d="M271.07,245.46c-1.37,0-2.57-.28-3.58-.84s-1.79-1.4-2.34-2.51c-.55-1.12-.82-2.53-.82-4.23v-10.44h3.49v10.06c0,1.65.36,2.9,1.08,3.74s1.76,1.26,3.11,1.26c.91,0,1.73-.22,2.46-.66s1.31-1.08,1.73-1.92c.42-.84.63-1.86.63-3.07v-9.39h3.49v17.6h-3.11l-.24-3c-.54,1.07-1.32,1.91-2.34,2.51s-2.21.91-3.56.91Z"/>
    <path d="M285.11,245.04v-17.6h3.14l.21,3c.56-1.05,1.35-1.88,2.38-2.5,1.02-.62,2.2-.93,3.53-.93,1.4,0,2.6.28,3.6.84,1,.56,1.78,1.4,2.34,2.53.56,1.13.84,2.54.84,4.24v10.41h-3.49v-10.06c0-1.63-.36-2.86-1.08-3.7s-1.77-1.26-3.14-1.26c-.91,0-1.72.21-2.44.65s-1.3,1.07-1.73,1.9-.65,1.86-.65,3.07v9.39h-3.49Z"/>
    <path d="M313.43,245.46c-1.68,0-3.16-.4-4.44-1.21-1.28-.8-2.28-1.9-2.99-3.28-.71-1.38-1.07-2.96-1.07-4.73s.35-3.38,1.07-4.75c.71-1.37,1.71-2.46,3-3.26s2.78-1.21,4.45-1.21c1.37,0,2.58.27,3.63.82s1.86,1.32,2.44,2.32v-10.27h3.49v25.14h-3.11l-.38-2.72c-.35.54-.8,1.04-1.36,1.52-.56.48-1.23.87-2.03,1.17-.79.3-1.7.45-2.72.45ZM313.99,242.43c1.09,0,2.06-.26,2.9-.77.84-.51,1.48-1.23,1.94-2.17.45-.93.68-2.01.68-3.25s-.23-2.31-.68-3.23-1.1-1.64-1.94-2.17c-.84-.52-1.8-.79-2.9-.79s-1.99.26-2.83.79c-.84.52-1.49,1.25-1.96,2.17-.47.92-.7,2-.7,3.23s.23,2.32.7,3.25c.46.93,1.12,1.65,1.96,2.17.84.51,1.78.77,2.83.77Z"/>
    <path d="M329.84,224.13c-.68,0-1.23-.21-1.66-.63s-.65-.96-.65-1.61.21-1.15.65-1.55c.43-.41.98-.61,1.66-.61s1.2.2,1.64.61c.44.41.66.93.66,1.55s-.22,1.19-.66,1.61-.99.63-1.64.63ZM328.06,245.04v-17.6h3.49v17.6h-3.49Z"/>
    <path d="M336.55,245.04v-17.6h3.14l.21,3c.56-1.05,1.35-1.88,2.38-2.5,1.02-.62,2.2-.93,3.53-.93,1.4,0,2.6.28,3.6.84,1,.56,1.78,1.4,2.34,2.53.56,1.13.84,2.54.84,4.24v10.41h-3.49v-10.06c0-1.63-.36-2.86-1.08-3.7s-1.77-1.26-3.14-1.26c-.91,0-1.72.21-2.44.65s-1.3,1.07-1.73,1.9-.65,1.86-.65,3.07v9.39h-3.49Z"/>
    <path d="M364.21,253.15c-1.61,0-3.03-.2-4.26-.61-1.23-.41-2.19-1.03-2.86-1.87s-1.01-1.86-1.01-3.07c0-.63.14-1.26.42-1.9.28-.64.73-1.25,1.36-1.83s1.48-1.11,2.55-1.57l1.96,1.57c-1.19.44-1.99.97-2.39,1.59s-.61,1.22-.61,1.8c0,.7.21,1.28.63,1.75s1,.82,1.73,1.05,1.57.35,2.5.35,1.7-.13,2.38-.38c.67-.26,1.2-.62,1.57-1.08.37-.47.56-1.01.56-1.64,0-.75-.28-1.37-.84-1.87-.56-.5-1.63-.8-3.21-.89-1.33-.09-2.45-.22-3.37-.38-.92-.16-1.7-.36-2.34-.59-.64-.23-1.18-.49-1.61-.77-.43-.28-.8-.57-1.1-.87v-.8l3.49-3.6,2.83.98-3.81,3.53.73-1.57c.26.16.5.32.73.47.23.15.55.29.94.4.4.12.93.22,1.61.31.67.09,1.56.19,2.65.28,1.58.12,2.86.4,3.82.84s1.67,1.04,2.11,1.78c.44.75.66,1.63.66,2.65s-.27,1.96-.82,2.86c-.55.91-1.4,1.65-2.55,2.24-1.15.58-2.64.87-4.45.87ZM364.21,239.63c-1.49,0-2.75-.28-3.79-.84s-1.83-1.32-2.37-2.27c-.55-.96-.82-2.01-.82-3.18s.27-2.25.82-3.2c.55-.94,1.34-1.7,2.39-2.27,1.05-.57,2.3-.86,3.77-.86s2.72.29,3.75.86c1.04.57,1.83,1.33,2.38,2.27.55.94.82,2.01.82,3.2s-.27,2.22-.82,3.18c-.55.95-1.34,1.71-2.38,2.27s-2.29.84-3.75.84ZM364.21,236.84c1.14,0,2.05-.3,2.72-.89s1.01-1.46,1.01-2.6-.34-2.01-1.01-2.6c-.67-.59-1.58-.89-2.72-.89s-2.06.3-2.76.89c-.7.59-1.05,1.46-1.05,2.6s.35,2.01,1.05,2.6,1.62.89,2.76.89ZM367.07,230.2l-.84-2.76h7.23v2.41l-6.39.35Z"/>
  </g>
  <g>
    <path class="cls-3" d="M564.92,392.66c-1.68,0-3.18-.39-4.52-1.17-1.34-.78-2.39-1.86-3.14-3.25-.76-1.38-1.13-2.97-1.13-4.77s.38-3.45,1.15-4.84c.77-1.38,1.82-2.47,3.16-3.25s2.85-1.17,4.52-1.17,3.18.39,4.52,1.17c1.34.78,2.39,1.86,3.14,3.23.76,1.37,1.13,2.98,1.13,4.82s-.38,3.45-1.15,4.82-1.82,2.45-3.16,3.23c-1.34.78-2.85,1.17-4.52,1.17ZM564.92,389.06c.84,0,1.6-.21,2.29-.63.69-.42,1.24-1.05,1.66-1.89.42-.84.63-1.87.63-3.11s-.2-2.26-.61-3.09c-.41-.83-.96-1.45-1.64-1.87s-1.45-.63-2.29-.63-1.57.21-2.27.63c-.7.42-1.26,1.04-1.68,1.87-.42.83-.63,1.86-.63,3.09s.21,2.27.63,3.11c.42.84.97,1.47,1.66,1.89.69.42,1.44.63,2.25.63Z"/>
    <path class="cls-3" d="M577.84,392.24v-17.6h3.74l.38,3.28c.42-.77.94-1.43,1.57-1.97.63-.55,1.37-.97,2.22-1.27s1.79-.45,2.81-.45v4.43h-1.47c-.7,0-1.36.09-1.99.26-.63.17-1.17.45-1.62.84-.45.38-.81.91-1.07,1.57-.26.66-.38,1.5-.38,2.5v8.42h-4.19Z"/>
  </g>
  <g>
    <path d="M519.11,339.67c-1.3-1.33-2.47-2.85-3.49-4.56s-1.82-3.59-2.39-5.64-.86-4.21-.86-6.5.29-4.48.86-6.51,1.37-3.92,2.39-5.64,2.19-3.24,3.49-4.54h4.68v.45c-1.4,1.47-2.6,3.07-3.61,4.82-1.01,1.75-1.8,3.58-2.36,5.5-.56,1.92-.84,3.89-.84,5.92s.28,4,.84,5.92c.56,1.92,1.35,3.75,2.38,5.48,1.02,1.73,2.22,3.35,3.6,4.84v.45h-4.68Z"/>
    <path class="cls-1" d="M532.18,334.6l8.94-24.44h5.34l8.9,24.44h-4.99l-6.6-19.07-6.64,19.07h-4.96ZM536.12,329.05l1.26-3.67h12.43l1.22,3.67h-14.91Z"/>
    <path d="M563.78,326.47v-3.95h17.04v3.95h-17.04ZM570.31,332.47v-15.92h4.02v15.92h-4.02Z"/>
    <path class="cls-8" d="M600.24,335.02c-1.77,0-3.35-.3-4.73-.91-1.39-.61-2.48-1.49-3.28-2.65-.8-1.16-1.22-2.57-1.24-4.23h4.99c.02.72.21,1.37.56,1.96.35.58.83,1.04,1.45,1.38.62.34,1.36.51,2.22.51.75,0,1.39-.12,1.94-.37s.97-.59,1.27-1.03c.3-.44.45-.97.45-1.57,0-.7-.17-1.28-.51-1.75-.34-.46-.8-.86-1.4-1.19-.59-.33-1.28-.62-2.06-.89s-1.6-.55-2.46-.86c-1.93-.63-3.4-1.47-4.42-2.51s-1.52-2.43-1.52-4.16c0-1.47.35-2.72,1.06-3.77.71-1.05,1.69-1.85,2.95-2.41,1.26-.56,2.69-.84,4.29-.84s3.1.29,4.35.86c1.25.57,2.24,1.39,2.97,2.46.73,1.07,1.11,2.33,1.13,3.77h-5.03c-.02-.54-.18-1.04-.47-1.52-.29-.48-.69-.86-1.21-1.15-.51-.29-1.12-.44-1.82-.44-.61-.02-1.16.07-1.66.28-.5.21-.9.52-1.19.92-.29.41-.44.91-.44,1.52s.15,1.07.44,1.47.69.74,1.21,1.03c.51.29,1.12.56,1.82.8.7.24,1.46.5,2.27.75,1.21.42,2.33.91,3.35,1.48,1.02.57,1.84,1.31,2.44,2.22.6.91.91,2.11.91,3.6,0,1.28-.34,2.47-1.01,3.56s-1.65,1.98-2.92,2.65c-1.27.68-2.85,1.01-4.73,1.01Z"/>
    <path d="M623.28,339.67h-4.71v-.45c1.4-1.49,2.61-3.1,3.63-4.84,1.02-1.73,1.81-3.56,2.36-5.48.55-1.92.82-3.89.82-5.92s-.27-4-.82-5.92c-.55-1.92-1.33-3.75-2.36-5.5-1.02-1.75-2.23-3.35-3.63-4.82v-.45h4.71c1.3,1.3,2.46,2.82,3.47,4.54s1.81,3.6,2.39,5.64.87,4.21.87,6.51-.29,4.45-.87,6.5-1.38,3.93-2.39,5.64-2.17,3.23-3.47,4.56Z"/>
  </g>
  <path class="cls-8" d="M556.4,457.3c-1.77,0-3.35-.3-4.73-.91-1.39-.61-2.48-1.49-3.28-2.65-.8-1.16-1.22-2.57-1.24-4.22h4.99c.02.72.21,1.37.56,1.96.35.58.83,1.04,1.45,1.38.62.34,1.36.51,2.22.51.75,0,1.39-.12,1.94-.37.55-.25.97-.59,1.27-1.03s.45-.97.45-1.57c0-.7-.17-1.28-.51-1.75-.34-.47-.8-.86-1.4-1.19s-1.28-.62-2.06-.89-1.6-.55-2.46-.86c-1.93-.63-3.4-1.47-4.42-2.51-1.01-1.05-1.52-2.43-1.52-4.16,0-1.47.35-2.72,1.06-3.77s1.69-1.85,2.95-2.41c1.26-.56,2.69-.84,4.29-.84s3.1.29,4.35.86c1.25.57,2.24,1.39,2.97,2.46.73,1.07,1.11,2.33,1.13,3.77h-5.03c-.02-.54-.18-1.04-.47-1.52-.29-.48-.69-.86-1.21-1.15-.51-.29-1.12-.44-1.82-.44-.61-.02-1.16.07-1.66.28-.5.21-.9.52-1.19.93s-.44.91-.44,1.52.15,1.07.44,1.47c.29.4.69.74,1.21,1.03.51.29,1.12.56,1.82.8.7.25,1.46.5,2.27.75,1.21.42,2.33.91,3.35,1.48,1.02.57,1.84,1.31,2.44,2.22.6.91.91,2.11.91,3.6,0,1.28-.34,2.47-1.01,3.56-.67,1.09-1.65,1.98-2.92,2.65-1.27.67-2.85,1.01-4.73,1.01Z"/>
  <g>
    <path d="M251.94,402.62v-39.59l-8.23,2.09v-5.06l10.72-4.65h4.38v47.21h-6.88Z"/>
    <path d="M285.92,402.62v-47.21h17.47c3.28,0,6.02.53,8.23,1.58,2.2,1.06,3.86,2.5,4.96,4.32,1.1,1.82,1.65,3.88,1.65,6.17s-.52,4.38-1.55,6c-1.04,1.62-2.39,2.87-4.08,3.74-1.69.88-3.5,1.38-5.43,1.52l.94-.67c2.07.04,3.96.6,5.67,1.65,1.71,1.06,3.06,2.46,4.05,4.22.99,1.75,1.48,3.69,1.48,5.8,0,2.43-.58,4.62-1.75,6.58-1.17,1.96-2.9,3.5-5.19,4.62-2.29,1.12-5.1,1.69-8.43,1.69h-18.01ZM292.67,375.78h9.98c2.83,0,4.99-.66,6.47-1.99,1.48-1.33,2.23-3.16,2.23-5.5s-.74-4.04-2.23-5.36c-1.48-1.33-3.71-1.99-6.68-1.99h-9.78v14.84ZM292.67,397.02h10.39c2.97,0,5.27-.68,6.91-2.06,1.64-1.37,2.46-3.32,2.46-5.83s-.84-4.45-2.53-5.93c-1.69-1.48-4.01-2.23-6.98-2.23h-10.25v16.05Z"/>
    <path d="M337.38,402.62v-41.68h-13.96v-5.53h34.73v5.53h-14.03v41.68h-6.74Z"/>
    <path d="M383.51,403.43c-4.63,0-8.62-1.02-11.97-3.07-3.35-2.04-5.93-4.9-7.75-8.56-1.82-3.66-2.73-7.92-2.73-12.78s.91-9.06,2.73-12.75c1.82-3.69,4.41-6.55,7.75-8.6,3.35-2.04,7.34-3.07,11.97-3.07,5.53,0,10.01,1.33,13.45,3.98,3.44,2.65,5.63,6.38,6.58,11.19h-7.42c-.67-2.79-2.06-5.01-4.15-6.68s-4.91-2.5-8.46-2.5c-3.19,0-5.96.74-8.29,2.23-2.34,1.48-4.14,3.6-5.4,6.34-1.26,2.74-1.89,6.03-1.89,9.85s.63,7.12,1.89,9.88c1.26,2.77,3.06,4.88,5.4,6.34,2.34,1.46,5.1,2.19,8.29,2.19,3.55,0,6.37-.8,8.46-2.39s3.47-3.77,4.15-6.51h7.42c-.94,4.68-3.14,8.33-6.58,10.96-3.44,2.63-7.92,3.94-13.45,3.94Z"/>
  </g>
  <line class="cls-4" x1="714.62" y1="323.55" x2="991.77" y2="323.55"/>
  <path class="cls-6" d="M1044.89,93.9h496.3c30.62,0,55.44,22.05,55.44,49.26v463.05c0,27.2-24.82,49.25-55.44,49.25H164.13c-30.62,0-55.44-22.05-55.44-49.25V143.17c0-27.21,24.82-49.26,55.44-49.26h491.03"/>
  <g>
    <path d="M684.81,110.86v-41.28h16.92c2.87,0,5.29.45,7.25,1.36s3.45,2.15,4.45,3.74c1,1.59,1.5,3.43,1.5,5.51s-.45,3.83-1.36,5.25c-.91,1.42-2.09,2.51-3.57,3.27-1.47.77-3.1,1.21-4.87,1.33l.94-.65c1.89.08,3.57.58,5.04,1.5,1.47.92,2.63,2.15,3.48,3.69.84,1.53,1.27,3.21,1.27,5.01,0,2.2-.53,4.15-1.59,5.84-1.06,1.69-2.59,3.02-4.6,3.98-2,.96-4.46,1.45-7.37,1.45h-17.51ZM692.77,86.81h7.67c2.08,0,3.67-.47,4.75-1.42,1.08-.94,1.62-2.28,1.62-4.01s-.54-3.02-1.62-3.98c-1.08-.96-2.68-1.45-4.81-1.45h-7.61v10.85ZM692.77,104.38h8.26c2.16,0,3.83-.49,5.01-1.47,1.18-.98,1.77-2.4,1.77-4.25s-.61-3.29-1.83-4.33c-1.22-1.04-2.91-1.56-5.07-1.56h-8.14v11.62Z"/>
    <path d="M736.29,111.57c-2.83,0-5.38-.66-7.64-1.97-2.26-1.32-4.05-3.15-5.37-5.48-1.32-2.34-1.98-5.02-1.98-8.05s.66-5.83,1.98-8.17c1.32-2.34,3.12-4.17,5.4-5.48,2.28-1.32,4.83-1.98,7.67-1.98s5.43.66,7.7,1.98c2.26,1.32,4.05,3.15,5.37,5.48s1.98,5.04,1.98,8.11-.66,5.77-1.98,8.11-3.12,4.17-5.4,5.48c-2.28,1.32-4.86,1.97-7.72,1.97ZM736.29,104.67c1.34,0,2.53-.31,3.57-.94,1.04-.63,1.87-1.59,2.48-2.89.61-1.3.91-2.91.91-4.84s-.3-3.53-.91-4.81c-.61-1.28-1.44-2.24-2.48-2.89-1.04-.65-2.21-.97-3.51-.97s-2.42.32-3.48.97c-1.06.65-1.9,1.61-2.51,2.89-.61,1.28-.91,2.88-.91,4.81s.3,3.54.91,4.84c.61,1.3,1.43,2.26,2.48,2.89,1.04.63,2.19.94,3.45.94Z"/>
    <path d="M768.25,111.57c-2.48,0-4.52-.4-6.13-1.21-1.61-.81-2.8-1.89-3.57-3.24-.77-1.36-1.15-2.86-1.15-4.51,0-1.81.46-3.4,1.39-4.78.92-1.38,2.32-2.46,4.19-3.24,1.87-.79,4.22-1.18,7.05-1.18h7.37c0-1.45-.2-2.66-.59-3.63-.39-.96-1-1.68-1.83-2.15-.83-.47-1.93-.71-3.3-.71-1.49,0-2.76.32-3.8.97-1.04.65-1.68,1.64-1.92,2.98h-7.72c.2-2.12.89-3.96,2.09-5.51,1.2-1.55,2.79-2.76,4.78-3.63,1.98-.86,4.2-1.3,6.63-1.3,2.79,0,5.21.47,7.25,1.42,2.04.94,3.62,2.3,4.72,4.07s1.65,3.95,1.65,6.54v18.4h-6.72l-.88-4.54c-.43.79-.94,1.5-1.53,2.12-.59.63-1.28,1.18-2.06,1.65s-1.67.83-2.65,1.09c-.98.25-2.06.38-3.24.38ZM770.13,105.44c1.02,0,1.94-.19,2.74-.56.81-.37,1.5-.88,2.09-1.53s1.05-1.39,1.39-2.24c.33-.84.56-1.76.68-2.74v-.06h-6.07c-1.22,0-2.21.15-2.98.44-.77.29-1.33.72-1.68,1.27-.35.55-.53,1.18-.53,1.89,0,.79.18,1.44.53,1.95.35.51.86.91,1.53,1.18.67.28,1.43.41,2.3.41Z"/>
    <path d="M792.78,110.86v-29.72h7.08l.77,5.48c.71-1.3,1.6-2.4,2.68-3.3,1.08-.9,2.32-1.61,3.72-2.12,1.39-.51,2.94-.77,4.63-.77v8.43h-2.71c-1.18,0-2.27.14-3.27.41-1,.28-1.88.72-2.62,1.33-.75.61-1.32,1.45-1.71,2.51-.39,1.06-.59,2.4-.59,4.01v13.74h-7.96Z"/>
    <path d="M829.63,111.57c-2.71,0-5.14-.67-7.28-2-2.14-1.34-3.82-3.18-5.04-5.54-1.22-2.36-1.83-5.01-1.83-7.96s.62-5.71,1.86-8.05,2.95-4.19,5.13-5.54c2.18-1.36,4.63-2.04,7.34-2.04,2.12,0,3.99.39,5.6,1.18,1.61.79,2.91,1.91,3.89,3.36v-16.57h7.96v42.46h-7.08l-.88-4.07c-.59.83-1.33,1.61-2.21,2.36-.88.75-1.94,1.34-3.15,1.77-1.22.43-2.65.65-4.3.65ZM831.52,104.61c1.57,0,2.96-.36,4.16-1.09,1.2-.73,2.13-1.74,2.8-3.04.67-1.3,1-2.79,1-4.48s-.33-3.18-1-4.48c-.67-1.3-1.6-2.31-2.8-3.04s-2.58-1.09-4.16-1.09-2.85.36-4.07,1.09c-1.22.73-2.17,1.74-2.86,3.04-.69,1.3-1.03,2.77-1.03,4.42s.34,3.24,1.03,4.54c.69,1.3,1.63,2.31,2.83,3.04,1.2.73,2.56,1.09,4.1,1.09Z"/>
    <path d="M880.93,110.86l-15.04-41.28h8.49l11.44,33.14,11.5-33.14h8.43l-15.04,41.28h-9.79Z"/>
    <path d="M920.32,110.86v-34.85h-12.09v-6.43h32.02v6.43h-12.03v34.85h-7.9Z"/>
    <path d="M943.79,110.86l13.03-20.93-13.21-20.34h9.2l9.08,14.09,8.31-14.09h8.96l-12.91,20.7,13.27,20.58h-9.2l-9.14-14.33-8.37,14.33h-9.02Z"/>
    <path d="M1001.46,111.57c-4.01,0-7.55-.9-10.61-2.71-3.07-1.81-5.46-4.31-7.19-7.52-1.73-3.2-2.59-6.91-2.59-11.12s.86-7.91,2.59-11.12,4.13-5.71,7.19-7.52c3.07-1.81,6.6-2.71,10.61-2.71s7.61.9,10.67,2.71c3.07,1.81,5.45,4.31,7.17,7.52,1.71,3.2,2.56,6.91,2.56,11.12s-.85,7.91-2.56,11.12c-1.71,3.2-4.1,5.71-7.17,7.52-3.07,1.81-6.62,2.71-10.67,2.71ZM1001.46,104.44c2.52,0,4.69-.58,6.52-1.74,1.83-1.16,3.25-2.8,4.28-4.92,1.02-2.12,1.53-4.64,1.53-7.55s-.51-5.47-1.53-7.58c-1.02-2.1-2.45-3.72-4.28-4.87-1.83-1.14-4-1.71-6.52-1.71s-4.64.57-6.49,1.71c-1.85,1.14-3.28,2.76-4.3,4.87-1.02,2.1-1.53,4.63-1.53,7.58s.51,5.42,1.53,7.55c1.02,2.12,2.46,3.76,4.3,4.92,1.85,1.16,4.01,1.74,6.49,1.74Z"/>
  </g>
  <g>
    <path class="cls-1" d="M191.89,771.15l7.68-21h4.59l7.65,21h-4.29l-5.67-16.38-5.7,16.38h-4.26ZM195.28,766.38l1.08-3.15h10.68l1.05,3.15h-12.81Z"/>
    <g>
      <path class="cls-1" d="M232.55,760.86v-3.54h12.87v3.54h-12.87ZM232.55,767.58v-3.54h12.87v3.54h-12.87Z"/>
      <path class="cls-1" d="M262.43,771.15l7.68-21h4.59l7.65,21h-4.29l-5.67-16.38-5.7,16.38h-4.26ZM265.82,766.38l1.08-3.15h10.68l1.05,3.15h-12.81Z"/>
      <path class="cls-1" d="M285.02,771.15v-21.6h4.05v21.6h-4.05Z"/>
      <path class="cls-1" d="M295.16,753.96c-.72,0-1.32-.21-1.79-.65-.47-.43-.71-.97-.71-1.63s.23-1.21.71-1.63c.47-.43,1.06-.65,1.79-.65s1.34.22,1.81.65.71.97.71,1.63-.24,1.21-.71,1.63c-.47.43-1.08.65-1.81.65ZM293.12,771.15v-15.12h4.05v15.12h-4.05Z"/>
      <path class="cls-1" d="M308.57,771.51c-1.52,0-2.87-.34-4.05-1.02-1.18-.68-2.1-1.61-2.76-2.79-.66-1.18-.99-2.53-.99-4.05s.33-2.93.99-4.12c.66-1.19,1.58-2.13,2.76-2.82,1.18-.69,2.53-1.04,4.05-1.04,1.94,0,3.57.51,4.89,1.53,1.32,1.02,2.16,2.42,2.52,4.2h-4.29c-.18-.7-.55-1.25-1.12-1.65s-1.25-.6-2.03-.6c-.7,0-1.32.18-1.88.53-.55.35-.98.86-1.29,1.53-.31.67-.47,1.46-.47,2.38,0,.7.09,1.33.27,1.88s.43,1.02.75,1.41c.32.39.71.68,1.16.88.45.2.93.3,1.45.3s1-.09,1.43-.27c.43-.18.79-.44,1.09-.77s.51-.73.63-1.21h4.29c-.36,1.74-1.21,3.12-2.54,4.16s-2.96,1.54-4.88,1.54Z"/>
      <path class="cls-1" d="M326.72,771.51c-1.52,0-2.87-.33-4.04-.98-1.17-.65-2.08-1.56-2.73-2.73-.65-1.17-.97-2.52-.97-4.07s.32-2.97.96-4.18c.64-1.21,1.54-2.16,2.71-2.85,1.17-.69,2.52-1.04,4.07-1.04s2.81.33,3.93.99c1.12.66,1.99,1.55,2.61,2.67.62,1.12.93,2.39.93,3.81v.67c0,.25-.02.51-.06.77h-12.27v-2.46h8.25c-.06-.98-.41-1.75-1.04-2.31-.63-.56-1.42-.84-2.35-.84-.68,0-1.31.16-1.89.46-.58.31-1.03.79-1.36,1.42-.33.64-.5,1.45-.5,2.43v.87c0,.82.15,1.54.46,2.15.31.61.75,1.08,1.3,1.41s1.21.5,1.95.5,1.35-.16,1.84-.48c.49-.32.86-.73,1.1-1.23h4.14c-.28.94-.75,1.79-1.41,2.55s-1.47,1.36-2.43,1.8-2.03.66-3.21.66Z"/>
      <path class="cls-1" d="M349.76,775.5c-1.12-1.14-2.12-2.45-3-3.92-.88-1.47-1.57-3.08-2.05-4.85-.49-1.76-.74-3.62-.74-5.58s.25-3.84.74-5.59c.49-1.75,1.17-3.36,2.05-4.84.88-1.48,1.88-2.78,3-3.9h4.02v.39c-1.2,1.26-2.24,2.64-3.11,4.14s-1.54,3.08-2.03,4.72c-.48,1.65-.72,3.35-.72,5.08s.24,3.44.72,5.09c.48,1.65,1.16,3.22,2.04,4.71.88,1.49,1.91,2.87,3.09,4.15v.39h-4.02Z"/>
      <path class="cls-1" d="M362.36,771.51c-1.22,0-2.26-.25-3.13-.76-.87-.51-1.54-1.26-2-2.25-.46-.99-.69-2.21-.69-3.68v-8.79h4.05v8.37c0,1.22.26,2.14.77,2.76.51.62,1.29.93,2.35.93.68,0,1.28-.16,1.8-.46.52-.31.94-.76,1.25-1.35.31-.59.47-1.31.47-2.17v-8.07h4.02v15.12h-3.54l-.33-2.46c-.44.86-1.09,1.54-1.95,2.06-.86.51-1.88.76-3.06.76Z"/>
      <path class="cls-1" d="M381.38,771.51c-1.38,0-2.58-.22-3.6-.66-1.02-.44-1.82-1.05-2.4-1.83s-.91-1.66-.99-2.64h4.02c.1.38.27.72.51,1.04.24.31.56.55.96.73.4.18.88.27,1.44.27s.98-.08,1.32-.23c.34-.15.59-.35.76-.61s.26-.53.26-.81c0-.42-.12-.75-.36-.97s-.59-.42-1.05-.56c-.46-.14-1.02-.28-1.68-.42-.72-.14-1.42-.31-2.11-.52-.69-.21-1.31-.48-1.85-.79-.54-.32-.97-.73-1.29-1.23-.32-.5-.48-1.12-.48-1.86,0-.9.24-1.7.72-2.41.48-.71,1.18-1.28,2.1-1.7.92-.42,2.03-.63,3.33-.63,1.82,0,3.26.41,4.32,1.23,1.06.82,1.69,1.95,1.89,3.39h-3.81c-.12-.46-.38-.83-.79-1.1-.41-.27-.96-.4-1.63-.4-.72,0-1.27.13-1.65.39s-.57.6-.57,1.02c0,.28.12.53.38.75.25.22.61.41,1.07.56.46.15,1.02.29,1.68.43,1.16.24,2.18.52,3.06.83.88.31,1.57.75,2.07,1.32.5.57.75,1.39.75,2.47,0,.96-.26,1.82-.78,2.57-.52.75-1.26,1.33-2.21,1.75-.95.42-2.08.63-3.38.63Z"/>
      <path class="cls-1" d="M398.42,771.51c-1.52,0-2.87-.33-4.04-.98-1.17-.65-2.08-1.56-2.73-2.73-.65-1.17-.97-2.52-.97-4.07s.32-2.97.96-4.18c.64-1.21,1.54-2.16,2.71-2.85,1.17-.69,2.52-1.04,4.07-1.04s2.81.33,3.93.99c1.12.66,1.99,1.55,2.61,2.67.62,1.12.93,2.39.93,3.81v.67c0,.25-.02.51-.06.77h-12.27v-2.46h8.25c-.06-.98-.41-1.75-1.04-2.31-.63-.56-1.42-.84-2.35-.84-.68,0-1.31.16-1.89.46-.58.31-1.03.79-1.36,1.42-.33.64-.5,1.45-.5,2.43v.87c0,.82.15,1.54.46,2.15.31.61.75,1.08,1.3,1.41s1.21.5,1.95.5,1.35-.16,1.84-.48c.49-.32.86-.73,1.1-1.23h4.14c-.28.94-.75,1.79-1.41,2.55s-1.47,1.36-2.43,1.8-2.03.66-3.21.66Z"/>
      <path class="cls-1" d="M409.22,771.15v-15.12h3.6l.39,2.79c.36-.66.82-1.22,1.37-1.68s1.18-.82,1.89-1.08,1.5-.39,2.36-.39v4.29h-1.38c-.6,0-1.16.07-1.67.21s-.96.37-1.33.67c-.38.31-.67.74-.87,1.28-.2.54-.3,1.22-.3,2.04v6.99h-4.05Z"/>
      <path class="cls-1" d="M424.49,775.5h-4.05v-.39c1.2-1.28,2.24-2.67,3.12-4.15.88-1.49,1.55-3.06,2.03-4.71.47-1.65.71-3.35.71-5.09s-.24-3.43-.71-5.08c-.47-1.65-1.15-3.22-2.03-4.72s-1.92-2.88-3.12-4.14v-.39h4.05c1.12,1.12,2.11,2.42,2.98,3.9.87,1.48,1.55,3.09,2.05,4.84.5,1.75.75,3.62.75,5.59s-.25,3.82-.75,5.58c-.5,1.76-1.18,3.38-2.05,4.85-.87,1.47-1.87,2.77-2.98,3.92Z"/>
    </g>
  </g>
  <g>
    <path class="cls-8" d="M503.82,771.51c-1.52,0-2.88-.26-4.06-.78-1.19-.52-2.13-1.28-2.82-2.28-.69-1-1.04-2.21-1.07-3.63h4.29c.02.62.18,1.18.48,1.68s.71.89,1.25,1.18c.53.29,1.17.44,1.9.44.64,0,1.2-.11,1.67-.32s.83-.5,1.1-.88c.26-.38.39-.83.39-1.35,0-.6-.15-1.1-.43-1.5-.29-.4-.69-.74-1.2-1.02s-1.1-.54-1.77-.77c-.67-.23-1.38-.47-2.11-.73-1.66-.54-2.93-1.26-3.79-2.16-.87-.9-1.31-2.09-1.31-3.57,0-1.26.3-2.34.92-3.24.61-.9,1.46-1.59,2.54-2.07,1.08-.48,2.31-.72,3.69-.72s2.66.25,3.73.73c1.07.49,1.92,1.2,2.55,2.12.63.92.96,2,.98,3.24h-4.32c-.02-.46-.16-.9-.41-1.31-.25-.41-.59-.74-1.03-.99-.44-.25-.96-.38-1.56-.38-.52-.02-1,.06-1.42.24-.43.18-.77.45-1.02.8-.25.35-.38.79-.38,1.3s.12.92.38,1.26c.25.34.6.63,1.04.88.44.25.96.48,1.56.69.6.21,1.25.42,1.95.64,1.04.36,2,.79,2.88,1.28.88.49,1.58,1.12,2.1,1.91.52.78.78,1.81.78,3.09,0,1.1-.29,2.12-.87,3.06-.58.94-1.42,1.7-2.5,2.28-1.09.58-2.45.87-4.07.87Z"/>
    <g>
      <path class="cls-8" d="M532.69,760.86v-3.54h12.87v3.54h-12.87ZM532.69,767.58v-3.54h12.87v3.54h-12.87Z"/>
      <path class="cls-8" d="M562.57,771.15l7.68-21h4.59l7.65,21h-4.29l-5.67-16.38-5.7,16.38h-4.26ZM565.96,766.38l1.08-3.15h10.68l1.05,3.15h-12.81Z"/>
      <path class="cls-8" d="M585.16,771.15v-15.12h3.6l.39,2.79c.36-.66.82-1.22,1.37-1.68s1.18-.82,1.89-1.08,1.5-.39,2.36-.39v4.29h-1.38c-.6,0-1.16.07-1.67.21s-.96.37-1.33.67c-.38.31-.67.74-.87,1.28-.2.54-.3,1.22-.3,2.04v6.99h-4.05Z"/>
      <path class="cls-8" d="M597.43,771.15v-21.6h4.05v21.6h-4.05ZM607.33,771.15l-6.45-8.28,5.79-6.84h4.77l-7.47,8.55v-3.21l8.4,9.78h-5.04Z"/>
      <path class="cls-8" d="M628,771.51c-1.38,0-2.58-.22-3.6-.66-1.02-.44-1.82-1.05-2.4-1.83s-.91-1.66-.99-2.64h4.02c.1.38.27.72.51,1.04.24.31.56.55.96.73.4.18.88.27,1.44.27s.98-.08,1.32-.23c.34-.15.59-.35.76-.61s.26-.53.26-.81c0-.42-.12-.75-.36-.97s-.59-.42-1.05-.56c-.46-.14-1.02-.28-1.68-.42-.72-.14-1.42-.31-2.11-.52-.69-.21-1.31-.48-1.85-.79-.54-.32-.97-.73-1.29-1.23-.32-.5-.48-1.12-.48-1.86,0-.9.24-1.7.72-2.41.48-.71,1.18-1.28,2.1-1.7.92-.42,2.03-.63,3.33-.63,1.82,0,3.26.41,4.32,1.23,1.06.82,1.69,1.95,1.89,3.39h-3.81c-.12-.46-.38-.83-.79-1.1-.41-.27-.96-.4-1.63-.4-.72,0-1.27.13-1.65.39s-.57.6-.57,1.02c0,.28.12.53.38.75.25.22.61.41,1.07.56.46.15,1.02.29,1.68.43,1.16.24,2.18.52,3.06.83.88.31,1.57.75,2.07,1.32.5.57.75,1.39.75,2.47,0,.96-.26,1.82-.78,2.57-.52.75-1.26,1.33-2.21,1.75-.95.42-2.08.63-3.38.63Z"/>
      <path class="cls-8" d="M645.04,771.51c-1.52,0-2.87-.33-4.04-.98-1.17-.65-2.08-1.56-2.73-2.73-.65-1.17-.97-2.52-.97-4.07s.32-2.97.96-4.18c.64-1.21,1.54-2.16,2.71-2.85,1.17-.69,2.52-1.04,4.07-1.04s2.81.33,3.93.99c1.12.66,1.99,1.55,2.61,2.67.62,1.12.93,2.39.93,3.81v.67c0,.25-.02.51-.06.77h-12.27v-2.46h8.25c-.06-.98-.41-1.75-1.04-2.31-.63-.56-1.42-.84-2.35-.84-.68,0-1.31.16-1.89.46-.58.31-1.03.79-1.36,1.42-.33.64-.5,1.45-.5,2.43v.87c0,.82.15,1.54.46,2.15.31.61.75,1.08,1.3,1.41s1.21.5,1.95.5,1.35-.16,1.84-.48c.49-.32.86-.73,1.1-1.23h4.14c-.28.94-.75,1.79-1.41,2.55s-1.47,1.36-2.43,1.8-2.03.66-3.21.66Z"/>
      <path class="cls-8" d="M655.84,771.15v-15.12h3.6l.39,2.79c.36-.66.82-1.22,1.37-1.68s1.18-.82,1.89-1.08,1.5-.39,2.36-.39v4.29h-1.38c-.6,0-1.16.07-1.67.21s-.96.37-1.33.67c-.38.31-.67.74-.87,1.28-.2.54-.3,1.22-.3,2.04v6.99h-4.05Z"/>
      <path class="cls-8" d="M672.16,771.15l-5.55-15.12h4.26l3.75,11.31,3.75-11.31h4.23l-5.52,15.12h-4.92Z"/>
      <path class="cls-8" d="M691.63,771.51c-1.52,0-2.87-.33-4.04-.98-1.17-.65-2.08-1.56-2.73-2.73-.65-1.17-.97-2.52-.97-4.07s.32-2.97.96-4.18c.64-1.21,1.54-2.16,2.71-2.85,1.17-.69,2.52-1.04,4.07-1.04s2.81.33,3.93.99c1.12.66,1.99,1.55,2.61,2.67.62,1.12.93,2.39.93,3.81v.67c0,.25-.02.51-.06.77h-12.27v-2.46h8.25c-.06-.98-.41-1.75-1.04-2.31-.63-.56-1.42-.84-2.35-.84-.68,0-1.31.16-1.89.46-.58.31-1.03.79-1.36,1.42-.33.64-.5,1.45-.5,2.43v.87c0,.82.15,1.54.46,2.15.31.61.75,1.08,1.3,1.41s1.21.5,1.95.5,1.35-.16,1.84-.48c.49-.32.86-.73,1.1-1.23h4.14c-.28.94-.75,1.79-1.41,2.55s-1.47,1.36-2.43,1.8-2.03.66-3.21.66Z"/>
      <path class="cls-8" d="M702.43,771.15v-15.12h3.6l.39,2.79c.36-.66.82-1.22,1.37-1.68s1.18-.82,1.89-1.08,1.5-.39,2.36-.39v4.29h-1.38c-.6,0-1.16.07-1.67.21s-.96.37-1.33.67c-.38.31-.67.74-.87,1.28-.2.54-.3,1.22-.3,2.04v6.99h-4.05Z"/>
    </g>
  </g>
  <g id="Layer_1" data-name="Layer 1">
    <g>
      <rect class="cls-1" x="1374.93" y="442.9" width="7.74" height="3.49"/>
      <g>
        <path class="cls-2" d="M1368.14,441.94l3.55.75c.17-.79.44-1.54.79-2.24l-3.25-1.61c-.49.98-.86,2.01-1.09,3.1h0Z"/>
        <path class="cls-2" d="M1375.26,432.88l1.57,3.26c.67-.33,1.39-.58,2.14-.74l-.75-3.55c-1.04.22-2.03.57-2.97,1.03h0Z"/>
        <path class="cls-2" d="M1380.93,431.57v3.63c5.21,0,9.44,4.23,9.44,9.44s-4.23,9.44-9.44,9.44-9.44-4.23-9.44-9.44h-3.63c0,7.22,5.85,13.07,13.07,13.07s13.07-5.85,13.07-13.07-5.85-13.07-13.07-13.07Z"/>
        <path class="cls-2" d="M1373.53,438.79c.48-.6,1.03-1.14,1.64-1.62l-2.21-2.87c-.84.65-1.61,1.4-2.27,2.24l2.84,2.25Z"/>
      </g>
    </g>
  </g>
  <g>
    <g>
      <path d="M1234.99,760.86v-3.54h12.87v3.54h-12.87ZM1234.99,767.58v-3.54h12.87v3.54h-12.87Z"/>
      <path d="M1266.28,771.15v-21h7.83c1.7,0,3.1.29,4.2.87s1.92,1.36,2.46,2.33c.54.97.81,2.04.81,3.22s-.26,2.17-.78,3.14c-.52.97-1.33,1.75-2.45,2.34-1.11.59-2.53.88-4.27.88h-3.75v8.22h-4.05ZM1270.33,759.99h3.54c1.22,0,2.12-.3,2.7-.9.58-.6.87-1.39.87-2.37s-.29-1.75-.86-2.33-1.48-.85-2.71-.85h-3.54v6.45ZM1277.17,771.15l-4.32-9.24h4.38l4.56,9.24h-4.62Z"/>
      <path d="M1291.48,771.51c-1.52,0-2.87-.33-4.04-.98-1.17-.65-2.08-1.56-2.73-2.73-.65-1.17-.97-2.52-.97-4.07s.32-2.97.96-4.18c.64-1.21,1.54-2.16,2.71-2.85,1.17-.69,2.52-1.04,4.07-1.04s2.81.33,3.93.99c1.12.66,1.99,1.55,2.61,2.67.62,1.12.93,2.39.93,3.81v.67c0,.25-.02.51-.06.77h-12.27v-2.46h8.25c-.06-.98-.41-1.75-1.04-2.31-.63-.56-1.42-.84-2.35-.84-.68,0-1.31.16-1.89.46-.58.31-1.03.79-1.36,1.42-.33.64-.5,1.45-.5,2.43v.87c0,.82.15,1.54.46,2.15.31.61.75,1.08,1.3,1.41s1.21.5,1.95.5,1.35-.16,1.84-.48c.49-.32.86-.73,1.1-1.23h4.14c-.28.94-.75,1.79-1.41,2.55s-1.47,1.36-2.43,1.8-2.03.66-3.21.66Z"/>
      <path d="M1302.28,771.15v-21.6h4.05v21.6h-4.05Z"/>
      <path d="M1315.39,771.51c-1.26,0-2.3-.21-3.12-.62-.82-.41-1.42-.96-1.82-1.65-.39-.69-.58-1.46-.58-2.3,0-.92.24-1.73.71-2.43s1.18-1.25,2.13-1.65c.95-.4,2.15-.6,3.59-.6h3.75c0-.74-.1-1.35-.3-1.84s-.51-.86-.93-1.09c-.42-.24-.98-.36-1.68-.36-.76,0-1.41.17-1.94.5s-.85.83-.97,1.51h-3.93c.1-1.08.45-2.01,1.06-2.8s1.42-1.41,2.43-1.84c1.01-.44,2.13-.66,3.38-.66,1.42,0,2.65.24,3.69.72s1.84,1.17,2.4,2.07c.56.9.84,2.01.84,3.33v9.36h-3.42l-.45-2.31c-.22.4-.48.76-.78,1.08s-.65.6-1.05.84c-.4.24-.85.42-1.35.55-.5.13-1.05.2-1.65.2ZM1316.35,768.39c.52,0,.98-.09,1.39-.29.41-.19.77-.45,1.07-.78.3-.33.54-.71.71-1.14.17-.43.29-.89.34-1.39v-.03h-3.09c-.62,0-1.12.08-1.51.22-.39.15-.68.37-.86.65s-.27.6-.27.96c0,.4.09.73.27.99s.44.46.78.6c.34.14.73.21,1.17.21Z"/>
      <path d="M1334.5,771.15c-1.06,0-1.99-.17-2.78-.5s-1.41-.88-1.84-1.65c-.44-.77-.66-1.83-.66-3.17v-6.42h-2.58v-3.39h2.58l.45-4.11h3.6v4.11h3.99v3.39h-3.99v6.48c0,.68.15,1.15.45,1.41s.81.39,1.53.39h1.98v3.45h-2.73Z"/>
      <path d="M1342.81,753.96c-.72,0-1.32-.21-1.79-.65-.47-.43-.71-.97-.71-1.63s.23-1.21.71-1.63c.47-.43,1.06-.65,1.79-.65s1.34.22,1.81.65.71.97.71,1.63-.24,1.21-.71,1.63c-.47.43-1.08.65-1.81.65ZM1340.77,771.15v-15.12h4.05v15.12h-4.05Z"/>
      <path d="M1352.94,771.15l-5.55-15.12h4.26l3.75,11.31,3.75-11.31h4.23l-5.52,15.12h-4.92Z"/>
      <path d="M1372.41,771.51c-1.52,0-2.87-.33-4.04-.98-1.17-.65-2.08-1.56-2.73-2.73-.65-1.17-.97-2.52-.97-4.07s.32-2.97.96-4.18c.64-1.21,1.54-2.16,2.71-2.85,1.17-.69,2.52-1.04,4.07-1.04s2.81.33,3.93.99c1.12.66,1.99,1.55,2.61,2.67.62,1.12.93,2.39.93,3.81v.67c0,.25-.02.51-.06.77h-12.27v-2.46h8.25c-.06-.98-.41-1.75-1.04-2.31-.63-.56-1.42-.84-2.35-.84-.68,0-1.31.16-1.89.46-.58.31-1.03.79-1.36,1.42-.33.64-.5,1.45-.5,2.43v.87c0,.82.15,1.54.46,2.15.31.61.75,1.08,1.3,1.41s1.21.5,1.95.5,1.35-.16,1.84-.48c.49-.32.86-.73,1.1-1.23h4.14c-.28.94-.75,1.79-1.41,2.55s-1.47,1.36-2.43,1.8-2.03.66-3.21.66Z"/>
      <path d="M1397.07,771.15c-1.06,0-1.99-.17-2.78-.5s-1.41-.88-1.84-1.65c-.44-.77-.66-1.83-.66-3.17v-6.42h-2.58v-3.39h2.58l.45-4.11h3.6v4.11h3.99v3.39h-3.99v6.48c0,.68.15,1.15.45,1.41s.81.39,1.53.39h1.98v3.45h-2.73Z"/>
      <path d="M1405.38,753.96c-.72,0-1.32-.21-1.79-.65-.47-.43-.71-.97-.71-1.63s.23-1.21.71-1.63c.47-.43,1.06-.65,1.79-.65s1.34.22,1.81.65.71.97.71,1.63-.24,1.21-.71,1.63c-.47.43-1.08.65-1.81.65ZM1403.34,771.15v-15.12h4.05v15.12h-4.05Z"/>
      <path d="M1411.47,771.15v-15.12h3.57l.33,2.01c.48-.72,1.12-1.29,1.91-1.73.79-.43,1.7-.64,2.71-.64.76,0,1.44.1,2.04.3s1.13.49,1.6.87.86.86,1.16,1.44c.56-.82,1.29-1.46,2.19-1.92.9-.46,1.88-.69,2.94-.69,1.32,0,2.42.26,3.3.79.88.53,1.54,1.29,1.99,2.29.45,1,.68,2.23.68,3.69v8.7h-4.02v-8.34c0-1.2-.24-2.12-.71-2.76-.47-.64-1.2-.96-2.17-.96-.64,0-1.21.16-1.71.48-.5.32-.88.78-1.16,1.38-.27.6-.4,1.32-.4,2.16v8.04h-4.05v-8.34c0-1.2-.24-2.12-.72-2.76-.48-.64-1.22-.96-2.22-.96-.62,0-1.18.16-1.67.48-.49.32-.87.78-1.14,1.38-.27.6-.4,1.32-.4,2.16v8.04h-4.05Z"/>
      <path d="M1446.96,771.51c-1.52,0-2.87-.33-4.04-.98-1.17-.65-2.08-1.56-2.73-2.73-.65-1.17-.97-2.52-.97-4.07s.32-2.97.96-4.18c.64-1.21,1.54-2.16,2.71-2.85,1.17-.69,2.52-1.04,4.07-1.04s2.81.33,3.93.99c1.12.66,1.99,1.55,2.61,2.67.62,1.12.93,2.39.93,3.81v.67c0,.25-.02.51-.06.77h-12.27v-2.46h8.25c-.06-.98-.41-1.75-1.04-2.31-.63-.56-1.42-.84-2.35-.84-.68,0-1.31.16-1.89.46-.58.31-1.03.79-1.36,1.42-.33.64-.5,1.45-.5,2.43v.87c0,.82.15,1.54.46,2.15.31.61.75,1.08,1.3,1.41s1.21.5,1.95.5,1.35-.16,1.84-.48c.49-.32.86-.73,1.1-1.23h4.14c-.28.94-.75,1.79-1.41,2.55s-1.47,1.36-2.43,1.8-2.03.66-3.21.66Z"/>
      <path d="M1457.76,771.15v-21.6h4.05v21.6h-4.05Z"/>
      <path d="M1472.91,771.51c-1.44,0-2.74-.33-3.88-1-1.15-.67-2.06-1.6-2.73-2.79-.67-1.19-1-2.55-1-4.09s.33-2.96,1-4.16c.67-1.19,1.58-2.12,2.75-2.79s2.46-1,3.9-1,2.76.33,3.92,1c1.15.67,2.06,1.6,2.73,2.79.67,1.19,1,2.56,1,4.12s-.33,2.94-1,4.12c-.67,1.19-1.58,2.12-2.75,2.79s-2.47,1-3.93,1ZM1472.91,768c.68,0,1.29-.16,1.81-.48.53-.32.95-.81,1.26-1.47.31-.66.46-1.48.46-2.46s-.16-1.79-.46-2.45c-.31-.65-.73-1.14-1.26-1.47-.53-.33-1.12-.5-1.78-.5s-1.23.17-1.77.5-.96.82-1.27,1.47c-.31.65-.47,1.47-.47,2.45s.16,1.8.47,2.46c.31.66.73,1.15,1.26,1.47.53.32,1.11.48,1.75.48Z"/>
      <path d="M1491.39,771.51c-1.52,0-2.87-.34-4.05-1.02-1.18-.68-2.1-1.61-2.76-2.79-.66-1.18-.99-2.53-.99-4.05s.33-2.93.99-4.12c.66-1.19,1.58-2.13,2.76-2.82,1.18-.69,2.53-1.04,4.05-1.04,1.94,0,3.57.51,4.89,1.53,1.32,1.02,2.16,2.42,2.52,4.2h-4.29c-.18-.7-.55-1.25-1.12-1.65s-1.25-.6-2.03-.6c-.7,0-1.32.18-1.88.53-.55.35-.98.86-1.29,1.53-.31.67-.47,1.46-.47,2.38,0,.7.09,1.33.27,1.88s.43,1.02.75,1.41c.32.39.71.68,1.16.88.45.2.93.3,1.45.3s1-.09,1.43-.27c.43-.18.79-.44,1.09-.77s.51-.73.63-1.21h4.29c-.36,1.74-1.21,3.12-2.54,4.16s-2.96,1.54-4.88,1.54Z"/>
      <path d="M1502.28,771.15v-21.6h4.05v21.6h-4.05ZM1512.18,771.15l-6.45-8.28,5.79-6.84h4.77l-7.47,8.55v-3.21l8.4,9.78h-5.04Z"/>
    </g>
    <g id="Layer_1-2" data-name="Layer 1">
      <g>
        <rect class="cls-11" x="1193.91" y="758.82" width="7.74" height="3.49"/>
        <g>
          <path class="cls-10" d="M1187.11,757.86l3.55.75c.17-.79.44-1.54.79-2.24l-3.25-1.61c-.49.98-.86,2.01-1.09,3.1h0Z"/>
          <path class="cls-10" d="M1194.23,748.8l1.57,3.26c.67-.33,1.39-.58,2.14-.74l-.75-3.55c-1.04.22-2.03.57-2.97,1.03h0Z"/>
          <path class="cls-10" d="M1199.91,747.49v3.63c5.21,0,9.44,4.23,9.44,9.44s-4.23,9.44-9.44,9.44-9.44-4.23-9.44-9.44h-3.63c0,7.22,5.85,13.07,13.07,13.07s13.07-5.85,13.07-13.07-5.85-13.07-13.07-13.07Z"/>
          <path class="cls-10" d="M1192.5,754.71c.48-.6,1.03-1.14,1.64-1.62l-2.21-2.87c-.84.65-1.61,1.4-2.27,2.24l2.84,2.25Z"/>
        </g>
      </g>
    </g>
  </g>
  <g id="Layer_1-3" data-name="Layer 1">
    <g>
      <path class="cls-9" d="M586.45,431.73c-7.22,0-13.07,5.85-13.07,13.07s5.85,13.07,13.07,13.07,13.07-5.85,13.07-13.07-5.85-13.07-13.07-13.07ZM586.45,454.25c-5.22,0-9.44-4.23-9.44-9.44s4.23-9.44,9.44-9.44,9.44,4.23,9.44,9.44-4.23,9.44-9.44,9.44Z"/>
      <polygon class="cls-9" points="588.2 438.28 584.71 438.28 584.71 446.55 584.78 446.55 588.2 446.55 592.52 446.55 592.52 443.06 588.2 443.06 588.2 438.28"/>
    </g>
  </g>
  <g>
    <g>
      <path d="M823.7,760.86v-3.54h12.87v3.54h-12.87ZM823.7,767.58v-3.54h12.87v3.54h-12.87Z"/>
      <path d="M853.58,771.15l7.68-21h4.59l7.65,21h-4.29l-5.67-16.38-5.7,16.38h-4.26ZM856.97,766.38l1.08-3.15h10.68l1.05,3.15h-12.81Z"/>
      <path d="M885.11,771.51c-.78,0-1.47-.1-2.08-.3-.61-.2-1.15-.48-1.62-.83s-.87-.75-1.18-1.19l-.45,1.95h-3.6v-21.6h4.05v8.58c.48-.7,1.11-1.29,1.9-1.75s1.78-.71,2.96-.71c1.4,0,2.65.34,3.74,1.04,1.09.69,1.95,1.63,2.58,2.82.63,1.19.95,2.56.95,4.1s-.32,2.85-.95,4.05-1.49,2.14-2.57,2.82-2.32,1.02-3.72,1.02ZM884.15,767.97c.8,0,1.5-.18,2.12-.55.61-.37,1.08-.88,1.42-1.53.34-.65.51-1.41.51-2.26s-.17-1.62-.51-2.3c-.34-.67-.82-1.19-1.42-1.56-.61-.37-1.32-.55-2.12-.55s-1.48.18-2.08.55c-.61.37-1.09.88-1.44,1.54-.35.66-.52,1.42-.52,2.28s.17,1.62.52,2.29c.35.67.83,1.18,1.44,1.54.61.36,1.3.54,2.08.54Z"/>
      <path d="M902,771.51c-1.38,0-2.58-.22-3.6-.66-1.02-.44-1.82-1.05-2.4-1.83s-.91-1.66-.99-2.64h4.02c.1.38.27.72.51,1.04.24.31.56.55.96.73.4.18.88.27,1.44.27s.98-.08,1.32-.23c.34-.15.59-.35.76-.61s.26-.53.26-.81c0-.42-.12-.75-.36-.97s-.59-.42-1.05-.56c-.46-.14-1.02-.28-1.68-.42-.72-.14-1.42-.31-2.11-.52-.69-.21-1.31-.48-1.85-.79-.54-.32-.97-.73-1.29-1.23-.32-.5-.48-1.12-.48-1.86,0-.9.24-1.7.72-2.41.48-.71,1.18-1.28,2.1-1.7.92-.42,2.03-.63,3.33-.63,1.82,0,3.26.41,4.32,1.23,1.06.82,1.69,1.95,1.89,3.39h-3.81c-.12-.46-.38-.83-.79-1.1-.41-.27-.96-.4-1.63-.4-.72,0-1.27.13-1.65.39s-.57.6-.57,1.02c0,.28.12.53.38.75.25.22.61.41,1.07.56.46.15,1.02.29,1.68.43,1.16.24,2.18.52,3.06.83.88.31,1.57.75,2.07,1.32.5.57.75,1.39.75,2.47,0,.96-.26,1.82-.78,2.57-.52.75-1.26,1.33-2.21,1.75-.95.42-2.08.63-3.38.63Z"/>
      <path d="M918.92,771.51c-1.44,0-2.74-.33-3.88-1-1.15-.67-2.06-1.6-2.73-2.79-.67-1.19-1-2.55-1-4.09s.33-2.96,1-4.16c.67-1.19,1.58-2.12,2.75-2.79s2.46-1,3.9-1,2.76.33,3.92,1c1.15.67,2.06,1.6,2.73,2.79.67,1.19,1,2.56,1,4.12s-.33,2.94-1,4.12c-.67,1.19-1.58,2.12-2.75,2.79s-2.47,1-3.93,1ZM918.92,768c.68,0,1.29-.16,1.81-.48.53-.32.95-.81,1.26-1.47.31-.66.46-1.48.46-2.46s-.16-1.79-.46-2.45c-.31-.65-.73-1.14-1.26-1.47-.53-.33-1.12-.5-1.78-.5s-1.23.17-1.77.5-.96.82-1.27,1.47c-.31.65-.47,1.47-.47,2.45s.16,1.8.47,2.46c.31.66.73,1.15,1.26,1.47.53.32,1.11.48,1.75.48Z"/>
      <path d="M930.08,771.15v-21.6h4.05v21.6h-4.05Z"/>
      <path d="M943.73,771.51c-1.22,0-2.26-.25-3.13-.76-.87-.51-1.54-1.26-2-2.25-.46-.99-.69-2.21-.69-3.68v-8.79h4.05v8.37c0,1.22.26,2.14.77,2.76.51.62,1.29.93,2.35.93.68,0,1.28-.16,1.8-.46.52-.31.94-.76,1.25-1.35.31-.59.47-1.31.47-2.17v-8.07h4.02v15.12h-3.54l-.33-2.46c-.44.86-1.09,1.54-1.95,2.06-.86.51-1.88.76-3.06.76Z"/>
      <path d="M963.38,771.15c-1.06,0-1.99-.17-2.78-.5s-1.41-.88-1.84-1.65c-.44-.77-.66-1.83-.66-3.17v-6.42h-2.58v-3.39h2.58l.45-4.11h3.6v4.11h3.99v3.39h-3.99v6.48c0,.68.15,1.15.45,1.41s.81.39,1.53.39h1.98v3.45h-2.73Z"/>
      <path d="M976.43,771.51c-1.52,0-2.87-.33-4.04-.98-1.17-.65-2.08-1.56-2.73-2.73-.65-1.17-.97-2.52-.97-4.07s.32-2.97.96-4.18c.64-1.21,1.54-2.16,2.71-2.85,1.17-.69,2.52-1.04,4.07-1.04s2.81.33,3.93.99c1.12.66,1.99,1.55,2.61,2.67.62,1.12.93,2.39.93,3.81v.67c0,.25-.02.51-.06.77h-12.27v-2.46h8.25c-.06-.98-.41-1.75-1.04-2.31-.63-.56-1.42-.84-2.35-.84-.68,0-1.31.16-1.89.46-.58.31-1.03.79-1.36,1.42-.33.64-.5,1.45-.5,2.43v.87c0,.82.15,1.54.46,2.15.31.61.75,1.08,1.3,1.41s1.21.5,1.95.5,1.35-.16,1.84-.48c.49-.32.86-.73,1.1-1.23h4.14c-.28.94-.75,1.79-1.41,2.55s-1.47,1.36-2.43,1.8-2.03.66-3.21.66Z"/>
      <path d="M1001.09,771.15c-1.06,0-1.99-.17-2.78-.5s-1.41-.88-1.84-1.65c-.44-.77-.66-1.83-.66-3.17v-6.42h-2.58v-3.39h2.58l.45-4.11h3.6v4.11h3.99v3.39h-3.99v6.48c0,.68.15,1.15.45,1.41s.81.39,1.53.39h1.98v3.45h-2.73Z"/>
      <path d="M1009.4,753.96c-.72,0-1.32-.21-1.79-.65-.47-.43-.71-.97-.71-1.63s.23-1.21.71-1.63c.47-.43,1.06-.65,1.79-.65s1.34.22,1.81.65.71.97.71,1.63-.24,1.21-.71,1.63c-.47.43-1.08.65-1.81.65ZM1007.36,771.15v-15.12h4.05v15.12h-4.05Z"/>
      <path d="M1015.49,771.15v-15.12h3.57l.33,2.01c.48-.72,1.12-1.29,1.91-1.73.79-.43,1.7-.64,2.71-.64.76,0,1.44.1,2.04.3s1.13.49,1.6.87.86.86,1.16,1.44c.56-.82,1.29-1.46,2.19-1.92.9-.46,1.88-.69,2.94-.69,1.32,0,2.42.26,3.3.79.88.53,1.54,1.29,1.99,2.29.45,1,.68,2.23.68,3.69v8.7h-4.02v-8.34c0-1.2-.24-2.12-.71-2.76-.47-.64-1.2-.96-2.17-.96-.64,0-1.21.16-1.71.48-.5.32-.88.78-1.16,1.38-.27.6-.4,1.32-.4,2.16v8.04h-4.05v-8.34c0-1.2-.24-2.12-.72-2.76-.48-.64-1.22-.96-2.22-.96-.62,0-1.18.16-1.67.48-.49.32-.87.78-1.14,1.38-.27.6-.4,1.32-.4,2.16v8.04h-4.05Z"/>
      <path d="M1050.98,771.51c-1.52,0-2.87-.33-4.04-.98-1.17-.65-2.08-1.56-2.73-2.73-.65-1.17-.97-2.52-.97-4.07s.32-2.97.96-4.18c.64-1.21,1.54-2.16,2.71-2.85,1.17-.69,2.52-1.04,4.07-1.04s2.81.33,3.93.99c1.12.66,1.99,1.55,2.61,2.67.62,1.12.93,2.39.93,3.81v.67c0,.25-.02.51-.06.77h-12.27v-2.46h8.25c-.06-.98-.41-1.75-1.04-2.31-.63-.56-1.42-.84-2.35-.84-.68,0-1.31.16-1.89.46-.58.31-1.03.79-1.36,1.42-.33.64-.5,1.45-.5,2.43v.87c0,.82.15,1.54.46,2.15.31.61.75,1.08,1.3,1.41s1.21.5,1.95.5,1.35-.16,1.84-.48c.49-.32.86-.73,1.1-1.23h4.14c-.28.94-.75,1.79-1.41,2.55s-1.47,1.36-2.43,1.8-2.03.66-3.21.66Z"/>
      <path d="M1061.78,771.15v-21.6h4.05v21.6h-4.05Z"/>
      <path d="M1076.93,771.51c-1.44,0-2.74-.33-3.88-1-1.15-.67-2.06-1.6-2.73-2.79-.67-1.19-1-2.55-1-4.09s.33-2.96,1-4.16c.67-1.19,1.58-2.12,2.75-2.79s2.46-1,3.9-1,2.76.33,3.92,1c1.15.67,2.06,1.6,2.73,2.79.67,1.19,1,2.56,1,4.12s-.33,2.94-1,4.12c-.67,1.19-1.58,2.12-2.75,2.79s-2.47,1-3.93,1ZM1076.93,768c.68,0,1.29-.16,1.81-.48.53-.32.95-.81,1.26-1.47.31-.66.46-1.48.46-2.46s-.16-1.79-.46-2.45c-.31-.65-.73-1.14-1.26-1.47-.53-.33-1.12-.5-1.78-.5s-1.23.17-1.77.5-.96.82-1.27,1.47c-.31.65-.47,1.47-.47,2.45s.16,1.8.47,2.46c.31.66.73,1.15,1.26,1.47.53.32,1.11.48,1.75.48Z"/>
      <path d="M1095.41,771.51c-1.52,0-2.87-.34-4.05-1.02-1.18-.68-2.1-1.61-2.76-2.79-.66-1.18-.99-2.53-.99-4.05s.33-2.93.99-4.12c.66-1.19,1.58-2.13,2.76-2.82,1.18-.69,2.53-1.04,4.05-1.04,1.94,0,3.57.51,4.89,1.53,1.32,1.02,2.16,2.42,2.52,4.2h-4.29c-.18-.7-.55-1.25-1.12-1.65s-1.25-.6-2.03-.6c-.7,0-1.32.18-1.88.53-.55.35-.98.86-1.29,1.53-.31.67-.47,1.46-.47,2.38,0,.7.09,1.33.27,1.88s.43,1.02.75,1.41c.32.39.71.68,1.16.88.45.2.93.3,1.45.3s1-.09,1.43-.27c.43-.18.79-.44,1.09-.77s.51-.73.63-1.21h4.29c-.36,1.74-1.21,3.12-2.54,4.16s-2.96,1.54-4.88,1.54Z"/>
      <path d="M1106.3,771.15v-21.6h4.05v21.6h-4.05ZM1116.2,771.15l-6.45-8.28,5.79-6.84h4.77l-7.47,8.55v-3.21l8.4,9.78h-5.04Z"/>
    </g>
    <g id="Layer_1-4" data-name="Layer 1">
      <g>
        <path class="cls-10" d="M792.19,747.49c-7.22,0-13.07,5.85-13.07,13.07s5.85,13.07,13.07,13.07,13.07-5.85,13.07-13.07-5.85-13.07-13.07-13.07ZM792.19,770.01c-5.22,0-9.44-4.23-9.44-9.44s4.23-9.44,9.44-9.44,9.44,4.23,9.44,9.44-4.23,9.44-9.44,9.44Z"/>
        <polygon class="cls-10" points="793.93 754.04 790.45 754.04 790.45 762.31 790.52 762.31 793.93 762.31 798.26 762.31 798.26 758.81 793.93 758.81 793.93 754.04"/>
      </g>
    </g>
  </g>
</svg>