<svg xmlns="http://www.w3.org/2000/svg" xmlns:xlink="http://www.w3.org/1999/xlink" x="0" y="0" width="661.8181559244791" height="382.4005533854167" style="
        width:661.8181559244791px;
        height:382.4005533854167px;
        background: black;
        fill: none;
">


        <svg xmlns="http://www.w3.org/2000/svg" class="role-diagram-draw-area"><g class="shapes-region" style="stroke: black; fill: none;"><g class="arrow-line"><path class="connection real" stroke-dasharray="" d="  M190,70 L458,70" style="stroke: rgb(224, 224, 224); stroke-width: 1; fill: none; fill-opacity: 1;"/><g stroke="#e0e0e0" transform="matrix(-1,1.2246467991473532e-16,-1.2246467991473532e-16,-1,460,70)" style="stroke: rgb(224, 224, 224); stroke-width: 1;"><path d=" M10.93,-3.29 Q4.96,-0.45 0,0 Q4.96,0.45 10.93,3.29"/></g></g><g class="arrow-line"><path class="connection real" stroke-dasharray="" d="  M500,100 L500,278" style="stroke: rgb(95, 230, 250); stroke-opacity: 1; stroke-width: 1; fill: none; fill-opacity: 1;"/><g stroke="rgb(95,230,250)" stroke-opacity="1" transform="matrix(-1.8369701987210297e-16,-1,1,-1.8369701987210297e-16,500,279.99999999999994)" style="stroke: rgb(95, 230, 250); stroke-width: 1;"><path d=" M10.93,-3.29 Q4.96,-0.45 0,0 Q4.96,0.45 10.93,3.29"/></g></g><g/></g><g/><g/><g/></svg>
        <svg xmlns="http://www.w3.org/2000/svg" xmlns:xlink="http://www.w3.org/1999/xlink" width="659.9999593098958" height="380.5823567708333" style="width:659.9999593098958px;height:380.5823567708333px;font-family:Asana-Math, Asana;background:transparent;"><g><g><g><g transform="matrix(1,0,0,1,141.88920084635416,78.18716186523437)"><path transform="matrix(0.03519,0,0,-0.03519,0,0)" d="M221 334L338 334L470 330L489 375L485 382C404 378 344 376 266 376L229 376L276 646C308 647 391 650 413 650C475 650 516 641 517 626L525 537L549 537C552 601 559 651 570 689C549 691 519 692 501 692C498 692 487 692 463 691L343 690C334 689 160 691 150 691L105 692L102 664L156 662C180 661 191 653 191 635C191 621 187 589 182 559L95 55C91 37 79 30 35 23L30 -3L71 -2C102 -1 164 0 184 0L409 -3C423 -3 448 -2 481 -1L514 0L518 36C520 56 525 86 534 135L539 161L512 161L496 101C486 65 477 53 455 48C435 44 362 39 308 39C267 39 240 40 171 46Z" stroke="rgb(224,224,224)" stroke-opacity="1" stroke-width="8" fill="rgb(224,224,224)" fill-opacity="1"></path></g></g><g><g><g><g><g transform="matrix(1,0,0,1,164.40340169270831,85.3148135579427)"><path transform="matrix(0.024633,0,0,-0.024633,0,0)" d="M263 689C108 689 29 566 29 324C29 207 50 106 85 57C120 8 176 -20 238 -20C389 -20 465 110 465 366C465 585 400 689 263 689ZM245 654C342 654 381 556 381 316C381 103 343 15 251 15C154 15 113 116 113 360C113 571 150 654 245 654Z" stroke="rgb(224,224,224)" stroke-opacity="1" stroke-width="8" fill="rgb(224,224,224)" fill-opacity="1"></path></g></g></g></g></g></g></g><g><g><g><g transform="matrix(1,0,0,1,480.89485677083337,78.18716186523437)"><path transform="matrix(0.03519,0,0,-0.03519,0,0)" d="M221 334L338 334L470 330L489 375L485 382C404 378 344 376 266 376L229 376L276 646C308 647 391 650 413 650C475 650 516 641 517 626L525 537L549 537C552 601 559 651 570 689C549 691 519 692 501 692C498 692 487 692 463 691L343 690C334 689 160 691 150 691L105 692L102 664L156 662C180 661 191 653 191 635C191 621 187 589 182 559L95 55C91 37 79 30 35 23L30 -3L71 -2C102 -1 164 0 184 0L409 -3C423 -3 448 -2 481 -1L514 0L518 36C520 56 525 86 534 135L539 161L512 161L496 101C486 65 477 53 455 48C435 44 362 39 308 39C267 39 240 40 171 46Z" stroke="rgb(224,224,224)" stroke-opacity="1" stroke-width="8" fill="rgb(224,224,224)" fill-opacity="1"></path></g></g><g><g><g><g><g><g><g><text x="503.4090983072917" y="65.22726440429688" style="white-space:pre;stroke:none;fill:rgb(224,224,224);fill-opacity:1;font-size:21.735px;font-family:Arial, Helvetica, sans-serif;font-weight:400;font-style:normal;dominant-baseline:text-before-edge;text-decoration:none;">pk</text></g></g></g></g></g></g></g></g></g><g><g><g><g transform="matrix(1,0,0,1,301.8892008463542,54.18147542317708)"><path transform="matrix(0.03519,0,0,-0.03519,0,0)" d="M522 473C432 473 333 398 296 322C266 261 244 86 234 17C141 41 110 116 112 206C114 343 192 432 321 468L321 485C172 462 32 363 29 201C27 73 113 11 232 -6C220 -94 199 -190 180 -277C203 -266 235 -258 257 -251L290 -4C476 0 639 142 643 332C645 412 609 473 522 473ZM485 440C555 440 573 375 572 317C569 156 451 32 291 15L322 178C339 267 364 440 485 440Z" stroke="rgb(224,224,224)" stroke-opacity="1" stroke-width="8" fill="rgb(224,224,224)" fill-opacity="1"></path></g></g><g><g><g><g><g><g><g><text x="326.90340169270837" y="41.221588134765625" style="white-space:pre;stroke:none;fill:rgb(224,224,224);fill-opacity:1;font-size:21.735px;font-family:Arial, Helvetica, sans-serif;font-weight:400;font-style:normal;dominant-baseline:text-before-edge;text-decoration:none;">sk</text></g></g></g></g></g></g></g></g></g><g><g><g><g transform="matrix(1,0,0,1,471.88924153645837,314.18144490559894)"><path transform="matrix(0.03519,0,0,-0.03519,0,0)" d="M221 334L338 334L470 330L489 375L485 382C404 378 344 376 266 376L229 376L276 646C308 647 391 650 413 650C475 650 516 641 517 626L525 537L549 537C552 601 559 651 570 689C549 691 519 692 501 692C498 692 487 692 463 691L343 690C334 689 160 691 150 691L105 692L102 664L156 662C180 661 191 653 191 635C191 621 187 589 182 559L95 55C91 37 79 30 35 23L30 -3L71 -2C102 -1 164 0 184 0L409 -3C423 -3 448 -2 481 -1L514 0L518 36C520 56 525 86 534 135L539 161L512 161L496 101C486 65 477 53 455 48C435 44 362 39 308 39C267 39 240 40 171 46Z" stroke="rgb(224,224,224)" stroke-opacity="1" stroke-width="8" fill="rgb(224,224,224)" fill-opacity="1"></path></g></g><g><g><g><g><g><g><g><text x="494.4034016927083" y="301.2215881347656" style="white-space:pre;stroke:none;fill:rgb(224,224,224);fill-opacity:1;font-size:21.735px;font-family:Arial, Helvetica, sans-serif;font-weight:400;font-style:normal;dominant-baseline:text-before-edge;text-decoration:none;">sig</text></g></g></g></g></g></g></g></g></g><g><g><g><g transform="matrix(1,0,0,1,511.8892415364583,185.18998982747397)"><path transform="matrix(0.03519,0,0,-0.03519,0,0)" d="M622 285C624 428 505 474 382 473C398 548 407 624 432 699L432 705C418 700 404 693 389 684L354 473C184 474 30 367 27 185C24 37 142 -8 268 -16L229 -289C249 -282 267 -274 282 -261C283 -179 288 -98 299 -16C481 -3 618 87 622 285ZM539 273C537 130 451 11 301 6L377 449C487 447 541 380 539 273ZM349 449L270 5C155 14 106 73 108 187C111 336 196 444 349 449Z" stroke="rgb(95,230,250)" stroke-opacity="1" stroke-width="8" fill="rgb(95,230,250)" fill-opacity="1"></path></g></g><g><g><g><g><g><g><g><text x="536.335205078125" y="172.23011271158853" style="white-space:pre;stroke:none;fill:rgb(95,230,250);fill-opacity:1;font-size:21.735px;font-family:Arial, Helvetica, sans-serif;font-weight:400;font-style:normal;dominant-baseline:text-before-edge;text-decoration:none;">sig</text></g></g></g></g></g></g></g></g></g><g><g><g><g><g transform="matrix(1,0,0,1,511.8892415364583,232.99429321289062)"><path transform="matrix(0.017,0,0,-0.017,0,0)" d="M579 -3L579 27L533 30C499 32 496 39 496 102L496 718L487 726C443 709 410 701 331 689L331 661L387 661C405 661 412 650 412 620L412 437C384 472 346 486 306 486C183 486 34 351 34 229C34 149 62 70 111 30C145 1 192 -12 257 -12C277 -12 300 -8 305 -4L416 89L411 -3C460 -1 476 0 488 0C506 0 570 -3 579 -3ZM412 350L412 221C412 156 410 146 397 123C369 76 320 45 273 45C185 45 122 130 122 249C122 358 176 422 266 422C345 422 412 366 412 350ZM860 -20C925 -20 1015 18 1027 36L1047 70L1034 80C970 42 947 33 904 33C839 33 785 62 757 111C738 144 731 172 729 230C750 227 780 226 814 226C900 226 1009 234 1056 244C1057 258 1058 267 1058 279C1058 394 984 469 872 469C835 469 790 464 750 440C668 392 636 323 636 219C636 25 771 -20 860 -20ZM969 267C945 264 894 261 843 261C800 261 757 264 731 270C731 317 735 339 748 365C769 409 812 436 860 436C893 436 919 423 937 396C959 363 966 334 969 267ZM1143 289C1143 215 1189 164 1263 156L1184 95C1174 80 1169 67 1169 52C1169 24 1187 8 1235 -6L1148 -53C1134 -61 1120 -98 1120 -129C1120 -220 1209 -283 1336 -283C1487 -283 1606 -188 1606 -66C1606 6 1558 56 1488 56L1328 56C1276 56 1252 68 1252 95C1252 118 1281 135 1298 152C1308 151 1314 150 1322 150C1383 150 1526 197 1526 324C1526 344 1523 357 1515 378L1607 378L1632 419L1628 431L1486 427C1449 457 1413 469 1364 469C1289 469 1143 424 1143 289ZM1328 435C1396 435 1442 379 1442 294C1442 229 1400 184 1339 184C1272 184 1227 236 1227 313C1227 390 1264 435 1328 435ZM1375 -14C1488 -14 1527 -37 1527 -102C1527 -188 1448 -252 1343 -252C1256 -252 1196 -201 1196 -127C1196 -82 1222 -41 1262 -24C1278 -16 1306 -14 1375 -14Z" stroke="rgb(95,230,250)" stroke-opacity="1" stroke-width="8" fill="rgb(95,230,250)" fill-opacity="1"></path></g></g></g><g><g transform="matrix(1,0,0,1,539.8153483072916,233.90339152018228)"><path transform="matrix(0.017,0,0,-0.017,0,0)" d="M146 266C146 526 243 632 301 700L282 726C225 675 60 542 60 266C60 159 85 58 133 -32C168 -99 200 -138 282 -215L301 -194C255 -137 146 -15 146 266Z" stroke="rgb(95,230,250)" stroke-opacity="1" stroke-width="8" fill="rgb(95,230,250)" fill-opacity="1"></path></g></g><g><g transform="matrix(1,0,0,1,545.46875,232.99429321289062)"><path transform="matrix(0.017,0,0,-0.017,0,0)" d="M622 285C624 428 505 474 382 473C398 548 407 624 432 699L432 705C418 700 404 693 389 684L354 473C184 474 30 367 27 185C24 37 142 -8 268 -16L229 -289C249 -282 267 -274 282 -261C283 -179 288 -98 299 -16C481 -3 618 87 622 285ZM539 273C537 130 451 11 301 6L377 449C487 447 541 380 539 273ZM349 449L270 5C155 14 106 73 108 187C111 336 196 444 349 449Z" stroke="rgb(95,230,250)" stroke-opacity="1" stroke-width="8" fill="rgb(95,230,250)" fill-opacity="1"></path></g></g><g><g><g><g><g><g><g><text x="557.272705078125" y="226.8181864420573" style="white-space:pre;stroke:none;fill:rgb(95,230,250);fill-opacity:1;font-size:10.5px;font-family:Arial, Helvetica, sans-serif;font-weight:400;font-style:normal;dominant-baseline:text-before-edge;text-decoration:none;">sig</text></g></g></g></g></g></g></g><g><g transform="matrix(1,0,0,1,571.7045084635416,233.90339152018228)"><path transform="matrix(0.017,0,0,-0.017,0,0)" d="M51 726L32 700C87 636 187 526 187 266C187 -10 83 -131 32 -194L51 -215C104 -165 273 -23 273 265C273 542 108 675 51 726Z" stroke="rgb(95,230,250)" stroke-opacity="1" stroke-width="8" fill="rgb(95,230,250)" fill-opacity="1"></path></g></g><g><g transform="matrix(1,0,0,1,582.4573567708333,232.99429321289062)"><path transform="matrix(0.017,0,0,-0.017,0,0)" d="M604 347L604 406L65 406L65 347ZM604 134L604 193L65 193L65 134Z" stroke="rgb(95,230,250)" stroke-opacity="1" stroke-width="8" fill="rgb(95,230,250)" fill-opacity="1"></path></g></g><g><g transform="matrix(1,0,0,1,598.90625,232.99429321289062)"><path transform="matrix(0.017,0,0,-0.017,0,0)" d="M385 458C342 475 313 482 284 482C209 482 121 394 103 374C63 327 24 181 24 78C24 19 36 -11 60 -11C82 -11 101 -3 133 19C180 51 259 121 308 209L232 -205C227 -229 217 -249 205 -262L214 -276C245 -268 276 -262 300 -259C304 -205 310 -150 319 -100L405 356C416 417 422 443 432 474L418 480ZM118 59C104 59 96 80 96 113C96 209 139 359 181 409C193 424 222 433 254 433C282 433 303 427 351 406L330 311C301 174 160 59 118 59Z" stroke="rgb(95,230,250)" stroke-opacity="1" stroke-width="8" fill="rgb(95,230,250)" fill-opacity="1"></path></g></g></g></g></svg>
</svg>
