<?xml version="1.0" encoding="UTF-8"?>
<svg width="4000px" height="1695px" viewBox="0 0 4000 1695" version="1.1" xmlns="http://www.w3.org/2000/svg" xmlns:xlink="http://www.w3.org/1999/xlink">
    <!-- Generator: Sketch 51.3 (57544) - http://www.bohemiancoding.com/sketch -->
    <title>header-ghost-post-3-4000x1695</title>
    <desc>Created with Sketch.</desc>
    <defs></defs>
    <g id="header-ghost-post-3-4000x1695" stroke="none" stroke-width="1" fill="none" fill-rule="evenodd">
        <rect fill="#DAE2EB" x="0" y="0" width="4000" height="1695"></rect>
        <g id="Group-2-Copy" transform="translate(1.000000, 456.000000)">
            <polygon id="Fill-2" fill="#ABBFD6" points="3999 109 3999 234 2581 473 2434 351"></polygon>
            <polygon id="Fill-3" fill="#4D6987" points="3999 107 2434 351 2434 288 3999 50"></polygon>
            <path d="M3999,173.54 L3999,232.727 L3937.333,243.311 C3925.249,245.384 3915.479,256.904 3915.508,269.042 L3915.794,383.985 L3805.304,402.948 L3805.021,288.004 C3804.99,275.866 3795.169,267.71 3783.086,269.78 L3507.543,317.07 C3495.46,319.144 3485.688,330.665 3485.719,342.803 L3486.001,457.75 L3375.515,476.709 L3375.23,361.766 C3375.201,349.627 3365.379,341.472 3353.299,343.541 L3077.754,390.832 C3065.67,392.905 3055.898,404.426 3055.928,416.563 L3056.214,531.512 L2945.725,550.474 L2945.441,435.525 C2945.411,423.389 2935.59,415.231 2923.506,417.307 L2581,473 L2581,416.058 L3999,173.54 Z" id="Fill-4" fill="#FFFFFF"></path>
            <polygon id="Fill-6" fill="#ABBFD6" points="0 59 0 184 1418 423 1565 301"></polygon>
            <polygon id="Fill-8" fill="#4D6987" points="0 57 1565 301 1565 238 0 0"></polygon>
            <path d="M1316.2744,309.6553 L1316.2744,336.5843 C1316.2744,354.7993 1357.9434,369.5633 1409.3474,369.5633 C1460.7484,369.5633 1502.4174,354.7993 1502.4174,336.5843 L1502.4174,309.6553 L1316.2744,309.6553 Z" id="Fill-10" fill="#4D6987"></path>
            <path d="M1502.417,309.6553 C1502.417,327.9683 1460.748,342.8183 1409.344,342.8183 C1357.943,342.8183 1316.274,327.9683 1316.274,309.6553 C1316.274,291.3393 1357.943,276.4923 1409.344,276.4923 C1460.748,276.4923 1502.417,291.3403 1502.417,309.6553" id="Fill-12" fill="#ABBFD6"></path>
            <path d="M1316.2744,269.6553 L1316.2744,296.5843 C1316.2744,314.7993 1357.9434,329.5633 1409.3474,329.5633 C1460.7484,329.5633 1502.4174,314.7993 1502.4174,296.5843 L1502.4174,269.6553 L1316.2744,269.6553 Z" id="Fill-14" fill="#4D6987"></path>
            <path d="M1502.417,269.6553 C1502.417,287.9683 1460.748,302.8183 1409.344,302.8183 C1357.943,302.8183 1316.274,287.9683 1316.274,269.6553 C1316.274,251.3393 1357.943,236.4923 1409.344,236.4923 C1460.748,236.4923 1502.417,251.3403 1502.417,269.6553" id="Fill-16" fill="#ABBFD6"></path>
            <path d="M0,123.54 L0,182.727 L61.667,193.31 C73.75,195.384 83.522,206.904 83.492,219.042 L83.206,333.985 L193.696,352.947 L193.979,238.004 C194.009,225.866 203.831,217.709 215.914,219.78 L491.457,267.07 C503.54,269.144 513.312,280.665 513.282,292.803 L512.999,407.75 L623.486,426.709 L623.769,311.766 C623.799,299.627 633.621,291.471 645.702,293.541 L921.246,340.832 C933.33,342.905 943.102,354.426 943.072,366.563 L942.786,481.51 L1053.275,500.473 L1053.558,385.525 C1053.589,373.389 1063.411,365.231 1075.494,367.307 L1418,423 L1418,366.057 L0,123.54 Z" id="Fill-18" fill="#FFFFFF"></path>
            <polygon id="Fill-20" fill="#ABBFD6" points="1026 1240 1514 1240 1919 761 1572 698"></polygon>
            <polygon id="Fill-22" fill="#4D6987" points="924 1245 1590 611 1590 698 1044 1240"></polygon>
            <polygon id="Fill-24" fill="#ABBFD6" points="0 792 0 981 1513 648 1407 519"></polygon>
            <polygon id="Fill-26" fill="#4D6987" points="0 790 1407 519 1407 467 0 733"></polygon>
            <path d="M0,924.876 L0.004,984.379 L167.112,947.727 C179.131,945.05 188.852,952.782 188.823,964.997 L188.547,1080.668 L298.446,1056.204 L298.719,940.533 C298.749,928.318 308.517,916.249 320.536,913.57 L594.605,852.563 C606.624,849.887 616.345,857.619 616.315,869.834 L616.042,985.508 L725.939,961.041 L726.212,845.37 C726.241,833.155 736.01,821.086 748.026,818.408 L1022.098,757.398 C1034.118,754.724 1043.838,762.456 1043.809,774.671 L1043.533,890.346 L1153.432,865.882 L1153.705,750.208 C1153.734,737.993 1163.503,725.923 1175.521,723.248 L1513,648 L1513,589.001 L0,924.876 Z" id="Fill-28" fill="#FFFFFF"></path>
            <polygon id="Fill-30" fill="#ABBFD6" points="0 792 0 981 1513 648 1407 519"></polygon>
            <polygon id="Fill-32" fill="#4D6987" points="0 790 1407 519 1407 467 0 733"></polygon>
            <polygon id="Fill-34" fill="#ABBFD6" points="2973 1240 2485 1240 2080 761 2427 698"></polygon>
            <polygon id="Fill-36" fill="#4D6987" points="3075 1245 2409 611 2409 698 2955 1240"></polygon>
            <path d="M2596,1240 L2381.759,1240 L2381.613,1146.971 C2381.588,1130.988 2373.143,1108.266 2362.753,1096.217 L2071,757.722 L2071,640 L2596,1240 Z" id="Fill-38" fill="#FFFFFF"></path>
            <polygon id="Fill-40" fill="#ABBFD6" points="3999 792 3999 981 2486 648 2592 519"></polygon>
            <polygon id="Fill-42" fill="#4D6987" points="3999 790 2592 519 2592 467 3999 733"></polygon>
            <path d="M2198.5918,745.1436 L2198.5918,778.0566 C2198.5918,800.3196 2249.5208,818.3646 2312.3478,818.3646 C2375.1708,818.3646 2426.0998,800.3196 2426.0998,778.0566 L2426.0998,745.1436 L2198.5918,745.1436 Z" id="Fill-44" fill="#4D6987"></path>
            <path d="M2426.0996,745.1436 C2426.0996,767.5266 2375.1706,785.6766 2312.3436,785.6766 C2249.5206,785.6766 2198.5916,767.5266 2198.5916,745.1436 C2198.5916,722.7566 2249.5206,704.6106 2312.3436,704.6106 C2375.1696,704.6106 2426.0996,722.7566 2426.0996,745.1436" id="Fill-46" fill="#ABBFD6"></path>
            <path d="M1286.9331,573.3994 L1286.9331,603.3204 C1286.9331,623.5584 1333.2321,639.9624 1390.3481,639.9624 C1447.4591,639.9624 1493.7581,623.5584 1493.7581,603.3204 L1493.7581,573.3994 L1286.9331,573.3994 Z" id="Fill-48" fill="#4D6987"></path>
            <path d="M1493.7583,573.3994 C1493.7583,593.7484 1447.4593,610.2484 1390.3433,610.2484 C1333.2323,610.2484 1286.9333,593.7484 1286.9333,573.3994 C1286.9333,553.0464 1333.2323,536.5504 1390.3433,536.5504 C1447.4593,536.5504 1493.7583,553.0464 1493.7583,573.3994" id="Fill-50" fill="#ABBFD6"></path>
            <path d="M1286.9331,523.3994 L1286.9331,553.3204 C1286.9331,573.5584 1333.2321,589.9624 1390.3481,589.9624 C1447.4591,589.9624 1493.7581,573.5584 1493.7581,553.3204 L1493.7581,523.3994 L1286.9331,523.3994 Z" id="Fill-52" fill="#4D6987"></path>
            <path d="M1493.7583,523.3994 C1493.7583,543.7484 1447.4593,560.2484 1390.3433,560.2484 C1333.2323,560.2484 1286.9333,543.7484 1286.9333,523.3994 C1286.9333,503.0464 1333.2323,486.5504 1390.3433,486.5504 C1447.4593,486.5504 1493.7583,503.0464 1493.7583,523.3994" id="Fill-54" fill="#ABBFD6"></path>
            <path d="M1286.9331,473.3994 L1286.9331,503.3204 C1286.9331,523.5584 1333.2321,539.9624 1390.3481,539.9624 C1447.4591,539.9624 1493.7581,523.5584 1493.7581,503.3204 L1493.7581,473.3994 L1286.9331,473.3994 Z" id="Fill-56" fill="#4D6987"></path>
            <path d="M1493.7583,473.3994 C1493.7583,493.7484 1447.4593,510.2484 1390.3433,510.2484 C1333.2323,510.2484 1286.9333,493.7484 1286.9333,473.3994 C1286.9333,453.0464 1333.2323,436.5504 1390.3433,436.5504 C1447.4593,436.5504 1493.7583,453.0464 1493.7583,473.3994" id="Fill-58" fill="#ABBFD6"></path>
            <path d="M0,924.876 L0.004,984.379 L167.112,947.727 C179.131,945.05 188.852,952.782 188.823,964.997 L188.547,1080.668 L298.446,1056.204 L298.719,940.533 C298.749,928.318 308.517,916.249 320.536,913.57 L594.605,852.563 C606.624,849.887 616.345,857.619 616.315,869.834 L616.042,985.508 L725.939,961.041 L726.212,845.37 C726.241,833.155 736.01,821.086 748.026,818.408 L1022.098,757.398 C1034.118,754.724 1043.838,762.456 1043.809,774.671 L1043.533,890.346 L1153.432,865.882 L1153.705,750.208 C1153.734,737.993 1163.503,725.923 1175.521,723.248 L1513,648 L1513,589.001 L0,924.876 Z" id="Fill-60" fill="#FFFFFF"></path>
            <path d="M2518.9326,573.3994 L2518.9326,603.3204 C2518.9326,623.5584 2565.2316,639.9624 2622.3476,639.9624 C2679.4596,639.9624 2725.7586,623.5584 2725.7586,603.3204 L2725.7586,573.3994 L2518.9326,573.3994 Z" id="Fill-62" fill="#4D6987"></path>
            <path d="M2725.7588,573.3994 C2725.7588,593.7484 2679.4598,610.2484 2622.3438,610.2484 C2565.2318,610.2484 2518.9328,593.7484 2518.9328,573.3994 C2518.9328,553.0464 2565.2328,536.5504 2622.3438,536.5504 C2679.4598,536.5504 2725.7588,553.0464 2725.7588,573.3994" id="Fill-64" fill="#ABBFD6"></path>
            <path d="M2518.9326,521.0986 L2518.9326,551.0176 C2518.9326,571.2556 2565.2316,587.6616 2622.3476,587.6616 C2679.4596,587.6616 2725.7586,571.2556 2725.7586,551.0176 L2725.7586,521.0986 L2518.9326,521.0986 Z" id="Fill-66" fill="#4D6987"></path>
            <path d="M2725.7588,521.0986 C2725.7588,541.4516 2679.4598,557.9476 2622.3438,557.9476 C2565.2318,557.9476 2518.9328,541.4516 2518.9328,521.0986 C2518.9328,500.7456 2565.2328,484.2506 2622.3438,484.2506 C2679.4598,484.2506 2725.7588,500.7456 2725.7588,521.0986" id="Fill-68" fill="#ABBFD6"></path>
            <path d="M2518.9326,468.7979 L2518.9326,498.7189 C2518.9326,518.9579 2565.2316,535.3609 2622.3476,535.3609 C2679.4596,535.3609 2725.7586,518.9579 2725.7586,498.7189 L2725.7586,468.7979 L2518.9326,468.7979 Z" id="Fill-70" fill="#4D6987"></path>
            <path d="M2725.7588,468.7979 C2725.7588,489.1509 2679.4598,505.6469 2622.3438,505.6469 C2565.2318,505.6469 2518.9328,489.1509 2518.9328,468.7979 C2518.9328,448.4449 2565.2328,431.9499 2622.3438,431.9499 C2679.4598,431.9499 2725.7588,448.4449 2725.7588,468.7979" id="Fill-72" fill="#ABBFD6"></path>
            <path d="M2518.9326,470.3994 L2518.9326,500.3204 C2518.9326,520.5584 2565.2316,536.9624 2622.3476,536.9624 C2679.4596,536.9624 2725.7586,520.5584 2725.7586,500.3204 L2725.7586,470.3994 L2518.9326,470.3994 Z" id="Fill-74" fill="#4D6987"></path>
            <path d="M2725.7588,470.3994 C2725.7588,490.7484 2679.4598,507.2484 2622.3438,507.2484 C2565.2318,507.2484 2518.9328,490.7484 2518.9328,470.3994 C2518.9328,450.0464 2565.2328,433.5504 2622.3438,433.5504 C2679.4598,433.5504 2725.7588,450.0464 2725.7588,470.3994" id="Fill-76" fill="#ABBFD6"></path>
            <path d="M2518.9326,418.0986 L2518.9326,448.0176 C2518.9326,468.2556 2565.2316,484.6616 2622.3476,484.6616 C2679.4596,484.6616 2725.7586,468.2556 2725.7586,448.0176 L2725.7586,418.0986 L2518.9326,418.0986 Z" id="Fill-78" fill="#4D6987"></path>
            <path d="M2725.7588,418.0986 C2725.7588,438.4516 2679.4598,454.9476 2622.3438,454.9476 C2565.2318,454.9476 2518.9328,438.4516 2518.9328,418.0986 C2518.9328,397.7456 2565.2328,381.2506 2622.3438,381.2506 C2679.4598,381.2506 2725.7588,397.7456 2725.7588,418.0986" id="Fill-80" fill="#ABBFD6"></path>
            <path d="M3999,924.876 L3998.996,984.379 L3831.889,947.727 C3819.868,945.05 3810.148,952.782 3810.178,964.997 L3810.453,1080.668 L3700.555,1056.204 L3700.281,940.533 C3700.251,928.318 3690.482,916.249 3678.465,913.57 L3404.396,852.563 C3392.376,849.887 3382.654,857.619 3382.686,869.834 L3382.958,985.508 L3273.063,961.041 L3272.788,845.37 C3272.76,833.155 3262.99,821.086 3250.975,818.408 L2976.901,757.398 C2964.883,754.724 2955.162,762.456 2955.191,774.671 L2955.469,890.346 L2845.568,865.882 L2845.296,750.208 C2845.267,737.993 2835.498,725.923 2823.479,723.248 L2486.001,648 L2486.001,589.001 L3999,924.876 Z" id="Fill-82" fill="#FFFFFF"></path>
            <path d="M1602.5918,744.1436 L1602.5918,777.0566 C1602.5918,799.3196 1653.5208,817.3646 1716.3478,817.3646 C1779.1708,817.3646 1830.0998,799.3196 1830.0998,777.0566 L1830.0998,744.1436 L1602.5918,744.1436 Z" id="Fill-84" fill="#4D6987"></path>
            <path d="M1830.0996,744.1436 C1830.0996,766.5266 1779.1706,784.6766 1716.3436,784.6766 C1653.5206,784.6766 1602.5916,766.5266 1602.5916,744.1436 C1602.5916,721.7566 1653.5206,703.6106 1716.3436,703.6106 C1779.1706,703.6106 1830.0996,721.7566 1830.0996,744.1436" id="Fill-86" fill="#ABBFD6"></path>
            <path d="M1602.5918,686.6133 L1602.5918,719.5233 C1602.5918,741.7853 1653.5208,759.8343 1716.3478,759.8343 C1779.1708,759.8343 1830.0998,741.7853 1830.0998,719.5233 L1830.0998,686.6133 L1602.5918,686.6133 Z" id="Fill-88" fill="#4D6987"></path>
            <path d="M1830.0996,686.6133 C1830.0996,709.0003 1779.1706,727.1453 1716.3436,727.1453 C1653.5206,727.1453 1602.5916,709.0003 1602.5916,686.6133 C1602.5916,664.2253 1653.5206,646.0803 1716.3436,646.0803 C1779.1706,646.0803 1830.0996,664.2253 1830.0996,686.6133" id="Fill-90" fill="#ABBFD6"></path>
            <path d="M1602.5918,629.082 L1602.5918,661.995 C1602.5918,684.258 1653.5208,702.303 1716.3478,702.303 C1779.1708,702.303 1830.0998,684.258 1830.0998,661.995 L1830.0998,629.082 L1602.5918,629.082 Z" id="Fill-92" fill="#4D6987"></path>
            <path d="M1830.0996,629.082 C1830.0996,651.469 1779.1706,669.615 1716.3436,669.615 C1653.5206,669.615 1602.5916,651.469 1602.5916,629.082 C1602.5916,606.695 1653.5206,588.549 1716.3436,588.549 C1779.1706,588.549 1830.0996,606.695 1830.0996,629.082" id="Fill-94" fill="#ABBFD6"></path>
            <path d="M1602.5918,575.1436 L1602.5918,608.0566 C1602.5918,630.3196 1653.5208,648.3646 1716.3478,648.3646 C1779.1708,648.3646 1830.0998,630.3196 1830.0998,608.0566 L1830.0998,575.1436 L1602.5918,575.1436 Z" id="Fill-96" fill="#4D6987"></path>
            <path d="M1830.0996,575.1436 C1830.0996,597.5266 1779.1706,615.6766 1716.3436,615.6766 C1653.5206,615.6766 1602.5916,597.5266 1602.5916,575.1436 C1602.5916,552.7566 1653.5206,534.6106 1716.3436,534.6106 C1779.1706,534.6106 1830.0996,552.7566 1830.0996,575.1436" id="Fill-98" fill="#ABBFD6"></path>
            <path d="M1602.5918,517.6133 L1602.5918,550.5233 C1602.5918,572.7853 1653.5208,590.8343 1716.3478,590.8343 C1779.1708,590.8343 1830.0998,572.7853 1830.0998,550.5233 L1830.0998,517.6133 L1602.5918,517.6133 Z" id="Fill-100" fill="#4D6987"></path>
            <path d="M1830.0996,517.6133 C1830.0996,540.0003 1779.1706,558.1453 1716.3436,558.1453 C1653.5206,558.1453 1602.5916,540.0003 1602.5916,517.6133 C1602.5916,495.2253 1653.5206,477.0803 1716.3436,477.0803 C1779.1706,477.0803 1830.0996,495.2253 1830.0996,517.6133" id="Fill-102" fill="#ABBFD6"></path>
            <path d="M1602.5918,460.082 L1602.5918,492.995 C1602.5918,515.258 1653.5208,533.303 1716.3478,533.303 C1779.1708,533.303 1830.0998,515.258 1830.0998,492.995 L1830.0998,460.082 L1602.5918,460.082 Z" id="Fill-104" fill="#4D6987"></path>
            <path d="M1830.0996,460.082 C1830.0996,482.469 1779.1706,500.615 1716.3436,500.615 C1653.5206,500.615 1602.5916,482.469 1602.5916,460.082 C1602.5916,437.695 1653.5206,419.549 1716.3436,419.549 C1779.1706,419.549 1830.0996,437.695 1830.0996,460.082" id="Fill-106" fill="#ABBFD6"></path>
            <path d="M1403,1240 L1617.242,1240 L1617.387,1146.971 C1617.412,1130.988 1625.857,1108.266 1636.248,1096.217 L1928,757.723 L1928,640 L1403,1240 Z" id="Fill-108" fill="#FFFFFF"></path>
        </g>
        <g id="Group-Copy" transform="translate(1874.950966, 124.375000)">
            <path d="M153.524264,314.861023 L56.595154,287.045904 L36.4005335,84.8322779 C33.2428316,53.2125784 49.8422735,22.9033086 78.1868993,8.5372655 C119.036291,-12.1675223 168.817278,7.16548245 184.985245,50.0128628 L246.758163,213.715197 C269.10749,272.943948 214.374213,332.322748 153.524264,314.861023" id="Fill-110" fill="#4D6987"></path>
            <path d="M147.366045,133.373125 L52.8510599,150.606775 C42.97849,151.08093 34.2649667,157.209606 30.4817264,166.341933 L5.60490416,245.259805 L42.9978296,264.337393 L51.3499011,338.110912 L156.050893,368.12075 C156.050893,368.12075 157.439348,283.59504 172.916422,261.09433 L191.139063,234.601645 C218.349316,195.042009 194.826938,140.643508 147.366712,133.373125" id="Fill-112" fill="#DAE2EB"></path>
            <path d="M138.420379,261.202832 L5.64618436,245.176245 L0.669219395,263.985744 C-2.0796818,274.374484 5.45678894,284.650519 16.1909747,285.15135 L130.179011,290.447753 L138.420379,261.202832 Z" id="Fill-114" fill="#ABBFD6"></path>
            <polygon id="Fill-116" fill="#4D6987" points="118.514787 289.874965 102.842316 289.248093 111.111026 257.999182"></polygon>
            <path d="M92.6401042,178.265442 L74.4368032,157.022478 L81.6825119,130.379743 L98.7947886,127.536811 L113.356229,149.10855 L110.69469,173.939357 L138.743885,244.947303 L143.406747,227.325526 L177.90339,236.453852 L171.996787,258.774503 C165.816761,282.131493 141.871577,296.055391 118.514587,289.874698 L92.6401042,178.265442 Z" id="Fill-118" fill="#ABBFD6"></path>
            <path d="M126.986964,168.637286 C143.320986,166.926725 153.512994,150.100542 147.465678,134.832203 L133.594464,99.8127223 C131.156998,93.5199927 132.145322,86.4149967 136.208654,81.0218953 C139.89653,76.1316255 139.10227,69.2173587 134.402062,65.2894043 C129.716526,61.3747876 122.785587,61.7975929 118.609551,66.2550542 L110.211465,75.221327 L108.036085,73.4200698 C94.9564636,62.6085254 78.0282472,57.5988831 61.1620512,59.546855 L70.7318552,112.714285 C74.273683,132.392737 93.6947166,145.004204 113.139091,140.252647 C118.568871,138.996235 123.605856,143.496377 122.966313,149.033525 L120.624879,169.303504 L126.986964,168.637286 Z" id="Fill-120" fill="#ABBFD6"></path>
            <path d="M201.90926,749.736058 C200.666853,720.00231 201.629835,694.519956 201.629835,694.519956 C201.24771,680.619399 177.984083,629.71271 177.984083,629.71271 L178.048104,434.496044 C178.054106,410.464166 170.228874,387.085168 155.756129,367.900211 L149.38204,359.451442 C149.38204,359.451442 55.1024646,340.19913 54.0174423,340.778653 C69.3558041,517.503257 104.005163,844.199694 112.559968,843.518804 C117.761006,843.105335 127.283462,844.403094 128.914663,852.604449 C130.460503,860.378998 145.380728,861.61607 144.311711,846.961932 C141.309393,805.826447 135.039338,701.762331 136.929291,690.594669 C141.135336,703.546916 173.453264,824.976058 176.303532,827.704953 C176.303532,827.704953 194.063355,821.602952 199.345086,837.204067 C201.303061,842.986629 205.676495,846.965934 207.918563,843.955614 C224.073193,822.269837 209.052268,781.923944 201.90926,749.736058" id="Fill-122" fill="#4D6987"></path>
            <path d="M153.294389,889.750027 C150.72488,879.750749 149.024322,870.18828 147.327099,860.625812 L121.642679,874.867814 L124.741695,859.238024 L107.38934,853.526818 C108.623744,871.774134 104.704459,875.668744 72.0790969,888.576309 C67.7290041,890.297539 63.8090523,892.024772 59.4576258,894.181479 C54.2359139,896.762992 55.5096648,904.585557 61.1588502,905.045708 C88.9412916,908.186071 117.183884,905.685918 145.419807,904.489525 C157.148319,904.532873 154.582144,894.96707 153.294389,889.750027" id="Fill-124" fill="#6589AF"></path>
            <path d="M217.25349,843.950479 L198.062532,865.157431 L195.949173,849.517637 L177.70119,849.448281 C178.996282,852.928088 180.288038,855.973754 180.714178,858.147133 C183.285021,867.274125 181.092969,872.911973 171.501825,882.431761 C167.150398,884.588468 162.359494,887.179317 156.272165,889.762831 C152.356882,891.485396 148.004788,893.641436 144.087504,895.798143 C138.865792,898.384991 140.569017,906.206222 146.218202,906.665039 C160.548901,907.58334 174.8836,907.207216 189.222301,905.957473 C189.222301,905.957473 216.622617,895.202614 229.668894,890.907206 C240.981269,887.035937 235.798237,879.202035 232.77658,873.974321 C226.733932,863.967041 221.993044,853.958426 217.25349,843.950479" id="Fill-126" fill="#6589AF"></path>
        </g>
    </g>
</svg>