<?xml version="1.0" encoding="UTF-8"?>
<svg width="1200px" height="860px" viewBox="0 0 1200 860" version="1.1" xmlns="http://www.w3.org/2000/svg" xmlns:xlink="http://www.w3.org/1999/xlink">
    <!-- Generator: Sketch 51.3 (57544) - http://www.bohemiancoding.com/sketch -->
    <title>R1-R2-cp</title>
    <desc>Created with Sketch.</desc>
    <defs></defs>
    <g id="R1-R2-cp" stroke="none" stroke-width="1" fill="none" fill-rule="evenodd">
        <rect fill="#FFFFFF" x="0" y="0" width="1200" height="860"></rect>
        <circle id="Oval-5" stroke="#979797" fill-rule="nonzero" cx="595.5" cy="439.5" r="203.5"></circle>
        <circle id="Oval-3-Copy-2" fill="#FFFFFF" fill-rule="nonzero" cx="799.5" cy="441.5" r="41.5"></circle>
        <circle id="Oval-3-Copy-4" fill="#FFFFFF" fill-rule="nonzero" cx="393.5" cy="441.5" r="41.5"></circle>
        <circle id="Oval-3-Copy-6" fill="#FFFFFF" fill-rule="nonzero" cx="600.5" cy="242.5" r="41.5"></circle>
        <circle id="Oval-3-Copy-7" fill="#FFFFFF" fill-rule="nonzero" cx="600.5" cy="637.5" r="41.5"></circle>
        <circle id="Oval-3-Copy-3" fill="#FFFFFF" fill-rule="nonzero" cx="595" cy="652" r="29"></circle>
        <circle id="Oval-3-Copy-5" fill="#FFFFFF" fill-rule="nonzero" cx="803" cy="441" r="29"></circle>
        <text id="Letter-left-Copy" font-family="HelveticaNeue-Thin, Helvetica Neue" font-size="40" font-weight="300" fill="#000000">
            <tspan x="655" y="224">P</tspan>
        </text>
        <polyline id="Path-2" stroke="#979797" fill-rule="nonzero" transform="translate(651.000000, 244.500000) scale(-1, -1) rotate(61.000000) translate(-651.000000, -244.500000) " points="641 243.139927 661 234 657.075169 255"></polyline>
        <g id="A" transform="translate(781.000000, 401.000000)" fill="#000000" font-family="HelveticaNeue-Bold, Helvetica Neue" font-size="64" font-weight="bold">
            <text id="Letter-left-Copy">
                <tspan x="0" y="62">B</tspan>
            </text>
        </g>
        <g id="Group-5" transform="translate(435.000000, 278.000000)" fill-rule="nonzero" stroke="#2474CD" stroke-linecap="square" stroke-width="4">
            <path d="M0.44140625,149.226562 L132.550781,0.50390625" id="Line"></path>
            <path d="M200.441406,149.226562 L332.550781,0.50390625" id="Line" transform="translate(266.496094, 74.865234) scale(-1, 1) translate(-266.496094, -74.865234) "></path>
        </g>
        <g id="Group-5-Copy" transform="translate(601.500000, 536.000000) rotate(-181.000000) translate(-601.500000, -536.000000) translate(435.000000, 461.000000)" fill-rule="nonzero" stroke="#2474CD" stroke-linecap="square" stroke-width="4">
            <path d="M0.44140625,149.226562 L132.550781,0.50390625" id="Line"></path>
            <path d="M200.441406,149.226562 L332.550781,0.50390625" id="Line" transform="translate(266.496094, 74.865234) scale(-1, 1) translate(-266.496094, -74.865234) "></path>
        </g>
        <g id="A" transform="translate(577.000000, 203.000000)" fill="#000000" font-family="HelveticaNeue-Bold, Helvetica Neue" font-size="64" font-weight="bold">
            <text id="Letter-left-Copy">
                <tspan x="0" y="62">C</tspan>
            </text>
        </g>
        <g id="A" transform="translate(580.000000, 603.000000)" fill="#000000" font-family="HelveticaNeue-Bold, Helvetica Neue" font-size="64" font-weight="bold">
            <text id="Letter-left-Copy">
                <tspan x="0" y="62">F</tspan>
            </text>
        </g>
        <g id="A" transform="translate(375.000000, 401.000000)" fill="#000000" font-family="HelveticaNeue-Bold, Helvetica Neue" font-size="64" font-weight="bold">
            <text id="Letter-left-Copy">
                <tspan x="0" y="62">A</tspan>
            </text>
        </g>
        <g id="Group" transform="translate(557.000000, 99.000000)" fill="#4A90E2" font-family="HelveticaNeue-Thin, Helvetica Neue" font-weight="300">
            <g id="Group-Copy" transform="translate(44.500000, 26.500000) scale(-1, 1) rotate(-180.000000) translate(-44.500000, -26.500000) ">
                <text id="Letter-left-Copy" transform="translate(13.000000, 29.000000) scale(1, -1) translate(-13.000000, -29.000000) " font-size="40">
                    <tspan x="9.09494702e-13" y="44">R</tspan>
                </text>
                <text id="Letter-left-Copy-3" transform="translate(65.000000, 29.000000) scale(1, -1) translate(-65.000000, -29.000000) " font-size="40">
                    <tspan x="41" y="44">+P</tspan>
                </text>
                <text id="Letter-left-Copy-2" transform="translate(35.000000, 11.500000) scale(1, -1) translate(-35.000000, -11.500000) " font-size="20">
                    <tspan x="29" y="19">1</tspan>
                </text>
            </g>
        </g>
        <g id="Group-Copy-3" transform="translate(557.000000, 724.000000)" fill="#4A90E2" font-family="HelveticaNeue-Thin, Helvetica Neue" font-weight="300">
            <g id="Group-Copy" transform="translate(39.500000, 26.500000) scale(-1, 1) rotate(-180.000000) translate(-39.500000, -26.500000) ">
                <text id="Letter-left-Copy" transform="translate(13.000000, 29.000000) scale(1, -1) translate(-13.000000, -29.000000) " font-size="40">
                    <tspan x="9.09494702e-13" y="44">R</tspan>
                </text>
                <text id="Letter-left-Copy-3" transform="translate(60.000000, 29.000000) scale(1, -1) translate(-60.000000, -29.000000) " font-size="40">
                    <tspan x="41" y="44">-P</tspan>
                </text>
                <text id="Letter-left-Copy-2" transform="translate(35.000000, 11.500000) scale(1, -1) translate(-35.000000, -11.500000) " font-size="20">
                    <tspan x="29" y="19">2</tspan>
                </text>
            </g>
        </g>
        <g id="Group-3" transform="translate(601.000000, 204.500000) scale(1, -1) translate(-601.000000, -204.500000) translate(425.000000, 163.000000)" fill-rule="nonzero" stroke="#4A90E2">
            <path d="M350.407593,83 C307.908443,33.4059366 244.93492,2 174.654232,2 C105.199433,2 42.4734793,33.0673992 0,81.6544189" id="Oval-2-Copy" stroke-dasharray="8,10" transform="translate(175.203796, 42.500000) rotate(-180.000000) translate(-175.203796, -42.500000) "></path>
            <g id="Group-2" transform="translate(339.988573, 12.008037) rotate(8.000000) translate(-339.988573, -12.008037) translate(329.488573, 1.508037)">
                <polyline id="Path-2" points="9.09494702e-13 9.12911178 20.015572 0 16.0876848 20.9751502"></polyline>
            </g>
        </g>
        <g id="Group-3" transform="translate(425.000000, 628.000000)" fill-rule="nonzero" stroke="#4A90E2">
            <path d="M350.407593,83 C307.908443,33.4059366 244.93492,2 174.654232,2 C105.199433,2 42.4734793,33.0673992 0,81.6544189" id="Oval-2-Copy" stroke-dasharray="8,10" transform="translate(175.203796, 42.500000) rotate(-180.000000) translate(-175.203796, -42.500000) "></path>
            <g id="Group-2" transform="translate(339.988573, 12.008037) rotate(8.000000) translate(-339.988573, -12.008037) translate(329.488573, 1.508037)">
                <polyline id="Path-2" points="9.09494702e-13 9.12911178 20.015572 0 16.0876848 20.9751502"></polyline>
            </g>
        </g>
    </g>
</svg>