<?xml version="1.0" encoding="UTF-8"?>
<svg id="outlines" xmlns="http://www.w3.org/2000/svg" viewBox="0 0 1560 840">
  <defs>
    <style>
      .cls-1, .cls-2, .cls-3 {
        stroke-linejoin: round;
      }

      .cls-1, .cls-2, .cls-3, .cls-4 {
        fill: none;
      }

      .cls-1, .cls-5, .cls-4 {
        stroke: #00090c;
        stroke-width: 4px;
      }

      .cls-1, .cls-3, .cls-4 {
        stroke-linecap: round;
      }

      .cls-2 {
        stroke-width: 2.9px;
      }

      .cls-2, .cls-3 {
        stroke: #b3b3b3;
      }

      .cls-5 {
        fill: #f2f2f2;
      }

      .cls-5, .cls-4 {
        stroke-miterlimit: 10;
      }

      .cls-3 {
        stroke-width: 2px;
      }

      .cls-6 {
        fill: #00090c;
      }
    </style>
  </defs>
  <g>
    <path class="cls-6" d="M831.79,265.08c-2.42,0-4.51-.53-6.27-1.59-1.76-1.06-3.11-2.54-4.05-4.43-.94-1.9-1.41-4.09-1.41-6.58s.47-4.72,1.41-6.62c.94-1.9,2.29-3.38,4.05-4.45,1.76-1.07,3.85-1.61,6.27-1.61,2.91,0,5.28.72,7.12,2.15,1.84,1.43,3,3.45,3.49,6.06h-4.61c-.33-1.37-.99-2.46-1.99-3.25-1-.79-2.35-1.19-4.05-1.19-1.54,0-2.86.36-3.96,1.07s-1.96,1.73-2.55,3.07-.89,2.93-.89,4.77.3,3.42.89,4.73c.59,1.32,1.44,2.33,2.55,3.04s2.43,1.07,3.96,1.07c1.7,0,3.05-.37,4.05-1.1,1-.73,1.66-1.75,1.99-3.06h4.61c-.47,2.47-1.62,4.41-3.47,5.81-1.85,1.41-4.23,2.11-7.14,2.11Z"/>
    <path class="cls-6" d="M852.92,264.66v-19.66l-4.33,1.12v-3.25l6.01-2.65h2.62v24.44h-4.29Z"/>
  </g>
  <g>
    <path class="cls-6" d="M1024.17,265.08c-2.42,0-4.51-.53-6.27-1.59-1.76-1.06-3.11-2.54-4.05-4.43-.94-1.9-1.41-4.09-1.41-6.58s.47-4.72,1.41-6.62c.94-1.9,2.29-3.38,4.05-4.45,1.76-1.07,3.85-1.61,6.27-1.61,2.91,0,5.28.72,7.12,2.15,1.84,1.43,3,3.45,3.49,6.06h-4.61c-.33-1.37-.99-2.46-1.99-3.25-1-.79-2.35-1.19-4.05-1.19-1.54,0-2.86.36-3.96,1.07s-1.96,1.73-2.55,3.07-.89,2.93-.89,4.77.3,3.42.89,4.73c.59,1.32,1.44,2.33,2.55,3.04s2.43,1.07,3.96,1.07c1.7,0,3.05-.37,4.05-1.1,1-.73,1.66-1.75,1.99-3.06h4.61c-.47,2.47-1.62,4.41-3.47,5.81-1.85,1.41-4.23,2.11-7.14,2.11Z"/>
    <path class="cls-6" d="M1041.77,264.66v-3.04c1.56-1.23,3.05-2.47,4.47-3.7,1.42-1.23,2.7-2.46,3.84-3.67,1.14-1.21,2.04-2.4,2.69-3.56.65-1.16.98-2.28.98-3.35,0-.7-.13-1.35-.38-1.96-.26-.61-.66-1.09-1.21-1.47-.55-.37-1.27-.56-2.18-.56s-1.64.2-2.25.59c-.62.4-1.08.92-1.38,1.59-.3.66-.45,1.42-.45,2.25h-4.05c.05-1.77.43-3.25,1.15-4.43.72-1.19,1.7-2.08,2.93-2.67s2.62-.89,4.16-.89c1.65,0,3.06.3,4.22.91s2.06,1.46,2.69,2.55c.63,1.1.94,2.39.94,3.88,0,1.09-.2,2.17-.61,3.23-.41,1.06-.97,2.08-1.69,3.07-.72.99-1.53,1.94-2.43,2.86-.9.92-1.82,1.79-2.78,2.62-.96.83-1.87,1.59-2.76,2.29h10.93v3.46h-16.83Z"/>
  </g>
  <g>
    <path class="cls-6" d="M1220.23,265.08c-2.42,0-4.51-.53-6.27-1.59-1.76-1.06-3.11-2.54-4.05-4.43-.94-1.9-1.41-4.09-1.41-6.58s.47-4.72,1.41-6.62c.94-1.9,2.29-3.38,4.05-4.45,1.76-1.07,3.85-1.61,6.27-1.61,2.91,0,5.28.72,7.12,2.15,1.84,1.43,3,3.45,3.49,6.06h-4.61c-.33-1.37-.99-2.46-1.99-3.25-1-.79-2.35-1.19-4.05-1.19-1.54,0-2.86.36-3.96,1.07s-1.96,1.73-2.55,3.07-.89,2.93-.89,4.77.3,3.42.89,4.73c.59,1.32,1.44,2.33,2.55,3.04s2.43,1.07,3.96,1.07c1.7,0,3.05-.37,4.05-1.1,1-.73,1.66-1.75,1.99-3.06h4.61c-.47,2.47-1.62,4.41-3.47,5.81-1.85,1.41-4.23,2.11-7.14,2.11Z"/>
    <path class="cls-6" d="M1246.35,265.08c-1.58,0-3.03-.29-4.33-.86s-2.35-1.44-3.12-2.62c-.78-1.18-1.19-2.66-1.24-4.45h4.12c.02.82.21,1.55.58,2.22.36.66.88,1.19,1.55,1.57.67.38,1.49.58,2.44.58s1.68-.17,2.32-.52c.64-.35,1.12-.83,1.45-1.43s.49-1.28.49-2.03c0-.91-.22-1.66-.66-2.25-.44-.59-1.05-1.04-1.82-1.35-.77-.3-1.64-.45-2.62-.45h-1.82v-3.46h1.82c1.28,0,2.33-.3,3.14-.89.81-.59,1.22-1.46,1.22-2.6,0-.96-.31-1.72-.93-2.3-.62-.58-1.5-.87-2.64-.87s-2.12.35-2.81,1.05c-.69.7-1.07,1.56-1.13,2.58h-4.12c.07-1.47.45-2.74,1.13-3.82s1.62-1.92,2.81-2.5,2.57-.87,4.16-.87,3.05.29,4.19.87,2.01,1.36,2.6,2.34c.59.98.89,2.05.89,3.21,0,.91-.17,1.73-.52,2.48-.35.75-.82,1.37-1.42,1.87-.59.5-1.29.87-2.08,1.1.91.19,1.72.55,2.43,1.08s1.27,1.22,1.68,2.04c.41.83.61,1.79.61,2.88,0,1.33-.32,2.56-.96,3.68-.64,1.13-1.58,2.03-2.83,2.71-1.25.68-2.78,1.01-4.59,1.01Z"/>
  </g>
  <g>
    <path class="cls-6" d="M1415.32,265.08c-2.42,0-4.51-.53-6.27-1.59-1.76-1.06-3.11-2.54-4.05-4.43-.94-1.9-1.41-4.09-1.41-6.58s.47-4.72,1.41-6.62c.94-1.9,2.29-3.38,4.05-4.45,1.76-1.07,3.85-1.61,6.27-1.61,2.91,0,5.28.72,7.12,2.15,1.84,1.43,3,3.45,3.49,6.06h-4.61c-.33-1.37-.99-2.46-1.99-3.25-1-.79-2.35-1.19-4.05-1.19-1.54,0-2.86.36-3.96,1.07s-1.96,1.73-2.55,3.07-.89,2.93-.89,4.77.3,3.42.89,4.73c.59,1.32,1.44,2.33,2.55,3.04s2.43,1.07,3.96,1.07c1.7,0,3.05-.37,4.05-1.1,1-.73,1.66-1.75,1.99-3.06h4.61c-.47,2.47-1.62,4.41-3.47,5.81-1.85,1.41-4.23,2.11-7.14,2.11Z"/>
    <path class="cls-6" d="M1444.65,264.66v-4.64h-12.12v-3.35l11.52-16.45h4.75v16.13h3.32v3.67h-3.32v4.64h-4.16ZM1437.04,256.35h7.86v-11.52l-7.86,11.52Z"/>
  </g>
  <g>
    <path class="cls-6" d="M225.28,223.31v-29.48h10.99c2.39,0,4.35.41,5.9,1.22,1.54.81,2.7,1.9,3.45,3.26.76,1.36,1.14,2.87,1.14,4.53s-.37,3.04-1.1,4.4c-.73,1.36-1.87,2.46-3.43,3.29-1.56.83-3.56,1.24-6,1.24h-5.26v11.54h-5.69ZM230.96,207.64h4.97c1.71,0,2.98-.42,3.79-1.26.81-.84,1.22-1.95,1.22-3.33s-.4-2.46-1.2-3.26-2.07-1.2-3.81-1.2h-4.97v9.06ZM240.56,223.31l-6.06-12.97h6.15l6.4,12.97h-6.49Z"/>
    <path class="cls-6" d="M260.49,223.82c-2.02,0-3.84-.47-5.45-1.41-1.62-.94-2.89-2.25-3.83-3.92-.94-1.67-1.41-3.59-1.41-5.75s.47-4.16,1.41-5.83c.94-1.67,2.22-2.98,3.85-3.92,1.63-.94,3.45-1.41,5.48-1.41s3.88.47,5.5,1.41c1.61.94,2.89,2.25,3.83,3.92.94,1.67,1.41,3.6,1.41,5.79s-.47,4.12-1.41,5.79c-.94,1.67-2.23,2.98-3.85,3.92-1.63.94-3.47,1.41-5.52,1.41ZM260.49,218.89c.95,0,1.8-.22,2.55-.67.74-.45,1.33-1.14,1.77-2.06s.65-2.08.65-3.45-.22-2.52-.65-3.43-1.03-1.6-1.77-2.06c-.74-.46-1.58-.7-2.51-.7s-1.73.23-2.49.7c-.76.46-1.35,1.15-1.79,2.06s-.65,2.06-.65,3.43.22,2.53.65,3.45,1.03,1.61,1.77,2.06c.74.45,1.56.67,2.46.67Z"/>
    <path class="cls-6" d="M284.07,223.82c-1.71,0-3.18-.36-4.4-1.07-1.22-.72-2.16-1.77-2.8-3.16-.65-1.39-.97-3.11-.97-5.16v-12.34h5.69v11.75c0,1.71.36,3,1.07,3.87.72.87,1.82,1.31,3.31,1.31.95,0,1.8-.22,2.53-.65.73-.43,1.31-1.07,1.75-1.9.43-.83.65-1.85.65-3.05v-11.33h5.64v21.23h-4.97l-.46-3.45c-.62,1.21-1.53,2.17-2.74,2.88-1.21.72-2.64,1.07-4.3,1.07Z"/>
    <path class="cls-6" d="M302.1,223.31v-21.23h5.01l.42,3.45c.65-1.18,1.56-2.13,2.76-2.86,1.19-.73,2.62-1.09,4.27-1.09,1.77,0,3.26.37,4.46,1.09,1.21.73,2.13,1.8,2.76,3.2.63,1.4.95,3.13.95,5.18v12.26h-5.64v-11.71c0-1.68-.36-2.98-1.07-3.87s-1.82-1.35-3.31-1.35c-.95,0-1.8.22-2.55.67s-1.33,1.09-1.75,1.92c-.42.83-.63,1.83-.63,3.01v11.33h-5.69Z"/>
    <path class="cls-6" d="M337.52,223.82c-1.94,0-3.67-.48-5.2-1.43-1.53-.96-2.73-2.27-3.6-3.96-.87-1.69-1.31-3.58-1.31-5.69s.44-4.08,1.33-5.75c.88-1.67,2.11-2.99,3.66-3.96,1.56-.97,3.31-1.45,5.24-1.45,1.52,0,2.85.28,4,.84,1.15.56,2.08,1.36,2.78,2.4v-11.83h5.69v30.32h-5.05l-.63-2.91c-.42.59-.95,1.15-1.58,1.69-.63.53-1.38.96-2.25,1.26s-1.9.46-3.07.46ZM338.86,218.85c1.12,0,2.11-.26,2.97-.78.86-.52,1.52-1.24,2-2.17.48-.93.72-1.99.72-3.2s-.24-2.27-.72-3.2c-.48-.93-1.14-1.65-2-2.17s-1.85-.78-2.97-.78-2.04.26-2.91.78-1.55,1.24-2.04,2.17c-.49.93-.74,1.98-.74,3.16s.25,2.32.74,3.24c.49.93,1.16,1.65,2.02,2.17.86.52,1.83.78,2.93.78Z"/>
  </g>
  <rect class="cls-5" x="784.05" y="644.33" width="109.03" height="66.78" rx="33.39" ry="33.39"/>
  <g>
    <polyline class="cls-3" points="747.52 181.19 761.66 173.29 747.52 165.39"/>
    <line class="cls-2" x1="500.32" y1="173.35" x2="759.66" y2="173.35"/>
  </g>
  <g>
    <polyline class="cls-3" points="747.52 260.4 761.66 252.5 747.52 244.61"/>
    <line class="cls-2" x1="500.32" y1="252.57" x2="759.66" y2="252.57"/>
  </g>
  <g>
    <polyline class="cls-3" points="747.52 181.19 761.66 173.29 747.52 165.39"/>
    <line class="cls-2" x1="500.32" y1="173.35" x2="759.66" y2="173.35"/>
  </g>
  <g>
    <path class="cls-6" d="M794.08,183.19l-8.97-24.44h4.5l7.02,20.15,7.12-20.15h4.43l-9.01,24.44h-5.1Z"/>
    <path class="cls-6" d="M816.95,183.19v-21.06h-7.19v-3.39h18.54v3.39h-7.19v21.06h-4.16Z"/>
    <path class="cls-6" d="M830.5,183.19l7.61-12.36-7.68-12.08h4.82l5.55,8.77,5.13-8.77h4.75l-7.61,12.26,7.75,12.19h-4.82l-5.62-8.87-5.13,8.87h-4.75Z"/>
    <path class="cls-6" d="M863.85,183.6c-2.35,0-4.43-.53-6.23-1.59-1.8-1.06-3.22-2.54-4.24-4.43s-1.54-4.1-1.54-6.62.51-4.69,1.54-6.58,2.44-3.38,4.24-4.45c1.8-1.07,3.88-1.61,6.23-1.61s4.5.54,6.32,1.61c1.82,1.07,3.22,2.55,4.23,4.45s1.5,4.09,1.5,6.58-.5,4.72-1.5,6.62-2.41,3.38-4.23,4.43c-1.82,1.06-3.92,1.59-6.32,1.59ZM863.89,179.83c1.56,0,2.92-.35,4.08-1.06,1.16-.71,2.06-1.73,2.69-3.06.63-1.33.94-2.91.94-4.75s-.31-3.42-.94-4.75c-.63-1.33-1.53-2.34-2.69-3.05-1.16-.71-2.53-1.07-4.08-1.07s-2.92.35-4.09,1.07c-1.16.71-2.07,1.73-2.71,3.05-.64,1.33-.96,2.91-.96,4.75s.32,3.42.96,4.75c.64,1.33,1.54,2.35,2.71,3.06,1.16.71,2.53,1.06,4.09,1.06Z"/>
    <path class="cls-6" d="M896.01,183.19c-1.19,0-2.22-.19-3.09-.56s-1.55-.99-2.04-1.85c-.49-.86-.73-2.03-.73-3.49v-8.17h-3v-3.53h3l.49-4.64h3.7v4.64h4.78v3.53h-4.78v8.17c0,.88.19,1.5.58,1.83.38.34,1.03.51,1.94.51h2.17v3.56h-3Z"/>
    <path class="cls-6" d="M903.07,183.19v-17.6h3.74l.38,3.28c.42-.77.94-1.43,1.57-1.97.63-.55,1.37-.97,2.22-1.28.85-.3,1.79-.45,2.81-.45v4.43h-1.47c-.7,0-1.36.09-1.99.26-.63.17-1.17.45-1.62.84-.45.38-.81.91-1.07,1.57-.26.66-.38,1.5-.38,2.5v8.42h-4.19Z"/>
    <path class="cls-6" d="M924.79,183.6c-1.75,0-3.28-.38-4.61-1.13s-2.36-1.82-3.11-3.2c-.75-1.37-1.12-2.96-1.12-4.75s.37-3.49,1.1-4.89c.73-1.4,1.77-2.49,3.11-3.28,1.34-.79,2.89-1.19,4.66-1.19s3.22.38,4.5,1.15c1.28.77,2.27,1.8,2.97,3.09.7,1.29,1.05,2.74,1.05,4.35v.77c0,.28-.02.57-.07.87h-14.32v-2.69h10.16c-.05-1.28-.48-2.29-1.29-3.02-.82-.73-1.83-1.1-3.04-1.1-.86,0-1.65.2-2.38.59s-1.29.98-1.71,1.76c-.42.78-.63,1.76-.63,2.95v1.01c0,1.09.2,2.04.61,2.83.41.79.97,1.39,1.68,1.8.71.41,1.51.61,2.39.61.98,0,1.79-.21,2.43-.63.64-.42,1.11-.98,1.42-1.68h4.26c-.33,1.09-.86,2.08-1.61,2.95s-1.66,1.56-2.76,2.06c-1.09.5-2.33.75-3.7.75Z"/>
    <path class="cls-6" d="M945.46,183.6c-1.75,0-3.28-.38-4.61-1.13s-2.36-1.82-3.11-3.2c-.75-1.37-1.12-2.96-1.12-4.75s.37-3.49,1.1-4.89c.73-1.4,1.77-2.49,3.11-3.28,1.34-.79,2.89-1.19,4.66-1.19s3.22.38,4.5,1.15c1.28.77,2.27,1.8,2.97,3.09.7,1.29,1.05,2.74,1.05,4.35v.77c0,.28-.02.57-.07.87h-14.32v-2.69h10.16c-.05-1.28-.48-2.29-1.29-3.02-.82-.73-1.83-1.1-3.04-1.1-.86,0-1.65.2-2.38.59s-1.29.98-1.71,1.76c-.42.78-.63,1.76-.63,2.95v1.01c0,1.09.2,2.04.61,2.83.41.79.97,1.39,1.68,1.8.71.41,1.51.61,2.39.61.98,0,1.79-.21,2.43-.63.64-.42,1.11-.98,1.42-1.68h4.26c-.33,1.09-.86,2.08-1.61,2.95s-1.66,1.56-2.76,2.06c-1.09.5-2.33.75-3.7.75Z"/>
  </g>
  <path class="cls-1" d="M260.45,90.42H101.72c-13.22,0-23.95,10.72-23.95,23.95v197.07c0,13.22,10.72,23.95,23.95,23.95h371.81c13.22,0,23.95-10.72,23.95-23.95V114.36c0-13.22-10.72-23.95-23.95-23.95h-158.72"/>
  <path class="cls-4" d="M296.69,91.49v5.63c0,3.7-3.01,6.71-6.71,6.71h-22.83c-3.7,0-6.7-3.01-6.7-6.71v-13.39c0-3.7,3-6.71,6.7-6.71h4.85"/>
  <path class="cls-4" d="M278.57,89.35v-5.63c0-3.7,3.01-6.71,6.71-6.71h22.83c3.7,0,6.7,3.01,6.7,6.71v13.39c0,3.7-3,6.71-6.7,6.71h-4.85"/>
  <rect class="cls-1" x="784.05" y="219.17" width="109.03" height="66.78" rx="33.39" ry="33.39"/>
  <g>
    <polyline class="cls-3" points="747.52 685.56 761.66 677.66 747.52 669.77"/>
    <line class="cls-2" x1="500.32" y1="677.72" x2="759.66" y2="677.72"/>
  </g>
  <rect class="cls-5" x="980.43" y="644.33" width="109.03" height="66.78" rx="33.39" ry="33.39"/>
  <g>
    <polyline class="cls-3" points="943.9 685.56 958.04 677.66 943.9 669.77"/>
    <line class="cls-2" x1="895.07" y1="677.72" x2="956.04" y2="677.72"/>
  </g>
  <rect class="cls-5" x="1176.81" y="644.33" width="109.03" height="66.78" rx="33.39" ry="33.39"/>
  <g>
    <polyline class="cls-3" points="1140.28 685.56 1154.42 677.66 1140.28 669.77"/>
    <line class="cls-2" x1="1091.45" y1="677.72" x2="1152.42" y2="677.72"/>
  </g>
  <rect class="cls-5" x="1373.2" y="644.33" width="109.03" height="66.78" rx="33.39" ry="33.39"/>
  <g>
    <polyline class="cls-3" points="1336.66 685.56 1350.8 677.66 1336.66 669.77"/>
    <line class="cls-2" x1="1287.83" y1="677.72" x2="1348.8" y2="677.72"/>
  </g>
  <g>
    <polyline class="cls-3" points="830.67 607.7 838.57 621.84 846.46 607.7"/>
    <line class="cls-2" x1="838.5" y1="287.96" x2="838.5" y2="619.84"/>
  </g>
  <g>
    <polyline class="cls-3" points="1027.05 607.7 1034.95 621.84 1042.84 607.7"/>
    <line class="cls-2" x1="1034.89" y1="287.96" x2="1034.89" y2="619.84"/>
  </g>
  <g>
    <polyline class="cls-3" points="1223.43 607.7 1231.33 621.84 1239.22 607.7"/>
    <line class="cls-2" x1="1231.27" y1="287.96" x2="1231.27" y2="619.84"/>
  </g>
  <g>
    <polyline class="cls-3" points="1419.81 607.7 1427.71 621.84 1435.6 607.7"/>
    <line class="cls-2" x1="1427.65" y1="287.96" x2="1427.65" y2="619.84"/>
  </g>
  <g>
    <polyline class="cls-3" points="943.9 260.4 958.04 252.5 943.9 244.61"/>
    <line class="cls-2" x1="895.07" y1="252.57" x2="956.04" y2="252.57"/>
  </g>
  <rect class="cls-1" x="980.43" y="219.17" width="109.03" height="66.78" rx="33.39" ry="33.39"/>
  <g>
    <polyline class="cls-3" points="1140.28 260.4 1154.42 252.5 1140.28 244.61"/>
    <line class="cls-2" x1="1091.45" y1="252.57" x2="1152.42" y2="252.57"/>
  </g>
  <rect class="cls-1" x="1176.81" y="219.17" width="109.03" height="66.78" rx="33.39" ry="33.39"/>
  <g>
    <polyline class="cls-3" points="1336.66 260.4 1350.8 252.5 1336.66 244.61"/>
    <line class="cls-2" x1="1287.83" y1="252.57" x2="1348.8" y2="252.57"/>
  </g>
  <rect class="cls-1" x="1373.2" y="219.17" width="109.03" height="66.78" rx="33.39" ry="33.39"/>
  <rect class="cls-5" x="77.78" y="592.46" width="419.7" height="170.52" rx="23.95" ry="23.95"/>
  <g>
    <path class="cls-6" d="M206.28,690.23c-2.86,0-5.39-.65-7.58-1.94-2.19-1.29-3.9-3.08-5.14-5.37-1.24-2.29-1.85-4.93-1.85-7.94s.62-5.65,1.85-7.94c1.24-2.29,2.95-4.08,5.14-5.37s4.72-1.94,7.58-1.94,5.43.65,7.62,1.94,3.9,3.08,5.12,5.37c1.22,2.29,1.83,4.94,1.83,7.94s-.61,5.65-1.83,7.94c-1.22,2.29-2.93,4.08-5.12,5.37-2.19,1.29-4.73,1.94-7.62,1.94ZM206.28,685.14c1.8,0,3.35-.41,4.65-1.24,1.31-.83,2.32-2,3.05-3.52.73-1.52,1.1-3.31,1.1-5.39s-.37-3.91-1.1-5.41-1.75-2.66-3.05-3.47c-1.3-.81-2.86-1.22-4.65-1.22s-3.31.41-4.63,1.22c-1.32.81-2.34,1.97-3.07,3.47-.73,1.5-1.1,3.31-1.1,5.41s.37,3.88,1.1,5.39c.73,1.52,1.75,2.69,3.07,3.52,1.32.83,2.86,1.24,4.63,1.24Z"/>
    <path class="cls-6" d="M225.56,689.73v-30.32h5.69v30.32h-5.69Z"/>
    <path class="cls-6" d="M246.24,690.23c-1.94,0-3.67-.48-5.2-1.43-1.53-.96-2.73-2.27-3.6-3.96-.87-1.69-1.31-3.58-1.31-5.69s.44-4.08,1.33-5.75c.88-1.67,2.11-2.99,3.66-3.96,1.56-.97,3.31-1.45,5.24-1.45,1.52,0,2.85.28,4,.84,1.15.56,2.08,1.36,2.78,2.4v-11.83h5.69v30.32h-5.05l-.63-2.91c-.42.59-.95,1.15-1.58,1.69-.63.53-1.38.96-2.25,1.26s-1.9.46-3.07.46ZM247.59,685.26c1.12,0,2.11-.26,2.97-.78.86-.52,1.52-1.24,2-2.17.48-.93.72-1.99.72-3.2s-.24-2.27-.72-3.2c-.48-.93-1.14-1.65-2-2.17s-1.85-.78-2.97-.78-2.04.26-2.91.78-1.55,1.24-2.04,2.17c-.49.93-.74,1.98-.74,3.16s.25,2.32.74,3.24c.49.93,1.16,1.65,2.02,2.17.86.52,1.83.78,2.93.78Z"/>
    <path class="cls-6" d="M282.88,689.73l-10.74-29.48h6.06l8.17,23.67,8.21-23.67h6.02l-10.74,29.48h-6.99Z"/>
    <path class="cls-6" d="M311.02,689.73v-24.89h-8.63v-4.59h22.87v4.59h-8.59v24.89h-5.64Z"/>
    <path class="cls-6" d="M327.78,689.73l9.31-14.95-9.43-14.53h6.57l6.49,10.07,5.94-10.07h6.4l-9.22,14.78,9.48,14.7h-6.57l-6.53-10.23-5.98,10.23h-6.44Z"/>
    <path class="cls-6" d="M368.97,690.23c-2.86,0-5.39-.65-7.58-1.94-2.19-1.29-3.9-3.08-5.14-5.37-1.24-2.29-1.85-4.93-1.85-7.94s.62-5.65,1.85-7.94c1.24-2.29,2.95-4.08,5.14-5.37s4.72-1.94,7.58-1.94,5.43.65,7.62,1.94,3.9,3.08,5.12,5.37c1.22,2.29,1.83,4.94,1.83,7.94s-.61,5.65-1.83,7.94c-1.22,2.29-2.93,4.08-5.12,5.37-2.19,1.29-4.73,1.94-7.62,1.94ZM368.97,685.14c1.8,0,3.35-.41,4.65-1.24,1.31-.83,2.32-2,3.05-3.52.73-1.52,1.1-3.31,1.1-5.39s-.37-3.91-1.1-5.41-1.75-2.66-3.05-3.47c-1.3-.81-2.86-1.22-4.65-1.22s-3.31.41-4.63,1.22c-1.32.81-2.34,1.97-3.07,3.47-.73,1.5-1.1,3.31-1.1,5.41s.37,3.88,1.1,5.39c.73,1.52,1.75,2.69,3.07,3.52,1.32.83,2.86,1.24,4.63,1.24Z"/>
  </g>
  <g>
    <path class="cls-6" d="M823.11,690.02v-24.44h15.61v3.39h-11.42v7.16h9.32v3.32h-9.32v10.58h-4.19Z"/>
    <path class="cls-6" d="M848.74,690.02v-19.66l-4.33,1.12v-3.25l6.01-2.65h2.62v24.44h-4.29Z"/>
  </g>
  <g>
    <path class="cls-6" d="M1015.49,690.02v-24.44h15.61v3.39h-11.42v7.16h9.32v3.32h-9.32v10.58h-4.19Z"/>
    <path class="cls-6" d="M1037.6,690.02v-3.04c1.56-1.23,3.05-2.47,4.47-3.7,1.42-1.23,2.7-2.46,3.84-3.67,1.14-1.21,2.04-2.4,2.69-3.56.65-1.16.98-2.28.98-3.35,0-.7-.13-1.35-.38-1.96-.26-.6-.66-1.09-1.21-1.47-.55-.37-1.27-.56-2.18-.56s-1.64.2-2.25.59c-.62.4-1.08.92-1.38,1.59s-.45,1.41-.45,2.25h-4.05c.05-1.77.43-3.25,1.15-4.43.72-1.19,1.7-2.08,2.93-2.67s2.62-.89,4.16-.89c1.65,0,3.06.3,4.22.91s2.06,1.46,2.69,2.55c.63,1.09.94,2.39.94,3.88,0,1.09-.2,2.17-.61,3.23s-.97,2.08-1.69,3.07c-.72.99-1.53,1.94-2.43,2.86-.9.92-1.82,1.79-2.78,2.62-.96.83-1.87,1.59-2.76,2.29h10.93v3.46h-16.83Z"/>
  </g>
  <g>
    <path class="cls-6" d="M1212.55,690.02v-24.44h15.61v3.39h-11.42v7.16h9.32v3.32h-9.32v10.58h-4.19Z"/>
    <path class="cls-6" d="M1243.18,690.44c-1.58,0-3.03-.29-4.33-.86s-2.35-1.44-3.12-2.62c-.78-1.17-1.19-2.66-1.24-4.45h4.12c.02.81.21,1.55.58,2.22.36.66.88,1.19,1.55,1.57.67.38,1.49.58,2.44.58s1.68-.17,2.32-.52c.64-.35,1.12-.83,1.45-1.43.33-.6.49-1.28.49-2.03,0-.91-.22-1.66-.66-2.25-.44-.59-1.05-1.04-1.82-1.34-.77-.3-1.64-.45-2.62-.45h-1.82v-3.46h1.82c1.28,0,2.33-.3,3.14-.89.81-.59,1.22-1.46,1.22-2.6,0-.96-.31-1.72-.93-2.31-.62-.58-1.5-.87-2.64-.87s-2.12.35-2.81,1.05c-.69.7-1.07,1.56-1.13,2.58h-4.12c.07-1.47.45-2.74,1.13-3.82.69-1.08,1.62-1.91,2.81-2.5s2.57-.87,4.16-.87,3.05.29,4.19.87,2.01,1.36,2.6,2.34c.59.98.89,2.05.89,3.21,0,.91-.17,1.73-.52,2.48-.35.75-.82,1.37-1.42,1.87-.59.5-1.29.87-2.08,1.1.91.19,1.72.55,2.43,1.08.71.54,1.27,1.22,1.68,2.04s.61,1.79.61,2.88c0,1.33-.32,2.56-.96,3.68-.64,1.13-1.58,2.03-2.83,2.71-1.25.68-2.78,1.01-4.59,1.01Z"/>
  </g>
  <g>
    <path class="cls-6" d="M1407.64,690.02v-24.44h15.61v3.39h-11.42v7.16h9.32v3.32h-9.32v10.58h-4.19Z"/>
    <path class="cls-6" d="M1441.48,690.02v-4.64h-12.12v-3.35l11.52-16.45h4.75v16.13h3.32v3.67h-3.32v4.64h-4.16ZM1433.86,681.71h7.86v-11.52l-7.86,11.52Z"/>
  </g>
</svg>