<?xml version="1.0" encoding="UTF-8"?>
<svg id="outlines" xmlns="http://www.w3.org/2000/svg" viewBox="0 0 1560 840">
  <defs>
    <style>
      .cls-1, .cls-2, .cls-3 {
        stroke-linejoin: round;
      }

      .cls-1, .cls-2, .cls-3, .cls-4 {
        fill: none;
      }

      .cls-1, .cls-3, .cls-4 {
        stroke-linecap: round;
      }

      .cls-1, .cls-4 {
        stroke: #00090c;
        stroke-width: 4px;
      }

      .cls-2 {
        stroke-width: 2.9px;
      }

      .cls-2, .cls-3 {
        stroke: #b3b3b3;
      }

      .cls-3 {
        stroke-width: 2px;
      }

      .cls-5 {
        fill: #00090c;
      }

      .cls-4 {
        stroke-miterlimit: 10;
      }
    </style>
  </defs>
  <g>
    <polyline class="cls-3" points="725.91 181.32 740.05 173.43 725.91 165.53"/>
    <line class="cls-2" x1="478.7" y1="173.49" x2="738.05" y2="173.49"/>
  </g>
  <g>
    <polyline class="cls-3" points="725.91 260.54 740.05 252.64 725.91 244.75"/>
    <line class="cls-2" x1="478.7" y1="252.7" x2="738.05" y2="252.7"/>
  </g>
  <g>
    <polyline class="cls-3" points="725.91 181.32 740.05 173.43 725.91 165.53"/>
    <line class="cls-2" x1="478.7" y1="173.49" x2="738.05" y2="173.49"/>
  </g>
  <g>
    <path class="cls-5" d="M772.47,183.32l-8.97-24.44h4.5l7.02,20.15,7.12-20.15h4.43l-9.01,24.44h-5.1Z"/>
    <path class="cls-5" d="M795.34,183.32v-21.06h-7.19v-3.39h18.54v3.39h-7.19v21.06h-4.16Z"/>
    <path class="cls-5" d="M808.89,183.32l7.61-12.36-7.68-12.08h4.82l5.55,8.76,5.13-8.76h4.75l-7.61,12.26,7.75,12.19h-4.82l-5.62-8.87-5.13,8.87h-4.75Z"/>
    <path class="cls-5" d="M842.24,183.74c-2.35,0-4.43-.53-6.23-1.59-1.8-1.06-3.22-2.54-4.24-4.44-1.02-1.9-1.54-4.1-1.54-6.62s.51-4.68,1.54-6.58c1.02-1.9,2.44-3.38,4.24-4.45,1.8-1.07,3.88-1.61,6.23-1.61s4.5.54,6.32,1.61c1.82,1.07,3.22,2.56,4.23,4.45,1,1.9,1.5,4.09,1.5,6.58s-.5,4.72-1.5,6.62c-1,1.9-2.41,3.38-4.23,4.44-1.82,1.06-3.92,1.59-6.32,1.59ZM842.27,179.97c1.56,0,2.92-.35,4.08-1.07,1.16-.71,2.06-1.73,2.69-3.05.63-1.33.94-2.91.94-4.75s-.31-3.42-.94-4.75c-.63-1.33-1.53-2.35-2.69-3.06-1.16-.71-2.53-1.06-4.08-1.06s-2.92.36-4.09,1.06c-1.16.71-2.07,1.73-2.71,3.06-.64,1.33-.96,2.91-.96,4.75s.32,3.42.96,4.75c.64,1.33,1.54,2.35,2.71,3.05,1.16.71,2.53,1.07,4.09,1.07Z"/>
    <path class="cls-5" d="M874.4,183.32c-1.19,0-2.22-.19-3.09-.56-.87-.37-1.55-.99-2.04-1.85-.49-.86-.73-2.03-.73-3.49v-8.17h-3v-3.53h3l.49-4.64h3.7v4.64h4.78v3.53h-4.78v8.17c0,.88.19,1.5.58,1.83.38.34,1.03.51,1.94.51h2.17v3.56h-3Z"/>
    <path class="cls-5" d="M881.45,183.32v-17.6h3.74l.38,3.28c.42-.77.94-1.43,1.57-1.97.63-.55,1.37-.97,2.22-1.27s1.79-.46,2.81-.46v4.44h-1.47c-.7,0-1.36.09-1.99.26-.63.17-1.17.45-1.62.84-.45.38-.81.91-1.07,1.57-.26.66-.38,1.5-.38,2.5v8.42h-4.19Z"/>
    <path class="cls-5" d="M903.18,183.74c-1.75,0-3.28-.38-4.61-1.13s-2.36-1.82-3.11-3.2-1.12-2.96-1.12-4.75.37-3.49,1.1-4.89,1.77-2.49,3.11-3.28c1.34-.79,2.89-1.19,4.66-1.19s3.22.38,4.5,1.15c1.28.77,2.27,1.8,2.97,3.09s1.05,2.74,1.05,4.35v.77c0,.28-.02.57-.07.87h-14.32v-2.69h10.16c-.05-1.28-.48-2.29-1.29-3.02-.82-.73-1.83-1.1-3.04-1.1-.86,0-1.65.2-2.38.59s-1.29.98-1.71,1.76c-.42.78-.63,1.76-.63,2.95v1.01c0,1.09.2,2.04.61,2.83s.97,1.39,1.68,1.8c.71.41,1.51.61,2.39.61.98,0,1.79-.21,2.43-.63.64-.42,1.11-.98,1.42-1.68h4.26c-.33,1.09-.86,2.08-1.61,2.95s-1.66,1.56-2.76,2.06-2.33.75-3.7.75Z"/>
    <path class="cls-5" d="M923.85,183.74c-1.75,0-3.28-.38-4.61-1.13s-2.36-1.82-3.11-3.2-1.12-2.96-1.12-4.75.37-3.49,1.1-4.89,1.77-2.49,3.11-3.28c1.34-.79,2.89-1.19,4.66-1.19s3.22.38,4.5,1.15c1.28.77,2.27,1.8,2.97,3.09s1.05,2.74,1.05,4.35v.77c0,.28-.02.57-.07.87h-14.32v-2.69h10.16c-.05-1.28-.48-2.29-1.29-3.02-.82-.73-1.83-1.1-3.04-1.1-.86,0-1.65.2-2.38.59s-1.29.98-1.71,1.76c-.42.78-.63,1.76-.63,2.95v1.01c0,1.09.2,2.04.61,2.83s.97,1.39,1.68,1.8c.71.41,1.51.61,2.39.61.98,0,1.79-.21,2.43-.63.64-.42,1.11-.98,1.42-1.68h4.26c-.33,1.09-.86,2.08-1.61,2.95s-1.66,1.56-2.76,2.06-2.33.75-3.7.75Z"/>
  </g>
  <g>
    <path class="cls-5" d="M809.63,265.08c-2.42,0-4.51-.53-6.27-1.59-1.76-1.06-3.11-2.54-4.05-4.43-.94-1.9-1.41-4.09-1.41-6.58s.47-4.72,1.41-6.62c.94-1.9,2.29-3.38,4.05-4.45,1.76-1.07,3.85-1.61,6.27-1.61,2.91,0,5.28.72,7.12,2.15,1.84,1.43,3,3.45,3.49,6.06h-4.61c-.33-1.37-.99-2.46-1.99-3.25-1-.79-2.35-1.19-4.05-1.19-1.54,0-2.86.36-3.96,1.07s-1.96,1.73-2.55,3.07-.89,2.93-.89,4.77.3,3.42.89,4.73c.59,1.32,1.44,2.33,2.55,3.04s2.43,1.07,3.96,1.07c1.7,0,3.05-.37,4.05-1.1,1-.73,1.66-1.75,1.99-3.06h4.61c-.47,2.47-1.62,4.41-3.47,5.81-1.85,1.41-4.23,2.11-7.14,2.11Z"/>
    <path class="cls-5" d="M830.76,264.66v-19.66l-4.33,1.12v-3.25l6.01-2.65h2.62v24.44h-4.29Z"/>
  </g>
  <g>
    <path class="cls-5" d="M1002.01,265.08c-2.42,0-4.51-.53-6.27-1.59-1.76-1.06-3.11-2.54-4.05-4.43-.94-1.9-1.41-4.09-1.41-6.58s.47-4.72,1.41-6.62c.94-1.9,2.29-3.38,4.05-4.45,1.76-1.07,3.85-1.61,6.27-1.61,2.91,0,5.28.72,7.12,2.15,1.84,1.43,3,3.45,3.49,6.06h-4.61c-.33-1.37-.99-2.46-1.99-3.25-1-.79-2.35-1.19-4.05-1.19-1.54,0-2.86.36-3.96,1.07s-1.96,1.73-2.55,3.07-.89,2.93-.89,4.77.3,3.42.89,4.73c.59,1.32,1.44,2.33,2.55,3.04s2.43,1.07,3.96,1.07c1.7,0,3.05-.37,4.05-1.1,1-.73,1.66-1.75,1.99-3.06h4.61c-.47,2.47-1.62,4.41-3.47,5.81-1.85,1.41-4.23,2.11-7.14,2.11Z"/>
    <path class="cls-5" d="M1019.61,264.66v-3.04c1.56-1.23,3.05-2.47,4.47-3.7,1.42-1.23,2.7-2.46,3.84-3.67,1.14-1.21,2.04-2.4,2.69-3.56.65-1.16.98-2.28.98-3.35,0-.7-.13-1.35-.38-1.96-.26-.61-.66-1.09-1.21-1.47-.55-.37-1.27-.56-2.18-.56s-1.64.2-2.25.59c-.62.4-1.08.92-1.38,1.59-.3.66-.45,1.42-.45,2.25h-4.05c.05-1.77.43-3.25,1.15-4.43.72-1.19,1.7-2.08,2.93-2.67s2.62-.89,4.16-.89c1.65,0,3.06.3,4.22.91s2.06,1.46,2.69,2.55c.63,1.1.94,2.39.94,3.88,0,1.09-.2,2.17-.61,3.23-.41,1.06-.97,2.08-1.69,3.07-.72.99-1.53,1.94-2.43,2.86-.9.92-1.82,1.79-2.78,2.62-.96.83-1.87,1.59-2.76,2.29h10.93v3.46h-16.83Z"/>
  </g>
  <g>
    <path class="cls-5" d="M1198.07,265.08c-2.42,0-4.51-.53-6.27-1.59-1.76-1.06-3.11-2.54-4.05-4.43-.94-1.9-1.41-4.09-1.41-6.58s.47-4.72,1.41-6.62c.94-1.9,2.29-3.38,4.05-4.45,1.76-1.07,3.85-1.61,6.27-1.61,2.91,0,5.28.72,7.12,2.15,1.84,1.43,3,3.45,3.49,6.06h-4.61c-.33-1.37-.99-2.46-1.99-3.25-1-.79-2.35-1.19-4.05-1.19-1.54,0-2.86.36-3.96,1.07s-1.96,1.73-2.55,3.07-.89,2.93-.89,4.77.3,3.42.89,4.73c.59,1.32,1.44,2.33,2.55,3.04s2.43,1.07,3.96,1.07c1.7,0,3.05-.37,4.05-1.1,1-.73,1.66-1.75,1.99-3.06h4.61c-.47,2.47-1.62,4.41-3.47,5.81-1.85,1.41-4.23,2.11-7.14,2.11Z"/>
    <path class="cls-5" d="M1224.19,265.08c-1.58,0-3.03-.29-4.33-.86s-2.35-1.44-3.12-2.62c-.78-1.18-1.19-2.66-1.24-4.45h4.12c.02.82.21,1.55.58,2.22.36.66.88,1.19,1.55,1.57.67.38,1.49.58,2.44.58s1.68-.17,2.32-.52c.64-.35,1.12-.83,1.45-1.43s.49-1.28.49-2.03c0-.91-.22-1.66-.66-2.25-.44-.59-1.05-1.04-1.82-1.35-.77-.3-1.64-.45-2.62-.45h-1.82v-3.46h1.82c1.28,0,2.33-.3,3.14-.89.81-.59,1.22-1.46,1.22-2.6,0-.96-.31-1.72-.93-2.3-.62-.58-1.5-.87-2.64-.87s-2.12.35-2.81,1.05c-.69.7-1.07,1.56-1.13,2.58h-4.12c.07-1.47.45-2.74,1.13-3.82s1.62-1.92,2.81-2.5,2.57-.87,4.16-.87,3.05.29,4.19.87,2.01,1.36,2.6,2.34c.59.98.89,2.05.89,3.21,0,.91-.17,1.73-.52,2.48-.35.75-.82,1.37-1.42,1.87-.59.5-1.29.87-2.08,1.1.91.19,1.72.55,2.43,1.08s1.27,1.22,1.68,2.04c.41.83.61,1.79.61,2.88,0,1.33-.32,2.56-.96,3.68-.64,1.13-1.58,2.03-2.83,2.71-1.25.68-2.78,1.01-4.59,1.01Z"/>
  </g>
  <g>
    <path class="cls-5" d="M1402.08,265.08c-2.42,0-4.51-.53-6.27-1.59-1.76-1.06-3.11-2.54-4.05-4.43s-1.41-4.09-1.41-6.58.47-4.72,1.41-6.62c.94-1.9,2.29-3.38,4.05-4.45,1.76-1.07,3.85-1.61,6.27-1.61,2.91,0,5.29.72,7.12,2.15,1.84,1.43,3,3.45,3.49,6.06h-4.61c-.33-1.37-.99-2.46-1.99-3.25-1-.79-2.35-1.19-4.05-1.19-1.54,0-2.86.36-3.96,1.07s-1.96,1.73-2.55,3.07-.89,2.93-.89,4.77.3,3.42.89,4.73c.59,1.32,1.44,2.33,2.55,3.04s2.43,1.07,3.96,1.07c1.7,0,3.05-.37,4.05-1.1,1-.73,1.66-1.75,1.99-3.06h4.61c-.46,2.47-1.62,4.41-3.47,5.81-1.85,1.41-4.23,2.11-7.14,2.11Z"/>
    <path class="cls-5" d="M1423.21,264.66v-19.66l-4.33,1.12v-3.25l6.01-2.65h2.62v24.44h-4.29Z"/>
  </g>
  <path class="cls-1" d="M238.83,90.56H80.11c-13.22,0-23.95,10.72-23.95,23.95v197.07c0,13.22,10.72,23.95,23.95,23.95h371.81c13.22,0,23.95-10.72,23.95-23.95V114.5c0-13.22-10.72-23.95-23.95-23.95h-158.72"/>
  <g>
    <path class="cls-5" d="M203.67,223.31v-29.48h10.99c2.39,0,4.35.41,5.9,1.22,1.54.81,2.7,1.9,3.45,3.26.76,1.36,1.14,2.87,1.14,4.53s-.37,3.04-1.1,4.4c-.73,1.36-1.87,2.46-3.43,3.29-1.56.83-3.56,1.24-6,1.24h-5.26v11.54h-5.69ZM209.35,207.64h4.97c1.71,0,2.98-.42,3.79-1.26.81-.84,1.22-1.95,1.22-3.33s-.4-2.46-1.2-3.26-2.07-1.2-3.81-1.2h-4.97v9.06ZM218.95,223.31l-6.06-12.97h6.15l6.4,12.97h-6.49Z"/>
    <path class="cls-5" d="M238.88,223.82c-2.02,0-3.84-.47-5.45-1.41-1.62-.94-2.89-2.25-3.83-3.92-.94-1.67-1.41-3.59-1.41-5.75s.47-4.16,1.41-5.83c.94-1.67,2.22-2.98,3.85-3.92,1.63-.94,3.45-1.41,5.48-1.41s3.88.47,5.5,1.41c1.61.94,2.89,2.25,3.83,3.92.94,1.67,1.41,3.6,1.41,5.79s-.47,4.12-1.41,5.79c-.94,1.67-2.23,2.98-3.85,3.92-1.63.94-3.47,1.41-5.52,1.41ZM238.88,218.89c.95,0,1.8-.22,2.55-.67.74-.45,1.33-1.14,1.77-2.06s.65-2.08.65-3.45-.22-2.52-.65-3.43-1.03-1.6-1.77-2.06c-.74-.46-1.58-.7-2.51-.7s-1.73.23-2.49.7c-.76.46-1.35,1.15-1.79,2.06s-.65,2.06-.65,3.43.22,2.53.65,3.45,1.03,1.61,1.77,2.06c.74.45,1.56.67,2.46.67Z"/>
    <path class="cls-5" d="M262.46,223.82c-1.71,0-3.18-.36-4.4-1.07-1.22-.72-2.16-1.77-2.8-3.16-.65-1.39-.97-3.11-.97-5.16v-12.34h5.69v11.75c0,1.71.36,3,1.07,3.87.72.87,1.82,1.31,3.31,1.31.95,0,1.8-.22,2.53-.65.73-.43,1.31-1.07,1.75-1.9.43-.83.65-1.85.65-3.05v-11.33h5.64v21.23h-4.97l-.46-3.45c-.62,1.21-1.53,2.17-2.74,2.88-1.21.72-2.64,1.07-4.3,1.07Z"/>
    <path class="cls-5" d="M280.49,223.31v-21.23h5.01l.42,3.45c.65-1.18,1.56-2.13,2.76-2.86,1.19-.73,2.62-1.09,4.27-1.09,1.77,0,3.26.37,4.46,1.09,1.21.73,2.13,1.8,2.76,3.2.63,1.4.95,3.13.95,5.18v12.26h-5.64v-11.71c0-1.68-.36-2.98-1.07-3.87s-1.82-1.35-3.31-1.35c-.95,0-1.8.22-2.55.67s-1.33,1.09-1.75,1.92c-.42.83-.63,1.83-.63,3.01v11.33h-5.69Z"/>
    <path class="cls-5" d="M315.91,223.82c-1.94,0-3.67-.48-5.2-1.43-1.53-.96-2.73-2.27-3.6-3.96-.87-1.69-1.31-3.58-1.31-5.69s.44-4.08,1.33-5.75c.88-1.67,2.11-2.99,3.66-3.96,1.56-.97,3.31-1.45,5.24-1.45,1.52,0,2.85.28,4,.84,1.15.56,2.08,1.36,2.78,2.4v-11.83h5.69v30.32h-5.05l-.63-2.91c-.42.59-.95,1.15-1.58,1.69-.63.53-1.38.96-2.25,1.26s-1.9.46-3.07.46ZM317.25,218.85c1.12,0,2.11-.26,2.97-.78.86-.52,1.52-1.24,2-2.17.48-.93.72-1.99.72-3.2s-.24-2.27-.72-3.2c-.48-.93-1.14-1.65-2-2.17s-1.85-.78-2.97-.78-2.04.26-2.91.78-1.55,1.24-2.04,2.17c-.49.93-.74,1.98-.74,3.16s.25,2.32.74,3.24c.49.93,1.16,1.65,2.02,2.17.86.52,1.83.78,2.93.78Z"/>
  </g>
  <path class="cls-4" d="M275.08,91.62v5.63c0,3.7-3.01,6.71-6.71,6.71h-22.83c-3.7,0-6.7-3.01-6.7-6.71v-13.39c0-3.7,3-6.71,6.7-6.71h4.85"/>
  <path class="cls-4" d="M256.96,89.49v-5.63c0-3.7,3.01-6.71,6.71-6.71h22.83c3.7,0,6.7,3.01,6.7,6.71v13.39c0,3.7-3,6.71-6.7,6.71h-4.85"/>
  <rect class="cls-1" x="762.44" y="219.31" width="109.03" height="66.78" rx="33.39" ry="33.39"/>
  <g>
    <polyline class="cls-3" points="922.29 260.54 936.43 252.64 922.29 244.75"/>
    <line class="cls-2" x1="873.46" y1="252.7" x2="934.43" y2="252.7"/>
  </g>
  <rect class="cls-1" x="958.82" y="219.31" width="109.03" height="66.78" rx="33.39" ry="33.39"/>
  <g>
    <polyline class="cls-3" points="1118.67 260.54 1132.81 252.64 1118.67 244.75"/>
    <line class="cls-2" x1="1069.84" y1="252.7" x2="1130.81" y2="252.7"/>
  </g>
  <rect class="cls-1" x="1155.2" y="219.31" width="109.03" height="66.78" rx="33.39" ry="33.39"/>
  <g>
    <polyline class="cls-3" points="1315.05 260.54 1329.19 252.64 1315.05 244.75"/>
    <line class="cls-2" x1="1266.22" y1="252.7" x2="1327.19" y2="252.7"/>
  </g>
  <g>
    <polyline class="cls-3" points="1398.2 336.71 1406.1 350.85 1413.99 336.71"/>
    <line class="cls-2" x1="1406.04" y1="287.88" x2="1406.04" y2="348.85"/>
  </g>
  <g>
    <polyline class="cls-3" points="1201.82 436.71 1209.72 450.85 1217.61 436.71"/>
    <line class="cls-2" x1="1209.65" y1="288.07" x2="1209.65" y2="448.85"/>
  </g>
  <g>
    <polyline class="cls-3" points="1005.44 536.71 1013.33 550.85 1021.23 536.71"/>
    <line class="cls-2" x1="1013.27" y1="288.07" x2="1013.27" y2="548.85"/>
  </g>
  <g>
    <polyline class="cls-3" points="809.06 636.71 816.95 650.85 824.85 636.71"/>
    <line class="cls-2" x1="816.89" y1="288.18" x2="816.89" y2="648.85"/>
  </g>
  <rect class="cls-1" x="1351.58" y="219.31" width="109.03" height="66.78" rx="33.39" ry="33.39"/>
  <g>
    <path class="cls-5" d="M727.34,687.54c-2.42,0-4.51-.53-6.27-1.59-1.76-1.06-3.11-2.54-4.05-4.44-.94-1.9-1.41-4.09-1.41-6.58s.47-4.72,1.41-6.62c.94-1.9,2.29-3.38,4.05-4.45,1.76-1.07,3.85-1.61,6.27-1.61,2.91,0,5.28.72,7.12,2.15,1.84,1.43,3,3.45,3.49,6.06h-4.61c-.33-1.37-.99-2.46-1.99-3.25s-2.35-1.19-4.05-1.19c-1.54,0-2.86.36-3.96,1.06-1.11.71-1.96,1.73-2.55,3.07s-.89,2.93-.89,4.77.3,3.42.89,4.73c.59,1.31,1.44,2.33,2.55,3.04,1.11.71,2.43,1.07,3.96,1.07,1.7,0,3.05-.37,4.05-1.1s1.66-1.75,1.99-3.06h4.61c-.47,2.47-1.62,4.41-3.47,5.81-1.85,1.41-4.23,2.11-7.14,2.11Z"/>
    <path class="cls-5" d="M750.1,687.54c-1.68,0-3.18-.39-4.52-1.17-1.34-.78-2.39-1.86-3.14-3.25-.76-1.38-1.13-2.97-1.13-4.77s.38-3.45,1.15-4.84,1.82-2.47,3.16-3.25c1.34-.78,2.85-1.17,4.52-1.17s3.18.39,4.52,1.17c1.34.78,2.39,1.86,3.14,3.23.76,1.37,1.13,2.98,1.13,4.82s-.38,3.45-1.15,4.82c-.77,1.37-1.82,2.45-3.16,3.23-1.34.78-2.85,1.17-4.52,1.17ZM750.1,683.95c.84,0,1.6-.21,2.29-.63.69-.42,1.24-1.05,1.66-1.88.42-.84.63-1.88.63-3.11s-.2-2.26-.61-3.09c-.41-.83-.96-1.45-1.64-1.87s-1.45-.63-2.29-.63-1.57.21-2.27.63c-.7.42-1.26,1.04-1.68,1.87s-.63,1.86-.63,3.09.21,2.27.63,3.11c.42.84.97,1.47,1.66,1.88.69.42,1.44.63,2.25.63Z"/>
    <path class="cls-5" d="M763.03,687.13v-17.6h3.7l.31,2.93c.54-1.03,1.3-1.84,2.3-2.45s2.19-.91,3.56-.91,2.63.3,3.63.89,1.78,1.46,2.32,2.6.82,2.56.82,4.26v10.27h-4.19v-9.88c0-1.47-.33-2.6-.98-3.39-.65-.79-1.62-1.19-2.9-1.19-.84,0-1.59.2-2.25.59s-1.19.97-1.57,1.73c-.38.76-.58,1.67-.58,2.74v9.39h-4.19Z"/>
    <path class="cls-5" d="M784.12,687.13v-17.6h3.7l.31,2.93c.54-1.03,1.3-1.84,2.3-2.45s2.19-.91,3.56-.91,2.63.3,3.63.89,1.78,1.46,2.32,2.6.82,2.56.82,4.26v10.27h-4.19v-9.88c0-1.47-.33-2.6-.98-3.39-.65-.79-1.62-1.19-2.9-1.19-.84,0-1.59.2-2.25.59s-1.19.97-1.57,1.73c-.38.76-.58,1.67-.58,2.74v9.39h-4.19Z"/>
    <path class="cls-5" d="M813.45,687.54c-1.75,0-3.28-.38-4.61-1.13s-2.36-1.82-3.11-3.2-1.12-2.96-1.12-4.75.37-3.49,1.1-4.89,1.77-2.49,3.11-3.28c1.34-.79,2.89-1.19,4.66-1.19s3.22.38,4.5,1.15c1.28.77,2.27,1.8,2.97,3.09s1.05,2.74,1.05,4.35v.77c0,.28-.02.57-.07.87h-14.32v-2.69h10.16c-.05-1.28-.48-2.29-1.29-3.02-.82-.73-1.83-1.1-3.04-1.1-.86,0-1.65.2-2.38.59s-1.29.98-1.71,1.76c-.42.78-.63,1.76-.63,2.95v1.01c0,1.09.2,2.04.61,2.83s.97,1.39,1.68,1.8c.71.41,1.51.61,2.39.61.98,0,1.79-.21,2.43-.63.64-.42,1.11-.98,1.42-1.68h4.26c-.33,1.09-.86,2.08-1.61,2.95s-1.66,1.56-2.76,2.06-2.33.75-3.7.75Z"/>
    <path class="cls-5" d="M834.23,687.54c-1.72,0-3.26-.39-4.63-1.17-1.36-.78-2.42-1.86-3.18-3.25-.76-1.38-1.13-2.96-1.13-4.73s.38-3.45,1.13-4.84c.76-1.38,1.82-2.47,3.18-3.27,1.36-.79,2.92-1.19,4.66-1.19,2.19,0,4.03.58,5.52,1.73,1.49,1.15,2.44,2.73,2.86,4.73h-4.4c-.23-.88-.72-1.58-1.45-2.1-.73-.51-1.6-.77-2.6-.77-.86,0-1.65.22-2.36.66-.71.44-1.27,1.08-1.68,1.92s-.61,1.85-.61,3.04c0,.91.12,1.71.35,2.41.23.7.56,1.29,1,1.76.43.48.93.84,1.48,1.1.56.26,1.16.38,1.82.38s1.29-.11,1.83-.33c.55-.22,1.01-.55,1.4-1s.66-.97.82-1.57h4.4c-.42,1.96-1.37,3.52-2.86,4.7-1.49,1.18-3.34,1.76-5.55,1.76Z"/>
    <path class="cls-5" d="M854.06,687.13c-1.19,0-2.22-.19-3.09-.56-.87-.37-1.55-.99-2.04-1.85-.49-.86-.73-2.03-.73-3.49v-8.17h-3v-3.53h3l.49-4.64h3.7v4.64h4.78v3.53h-4.78v8.17c0,.88.19,1.5.58,1.83.38.34,1.03.51,1.94.51h2.17v3.56h-3Z"/>
    <path class="cls-5" d="M868.87,687.54c-1.68,0-3.18-.39-4.52-1.17-1.34-.78-2.39-1.86-3.14-3.25-.76-1.38-1.13-2.97-1.13-4.77s.38-3.45,1.15-4.84,1.82-2.47,3.16-3.25c1.34-.78,2.85-1.17,4.52-1.17s3.18.39,4.52,1.17c1.34.78,2.39,1.86,3.14,3.23.76,1.37,1.13,2.98,1.13,4.82s-.38,3.45-1.15,4.82c-.77,1.37-1.82,2.45-3.16,3.23-1.34.78-2.85,1.17-4.52,1.17ZM868.87,683.95c.84,0,1.6-.21,2.29-.63.69-.42,1.24-1.05,1.66-1.88.42-.84.63-1.88.63-3.11s-.2-2.26-.61-3.09c-.41-.83-.96-1.45-1.64-1.87s-1.45-.63-2.29-.63-1.57.21-2.27.63c-.7.42-1.26,1.04-1.68,1.87s-.63,1.86-.63,3.09.21,2.27.63,3.11c.42.84.97,1.47,1.66,1.88.69.42,1.44.63,2.25.63Z"/>
    <path class="cls-5" d="M881.79,687.13v-17.6h3.74l.38,3.28c.42-.77.94-1.43,1.57-1.97.63-.55,1.37-.97,2.22-1.27s1.79-.46,2.81-.46v4.44h-1.47c-.7,0-1.36.09-1.99.26-.63.17-1.17.45-1.62.84-.45.38-.81.91-1.07,1.57-.26.66-.38,1.5-.38,2.5v8.42h-4.19Z"/>
    <path class="cls-5" d="M915.45,687.13v-4.64h-12.12v-3.35l11.52-16.45h4.75v16.13h3.32v3.67h-3.32v4.64h-4.16ZM907.84,678.82h7.86v-11.52l-7.86,11.52Z"/>
  </g>
  <g>
    <path class="cls-5" d="M923.72,587.12c-2.42,0-4.51-.53-6.27-1.59-1.76-1.06-3.11-2.54-4.05-4.44-.94-1.9-1.41-4.09-1.41-6.58s.47-4.72,1.41-6.62c.94-1.9,2.29-3.38,4.05-4.45,1.76-1.07,3.85-1.61,6.27-1.61,2.91,0,5.28.72,7.12,2.15,1.84,1.43,3,3.45,3.49,6.06h-4.61c-.33-1.37-.99-2.46-1.99-3.25s-2.35-1.19-4.05-1.19c-1.54,0-2.86.36-3.96,1.06-1.11.71-1.96,1.73-2.55,3.07s-.89,2.93-.89,4.77.3,3.42.89,4.73c.59,1.31,1.44,2.33,2.55,3.04,1.11.71,2.43,1.07,3.96,1.07,1.7,0,3.05-.37,4.05-1.1s1.66-1.75,1.99-3.06h4.61c-.47,2.47-1.62,4.41-3.47,5.81-1.85,1.41-4.23,2.11-7.14,2.11Z"/>
    <path class="cls-5" d="M946.49,587.12c-1.68,0-3.18-.39-4.52-1.17-1.34-.78-2.39-1.86-3.14-3.25-.76-1.38-1.13-2.97-1.13-4.77s.38-3.45,1.15-4.84,1.82-2.47,3.16-3.25c1.34-.78,2.85-1.17,4.52-1.17s3.18.39,4.52,1.17c1.34.78,2.39,1.86,3.14,3.23.76,1.37,1.13,2.98,1.13,4.82s-.38,3.45-1.15,4.82c-.77,1.37-1.82,2.45-3.16,3.23-1.34.78-2.85,1.17-4.52,1.17ZM946.49,583.52c.84,0,1.6-.21,2.29-.63.69-.42,1.24-1.05,1.66-1.88.42-.84.63-1.88.63-3.11s-.2-2.26-.61-3.09c-.41-.83-.96-1.45-1.64-1.87s-1.45-.63-2.29-.63-1.57.21-2.27.63c-.7.42-1.26,1.04-1.68,1.87s-.63,1.86-.63,3.09.21,2.27.63,3.11c.42.84.97,1.47,1.66,1.88.69.42,1.44.63,2.25.63Z"/>
    <path class="cls-5" d="M959.41,586.7v-17.6h3.7l.31,2.93c.54-1.03,1.3-1.84,2.3-2.45s2.19-.91,3.56-.91,2.63.3,3.63.89,1.78,1.46,2.32,2.6.82,2.56.82,4.26v10.27h-4.19v-9.88c0-1.47-.33-2.6-.98-3.39-.65-.79-1.62-1.19-2.9-1.19-.84,0-1.59.2-2.25.59s-1.19.97-1.57,1.73c-.38.76-.58,1.67-.58,2.74v9.39h-4.19Z"/>
    <path class="cls-5" d="M980.5,586.7v-17.6h3.7l.31,2.93c.54-1.03,1.3-1.84,2.3-2.45s2.19-.91,3.56-.91,2.63.3,3.63.89,1.78,1.46,2.32,2.6.82,2.56.82,4.26v10.27h-4.19v-9.88c0-1.47-.33-2.6-.98-3.39-.65-.79-1.62-1.19-2.9-1.19-.84,0-1.59.2-2.25.59s-1.19.97-1.57,1.73c-.38.76-.58,1.67-.58,2.74v9.39h-4.19Z"/>
    <path class="cls-5" d="M1009.83,587.12c-1.75,0-3.28-.38-4.61-1.13s-2.36-1.82-3.11-3.2-1.12-2.96-1.12-4.75.37-3.49,1.1-4.89,1.77-2.49,3.11-3.28c1.34-.79,2.89-1.19,4.66-1.19s3.22.38,4.5,1.15c1.28.77,2.27,1.8,2.97,3.09s1.05,2.74,1.05,4.35v.77c0,.28-.02.57-.07.87h-14.32v-2.69h10.16c-.05-1.28-.48-2.29-1.29-3.02-.82-.73-1.83-1.1-3.04-1.1-.86,0-1.65.2-2.38.59s-1.29.98-1.71,1.76c-.42.78-.63,1.76-.63,2.95v1.01c0,1.09.2,2.04.61,2.83s.97,1.39,1.68,1.8c.71.41,1.51.61,2.39.61.98,0,1.79-.21,2.43-.63.64-.42,1.11-.98,1.42-1.68h4.26c-.33,1.09-.86,2.08-1.61,2.95s-1.66,1.56-2.76,2.06-2.33.75-3.7.75Z"/>
    <path class="cls-5" d="M1030.61,587.12c-1.72,0-3.26-.39-4.63-1.17-1.36-.78-2.42-1.86-3.18-3.25-.76-1.38-1.13-2.96-1.13-4.73s.38-3.45,1.13-4.84c.76-1.38,1.82-2.47,3.18-3.27,1.36-.79,2.92-1.19,4.66-1.19,2.19,0,4.03.58,5.52,1.73,1.49,1.15,2.44,2.73,2.86,4.73h-4.4c-.23-.88-.72-1.58-1.45-2.1-.73-.51-1.6-.77-2.6-.77-.86,0-1.65.22-2.36.66-.71.44-1.27,1.08-1.68,1.92s-.61,1.85-.61,3.04c0,.91.12,1.71.35,2.41.23.7.56,1.29,1,1.76.43.48.93.84,1.48,1.1.56.26,1.16.38,1.82.38s1.29-.11,1.83-.33c.55-.22,1.01-.55,1.4-1s.66-.97.82-1.57h4.4c-.42,1.96-1.37,3.52-2.86,4.7-1.49,1.18-3.34,1.76-5.55,1.76Z"/>
    <path class="cls-5" d="M1050.44,586.7c-1.19,0-2.22-.19-3.09-.56-.87-.37-1.55-.99-2.04-1.85-.49-.86-.73-2.03-.73-3.49v-8.17h-3v-3.53h3l.49-4.64h3.7v4.64h4.78v3.53h-4.78v8.17c0,.88.19,1.5.58,1.83.38.34,1.03.51,1.94.51h2.17v3.56h-3Z"/>
    <path class="cls-5" d="M1065.25,587.12c-1.68,0-3.18-.39-4.52-1.17-1.34-.78-2.39-1.86-3.14-3.25-.76-1.38-1.13-2.97-1.13-4.77s.38-3.45,1.15-4.84,1.82-2.47,3.16-3.25c1.34-.78,2.85-1.17,4.52-1.17s3.18.39,4.52,1.17c1.34.78,2.39,1.86,3.14,3.23.76,1.37,1.13,2.98,1.13,4.82s-.38,3.45-1.15,4.82c-.77,1.37-1.82,2.45-3.16,3.23-1.34.78-2.85,1.17-4.52,1.17ZM1065.25,583.52c.84,0,1.6-.21,2.29-.63.69-.42,1.24-1.05,1.66-1.88.42-.84.63-1.88.63-3.11s-.2-2.26-.61-3.09c-.41-.83-.96-1.45-1.64-1.87s-1.45-.63-2.29-.63-1.57.21-2.27.63c-.7.42-1.26,1.04-1.68,1.87s-.63,1.86-.63,3.09.21,2.27.63,3.11c.42.84.97,1.47,1.66,1.88.69.42,1.44.63,2.25.63Z"/>
    <path class="cls-5" d="M1078.17,586.7v-17.6h3.74l.38,3.28c.42-.77.94-1.43,1.57-1.97.63-.55,1.37-.97,2.22-1.27s1.79-.46,2.81-.46v4.44h-1.47c-.7,0-1.36.09-1.99.26-.63.17-1.17.45-1.62.84-.45.38-.81.91-1.07,1.57-.26.66-.38,1.5-.38,2.5v8.42h-4.19Z"/>
    <path class="cls-5" d="M1108.62,587.12c-1.58,0-3.03-.29-4.33-.86s-2.35-1.44-3.12-2.62c-.78-1.17-1.19-2.66-1.24-4.45h4.12c.02.81.21,1.55.58,2.22.36.66.88,1.19,1.55,1.57.67.38,1.49.58,2.44.58s1.68-.17,2.32-.52c.64-.35,1.12-.83,1.45-1.43.33-.6.49-1.28.49-2.03,0-.91-.22-1.66-.66-2.25-.44-.59-1.05-1.04-1.82-1.34-.77-.3-1.64-.45-2.62-.45h-1.82v-3.46h1.82c1.28,0,2.33-.3,3.14-.89.81-.59,1.22-1.46,1.22-2.6,0-.96-.31-1.72-.93-2.31-.62-.58-1.5-.87-2.64-.87s-2.12.35-2.81,1.05c-.69.7-1.07,1.56-1.13,2.58h-4.12c.07-1.47.45-2.74,1.13-3.82.69-1.08,1.62-1.91,2.81-2.5s2.57-.87,4.16-.87,3.05.29,4.19.87,2.01,1.36,2.6,2.34c.59.98.89,2.05.89,3.21,0,.91-.17,1.73-.52,2.48-.35.75-.82,1.37-1.42,1.87-.59.5-1.29.87-2.08,1.1.91.19,1.72.55,2.43,1.08.71.54,1.27,1.22,1.68,2.04s.61,1.79.61,2.88c0,1.33-.32,2.56-.96,3.68-.64,1.13-1.58,2.03-2.83,2.71-1.25.68-2.78,1.01-4.59,1.01Z"/>
  </g>
  <g>
    <path class="cls-5" d="M1121.1,487.12c-2.42,0-4.51-.53-6.27-1.59-1.76-1.06-3.11-2.54-4.05-4.44-.94-1.9-1.41-4.09-1.41-6.58s.47-4.72,1.41-6.62c.94-1.9,2.29-3.38,4.05-4.45,1.76-1.07,3.85-1.61,6.27-1.61,2.91,0,5.28.72,7.12,2.15,1.84,1.43,3,3.45,3.49,6.06h-4.61c-.33-1.37-.99-2.46-1.99-3.25s-2.35-1.19-4.05-1.19c-1.54,0-2.86.36-3.96,1.06-1.11.71-1.96,1.73-2.55,3.07s-.89,2.93-.89,4.77.3,3.42.89,4.73c.59,1.31,1.44,2.33,2.55,3.04,1.11.71,2.43,1.07,3.96,1.07,1.7,0,3.05-.37,4.05-1.1s1.66-1.75,1.99-3.06h4.61c-.47,2.47-1.62,4.41-3.47,5.81-1.85,1.41-4.23,2.11-7.14,2.11Z"/>
    <path class="cls-5" d="M1143.87,487.12c-1.68,0-3.18-.39-4.52-1.17-1.34-.78-2.39-1.86-3.14-3.25-.76-1.38-1.13-2.97-1.13-4.77s.38-3.45,1.15-4.84,1.82-2.47,3.16-3.25c1.34-.78,2.85-1.17,4.52-1.17s3.18.39,4.52,1.17c1.34.78,2.39,1.86,3.14,3.23.76,1.37,1.13,2.98,1.13,4.82s-.38,3.45-1.15,4.82c-.77,1.37-1.82,2.45-3.16,3.23-1.34.78-2.85,1.17-4.52,1.17ZM1143.87,483.52c.84,0,1.6-.21,2.29-.63.69-.42,1.24-1.05,1.66-1.88.42-.84.63-1.88.63-3.11s-.2-2.26-.61-3.09c-.41-.83-.96-1.45-1.64-1.87s-1.45-.63-2.29-.63-1.57.21-2.27.63c-.7.42-1.26,1.04-1.68,1.87s-.63,1.86-.63,3.09.21,2.27.63,3.11c.42.84.97,1.47,1.66,1.88.69.42,1.44.63,2.25.63Z"/>
    <path class="cls-5" d="M1156.79,486.7v-17.6h3.7l.31,2.93c.54-1.03,1.3-1.84,2.3-2.45s2.19-.91,3.56-.91,2.63.3,3.63.89,1.78,1.46,2.32,2.6.82,2.56.82,4.26v10.27h-4.19v-9.88c0-1.47-.33-2.6-.98-3.39-.65-.79-1.62-1.19-2.9-1.19-.84,0-1.59.2-2.25.59s-1.19.97-1.57,1.73c-.38.76-.58,1.67-.58,2.74v9.39h-4.19Z"/>
    <path class="cls-5" d="M1177.88,486.7v-17.6h3.7l.31,2.93c.54-1.03,1.3-1.84,2.3-2.45s2.19-.91,3.56-.91,2.63.3,3.63.89,1.78,1.46,2.32,2.6.82,2.56.82,4.26v10.27h-4.19v-9.88c0-1.47-.33-2.6-.98-3.39-.65-.79-1.62-1.19-2.9-1.19-.84,0-1.59.2-2.25.59s-1.19.97-1.57,1.73c-.38.76-.58,1.67-.58,2.74v9.39h-4.19Z"/>
    <path class="cls-5" d="M1207.21,487.12c-1.75,0-3.28-.38-4.61-1.13s-2.36-1.82-3.11-3.2-1.12-2.96-1.12-4.75.37-3.49,1.1-4.89,1.77-2.49,3.11-3.28c1.34-.79,2.89-1.19,4.66-1.19s3.22.38,4.5,1.15c1.28.77,2.27,1.8,2.97,3.09s1.05,2.74,1.05,4.35v.77c0,.28-.02.57-.07.87h-14.32v-2.69h10.16c-.05-1.28-.48-2.29-1.29-3.02-.82-.73-1.83-1.1-3.04-1.1-.86,0-1.65.2-2.38.59s-1.29.98-1.71,1.76c-.42.78-.63,1.76-.63,2.95v1.01c0,1.09.2,2.04.61,2.83s.97,1.39,1.68,1.8c.71.41,1.51.61,2.39.61.98,0,1.79-.21,2.43-.63.64-.42,1.11-.98,1.42-1.68h4.26c-.33,1.09-.86,2.08-1.61,2.95s-1.66,1.56-2.76,2.06-2.33.75-3.7.75Z"/>
    <path class="cls-5" d="M1227.99,487.12c-1.72,0-3.26-.39-4.63-1.17-1.36-.78-2.42-1.86-3.18-3.25-.76-1.38-1.13-2.96-1.13-4.73s.38-3.45,1.13-4.84c.76-1.38,1.82-2.47,3.18-3.27,1.36-.79,2.92-1.19,4.66-1.19,2.19,0,4.03.58,5.52,1.73,1.49,1.15,2.44,2.73,2.86,4.73h-4.4c-.23-.88-.72-1.58-1.45-2.1-.73-.51-1.6-.77-2.6-.77-.86,0-1.65.22-2.36.66-.71.44-1.27,1.08-1.68,1.92s-.61,1.85-.61,3.04c0,.91.12,1.71.35,2.41.23.7.56,1.29,1,1.76.43.48.93.84,1.48,1.1.56.26,1.16.38,1.82.38s1.29-.11,1.83-.33c.55-.22,1.01-.55,1.4-1s.66-.97.82-1.57h4.4c-.42,1.96-1.37,3.52-2.86,4.7-1.49,1.18-3.34,1.76-5.55,1.76Z"/>
    <path class="cls-5" d="M1247.82,486.7c-1.19,0-2.22-.19-3.09-.56-.87-.37-1.55-.99-2.04-1.85-.49-.86-.73-2.03-.73-3.49v-8.17h-3v-3.53h3l.49-4.64h3.7v4.64h4.78v3.53h-4.78v8.17c0,.88.19,1.5.58,1.83.38.34,1.03.51,1.94.51h2.17v3.56h-3Z"/>
    <path class="cls-5" d="M1262.63,487.12c-1.68,0-3.18-.39-4.52-1.17-1.34-.78-2.39-1.86-3.14-3.25-.76-1.38-1.13-2.97-1.13-4.77s.38-3.45,1.15-4.84,1.82-2.47,3.16-3.25c1.34-.78,2.85-1.17,4.52-1.17s3.18.39,4.52,1.17c1.34.78,2.39,1.86,3.14,3.23.76,1.37,1.13,2.98,1.13,4.82s-.38,3.45-1.15,4.82c-.77,1.37-1.82,2.45-3.16,3.23-1.34.78-2.85,1.17-4.52,1.17ZM1262.63,483.52c.84,0,1.6-.21,2.29-.63.69-.42,1.24-1.05,1.66-1.88.42-.84.63-1.88.63-3.11s-.2-2.26-.61-3.09c-.41-.83-.96-1.45-1.64-1.87s-1.45-.63-2.29-.63-1.57.21-2.27.63c-.7.42-1.26,1.04-1.68,1.87s-.63,1.86-.63,3.09.21,2.27.63,3.11c.42.84.97,1.47,1.66,1.88.69.42,1.44.63,2.25.63Z"/>
    <path class="cls-5" d="M1275.55,486.7v-17.6h3.74l.38,3.28c.42-.77.94-1.43,1.57-1.97.63-.55,1.37-.97,2.22-1.27s1.79-.46,2.81-.46v4.44h-1.47c-.7,0-1.36.09-1.99.26-.63.17-1.17.45-1.62.84-.45.38-.81.91-1.07,1.57-.26.66-.38,1.5-.38,2.5v8.42h-4.19Z"/>
    <path class="cls-5" d="M1297.48,486.7v-3.04c1.56-1.23,3.05-2.47,4.47-3.7,1.42-1.23,2.7-2.46,3.84-3.67,1.14-1.21,2.04-2.4,2.69-3.56.65-1.16.98-2.28.98-3.35,0-.7-.13-1.35-.38-1.96-.26-.6-.66-1.09-1.21-1.47-.55-.37-1.27-.56-2.18-.56s-1.64.2-2.25.59c-.62.4-1.08.92-1.38,1.59s-.45,1.41-.45,2.25h-4.05c.05-1.77.43-3.25,1.15-4.43.72-1.19,1.7-2.08,2.93-2.67s2.62-.89,4.16-.89c1.65,0,3.06.3,4.22.91s2.06,1.46,2.69,2.55c.63,1.09.94,2.39.94,3.88,0,1.09-.2,2.17-.61,3.23s-.97,2.08-1.69,3.07c-.72.99-1.53,1.94-2.43,2.86-.9.92-1.82,1.79-2.78,2.62-.96.83-1.87,1.59-2.76,2.29h10.93v3.46h-16.83Z"/>
  </g>
  <g>
    <path class="cls-5" d="M1321.48,387.61c-2.42,0-4.51-.53-6.27-1.59-1.76-1.06-3.11-2.54-4.05-4.44-.94-1.9-1.41-4.09-1.41-6.58s.47-4.72,1.41-6.62c.94-1.9,2.29-3.38,4.05-4.45,1.76-1.07,3.85-1.61,6.27-1.61,2.91,0,5.28.72,7.12,2.15,1.84,1.43,3,3.45,3.49,6.06h-4.61c-.33-1.37-.99-2.46-1.99-3.25s-2.35-1.19-4.05-1.19c-1.54,0-2.86.36-3.96,1.06-1.11.71-1.96,1.73-2.55,3.07s-.89,2.93-.89,4.77.3,3.42.89,4.73c.59,1.31,1.44,2.33,2.55,3.04,1.11.71,2.43,1.07,3.96,1.07,1.7,0,3.05-.37,4.05-1.1s1.66-1.75,1.99-3.06h4.61c-.47,2.47-1.62,4.41-3.47,5.81-1.85,1.41-4.23,2.11-7.14,2.11Z"/>
    <path class="cls-5" d="M1344.25,387.61c-1.68,0-3.18-.39-4.52-1.17-1.34-.78-2.39-1.86-3.14-3.25-.76-1.38-1.13-2.97-1.13-4.77s.38-3.45,1.15-4.84,1.82-2.47,3.16-3.25c1.34-.78,2.85-1.17,4.52-1.17s3.18.39,4.52,1.17c1.34.78,2.39,1.86,3.14,3.23.76,1.37,1.13,2.98,1.13,4.82s-.38,3.45-1.15,4.82c-.77,1.37-1.82,2.45-3.16,3.23-1.34.78-2.85,1.17-4.52,1.17ZM1344.25,384.02c.84,0,1.6-.21,2.29-.63.69-.42,1.24-1.05,1.66-1.88.42-.84.63-1.88.63-3.11s-.2-2.26-.61-3.09c-.41-.83-.96-1.45-1.64-1.87s-1.45-.63-2.29-.63-1.57.21-2.27.63c-.7.42-1.26,1.04-1.68,1.87s-.63,1.86-.63,3.09.21,2.27.63,3.11c.42.84.97,1.47,1.66,1.88.69.42,1.44.63,2.25.63Z"/>
    <path class="cls-5" d="M1357.17,387.2v-17.6h3.7l.31,2.93c.54-1.03,1.3-1.84,2.3-2.45s2.19-.91,3.56-.91,2.63.3,3.63.89,1.78,1.46,2.32,2.6.82,2.56.82,4.26v10.27h-4.19v-9.88c0-1.47-.33-2.6-.98-3.39-.65-.79-1.62-1.19-2.9-1.19-.84,0-1.59.2-2.25.59s-1.19.97-1.57,1.73c-.38.76-.58,1.67-.58,2.74v9.39h-4.19Z"/>
    <path class="cls-5" d="M1378.26,387.2v-17.6h3.7l.31,2.93c.54-1.03,1.3-1.84,2.3-2.45s2.19-.91,3.56-.91,2.63.3,3.63.89,1.78,1.46,2.32,2.6.82,2.56.82,4.26v10.27h-4.19v-9.88c0-1.47-.33-2.6-.98-3.39-.65-.79-1.62-1.19-2.9-1.19-.84,0-1.59.2-2.25.59s-1.19.97-1.57,1.73c-.38.76-.58,1.67-.58,2.74v9.39h-4.19Z"/>
    <path class="cls-5" d="M1407.59,387.61c-1.75,0-3.28-.38-4.61-1.13s-2.36-1.82-3.11-3.2-1.12-2.96-1.12-4.75.37-3.49,1.1-4.89,1.77-2.49,3.11-3.28c1.34-.79,2.89-1.19,4.66-1.19s3.22.38,4.5,1.15c1.28.77,2.27,1.8,2.97,3.09s1.05,2.74,1.05,4.35v.77c0,.28-.02.57-.07.87h-14.32v-2.69h10.16c-.05-1.28-.48-2.29-1.29-3.02-.82-.73-1.83-1.1-3.04-1.1-.86,0-1.65.2-2.38.59s-1.29.98-1.71,1.76c-.42.78-.63,1.76-.63,2.95v1.01c0,1.09.2,2.04.61,2.83s.97,1.39,1.68,1.8c.71.41,1.51.61,2.39.61.98,0,1.79-.21,2.43-.63.64-.42,1.11-.98,1.42-1.68h4.26c-.33,1.09-.86,2.08-1.61,2.95s-1.66,1.56-2.76,2.06-2.33.75-3.7.75Z"/>
    <path class="cls-5" d="M1428.37,387.61c-1.72,0-3.26-.39-4.63-1.17-1.36-.78-2.42-1.86-3.18-3.25-.76-1.38-1.13-2.96-1.13-4.73s.38-3.45,1.13-4.84c.76-1.38,1.82-2.47,3.18-3.27,1.36-.79,2.92-1.19,4.66-1.19,2.19,0,4.03.58,5.52,1.73,1.49,1.15,2.44,2.73,2.86,4.73h-4.4c-.23-.88-.72-1.58-1.45-2.1-.73-.51-1.6-.77-2.6-.77-.86,0-1.65.22-2.36.66-.71.44-1.27,1.08-1.68,1.92s-.61,1.85-.61,3.04c0,.91.12,1.71.35,2.41.23.7.56,1.29,1,1.76.43.48.93.84,1.48,1.1.56.26,1.16.38,1.82.38s1.29-.11,1.83-.33c.55-.22,1.01-.55,1.4-1s.66-.97.82-1.57h4.4c-.42,1.96-1.37,3.52-2.86,4.7-1.49,1.18-3.34,1.76-5.55,1.76Z"/>
    <path class="cls-5" d="M1448.21,387.2c-1.19,0-2.22-.19-3.09-.56-.87-.37-1.55-.99-2.04-1.85-.49-.86-.73-2.03-.73-3.49v-8.17h-3v-3.53h3l.49-4.64h3.7v4.64h4.78v3.53h-4.78v8.17c0,.88.19,1.5.58,1.83.38.34,1.03.51,1.94.51h2.17v3.56h-3Z"/>
    <path class="cls-5" d="M1463.01,387.61c-1.68,0-3.18-.39-4.52-1.17-1.34-.78-2.39-1.86-3.14-3.25-.76-1.38-1.13-2.97-1.13-4.77s.38-3.45,1.15-4.84,1.82-2.47,3.16-3.25c1.34-.78,2.85-1.17,4.52-1.17s3.18.39,4.52,1.17c1.34.78,2.39,1.86,3.14,3.23.76,1.37,1.13,2.98,1.13,4.82s-.38,3.45-1.15,4.82c-.77,1.37-1.82,2.45-3.16,3.23-1.34.78-2.85,1.17-4.52,1.17ZM1463.01,384.02c.84,0,1.6-.21,2.29-.63.69-.42,1.24-1.05,1.66-1.88.42-.84.63-1.88.63-3.11s-.2-2.26-.61-3.09c-.41-.83-.96-1.45-1.64-1.87s-1.45-.63-2.29-.63-1.57.21-2.27.63c-.7.42-1.26,1.04-1.68,1.87s-.63,1.86-.63,3.09.21,2.27.63,3.11c.42.84.97,1.47,1.66,1.88.69.42,1.44.63,2.25.63Z"/>
    <path class="cls-5" d="M1475.93,387.2v-17.6h3.74l.38,3.28c.42-.77.94-1.43,1.57-1.97.63-.55,1.37-.97,2.22-1.27s1.79-.46,2.81-.46v4.44h-1.47c-.7,0-1.36.09-1.99.26-.63.17-1.17.45-1.62.84-.45.38-.81.91-1.07,1.57-.26.66-.38,1.5-.38,2.5v8.42h-4.19Z"/>
    <path class="cls-5" d="M1501.39,387.2v-19.66l-4.33,1.12v-3.25l6.01-2.65h2.62v24.44h-4.29Z"/>
  </g>
</svg>