<?xml version="1.0" encoding="UTF-8"?>
<svg id="outlines" xmlns="http://www.w3.org/2000/svg" viewBox="0 0 1280 840">
  <defs>
    <style>
      .cls-1 {
        stroke-dasharray: 12;
      }

      .cls-1, .cls-2, .cls-3 {
        fill: none;
        stroke-linejoin: round;
      }

      .cls-1, .cls-3 {
        stroke-linecap: round;
      }

      .cls-1, .cls-4 {
        stroke: #00090c;
        stroke-width: 4px;
      }

      .cls-2 {
        stroke-width: 2.9px;
      }

      .cls-2, .cls-3 {
        stroke: #b3b3b3;
      }

      .cls-3 {
        stroke-width: 2px;
      }

      .cls-5 {
        fill: #b3b3b3;
      }

      .cls-6 {
        fill: #00090c;
      }

      .cls-4 {
        fill: #f2f2f2;
        stroke-miterlimit: 10;
      }
    </style>
  </defs>
  <g>
    <path class="cls-6" d="M195.04,793.06c-1.78,0-3.38-.36-4.82-1.06-1.44-.71-2.59-1.79-3.44-3.24-.85-1.45-1.28-3.31-1.28-5.56v-15.77h3.6v15.8c0,1.51.25,2.75.76,3.73.5.97,1.21,1.69,2.11,2.16.9.47,1.95.7,3.15.7s2.28-.23,3.17-.7c.89-.47,1.58-1.19,2.07-2.16s.74-2.21.74-3.73v-15.8h3.6v15.77c0,2.26-.43,4.11-1.3,5.56-.86,1.45-2.03,2.53-3.49,3.24-1.46.71-3.08,1.06-4.86,1.06Z"/>
    <path class="cls-6" d="M209.51,792.62v-18.14h3.24l.22,3.1c.58-1.08,1.39-1.94,2.45-2.57,1.06-.64,2.27-.95,3.64-.95,1.44,0,2.68.29,3.71.86,1.03.58,1.84,1.45,2.41,2.61.58,1.17.86,2.62.86,4.38v10.73h-3.6v-10.37c0-1.68-.37-2.95-1.12-3.82-.74-.86-1.82-1.29-3.24-1.29-.94,0-1.78.22-2.52.67-.74.44-1.34,1.1-1.78,1.96-.44.87-.67,1.92-.67,3.17v9.68h-3.6Z"/>
    <path class="cls-6" d="M239.03,793.06c-1.75,0-3.31-.4-4.68-1.21-1.37-.8-2.44-1.91-3.22-3.33-.78-1.42-1.17-3.06-1.17-4.93s.39-3.56,1.17-4.99c.78-1.43,1.85-2.54,3.22-3.35,1.37-.8,2.93-1.21,4.68-1.21,2.21,0,4.06.58,5.54,1.73,1.49,1.15,2.44,2.71,2.84,4.68h-3.74c-.24-1.06-.79-1.87-1.64-2.45s-1.87-.86-3.04-.86c-.96,0-1.85.25-2.66.74-.82.49-1.47,1.21-1.96,2.16s-.74,2.12-.74,3.51c0,1.03.14,1.95.43,2.75.29.8.68,1.48,1.17,2.03.49.55,1.06.97,1.71,1.24.65.28,1.33.41,2.05.41.79,0,1.51-.13,2.14-.38.63-.25,1.17-.63,1.62-1.13s.75-1.1.92-1.8h3.74c-.41,1.92-1.36,3.46-2.84,4.63s-3.34,1.75-5.54,1.75Z"/>
    <path class="cls-6" d="M259.91,793.06c-1.7,0-3.23-.4-4.59-1.19s-2.42-1.9-3.2-3.33c-.78-1.43-1.17-3.08-1.17-4.95s.4-3.59,1.19-5.02,1.87-2.54,3.24-3.33c1.37-.79,2.9-1.19,4.61-1.19s3.26.4,4.61,1.19c1.34.79,2.41,1.9,3.19,3.31.78,1.42,1.17,3.08,1.17,5s-.39,3.59-1.17,5-1.85,2.52-3.22,3.31-2.92,1.19-4.64,1.19ZM259.91,789.96c.98,0,1.88-.24,2.68-.72.8-.48,1.45-1.19,1.94-2.14.49-.95.74-2.13.74-3.54s-.24-2.6-.72-3.55c-.48-.95-1.12-1.66-1.93-2.14-.8-.48-1.69-.72-2.65-.72s-1.85.24-2.66.72c-.82.48-1.47,1.19-1.96,2.14-.49.95-.74,2.13-.74,3.55s.25,2.6.74,3.54c.49.95,1.14,1.66,1.94,2.14.8.48,1.67.72,2.61.72Z"/>
    <path class="cls-6" d="M273.19,792.62v-18.14h3.24l.22,3.1c.58-1.08,1.39-1.94,2.45-2.57,1.06-.64,2.27-.95,3.64-.95,1.44,0,2.68.29,3.71.86,1.03.58,1.84,1.45,2.41,2.61.58,1.17.86,2.62.86,4.38v10.73h-3.6v-10.37c0-1.68-.37-2.95-1.12-3.82-.74-.86-1.82-1.29-3.24-1.29-.94,0-1.78.22-2.52.67-.74.44-1.34,1.1-1.78,1.96-.44.87-.67,1.92-.67,3.17v9.68h-3.6Z"/>
    <path class="cls-6" d="M295.3,792.62v-15.08h-2.66v-3.06h2.66v-2.45c0-1.25.21-2.27.63-3.06.42-.79,1.04-1.37,1.85-1.73.82-.36,1.8-.54,2.95-.54h1.87v3.06h-1.3c-.86,0-1.48.17-1.85.52-.37.35-.56.95-.56,1.82v2.38h11.05v18.14h-3.6v-15.08h-7.45v15.08h-3.6ZM308.19,771.35c-.67,0-1.24-.22-1.69-.65-.46-.43-.68-.98-.68-1.66s.23-1.18.68-1.6c.46-.42,1.02-.63,1.69-.63s1.27.21,1.71.63c.44.42.67.96.67,1.6s-.22,1.22-.67,1.66c-.44.43-1.01.65-1.71.65Z"/>
    <path class="cls-6" d="M315.13,792.62v-18.14h3.24l.32,3.42c.41-.82.94-1.51,1.58-2.07.65-.56,1.41-1,2.29-1.31.88-.31,1.88-.47,3.01-.47v3.82h-1.3c-.74,0-1.45.09-2.12.27-.67.18-1.27.49-1.78.92-.52.43-.92,1.02-1.21,1.76-.29.74-.43,1.67-.43,2.77v9.04h-3.6Z"/>
    <path class="cls-6" d="M328.89,792.62v-18.14h3.24l.25,2.56c.58-.94,1.34-1.67,2.3-2.2.96-.53,2.04-.79,3.24-.79.91,0,1.74.13,2.48.38s1.4.63,1.98,1.13,1.04,1.13,1.4,1.87c.65-1.06,1.52-1.88,2.61-2.48,1.09-.6,2.25-.9,3.47-.9,1.46,0,2.72.29,3.78.88,1.06.59,1.86,1.46,2.41,2.63.55,1.16.83,2.61.83,4.34v10.73h-3.56v-10.37c0-1.68-.34-2.95-1.03-3.82-.68-.86-1.69-1.29-3.01-1.29-.89,0-1.68.23-2.38.68-.7.46-1.24,1.12-1.64,1.98-.4.86-.59,1.92-.59,3.17v9.65h-3.6v-10.37c0-1.68-.34-2.95-1.03-3.82-.68-.86-1.69-1.29-3.01-1.29-.84,0-1.61.23-2.3.68-.7.46-1.25,1.12-1.66,1.98-.41.86-.61,1.92-.61,3.17v9.65h-3.6Z"/>
    <path class="cls-6" d="M369.75,793.06c-1.73,0-3.26-.4-4.61-1.19s-2.39-1.9-3.15-3.31c-.76-1.42-1.13-3.06-1.13-4.93s.38-3.59,1.13-5.02c.76-1.43,1.81-2.54,3.15-3.35,1.34-.8,2.9-1.21,4.68-1.21s3.3.4,4.57,1.19c1.27.79,2.26,1.84,2.95,3.15.7,1.31,1.04,2.75,1.04,4.34,0,.24,0,.5-.02.77-.01.28-.03.58-.05.92h-14.83v-2.56h11.3c-.07-1.51-.58-2.69-1.51-3.54-.94-.85-2.1-1.28-3.49-1.28-.98,0-1.88.22-2.7.67-.82.44-1.47,1.09-1.96,1.94-.49.85-.74,1.93-.74,3.22v1.01c0,1.34.25,2.48.74,3.4.49.92,1.15,1.62,1.96,2.09.82.47,1.7.7,2.66.7,1.15,0,2.1-.25,2.84-.76.74-.5,1.3-1.19,1.66-2.05h3.6c-.31,1.1-.84,2.09-1.58,2.97-.74.88-1.66,1.57-2.75,2.07-1.09.5-2.35.76-3.76.76Z"/>
    <path class="cls-6" d="M390.44,793.06c-1.73,0-3.25-.41-4.57-1.24-1.32-.83-2.35-1.96-3.08-3.38-.73-1.43-1.1-3.05-1.1-4.88s.37-3.48,1.1-4.9c.73-1.42,1.76-2.54,3.1-3.37s2.86-1.24,4.59-1.24c1.42,0,2.66.28,3.74.85,1.08.56,1.92,1.36,2.52,2.39v-10.58h3.6v25.92h-3.2l-.4-2.81c-.36.55-.83,1.07-1.4,1.57-.58.49-1.27.89-2.09,1.21-.82.31-1.75.47-2.81.47ZM391.02,789.92c1.13,0,2.12-.26,2.99-.79.86-.53,1.53-1.27,2-2.23s.7-2.08.7-3.35-.23-2.38-.7-3.33c-.47-.95-1.13-1.69-2-2.23-.86-.54-1.86-.81-2.99-.81s-2.05.27-2.92.81c-.86.54-1.54,1.28-2.02,2.23-.48.95-.72,2.06-.72,3.33s.24,2.39.72,3.35c.48.96,1.15,1.7,2.02,2.23.86.53,1.84.79,2.92.79Z"/>
  </g>
  <rect class="cls-1" x="777.17" y="112.3" width="419.7" height="170.52" rx="23.95" ry="23.95"/>
  <g>
    <path class="cls-6" d="M922.35,209.57v-29.48h19.21v4.59h-13.52v7.88h10.82v4.46h-10.82v12.55h-5.69Z"/>
    <path class="cls-6" d="M954.57,210.07c-2.02,0-3.84-.47-5.45-1.41-1.62-.94-2.89-2.25-3.83-3.92s-1.41-3.59-1.41-5.75.47-4.16,1.41-5.83,2.22-2.98,3.85-3.92c1.63-.94,3.45-1.41,5.48-1.41s3.88.47,5.5,1.41c1.61.94,2.89,2.25,3.83,3.92.94,1.67,1.41,3.6,1.41,5.79s-.47,4.12-1.41,5.79c-.94,1.67-2.23,2.98-3.85,3.92-1.63.94-3.47,1.41-5.52,1.41ZM954.57,205.15c.95,0,1.8-.22,2.55-.67.74-.45,1.33-1.14,1.77-2.06.44-.93.65-2.08.65-3.45s-.22-2.52-.65-3.43-1.03-1.6-1.77-2.06c-.74-.46-1.58-.7-2.51-.7s-1.73.23-2.49.7c-.76.46-1.35,1.15-1.79,2.06s-.65,2.06-.65,3.43.22,2.53.65,3.45c.44.93,1.03,1.61,1.77,2.06.74.45,1.56.67,2.46.67Z"/>
    <path class="cls-6" d="M970.24,209.57v-21.23h5.05l.55,3.92c.51-.93,1.14-1.71,1.92-2.36.77-.64,1.66-1.15,2.65-1.52,1-.37,2.1-.55,3.31-.55v6.02h-1.94c-.84,0-1.62.1-2.34.29-.72.2-1.34.51-1.87.95-.53.44-.94,1.03-1.22,1.79-.28.76-.42,1.71-.42,2.86v9.81h-5.69Z"/>
    <path class="cls-6" d="M985.53,193.1v-4.76h13.18v4.76h-13.18ZM988.43,209.57v-23.12c0-1.77.29-3.17.88-4.21s1.44-1.8,2.55-2.28c1.11-.48,2.41-.71,3.9-.71h2.61v4.84h-1.77c-.9,0-1.54.18-1.92.53-.38.35-.57.96-.57,1.83v23.12h-5.69Z"/>
    <path class="cls-6" d="M1012.44,210.07c-2.13,0-4.02-.46-5.66-1.37s-2.92-2.19-3.83-3.83c-.91-1.64-1.37-3.54-1.37-5.71s.45-4.18,1.35-5.88c.9-1.7,2.17-3.03,3.81-4,1.64-.97,3.54-1.45,5.71-1.45s3.94.46,5.52,1.39c1.57.93,2.79,2.18,3.66,3.75.87,1.57,1.31,3.36,1.31,5.35v.95c0,.35-.03.71-.08,1.07h-17.23v-3.45h11.58c-.08-1.38-.57-2.46-1.45-3.24-.88-.79-1.99-1.18-3.31-1.18-.96,0-1.84.22-2.65.65s-1.45,1.1-1.92,2c-.46.9-.7,2.04-.7,3.41v1.22c0,1.15.22,2.16.65,3.01.43.86,1.05,1.52,1.83,1.98.79.46,1.7.69,2.74.69s1.9-.22,2.59-.67c.69-.45,1.2-1.02,1.54-1.73h5.81c-.39,1.32-1.05,2.51-1.98,3.58-.93,1.07-2.06,1.91-3.41,2.53s-2.85.93-4.51.93Z"/>
    <path class="cls-6" d="M1030.59,185.44c-1.01,0-1.85-.3-2.51-.91s-.99-1.37-.99-2.29.33-1.69.99-2.3c.66-.6,1.5-.91,2.51-.91s1.89.3,2.55.91c.66.6.99,1.37.99,2.3s-.33,1.69-.99,2.29c-.66.6-1.51.91-2.55.91ZM1027.73,209.57v-21.23h5.69v21.23h-5.69Z"/>
    <path class="cls-6" d="M1048.7,209.57c-1.49,0-2.79-.23-3.9-.69-1.11-.46-1.97-1.24-2.59-2.32-.62-1.08-.93-2.56-.93-4.44v-9.01h-3.62v-4.76h3.62l.63-5.77h5.05v5.77h5.6v4.76h-5.6v9.1c0,.96.21,1.62.63,1.98.42.37,1.14.55,2.15.55h2.78v4.84h-3.83Z"/>
  </g>
  <rect class="cls-1" x="777.17" y="557.17" width="419.7" height="170.52" rx="23.95" ry="23.95"/>
  <rect class="cls-1" x="83.13" y="557.17" width="419.7" height="170.52" rx="23.95" ry="23.95"/>
  <g>
    <path class="cls-6" d="M883.12,654.44v-29.48h5.69l13.56,20.34v-20.34h5.69v29.48h-5.69l-13.56-20.3v20.3h-5.69Z"/>
    <path class="cls-6" d="M923.89,654.94c-2.13,0-4.02-.46-5.66-1.37s-2.92-2.19-3.83-3.83c-.91-1.64-1.37-3.54-1.37-5.71s.45-4.18,1.35-5.88c.9-1.7,2.17-3.03,3.81-4,1.64-.97,3.54-1.45,5.71-1.45s3.94.46,5.52,1.39c1.57.93,2.79,2.18,3.66,3.75.87,1.57,1.31,3.36,1.31,5.35v.95c0,.35-.03.71-.08,1.07h-17.23v-3.45h11.58c-.08-1.38-.57-2.46-1.45-3.24-.88-.79-1.99-1.18-3.31-1.18-.96,0-1.84.22-2.65.65-.81.44-1.45,1.1-1.92,2s-.7,2.04-.7,3.41v1.22c0,1.15.22,2.15.65,3.01.43.86,1.05,1.52,1.83,1.98.79.46,1.7.7,2.74.7s1.9-.22,2.59-.67c.69-.45,1.2-1.03,1.54-1.73h5.81c-.39,1.32-1.05,2.51-1.98,3.58-.93,1.07-2.06,1.91-3.41,2.53-1.35.62-2.85.93-4.51.93Z"/>
    <path class="cls-6" d="M942.38,654.44l-6.23-21.23h5.6l4.13,17.23-1.05-.04,4.72-17.18h6.32l4.72,17.18-1.09.04,4.17-17.23h5.6l-6.23,21.23h-5.9l-5.01-17.69h1.18l-5.01,17.69h-5.9Z"/>
    <path class="cls-6" d="M991.23,654.44l-10.74-29.48h6.06l8.17,23.67,8.21-23.67h6.02l-10.74,29.48h-6.99Z"/>
    <path class="cls-6" d="M1019.36,654.44v-24.89h-8.63v-4.59h22.87v4.59h-8.59v24.89h-5.64Z"/>
    <path class="cls-6" d="M1036.13,654.44l9.31-14.95-9.43-14.53h6.57l6.49,10.07,5.94-10.07h6.4l-9.22,14.78,9.48,14.7h-6.57l-6.53-10.23-5.98,10.23h-6.44Z"/>
    <path class="cls-6" d="M1077.32,654.94c-2.86,0-5.39-.65-7.58-1.94s-3.9-3.08-5.14-5.37-1.85-4.93-1.85-7.94.62-5.65,1.85-7.94c1.24-2.29,2.95-4.08,5.14-5.37,2.19-1.29,4.72-1.94,7.58-1.94s5.43.65,7.62,1.94c2.19,1.29,3.9,3.08,5.12,5.37,1.22,2.29,1.83,4.93,1.83,7.94s-.61,5.65-1.83,7.94-2.93,4.08-5.12,5.37-4.73,1.94-7.62,1.94ZM1077.32,649.85c1.8,0,3.35-.41,4.65-1.24,1.31-.83,2.32-2,3.05-3.52.73-1.52,1.1-3.31,1.1-5.39s-.37-3.91-1.1-5.41-1.75-2.66-3.05-3.47c-1.3-.81-2.86-1.22-4.65-1.22s-3.31.41-4.63,1.22c-1.32.81-2.34,1.97-3.07,3.47-.73,1.5-1.1,3.31-1.1,5.41s.37,3.87,1.1,5.39c.73,1.52,1.75,2.69,3.07,3.52,1.32.83,2.86,1.24,4.63,1.24Z"/>
  </g>
  <rect class="cls-4" x="83.13" y="112.3" width="419.7" height="170.52" rx="23.95" ry="23.95"/>
  <g>
    <path class="cls-6" d="M211.63,210.07c-2.86,0-5.39-.64-7.58-1.94-2.19-1.29-3.9-3.08-5.14-5.37-1.24-2.29-1.85-4.93-1.85-7.94s.62-5.65,1.85-7.94,2.95-4.08,5.14-5.37c2.19-1.29,4.72-1.94,7.58-1.94s5.43.65,7.62,1.94c2.19,1.29,3.9,3.08,5.12,5.37s1.83,4.93,1.83,7.94-.61,5.65-1.83,7.94c-1.22,2.29-2.93,4.08-5.12,5.37-2.19,1.29-4.73,1.94-7.62,1.94ZM211.63,204.98c1.8,0,3.35-.41,4.65-1.24,1.31-.83,2.32-2,3.05-3.52.73-1.52,1.1-3.31,1.1-5.39s-.37-3.91-1.1-5.41c-.73-1.5-1.75-2.66-3.05-3.47-1.3-.81-2.86-1.22-4.65-1.22s-3.31.41-4.63,1.22c-1.32.82-2.34,1.97-3.07,3.47-.73,1.5-1.1,3.31-1.1,5.41s.37,3.88,1.1,5.39c.73,1.52,1.75,2.69,3.07,3.52,1.32.83,2.86,1.24,4.63,1.24Z"/>
    <path class="cls-6" d="M230.91,209.57v-30.32h5.69v30.32h-5.69Z"/>
    <path class="cls-6" d="M251.59,210.07c-1.94,0-3.67-.48-5.2-1.43-1.53-.95-2.73-2.27-3.6-3.96-.87-1.68-1.31-3.58-1.31-5.69s.44-4.08,1.33-5.75c.88-1.67,2.11-2.99,3.66-3.96,1.56-.97,3.31-1.45,5.24-1.45,1.52,0,2.85.28,4,.84,1.15.56,2.08,1.36,2.78,2.4v-11.83h5.69v30.32h-5.05l-.63-2.91c-.42.59-.95,1.15-1.58,1.68-.63.53-1.38.96-2.25,1.26s-1.9.46-3.07.46ZM252.94,205.1c1.12,0,2.11-.26,2.97-.78s1.52-1.24,2-2.17c.48-.93.72-1.99.72-3.2s-.24-2.27-.72-3.2-1.14-1.65-2-2.17-1.85-.78-2.97-.78-2.04.26-2.91.78-1.55,1.24-2.04,2.17c-.49.93-.74,1.98-.74,3.16s.25,2.32.74,3.24c.49.93,1.16,1.65,2.02,2.17.86.52,1.83.78,2.93.78Z"/>
    <path class="cls-6" d="M288.23,209.57l-10.74-29.48h6.06l8.17,23.67,8.21-23.67h6.02l-10.74,29.48h-6.99Z"/>
    <path class="cls-6" d="M316.37,209.57v-24.89h-8.63v-4.59h22.87v4.59h-8.59v24.89h-5.64Z"/>
    <path class="cls-6" d="M333.13,209.57l9.31-14.95-9.43-14.53h6.57l6.49,10.07,5.94-10.07h6.4l-9.22,14.78,9.48,14.7h-6.57l-6.53-10.23-5.98,10.23h-6.44Z"/>
    <path class="cls-6" d="M374.32,210.07c-2.86,0-5.39-.64-7.58-1.94-2.19-1.29-3.9-3.08-5.14-5.37-1.24-2.29-1.85-4.93-1.85-7.94s.62-5.65,1.85-7.94,2.95-4.08,5.14-5.37c2.19-1.29,4.72-1.94,7.58-1.94s5.43.65,7.62,1.94c2.19,1.29,3.9,3.08,5.12,5.37s1.83,4.93,1.83,7.94-.61,5.65-1.83,7.94c-1.22,2.29-2.93,4.08-5.12,5.37-2.19,1.29-4.73,1.94-7.62,1.94ZM374.32,204.98c1.8,0,3.35-.41,4.65-1.24,1.31-.83,2.32-2,3.05-3.52.73-1.52,1.1-3.31,1.1-5.39s-.37-3.91-1.1-5.41c-.73-1.5-1.75-2.66-3.05-3.47-1.3-.81-2.86-1.22-4.65-1.22s-3.31.41-4.63,1.22c-1.32.82-2.34,1.97-3.07,3.47-.73,1.5-1.1,3.31-1.1,5.41s.37,3.88,1.1,5.39c.73,1.52,1.75,2.69,3.07,3.52,1.32.83,2.86,1.24,4.63,1.24Z"/>
  </g>
  <g>
    <path class="cls-6" d="M230.62,654.44v-29.48h10.99c2.39,0,4.35.41,5.9,1.22,1.54.81,2.7,1.9,3.45,3.26.76,1.36,1.14,2.87,1.14,4.53s-.37,3.04-1.1,4.4-1.87,2.46-3.43,3.29c-1.56.83-3.56,1.24-6,1.24h-5.26v11.54h-5.69ZM236.3,638.77h4.97c1.71,0,2.98-.42,3.79-1.26s1.22-1.95,1.22-3.33-.4-2.46-1.2-3.26c-.8-.8-2.07-1.2-3.81-1.2h-4.97v9.05ZM245.91,654.44l-6.06-12.97h6.15l6.4,12.97h-6.49Z"/>
    <path class="cls-6" d="M265.83,654.94c-2.02,0-3.84-.47-5.45-1.41-1.62-.94-2.89-2.25-3.83-3.92-.94-1.67-1.41-3.59-1.41-5.75s.47-4.16,1.41-5.83c.94-1.67,2.22-2.98,3.85-3.92,1.63-.94,3.45-1.41,5.48-1.41s3.88.47,5.5,1.41c1.61.94,2.89,2.25,3.83,3.92.94,1.67,1.41,3.6,1.41,5.79s-.47,4.12-1.41,5.79c-.94,1.67-2.23,2.98-3.85,3.92-1.63.94-3.47,1.41-5.52,1.41ZM265.83,650.02c.95,0,1.8-.22,2.55-.67.74-.45,1.33-1.14,1.77-2.06.44-.93.65-2.08.65-3.45s-.22-2.52-.65-3.43c-.44-.91-1.03-1.6-1.77-2.06-.74-.46-1.58-.7-2.51-.7s-1.73.23-2.49.7c-.76.46-1.35,1.15-1.79,2.06-.44.91-.65,2.06-.65,3.43s.22,2.53.65,3.45c.44.93,1.03,1.62,1.77,2.06.74.45,1.56.67,2.46.67Z"/>
    <path class="cls-6" d="M289.41,654.94c-1.71,0-3.18-.36-4.4-1.07-1.22-.72-2.16-1.77-2.8-3.16-.65-1.39-.97-3.11-.97-5.16v-12.34h5.69v11.75c0,1.71.36,3,1.07,3.88.72.87,1.82,1.31,3.31,1.31.95,0,1.8-.22,2.53-.65.73-.43,1.31-1.07,1.75-1.89.43-.83.65-1.85.65-3.05v-11.33h5.64v21.23h-4.97l-.46-3.45c-.62,1.21-1.53,2.17-2.74,2.88-1.21.72-2.64,1.07-4.3,1.07Z"/>
    <path class="cls-6" d="M307.44,654.44v-21.23h5.01l.42,3.45c.65-1.18,1.56-2.13,2.76-2.86,1.19-.73,2.62-1.1,4.27-1.1,1.77,0,3.26.37,4.46,1.1,1.21.73,2.13,1.8,2.76,3.2.63,1.4.95,3.13.95,5.18v12.26h-5.64v-11.71c0-1.68-.36-2.97-1.07-3.87-.72-.9-1.82-1.35-3.31-1.35-.95,0-1.8.23-2.55.67-.74.45-1.33,1.09-1.75,1.92-.42.83-.63,1.83-.63,3.01v11.33h-5.69Z"/>
    <path class="cls-6" d="M342.86,654.94c-1.94,0-3.67-.48-5.2-1.43-1.53-.95-2.73-2.27-3.6-3.96s-1.31-3.58-1.31-5.69.44-4.08,1.33-5.75c.88-1.67,2.11-2.99,3.66-3.96s3.31-1.45,5.24-1.45c1.52,0,2.85.28,4,.84s2.08,1.36,2.78,2.4v-11.83h5.69v30.32h-5.05l-.63-2.91c-.42.59-.95,1.15-1.58,1.69-.63.53-1.38.95-2.25,1.26s-1.9.46-3.07.46ZM344.21,649.97c1.12,0,2.11-.26,2.97-.78.86-.52,1.52-1.24,2-2.17.48-.93.72-1.99.72-3.2s-.24-2.27-.72-3.2c-.48-.93-1.14-1.65-2-2.17-.86-.52-1.85-.78-2.97-.78s-2.04.26-2.91.78c-.87.52-1.55,1.24-2.04,2.17-.49.93-.74,1.98-.74,3.16s.25,2.32.74,3.24c.49.93,1.16,1.65,2.02,2.17.86.52,1.83.78,2.93.78Z"/>
  </g>
  <g>
    <path class="cls-5" d="M649.43,495.38c0,2.4-.53,4.46-1.59,6.2-1.06,1.73-2.54,3.07-4.43,4.02-1.9.94-4.1,1.41-6.62,1.41s-4.69-.47-6.6-1.41c-1.91-.94-3.39-2.28-4.45-4.02-1.06-1.73-1.59-3.8-1.59-6.2,0-2.86.69-5.19,2.06-6.97,1.37-1.78,3.31-2.92,5.8-3.41v3.84c-1.44.35-2.6,1.06-3.46,2.15s-1.29,2.54-1.29,4.38c0,1.65.38,3.08,1.15,4.29.77,1.21,1.86,2.14,3.28,2.79s3.12.98,5.1.98,3.68-.33,5.12-.98,2.53-1.58,3.28-2.79c.76-1.21,1.13-2.64,1.13-4.29,0-1.84-.41-3.3-1.24-4.38-.83-1.08-1.95-1.8-3.37-2.15v-3.84c2.42.49,4.31,1.62,5.67,3.41,1.36,1.78,2.04,4.1,2.04,6.97Z"/>
    <path class="cls-5" d="M649.43,472.96c0,1.65-.38,3.14-1.15,4.45-.77,1.32-1.84,2.35-3.23,3.11s-2.99,1.13-4.8,1.13-3.49-.38-4.87-1.15c-1.38-.77-2.46-1.82-3.23-3.14-.77-1.33-1.15-2.82-1.15-4.47s.38-3.17,1.15-4.47c.77-1.3,1.84-2.33,3.21-3.09,1.37-.76,2.99-1.14,4.85-1.14s3.48.38,4.85,1.14c1.37.76,2.44,1.8,3.21,3.12.77,1.33,1.15,2.83,1.15,4.5ZM646.43,472.96c0-.95-.23-1.82-.7-2.6s-1.16-1.41-2.08-1.89c-.92-.48-2.07-.72-3.44-.72s-2.52.23-3.44.7-1.61,1.09-2.08,1.87c-.46.78-.7,1.64-.7,2.57s.23,1.79.7,2.58c.47.79,1.16,1.43,2.08,1.9.92.48,2.07.72,3.44.72s2.52-.24,3.44-.72c.92-.48,1.61-1.11,2.08-1.89.47-.78.7-1.62.7-2.53Z"/>
    <path class="cls-5" d="M649.01,460.08h-17.6v-3.14l3-.21c-1.05-.56-1.88-1.35-2.5-2.38-.62-1.02-.92-2.2-.92-3.53,0-1.4.28-2.6.84-3.6.56-1,1.4-1.78,2.53-2.34,1.13-.56,2.54-.84,4.24-.84h10.41v3.49h-10.06c-1.63,0-2.86.36-3.7,1.08-.84.72-1.26,1.77-1.26,3.14,0,.91.22,1.72.65,2.44s1.06,1.3,1.9,1.73c.84.43,1.86.65,3.07.65h9.39v3.49Z"/>
    <path class="cls-5" d="M649.01,439.58h-17.6v-3.14l3-.21c-1.05-.56-1.88-1.35-2.5-2.38-.62-1.02-.92-2.2-.92-3.53,0-1.4.28-2.6.84-3.6.56-1,1.4-1.78,2.53-2.34,1.13-.56,2.54-.84,4.24-.84h10.41v3.49h-10.06c-1.63,0-2.86.36-3.7,1.08-.84.72-1.26,1.77-1.26,3.14,0,.91.22,1.72.65,2.44s1.06,1.3,1.9,1.73c.84.43,1.86.65,3.07.65h9.39v3.49Z"/>
    <path class="cls-5" d="M649.43,411.12c0,1.68-.38,3.17-1.15,4.47-.77,1.3-1.84,2.32-3.21,3.05-1.37.73-2.97,1.1-4.78,1.1s-3.49-.37-4.87-1.1c-1.38-.73-2.47-1.75-3.25-3.05s-1.17-2.82-1.17-4.54.38-3.2,1.15-4.43c.77-1.23,1.79-2.19,3.06-2.86,1.27-.67,2.67-1.01,4.21-1.01.23,0,.48,0,.75.02.27.01.57.03.89.05v14.39h-2.48v-10.96c-1.47.07-2.61.56-3.44,1.47-.83.91-1.24,2.04-1.24,3.39,0,.95.21,1.83.65,2.62.43.79,1.06,1.43,1.89,1.9.83.48,1.87.72,3.13.72h.98c1.3,0,2.4-.24,3.3-.72.9-.48,1.57-1.11,2.03-1.9.45-.79.68-1.65.68-2.58,0-1.12-.24-2.04-.73-2.76-.49-.72-1.15-1.26-1.99-1.61v-3.49c1.07.3,2.03.81,2.88,1.54.85.72,1.52,1.61,2.01,2.67.49,1.06.73,2.28.73,3.65Z"/>
    <path class="cls-5" d="M649.43,390.73c0,1.7-.39,3.21-1.17,4.54-.78,1.33-1.86,2.37-3.23,3.13s-2.97,1.13-4.78,1.13-3.45-.38-4.84-1.13c-1.38-.76-2.47-1.8-3.25-3.13s-1.17-2.84-1.17-4.54c0-2.14.56-3.93,1.68-5.38s2.63-2.36,4.54-2.76v3.63c-1.02.23-1.82.76-2.38,1.59s-.84,1.81-.84,2.95c0,.93.24,1.79.72,2.58.48.79,1.18,1.43,2.1,1.9.92.48,2.05.72,3.4.72,1,0,1.89-.14,2.67-.42s1.44-.66,1.97-1.13c.54-.48.94-1.03,1.21-1.66.27-.63.4-1.29.4-1.99,0-.77-.12-1.46-.37-2.08-.24-.62-.61-1.14-1.1-1.57s-1.07-.73-1.75-.89v-3.63c1.86.4,3.36,1.32,4.49,2.76,1.13,1.44,1.69,3.24,1.69,5.38Z"/>
    <path class="cls-5" d="M649.01,371.66c0,1.09-.17,2.05-.52,2.86-.35.81-.93,1.44-1.75,1.89-.81.44-1.92.66-3.32.66h-9.04v3.04h-2.97v-3.04l-4.4-.42v-3.07h4.4v-4.99h2.97v4.99h9.08c1,0,1.68-.21,2.04-.63.36-.42.54-1.14.54-2.17v-2.03h2.97v2.9Z"/>
    <path class="cls-5" d="M649.43,357.2c0,1.65-.38,3.14-1.15,4.45-.77,1.32-1.84,2.35-3.23,3.11s-2.99,1.13-4.8,1.13-3.49-.38-4.87-1.15c-1.38-.77-2.46-1.82-3.23-3.14-.77-1.33-1.15-2.82-1.15-4.47s.38-3.17,1.15-4.47c.77-1.3,1.84-2.33,3.21-3.09,1.37-.76,2.99-1.14,4.85-1.14s3.48.38,4.85,1.14c1.37.76,2.44,1.8,3.21,3.12.77,1.33,1.15,2.83,1.15,4.5ZM646.43,357.2c0-.95-.23-1.82-.7-2.6s-1.16-1.41-2.08-1.89c-.92-.48-2.07-.72-3.44-.72s-2.52.23-3.44.7-1.61,1.09-2.08,1.87c-.46.78-.7,1.64-.7,2.57s.23,1.79.7,2.58c.47.79,1.16,1.43,2.08,1.9.92.48,2.07.72,3.44.72s2.52-.24,3.44-.72c.92-.48,1.61-1.11,2.08-1.89.47-.78.7-1.62.7-2.53Z"/>
    <path class="cls-5" d="M649.01,344.32h-17.6v-3.14l3.32-.31c-.79-.4-1.46-.91-2.01-1.54s-.97-1.37-1.27-2.22c-.3-.85-.45-1.82-.45-2.92h3.7v1.26c0,.72.09,1.41.26,2.06.17.65.47,1.23.89,1.73.42.5.99.89,1.71,1.17.72.28,1.62.42,2.69.42h8.76v3.49Z"/>
  </g>
  <polyline class="cls-3" points="750.03 176.47 764.17 168.58 750.03 160.68"/>
  <line class="cls-2" x1="504.83" y1="168.64" x2="762.17" y2="168.64"/>
  <polyline class="cls-3" points="750.03 234.45 764.17 226.55 750.03 218.66"/>
  <path class="cls-2" d="M762.17,226.61h-97.17c-13.81,0-25,11.19-25,25v66.86"/>
  <path class="cls-2" d="M504.83,613.45h110.17c13.81,0,25-11.19,25-25v-66.86"/>
  <polyline class="cls-3" points="750.03 679.32 764.17 671.42 750.03 663.53"/>
  <line class="cls-2" x1="504.83" y1="671.48" x2="762.17" y2="671.48"/>
</svg>