<?xml version="1.0" encoding="UTF-8"?>
<svg id="leaf-outline" xmlns="http://www.w3.org/2000/svg" viewBox="0 0 1324.12 545.8">
  <defs>
    <style>
      .cls-1, .cls-2 {
        fill: #fa1336;
      }

      .cls-3 {
        fill: #fa1336;
      }

      .cls-4 {
        fill: #e5e6e6;
      }

      .cls-5 {
        fill: #cfd1d1;
      }

      .cls-6 {
        fill: none;
        stroke: #00090c;
        stroke-miterlimit: 10;
        stroke-width: 3px;
      }

      .cls-7 {
        isolation: isolate;
      }

      .cls-8 {
        fill: #43b929;
      }

      .cls-9 {
        fill: #f2f2f2;
      }

      .cls-10 {
        fill: #b3b3b3;
      }

      .cls-2 {
        fill-rule: evenodd;
      }

      .cls-11 {
        fill: #00090c;
      }
    </style>
  </defs>
  <g>
    <path d="M863.56,120.95c-1.64,0-3.1-.29-4.38-.88s-2.27-1.42-2.98-2.5c-.71-1.08-1.08-2.37-1.1-3.86h4.12c0,.76.18,1.43.54,2.03.36.6.85,1.07,1.49,1.41.64.35,1.41.52,2.32.52.78,0,1.45-.12,2.03-.37.57-.25,1.02-.6,1.33-1.07s.47-1.01.47-1.64c0-.71-.17-1.3-.5-1.77s-.79-.86-1.38-1.18-1.25-.61-2.01-.86c-.76-.25-1.56-.51-2.4-.79-1.79-.6-3.15-1.38-4.05-2.32s-1.36-2.2-1.36-3.78c0-1.32.31-2.45.94-3.41s1.51-1.69,2.64-2.22c1.14-.53,2.45-.79,3.94-.79s2.84.27,3.97.81c1.13.54,2.03,1.29,2.69,2.25.66.96,1,2.11,1.02,3.45h-4.15c-.02-.56-.17-1.09-.45-1.57-.28-.49-.69-.89-1.22-1.2-.53-.31-1.17-.47-1.93-.47-.65-.02-1.23.08-1.74.31s-.91.55-1.2.97c-.29.42-.44.95-.44,1.57s.13,1.11.41,1.51.67.74,1.18,1c.52.27,1.12.52,1.82.76.69.24,1.45.5,2.27.78,1.12.37,2.15.82,3.06,1.35s1.65,1.22,2.19,2.06c.54.84.81,1.94.81,3.28,0,1.17-.3,2.25-.91,3.26-.61,1-1.49,1.82-2.66,2.43-1.17.62-2.63.92-4.38.92Z"/>
    <path d="M875.17,127.69v-23.48h3.47l.42,2.37c.35-.48.76-.92,1.25-1.35s1.08-.76,1.78-1.02c.7-.26,1.51-.39,2.42-.39,1.53,0,2.89.38,4.07,1.14,1.18.76,2.1,1.78,2.77,3.06.67,1.29,1.01,2.75,1.01,4.39s-.34,3.11-1.02,4.39c-.68,1.29-1.61,2.3-2.79,3.03-1.18.73-2.52,1.1-4.04,1.1-1.23,0-2.31-.23-3.23-.7s-1.66-1.13-2.22-1.99v9.44h-3.89ZM883.69,117.57c.91,0,1.72-.22,2.43-.65.71-.43,1.27-1.04,1.67-1.82.4-.78.6-1.67.6-2.69s-.2-1.95-.6-2.72c-.4-.78-.96-1.38-1.67-1.82-.71-.43-1.52-.65-2.43-.65s-1.75.22-2.45.65c-.7.43-1.25,1.04-1.65,1.82-.4.78-.6,1.68-.6,2.69s.2,1.94.6,2.71c.4.77.95,1.37,1.65,1.82s1.52.67,2.45.67Z"/>
    <path d="M903.77,120.95c-1.62,0-3.05-.35-4.28-1.05-1.23-.7-2.19-1.69-2.89-2.97-.69-1.28-1.04-2.75-1.04-4.41s.34-3.24,1.02-4.54c.68-1.3,1.64-2.31,2.89-3.05,1.24-.73,2.69-1.1,4.33-1.1s2.99.36,4.18,1.07c1.19.71,2.11,1.67,2.76,2.87.65,1.2.97,2.54.97,4.04v.71c0,.26-.02.53-.07.81h-13.3v-2.5h9.44c-.04-1.19-.44-2.12-1.2-2.8-.76-.68-1.7-1.02-2.82-1.02-.8,0-1.54.18-2.21.55-.67.37-1.2.91-1.59,1.64-.39.72-.58,1.64-.58,2.74v.94c0,1.02.19,1.89.57,2.63.38.73.9,1.29,1.56,1.67.66.38,1.4.57,2.22.57.91,0,1.66-.19,2.25-.58.59-.39,1.03-.91,1.31-1.56h3.96c-.3,1.02-.8,1.93-1.49,2.74-.69.81-1.55,1.45-2.56,1.91-1.02.46-2.16.7-3.44.7Z"/>
    <path d="M915.31,120.56v-16.34h3.44l.29,2.72c.5-.95,1.21-1.71,2.14-2.27.93-.56,2.03-.84,3.31-.84s2.44.28,3.37.83,1.65,1.36,2.16,2.42c.51,1.06.76,2.38.76,3.96v9.53h-3.89v-9.18c0-1.36-.3-2.41-.91-3.14-.61-.74-1.5-1.1-2.69-1.1-.78,0-1.48.18-2.09.55s-1.1.9-1.46,1.6c-.36.7-.54,1.55-.54,2.55v8.72h-3.89Z"/>
    <path d="M942.16,120.95c-1.51,0-2.86-.37-4.05-1.1-1.19-.74-2.11-1.75-2.77-3.05s-.99-2.77-.99-4.41.33-3.11,1.01-4.39c.67-1.29,1.61-2.3,2.8-3.05,1.2-.75,2.56-1.12,4.07-1.12,1.23,0,2.31.23,3.23.7.92.47,1.65,1.12,2.19,1.96v-9.27h3.89v23.35h-3.5l-.39-2.37c-.35.48-.77.92-1.26,1.35s-1.09.76-1.78,1.02c-.69.26-1.5.39-2.43.39ZM942.97,117.57c.93,0,1.75-.22,2.46-.67.71-.44,1.26-1.05,1.65-1.83.39-.78.58-1.68.58-2.69s-.2-1.91-.58-2.69-.94-1.38-1.65-1.82c-.71-.43-1.54-.65-2.46-.65s-1.69.22-2.4.65c-.71.43-1.27,1.04-1.67,1.82-.4.78-.6,1.68-.6,2.69s.2,1.91.6,2.69c.4.78.96,1.39,1.67,1.83.71.44,1.51.67,2.4.67Z"/>
    <path d="M963.76,127.69v-23.48h3.47l.42,2.37c.35-.48.76-.92,1.25-1.35s1.08-.76,1.78-1.02c.7-.26,1.51-.39,2.42-.39,1.53,0,2.89.38,4.07,1.14,1.18.76,2.1,1.78,2.77,3.06.67,1.29,1.01,2.75,1.01,4.39s-.34,3.11-1.02,4.39c-.68,1.29-1.61,2.3-2.79,3.03-1.18.73-2.52,1.1-4.04,1.1-1.23,0-2.31-.23-3.23-.7s-1.66-1.13-2.22-1.99v9.44h-3.89ZM972.29,117.57c.91,0,1.72-.22,2.43-.65.71-.43,1.27-1.04,1.67-1.82.4-.78.6-1.67.6-2.69s-.2-1.95-.6-2.72c-.4-.78-.96-1.38-1.67-1.82-.71-.43-1.52-.65-2.43-.65s-1.75.22-2.45.65c-.7.43-1.25,1.04-1.65,1.82-.4.78-.6,1.68-.6,2.69s.2,1.94.6,2.71c.4.77.95,1.37,1.65,1.82s1.52.67,2.45.67Z"/>
    <path d="M990.16,120.95c-1.34,0-2.45-.23-3.34-.68s-1.55-1.06-1.98-1.82c-.43-.76-.65-1.58-.65-2.46,0-1.04.26-1.93.79-2.69.53-.76,1.31-1.35,2.35-1.77,1.04-.42,2.31-.63,3.83-.63h4.12c0-.86-.12-1.58-.36-2.16-.24-.57-.61-1-1.1-1.28-.5-.28-1.13-.42-1.91-.42-.89,0-1.64.2-2.27.6-.63.4-1.02,1.01-1.17,1.83h-3.83c.13-1.17.52-2.17,1.17-3s1.51-1.48,2.58-1.95c1.07-.46,2.24-.7,3.52-.7,1.54,0,2.84.26,3.92.79,1.08.53,1.91,1.29,2.48,2.27.57.98.86,2.17.86,3.55v10.12h-3.31l-.39-2.63c-.22.43-.49.83-.83,1.2-.34.37-.72.69-1.15.96-.43.27-.92.48-1.48.63-.55.15-1.17.23-1.86.23ZM991.03,117.87c.63,0,1.18-.11,1.67-.34.49-.23.91-.55,1.27-.97.36-.42.63-.89.83-1.41.2-.52.32-1.07.39-1.65v-.07h-3.6c-.76,0-1.38.1-1.88.29-.5.19-.85.46-1.07.79-.22.33-.32.73-.32,1.18s.11.84.32,1.17c.22.32.53.57.94.75.41.17.9.26,1.46.26Z"/>
    <path d="M1010.17,120.56c-1.1,0-2.06-.17-2.87-.52-.81-.34-1.44-.92-1.9-1.72-.45-.8-.68-1.88-.68-3.24v-7.59h-2.79v-3.28h2.79l.45-4.31h3.44v4.31h4.44v3.28h-4.44v7.59c0,.82.18,1.39.54,1.7.36.31.96.47,1.8.47h2.01v3.31h-2.79Z"/>
    <path d="M1016.72,120.56v-23.35h3.89v9.53c.54-.89,1.28-1.59,2.21-2.12.93-.53,1.98-.79,3.15-.79,1.34,0,2.48.28,3.41.83.93.55,1.64,1.36,2.12,2.43s.73,2.41.73,4.01v9.47h-3.86v-9.11c0-1.41-.3-2.48-.89-3.21-.59-.74-1.5-1.1-2.71-1.1-.78,0-1.48.19-2.11.57-.63.38-1.12.92-1.49,1.62s-.55,1.56-.55,2.58v8.66h-3.89Z"/>
    <path d="M1047.1,120.56v-18.26l-4.02,1.04v-3.02l5.58-2.46h2.43v22.7h-3.99Z"/>
    <path d="M859.44,161.19c-.69,0-1.33-.17-1.93-.52s-1.06-.82-1.41-1.41c-.35-.59-.52-1.25-.52-1.96s.17-1.4.52-1.99c.35-.59.82-1.06,1.41-1.41s1.24-.52,1.93-.52c.73,0,1.4.17,1.99.52s1.06.82,1.41,1.41c.35.6.52,1.26.52,1.99s-.17,1.37-.52,1.96c-.35.59-.82,1.06-1.41,1.41s-1.26.52-1.99.52Z"/>
    <path d="M874.07,168.1v-22.7h3.18l8.04,15.86,8.01-15.86h3.21v22.7h-2.72v-17.84l-7.49,14.66h-2.04l-7.46-14.59v17.77h-2.72Z"/>
    <path d="M907.14,168.48c-1.25,0-2.35-.25-3.29-.75s-1.67-1.26-2.17-2.3c-.51-1.04-.76-2.34-.76-3.89v-9.79h2.72v9.5c0,1.62.36,2.84,1.07,3.66.71.82,1.72,1.23,3.02,1.23.91,0,1.73-.22,2.46-.66.73-.44,1.31-1.08,1.73-1.91.42-.83.63-1.87.63-3.1v-8.72h2.72v16.34h-2.46l-.16-2.85c-.5,1.02-1.23,1.81-2.21,2.38-.97.57-2.08.86-3.31.86Z"/>
    <path d="M919.79,168.1v-23.35h2.72v23.35h-2.72Z"/>
    <path d="M933.44,168.1c-.97,0-1.82-.15-2.53-.45-.71-.3-1.26-.82-1.64-1.54-.38-.72-.57-1.7-.57-2.93v-9.11h-2.85v-2.3h2.85l.36-3.96h2.37v3.96h4.73v2.3h-4.73v9.11c0,1.02.21,1.7.62,2.06.41.36,1.13.54,2.17.54h1.75v2.33h-2.53Z"/>
    <path d="M941.35,148.28c-.54,0-.99-.18-1.35-.54-.36-.36-.54-.81-.54-1.35s.18-.98.54-1.31c.36-.33.8-.5,1.35-.5s.96.17,1.33.5c.37.34.55.77.55,1.31s-.18.99-.55,1.35c-.37.36-.81.54-1.33.54ZM939.99,168.1v-16.34h2.72v16.34h-2.72Z"/>
    <path d="M953.68,168.48c-1.34,0-2.52-.23-3.54-.68-1.02-.46-1.82-1.09-2.42-1.9s-.96-1.77-1.09-2.87h2.79c.11.56.33,1.08.68,1.56.35.48.82.86,1.41,1.15.59.29,1.32.44,2.19.44.76,0,1.38-.11,1.88-.34.5-.23.87-.54,1.12-.92.25-.39.37-.81.37-1.26,0-.67-.16-1.18-.47-1.52-.31-.35-.77-.62-1.38-.83-.61-.21-1.34-.38-2.21-.54-.71-.13-1.42-.3-2.11-.52-.69-.21-1.31-.5-1.85-.86-.54-.36-.97-.79-1.28-1.31-.31-.52-.47-1.16-.47-1.91,0-.93.24-1.76.73-2.48.49-.72,1.17-1.29,2.06-1.7.89-.41,1.92-.62,3.11-.62,1.75,0,3.17.42,4.25,1.26,1.08.84,1.72,2.07,1.91,3.67h-2.69c-.11-.82-.46-1.46-1.05-1.93s-1.41-.7-2.45-.7-1.79.21-2.32.62c-.53.41-.79.95-.79,1.62,0,.43.15.82.44,1.15.29.33.73.62,1.31.86s1.29.43,2.11.58c1.08.19,2.06.45,2.95.78s1.61.81,2.16,1.44c.55.64.83,1.54.83,2.71,0,1.02-.25,1.9-.76,2.66s-1.23,1.35-2.16,1.77c-.93.42-2.02.63-3.28.63Z"/>
    <path d="M965.42,148.28c-.54,0-.99-.18-1.35-.54-.36-.36-.54-.81-.54-1.35s.18-.98.54-1.31c.36-.33.8-.5,1.35-.5s.96.17,1.33.5c.37.34.55.77.55,1.31s-.18.99-.55,1.35c-.37.36-.81.54-1.33.54ZM964.05,168.1v-16.34h2.72v16.34h-2.72Z"/>
    <path d="M978.03,175.62c-1.47,0-2.77-.19-3.91-.57-1.13-.38-2.02-.96-2.64-1.74s-.94-1.74-.94-2.89c0-.5.1-1.03.31-1.59s.56-1.11,1.07-1.65c.51-.54,1.23-1.03,2.16-1.46l1.88,1.1c-1.15.47-1.89,1.02-2.24,1.64-.35.62-.52,1.18-.52,1.7,0,.71.21,1.31.62,1.78.41.48.98.83,1.72,1.07.73.24,1.57.36,2.5.36s1.73-.14,2.4-.41c.67-.27,1.19-.64,1.56-1.1.37-.46.55-1.02.55-1.67,0-.76-.28-1.39-.84-1.9s-1.63-.8-3.21-.89c-1.28-.09-2.35-.21-3.21-.36-.87-.15-1.58-.33-2.14-.54-.56-.21-1.03-.44-1.41-.7-.38-.26-.72-.53-1.02-.81v-.75l3.15-3.11,2.37.84-3.24,2.92.42-1.13c.24.17.46.34.68.49.22.15.51.28.88.39.37.11.88.21,1.54.29.66.09,1.53.17,2.61.26,1.49.11,2.69.37,3.58.78.9.41,1.54.96,1.95,1.65s.6,1.51.6,2.46-.25,1.81-.76,2.64c-.51.83-1.29,1.52-2.35,2.06-1.06.54-2.42.81-4.09.81ZM978,162.97c-1.36,0-2.52-.26-3.49-.78-.96-.52-1.69-1.22-2.19-2.09s-.75-1.85-.75-2.93.25-2.05.76-2.92c.51-.86,1.24-1.56,2.19-2.09.95-.53,2.11-.79,3.47-.79s2.52.26,3.47.79c.95.53,1.67,1.23,2.17,2.09.5.86.75,1.84.75,2.92s-.25,2.06-.75,2.93c-.5.88-1.22,1.57-2.17,2.09-.95.52-2.11.78-3.47.78ZM978,160.73c1.17,0,2.09-.3,2.76-.91.67-.6,1.01-1.49,1.01-2.66s-.34-2.02-1.01-2.63-1.59-.91-2.76-.91-2.07.3-2.77.91-1.05,1.48-1.05,2.63.35,2.05,1.04,2.66c.69.61,1.62.91,2.79.91ZM980.66,154.05l-.81-2.3h6.68v2.04l-5.87.26Z"/>
    <path d="M990.65,155.06c-.54,0-.99-.18-1.35-.53-.36-.36-.54-.79-.54-1.31s.18-.96.54-1.31c.36-.36.8-.54,1.35-.54s.98.18,1.33.54c.35.36.52.79.52,1.31s-.17.96-.52,1.31c-.35.36-.79.53-1.33.53ZM990.65,168.26c-.54,0-.99-.18-1.35-.54-.36-.36-.54-.79-.54-1.31s.18-.96.54-1.31c.36-.36.8-.54,1.35-.54s.98.18,1.33.54.52.79.52,1.31-.17.96-.52,1.31c-.35.36-.79.54-1.33.54Z"/>
    <path d="M1010.78,168.48c-1.25,0-2.35-.25-3.29-.75s-1.67-1.26-2.17-2.3c-.51-1.04-.76-2.34-.76-3.89v-9.79h2.72v9.5c0,1.62.36,2.84,1.07,3.66.71.82,1.72,1.23,3.02,1.23.91,0,1.73-.22,2.46-.66.73-.44,1.31-1.08,1.73-1.91.42-.83.63-1.87.63-3.1v-8.72h2.72v16.34h-2.46l-.16-2.85c-.5,1.02-1.23,1.81-2.21,2.38-.97.57-2.08.86-3.31.86Z"/>
    <path d="M1029.59,168.48c-1.34,0-2.52-.23-3.54-.68-1.02-.46-1.82-1.09-2.42-1.9s-.96-1.77-1.09-2.87h2.79c.11.56.33,1.08.68,1.56.35.48.82.86,1.41,1.15.59.29,1.32.44,2.19.44.76,0,1.38-.11,1.88-.34.5-.23.87-.54,1.12-.92.25-.39.37-.81.37-1.26,0-.67-.16-1.18-.47-1.52-.31-.35-.77-.62-1.38-.83-.61-.21-1.34-.38-2.21-.54-.71-.13-1.42-.3-2.11-.52-.69-.21-1.31-.5-1.85-.86-.54-.36-.97-.79-1.28-1.31-.31-.52-.47-1.16-.47-1.91,0-.93.24-1.76.73-2.48.49-.72,1.17-1.29,2.06-1.7.89-.41,1.92-.62,3.11-.62,1.75,0,3.17.42,4.25,1.26,1.08.84,1.72,2.07,1.91,3.67h-2.69c-.11-.82-.46-1.46-1.05-1.93s-1.41-.7-2.45-.7-1.79.21-2.32.62c-.53.41-.79.95-.79,1.62,0,.43.15.82.44,1.15.29.33.73.62,1.31.86s1.29.43,2.11.58c1.08.19,2.06.45,2.95.78s1.61.81,2.16,1.44c.55.64.83,1.54.83,2.71,0,1.02-.25,1.9-.76,2.66s-1.23,1.35-2.16,1.77c-.93.42-2.02.63-3.28.63Z"/>
    <path d="M1046.88,168.48c-1.51,0-2.86-.36-4.05-1.07-1.19-.71-2.12-1.71-2.79-3-.67-1.29-1.01-2.78-1.01-4.49s.33-3.23.99-4.51c.66-1.28,1.59-2.27,2.79-2.98,1.2-.71,2.58-1.07,4.13-1.07s2.96.36,4.09,1.07c1.12.71,1.98,1.65,2.58,2.8.59,1.16.89,2.43.89,3.81v.68c0,.24-.01.51-.03.81h-13.39v-2.11h10.73c-.07-1.49-.56-2.66-1.48-3.5-.92-.84-2.07-1.26-3.45-1.26-.91,0-1.76.21-2.56.63-.8.42-1.44,1.04-1.91,1.85-.48.81-.71,1.82-.71,3.03v.91c0,1.34.24,2.46.73,3.37s1.12,1.59,1.91,2.04c.79.45,1.64.68,2.54.68,1.15,0,2.09-.25,2.84-.76.75-.51,1.29-1.21,1.64-2.09h2.69c-.28,1-.75,1.88-1.39,2.64s-1.45,1.38-2.42,1.83c-.96.45-2.08.68-3.36.68Z"/>
    <path d="M1058.13,168.1v-16.34h2.46l.19,3.11c.37-.73.84-1.36,1.41-1.88.57-.52,1.26-.92,2.08-1.2s1.74-.42,2.77-.42v2.85h-1c-.69,0-1.35.09-1.98.28s-1.18.48-1.67.89c-.49.41-.86.97-1.13,1.67-.27.7-.41,1.57-.41,2.61v8.43h-2.72Z"/>
    <path d="M1084.07,168.48c-1.32,0-2.42-.23-3.31-.7s-1.55-1.08-1.98-1.85c-.43-.77-.65-1.61-.65-2.51,0-1.1.29-2.04.86-2.8.57-.77,1.38-1.35,2.43-1.75,1.05-.4,2.29-.6,3.71-.6h4.31c0-1.02-.16-1.86-.47-2.54s-.77-1.19-1.36-1.54c-.59-.34-1.34-.52-2.22-.52-1.04,0-1.94.26-2.69.78-.76.52-1.22,1.29-1.39,2.3h-2.79c.13-1.17.52-2.15,1.18-2.94.66-.79,1.5-1.39,2.51-1.82,1.02-.42,2.08-.63,3.18-.63,1.51,0,2.77.28,3.78.83,1,.55,1.76,1.32,2.25,2.3.5.98.75,2.15.75,3.49v10.12h-2.43l-.16-2.89c-.22.45-.49.88-.83,1.28-.34.4-.72.75-1.17,1.04-.44.29-.96.52-1.54.7-.58.17-1.24.26-1.98.26ZM1084.49,166.18c.76,0,1.44-.16,2.06-.47s1.14-.75,1.57-1.3c.43-.55.76-1.16.99-1.83.23-.67.34-1.37.34-2.11v-.1h-4.09c-1.06,0-1.91.12-2.56.37-.65.25-1.11.59-1.39,1.04-.28.44-.42.95-.42,1.51s.13,1.09.41,1.52c.27.43.67.77,1.2,1.01.53.24,1.16.36,1.9.36Z"/>
    <path d="M1096.4,168.1v-16.34h2.46l.13,2.85c.52-1.02,1.26-1.81,2.22-2.38.96-.57,2.06-.86,3.29-.86s2.38.25,3.31.76,1.65,1.28,2.17,2.3c.52,1.03.78,2.33.78,3.91v9.76h-2.72v-9.47c0-1.64-.36-2.88-1.09-3.7-.72-.82-1.75-1.23-3.06-1.23-.91,0-1.72.22-2.43.67-.71.44-1.28,1.08-1.7,1.91-.42.83-.63,1.87-.63,3.1v8.72h-2.72Z"/>
    <path d="M1122.24,168.48c-1.58,0-2.97-.37-4.17-1.12-1.2-.75-2.12-1.77-2.77-3.06-.65-1.3-.97-2.77-.97-4.41s.32-3.11.97-4.39c.65-1.29,1.57-2.3,2.77-3.03,1.2-.73,2.6-1.1,4.2-1.1,1.32,0,2.48.27,3.49.81,1,.54,1.79,1.3,2.35,2.27v-9.7h2.72v23.35h-2.46l-.26-2.69c-.35.54-.79,1.04-1.33,1.51-.54.47-1.18.84-1.93,1.13-.75.29-1.62.44-2.61.44ZM1122.53,166.12c1.08,0,2.03-.26,2.85-.78.82-.52,1.46-1.24,1.93-2.16.46-.92.7-2.01.7-3.26s-.23-2.31-.7-3.24c-.47-.93-1.11-1.65-1.93-2.17-.82-.52-1.77-.78-2.85-.78s-1.97.26-2.81.78c-.83.52-1.48,1.24-1.93,2.17s-.68,2.01-.68,3.24.23,2.34.68,3.26,1.1,1.64,1.93,2.16c.83.52,1.77.78,2.81.78Z"/>
    <path d="M1150.13,168.48c-1.34,0-2.52-.23-3.54-.68-1.02-.46-1.82-1.09-2.42-1.9s-.96-1.77-1.09-2.87h2.79c.11.56.33,1.08.68,1.56.35.48.82.86,1.41,1.15.59.29,1.32.44,2.19.44.76,0,1.38-.11,1.88-.34.5-.23.87-.54,1.12-.92.25-.39.37-.81.37-1.26,0-.67-.16-1.18-.47-1.52-.31-.35-.77-.62-1.38-.83-.61-.21-1.34-.38-2.21-.54-.71-.13-1.42-.3-2.11-.52-.69-.21-1.31-.5-1.85-.86-.54-.36-.97-.79-1.28-1.31-.31-.52-.47-1.16-.47-1.91,0-.93.24-1.76.73-2.48.49-.72,1.17-1.29,2.06-1.7.89-.41,1.92-.62,3.11-.62,1.75,0,3.17.42,4.25,1.26,1.08.84,1.72,2.07,1.91,3.67h-2.69c-.11-.82-.46-1.46-1.05-1.93s-1.41-.7-2.45-.7-1.79.21-2.32.62c-.53.41-.79.95-.79,1.62,0,.43.15.82.44,1.15.29.33.73.62,1.31.86s1.29.43,2.11.58c1.08.19,2.06.45,2.95.78s1.61.81,2.16,1.44c.55.64.83,1.54.83,2.71,0,1.02-.25,1.9-.76,2.66s-1.23,1.35-2.16,1.77c-.93.42-2.02.63-3.28.63Z"/>
    <path d="M1167.41,168.48c-1.51,0-2.86-.36-4.05-1.07-1.19-.71-2.12-1.71-2.79-3-.67-1.29-1.01-2.78-1.01-4.49s.33-3.23.99-4.51c.66-1.28,1.59-2.27,2.79-2.98,1.2-.71,2.58-1.07,4.13-1.07s2.96.36,4.09,1.07c1.12.71,1.98,1.65,2.58,2.8.59,1.16.89,2.43.89,3.81v.68c0,.24-.01.51-.03.81h-13.39v-2.11h10.73c-.07-1.49-.56-2.66-1.48-3.5-.92-.84-2.07-1.26-3.45-1.26-.91,0-1.76.21-2.56.63-.8.42-1.44,1.04-1.91,1.85-.48.81-.71,1.82-.71,3.03v.91c0,1.34.24,2.46.73,3.37s1.12,1.59,1.91,2.04c.79.45,1.64.68,2.54.68,1.15,0,2.09-.25,2.84-.76.75-.51,1.29-1.21,1.64-2.09h2.69c-.28,1-.75,1.88-1.39,2.64s-1.45,1.38-2.42,1.83c-.96.45-2.08.68-3.36.68Z"/>
    <path d="M1178.67,168.1v-16.34h2.46l.19,3.11c.37-.73.84-1.36,1.41-1.88.57-.52,1.26-.92,2.08-1.2s1.74-.42,2.77-.42v2.85h-1c-.69,0-1.35.09-1.98.28s-1.18.48-1.67.89c-.49.41-.86.97-1.13,1.67-.27.7-.41,1.57-.41,2.61v8.43h-2.72Z"/>
    <path d="M1195.37,168.1l-6.19-16.34h2.85l4.93,13.72,4.96-13.72h2.79l-6.19,16.34h-3.15Z"/>
    <path d="M1214.11,168.48c-1.51,0-2.86-.36-4.05-1.07-1.19-.71-2.12-1.71-2.79-3-.67-1.29-1.01-2.78-1.01-4.49s.33-3.23.99-4.51c.66-1.28,1.59-2.27,2.79-2.98,1.2-.71,2.58-1.07,4.13-1.07s2.96.36,4.09,1.07c1.12.71,1.98,1.65,2.58,2.8.59,1.16.89,2.43.89,3.81v.68c0,.24-.01.51-.03.81h-13.39v-2.11h10.73c-.07-1.49-.56-2.66-1.48-3.5-.92-.84-2.07-1.26-3.45-1.26-.91,0-1.76.21-2.56.63-.8.42-1.44,1.04-1.91,1.85-.48.81-.71,1.82-.71,3.03v.91c0,1.34.24,2.46.73,3.37s1.12,1.59,1.91,2.04c.79.45,1.64.68,2.54.68,1.15,0,2.09-.25,2.84-.76.75-.51,1.29-1.21,1.64-2.09h2.69c-.28,1-.75,1.88-1.39,2.64s-1.45,1.38-2.42,1.83c-.96.45-2.08.68-3.36.68Z"/>
    <path d="M1225.36,168.1v-16.34h2.46l.19,3.11c.37-.73.84-1.36,1.41-1.88.57-.52,1.26-.92,2.08-1.2s1.74-.42,2.77-.42v2.85h-1c-.69,0-1.35.09-1.98.28s-1.18.48-1.67.89c-.49.41-.86.97-1.13,1.67-.27.7-.41,1.57-.41,2.61v8.43h-2.72Z"/>
    <path d="M859.44,204.67c-.69,0-1.33-.17-1.93-.52-.59-.35-1.06-.82-1.41-1.41-.35-.59-.52-1.25-.52-1.96s.17-1.4.52-1.99c.35-.59.82-1.07,1.41-1.41s1.24-.52,1.93-.52c.73,0,1.4.17,1.99.52s1.06.82,1.41,1.41c.35.59.52,1.26.52,1.99s-.17,1.37-.52,1.96c-.35.59-.82,1.06-1.41,1.41-.59.35-1.26.52-1.99.52Z"/>
    <path d="M882.24,211.97c-1.56,0-2.97-.31-4.23-.94s-2.28-1.58-3.03-2.87-1.13-2.94-1.13-4.95v-14.33h2.72v14.37c0,1.47.24,2.67.73,3.6s1.16,1.61,2.03,2.04c.86.43,1.86.65,2.98.65s2.14-.22,2.98-.65c.84-.43,1.5-1.11,1.98-2.04s.71-2.13.71-3.6v-14.37h2.72v14.33c0,2.01-.38,3.66-1.13,4.95-.76,1.29-1.77,2.24-3.05,2.87s-2.7.94-4.28.94Z"/>
    <path d="M901.34,211.97c-1.34,0-2.52-.23-3.54-.68s-1.82-1.09-2.42-1.9-.96-1.77-1.09-2.87h2.79c.11.56.33,1.08.68,1.56.35.48.82.86,1.41,1.15.59.29,1.32.44,2.19.44.76,0,1.38-.11,1.88-.34s.87-.54,1.12-.92c.25-.39.37-.81.37-1.26,0-.67-.16-1.18-.47-1.52-.31-.35-.77-.62-1.38-.83-.61-.21-1.34-.38-2.21-.54-.71-.13-1.42-.3-2.11-.52s-1.31-.5-1.85-.86c-.54-.36-.97-.79-1.28-1.31-.31-.52-.47-1.16-.47-1.91,0-.93.24-1.76.73-2.48.49-.72,1.17-1.29,2.06-1.7.89-.41,1.92-.62,3.11-.62,1.75,0,3.17.42,4.25,1.26s1.72,2.07,1.91,3.67h-2.69c-.11-.82-.46-1.46-1.05-1.93s-1.41-.7-2.45-.7-1.79.21-2.32.62c-.53.41-.79.95-.79,1.62,0,.43.15.82.44,1.15.29.34.73.62,1.31.86s1.29.43,2.11.58c1.08.19,2.06.45,2.95.78s1.61.81,2.16,1.44c.55.64.83,1.54.83,2.71,0,1.02-.25,1.9-.76,2.66-.51.76-1.23,1.35-2.16,1.77-.93.42-2.02.63-3.28.63Z"/>
    <path d="M918.62,211.97c-1.51,0-2.86-.36-4.05-1.07-1.19-.71-2.12-1.71-2.79-3-.67-1.29-1.01-2.78-1.01-4.49s.33-3.23.99-4.51c.66-1.28,1.59-2.27,2.79-2.98,1.2-.71,2.58-1.07,4.13-1.07s2.96.36,4.09,1.07c1.12.71,1.98,1.65,2.58,2.8.59,1.16.89,2.43.89,3.81v.68c0,.24-.01.51-.03.81h-13.39v-2.11h10.73c-.07-1.49-.56-2.66-1.48-3.5s-2.07-1.26-3.45-1.26c-.91,0-1.76.21-2.56.63-.8.42-1.44,1.04-1.91,1.85-.48.81-.71,1.82-.71,3.03v.91c0,1.34.24,2.46.73,3.37s1.12,1.59,1.91,2.04c.79.46,1.64.68,2.54.68,1.15,0,2.09-.25,2.84-.76s1.29-1.21,1.64-2.09h2.69c-.28.99-.75,1.88-1.39,2.64s-1.45,1.38-2.42,1.83-2.08.68-3.36.68Z"/>
    <path d="M929.88,211.58v-16.34h2.46l.19,3.11c.37-.73.84-1.36,1.41-1.88.57-.52,1.26-.92,2.08-1.2s1.74-.42,2.77-.42v2.85h-1c-.69,0-1.35.09-1.98.28-.63.18-1.18.48-1.67.89s-.86.97-1.13,1.67c-.27.7-.41,1.57-.41,2.61v8.43h-2.72Z"/>
    <path d="M950.5,218.71v-23.48h2.46l.23,2.66c.35-.52.79-1.01,1.33-1.48.54-.46,1.19-.84,1.95-1.13.76-.29,1.63-.44,2.63-.44,1.58,0,2.96.38,4.13,1.13,1.18.76,2.1,1.78,2.76,3.06.66,1.29.99,2.75.99,4.39s-.33,3.11-.99,4.39c-.66,1.29-1.58,2.3-2.77,3.03-1.19.74-2.57,1.1-4.15,1.1-1.32,0-2.49-.27-3.5-.81-1.02-.54-1.79-1.3-2.33-2.27v9.83h-2.72ZM958.74,209.6c1.06,0,2-.26,2.84-.78.83-.52,1.48-1.24,1.95-2.16.46-.92.7-2,.7-3.26s-.23-2.31-.7-3.24-1.11-1.65-1.95-2.17c-.83-.52-1.78-.78-2.84-.78s-2.03.26-2.85.78c-.82.52-1.46,1.24-1.91,2.17s-.68,2.01-.68,3.24.23,2.34.68,3.26c.45.92,1.09,1.64,1.91,2.16.82.52,1.77.78,2.85.78Z"/>
    <path d="M970.83,211.58v-16.34h2.46l.19,3.11c.37-.73.84-1.36,1.41-1.88.57-.52,1.26-.92,2.08-1.2s1.74-.42,2.77-.42v2.85h-1c-.69,0-1.35.09-1.98.28-.63.18-1.18.48-1.67.89s-.86.97-1.13,1.67c-.27.7-.41,1.57-.41,2.61v8.43h-2.72Z"/>
    <path d="M989.38,211.97c-1.51,0-2.86-.36-4.05-1.07-1.19-.71-2.12-1.71-2.79-3-.67-1.29-1.01-2.78-1.01-4.49s.33-3.23.99-4.51c.66-1.28,1.59-2.27,2.79-2.98,1.2-.71,2.58-1.07,4.13-1.07s2.96.36,4.09,1.07c1.12.71,1.98,1.65,2.58,2.8.59,1.16.89,2.43.89,3.81v.68c0,.24-.01.51-.03.81h-13.39v-2.11h10.73c-.07-1.49-.56-2.66-1.48-3.5s-2.07-1.26-3.45-1.26c-.91,0-1.76.21-2.56.63-.8.42-1.44,1.04-1.91,1.85-.48.81-.71,1.82-.71,3.03v.91c0,1.34.24,2.46.73,3.37s1.12,1.59,1.91,2.04c.79.46,1.64.68,2.54.68,1.15,0,2.09-.25,2.84-.76s1.29-1.21,1.64-2.09h2.69c-.28.99-.75,1.88-1.39,2.64s-1.45,1.38-2.42,1.83-2.08.68-3.36.68Z"/>
    <path d="M1000.73,203.15v-2.3h12.84v2.3h-12.84Z"/>
    <path d="M1024.34,211.97c-1.34,0-2.52-.23-3.54-.68s-1.82-1.09-2.42-1.9-.96-1.77-1.09-2.87h2.79c.11.56.33,1.08.68,1.56.35.48.82.86,1.41,1.15.59.29,1.32.44,2.19.44.76,0,1.38-.11,1.88-.34s.87-.54,1.12-.92c.25-.39.37-.81.37-1.26,0-.67-.16-1.18-.47-1.52-.31-.35-.77-.62-1.38-.83-.61-.21-1.34-.38-2.21-.54-.71-.13-1.42-.3-2.11-.52s-1.31-.5-1.85-.86c-.54-.36-.97-.79-1.28-1.31-.31-.52-.47-1.16-.47-1.91,0-.93.24-1.76.73-2.48.49-.72,1.17-1.29,2.06-1.7.89-.41,1.92-.62,3.11-.62,1.75,0,3.17.42,4.25,1.26s1.72,2.07,1.91,3.67h-2.69c-.11-.82-.46-1.46-1.05-1.93s-1.41-.7-2.45-.7-1.79.21-2.32.62c-.53.41-.79.95-.79,1.62,0,.43.15.82.44,1.15.29.34.73.62,1.31.86s1.29.43,2.11.58c1.08.19,2.06.45,2.95.78s1.61.81,2.16,1.44c.55.64.83,1.54.83,2.71,0,1.02-.25,1.9-.76,2.66-.51.76-1.23,1.35-2.16,1.77-.93.42-2.02.63-3.28.63Z"/>
    <path d="M1036.08,191.77c-.54,0-.99-.18-1.35-.54s-.54-.81-.54-1.35.18-.98.54-1.31c.36-.33.8-.5,1.35-.5s.96.17,1.33.5c.37.34.55.77.55,1.31s-.18.99-.55,1.35c-.37.36-.81.54-1.33.54ZM1034.72,211.58v-16.34h2.72v16.34h-2.72Z"/>
    <path d="M1048.69,219.1c-1.47,0-2.77-.19-3.91-.57-1.13-.38-2.02-.96-2.64-1.73-.63-.78-.94-1.74-.94-2.89,0-.5.1-1.03.31-1.59.21-.56.56-1.11,1.07-1.65.51-.54,1.23-1.03,2.16-1.46l1.88,1.1c-1.15.48-1.89,1.02-2.24,1.64s-.52,1.18-.52,1.7c0,.71.21,1.31.62,1.78.41.48.98.83,1.72,1.07.73.24,1.57.36,2.5.36s1.73-.14,2.4-.41c.67-.27,1.19-.64,1.56-1.1.37-.46.55-1.02.55-1.67,0-.76-.28-1.39-.84-1.9-.56-.51-1.63-.81-3.21-.89-1.28-.09-2.35-.21-3.21-.36-.87-.15-1.58-.33-2.14-.54-.56-.21-1.03-.44-1.41-.7-.38-.26-.72-.53-1.02-.81v-.75l3.15-3.11,2.37.84-3.24,2.92.42-1.13c.24.17.46.34.68.49.22.15.51.28.88.39.37.11.88.21,1.54.29s1.53.17,2.61.26c1.49.11,2.69.37,3.58.78.9.41,1.54.96,1.95,1.65s.6,1.51.6,2.46-.25,1.81-.76,2.64-1.29,1.52-2.35,2.06c-1.06.54-2.42.81-4.09.81ZM1048.66,206.46c-1.36,0-2.52-.26-3.49-.78-.96-.52-1.69-1.22-2.19-2.09-.5-.88-.75-1.85-.75-2.94s.25-2.05.76-2.92c.51-.87,1.24-1.56,2.19-2.09s2.11-.79,3.47-.79,2.52.27,3.47.79c.95.53,1.67,1.23,2.17,2.09.5.86.75,1.84.75,2.92s-.25,2.06-.75,2.94c-.5.88-1.22,1.57-2.17,2.09-.95.52-2.11.78-3.47.78ZM1048.66,204.22c1.17,0,2.09-.3,2.76-.91.67-.6,1.01-1.49,1.01-2.66s-.34-2.02-1.01-2.63c-.67-.6-1.59-.91-2.76-.91s-2.07.3-2.77.91c-.7.61-1.05,1.48-1.05,2.63s.35,2.05,1.04,2.66c.69.61,1.62.91,2.79.91ZM1051.32,197.54l-.81-2.3h6.68v2.04l-5.87.26Z"/>
    <path d="M1060.33,211.58v-16.34h2.46l.13,2.85c.52-1.02,1.26-1.81,2.22-2.38.96-.57,2.06-.86,3.29-.86s2.38.25,3.31.76c.93.51,1.65,1.28,2.17,2.3.52,1.03.78,2.33.78,3.91v9.76h-2.72v-9.47c0-1.64-.36-2.88-1.09-3.7s-1.75-1.23-3.06-1.23c-.91,0-1.72.22-2.43.67-.71.44-1.28,1.08-1.7,1.91-.42.83-.63,1.86-.63,3.1v8.72h-2.72Z"/>
    <path d="M1085.11,211.97c-1.34,0-2.52-.23-3.54-.68s-1.82-1.09-2.42-1.9-.96-1.77-1.09-2.87h2.79c.11.56.33,1.08.68,1.56.35.48.82.86,1.41,1.15.59.29,1.32.44,2.19.44.76,0,1.38-.11,1.88-.34s.87-.54,1.12-.92c.25-.39.37-.81.37-1.26,0-.67-.16-1.18-.47-1.52-.31-.35-.77-.62-1.38-.83-.61-.21-1.34-.38-2.21-.54-.71-.13-1.42-.3-2.11-.52s-1.31-.5-1.85-.86c-.54-.36-.97-.79-1.28-1.31-.31-.52-.47-1.16-.47-1.91,0-.93.24-1.76.73-2.48.49-.72,1.17-1.29,2.06-1.7.89-.41,1.92-.62,3.11-.62,1.75,0,3.17.42,4.25,1.26s1.72,2.07,1.91,3.67h-2.69c-.11-.82-.46-1.46-1.05-1.93s-1.41-.7-2.45-.7-1.79.21-2.32.62c-.53.41-.79.95-.79,1.62,0,.43.15.82.44,1.15.29.34.73.62,1.31.86s1.29.43,2.11.58c1.08.19,2.06.45,2.95.78s1.61.81,2.16,1.44c.55.64.83,1.54.83,2.71,0,1.02-.25,1.9-.76,2.66-.51.76-1.23,1.35-2.16,1.77-.93.42-2.02.63-3.28.63Z"/>
    <path d="M1110.27,211.58c-.97,0-1.82-.15-2.53-.45-.71-.3-1.26-.82-1.64-1.54s-.57-1.7-.57-2.93v-9.11h-2.85v-2.3h2.85l.36-3.96h2.37v3.96h4.73v2.3h-4.73v9.11c0,1.02.21,1.7.62,2.06.41.36,1.13.54,2.17.54h1.75v2.33h-2.53Z"/>
    <path d="M1123.41,211.97c-1.51,0-2.88-.35-4.09-1.05-1.21-.7-2.16-1.7-2.85-2.98-.69-1.29-1.04-2.78-1.04-4.49s.35-3.27,1.05-4.56c.7-1.29,1.67-2.28,2.89-2.98,1.22-.7,2.59-1.05,4.1-1.05s2.93.35,4.13,1.05c1.2.7,2.15,1.7,2.85,2.98.7,1.29,1.05,2.79,1.05,4.52s-.36,3.24-1.07,4.52c-.71,1.29-1.68,2.28-2.89,2.98-1.21.7-2.59,1.05-4.15,1.05ZM1123.44,209.63c.93,0,1.79-.23,2.59-.7.8-.46,1.45-1.16,1.95-2.09s.75-2.08.75-3.44-.24-2.53-.73-3.45c-.49-.92-1.12-1.61-1.91-2.08-.79-.46-1.66-.7-2.61-.7s-1.77.23-2.58.7c-.81.47-1.46,1.16-1.95,2.08-.49.92-.73,2.07-.73,3.45s.24,2.51.73,3.44,1.12,1.63,1.91,2.09c.79.47,1.65.7,2.58.7Z"/>
    <path d="M1142.38,197.54v-2.3h9.34v2.3h-9.34ZM1144.88,211.58v-18.87c0-1.04.17-1.89.52-2.54.34-.66.86-1.15,1.54-1.46.68-.31,1.52-.47,2.51-.47h1.85v2.33h-1.43c-.8,0-1.38.16-1.73.49-.36.32-.54.9-.54,1.72v18.81h-2.72Z"/>
    <path d="M1161.64,211.97c-1.51,0-2.88-.35-4.09-1.05-1.21-.7-2.16-1.7-2.85-2.98-.69-1.29-1.04-2.78-1.04-4.49s.35-3.27,1.05-4.56c.7-1.29,1.67-2.28,2.89-2.98,1.22-.7,2.59-1.05,4.1-1.05s2.93.35,4.13,1.05c1.2.7,2.15,1.7,2.85,2.98.7,1.29,1.05,2.79,1.05,4.52s-.36,3.24-1.07,4.52c-.71,1.29-1.68,2.28-2.89,2.98-1.21.7-2.59,1.05-4.15,1.05ZM1161.67,209.63c.93,0,1.79-.23,2.59-.7.8-.46,1.45-1.16,1.95-2.09s.75-2.08.75-3.44-.24-2.53-.73-3.45c-.49-.92-1.12-1.61-1.91-2.08-.79-.46-1.66-.7-2.61-.7s-1.77.23-2.58.7c-.81.47-1.46,1.16-1.95,2.08-.49.92-.73,2.07-.73,3.45s.24,2.51.73,3.44,1.12,1.63,1.91,2.09c.79.47,1.65.7,2.58.7Z"/>
    <path d="M1173.57,211.58v-16.34h2.46l.19,3.11c.37-.73.84-1.36,1.41-1.88.57-.52,1.26-.92,2.08-1.2s1.74-.42,2.77-.42v2.85h-1c-.69,0-1.35.09-1.98.28-.63.18-1.18.48-1.67.89s-.86.97-1.13,1.67c-.27.7-.41,1.57-.41,2.61v8.43h-2.72Z"/>
    <path d="M1183.98,197.54v-2.3h9.34v2.3h-9.34ZM1186.48,211.58v-18.87c0-1.04.17-1.89.52-2.54.34-.66.86-1.15,1.54-1.46.68-.31,1.52-.47,2.51-.47h1.85v2.33h-1.43c-.8,0-1.38.16-1.73.49-.36.32-.54.9-.54,1.72v18.81h-2.72Z"/>
    <path d="M1203.12,211.97c-1.51,0-2.86-.36-4.05-1.07-1.19-.71-2.12-1.71-2.79-3-.67-1.29-1.01-2.78-1.01-4.49s.33-3.23.99-4.51c.66-1.28,1.59-2.27,2.79-2.98,1.2-.71,2.58-1.07,4.13-1.07s2.96.36,4.09,1.07c1.12.71,1.98,1.65,2.58,2.8.59,1.16.89,2.43.89,3.81v.68c0,.24-.01.51-.03.81h-13.39v-2.11h10.73c-.07-1.49-.56-2.66-1.48-3.5s-2.07-1.26-3.45-1.26c-.91,0-1.76.21-2.56.63-.8.42-1.44,1.04-1.91,1.85-.48.81-.71,1.82-.71,3.03v.91c0,1.34.24,2.46.73,3.37s1.12,1.59,1.91,2.04c.79.46,1.64.68,2.54.68,1.15,0,2.09-.25,2.84-.76s1.29-1.21,1.64-2.09h2.69c-.28.99-.75,1.88-1.39,2.64s-1.45,1.38-2.42,1.83-2.08.68-3.36.68Z"/>
    <path d="M1215.99,191.77c-.54,0-.99-.18-1.35-.54s-.54-.81-.54-1.35.18-.98.54-1.31c.36-.33.8-.5,1.35-.5s.96.17,1.33.5c.37.34.55.77.55,1.31s-.18.99-.55,1.35c-.37.36-.81.54-1.33.54ZM1214.63,211.58v-16.34h2.72v16.34h-2.72Z"/>
    <path d="M1228.57,211.58c-.97,0-1.82-.15-2.53-.45-.71-.3-1.26-.82-1.64-1.54s-.57-1.7-.57-2.93v-9.11h-2.85v-2.3h2.85l.36-3.96h2.37v3.96h4.73v2.3h-4.73v9.11c0,1.02.21,1.7.62,2.06.41.36,1.13.54,2.17.54h1.75v2.33h-2.53Z"/>
    <path d="M859.44,248.16c-.69,0-1.33-.17-1.93-.52-.59-.35-1.06-.82-1.41-1.41-.35-.59-.52-1.25-.52-1.96s.17-1.4.52-1.99c.35-.59.82-1.07,1.41-1.41s1.24-.52,1.93-.52c.73,0,1.4.17,1.99.52s1.06.82,1.41,1.41c.35.59.52,1.26.52,1.99s-.17,1.37-.52,1.96c-.35.59-.82,1.06-1.41,1.41-.59.35-1.26.52-1.99.52Z"/>
    <path d="M874.07,255.07v-22.7h2.72v22.7h-2.72ZM876.27,244.62v-2.24h12.97v2.24h-12.97ZM888.56,255.07v-22.7h2.72v22.7h-2.72Z"/>
    <path d="M903.15,255.45c-1.51,0-2.86-.36-4.05-1.07-1.19-.71-2.12-1.71-2.79-3-.67-1.29-1.01-2.78-1.01-4.49s.33-3.23.99-4.51c.66-1.28,1.59-2.27,2.79-2.98,1.2-.71,2.58-1.07,4.13-1.07s2.96.36,4.09,1.07c1.12.71,1.98,1.65,2.58,2.8.59,1.16.89,2.43.89,3.81v.68c0,.24-.01.51-.03.81h-13.39v-2.11h10.73c-.07-1.49-.56-2.66-1.48-3.5s-2.07-1.26-3.45-1.26c-.91,0-1.76.21-2.56.63-.8.42-1.44,1.04-1.91,1.85-.48.81-.71,1.82-.71,3.03v.91c0,1.34.24,2.46.73,3.37s1.12,1.59,1.91,2.04c.79.46,1.64.68,2.54.68,1.15,0,2.09-.25,2.84-.76s1.29-1.21,1.64-2.09h2.69c-.28.99-.75,1.88-1.39,2.64s-1.45,1.38-2.42,1.83-2.08.68-3.36.68Z"/>
    <path d="M914.41,255.07v-23.35h2.72v23.35h-2.72Z"/>
    <path d="M928.87,255.45c-1.58,0-2.97-.37-4.17-1.12-1.2-.75-2.12-1.77-2.77-3.06-.65-1.3-.97-2.77-.97-4.41s.32-3.11.97-4.39c.65-1.29,1.57-2.3,2.77-3.03,1.2-.73,2.6-1.1,4.2-1.1,1.32,0,2.48.27,3.49.81,1,.54,1.79,1.3,2.35,2.27v-9.7h2.72v23.35h-2.46l-.26-2.69c-.35.54-.79,1.04-1.33,1.51-.54.47-1.18.84-1.93,1.13s-1.62.44-2.61.44ZM929.16,253.09c1.08,0,2.03-.26,2.85-.78.82-.52,1.46-1.24,1.93-2.16.46-.92.7-2,.7-3.26s-.23-2.31-.7-3.24c-.47-.93-1.11-1.65-1.93-2.17-.82-.52-1.77-.78-2.85-.78s-1.97.26-2.81.78-1.48,1.24-1.93,2.17-.68,2.01-.68,3.24.23,2.34.68,3.26c.45.92,1.1,1.64,1.93,2.16.83.52,1.77.78,2.81.78Z"/>
    <path d="M957.89,255.45c-1.51,0-2.88-.35-4.09-1.05-1.21-.7-2.16-1.7-2.85-2.98-.69-1.29-1.04-2.78-1.04-4.49s.35-3.27,1.05-4.56c.7-1.29,1.67-2.28,2.89-2.98,1.22-.7,2.59-1.05,4.1-1.05s2.93.35,4.13,1.05c1.2.7,2.15,1.7,2.85,2.98.7,1.29,1.05,2.79,1.05,4.52s-.36,3.24-1.07,4.52c-.71,1.29-1.68,2.28-2.89,2.98-1.21.7-2.59,1.05-4.15,1.05ZM957.93,253.12c.93,0,1.79-.23,2.59-.7.8-.46,1.45-1.16,1.95-2.09s.75-2.08.75-3.44-.24-2.53-.73-3.45c-.49-.92-1.12-1.61-1.91-2.08-.79-.46-1.66-.7-2.61-.7s-1.77.23-2.58.7c-.81.47-1.46,1.16-1.95,2.08-.49.92-.73,2.07-.73,3.45s.24,2.51.73,3.44,1.12,1.63,1.91,2.09c.79.47,1.65.7,2.58.7Z"/>
    <path d="M968.24,241.02v-2.3h9.34v2.3h-9.34ZM970.73,255.07v-18.87c0-1.04.17-1.89.52-2.54.34-.66.86-1.15,1.54-1.46.68-.31,1.52-.47,2.51-.47h1.85v2.33h-1.43c-.8,0-1.38.16-1.73.49-.36.32-.54.9-.54,1.72v18.81h-2.72Z"/>
    <path d="M979.26,241.02v-2.3h9.34v2.3h-9.34ZM981.76,255.07v-18.87c0-1.04.17-1.89.52-2.54.34-.66.86-1.15,1.54-1.46.68-.31,1.52-.47,2.51-.47h1.85v2.33h-1.43c-.8,0-1.38.16-1.73.49-.36.32-.54.9-.54,1.72v18.81h-2.72Z"/>
    <path d="M991.97,246.63v-2.3h12.84v2.3h-12.84Z"/>
    <path d="M1016.78,255.45c-1.54,0-2.91-.36-4.13-1.07-1.22-.71-2.18-1.71-2.87-3-.69-1.29-1.04-2.77-1.04-4.46s.35-3.23,1.04-4.51c.69-1.28,1.65-2.28,2.87-3,1.22-.72,2.6-1.09,4.13-1.09,1.95,0,3.57.5,4.86,1.51,1.3,1.01,2.12,2.35,2.46,4.04h-2.79c-.22-1.02-.75-1.8-1.59-2.37-.84-.56-1.84-.84-2.98-.84-.93,0-1.79.23-2.58.7-.79.47-1.43,1.16-1.91,2.09s-.73,2.08-.73,3.44c0,1.02.14,1.92.42,2.71.28.79.66,1.44,1.13,1.96.48.52,1.03.91,1.67,1.18.64.27,1.3.41,1.99.41.78,0,1.48-.12,2.11-.37.63-.25,1.16-.62,1.59-1.12.43-.5.72-1.08.88-1.75h2.79c-.35,1.64-1.17,2.98-2.48,4-1.31,1.03-2.92,1.54-4.85,1.54Z"/>
    <path d="M1027.97,255.07v-23.35h2.72v9.76c.54-.97,1.3-1.74,2.29-2.3.98-.56,2.06-.84,3.23-.84,1.25,0,2.35.25,3.28.76.93.51,1.64,1.28,2.14,2.32.5,1.04.75,2.35.75,3.92v9.73h-2.69v-9.44c0-1.64-.35-2.88-1.04-3.71-.69-.83-1.7-1.25-3.02-1.25-.93,0-1.77.23-2.51.68-.75.46-1.33,1.1-1.77,1.95s-.65,1.88-.65,3.11v8.66h-2.72Z"/>
    <path d="M1051.93,255.45c-1.32,0-2.42-.23-3.31-.7s-1.55-1.08-1.98-1.85c-.43-.77-.65-1.6-.65-2.51,0-1.1.29-2.04.86-2.81.57-.77,1.38-1.35,2.43-1.75s2.29-.6,3.71-.6h4.31c0-1.02-.16-1.86-.47-2.55-.31-.68-.77-1.19-1.36-1.54-.59-.34-1.34-.52-2.22-.52-1.04,0-1.94.26-2.69.78-.76.52-1.22,1.29-1.39,2.3h-2.79c.13-1.17.52-2.14,1.18-2.93.66-.79,1.5-1.39,2.51-1.82,1.02-.42,2.08-.63,3.18-.63,1.51,0,2.77.28,3.78.83,1,.55,1.76,1.32,2.25,2.3.5.98.75,2.15.75,3.49v10.12h-2.43l-.16-2.89c-.22.45-.49.88-.83,1.28-.34.4-.72.75-1.17,1.04-.44.29-.96.52-1.54.7s-1.24.26-1.98.26ZM1052.36,253.15c.76,0,1.44-.16,2.06-.47.62-.31,1.14-.75,1.57-1.3s.76-1.16.99-1.83c.23-.67.34-1.37.34-2.11v-.1h-4.09c-1.06,0-1.91.12-2.56.37-.65.25-1.11.59-1.39,1.04-.28.44-.42.95-.42,1.51s.13,1.09.41,1.52c.27.43.67.77,1.2,1,.53.24,1.16.36,1.9.36Z"/>
    <path d="M1065.88,235.25c-.54,0-.99-.18-1.35-.54s-.54-.81-.54-1.35.18-.98.54-1.31c.36-.33.8-.5,1.35-.5s.96.17,1.33.5c.37.34.55.77.55,1.31s-.18.99-.55,1.35c-.37.36-.81.54-1.33.54ZM1064.52,255.07v-16.34h2.72v16.34h-2.72Z"/>
    <path d="M1072.04,255.07v-16.34h2.46l.13,2.85c.52-1.02,1.26-1.81,2.22-2.38.96-.57,2.06-.86,3.29-.86s2.38.25,3.31.76c.93.51,1.65,1.28,2.17,2.3.52,1.03.78,2.33.78,3.91v9.76h-2.72v-9.47c0-1.64-.36-2.88-1.09-3.7s-1.75-1.23-3.06-1.23c-.91,0-1.72.22-2.43.67-.71.44-1.28,1.08-1.7,1.91-.42.83-.63,1.86-.63,3.1v8.72h-2.72Z"/>
    <path d="M1104.6,255.45c-1.32,0-2.42-.23-3.31-.7s-1.55-1.08-1.98-1.85c-.43-.77-.65-1.6-.65-2.51,0-1.1.29-2.04.86-2.81.57-.77,1.38-1.35,2.43-1.75s2.29-.6,3.71-.6h4.31c0-1.02-.16-1.86-.47-2.55-.31-.68-.77-1.19-1.36-1.54-.59-.34-1.34-.52-2.22-.52-1.04,0-1.94.26-2.69.78-.76.52-1.22,1.29-1.39,2.3h-2.79c.13-1.17.52-2.14,1.18-2.93.66-.79,1.5-1.39,2.51-1.82,1.02-.42,2.08-.63,3.18-.63,1.51,0,2.77.28,3.78.83,1,.55,1.76,1.32,2.25,2.3.5.98.75,2.15.75,3.49v10.12h-2.43l-.16-2.89c-.22.45-.49.88-.83,1.28-.34.4-.72.75-1.17,1.04-.44.29-.96.52-1.54.7s-1.24.26-1.98.26ZM1105.02,253.15c.76,0,1.44-.16,2.06-.47.62-.31,1.14-.75,1.57-1.3s.76-1.16.99-1.83c.23-.67.34-1.37.34-2.11v-.1h-4.09c-1.06,0-1.91.12-2.56.37-.65.25-1.11.59-1.39,1.04-.28.44-.42.95-.42,1.51s.13,1.09.41,1.52c.27.43.67.77,1.2,1,.53.24,1.16.36,1.9.36Z"/>
    <path d="M1123.08,255.45c-1.34,0-2.52-.23-3.54-.68s-1.82-1.09-2.42-1.9-.96-1.77-1.09-2.87h2.79c.11.56.33,1.08.68,1.56.35.48.82.86,1.41,1.15.59.29,1.32.44,2.19.44.76,0,1.38-.11,1.88-.34s.87-.54,1.12-.92c.25-.39.37-.81.37-1.26,0-.67-.16-1.18-.47-1.52-.31-.35-.77-.62-1.38-.83-.61-.21-1.34-.38-2.21-.54-.71-.13-1.42-.3-2.11-.52s-1.31-.5-1.85-.86c-.54-.36-.97-.79-1.28-1.31-.31-.52-.47-1.16-.47-1.91,0-.93.24-1.76.73-2.48.49-.72,1.17-1.29,2.06-1.7.89-.41,1.92-.62,3.11-.62,1.75,0,3.17.42,4.25,1.26s1.72,2.07,1.91,3.67h-2.69c-.11-.82-.46-1.46-1.05-1.93s-1.41-.7-2.45-.7-1.79.21-2.32.62c-.53.41-.79.95-.79,1.62,0,.43.15.82.44,1.15.29.34.73.62,1.31.86s1.29.43,2.11.58c1.08.19,2.06.45,2.95.78s1.61.81,2.16,1.44c.55.64.83,1.54.83,2.71,0,1.02-.25,1.9-.76,2.66-.51.76-1.23,1.35-2.16,1.77-.93.42-2.02.63-3.28.63Z"/>
    <path d="M1150.39,255.45c-.93,0-1.77-.14-2.51-.41-.75-.27-1.4-.63-1.96-1.09-.56-.45-1.03-.98-1.39-1.59l-.23,2.69h-2.46v-23.35h2.72v9.7c.52-.84,1.26-1.57,2.24-2.17s2.17-.91,3.6-.91c1.6,0,2.99.37,4.17,1.12s2.1,1.76,2.76,3.05c.66,1.29.99,2.75.99,4.39s-.33,3.11-.99,4.41c-.66,1.3-1.58,2.31-2.77,3.05-1.19.74-2.57,1.1-4.15,1.1ZM1150.06,253.09c1.08,0,2.03-.26,2.85-.78.82-.52,1.46-1.24,1.93-2.16.46-.92.7-2,.7-3.26s-.23-2.31-.7-3.24-1.11-1.65-1.93-2.17-1.77-.78-2.85-.78-2.03.26-2.85.78c-.82.52-1.46,1.24-1.91,2.17s-.68,2.01-.68,3.24.23,2.34.68,3.26c.45.92,1.09,1.64,1.91,2.16.82.52,1.77.78,2.85.78Z"/>
    <path d="M1167.48,255.45c-1.32,0-2.42-.23-3.31-.7s-1.55-1.08-1.98-1.85c-.43-.77-.65-1.6-.65-2.51,0-1.1.29-2.04.86-2.81.57-.77,1.38-1.35,2.43-1.75s2.29-.6,3.71-.6h4.31c0-1.02-.16-1.86-.47-2.55-.31-.68-.77-1.19-1.36-1.54-.59-.34-1.34-.52-2.22-.52-1.04,0-1.94.26-2.69.78-.76.52-1.22,1.29-1.39,2.3h-2.79c.13-1.17.52-2.14,1.18-2.93.66-.79,1.5-1.39,2.51-1.82,1.02-.42,2.08-.63,3.18-.63,1.51,0,2.77.28,3.78.83,1,.55,1.76,1.32,2.25,2.3.5.98.75,2.15.75,3.49v10.12h-2.43l-.16-2.89c-.22.45-.49.88-.83,1.28-.34.4-.72.75-1.17,1.04-.44.29-.96.52-1.54.7s-1.24.26-1.98.26ZM1167.9,253.15c.76,0,1.44-.16,2.06-.47.62-.31,1.14-.75,1.57-1.3s.76-1.16.99-1.83c.23-.67.34-1.37.34-2.11v-.1h-4.09c-1.06,0-1.91.12-2.56.37-.65.25-1.11.59-1.39,1.04-.28.44-.42.95-.42,1.51s.13,1.09.41,1.52c.27.43.67.77,1.2,1,.53.24,1.16.36,1.9.36Z"/>
    <path d="M1187.16,255.45c-1.54,0-2.91-.36-4.13-1.07-1.22-.71-2.18-1.71-2.87-3-.69-1.29-1.04-2.77-1.04-4.46s.35-3.23,1.04-4.51c.69-1.28,1.65-2.28,2.87-3,1.22-.72,2.6-1.09,4.13-1.09,1.95,0,3.57.5,4.86,1.51,1.3,1.01,2.12,2.35,2.46,4.04h-2.79c-.22-1.02-.75-1.8-1.59-2.37-.84-.56-1.84-.84-2.98-.84-.93,0-1.79.23-2.58.7-.79.47-1.43,1.16-1.91,2.09s-.73,2.08-.73,3.44c0,1.02.14,1.92.42,2.71.28.79.66,1.44,1.13,1.96.48.52,1.03.91,1.67,1.18.64.27,1.3.41,1.99.41.78,0,1.48-.12,2.11-.37.63-.25,1.16-.62,1.59-1.12.43-.5.72-1.08.88-1.75h2.79c-.35,1.64-1.17,2.98-2.48,4-1.31,1.03-2.92,1.54-4.85,1.54Z"/>
    <path d="M1198.35,255.07v-23.35h2.72v23.35h-2.72ZM1208.4,255.07l-7.78-8.95,7.1-7.39h3.34l-8.14,8.37.03-1.95,8.92,9.92h-3.47Z"/>
    <path d="M1220.63,255.45c-1.25,0-2.35-.25-3.29-.75-.94-.5-1.67-1.27-2.17-2.3s-.76-2.33-.76-3.89v-9.79h2.72v9.5c0,1.62.36,2.84,1.07,3.66.71.82,1.72,1.23,3.02,1.23.91,0,1.73-.22,2.46-.66.73-.44,1.31-1.08,1.73-1.91.42-.83.63-1.86.63-3.1v-8.72h2.72v16.34h-2.46l-.16-2.85c-.5,1.02-1.23,1.81-2.21,2.38-.97.57-2.08.86-3.31.86Z"/>
    <path d="M1233.27,262.2v-23.48h2.46l.23,2.66c.35-.52.79-1.01,1.33-1.48.54-.46,1.19-.84,1.95-1.13.76-.29,1.63-.44,2.63-.44,1.58,0,2.96.38,4.13,1.13,1.18.76,2.1,1.78,2.76,3.06.66,1.29.99,2.75.99,4.39s-.33,3.11-.99,4.39c-.66,1.29-1.58,2.3-2.77,3.03-1.19.74-2.57,1.1-4.15,1.1-1.32,0-2.49-.27-3.5-.81-1.02-.54-1.79-1.3-2.33-2.27v9.83h-2.72ZM1241.51,253.09c1.06,0,2-.26,2.84-.78.83-.52,1.48-1.24,1.95-2.16.46-.92.7-2,.7-3.26s-.23-2.31-.7-3.24-1.11-1.65-1.95-2.17c-.83-.52-1.78-.78-2.84-.78s-2.03.26-2.85.78c-.82.52-1.46,1.24-1.91,2.17s-.68,2.01-.68,3.24.23,2.34.68,3.26c.45.92,1.09,1.64,1.91,2.16.82.52,1.77.78,2.85.78Z"/>
  </g>
  <g>
    <path d="M866.81,350.68c-1.64,0-3.1-.29-4.38-.88s-2.27-1.42-2.98-2.5c-.71-1.08-1.08-2.37-1.1-3.86h4.12c0,.76.18,1.43.54,2.03.36.59.85,1.06,1.49,1.41.64.35,1.41.52,2.32.52.78,0,1.45-.12,2.03-.37.57-.25,1.02-.61,1.33-1.07s.47-1.01.47-1.64c0-.71-.17-1.3-.5-1.77s-.79-.86-1.38-1.18-1.25-.61-2.01-.86c-.76-.25-1.56-.51-2.4-.79-1.79-.6-3.15-1.38-4.05-2.32s-1.36-2.2-1.36-3.78c0-1.32.31-2.45.94-3.41s1.51-1.69,2.64-2.22c1.14-.53,2.45-.79,3.94-.79s2.84.27,3.97.81,2.03,1.29,2.69,2.25,1,2.11,1.02,3.45h-4.15c-.02-.56-.17-1.09-.45-1.57-.28-.49-.69-.89-1.22-1.2-.53-.31-1.17-.47-1.93-.47-.65-.02-1.23.08-1.74.31-.51.23-.91.55-1.2.97-.29.42-.44.95-.44,1.57s.13,1.11.41,1.51.67.74,1.18,1c.52.27,1.12.52,1.82.76.69.24,1.45.5,2.27.78,1.12.37,2.15.82,3.06,1.35.92.53,1.65,1.22,2.19,2.06.54.84.81,1.94.81,3.28,0,1.17-.3,2.25-.91,3.26-.61,1-1.49,1.82-2.66,2.43-1.17.62-2.63.92-4.38.92Z"/>
    <path d="M878.42,357.43v-23.48h3.47l.42,2.37c.35-.48.76-.92,1.25-1.35.49-.42,1.08-.76,1.78-1.02.7-.26,1.51-.39,2.42-.39,1.53,0,2.89.38,4.07,1.13,1.18.76,2.1,1.78,2.77,3.06.67,1.29,1.01,2.75,1.01,4.39s-.34,3.11-1.02,4.39c-.68,1.29-1.61,2.3-2.79,3.03-1.18.74-2.52,1.1-4.04,1.1-1.23,0-2.31-.23-3.23-.7-.92-.46-1.66-1.13-2.22-2v9.44h-3.89ZM886.94,347.31c.91,0,1.72-.22,2.43-.65.71-.43,1.27-1.04,1.67-1.82.4-.78.6-1.67.6-2.69s-.2-1.95-.6-2.72c-.4-.78-.96-1.38-1.67-1.82-.71-.43-1.52-.65-2.43-.65s-1.75.22-2.45.65-1.25,1.04-1.65,1.82c-.4.78-.6,1.67-.6,2.69s.2,1.94.6,2.71c.4.77.95,1.37,1.65,1.82.7.44,1.52.67,2.45.67Z"/>
    <path d="M907.02,350.68c-1.62,0-3.05-.35-4.28-1.05-1.23-.7-2.19-1.69-2.89-2.97-.69-1.28-1.04-2.75-1.04-4.41s.34-3.24,1.02-4.54c.68-1.3,1.64-2.31,2.89-3.05,1.24-.73,2.69-1.1,4.33-1.1s2.99.36,4.18,1.07c1.19.71,2.11,1.67,2.76,2.87.65,1.2.97,2.55.97,4.04v.71c0,.26-.02.53-.07.81h-13.3v-2.5h9.44c-.04-1.19-.44-2.12-1.2-2.81-.76-.68-1.7-1.02-2.82-1.02-.8,0-1.54.18-2.21.55-.67.37-1.2.91-1.59,1.64-.39.72-.58,1.64-.58,2.74v.94c0,1.02.19,1.89.57,2.63.38.74.9,1.29,1.56,1.67.66.38,1.4.57,2.22.57.91,0,1.66-.19,2.25-.58.59-.39,1.03-.91,1.31-1.56h3.96c-.3,1.02-.8,1.93-1.49,2.74-.69.81-1.55,1.45-2.56,1.91-1.02.46-2.16.7-3.44.7Z"/>
    <path d="M918.56,350.29v-16.34h3.44l.29,2.72c.5-.95,1.21-1.71,2.14-2.27.93-.56,2.03-.84,3.31-.84s2.44.28,3.37.83c.93.55,1.65,1.36,2.16,2.42s.76,2.38.76,3.96v9.53h-3.89v-9.18c0-1.36-.3-2.41-.91-3.15-.61-.73-1.5-1.1-2.69-1.1-.78,0-1.48.18-2.09.55s-1.1.9-1.46,1.61c-.36.7-.54,1.55-.54,2.54v8.72h-3.89Z"/>
    <path d="M945.41,350.68c-1.51,0-2.86-.37-4.05-1.1-1.19-.73-2.11-1.75-2.77-3.05s-.99-2.77-.99-4.41.33-3.11,1.01-4.39c.67-1.29,1.61-2.3,2.8-3.05,1.2-.75,2.56-1.12,4.07-1.12,1.23,0,2.31.23,3.23.7s1.65,1.12,2.19,1.96v-9.27h3.89v23.35h-3.5l-.39-2.37c-.35.48-.77.92-1.26,1.35s-1.09.76-1.78,1.02c-.69.26-1.5.39-2.43.39ZM946.22,347.31c.93,0,1.75-.22,2.46-.67.71-.44,1.26-1.05,1.65-1.83.39-.78.58-1.67.58-2.69s-.2-1.91-.58-2.69c-.39-.78-.94-1.38-1.65-1.82-.71-.43-1.54-.65-2.46-.65s-1.69.22-2.4.65c-.71.43-1.27,1.04-1.67,1.82-.4.78-.6,1.67-.6,2.69s.2,1.91.6,2.69c.4.78.96,1.39,1.67,1.83.71.44,1.51.67,2.4.67Z"/>
    <path d="M967.01,357.43v-23.48h3.47l.42,2.37c.35-.48.76-.92,1.25-1.35.49-.42,1.08-.76,1.78-1.02.7-.26,1.51-.39,2.42-.39,1.53,0,2.89.38,4.07,1.13,1.18.76,2.1,1.78,2.77,3.06.67,1.29,1.01,2.75,1.01,4.39s-.34,3.11-1.02,4.39c-.68,1.29-1.61,2.3-2.79,3.03-1.18.74-2.52,1.1-4.04,1.1-1.23,0-2.31-.23-3.23-.7-.92-.46-1.66-1.13-2.22-2v9.44h-3.89ZM975.54,347.31c.91,0,1.72-.22,2.43-.65.71-.43,1.27-1.04,1.67-1.82.4-.78.6-1.67.6-2.69s-.2-1.95-.6-2.72c-.4-.78-.96-1.38-1.67-1.82-.71-.43-1.52-.65-2.43-.65s-1.75.22-2.45.65-1.25,1.04-1.65,1.82c-.4.78-.6,1.67-.6,2.69s.2,1.94.6,2.71c.4.77.95,1.37,1.65,1.82.7.44,1.52.67,2.45.67Z"/>
    <path d="M993.41,350.68c-1.34,0-2.45-.23-3.34-.68s-1.55-1.06-1.98-1.82c-.43-.76-.65-1.58-.65-2.46,0-1.04.26-1.93.79-2.69.53-.76,1.31-1.35,2.35-1.77,1.04-.42,2.31-.63,3.83-.63h4.12c0-.86-.12-1.58-.36-2.16-.24-.57-.61-1-1.1-1.28-.5-.28-1.13-.42-1.91-.42-.89,0-1.64.2-2.27.6-.63.4-1.02,1.01-1.17,1.83h-3.83c.13-1.17.52-2.17,1.17-3,.65-.83,1.51-1.48,2.58-1.95s2.24-.7,3.52-.7c1.54,0,2.84.26,3.92.79,1.08.53,1.91,1.29,2.48,2.27.57.98.86,2.17.86,3.55v10.12h-3.31l-.39-2.63c-.22.43-.49.83-.83,1.2-.34.37-.72.69-1.15.96-.43.27-.92.48-1.48.63-.55.15-1.17.23-1.86.23ZM994.28,347.6c.63,0,1.18-.11,1.67-.34.49-.23.91-.55,1.27-.97.36-.42.63-.89.83-1.41.2-.52.32-1.07.39-1.65v-.07h-3.6c-.76,0-1.38.1-1.88.29-.5.2-.85.46-1.07.79-.22.33-.32.73-.32,1.18s.11.84.32,1.17c.22.32.53.57.94.75.41.17.9.26,1.46.26Z"/>
    <path d="M1013.42,350.29c-1.1,0-2.06-.17-2.87-.52-.81-.35-1.44-.92-1.9-1.72s-.68-1.88-.68-3.24v-7.59h-2.79v-3.28h2.79l.45-4.31h3.44v4.31h4.44v3.28h-4.44v7.59c0,.82.18,1.39.54,1.7.36.31.96.47,1.8.47h2.01v3.31h-2.79Z"/>
    <path d="M1019.97,350.29v-23.35h3.89v9.53c.54-.89,1.28-1.59,2.21-2.12.93-.53,1.98-.79,3.15-.79,1.34,0,2.48.28,3.41.83.93.55,1.64,1.36,2.12,2.43.49,1.07.73,2.41.73,4.01v9.47h-3.86v-9.11c0-1.41-.3-2.48-.89-3.21-.59-.73-1.5-1.1-2.71-1.1-.78,0-1.48.19-2.11.57-.63.38-1.12.92-1.49,1.62s-.55,1.56-.55,2.58v8.66h-3.89Z"/>
    <path d="M1047.08,350.29v-2.82c1.45-1.15,2.83-2.29,4.15-3.44,1.32-1.15,2.51-2.28,3.57-3.41,1.06-1.12,1.89-2.23,2.5-3.31s.91-2.12.91-3.11c0-.65-.12-1.25-.36-1.82-.24-.56-.61-1.02-1.12-1.36s-1.18-.52-2.03-.52-1.52.18-2.09.55c-.57.37-1,.86-1.28,1.48s-.42,1.31-.42,2.09h-3.76c.04-1.64.4-3.02,1.07-4.12s1.58-1.93,2.72-2.48c1.15-.55,2.43-.83,3.86-.83,1.54,0,2.84.28,3.92.84,1.08.56,1.91,1.35,2.5,2.37.58,1.02.88,2.22.88,3.6,0,1.02-.19,2.02-.57,3-.38.98-.9,1.93-1.57,2.85s-1.42,1.81-2.25,2.66c-.83.85-1.69,1.67-2.58,2.43-.89.77-1.74,1.48-2.56,2.12h10.15v3.21h-15.63Z"/>
    <path d="M862.69,390.92c-.69,0-1.33-.17-1.93-.52s-1.06-.82-1.41-1.41c-.35-.59-.52-1.25-.52-1.96s.17-1.4.52-1.99c.35-.59.82-1.06,1.41-1.41.59-.35,1.24-.52,1.93-.52.73,0,1.4.17,1.99.52.59.35,1.06.82,1.41,1.41.35.59.52,1.26.52,1.99s-.17,1.37-.52,1.96c-.35.59-.82,1.07-1.41,1.41s-1.26.52-1.99.52Z"/>
    <path d="M884.55,398.22c-1.67,0-3.11-.3-4.35-.91-1.23-.61-2.18-1.45-2.85-2.53-.67-1.08-1.01-2.33-1.01-3.76h2.85c0,.89.21,1.7.62,2.45.41.75,1.01,1.34,1.8,1.78.79.44,1.77.67,2.94.67,1.02,0,1.89-.17,2.61-.5.72-.33,1.28-.79,1.65-1.38.38-.58.57-1.24.57-1.98,0-.89-.19-1.61-.57-2.16-.38-.55-.89-1-1.54-1.35s-1.4-.65-2.25-.92c-.85-.27-1.75-.57-2.67-.89-1.79-.6-3.11-1.36-3.96-2.25-.84-.9-1.26-2.07-1.26-3.52,0-1.23.29-2.31.86-3.24s1.39-1.66,2.46-2.19c1.07-.53,2.34-.79,3.81-.79s2.71.27,3.78.81c1.07.54,1.91,1.28,2.51,2.22s.91,2.03.91,3.26h-2.85c0-.63-.16-1.24-.49-1.85-.33-.61-.82-1.11-1.48-1.51-.66-.4-1.49-.6-2.48-.6-.82-.02-1.55.11-2.19.41-.64.29-1.13.71-1.49,1.25-.36.54-.54,1.2-.54,1.98,0,.73.16,1.33.47,1.78.31.45.77.84,1.36,1.15.59.31,1.29.6,2.09.86s1.69.55,2.66.88c1.1.37,2.08.82,2.94,1.35.85.53,1.52,1.21,2.01,2.03.49.82.73,1.87.73,3.15,0,1.08-.29,2.1-.86,3.06-.57.96-1.42,1.75-2.55,2.35-1.12.6-2.54.91-4.25.91Z"/>
    <path d="M897.58,378.02c-.54,0-.99-.18-1.35-.53s-.54-.81-.54-1.35.18-.98.54-1.31c.36-.33.8-.5,1.35-.5s.96.17,1.33.5c.37.33.55.77.55,1.31s-.18.99-.55,1.35c-.37.36-.81.53-1.33.53ZM896.22,397.83v-16.34h2.72v16.34h-2.72Z"/>
    <path d="M903.75,397.83v-16.34h2.46l.13,2.85c.52-1.02,1.26-1.81,2.22-2.38.96-.57,2.06-.86,3.29-.86s2.38.25,3.31.76c.93.51,1.65,1.28,2.17,2.3.52,1.03.78,2.33.78,3.91v9.76h-2.72v-9.47c0-1.64-.36-2.88-1.09-3.7s-1.75-1.23-3.06-1.23c-.91,0-1.72.22-2.43.67-.71.44-1.28,1.08-1.7,1.91-.42.83-.63,1.86-.63,3.1v8.72h-2.72Z"/>
    <path d="M928.81,405.36c-1.47,0-2.77-.19-3.91-.57-1.13-.38-2.02-.96-2.64-1.74s-.94-1.74-.94-2.89c0-.5.1-1.03.31-1.59.21-.56.56-1.11,1.07-1.65.51-.54,1.23-1.03,2.16-1.46l1.88,1.1c-1.15.48-1.89,1.02-2.24,1.64s-.52,1.18-.52,1.7c0,.71.21,1.31.62,1.78.41.47.98.83,1.72,1.07.73.24,1.57.36,2.5.36s1.73-.14,2.4-.41c.67-.27,1.19-.64,1.56-1.1.37-.47.55-1.02.55-1.67,0-.76-.28-1.39-.84-1.9s-1.63-.81-3.21-.89c-1.28-.09-2.35-.21-3.21-.36-.87-.15-1.58-.33-2.14-.54-.56-.21-1.03-.44-1.41-.7-.38-.26-.72-.53-1.02-.81v-.75l3.15-3.11,2.37.84-3.24,2.92.42-1.14c.24.17.46.34.68.49s.51.28.88.39c.37.11.88.21,1.54.29.66.09,1.53.17,2.61.26,1.49.11,2.69.37,3.58.78.9.41,1.54.96,1.95,1.65s.6,1.51.6,2.46-.25,1.81-.76,2.64-1.29,1.52-2.35,2.06c-1.06.54-2.42.81-4.09.81ZM928.78,392.71c-1.36,0-2.52-.26-3.49-.78-.96-.52-1.69-1.22-2.19-2.09-.5-.88-.75-1.85-.75-2.93s.25-2.05.76-2.92c.51-.87,1.24-1.56,2.19-2.09.95-.53,2.11-.79,3.47-.79s2.52.26,3.47.79c.95.53,1.67,1.23,2.17,2.09.5.86.75,1.84.75,2.92s-.25,2.06-.75,2.93c-.5.88-1.22,1.57-2.17,2.09-.95.52-2.11.78-3.47.78ZM928.78,390.47c1.17,0,2.09-.3,2.76-.91.67-.6,1.01-1.49,1.01-2.66s-.34-2.02-1.01-2.63c-.67-.6-1.59-.91-2.76-.91s-2.07.3-2.77.91c-.7.61-1.05,1.48-1.05,2.63s.35,2.05,1.04,2.66c.69.61,1.62.91,2.79.91ZM931.44,383.79l-.81-2.3h6.68v2.04l-5.87.26Z"/>
    <path d="M940.46,397.83v-23.35h2.72v23.35h-2.72Z"/>
    <path d="M954.85,398.22c-1.51,0-2.86-.36-4.05-1.07-1.19-.71-2.12-1.71-2.79-3-.67-1.29-1.01-2.78-1.01-4.49s.33-3.23.99-4.51c.66-1.28,1.59-2.27,2.79-2.98,1.2-.71,2.58-1.07,4.13-1.07s2.96.36,4.09,1.07c1.12.71,1.98,1.65,2.58,2.8.59,1.16.89,2.43.89,3.81v.68c0,.24-.01.51-.03.81h-13.39v-2.11h10.73c-.07-1.49-.56-2.66-1.48-3.5s-2.07-1.26-3.45-1.26c-.91,0-1.76.21-2.56.63-.8.42-1.44,1.04-1.91,1.85-.48.81-.71,1.82-.71,3.03v.91c0,1.34.24,2.46.73,3.37.49.91,1.12,1.59,1.91,2.04.79.45,1.64.68,2.54.68,1.15,0,2.09-.25,2.84-.76.75-.51,1.29-1.2,1.64-2.09h2.69c-.28.99-.75,1.88-1.39,2.64s-1.45,1.38-2.42,1.83-2.08.68-3.36.68Z"/>
    <path d="M972.27,398.22c-1.34,0-2.52-.23-3.54-.68s-1.82-1.09-2.42-1.9c-.59-.81-.96-1.77-1.09-2.87h2.79c.11.56.33,1.08.68,1.56s.82.86,1.41,1.15c.59.29,1.32.44,2.19.44.76,0,1.38-.11,1.88-.34.5-.23.87-.54,1.12-.92.25-.39.37-.81.37-1.26,0-.67-.16-1.18-.47-1.52s-.77-.62-1.38-.83c-.61-.21-1.34-.38-2.21-.54-.71-.13-1.42-.3-2.11-.52s-1.31-.5-1.85-.86c-.54-.36-.97-.79-1.28-1.31-.31-.52-.47-1.16-.47-1.91,0-.93.24-1.76.73-2.48.49-.72,1.17-1.29,2.06-1.7.89-.41,1.92-.62,3.11-.62,1.75,0,3.17.42,4.25,1.26,1.08.84,1.72,2.07,1.91,3.67h-2.69c-.11-.82-.46-1.46-1.05-1.93s-1.41-.7-2.45-.7-1.79.21-2.32.62c-.53.41-.79.95-.79,1.62,0,.43.15.82.44,1.15s.73.62,1.31.86c.58.24,1.29.43,2.11.58,1.08.19,2.06.45,2.95.78s1.61.81,2.16,1.44c.55.64.83,1.54.83,2.71,0,1.02-.25,1.9-.76,2.66s-1.23,1.35-2.16,1.77c-.93.42-2.02.63-3.28.63Z"/>
    <path d="M984.01,378.02c-.54,0-.99-.18-1.35-.53s-.54-.81-.54-1.35.18-.98.54-1.31c.36-.33.8-.5,1.35-.5s.96.17,1.33.5c.37.33.55.77.55,1.31s-.18.99-.55,1.35c-.37.36-.81.53-1.33.53ZM982.64,397.83v-16.34h2.72v16.34h-2.72Z"/>
    <path d="M996.62,405.36c-1.47,0-2.77-.19-3.91-.57-1.13-.38-2.02-.96-2.64-1.74s-.94-1.74-.94-2.89c0-.5.1-1.03.31-1.59.21-.56.56-1.11,1.07-1.65.51-.54,1.23-1.03,2.16-1.46l1.88,1.1c-1.15.48-1.89,1.02-2.24,1.64s-.52,1.18-.52,1.7c0,.71.21,1.31.62,1.78.41.47.98.83,1.72,1.07.73.24,1.57.36,2.5.36s1.73-.14,2.4-.41c.67-.27,1.19-.64,1.56-1.1.37-.47.55-1.02.55-1.67,0-.76-.28-1.39-.84-1.9s-1.63-.81-3.21-.89c-1.28-.09-2.35-.21-3.21-.36-.87-.15-1.58-.33-2.14-.54-.56-.21-1.03-.44-1.41-.7-.38-.26-.72-.53-1.02-.81v-.75l3.15-3.11,2.37.84-3.24,2.92.42-1.14c.24.17.46.34.68.49s.51.28.88.39c.37.11.88.21,1.54.29.66.09,1.53.17,2.61.26,1.49.11,2.69.37,3.58.78.9.41,1.54.96,1.95,1.65s.6,1.51.6,2.46-.25,1.81-.76,2.64-1.29,1.52-2.35,2.06c-1.06.54-2.42.81-4.09.81ZM996.59,392.71c-1.36,0-2.52-.26-3.49-.78-.96-.52-1.69-1.22-2.19-2.09-.5-.88-.75-1.85-.75-2.93s.25-2.05.76-2.92c.51-.87,1.24-1.56,2.19-2.09.95-.53,2.11-.79,3.47-.79s2.52.26,3.47.79c.95.53,1.67,1.23,2.17,2.09.5.86.75,1.84.75,2.92s-.25,2.06-.75,2.93c-.5.88-1.22,1.57-2.17,2.09-.95.52-2.11.78-3.47.78ZM996.59,390.47c1.17,0,2.09-.3,2.76-.91.67-.6,1.01-1.49,1.01-2.66s-.34-2.02-1.01-2.63c-.67-.6-1.59-.91-2.76-.91s-2.07.3-2.77.91c-.7.61-1.05,1.48-1.05,2.63s.35,2.05,1.04,2.66c.69.61,1.62.91,2.79.91ZM999.25,383.79l-.81-2.3h6.68v2.04l-5.87.26Z"/>
    <path d="M1006.12,401.82l1.88-7.17h2.82l-2.82,7.17h-1.88Z"/>
    <path d="M1022.79,397.83v-16.34h2.46l.19,3.11c.37-.73.84-1.36,1.41-1.88.57-.52,1.26-.92,2.08-1.2s1.74-.42,2.77-.42v2.85h-1c-.69,0-1.35.09-1.98.28s-1.18.48-1.67.89c-.49.41-.86.97-1.13,1.67-.27.7-.41,1.57-.41,2.61v8.43h-2.72Z"/>
    <path d="M1041.34,398.22c-1.51,0-2.86-.36-4.05-1.07-1.19-.71-2.12-1.71-2.79-3-.67-1.29-1.01-2.78-1.01-4.49s.33-3.23.99-4.51c.66-1.28,1.59-2.27,2.79-2.98,1.2-.71,2.58-1.07,4.13-1.07s2.96.36,4.09,1.07c1.12.71,1.98,1.65,2.58,2.8.59,1.16.89,2.43.89,3.81v.68c0,.24-.01.51-.03.81h-13.39v-2.11h10.73c-.07-1.49-.56-2.66-1.48-3.5s-2.07-1.26-3.45-1.26c-.91,0-1.76.21-2.56.63-.8.42-1.44,1.04-1.91,1.85-.48.81-.71,1.82-.71,3.03v.91c0,1.34.24,2.46.73,3.37.49.91,1.12,1.59,1.91,2.04.79.45,1.64.68,2.54.68,1.15,0,2.09-.25,2.84-.76.75-.51,1.29-1.2,1.64-2.09h2.69c-.28.99-.75,1.88-1.39,2.64s-1.45,1.38-2.42,1.83-2.08.68-3.36.68Z"/>
    <path d="M1052.59,397.83v-23.35h2.72v23.35h-2.72Z"/>
    <path d="M1065.14,398.22c-1.32,0-2.42-.23-3.31-.7-.89-.46-1.55-1.08-1.98-1.85-.43-.77-.65-1.61-.65-2.51,0-1.1.29-2.04.86-2.8.57-.77,1.38-1.35,2.43-1.75,1.05-.4,2.29-.6,3.71-.6h4.31c0-1.02-.16-1.86-.47-2.55-.31-.68-.77-1.19-1.36-1.54-.59-.35-1.34-.52-2.22-.52-1.04,0-1.94.26-2.69.78-.76.52-1.22,1.29-1.39,2.3h-2.79c.13-1.17.52-2.14,1.18-2.93.66-.79,1.5-1.39,2.51-1.82,1.02-.42,2.08-.63,3.18-.63,1.51,0,2.77.28,3.78.83,1,.55,1.76,1.32,2.25,2.3.5.98.75,2.15.75,3.49v10.12h-2.43l-.16-2.89c-.22.45-.49.88-.83,1.28-.34.4-.72.75-1.17,1.04s-.96.52-1.54.7-1.24.26-1.98.26ZM1065.56,395.92c.76,0,1.44-.16,2.06-.47.62-.31,1.14-.75,1.57-1.3s.76-1.16.99-1.83c.23-.67.34-1.37.34-2.11v-.1h-4.09c-1.06,0-1.91.12-2.56.37-.65.25-1.11.59-1.39,1.04-.28.44-.42.95-.42,1.51s.13,1.09.41,1.52c.27.43.67.77,1.2,1,.53.24,1.16.36,1.9.36Z"/>
    <path d="M1083.43,397.83c-.97,0-1.82-.15-2.53-.45-.71-.3-1.26-.82-1.64-1.54s-.57-1.7-.57-2.93v-9.11h-2.85v-2.3h2.85l.36-3.96h2.37v3.96h4.73v2.3h-4.73v9.11c0,1.02.21,1.7.62,2.06.41.36,1.13.54,2.17.54h1.75v2.33h-2.53Z"/>
    <path d="M1091.34,378.02c-.54,0-.99-.18-1.35-.53s-.54-.81-.54-1.35.18-.98.54-1.31c.36-.33.8-.5,1.35-.5s.96.17,1.33.5c.37.33.55.77.55,1.31s-.18.99-.55,1.35c-.37.36-.81.53-1.33.53ZM1089.98,397.83v-16.34h2.72v16.34h-2.72Z"/>
    <path d="M1102.21,397.83l-6.19-16.34h2.85l4.93,13.72,4.96-13.72h2.79l-6.19,16.34h-3.15Z"/>
    <path d="M1120.95,398.22c-1.51,0-2.86-.36-4.05-1.07-1.19-.71-2.12-1.71-2.79-3-.67-1.29-1.01-2.78-1.01-4.49s.33-3.23.99-4.51c.66-1.28,1.59-2.27,2.79-2.98,1.2-.71,2.58-1.07,4.13-1.07s2.96.36,4.09,1.07c1.12.71,1.98,1.65,2.58,2.8.59,1.16.89,2.43.89,3.81v.68c0,.24-.01.51-.03.81h-13.39v-2.11h10.73c-.07-1.49-.56-2.66-1.48-3.5s-2.07-1.26-3.45-1.26c-.91,0-1.76.21-2.56.63-.8.42-1.44,1.04-1.91,1.85-.48.81-.71,1.82-.71,3.03v.91c0,1.34.24,2.46.73,3.37.49.91,1.12,1.59,1.91,2.04.79.45,1.64.68,2.54.68,1.15,0,2.09-.25,2.84-.76.75-.51,1.29-1.2,1.64-2.09h2.69c-.28.99-.75,1.88-1.39,2.64s-1.45,1.38-2.42,1.83-2.08.68-3.36.68Z"/>
    <path d="M1147.25,397.83c-.97,0-1.82-.15-2.53-.45-.71-.3-1.26-.82-1.64-1.54s-.57-1.7-.57-2.93v-9.11h-2.85v-2.3h2.85l.36-3.96h2.37v3.96h4.73v2.3h-4.73v9.11c0,1.02.21,1.7.62,2.06.41.36,1.13.54,2.17.54h1.75v2.33h-2.53Z"/>
    <path d="M1155.16,378.02c-.54,0-.99-.18-1.35-.53s-.54-.81-.54-1.35.18-.98.54-1.31c.36-.33.8-.5,1.35-.5s.96.17,1.33.5c.37.33.55.77.55,1.31s-.18.99-.55,1.35c-.37.36-.81.53-1.33.53ZM1153.8,397.83v-16.34h2.72v16.34h-2.72Z"/>
    <path d="M1161.32,397.83v-16.34h2.46l.16,2.33c.52-.84,1.22-1.51,2.09-2,.88-.49,1.83-.73,2.87-.73.84,0,1.61.11,2.29.34.68.23,1.29.57,1.82,1.04.53.47.95,1.05,1.25,1.77.56-.99,1.34-1.77,2.33-2.32.99-.55,2.04-.83,3.15-.83,1.28,0,2.38.25,3.31.76.93.51,1.65,1.28,2.17,2.3.52,1.03.78,2.33.78,3.91v9.76h-2.69v-9.47c0-1.64-.34-2.88-1-3.7-.67-.82-1.62-1.23-2.85-1.23-.84,0-1.6.22-2.27.67-.67.44-1.2,1.09-1.59,1.93-.39.84-.58,1.88-.58,3.11v8.69h-2.72v-9.47c0-1.64-.34-2.88-1.01-3.7s-1.61-1.23-2.82-1.23c-.82,0-1.57.22-2.24.67-.67.44-1.2,1.09-1.59,1.93-.39.84-.58,1.88-.58,3.11v8.69h-2.72Z"/>
    <path d="M1197.38,398.22c-1.51,0-2.86-.36-4.05-1.07-1.19-.71-2.12-1.71-2.79-3-.67-1.29-1.01-2.78-1.01-4.49s.33-3.23.99-4.51c.66-1.28,1.59-2.27,2.79-2.98,1.2-.71,2.58-1.07,4.13-1.07s2.96.36,4.09,1.07c1.12.71,1.98,1.65,2.58,2.8.59,1.16.89,2.43.89,3.81v.68c0,.24-.01.51-.03.81h-13.39v-2.11h10.73c-.07-1.49-.56-2.66-1.48-3.5s-2.07-1.26-3.45-1.26c-.91,0-1.76.21-2.56.63-.8.42-1.44,1.04-1.91,1.85-.48.81-.71,1.82-.71,3.03v.91c0,1.34.24,2.46.73,3.37.49.91,1.12,1.59,1.91,2.04.79.45,1.64.68,2.54.68,1.15,0,2.09-.25,2.84-.76.75-.51,1.29-1.2,1.64-2.09h2.69c-.28.99-.75,1.88-1.39,2.64s-1.45,1.38-2.42,1.83-2.08.68-3.36.68Z"/>
    <path d="M1208.64,397.83v-23.35h2.72v23.35h-2.72Z"/>
    <path d="M1223.16,398.22c-1.51,0-2.88-.35-4.09-1.05s-2.16-1.7-2.85-2.98c-.69-1.29-1.04-2.78-1.04-4.49s.35-3.27,1.05-4.56c.7-1.29,1.67-2.28,2.89-2.98,1.22-.7,2.59-1.05,4.1-1.05s2.93.35,4.13,1.05c1.2.7,2.15,1.7,2.85,2.98.7,1.29,1.05,2.79,1.05,4.52s-.36,3.24-1.07,4.52c-.71,1.29-1.68,2.28-2.89,2.98-1.21.7-2.59,1.05-4.15,1.05ZM1223.19,395.89c.93,0,1.79-.23,2.59-.7s1.45-1.16,1.95-2.09.75-2.08.75-3.44-.24-2.54-.73-3.45c-.49-.92-1.12-1.61-1.91-2.08-.79-.46-1.66-.7-2.61-.7s-1.77.23-2.58.7c-.81.46-1.46,1.16-1.95,2.08-.49.92-.73,2.07-.73,3.45s.24,2.51.73,3.44,1.12,1.63,1.91,2.09,1.65.7,2.58.7Z"/>
    <path d="M1242.46,398.22c-1.54,0-2.91-.36-4.13-1.07-1.22-.71-2.18-1.71-2.87-3-.69-1.29-1.04-2.77-1.04-4.46s.35-3.23,1.04-4.51c.69-1.28,1.65-2.27,2.87-3,1.22-.72,2.6-1.09,4.13-1.09,1.95,0,3.57.5,4.86,1.51,1.3,1.01,2.12,2.35,2.46,4.04h-2.79c-.22-1.02-.75-1.81-1.59-2.37-.84-.56-1.84-.84-2.98-.84-.93,0-1.79.23-2.58.7s-1.43,1.16-1.91,2.09-.73,2.08-.73,3.44c0,1.02.14,1.92.42,2.71.28.79.66,1.44,1.13,1.96.48.52,1.03.91,1.67,1.18s1.3.41,1.99.41c.78,0,1.48-.12,2.11-.37.63-.25,1.16-.62,1.59-1.12.43-.5.72-1.08.88-1.75h2.79c-.35,1.64-1.17,2.98-2.48,4-1.31,1.03-2.92,1.54-4.85,1.54Z"/>
    <path d="M1253.65,397.83v-23.35h2.72v23.35h-2.72ZM1263.7,397.83l-7.78-8.95,7.1-7.39h3.34l-8.14,8.37.03-1.95,8.92,9.92h-3.47Z"/>
    <path d="M862.69,434.41c-.69,0-1.33-.17-1.93-.52s-1.06-.82-1.41-1.41c-.35-.59-.52-1.25-.52-1.96s.17-1.4.52-1.99c.35-.59.82-1.06,1.41-1.41.59-.35,1.24-.52,1.93-.52.73,0,1.4.17,1.99.52.59.35,1.06.82,1.41,1.41.35.59.52,1.26.52,1.99s-.17,1.37-.52,1.96c-.35.59-.82,1.07-1.41,1.41s-1.26.52-1.99.52Z"/>
    <path d="M877.32,441.32v-22.7h6.68c2.66,0,4.85.46,6.58,1.38,1.73.92,3.01,2.23,3.84,3.92.83,1.7,1.25,3.74,1.25,6.11s-.42,4.35-1.25,6.03c-.83,1.69-2.11,2.98-3.84,3.89s-3.92,1.36-6.58,1.36h-6.68ZM880.04,439.05h3.89c2.21,0,3.96-.36,5.27-1.09,1.31-.72,2.24-1.76,2.8-3.11.56-1.35.84-2.96.84-4.82s-.28-3.54-.84-4.9c-.56-1.36-1.5-2.41-2.8-3.15-1.31-.74-3.06-1.1-5.27-1.1h-3.89v18.16Z"/>
    <path d="M906.63,441.7c-1.51,0-2.86-.36-4.05-1.07-1.19-.71-2.12-1.71-2.79-3-.67-1.29-1.01-2.78-1.01-4.49s.33-3.23.99-4.51c.66-1.28,1.59-2.27,2.79-2.98,1.2-.71,2.58-1.07,4.13-1.07s2.96.36,4.09,1.07c1.12.71,1.98,1.65,2.58,2.8.59,1.16.89,2.43.89,3.81v.68c0,.24-.01.51-.03.81h-13.39v-2.11h10.73c-.07-1.49-.56-2.66-1.48-3.5s-2.07-1.26-3.45-1.26c-.91,0-1.76.21-2.56.63-.8.42-1.44,1.04-1.91,1.85-.48.81-.71,1.82-.71,3.03v.91c0,1.34.24,2.46.73,3.37.49.91,1.12,1.59,1.91,2.04.79.45,1.64.68,2.54.68,1.15,0,2.09-.25,2.84-.76.75-.51,1.29-1.2,1.64-2.09h2.69c-.28.99-.75,1.88-1.39,2.64s-1.45,1.38-2.42,1.83-2.08.68-3.36.68Z"/>
    <path d="M917.88,441.32v-23.35h2.72v23.35h-2.72Z"/>
    <path d="M930.43,441.7c-1.32,0-2.42-.23-3.31-.7-.89-.46-1.55-1.08-1.98-1.85-.43-.77-.65-1.61-.65-2.51,0-1.1.29-2.04.86-2.8.57-.77,1.38-1.35,2.43-1.75,1.05-.4,2.29-.6,3.71-.6h4.31c0-1.02-.16-1.86-.47-2.55-.31-.68-.77-1.19-1.36-1.54-.59-.35-1.34-.52-2.22-.52-1.04,0-1.94.26-2.69.78-.76.52-1.22,1.29-1.39,2.3h-2.79c.13-1.17.52-2.14,1.18-2.93.66-.79,1.5-1.39,2.51-1.82,1.02-.42,2.08-.63,3.18-.63,1.51,0,2.77.28,3.78.83,1,.55,1.76,1.32,2.25,2.3.5.98.75,2.15.75,3.49v10.12h-2.43l-.16-2.89c-.22.45-.49.88-.83,1.28-.34.4-.72.75-1.17,1.04s-.96.52-1.54.7-1.24.26-1.98.26ZM930.85,439.4c.76,0,1.44-.16,2.06-.47.62-.31,1.14-.75,1.57-1.3s.76-1.16.99-1.83c.23-.67.34-1.37.34-2.11v-.1h-4.09c-1.06,0-1.91.12-2.56.37-.65.25-1.11.59-1.39,1.04-.28.44-.42.95-.42,1.51s.13,1.09.41,1.52c.27.43.67.77,1.2,1,.53.24,1.16.36,1.9.36Z"/>
    <path d="M944.05,448.45l3.99-8.95h-.94l-6.42-14.53h2.95l5.32,12.48,5.61-12.48h2.82l-10.47,23.48h-2.85Z"/>
    <path d="M976.09,441.7c-1.51,0-2.86-.36-4.05-1.07-1.19-.71-2.12-1.71-2.79-3-.67-1.29-1.01-2.78-1.01-4.49s.33-3.23.99-4.51c.66-1.28,1.59-2.27,2.79-2.98,1.2-.71,2.58-1.07,4.13-1.07s2.96.36,4.09,1.07c1.12.71,1.98,1.65,2.58,2.8.59,1.16.89,2.43.89,3.81v.68c0,.24-.01.51-.03.81h-13.39v-2.11h10.73c-.07-1.49-.56-2.66-1.48-3.5s-2.07-1.26-3.45-1.26c-.91,0-1.76.21-2.56.63-.8.42-1.44,1.04-1.91,1.85-.48.81-.71,1.82-.71,3.03v.91c0,1.34.24,2.46.73,3.37.49.91,1.12,1.59,1.91,2.04.79.45,1.64.68,2.54.68,1.15,0,2.09-.25,2.84-.76.75-.51,1.29-1.2,1.64-2.09h2.69c-.28.99-.75,1.88-1.39,2.64s-1.45,1.38-2.42,1.83-2.08.68-3.36.68Z"/>
    <path d="M987.35,441.32v-16.34h2.46l.13,2.85c.52-1.02,1.26-1.81,2.22-2.38.96-.57,2.06-.86,3.29-.86s2.38.25,3.31.76c.93.51,1.65,1.28,2.17,2.3.52,1.03.78,2.33.78,3.91v9.76h-2.72v-9.47c0-1.64-.36-2.88-1.09-3.7s-1.75-1.23-3.06-1.23c-.91,0-1.72.22-2.43.67-.71.44-1.28,1.08-1.7,1.91-.42.83-.63,1.86-.63,3.1v8.72h-2.72Z"/>
    <path d="M1012.12,441.7c-1.34,0-2.52-.23-3.54-.68s-1.82-1.09-2.42-1.9c-.59-.81-.96-1.77-1.09-2.87h2.79c.11.56.33,1.08.68,1.56s.82.86,1.41,1.15c.59.29,1.32.44,2.19.44.76,0,1.38-.11,1.88-.34.5-.23.87-.54,1.12-.92.25-.39.37-.81.37-1.26,0-.67-.16-1.18-.47-1.52s-.77-.62-1.38-.83c-.61-.21-1.34-.38-2.21-.54-.71-.13-1.42-.3-2.11-.52s-1.31-.5-1.85-.86c-.54-.36-.97-.79-1.28-1.31-.31-.52-.47-1.16-.47-1.91,0-.93.24-1.76.73-2.48.49-.72,1.17-1.29,2.06-1.7.89-.41,1.92-.62,3.11-.62,1.75,0,3.17.42,4.25,1.26,1.08.84,1.72,2.07,1.91,3.67h-2.69c-.11-.82-.46-1.46-1.05-1.93s-1.41-.7-2.45-.7-1.79.21-2.32.62c-.53.41-.79.95-.79,1.62,0,.43.15.82.44,1.15s.73.62,1.31.86c.58.24,1.29.43,2.11.58,1.08.19,2.06.45,2.95.78s1.61.81,2.16,1.44c.55.64.83,1.54.83,2.71,0,1.02-.25,1.9-.76,2.66s-1.23,1.35-2.16,1.77c-.93.42-2.02.63-3.28.63Z"/>
    <path d="M1028.17,441.7c-1.25,0-2.35-.25-3.29-.75s-1.67-1.26-2.17-2.3-.76-2.33-.76-3.89v-9.79h2.72v9.5c0,1.62.36,2.84,1.07,3.67.71.82,1.72,1.23,3.02,1.23.91,0,1.73-.22,2.46-.67.73-.44,1.31-1.08,1.73-1.91.42-.83.63-1.87.63-3.1v-8.72h2.72v16.34h-2.46l-.16-2.85c-.5,1.02-1.23,1.81-2.21,2.38-.97.57-2.08.86-3.31.86Z"/>
    <path d="M1040.82,441.32v-16.34h2.46l.19,3.11c.37-.73.84-1.36,1.41-1.88.57-.52,1.26-.92,2.08-1.2s1.74-.42,2.77-.42v2.85h-1c-.69,0-1.35.09-1.98.28s-1.18.48-1.67.89c-.49.41-.86.97-1.13,1.67-.27.7-.41,1.57-.41,2.61v8.43h-2.72Z"/>
    <path d="M1059.37,441.7c-1.51,0-2.86-.36-4.05-1.07-1.19-.71-2.12-1.71-2.79-3-.67-1.29-1.01-2.78-1.01-4.49s.33-3.23.99-4.51c.66-1.28,1.59-2.27,2.79-2.98,1.2-.71,2.58-1.07,4.13-1.07s2.96.36,4.09,1.07c1.12.71,1.98,1.65,2.58,2.8.59,1.16.89,2.43.89,3.81v.68c0,.24-.01.51-.03.81h-13.39v-2.11h10.73c-.07-1.49-.56-2.66-1.48-3.5s-2.07-1.26-3.45-1.26c-.91,0-1.76.21-2.56.63-.8.42-1.44,1.04-1.91,1.85-.48.81-.71,1.82-.71,3.03v.91c0,1.34.24,2.46.73,3.37.49.91,1.12,1.59,1.91,2.04.79.45,1.64.68,2.54.68,1.15,0,2.09-.25,2.84-.76.75-.51,1.29-1.2,1.64-2.09h2.69c-.28.99-.75,1.88-1.39,2.64s-1.45,1.38-2.42,1.83-2.08.68-3.36.68Z"/>
    <path d="M1076.78,441.7c-1.34,0-2.52-.23-3.54-.68s-1.82-1.09-2.42-1.9c-.59-.81-.96-1.77-1.09-2.87h2.79c.11.56.33,1.08.68,1.56s.82.86,1.41,1.15c.59.29,1.32.44,2.19.44.76,0,1.38-.11,1.88-.34.5-.23.87-.54,1.12-.92.25-.39.37-.81.37-1.26,0-.67-.16-1.18-.47-1.52s-.77-.62-1.38-.83c-.61-.21-1.34-.38-2.21-.54-.71-.13-1.42-.3-2.11-.52s-1.31-.5-1.85-.86c-.54-.36-.97-.79-1.28-1.31-.31-.52-.47-1.16-.47-1.91,0-.93.24-1.76.73-2.48.49-.72,1.17-1.29,2.06-1.7.89-.41,1.92-.62,3.11-.62,1.75,0,3.17.42,4.25,1.26,1.08.84,1.72,2.07,1.91,3.67h-2.69c-.11-.82-.46-1.46-1.05-1.93s-1.41-.7-2.45-.7-1.79.21-2.32.62c-.53.41-.79.95-.79,1.62,0,.43.15.82.44,1.15s.73.62,1.31.86c.58.24,1.29.43,2.11.58,1.08.19,2.06.45,2.95.78s1.61.81,2.16,1.44c.55.64.83,1.54.83,2.71,0,1.02-.25,1.9-.76,2.66s-1.23,1.35-2.16,1.77c-.93.42-2.02.63-3.28.63Z"/>
    <path d="M1100.84,441.7c-1.32,0-2.42-.23-3.31-.7-.89-.46-1.55-1.08-1.98-1.85-.43-.77-.65-1.61-.65-2.51,0-1.1.29-2.04.86-2.8.57-.77,1.38-1.35,2.43-1.75,1.05-.4,2.29-.6,3.71-.6h4.31c0-1.02-.16-1.86-.47-2.55-.31-.68-.77-1.19-1.36-1.54-.59-.35-1.34-.52-2.22-.52-1.04,0-1.94.26-2.69.78-.76.52-1.22,1.29-1.39,2.3h-2.79c.13-1.17.52-2.14,1.18-2.93.66-.79,1.5-1.39,2.51-1.82,1.02-.42,2.08-.63,3.18-.63,1.51,0,2.77.28,3.78.83,1,.55,1.76,1.32,2.25,2.3.5.98.75,2.15.75,3.49v10.12h-2.43l-.16-2.89c-.22.45-.49.88-.83,1.28-.34.4-.72.75-1.17,1.04s-.96.52-1.54.7-1.24.26-1.98.26ZM1101.27,439.4c.76,0,1.44-.16,2.06-.47.62-.31,1.14-.75,1.57-1.3s.76-1.16.99-1.83c.23-.67.34-1.37.34-2.11v-.1h-4.09c-1.06,0-1.91.12-2.56.37-.65.25-1.11.59-1.39,1.04-.28.44-.42.95-.42,1.51s.13,1.09.41,1.52c.27.43.67.77,1.2,1,.53.24,1.16.36,1.9.36Z"/>
    <path d="M1127.95,441.7c-1.34,0-2.52-.23-3.54-.68s-1.82-1.09-2.42-1.9c-.59-.81-.96-1.77-1.09-2.87h2.79c.11.56.33,1.08.68,1.56s.82.86,1.41,1.15c.59.29,1.32.44,2.19.44.76,0,1.38-.11,1.88-.34.5-.23.87-.54,1.12-.92.25-.39.37-.81.37-1.26,0-.67-.16-1.18-.47-1.52s-.77-.62-1.38-.83c-.61-.21-1.34-.38-2.21-.54-.71-.13-1.42-.3-2.11-.52s-1.31-.5-1.85-.86c-.54-.36-.97-.79-1.28-1.31-.31-.52-.47-1.16-.47-1.91,0-.93.24-1.76.73-2.48.49-.72,1.17-1.29,2.06-1.7.89-.41,1.92-.62,3.11-.62,1.75,0,3.17.42,4.25,1.26,1.08.84,1.72,2.07,1.91,3.67h-2.69c-.11-.82-.46-1.46-1.05-1.93s-1.41-.7-2.45-.7-1.79.21-2.32.62c-.53.41-.79.95-.79,1.62,0,.43.15.82.44,1.15s.73.62,1.31.86c.58.24,1.29.43,2.11.58,1.08.19,2.06.45,2.95.78s1.61.81,2.16,1.44c.55.64.83,1.54.83,2.71,0,1.02-.25,1.9-.76,2.66s-1.23,1.35-2.16,1.77c-.93.42-2.02.63-3.28.63Z"/>
    <path d="M1139.69,421.5c-.54,0-.99-.18-1.35-.53s-.54-.81-.54-1.35.18-.98.54-1.31c.36-.33.8-.5,1.35-.5s.96.17,1.33.5c.37.33.55.77.55,1.31s-.18.99-.55,1.35c-.37.36-.81.53-1.33.53ZM1138.33,441.32v-16.34h2.72v16.34h-2.72Z"/>
    <path d="M1152.31,448.84c-1.47,0-2.77-.19-3.91-.57-1.13-.38-2.02-.96-2.64-1.74s-.94-1.74-.94-2.89c0-.5.1-1.03.31-1.59.21-.56.56-1.11,1.07-1.65.51-.54,1.23-1.03,2.16-1.46l1.88,1.1c-1.15.48-1.89,1.02-2.24,1.64s-.52,1.18-.52,1.7c0,.71.21,1.31.62,1.78.41.47.98.83,1.72,1.07.73.24,1.57.36,2.5.36s1.73-.14,2.4-.41c.67-.27,1.19-.64,1.56-1.1.37-.47.55-1.02.55-1.67,0-.76-.28-1.39-.84-1.9s-1.63-.81-3.21-.89c-1.28-.09-2.35-.21-3.21-.36-.87-.15-1.58-.33-2.14-.54-.56-.21-1.03-.44-1.41-.7-.38-.26-.72-.53-1.02-.81v-.75l3.15-3.11,2.37.84-3.24,2.92.42-1.14c.24.17.46.34.68.49s.51.28.88.39c.37.11.88.21,1.54.29.66.09,1.53.17,2.61.26,1.49.11,2.69.37,3.58.78.9.41,1.54.96,1.95,1.65s.6,1.51.6,2.46-.25,1.81-.76,2.64-1.29,1.52-2.35,2.06c-1.06.54-2.42.81-4.09.81ZM1152.28,436.19c-1.36,0-2.52-.26-3.49-.78-.96-.52-1.69-1.22-2.19-2.09-.5-.88-.75-1.85-.75-2.93s.25-2.05.76-2.92c.51-.87,1.24-1.56,2.19-2.09.95-.53,2.11-.79,3.47-.79s2.52.26,3.47.79c.95.53,1.67,1.23,2.17,2.09.5.86.75,1.84.75,2.92s-.25,2.06-.75,2.93c-.5.88-1.22,1.57-2.17,2.09-.95.52-2.11.78-3.47.78ZM1152.28,433.95c1.17,0,2.09-.3,2.76-.91.67-.6,1.01-1.49,1.01-2.66s-.34-2.02-1.01-2.63c-.67-.6-1.59-.91-2.76-.91s-2.07.3-2.77.91c-.7.61-1.05,1.48-1.05,2.63s.35,2.05,1.04,2.66c.69.61,1.62.91,2.79.91ZM1154.94,427.27l-.81-2.3h6.68v2.04l-5.87.26Z"/>
    <path d="M1163.95,441.32v-16.34h2.46l.13,2.85c.52-1.02,1.26-1.81,2.22-2.38.96-.57,2.06-.86,3.29-.86s2.38.25,3.31.76c.93.51,1.65,1.28,2.17,2.3.52,1.03.78,2.33.78,3.91v9.76h-2.72v-9.47c0-1.64-.36-2.88-1.09-3.7s-1.75-1.23-3.06-1.23c-.91,0-1.72.22-2.43.67-.71.44-1.28,1.08-1.7,1.91-.42.83-.63,1.86-.63,3.1v8.72h-2.72Z"/>
    <path d="M1189.73,441.7c-1.51,0-2.86-.36-4.05-1.07-1.19-.71-2.12-1.71-2.79-3-.67-1.29-1.01-2.78-1.01-4.49s.33-3.23.99-4.51c.66-1.28,1.59-2.27,2.79-2.98,1.2-.71,2.58-1.07,4.13-1.07s2.96.36,4.09,1.07c1.12.71,1.98,1.65,2.58,2.8.59,1.16.89,2.43.89,3.81v.68c0,.24-.01.51-.03.81h-13.39v-2.11h10.73c-.07-1.49-.56-2.66-1.48-3.5s-2.07-1.26-3.45-1.26c-.91,0-1.76.21-2.56.63-.8.42-1.44,1.04-1.91,1.85-.48.81-.71,1.82-.71,3.03v.91c0,1.34.24,2.46.73,3.37.49.91,1.12,1.59,1.91,2.04.79.45,1.64.68,2.54.68,1.15,0,2.09-.25,2.84-.76.75-.51,1.29-1.2,1.64-2.09h2.69c-.28.99-.75,1.88-1.39,2.64s-1.45,1.38-2.42,1.83-2.08.68-3.36.68Z"/>
    <path d="M1208.22,441.7c-1.58,0-2.97-.37-4.17-1.12-1.2-.75-2.12-1.77-2.77-3.06-.65-1.3-.97-2.77-.97-4.41s.32-3.11.97-4.39c.65-1.29,1.57-2.3,2.77-3.03,1.2-.73,2.6-1.1,4.2-1.1,1.32,0,2.48.27,3.49.81,1,.54,1.79,1.3,2.35,2.27v-9.7h2.72v23.35h-2.46l-.26-2.69c-.35.54-.79,1.04-1.33,1.51-.54.46-1.18.84-1.93,1.13s-1.62.44-2.61.44ZM1208.51,439.34c1.08,0,2.03-.26,2.85-.78.82-.52,1.46-1.24,1.93-2.16.46-.92.7-2,.7-3.26s-.23-2.31-.7-3.24c-.47-.93-1.11-1.65-1.93-2.17-.82-.52-1.77-.78-2.85-.78s-1.97.26-2.81.78c-.83.52-1.48,1.24-1.93,2.17s-.68,2.01-.68,3.24.23,2.34.68,3.26,1.1,1.64,1.93,2.16c.83.52,1.77.78,2.81.78Z"/>
    <path d="M875.56,460.62v-2.3h9.34v2.3h-9.34ZM878.06,474.67v-18.87c0-1.04.17-1.89.52-2.54.34-.66.86-1.15,1.54-1.46.68-.31,1.52-.47,2.51-.47h1.85v2.33h-1.43c-.8,0-1.38.16-1.73.49-.36.32-.54.9-.54,1.72v18.81h-2.72Z"/>
    <path d="M894.83,475.06c-1.51,0-2.88-.35-4.09-1.05s-2.16-1.7-2.85-2.98c-.69-1.29-1.04-2.78-1.04-4.49s.35-3.27,1.05-4.56c.7-1.29,1.67-2.28,2.89-2.98,1.22-.7,2.59-1.05,4.1-1.05s2.93.35,4.13,1.05c1.2.7,2.15,1.7,2.85,2.98.7,1.29,1.05,2.79,1.05,4.52s-.36,3.24-1.07,4.52c-.71,1.29-1.68,2.28-2.89,2.98-1.21.7-2.59,1.05-4.15,1.05ZM894.86,472.72c.93,0,1.79-.23,2.59-.7s1.45-1.16,1.95-2.09.75-2.08.75-3.44-.24-2.54-.73-3.45c-.49-.92-1.12-1.61-1.91-2.08-.79-.46-1.66-.7-2.61-.7s-1.77.23-2.58.7c-.81.46-1.46,1.16-1.95,2.08-.49.92-.73,2.07-.73,3.45s.24,2.51.73,3.44,1.12,1.63,1.91,2.09,1.65.7,2.58.7Z"/>
    <path d="M906.76,474.67v-16.34h2.46l.19,3.11c.37-.73.84-1.36,1.41-1.88.57-.52,1.26-.92,2.08-1.2s1.74-.42,2.77-.42v2.85h-1c-.69,0-1.35.09-1.98.28s-1.18.48-1.67.89c-.49.41-.86.97-1.13,1.67-.27.7-.41,1.57-.41,2.61v8.43h-2.72Z"/>
    <path d="M917.17,460.62v-2.3h9.34v2.3h-9.34ZM919.67,474.67v-18.87c0-1.04.17-1.89.52-2.54.34-.66.86-1.15,1.54-1.46.68-.31,1.52-.47,2.51-.47h1.85v2.33h-1.43c-.8,0-1.38.16-1.73.49-.36.32-.54.9-.54,1.72v18.81h-2.72Z"/>
    <path d="M936.3,475.06c-1.51,0-2.86-.36-4.05-1.07-1.19-.71-2.12-1.71-2.79-3-.67-1.29-1.01-2.78-1.01-4.49s.33-3.23.99-4.51c.66-1.28,1.59-2.27,2.79-2.98,1.2-.71,2.58-1.07,4.13-1.07s2.96.36,4.09,1.07c1.12.71,1.98,1.65,2.58,2.8.59,1.16.89,2.43.89,3.81v.68c0,.24-.01.51-.03.81h-13.39v-2.11h10.73c-.07-1.49-.56-2.66-1.48-3.5s-2.07-1.26-3.45-1.26c-.91,0-1.76.21-2.56.63-.8.42-1.44,1.04-1.91,1.85-.48.81-.71,1.82-.71,3.03v.91c0,1.34.24,2.46.73,3.37.49.91,1.12,1.59,1.91,2.04.79.45,1.64.68,2.54.68,1.15,0,2.09-.25,2.84-.76.75-.51,1.29-1.2,1.64-2.09h2.69c-.28.99-.75,1.88-1.39,2.64s-1.45,1.38-2.42,1.83-2.08.68-3.36.68Z"/>
    <path d="M949.18,454.85c-.54,0-.99-.18-1.35-.53s-.54-.81-.54-1.35.18-.98.54-1.31c.36-.33.8-.5,1.35-.5s.96.17,1.33.5c.37.33.55.77.55,1.31s-.18.99-.55,1.35c-.37.36-.81.53-1.33.53ZM947.81,474.67v-16.34h2.72v16.34h-2.72Z"/>
    <path d="M961.76,474.67c-.97,0-1.82-.15-2.53-.45-.71-.3-1.26-.82-1.64-1.54s-.57-1.7-.57-2.93v-9.11h-2.85v-2.3h2.85l.36-3.96h2.37v3.96h4.73v2.3h-4.73v9.11c0,1.02.21,1.7.62,2.06.41.36,1.13.54,2.17.54h1.75v2.33h-2.53Z"/>
    <path d="M983.1,474.67c-.97,0-1.82-.15-2.53-.45-.71-.3-1.26-.82-1.64-1.54s-.57-1.7-.57-2.93v-9.11h-2.85v-2.3h2.85l.36-3.96h2.37v3.96h4.73v2.3h-4.73v9.11c0,1.02.21,1.7.62,2.06.41.36,1.13.54,2.17.54h1.75v2.33h-2.53Z"/>
    <path d="M987.77,474.67l5.55-8.17-5.55-8.17h2.98l4.41,6.68,4.48-6.68h2.92l-5.55,8.17,5.55,8.17h-2.92l-4.48-6.71-4.41,6.71h-2.98Z"/>
    <path d="M1021.46,475.06c-1.54,0-2.91-.36-4.13-1.07-1.22-.71-2.18-1.71-2.87-3-.69-1.29-1.04-2.77-1.04-4.46s.35-3.23,1.04-4.51c.69-1.28,1.65-2.27,2.87-3,1.22-.72,2.6-1.09,4.13-1.09,1.95,0,3.57.5,4.86,1.51,1.3,1.01,2.12,2.35,2.46,4.04h-2.79c-.22-1.02-.75-1.81-1.59-2.37-.84-.56-1.84-.84-2.98-.84-.93,0-1.79.23-2.58.7s-1.43,1.16-1.91,2.09-.73,2.08-.73,3.44c0,1.02.14,1.92.42,2.71.28.79.66,1.44,1.13,1.96.48.52,1.03.91,1.67,1.18s1.3.41,1.99.41c.78,0,1.48-.12,2.11-.37.63-.25,1.16-.62,1.59-1.12.43-.5.72-1.08.88-1.75h2.79c-.35,1.64-1.17,2.98-2.48,4-1.31,1.03-2.92,1.54-4.85,1.54Z"/>
    <path d="M1037.96,475.06c-1.32,0-2.42-.23-3.31-.7-.89-.46-1.55-1.08-1.98-1.85-.43-.77-.65-1.61-.65-2.51,0-1.1.29-2.04.86-2.8.57-.77,1.38-1.35,2.43-1.75,1.05-.4,2.29-.6,3.71-.6h4.31c0-1.02-.16-1.86-.47-2.55-.31-.68-.77-1.19-1.36-1.54-.59-.35-1.34-.52-2.22-.52-1.04,0-1.94.26-2.69.78-.76.52-1.22,1.29-1.39,2.3h-2.79c.13-1.17.52-2.14,1.18-2.93.66-.79,1.5-1.39,2.51-1.82,1.02-.42,2.08-.63,3.18-.63,1.51,0,2.77.28,3.78.83,1,.55,1.76,1.32,2.25,2.3.5.98.75,2.15.75,3.49v10.12h-2.43l-.16-2.89c-.22.45-.49.88-.83,1.28-.34.4-.72.75-1.17,1.04s-.96.52-1.54.7-1.24.26-1.98.26ZM1038.39,472.75c.76,0,1.44-.16,2.06-.47.62-.31,1.14-.75,1.57-1.3s.76-1.16.99-1.83c.23-.67.34-1.37.34-2.11v-.1h-4.09c-1.06,0-1.91.12-2.56.37-.65.25-1.11.59-1.39,1.04-.28.44-.42.95-.42,1.51s.13,1.09.41,1.52c.27.43.67.77,1.2,1,.53.24,1.16.36,1.9.36Z"/>
    <path d="M1050.29,474.67v-16.34h2.46l.13,2.85c.52-1.02,1.26-1.81,2.22-2.38.96-.57,2.06-.86,3.29-.86s2.38.25,3.31.76c.93.51,1.65,1.28,2.17,2.3.52,1.03.78,2.33.78,3.91v9.76h-2.72v-9.47c0-1.64-.36-2.88-1.09-3.7s-1.75-1.23-3.06-1.23c-.91,0-1.72.22-2.43.67-.71.44-1.28,1.08-1.7,1.91-.42.83-.63,1.86-.63,3.1v8.72h-2.72Z"/>
    <path d="M1082.84,475.06c-1.32,0-2.42-.23-3.31-.7-.89-.46-1.55-1.08-1.98-1.85-.43-.77-.65-1.61-.65-2.51,0-1.1.29-2.04.86-2.8.57-.77,1.38-1.35,2.43-1.75,1.05-.4,2.29-.6,3.71-.6h4.31c0-1.02-.16-1.86-.47-2.55-.31-.68-.77-1.19-1.36-1.54-.59-.35-1.34-.52-2.22-.52-1.04,0-1.94.26-2.69.78-.76.52-1.22,1.29-1.39,2.3h-2.79c.13-1.17.52-2.14,1.18-2.93.66-.79,1.5-1.39,2.51-1.82,1.02-.42,2.08-.63,3.18-.63,1.51,0,2.77.28,3.78.83,1,.55,1.76,1.32,2.25,2.3.5.98.75,2.15.75,3.49v10.12h-2.43l-.16-2.89c-.22.45-.49.88-.83,1.28-.34.4-.72.75-1.17,1.04s-.96.52-1.54.7-1.24.26-1.98.26ZM1083.27,472.75c.76,0,1.44-.16,2.06-.47.62-.31,1.14-.75,1.57-1.3s.76-1.16.99-1.83c.23-.67.34-1.37.34-2.11v-.1h-4.09c-1.06,0-1.91.12-2.56.37-.65.25-1.11.59-1.39,1.04-.28.44-.42.95-.42,1.51s.13,1.09.41,1.52c.27.43.67.77,1.2,1,.53.24,1.16.36,1.9.36Z"/>
    <path d="M1095.17,474.67v-23.35h2.72v23.35h-2.72Z"/>
    <path d="M1105.71,474.67l-4.8-16.34h2.72l3.73,13.78h-.49l4.05-13.78h3.08l4.12,13.75-.52.03,3.7-13.78h2.76l-4.77,16.34h-2.79l-4.28-14.4h.55l-4.28,14.4h-2.79Z"/>
    <path d="M1131.88,475.06c-1.32,0-2.42-.23-3.31-.7-.89-.46-1.55-1.08-1.98-1.85-.43-.77-.65-1.61-.65-2.51,0-1.1.29-2.04.86-2.8.57-.77,1.38-1.35,2.43-1.75,1.05-.4,2.29-.6,3.71-.6h4.31c0-1.02-.16-1.86-.47-2.55-.31-.68-.77-1.19-1.36-1.54-.59-.35-1.34-.52-2.22-.52-1.04,0-1.94.26-2.69.78-.76.52-1.22,1.29-1.39,2.3h-2.79c.13-1.17.52-2.14,1.18-2.93.66-.79,1.5-1.39,2.51-1.82,1.02-.42,2.08-.63,3.18-.63,1.51,0,2.77.28,3.78.83,1,.55,1.76,1.32,2.25,2.3.5.98.75,2.15.75,3.49v10.12h-2.43l-.16-2.89c-.22.45-.49.88-.83,1.28-.34.4-.72.75-1.17,1.04s-.96.52-1.54.7-1.24.26-1.98.26ZM1132.3,472.75c.76,0,1.44-.16,2.06-.47.62-.31,1.14-.75,1.57-1.3s.76-1.16.99-1.83c.23-.67.34-1.37.34-2.11v-.1h-4.09c-1.06,0-1.91.12-2.56.37-.65.25-1.11.59-1.39,1.04-.28.44-.42.95-.42,1.51s.13,1.09.41,1.52c.27.43.67.77,1.2,1,.53.24,1.16.36,1.9.36Z"/>
    <path d="M1145.5,481.8l3.99-8.95h-.94l-6.42-14.53h2.95l5.32,12.48,5.61-12.48h2.82l-10.47,23.48h-2.85Z"/>
    <path d="M1166.96,475.06c-1.34,0-2.52-.23-3.54-.68s-1.82-1.09-2.42-1.9c-.59-.81-.96-1.77-1.09-2.87h2.79c.11.56.33,1.08.68,1.56s.82.86,1.41,1.15c.59.29,1.32.44,2.19.44.76,0,1.38-.11,1.88-.34.5-.23.87-.54,1.12-.92.25-.39.37-.81.37-1.26,0-.67-.16-1.18-.47-1.52s-.77-.62-1.38-.83c-.61-.21-1.34-.38-2.21-.54-.71-.13-1.42-.3-2.11-.52s-1.31-.5-1.85-.86c-.54-.36-.97-.79-1.28-1.31-.31-.52-.47-1.16-.47-1.91,0-.93.24-1.76.73-2.48.49-.72,1.17-1.29,2.06-1.7.89-.41,1.92-.62,3.11-.62,1.75,0,3.17.42,4.25,1.26,1.08.84,1.72,2.07,1.91,3.67h-2.69c-.11-.82-.46-1.46-1.05-1.93s-1.41-.7-2.45-.7-1.79.21-2.32.62c-.53.41-.79.95-.79,1.62,0,.43.15.82.44,1.15s.73.62,1.31.86c.58.24,1.29.43,2.11.58,1.08.19,2.06.45,2.95.78s1.61.81,2.16,1.44c.55.64.83,1.54.83,2.71,0,1.02-.25,1.9-.76,2.66s-1.23,1.35-2.16,1.77c-.93.42-2.02.63-3.28.63Z"/>
    <path d="M1194.27,475.06c-.93,0-1.77-.13-2.51-.41-.75-.27-1.4-.63-1.96-1.09-.56-.45-1.03-.98-1.39-1.59l-.23,2.69h-2.46v-23.35h2.72v9.7c.52-.84,1.26-1.57,2.24-2.17s2.17-.91,3.6-.91c1.6,0,2.99.37,4.17,1.12s2.1,1.76,2.76,3.05c.66,1.29.99,2.75.99,4.39s-.33,3.11-.99,4.41c-.66,1.3-1.58,2.31-2.77,3.05-1.19.74-2.57,1.1-4.15,1.1ZM1193.94,472.69c1.08,0,2.03-.26,2.85-.78.82-.52,1.46-1.24,1.93-2.16s.7-2,.7-3.26-.23-2.31-.7-3.24-1.11-1.65-1.93-2.17c-.82-.52-1.77-.78-2.85-.78s-2.03.26-2.85.78c-.82.52-1.46,1.24-1.91,2.17s-.68,2.01-.68,3.24.23,2.34.68,3.26,1.09,1.64,1.91,2.16c.82.52,1.77.78,2.85.78Z"/>
    <path d="M1213.21,475.06c-1.51,0-2.86-.36-4.05-1.07-1.19-.71-2.12-1.71-2.79-3-.67-1.29-1.01-2.78-1.01-4.49s.33-3.23.99-4.51c.66-1.28,1.59-2.27,2.79-2.98,1.2-.71,2.58-1.07,4.13-1.07s2.96.36,4.09,1.07c1.12.71,1.98,1.65,2.58,2.8.59,1.16.89,2.43.89,3.81v.68c0,.24-.01.51-.03.81h-13.39v-2.11h10.73c-.07-1.49-.56-2.66-1.48-3.5s-2.07-1.26-3.45-1.26c-.91,0-1.76.21-2.56.63-.8.42-1.44,1.04-1.91,1.85-.48.81-.71,1.82-.71,3.03v.91c0,1.34.24,2.46.73,3.37.49.91,1.12,1.59,1.91,2.04.79.45,1.64.68,2.54.68,1.15,0,2.09-.25,2.84-.76.75-.51,1.29-1.2,1.64-2.09h2.69c-.28.99-.75,1.88-1.39,2.64s-1.45,1.38-2.42,1.83-2.08.68-3.36.68Z"/>
    <path d="M1229.78,475.06c-1.32,0-2.42-.23-3.31-.7-.89-.46-1.55-1.08-1.98-1.85-.43-.77-.65-1.61-.65-2.51,0-1.1.29-2.04.86-2.8.57-.77,1.38-1.35,2.43-1.75,1.05-.4,2.29-.6,3.71-.6h4.31c0-1.02-.16-1.86-.47-2.55-.31-.68-.77-1.19-1.36-1.54-.59-.35-1.34-.52-2.22-.52-1.04,0-1.94.26-2.69.78-.76.52-1.22,1.29-1.39,2.3h-2.79c.13-1.17.52-2.14,1.18-2.93.66-.79,1.5-1.39,2.51-1.82,1.02-.42,2.08-.63,3.18-.63,1.51,0,2.77.28,3.78.83,1,.55,1.76,1.32,2.25,2.3.5.98.75,2.15.75,3.49v10.12h-2.43l-.16-2.89c-.22.45-.49.88-.83,1.28-.34.4-.72.75-1.17,1.04s-.96.52-1.54.7-1.24.26-1.98.26ZM1230.2,472.75c.76,0,1.44-.16,2.06-.47.62-.31,1.14-.75,1.57-1.3s.76-1.16.99-1.83c.23-.67.34-1.37.34-2.11v-.1h-4.09c-1.06,0-1.91.12-2.56.37-.65.25-1.11.59-1.39,1.04-.28.44-.42.95-.42,1.51s.13,1.09.41,1.52c.27.43.67.77,1.2,1,.53.24,1.16.36,1.9.36Z"/>
    <path d="M1248.07,474.67c-.97,0-1.82-.15-2.53-.45-.71-.3-1.26-.82-1.64-1.54s-.57-1.7-.57-2.93v-9.11h-2.85v-2.3h2.85l.36-3.96h2.37v3.96h4.73v2.3h-4.73v9.11c0,1.02.21,1.7.62,2.06.41.36,1.13.54,2.17.54h1.75v2.33h-2.53Z"/>
    <path d="M1268.3,475.06c-1.32,0-2.42-.23-3.31-.7-.89-.46-1.55-1.08-1.98-1.85-.43-.77-.65-1.61-.65-2.51,0-1.1.29-2.04.86-2.8.57-.77,1.38-1.35,2.43-1.75,1.05-.4,2.29-.6,3.71-.6h4.31c0-1.02-.16-1.86-.47-2.55-.31-.68-.77-1.19-1.36-1.54-.59-.35-1.34-.52-2.22-.52-1.04,0-1.94.26-2.69.78-.76.52-1.22,1.29-1.39,2.3h-2.79c.13-1.17.52-2.14,1.18-2.93.66-.79,1.5-1.39,2.51-1.82,1.02-.42,2.08-.63,3.18-.63,1.51,0,2.77.28,3.78.83,1,.55,1.76,1.32,2.25,2.3.5.98.75,2.15.75,3.49v10.12h-2.43l-.16-2.89c-.22.45-.49.88-.83,1.28-.34.4-.72.75-1.17,1.04s-.96.52-1.54.7-1.24.26-1.98.26ZM1268.73,472.75c.76,0,1.44-.16,2.06-.47.62-.31,1.14-.75,1.57-1.3s.76-1.16.99-1.83c.23-.67.34-1.37.34-2.11v-.1h-4.09c-1.06,0-1.91.12-2.56.37-.65.25-1.11.59-1.39,1.04-.28.44-.42.95-.42,1.51s.13,1.09.41,1.52c.27.43.67.77,1.2,1,.53.24,1.16.36,1.9.36Z"/>
    <path d="M877.15,508.02v-16.34h2.46l.16,2.33c.52-.84,1.22-1.51,2.09-2,.88-.49,1.83-.73,2.87-.73.84,0,1.61.11,2.29.34.68.23,1.29.57,1.82,1.04.53.47.95,1.05,1.25,1.77.56-.99,1.34-1.77,2.33-2.32.99-.55,2.04-.83,3.15-.83,1.28,0,2.38.25,3.31.76.93.51,1.65,1.28,2.17,2.3.52,1.03.78,2.33.78,3.91v9.76h-2.69v-9.47c0-1.64-.34-2.88-1-3.7-.67-.82-1.62-1.23-2.85-1.23-.84,0-1.6.22-2.27.67-.67.44-1.2,1.09-1.59,1.93-.39.84-.58,1.88-.58,3.11v8.69h-2.72v-9.47c0-1.64-.34-2.88-1.01-3.7s-1.61-1.23-2.82-1.23c-.82,0-1.57.22-2.24.67-.67.44-1.2,1.09-1.59,1.93-.39.84-.58,1.88-.58,3.11v8.69h-2.72Z"/>
    <path d="M911.37,508.4c-1.32,0-2.42-.23-3.31-.7-.89-.46-1.55-1.08-1.98-1.85-.43-.77-.65-1.61-.65-2.51,0-1.1.29-2.04.86-2.8.57-.77,1.38-1.35,2.43-1.75,1.05-.4,2.29-.6,3.71-.6h4.31c0-1.02-.16-1.86-.47-2.55-.31-.68-.77-1.19-1.36-1.54-.59-.35-1.34-.52-2.22-.52-1.04,0-1.94.26-2.69.78-.76.52-1.22,1.29-1.39,2.3h-2.79c.13-1.17.52-2.14,1.18-2.93.66-.79,1.5-1.39,2.51-1.82,1.02-.42,2.08-.63,3.18-.63,1.51,0,2.77.28,3.78.83,1,.55,1.76,1.32,2.25,2.3.5.98.75,2.15.75,3.49v10.12h-2.43l-.16-2.89c-.22.45-.49.88-.83,1.28-.34.4-.72.75-1.17,1.04s-.96.52-1.54.7-1.24.26-1.98.26ZM911.79,506.1c.76,0,1.44-.16,2.06-.47.62-.31,1.14-.75,1.57-1.3s.76-1.16.99-1.83c.23-.67.34-1.37.34-2.11v-.1h-4.09c-1.06,0-1.91.12-2.56.37-.65.25-1.11.59-1.39,1.04-.28.44-.42.95-.42,1.51s.13,1.09.41,1.52c.27.43.67.77,1.2,1,.53.24,1.16.36,1.9.36Z"/>
    <path d="M923.69,508.02v-23.35h2.72v23.35h-2.72Z"/>
    <path d="M932.54,488.2c-.54,0-.99-.18-1.35-.53s-.54-.81-.54-1.35.18-.98.54-1.31c.36-.33.8-.5,1.35-.5s.96.17,1.33.5c.37.33.55.77.55,1.31s-.18.99-.55,1.35c-.37.36-.81.53-1.33.53ZM931.18,508.02v-16.34h2.72v16.34h-2.72Z"/>
    <path d="M946.06,508.4c-1.54,0-2.91-.36-4.13-1.07-1.22-.71-2.18-1.71-2.87-3-.69-1.29-1.04-2.77-1.04-4.46s.35-3.23,1.04-4.51c.69-1.28,1.65-2.27,2.87-3,1.22-.72,2.6-1.09,4.13-1.09,1.95,0,3.57.5,4.86,1.51,1.3,1.01,2.12,2.35,2.46,4.04h-2.79c-.22-1.02-.75-1.81-1.59-2.37-.84-.56-1.84-.84-2.98-.84-.93,0-1.79.23-2.58.7s-1.43,1.16-1.91,2.09-.73,2.08-.73,3.44c0,1.02.14,1.92.42,2.71.28.79.66,1.44,1.13,1.96.48.52,1.03.91,1.67,1.18s1.3.41,1.99.41c.78,0,1.48-.12,2.11-.37.63-.25,1.16-.62,1.59-1.12.43-.5.72-1.08.88-1.75h2.79c-.35,1.64-1.17,2.98-2.48,4-1.31,1.03-2.92,1.54-4.85,1.54Z"/>
    <path d="M958.87,488.2c-.54,0-.99-.18-1.35-.53s-.54-.81-.54-1.35.18-.98.54-1.31c.36-.33.8-.5,1.35-.5s.96.17,1.33.5c.37.33.55.77.55,1.31s-.18.99-.55,1.35c-.37.36-.81.53-1.33.53ZM957.51,508.02v-16.34h2.72v16.34h-2.72Z"/>
    <path d="M972.33,508.4c-1.51,0-2.88-.35-4.09-1.05s-2.16-1.7-2.85-2.98c-.69-1.29-1.04-2.78-1.04-4.49s.35-3.27,1.05-4.56c.7-1.29,1.67-2.28,2.89-2.98,1.22-.7,2.59-1.05,4.1-1.05s2.93.35,4.13,1.05c1.2.7,2.15,1.7,2.85,2.98.7,1.29,1.05,2.79,1.05,4.52s-.36,3.24-1.07,4.52c-.71,1.29-1.68,2.28-2.89,2.98-1.21.7-2.59,1.05-4.15,1.05ZM972.36,506.07c.93,0,1.79-.23,2.59-.7s1.45-1.16,1.95-2.09.75-2.08.75-3.44-.24-2.54-.73-3.45c-.49-.92-1.12-1.61-1.91-2.08-.79-.46-1.66-.7-2.61-.7s-1.77.23-2.58.7c-.81.46-1.46,1.16-1.95,2.08-.49.92-.73,2.07-.73,3.45s.24,2.51.73,3.44,1.12,1.63,1.91,2.09,1.65.7,2.58.7Z"/>
    <path d="M990.2,508.4c-1.25,0-2.35-.25-3.29-.75s-1.67-1.26-2.17-2.3-.76-2.33-.76-3.89v-9.79h2.72v9.5c0,1.62.36,2.84,1.07,3.67.71.82,1.72,1.23,3.02,1.23.91,0,1.73-.22,2.46-.67.73-.44,1.31-1.08,1.73-1.91.42-.83.63-1.87.63-3.1v-8.72h2.72v16.34h-2.46l-.16-2.85c-.5,1.02-1.23,1.81-2.21,2.38-.97.57-2.08.86-3.31.86Z"/>
    <path d="M1009.01,508.4c-1.34,0-2.52-.23-3.54-.68s-1.82-1.09-2.42-1.9c-.59-.81-.96-1.77-1.09-2.87h2.79c.11.56.33,1.08.68,1.56s.82.86,1.41,1.15c.59.29,1.32.44,2.19.44.76,0,1.38-.11,1.88-.34.5-.23.87-.54,1.12-.92.25-.39.37-.81.37-1.26,0-.67-.16-1.18-.47-1.52s-.77-.62-1.38-.83c-.61-.21-1.34-.38-2.21-.54-.71-.13-1.42-.3-2.11-.52s-1.31-.5-1.85-.86c-.54-.36-.97-.79-1.28-1.31-.31-.52-.47-1.16-.47-1.91,0-.93.24-1.76.73-2.48.49-.72,1.17-1.29,2.06-1.7.89-.41,1.92-.62,3.11-.62,1.75,0,3.17.42,4.25,1.26,1.08.84,1.72,2.07,1.91,3.67h-2.69c-.11-.82-.46-1.46-1.05-1.93s-1.41-.7-2.45-.7-1.79.21-2.32.62c-.53.41-.79.95-.79,1.62,0,.43.15.82.44,1.15s.73.62,1.31.86c.58.24,1.29.43,2.11.58,1.08.19,2.06.45,2.95.78s1.61.81,2.16,1.44c.55.64.83,1.54.83,2.71,0,1.02-.25,1.9-.76,2.66s-1.23,1.35-2.16,1.77c-.93.42-2.02.63-3.28.63Z"/>
    <path d="M1034.92,508.4c-1.51,0-2.86-.36-4.05-1.07-1.19-.71-2.12-1.71-2.79-3-.67-1.29-1.01-2.78-1.01-4.49s.33-3.23.99-4.51c.66-1.28,1.59-2.27,2.79-2.98,1.2-.71,2.58-1.07,4.13-1.07s2.96.36,4.09,1.07c1.12.71,1.98,1.65,2.58,2.8.59,1.16.89,2.43.89,3.81v.68c0,.24-.01.51-.03.81h-13.39v-2.11h10.73c-.07-1.49-.56-2.66-1.48-3.5s-2.07-1.26-3.45-1.26c-.91,0-1.76.21-2.56.63-.8.42-1.44,1.04-1.91,1.85-.48.81-.71,1.82-.71,3.03v.91c0,1.34.24,2.46.73,3.37.49.91,1.12,1.59,1.91,2.04.79.45,1.64.68,2.54.68,1.15,0,2.09-.25,2.84-.76.75-.51,1.29-1.2,1.64-2.09h2.69c-.28.99-.75,1.88-1.39,2.64s-1.45,1.38-2.42,1.83-2.08.68-3.36.68Z"/>
    <path d="M1043.8,508.02l5.55-8.17-5.55-8.17h2.98l4.41,6.68,4.48-6.68h2.92l-5.55,8.17,5.55,8.17h-2.92l-4.48-6.71-4.41,6.71h-2.98Z"/>
    <path d="M1063.13,488.2c-.54,0-.99-.18-1.35-.53s-.54-.81-.54-1.35.18-.98.54-1.31c.36-.33.8-.5,1.35-.5s.96.17,1.33.5c.37.33.55.77.55,1.31s-.18.99-.55,1.35c-.37.36-.81.53-1.33.53ZM1061.77,508.02v-16.34h2.72v16.34h-2.72Z"/>
    <path d="M1075.71,508.02c-.97,0-1.82-.15-2.53-.45-.71-.3-1.26-.82-1.64-1.54s-.57-1.7-.57-2.93v-9.11h-2.85v-2.3h2.85l.36-3.96h2.37v3.96h4.73v2.3h-4.73v9.11c0,1.02.21,1.7.62,2.06.41.36,1.13.54,2.17.54h1.75v2.33h-2.53Z"/>
    <path d="M1097.05,508.02c-.97,0-1.82-.15-2.53-.45-.71-.3-1.26-.82-1.64-1.54s-.57-1.7-.57-2.93v-9.11h-2.85v-2.3h2.85l.36-3.96h2.37v3.96h4.73v2.3h-4.73v9.11c0,1.02.21,1.7.62,2.06.41.36,1.13.54,2.17.54h1.75v2.33h-2.53Z"/>
    <path d="M1110.18,508.4c-1.51,0-2.88-.35-4.09-1.05s-2.16-1.7-2.85-2.98c-.69-1.29-1.04-2.78-1.04-4.49s.35-3.27,1.05-4.56c.7-1.29,1.67-2.28,2.89-2.98,1.22-.7,2.59-1.05,4.1-1.05s2.93.35,4.13,1.05c1.2.7,2.15,1.7,2.85,2.98.7,1.29,1.05,2.79,1.05,4.52s-.36,3.24-1.07,4.52c-.71,1.29-1.68,2.28-2.89,2.98-1.21.7-2.59,1.05-4.15,1.05ZM1110.21,506.07c.93,0,1.79-.23,2.59-.7s1.45-1.16,1.95-2.09.75-2.08.75-3.44-.24-2.54-.73-3.45c-.49-.92-1.12-1.61-1.91-2.08-.79-.46-1.66-.7-2.61-.7s-1.77.23-2.58.7c-.81.46-1.46,1.16-1.95,2.08-.49.92-.73,2.07-.73,3.45s.24,2.51.73,3.44,1.12,1.63,1.91,2.09,1.65.7,2.58.7Z"/>
    <path d="M1139.3,508.4c-.93,0-1.77-.13-2.51-.41-.75-.27-1.4-.63-1.96-1.09-.56-.45-1.03-.98-1.39-1.59l-.23,2.69h-2.46v-23.35h2.72v9.7c.52-.84,1.26-1.57,2.24-2.17s2.17-.91,3.6-.91c1.6,0,2.99.37,4.17,1.12s2.1,1.76,2.76,3.05c.66,1.29.99,2.75.99,4.39s-.33,3.11-.99,4.41c-.66,1.3-1.58,2.31-2.77,3.05-1.19.74-2.57,1.1-4.15,1.1ZM1138.98,506.04c1.08,0,2.03-.26,2.85-.78.82-.52,1.46-1.24,1.93-2.16s.7-2,.7-3.26-.23-2.31-.7-3.24-1.11-1.65-1.93-2.17c-.82-.52-1.77-.78-2.85-.78s-2.03.26-2.85.78c-.82.52-1.46,1.24-1.91,2.17s-.68,2.01-.68,3.24.23,2.34.68,3.26,1.09,1.64,1.91,2.16c.82.52,1.77.78,2.85.78Z"/>
    <path d="M1151.07,508.02v-16.34h2.46l.19,3.11c.37-.73.84-1.36,1.41-1.88.57-.52,1.26-.92,2.08-1.2s1.74-.42,2.77-.42v2.85h-1c-.69,0-1.35.09-1.98.28s-1.18.48-1.67.89c-.49.41-.86.97-1.13,1.67-.27.7-.41,1.57-.41,2.61v8.43h-2.72Z"/>
    <path d="M1169.75,508.4c-1.51,0-2.88-.35-4.09-1.05s-2.16-1.7-2.85-2.98c-.69-1.29-1.04-2.78-1.04-4.49s.35-3.27,1.05-4.56c.7-1.29,1.67-2.28,2.89-2.98,1.22-.7,2.59-1.05,4.1-1.05s2.93.35,4.13,1.05c1.2.7,2.15,1.7,2.85,2.98.7,1.29,1.05,2.79,1.05,4.52s-.36,3.24-1.07,4.52c-.71,1.29-1.68,2.28-2.89,2.98-1.21.7-2.59,1.05-4.15,1.05ZM1169.78,506.07c.93,0,1.79-.23,2.59-.7s1.45-1.16,1.95-2.09.75-2.08.75-3.44-.24-2.54-.73-3.45c-.49-.92-1.12-1.61-1.91-2.08-.79-.46-1.66-.7-2.61-.7s-1.77.23-2.58.7c-.81.46-1.46,1.16-1.95,2.08-.49.92-.73,2.07-.73,3.45s.24,2.51.73,3.44,1.12,1.63,1.91,2.09,1.65.7,2.58.7Z"/>
    <path d="M1187,508.4c-1.32,0-2.42-.23-3.31-.7-.89-.46-1.55-1.08-1.98-1.85-.43-.77-.65-1.61-.65-2.51,0-1.1.29-2.04.86-2.8.57-.77,1.38-1.35,2.43-1.75,1.05-.4,2.29-.6,3.71-.6h4.31c0-1.02-.16-1.86-.47-2.55-.31-.68-.77-1.19-1.36-1.54-.59-.35-1.34-.52-2.22-.52-1.04,0-1.94.26-2.69.78-.76.52-1.22,1.29-1.39,2.3h-2.79c.13-1.17.52-2.14,1.18-2.93.66-.79,1.5-1.39,2.51-1.82,1.02-.42,2.08-.63,3.18-.63,1.51,0,2.77.28,3.78.83,1,.55,1.76,1.32,2.25,2.3.5.98.75,2.15.75,3.49v10.12h-2.43l-.16-2.89c-.22.45-.49.88-.83,1.28-.34.4-.72.75-1.17,1.04s-.96.52-1.54.7-1.24.26-1.98.26ZM1187.43,506.1c.76,0,1.44-.16,2.06-.47.62-.31,1.14-.75,1.57-1.3s.76-1.16.99-1.83c.23-.67.34-1.37.34-2.11v-.1h-4.09c-1.06,0-1.91.12-2.56.37-.65.25-1.11.59-1.39,1.04-.28.44-.42.95-.42,1.51s.13,1.09.41,1.52c.27.43.67.77,1.2,1,.53.24,1.16.36,1.9.36Z"/>
    <path d="M1206.56,508.4c-1.58,0-2.97-.37-4.17-1.12-1.2-.75-2.12-1.77-2.77-3.06-.65-1.3-.97-2.77-.97-4.41s.32-3.11.97-4.39c.65-1.29,1.57-2.3,2.77-3.03,1.2-.73,2.6-1.1,4.2-1.1,1.32,0,2.48.27,3.49.81,1,.54,1.79,1.3,2.35,2.27v-9.7h2.72v23.35h-2.46l-.26-2.69c-.35.54-.79,1.04-1.33,1.51-.54.46-1.18.84-1.93,1.13s-1.62.44-2.61.44ZM1206.85,506.04c1.08,0,2.03-.26,2.85-.78.82-.52,1.46-1.24,1.93-2.16.46-.92.7-2,.7-3.26s-.23-2.31-.7-3.24c-.47-.93-1.11-1.65-1.93-2.17-.82-.52-1.77-.78-2.85-.78s-1.97.26-2.81.78c-.83.52-1.48,1.24-1.93,2.17s-.68,2.01-.68,3.24.23,2.34.68,3.26,1.1,1.64,1.93,2.16c.83.52,1.77.78,2.81.78Z"/>
    <path d="M1227.02,508.4c-1.54,0-2.91-.36-4.13-1.07-1.22-.71-2.18-1.71-2.87-3-.69-1.29-1.04-2.77-1.04-4.46s.35-3.23,1.04-4.51c.69-1.28,1.65-2.27,2.87-3,1.22-.72,2.6-1.09,4.13-1.09,1.95,0,3.57.5,4.86,1.51,1.3,1.01,2.12,2.35,2.46,4.04h-2.79c-.22-1.02-.75-1.81-1.59-2.37-.84-.56-1.84-.84-2.98-.84-.93,0-1.79.23-2.58.7s-1.43,1.16-1.91,2.09-.73,2.08-.73,3.44c0,1.02.14,1.92.42,2.71.28.79.66,1.44,1.13,1.96.48.52,1.03.91,1.67,1.18s1.3.41,1.99.41c.78,0,1.48-.12,2.11-.37.63-.25,1.16-.62,1.59-1.12.43-.5.72-1.08.88-1.75h2.79c-.35,1.64-1.17,2.98-2.48,4-1.31,1.03-2.92,1.54-4.85,1.54Z"/>
    <path d="M1243.53,508.4c-1.32,0-2.42-.23-3.31-.7-.89-.46-1.55-1.08-1.98-1.85-.43-.77-.65-1.61-.65-2.51,0-1.1.29-2.04.86-2.8.57-.77,1.38-1.35,2.43-1.75,1.05-.4,2.29-.6,3.71-.6h4.31c0-1.02-.16-1.86-.47-2.55-.31-.68-.77-1.19-1.36-1.54-.59-.35-1.34-.52-2.22-.52-1.04,0-1.94.26-2.69.78-.76.52-1.22,1.29-1.39,2.3h-2.79c.13-1.17.52-2.14,1.18-2.93.66-.79,1.5-1.39,2.51-1.82,1.02-.42,2.08-.63,3.18-.63,1.51,0,2.77.28,3.78.83,1,.55,1.76,1.32,2.25,2.3.5.98.75,2.15.75,3.49v10.12h-2.43l-.16-2.89c-.22.45-.49.88-.83,1.28-.34.4-.72.75-1.17,1.04s-.96.52-1.54.7-1.24.26-1.98.26ZM1243.95,506.1c.76,0,1.44-.16,2.06-.47.62-.31,1.14-.75,1.57-1.3s.76-1.16.99-1.83c.23-.67.34-1.37.34-2.11v-.1h-4.09c-1.06,0-1.91.12-2.56.37-.65.25-1.11.59-1.39,1.04-.28.44-.42.95-.42,1.51s.13,1.09.41,1.52c.27.43.67.77,1.2,1,.53.24,1.16.36,1.9.36Z"/>
    <path d="M1262.01,508.4c-1.34,0-2.52-.23-3.54-.68s-1.82-1.09-2.42-1.9c-.59-.81-.96-1.77-1.09-2.87h2.79c.11.56.33,1.08.68,1.56s.82.86,1.41,1.15c.59.29,1.32.44,2.19.44.76,0,1.38-.11,1.88-.34.5-.23.87-.54,1.12-.92.25-.39.37-.81.37-1.26,0-.67-.16-1.18-.47-1.52s-.77-.62-1.38-.83c-.61-.21-1.34-.38-2.21-.54-.71-.13-1.42-.3-2.11-.52s-1.31-.5-1.85-.86c-.54-.36-.97-.79-1.28-1.31-.31-.52-.47-1.16-.47-1.91,0-.93.24-1.76.73-2.48.49-.72,1.17-1.29,2.06-1.7.89-.41,1.92-.62,3.11-.62,1.75,0,3.17.42,4.25,1.26,1.08.84,1.72,2.07,1.91,3.67h-2.69c-.11-.82-.46-1.46-1.05-1.93s-1.41-.7-2.45-.7-1.79.21-2.32.62c-.53.41-.79.95-.79,1.62,0,.43.15.82.44,1.15s.73.62,1.31.86c.58.24,1.29.43,2.11.58,1.08.19,2.06.45,2.95.78s1.61.81,2.16,1.44c.55.64.83,1.54.83,2.71,0,1.02-.25,1.9-.76,2.66s-1.23,1.35-2.16,1.77c-.93.42-2.02.63-3.28.63Z"/>
    <path d="M1277.84,508.02c-.97,0-1.82-.15-2.53-.45-.71-.3-1.26-.82-1.64-1.54s-.57-1.7-.57-2.93v-9.11h-2.85v-2.3h2.85l.36-3.96h2.37v3.96h4.73v2.3h-4.73v9.11c0,1.02.21,1.7.62,2.06.41.36,1.13.54,2.17.54h1.75v2.33h-2.53Z"/>
  </g>
  <g>
    <line class="cls-6" x1="610.71" y1="243.15" x2="810.41" y2="243.15"/>
    <path class="cls-11" d="M789.9,257.55c-.45-.7-.24-1.63.46-2.07l19.36-12.33-19.36-12.33c-.7-.45-.91-1.37-.46-2.07.45-.7,1.38-.9,2.07-.46l21.34,13.59c.43.28.69.75.69,1.27s-.26.99-.69,1.27l-21.34,13.59c-.25.16-.53.23-.81.23-.5,0-.98-.25-1.27-.69Z"/>
  </g>
  <g>
    <line class="cls-6" x1="610.71" y1="340.3" x2="810.41" y2="340.3"/>
    <path class="cls-11" d="M789.9,354.7c-.45-.7-.24-1.63.46-2.07l19.36-12.33-19.36-12.33c-.7-.45-.91-1.37-.46-2.07.45-.7,1.38-.9,2.07-.46l21.34,13.59c.43.28.69.75.69,1.27s-.26.99-.69,1.27l-21.34,13.59c-.25.16-.53.23-.81.23-.5,0-.98-.25-1.27-.69Z"/>
  </g>
  <g>
    <path class="cls-9" d="M92.94,140.78h495.14c12.57,0,22.63,10.21,22.63,22.63v42.58H70.15v-42.58c0-12.57,10.21-22.63,22.63-22.63h.16Z"/>
    <path d="M587.92,144.39c10.53,0,19.01,8.49,19.01,19.01v194.22c0,10.53-8.49,19.01-19.01,19.01H92.94c-10.53,0-19.01-8.49-19.01-19.01v-194.22c0-10.53,8.49-19.01,19.01-19.01h495.14M587.92,140.78H92.94c-12.57,0-22.63,10.21-22.63,22.63v194.22c0,12.57,10.21,22.63,22.63,22.63h495.14c12.57,0,22.63-10.21,22.63-22.63v-194.22c0-12.57-10.21-22.63-22.63-22.63h-.16Z"/>
    <rect x="70.15" y="204.26" width="540.55" height="3.61"/>
    <path class="cls-4" d="M206.39,364.54c-.94,0-1.73-.79-1.73-1.89v-138.28c0-.94.79-1.89,1.73-1.89s1.73.79,1.73,1.89v138.28c0,.94-.79,1.89-1.73,1.89Z"/>
    <path class="cls-4" d="M595.31,296.97h-155.25c-.94,0-1.73-.79-1.73-1.89s.79-1.89,1.73-1.89h155.25c.94,0,1.73.79,1.73,1.89s-.79,1.89-1.73,1.89Z"/>
    <path class="cls-4" d="M374.69,296.97h-167.82c-.94,0-1.73-.79-1.73-1.89s.79-1.89,1.73-1.89h167.82c.94,0,1.73.79,1.73,1.89s-.79,1.89-1.73,1.89Z"/>
    <g class="cls-7">
      <g class="cls-7">
        <path class="cls-5" d="M400.61,306.09c-1.89,0-3.61-.47-5.03-1.26-1.57-.94-2.67-2.04-3.46-3.61s-1.26-3.3-1.26-5.34.47-3.93,1.26-5.5,2.04-2.83,3.61-3.61,3.14-1.26,5.03-1.26,3.61.47,5.03,1.26c1.57.94,2.67,2.04,3.46,3.61s1.26,3.3,1.26,5.5-.47,3.93-1.26,5.5-2.04,2.83-3.61,3.61c-1.57.94-3.14,1.26-5.03,1.26v-.16ZM400.61,302c.94,0,1.73-.16,2.51-.63.79-.47,1.41-1.26,1.89-2.2.47-.94.79-2.04.79-3.46s-.16-2.51-.63-3.46c-.47-.94-1.1-1.57-1.89-2.04s-1.57-.79-2.51-.79-1.73.16-2.51.79c-.79.47-1.41,1.1-1.89,2.04-.47.94-.79,2.04-.79,3.46s.31,2.51.79,3.46c.47.94,1.1,1.57,1.89,2.2.79.47,1.57.63,2.51.63h-.16Z"/>
        <path class="cls-5" d="M415.23,305.62v-19.8h4.24l.47,3.61c.47-.79,1.1-1.57,1.73-2.2s1.57-1.1,2.51-1.41c.94-.31,2.04-.47,3.14-.47v5.03h-1.73c-.79,0-1.57,0-2.2.31s-1.26.47-1.89.94c-.47.47-.94,1.1-1.26,1.73-.31.79-.47,1.73-.47,2.83v9.43h-4.71.16Z"/>
      </g>
    </g>
  </g>
  <g class="cls-7">
    <g class="cls-7">
      <path d="M101.31,186.19v-27.5h17.36v3.22h-13.44v8.8h12.26v3.14h-12.26v9.11h13.44v3.22h-17.36Z"/>
      <path d="M121.66,186.19l6.84-9.9-6.84-9.9h4.24l5.19,7.7,5.22-7.7h4.2l-6.83,9.9,6.83,9.9h-4.2l-5.22-7.74-5.19,7.74h-4.24Z"/>
      <path d="M146.25,162.66c-.76,0-1.38-.24-1.87-.71-.48-.47-.73-1.07-.73-1.81s.24-1.29.73-1.75c.48-.46,1.11-.69,1.87-.69s1.35.23,1.85.69c.5.46.75,1.04.75,1.75s-.25,1.34-.75,1.81c-.5.47-1.11.71-1.85.71ZM144.24,186.19v-19.8h3.93v19.8h-3.93Z"/>
      <path d="M161.92,186.19c-1.23,0-2.3-.2-3.22-.59-.92-.39-1.62-1.05-2.12-1.96-.5-.92-.75-2.16-.75-3.73v-10.17h-3.42v-3.34h3.42l.47-4.95h3.46v4.95h5.62v3.34h-5.62v10.21c0,1.13.24,1.89.71,2.3.47.41,1.28.61,2.44.61h2.28v3.34h-3.26Z"/>
    </g>
  </g>
  <g class="cls-7">
    <g class="cls-7">
      <path d="M349.82,264.02c-1.47-1.49-2.78-3.2-3.93-5.13-1.15-1.92-2.05-4.04-2.69-6.34s-.96-4.74-.96-7.31.32-5.03.96-7.33c.64-2.29,1.54-4.41,2.69-6.34,1.15-1.94,2.46-3.64,3.93-5.11h5.26v.51c-1.57,1.65-2.93,3.46-4.07,5.42-1.14,1.96-2.02,4.03-2.65,6.19-.63,2.16-.94,4.38-.94,6.66s.31,4.5.94,6.66c.63,2.16,1.52,4.22,2.67,6.17,1.15,1.95,2.5,3.76,4.05,5.44v.51h-5.26Z"/>
    </g>
    <g class="cls-7">
      <path class="cls-3" d="M365.02,258.32l10.06-27.5h6.01l10.02,27.5h-5.62l-7.42-21.45-7.46,21.45h-5.58ZM369.46,252.07l1.41-4.12h13.99l1.38,4.12h-16.77Z"/>
    </g>
    <g class="cls-7">
      <path d="M401.6,249.17v-4.44h19.17v4.44h-19.17ZM408.94,255.92v-17.91h4.52v17.91h-4.52Z"/>
    </g>
    <g class="cls-7">
      <path class="cls-8" d="M442.65,258.79c-1.99,0-3.76-.34-5.32-1.02-1.56-.68-2.79-1.68-3.69-2.99s-1.37-2.89-1.39-4.75h5.62c.03.81.24,1.55.63,2.2s.94,1.17,1.63,1.55c.69.38,1.53.57,2.49.57.84,0,1.56-.14,2.18-.41.61-.28,1.09-.66,1.43-1.16.34-.5.51-1.09.51-1.77,0-.79-.19-1.44-.57-1.96-.38-.52-.9-.97-1.57-1.33-.67-.37-1.44-.7-2.32-1-.88-.3-1.8-.62-2.77-.96-2.17-.71-3.83-1.65-4.97-2.83-1.14-1.18-1.71-2.74-1.71-4.67,0-1.65.4-3.06,1.2-4.24s1.91-2.08,3.32-2.71c1.41-.63,3.02-.94,4.83-.94s3.49.32,4.89.96c1.4.64,2.51,1.57,3.34,2.77.83,1.21,1.25,2.62,1.28,4.24h-5.66c-.03-.6-.2-1.17-.53-1.71-.33-.54-.78-.97-1.36-1.3-.58-.33-1.26-.49-2.04-.49-.68-.03-1.3.08-1.87.31s-1.01.58-1.33,1.04c-.33.46-.49,1.03-.49,1.71s.16,1.21.49,1.65c.33.45.78.83,1.35,1.16.58.33,1.26.63,2.04.9.79.28,1.64.56,2.55.84,1.36.47,2.62,1.03,3.77,1.67,1.15.64,2.07,1.47,2.75,2.49.68,1.02,1.02,2.37,1.02,4.05,0,1.44-.38,2.78-1.14,4.01-.76,1.23-1.85,2.23-3.28,2.99-1.43.76-3.2,1.14-5.32,1.14Z"/>
    </g>
    <g class="cls-7">
      <path d="M468.58,264.02h-5.3v-.51c1.57-1.68,2.93-3.49,4.09-5.44,1.15-1.95,2.04-4.01,2.65-6.17.62-2.16.92-4.38.92-6.66s-.31-4.5-.92-6.66c-.62-2.16-1.5-4.22-2.65-6.19s-2.51-3.77-4.09-5.42v-.51h5.3c1.47,1.47,2.77,3.17,3.91,5.11,1.14,1.94,2.04,4.05,2.69,6.34.65,2.29.98,4.73.98,7.33s-.33,5-.98,7.31-1.55,4.42-2.69,6.34c-1.14,1.92-2.44,3.63-3.91,5.13Z"/>
    </g>
  </g>
  <g class="cls-7">
    <g class="cls-7">
      <path class="cls-3" d="M378.51,356.53l10.06-27.5h6.01l10.02,27.5h-5.62l-7.42-21.45-7.46,21.45h-5.58ZM382.95,350.28l1.42-4.12h13.99l1.38,4.12h-16.78Z"/>
    </g>
  </g>
  <g class="cls-7">
    <g class="cls-7">
      <path d="M143.5,290.22v-9.53h-23.39v-5.2l22.32-31.91h7.66v31.31h6.66v5.8h-6.66v9.53h-6.6ZM127.38,274.89h16.52v-23.99l-16.52,23.99Z"/>
    </g>
    <g class="cls-7">
      <path d="M103.51,337.36v-27.5h10.17c1.91,0,3.51.31,4.79.92,1.28.62,2.25,1.45,2.89,2.51.64,1.06.96,2.26.96,3.59s-.3,2.55-.9,3.5c-.6.94-1.39,1.67-2.38,2.18-.98.51-2.04.81-3.16.88l.55-.39c1.2.03,2.3.35,3.3.96s1.78,1.43,2.36,2.46c.58,1.02.86,2.15.86,3.38,0,1.41-.34,2.69-1.02,3.83-.68,1.14-1.69,2.04-3.03,2.69-1.33.66-2.97.98-4.91.98h-10.49ZM107.44,321.73h5.81c1.65,0,2.91-.39,3.77-1.16s1.3-1.84,1.3-3.2-.43-2.35-1.3-3.12c-.86-.77-2.16-1.16-3.89-1.16h-5.7v8.64ZM107.44,334.1h6.05c1.73,0,3.07-.4,4.03-1.2.96-.8,1.43-1.93,1.43-3.4s-.49-2.59-1.47-3.46-2.34-1.3-4.07-1.3h-5.97v9.35Z"/>
      <path d="M133.48,337.36v-24.28h-8.13v-3.22h20.23v3.22h-8.17v24.28h-3.93Z"/>
      <path d="M160.35,337.83c-2.7,0-5.02-.6-6.97-1.79-1.95-1.19-3.46-2.85-4.52-4.99s-1.59-4.62-1.59-7.45.53-5.28,1.59-7.42c1.06-2.15,2.57-3.82,4.52-5.01,1.95-1.19,4.28-1.79,6.97-1.79,3.22,0,5.83.77,7.84,2.32,2,1.54,3.28,3.72,3.83,6.52h-4.32c-.39-1.62-1.2-2.92-2.42-3.89s-2.86-1.45-4.93-1.45c-1.86,0-3.47.43-4.83,1.3-1.36.86-2.41,2.1-3.14,3.69-.73,1.6-1.1,3.51-1.1,5.74s.37,4.14,1.1,5.76c.73,1.61,1.78,2.84,3.14,3.69,1.36.85,2.97,1.28,4.83,1.28,2.07,0,3.71-.46,4.93-1.39,1.22-.93,2.02-2.19,2.42-3.79h4.32c-.55,2.72-1.83,4.85-3.83,6.38-2,1.53-4.62,2.3-7.84,2.3Z"/>
    </g>
  </g>
  <g id="Layer_1">
    <g>
      <rect class="cls-1" x="418.49" y="340.36" width="8.94" height="4.03"/>
      <g>
        <path class="cls-2" d="M410.63,339.25l4.1.87c.19-.91.51-1.78.91-2.59l-3.75-1.86c-.56,1.13-.99,2.32-1.26,3.59h0Z"/>
        <path class="cls-2" d="M418.86,328.78l1.82,3.77c.78-.38,1.61-.67,2.48-.86l-.87-4.1c-1.21.25-2.35.66-3.43,1.19h0Z"/>
        <path class="cls-2" d="M425.42,327.27v4.19c6.03,0,10.92,4.89,10.92,10.92s-4.89,10.92-10.92,10.92-10.92-4.89-10.92-10.92h-4.2c0,8.35,6.76,15.11,15.11,15.11s15.11-6.76,15.11-15.11-6.76-15.11-15.1-15.11Z"/>
        <path class="cls-2" d="M416.86,335.61c.55-.7,1.19-1.32,1.89-1.87l-2.56-3.32c-.97.76-1.86,1.62-2.62,2.59l3.29,2.6Z"/>
      </g>
    </g>
  </g>
  <g>
    <path class="cls-10" d="M649.01,77.76v22.94c0,9.54-7.85,17.4-17.4,17.4H42.75c-8.62,0-15.55,6.93-15.55,15.55v26.48c0,8.62,6.93,15.55,15.55,15.55h23.25v1.85h-23.25c-9.54,0-17.4-7.85-17.4-17.4v-26.48c0-9.54,7.85-17.4,17.4-17.4h588.86c8.62,0,15.55-6.93,15.55-15.55V29.04"/>
    <path class="cls-10" d="M57.53,183.52c-.31,0-.62-.15-.77-.46-.31-.46,0-1.08.31-1.23l8.78-4.93-8.78-4.93c-.46-.31-.62-.77-.31-1.23s.77-.62,1.23-.31l10.16,5.7c.31.15.46.46.46.77s-.15.62-.46.77l-10.16,5.7h-.46v.15Z"/>
  </g>
</svg>