<svg xmlns="http://www.w3.org/2000/svg" xmlns:xlink="http://www.w3.org/1999/xlink" x="0" y="0" width="661.6000162760416" height="366.375" style="
        width:661.6000162760416px;
        height:366.375px;
        background: black;
        fill: none;
">


        <svg xmlns="http://www.w3.org/2000/svg" class="role-diagram-draw-area"><g class="shapes-region" style="stroke: black; fill: none;"><g class="arrow-line"><path class="connection real" stroke-dasharray="" d="  M130,70 L398,70" style="stroke: rgb(224, 224, 224); stroke-width: 1; fill: none; fill-opacity: 1;"/><g stroke="#e0e0e0" transform="matrix(-1,1.2246467991473532e-16,-1.2246467991473532e-16,-1,400,69.99999999999999)" style="stroke: rgb(224, 224, 224); stroke-width: 1;"><path d=" M10.93,-3.29 Q4.96,-0.45 0,0 Q4.96,0.45 10.93,3.29"/></g></g><g class="arrow-line"><path class="connection real" stroke-dasharray="" d="  M120,90 L398.35,278.88" style="stroke: rgb(95, 230, 250); stroke-opacity: 1; stroke-width: 1; fill: none; fill-opacity: 1;"/><g stroke="rgb(95,230,250)" stroke-opacity="1" transform="matrix(-0.8274727809127438,-0.5615058297547144,0.5615058297547144,-0.8274727809127438,400,279.99999999999994)" style="stroke: rgb(95, 230, 250); stroke-width: 1;"><path d=" M10.93,-3.29 Q4.96,-0.45 0,0 Q4.96,0.45 10.93,3.29"/></g></g><g class="arrow-line"><path class="connection real" stroke-dasharray="" d="  M430,100 L430,278" style="stroke: rgb(224, 224, 224); stroke-width: 1; fill: none; fill-opacity: 1;"/><g stroke="#e0e0e0" transform="matrix(-1.8369701987210297e-16,-1,1,-1.8369701987210297e-16,430,279.99999999999994)" style="stroke: rgb(224, 224, 224); stroke-width: 1;"><path d=" M10.93,-3.29 Q4.96,-0.45 0,0 Q4.96,0.45 10.93,3.29"/></g></g><g/></g><g/><g/><g/></svg>
        <svg xmlns="http://www.w3.org/2000/svg" xmlns:xlink="http://www.w3.org/1999/xlink" width="660" height="364.7750244140625" style="width:660px;height:364.7750244140625px;font-family:Asana-Math, Asana;background:transparent;"><g><g><g><g transform="matrix(1,0,0,1,81.79998779296875,78.19001017252603)"><path transform="matrix(0.03519,0,0,-0.03519,0,0)" d="M221 334L338 334L470 330L489 375L485 382C404 378 344 376 266 376L229 376L276 646C308 647 391 650 413 650C475 650 516 641 517 626L525 537L549 537C552 601 559 651 570 689C549 691 519 692 501 692C498 692 487 692 463 691L343 690C334 689 160 691 150 691L105 692L102 664L156 662C180 661 191 653 191 635C191 621 187 589 182 559L95 55C91 37 79 30 35 23L30 -3L71 -2C102 -1 164 0 184 0L409 -3C423 -3 448 -2 481 -1L514 0L518 36C520 56 525 86 534 135L539 161L512 161L496 101C486 65 477 53 455 48C435 44 362 39 308 39C267 39 240 40 171 46Z" stroke="rgb(224,224,224)" stroke-opacity="1" stroke-width="8" fill="rgb(224,224,224)" fill-opacity="1"></path></g></g><g><g><g><g><g transform="matrix(1,0,0,1,104.31252034505209,85.20800203450521)"><path transform="matrix(0.024633,0,0,-0.024633,0,0)" d="M263 689C108 689 29 566 29 324C29 207 50 106 85 57C120 8 176 -20 238 -20C389 -20 465 110 465 366C465 585 400 689 263 689ZM245 654C342 654 381 556 381 316C381 103 343 15 251 15C154 15 113 116 113 360C113 571 150 654 245 654Z" stroke="rgb(224,224,224)" stroke-opacity="1" stroke-width="8" fill="rgb(224,224,224)" fill-opacity="1"></path></g></g></g></g></g></g></g><g><g><g><g transform="matrix(1,0,0,1,421.80002848307294,82.19001017252603)"><path transform="matrix(0.03519,0,0,-0.03519,0,0)" d="M221 334L338 334L470 330L489 375L485 382C404 378 344 376 266 376L229 376L276 646C308 647 391 650 413 650C475 650 516 641 517 626L525 537L549 537C552 601 559 651 570 689C549 691 519 692 501 692C498 692 487 692 463 691L343 690C334 689 160 691 150 691L105 692L102 664L156 662C180 661 191 653 191 635C191 621 187 589 182 559L95 55C91 37 79 30 35 23L30 -3L71 -2C102 -1 164 0 184 0L409 -3C423 -3 448 -2 481 -1L514 0L518 36C520 56 525 86 534 135L539 161L512 161L496 101C486 65 477 53 455 48C435 44 362 39 308 39C267 39 240 40 171 46Z" stroke="rgb(224,224,224)" stroke-opacity="1" stroke-width="8" fill="rgb(224,224,224)" fill-opacity="1"></path></g></g></g></g><g><g><g><g transform="matrix(1,0,0,1,241.79998779296872,54.19)"><path transform="matrix(0.03519,0,0,-0.03519,0,0)" d="M522 473C432 473 333 398 296 322C266 261 244 86 234 17C141 41 110 116 112 206C114 343 192 432 321 468L321 485C172 462 32 363 29 201C27 73 113 11 232 -6C220 -94 199 -190 180 -277C203 -266 235 -258 257 -251L290 -4C476 0 639 142 643 332C645 412 609 473 522 473ZM485 440C555 440 573 375 572 317C569 156 451 32 291 15L322 178C339 267 364 440 485 440Z" stroke="rgb(224,224,224)" stroke-opacity="1" stroke-width="8" fill="rgb(224,224,224)" fill-opacity="1"></path></g></g></g></g><g><g><g><g transform="matrix(1,0,0,1,411.80002848307294,314.18998982747394)"><path transform="matrix(0.03519,0,0,-0.03519,0,0)" d="M221 334L338 334L470 330L489 375L485 382C404 378 344 376 266 376L229 376L276 646C308 647 391 650 413 650C475 650 516 641 517 626L525 537L549 537C552 601 559 651 570 689C549 691 519 692 501 692C498 692 487 692 463 691L343 690C334 689 160 691 150 691L105 692L102 664L156 662C180 661 191 653 191 635C191 621 187 589 182 559L95 55C91 37 79 30 35 23L30 -3L71 -2C102 -1 164 0 184 0L409 -3C423 -3 448 -2 481 -1L514 0L518 36C520 56 525 86 534 135L539 161L512 161L496 101C486 65 477 53 455 48C435 44 362 39 308 39C267 39 240 40 171 46ZM714 470C771 543 809 610 843 696L830 709C794 697 784 694 733 679C727 599 703 533 655 456L670 446Z" stroke="rgb(224,224,224)" stroke-opacity="1" stroke-width="8" fill="rgb(224,224,224)" fill-opacity="1"></path></g></g></g></g><g><g><g><g transform="matrix(1,0,0,1,201.79998779296875,204.19001017252606)"><path transform="matrix(0.03519,0,0,-0.03519,0,0)" d="M522 473C432 473 333 398 296 322C266 261 244 86 234 17C141 41 110 116 112 206C114 343 192 432 321 468L321 485C172 462 32 363 29 201C27 73 113 11 232 -6C220 -94 199 -190 180 -277C203 -266 235 -258 257 -251L290 -4C476 0 639 142 643 332C645 412 609 473 522 473ZM485 440C555 440 573 375 572 317C569 156 451 32 291 15L322 178C339 267 364 440 485 440ZM785 470C842 543 880 610 914 696L901 709C865 697 855 694 804 679C798 599 774 533 726 456L741 446Z" stroke="rgb(95,230,250)" stroke-opacity="1" stroke-width="8" fill="rgb(95,230,250)" fill-opacity="1"></path></g></g></g></g><g><g><g><g transform="matrix(1,0,0,1,451.80002848307294,179.2099979654948)"><path transform="matrix(0.02941,0,0,-0.02941,0,0)" d="M209 428C209 445 202 463 182 463C151 463 67 413 39 394L39 378L50 378L50 377C68 387 87 399 107 399C175 399 99 224 95 120C90 -3 185 -21 296 -8C279 -96 266 -186 239 -271L239 -281C259 -274 280 -264 300 -254C306 -171 316 -88 326 -5C482 24 651 212 653 372C653 391 651 458 623 458C608 458 572 442 557 438L557 425C637 247 508 59 334 38C378 251 413 465 463 676L463 682C444 677 427 671 410 662C386 454 344 243 304 36L283 36C79 26 205 310 209 428Z" stroke="rgb(224,224,224)" stroke-opacity="1" stroke-width="8" fill="rgb(224,224,224)" fill-opacity="1"></path></g></g><g><g transform="matrix(1,0,0,1,481.05002848307294,179.2099979654948)"><path transform="matrix(0.02941,0,0,-0.02941,0,0)" d="M604 347L604 406L65 406L65 347ZM604 134L604 193L65 193L65 134Z" stroke="rgb(224,224,224)" stroke-opacity="1" stroke-width="8" fill="rgb(224,224,224)" fill-opacity="1"></path></g></g><g><g transform="matrix(1,0,0,1,509.5125122070313,179.2099979654948)"><path transform="matrix(0.02941,0,0,-0.02941,0,0)" d="M878 717L870 720C829 720 744 684 726 652C700 606 715 449 704 417C695 395 669 388 645 388C593 388 541 398 489 398C447 398 404 370 385 339C392 451 400 562 408 674C403 683 392 685 384 685C222 685 21 601 21 467C21 412 122 341 168 338C136 371 118 417 118 471C118 557 143 602 223 632C241 639 261 645 282 645C286 645 291 643 294 641C294 616 296 568 296 507C296 308 284 -18 202 -23C209 -31 218 -34 227 -34C271 -34 333 -5 356 27C376 54 381 89 381 124C381 159 376 196 376 229C376 292 394 341 497 341C540 341 584 331 627 331C658 331 683 355 703 371C702 339 701 307 701 275C701 220 704 163 719 106C726 79 760 -11 797 -11C838 -11 891 23 909 54L904 59C899 56 892 55 885 55C850 55 826 83 818 115C801 184 797 252 797 318C797 356 798 393 799 431C801 535 796 655 878 717Z" stroke="rgb(224,224,224)" stroke-opacity="1" stroke-width="8" fill="rgb(224,224,224)" fill-opacity="1"></path></g></g><g><g transform="matrix(1,0,0,1,537.0999959309895,179.2099979654948)"><path transform="matrix(0.02941,0,0,-0.02941,0,0)" d="M146 266C146 526 243 632 301 700L282 726C225 675 60 542 60 266C60 159 85 58 133 -32C168 -99 200 -138 282 -215L301 -194C255 -137 146 -15 146 266Z" stroke="rgb(224,224,224)" stroke-opacity="1" stroke-width="8" fill="rgb(224,224,224)" fill-opacity="1"></path></g></g><g><g transform="matrix(1,0,0,1,546.8625284830729,179.2099979654948)"><path transform="matrix(0.02941,0,0,-0.02941,0,0)" d="M221 334L338 334L470 330L489 375L485 382C404 378 344 376 266 376L229 376L276 646C308 647 391 650 413 650C475 650 516 641 517 626L525 537L549 537C552 601 559 651 570 689C549 691 519 692 501 692C498 692 487 692 463 691L343 690C334 689 160 691 150 691L105 692L102 664L156 662C180 661 191 653 191 635C191 621 187 589 182 559L95 55C91 37 79 30 35 23L30 -3L71 -2C102 -1 164 0 184 0L409 -3C423 -3 448 -2 481 -1L514 0L518 36C520 56 525 86 534 135L539 161L512 161L496 101C486 65 477 53 455 48C435 44 362 39 308 39C267 39 240 40 171 46Z" stroke="rgb(224,224,224)" stroke-opacity="1" stroke-width="8" fill="rgb(224,224,224)" fill-opacity="1"></path></g></g><g><g transform="matrix(1,0,0,1,564.8000284830729,179.2099979654948)"><path transform="matrix(0.02941,0,0,-0.02941,0,0)" d="M204 123C177 114 159 108 106 93C99 17 74 -48 16 -144L30 -155L71 -136C152 -31 190 32 218 109Z" stroke="rgb(224,224,224)" stroke-opacity="1" stroke-width="8" fill="rgb(224,224,224)" fill-opacity="1"></path></g></g><g><g transform="matrix(1,0,0,1,577.9999796549479,179.2099979654948)"><path transform="matrix(0.02941,0,0,-0.02941,0,0)" d="M368 365C371 403 376 435 384 476C373 481 369 482 364 482C333 482 302 458 266 407C227 351 188 291 172 256L204 408C208 425 210 438 210 450C210 470 202 482 187 482C166 482 128 461 54 408L26 388L33 368L65 389C93 407 104 412 113 412C123 412 130 403 130 390C130 332 87 126 47 -2L57 -9C72 -4 88 -1 111 4L124 6L150 126C168 209 191 262 235 319C269 363 296 384 318 384C333 384 343 379 354 365Z" stroke="rgb(224,224,224)" stroke-opacity="1" stroke-width="8" fill="rgb(224,224,224)" fill-opacity="1"></path></g></g><g><g transform="matrix(1,0,0,1,589.4124959309895,179.2099979654948)"><path transform="matrix(0.02941,0,0,-0.02941,0,0)" d="M51 726L32 700C87 636 187 526 187 266C187 -10 83 -131 32 -194L51 -215C104 -165 273 -23 273 265C273 542 108 675 51 726Z" stroke="rgb(224,224,224)" stroke-opacity="1" stroke-width="8" fill="rgb(224,224,224)" fill-opacity="1"></path></g></g></g></g></svg>
</svg>
