<?xml version="1.0" encoding="UTF-8"?>
<svg id="outlines" xmlns="http://www.w3.org/2000/svg" viewBox="0 0 1905.85 544.76">
  <defs>
    <style>
      .cls-1, .cls-2, .cls-3 {
        fill: none;
      }

      .cls-4 {
        fill: #fa1336;
      }

      .cls-5 {
        fill: #e5e6e6;
      }

      .cls-6 {
        fill: #cfd1d1;
      }

      .cls-7 {
        fill: #fff;
      }

      .cls-7, .cls-2 {
        stroke-width: 3px;
      }

      .cls-7, .cls-2, .cls-3 {
        stroke: #00090c;
        stroke-miterlimit: 10;
      }

      .cls-8 {
        isolation: isolate;
      }

      .cls-9 {
        fill: #43b929;
        fill-rule: evenodd;
      }

      .cls-10 {
        fill: #43b929;
      }

      .cls-11 {
        fill: #f2f2f2;
      }

      .cls-12 {
        fill: #00090c;
      }
    </style>
  </defs>
  <g>
    <polygon class="cls-7" points="114.92 467.29 99.75 449.66 99.75 354.05 194.28 354.05 210.01 372.35 210.01 467.29 114.92 467.29"/>
    <rect class="cls-1" x="114.92" y="372.72" width="94.57" height="94.57"/>
    <rect class="cls-4" x="198.16" y="376.98" width="7.36" height="7.36"/>
    <polyline class="cls-2" points="99.75 354.05 114.92 372.72 114.92 467.29"/>
    <line class="cls-2" x1="210.01" y1="372.35" x2="114.92" y2="372.72"/>
  </g>
  <g>
    <polygon class="cls-7" points="866.52 467.29 851.35 449.66 851.35 354.05 945.88 354.05 961.62 372.35 961.62 467.29 866.52 467.29"/>
    <rect class="cls-1" x="866.52" y="372.72" width="94.57" height="94.57"/>
    <rect class="cls-4" x="949.77" y="376.98" width="7.36" height="7.36"/>
    <polyline class="cls-2" points="851.35 354.05 866.52 372.72 866.52 467.29"/>
    <line class="cls-2" x1="961.62" y1="372.35" x2="866.52" y2="372.72"/>
  </g>
  <g>
    <polygon class="cls-7" points="1618.12 467.29 1602.96 449.66 1602.96 354.05 1697.48 354.05 1713.22 372.35 1713.22 467.29 1618.12 467.29"/>
    <rect class="cls-1" x="1618.12" y="372.72" width="94.57" height="94.57"/>
    <rect class="cls-4" x="1701.37" y="376.98" width="7.36" height="7.36"/>
    <polyline class="cls-2" points="1602.96 354.05 1618.12 372.72 1618.12 467.29"/>
    <line class="cls-2" x1="1713.22" y1="372.35" x2="1618.12" y2="372.72"/>
  </g>
  <g>
    <polygon class="cls-7" points="240.05 467.29 224.88 449.66 224.88 354.05 319.41 354.05 335.15 372.35 335.15 467.29 240.05 467.29"/>
    <rect class="cls-1" x="240.05" y="372.72" width="94.57" height="94.57"/>
    <polyline class="cls-2" points="224.88 354.05 240.05 372.72 240.05 467.29"/>
    <line class="cls-2" x1="335.15" y1="372.35" x2="240.05" y2="372.72"/>
  </g>
  <g>
    <polygon class="cls-7" points="365.18 467.29 350.02 449.66 350.02 354.05 444.55 354.05 460.28 372.35 460.28 467.29 365.18 467.29"/>
    <rect class="cls-1" x="365.18" y="372.72" width="94.57" height="94.57"/>
    <polyline class="cls-2" points="350.02 354.05 365.18 372.72 365.18 467.29"/>
    <line class="cls-2" x1="460.28" y1="372.35" x2="365.18" y2="372.72"/>
  </g>
  <g>
    <polygon class="cls-7" points="490.32 467.29 475.15 449.66 475.15 354.05 569.68 354.05 585.41 372.35 585.41 467.29 490.32 467.29"/>
    <rect class="cls-1" x="490.32" y="372.72" width="94.57" height="94.57"/>
    <polyline class="cls-2" points="475.15 354.05 490.32 372.72 490.32 467.29"/>
    <line class="cls-2" x1="585.41" y1="372.35" x2="490.32" y2="372.72"/>
  </g>
  <g>
    <polygon class="cls-7" points="615.45 467.29 600.28 449.66 600.28 354.05 694.81 354.05 710.55 372.35 710.55 467.29 615.45 467.29"/>
    <rect class="cls-1" x="615.45" y="372.72" width="94.57" height="94.57"/>
    <polyline class="cls-2" points="600.28 354.05 615.45 372.72 615.45 467.29"/>
    <line class="cls-2" x1="710.55" y1="372.35" x2="615.45" y2="372.72"/>
  </g>
  <g>
    <polygon class="cls-7" points="740.59 467.29 725.42 449.66 725.42 354.05 819.95 354.05 835.68 372.35 835.68 467.29 740.59 467.29"/>
    <rect class="cls-1" x="740.59" y="372.72" width="94.57" height="94.57"/>
    <polyline class="cls-2" points="725.42 354.05 740.59 372.72 740.59 467.29"/>
    <line class="cls-2" x1="835.68" y1="372.35" x2="740.59" y2="372.72"/>
  </g>
  <g>
    <polygon class="cls-7" points="-10.22 467.29 -25.38 449.66 -25.38 354.05 69.14 354.05 84.88 372.35 84.88 467.29 -10.22 467.29"/>
    <rect class="cls-1" x="-10.22" y="372.72" width="94.57" height="94.57"/>
    <line class="cls-2" x1="84.88" y1="372.35" x2="-10.22" y2="372.72"/>
  </g>
  <g>
    <polygon class="cls-7" points="992.46 467.29 977.29 449.66 977.29 354.05 1071.82 354.05 1087.55 372.35 1087.55 467.29 992.46 467.29"/>
    <rect class="cls-1" x="992.46" y="372.72" width="94.57" height="94.57"/>
    <polyline class="cls-2" points="977.29 354.05 992.46 372.72 992.46 467.29"/>
    <line class="cls-2" x1="1087.55" y1="372.35" x2="992.46" y2="372.72"/>
  </g>
  <g>
    <polygon class="cls-7" points="1117.59 467.29 1102.42 449.66 1102.42 354.05 1196.95 354.05 1212.69 372.35 1212.69 467.29 1117.59 467.29"/>
    <rect class="cls-1" x="1117.59" y="372.72" width="94.57" height="94.57"/>
    <polyline class="cls-2" points="1102.42 354.05 1117.59 372.72 1117.59 467.29"/>
    <line class="cls-2" x1="1212.69" y1="372.35" x2="1117.59" y2="372.72"/>
  </g>
  <g>
    <polygon class="cls-7" points="1242.72 467.29 1227.56 449.66 1227.56 354.05 1322.08 354.05 1337.82 372.35 1337.82 467.29 1242.72 467.29"/>
    <rect class="cls-1" x="1242.72" y="372.72" width="94.57" height="94.57"/>
    <polyline class="cls-2" points="1227.56 354.05 1242.72 372.72 1242.72 467.29"/>
    <line class="cls-2" x1="1337.82" y1="372.35" x2="1242.72" y2="372.72"/>
  </g>
  <g>
    <polygon class="cls-7" points="1367.86 467.29 1352.69 449.66 1352.69 354.05 1447.22 354.05 1462.95 372.35 1462.95 467.29 1367.86 467.29"/>
    <rect class="cls-1" x="1367.86" y="372.72" width="94.57" height="94.57"/>
    <polyline class="cls-2" points="1352.69 354.05 1367.86 372.72 1367.86 467.29"/>
    <line class="cls-2" x1="1462.95" y1="372.35" x2="1367.86" y2="372.72"/>
  </g>
  <g>
    <polygon class="cls-7" points="1492.99 467.29 1477.82 449.66 1477.82 354.05 1572.35 354.05 1588.09 372.35 1588.09 467.29 1492.99 467.29"/>
    <rect class="cls-1" x="1492.99" y="372.72" width="94.57" height="94.57"/>
    <polyline class="cls-2" points="1477.82 354.05 1492.99 372.72 1492.99 467.29"/>
    <line class="cls-2" x1="1588.09" y1="372.35" x2="1492.99" y2="372.72"/>
  </g>
  <g>
    <polygon class="cls-7" points="1742.84 467.29 1727.68 449.66 1727.68 354.05 1822.2 354.05 1837.94 372.35 1837.94 467.29 1742.84 467.29"/>
    <rect class="cls-1" x="1742.84" y="372.72" width="94.57" height="94.57"/>
    <polyline class="cls-2" points="1727.68 354.05 1742.84 372.72 1742.84 467.29"/>
    <line class="cls-2" x1="1837.94" y1="372.35" x2="1742.84" y2="372.72"/>
  </g>
  <g>
    <polygon class="cls-7" points="1867.98 467.29 1852.81 449.66 1852.81 354.05 1947.34 354.05 1963.07 372.35 1963.07 467.29 1867.98 467.29"/>
    <rect class="cls-1" x="1867.98" y="372.72" width="94.57" height="94.57"/>
    <polyline class="cls-2" points="1852.81 354.05 1867.98 372.72 1867.98 467.29"/>
    <line class="cls-2" x1="1963.07" y1="372.35" x2="1867.98" y2="372.72"/>
  </g>
  <g>
    <line class="cls-3" x1="834.23" y1="306.62" x2="223.37" y2="306.62"/>
    <path class="cls-12" d="M827.39,301.82c-.15.23-.08.54.15.69l6.45,4.11-6.45,4.11c-.23.15-.3.46-.15.69.15.23.46.3.69.15l7.11-4.53c.14-.09.23-.25.23-.42s-.09-.33-.23-.42l-7.11-4.53c-.08-.05-.18-.08-.27-.08-.17,0-.33.08-.42.23Z"/>
    <path class="cls-12" d="M230.21,301.82c.15.23.08.54-.15.69l-6.45,4.11,6.45,4.11c.23.15.3.46.15.69-.15.23-.46.3-.69.15l-7.11-4.53c-.14-.09-.23-.25-.23-.42s.09-.33.23-.42l7.11-4.53c.08-.05.18-.08.27-.08.17,0,.33.08.42.23Z"/>
  </g>
  <line class="cls-3" x1="955.83" y1="354.05" x2="955.83" y2="236.63"/>
  <g class="cls-8">
    <g class="cls-8">
      <path d="M392.25,287.36c-1.68,0-3.17-.38-4.46-1.14-1.29-.76-2.3-1.82-3.04-3.17s-1.1-2.94-1.1-4.74.37-3.35,1.1-4.71c.73-1.36,1.75-2.42,3.04-3.19,1.29-.77,2.78-1.15,4.46-1.15s3.23.38,4.52,1.15c1.3.77,2.31,1.83,3.02,3.19.72,1.36,1.08,2.93,1.08,4.71s-.36,3.38-1.08,4.74-1.72,2.42-3.02,3.17c-1.3.76-2.81,1.14-4.52,1.14ZM392.28,284.66c1.12,0,2.09-.25,2.93-.76.83-.51,1.47-1.24,1.92-2.19.45-.95.67-2.08.67-3.4s-.22-2.45-.67-3.4c-.45-.95-1.09-1.68-1.92-2.19-.83-.51-1.81-.76-2.93-.76s-2.09.25-2.92.76c-.83.51-1.48,1.24-1.94,2.19-.46.95-.69,2.08-.69,3.4s.23,2.45.69,3.4c.46.95,1.1,1.68,1.94,2.19.83.51,1.81.76,2.92.76Z"/>
      <path d="M403.7,287.06v-12.6h2.65l.22,2.1c.38-.73.93-1.32,1.65-1.75.72-.43,1.57-.65,2.55-.65s1.88.21,2.6.64c.72.42,1.27,1.05,1.66,1.86.39.82.59,1.83.59,3.05v7.35h-3v-7.08c0-1.05-.23-1.86-.7-2.42-.47-.57-1.16-.85-2.07-.85-.6,0-1.14.14-1.61.42s-.85.7-1.12,1.24c-.27.54-.41,1.2-.41,1.96v6.72h-3Z"/>
      <path d="M424.7,287.36c-1.25,0-2.35-.27-3.3-.81-.95-.54-1.69-1.3-2.23-2.29s-.8-2.12-.8-3.4.26-2.5.79-3.5,1.27-1.78,2.23-2.35c.96-.57,2.07-.85,3.34-.85s2.31.28,3.23.83c.92.55,1.62,1.29,2.12,2.21s.75,1.96.75,3.11v.55c0,.2-.02.41-.05.62h-10.25v-1.92h7.27c-.03-.92-.34-1.64-.92-2.16-.58-.53-1.31-.79-2.17-.79-.62,0-1.18.14-1.7.42-.52.28-.92.71-1.23,1.26-.3.56-.45,1.26-.45,2.11v.73c0,.78.15,1.46.44,2.02.29.57.69,1,1.2,1.29s1.08.44,1.71.44c.7,0,1.28-.15,1.74-.45.46-.3.8-.7,1.01-1.2h3.05c-.23.78-.62,1.49-1.15,2.11-.53.62-1.19,1.12-1.98,1.48-.78.36-1.67.54-2.65.54Z"/>
      <path d="M433.8,280.93v-2.5h10.35v2.5h-10.35Z"/>
      <path d="M447.73,287.06v-18h3v7.35c.42-.68.98-1.23,1.7-1.64.72-.41,1.52-.61,2.42-.61,1.03,0,1.91.21,2.62.64s1.26,1.05,1.64,1.88.56,1.85.56,3.09v7.3h-2.98v-7.03c0-1.08-.23-1.91-.69-2.47s-1.15-.85-2.09-.85c-.6,0-1.14.15-1.62.44-.48.29-.87.71-1.15,1.25-.28.54-.43,1.2-.43,1.99v6.67h-3Z"/>
      <path d="M468.73,287.36c-1.2,0-2.28-.28-3.24-.84-.96-.56-1.71-1.33-2.25-2.33-.54-.99-.81-2.13-.81-3.41s.27-2.47.83-3.46c.55-.99,1.3-1.77,2.26-2.33s2.04-.84,3.24-.84,2.28.28,3.24.84c.96.56,1.71,1.33,2.25,2.31.54.98.81,2.13.81,3.45s-.27,2.47-.83,3.45c-.55.98-1.3,1.75-2.26,2.31-.96.56-2.04.84-3.24.84ZM468.73,284.78c.6,0,1.15-.15,1.64-.45.49-.3.89-.75,1.19-1.35.3-.6.45-1.34.45-2.22s-.15-1.62-.44-2.21c-.29-.59-.68-1.04-1.18-1.34-.49-.3-1.04-.45-1.64-.45s-1.12.15-1.62.45c-.5.3-.9.75-1.2,1.34-.3.59-.45,1.33-.45,2.21s.15,1.62.45,2.22c.3.6.7,1.05,1.19,1.35.49.3,1.03.45,1.61.45Z"/>
      <path d="M482.65,287.36c-1.02,0-1.89-.2-2.61-.61-.72-.41-1.28-1.03-1.66-1.85-.38-.83-.58-1.85-.58-3.06v-7.38h3v7.07c0,1.08.23,1.9.69,2.46.46.56,1.15.84,2.09.84.6,0,1.14-.14,1.61-.43.47-.28.85-.7,1.12-1.24.27-.54.41-1.2.41-1.99v-6.72h3v12.6h-2.65l-.23-2.1c-.38.73-.94,1.32-1.66,1.75-.73.43-1.57.65-2.54.65Z"/>
      <path d="M493.08,287.06v-12.6h2.68l.27,2.35c.3-.55.67-1.02,1.12-1.41s.98-.7,1.59-.91c.61-.22,1.28-.33,2.01-.33v3.18h-1.05c-.5,0-.97.06-1.42.19s-.84.32-1.16.6c-.32.28-.58.65-.76,1.12-.18.47-.28,1.07-.28,1.79v6.03h-3Z"/>
      <path d="M509.1,287.06v-12.6h2.68l.27,2.35c.3-.55.67-1.02,1.12-1.41s.98-.7,1.59-.91c.61-.22,1.28-.33,2.01-.33v3.18h-1.05c-.5,0-.97.06-1.42.19s-.84.32-1.16.6c-.32.28-.58.65-.76,1.12-.18.47-.28,1.07-.28,1.79v6.03h-3Z"/>
      <path d="M524.63,287.36c-1.2,0-2.28-.28-3.24-.84-.96-.56-1.71-1.33-2.25-2.33-.54-.99-.81-2.13-.81-3.41s.27-2.47.83-3.46c.55-.99,1.3-1.77,2.26-2.33s2.04-.84,3.24-.84,2.28.28,3.24.84c.96.56,1.71,1.33,2.25,2.31.54.98.81,2.13.81,3.45s-.27,2.47-.83,3.45c-.55.98-1.3,1.75-2.26,2.31-.96.56-2.04.84-3.24.84ZM524.63,284.78c.6,0,1.15-.15,1.64-.45.49-.3.89-.75,1.19-1.35.3-.6.45-1.34.45-2.22s-.15-1.62-.44-2.21c-.29-.59-.68-1.04-1.18-1.34-.49-.3-1.04-.45-1.64-.45s-1.12.15-1.62.45c-.5.3-.9.75-1.2,1.34-.3.59-.45,1.33-.45,2.21s.15,1.62.45,2.22c.3.6.7,1.05,1.19,1.35.49.3,1.03.45,1.61.45Z"/>
      <path d="M538.55,287.36c-1.02,0-1.89-.2-2.61-.61-.72-.41-1.28-1.03-1.66-1.85-.38-.83-.58-1.85-.58-3.06v-7.38h3v7.07c0,1.08.23,1.9.69,2.46.46.56,1.15.84,2.09.84.6,0,1.14-.14,1.61-.43.47-.28.85-.7,1.12-1.24.27-.54.41-1.2.41-1.99v-6.72h3v12.6h-2.65l-.23-2.1c-.38.73-.94,1.32-1.66,1.75-.73.43-1.57.65-2.54.65Z"/>
      <path d="M548.98,287.06v-12.6h2.65l.22,2.1c.38-.73.93-1.32,1.65-1.75.72-.43,1.57-.65,2.55-.65s1.88.21,2.6.64c.72.42,1.27,1.05,1.66,1.86.39.82.59,1.83.59,3.05v7.35h-3v-7.08c0-1.05-.23-1.86-.7-2.42-.47-.57-1.16-.85-2.07-.85-.6,0-1.14.14-1.61.42s-.85.7-1.12,1.24c-.27.54-.41,1.2-.41,1.96v6.72h-3Z"/>
      <path d="M569.68,287.36c-1.17,0-2.21-.28-3.12-.85s-1.63-1.35-2.14-2.35c-.51-1-.76-2.13-.76-3.4s.26-2.4.77-3.39c.52-.99,1.24-1.78,2.16-2.35.92-.58,1.97-.86,3.14-.86.95,0,1.78.18,2.49.54.71.36,1.27.86,1.69,1.51v-7.15h3v18h-2.7l-.3-1.83c-.27.37-.59.71-.98,1.04-.38.32-.84.59-1.38.79-.53.2-1.16.3-1.88.3ZM570.3,284.76c.72,0,1.35-.17,1.9-.51.55-.34.98-.81,1.28-1.41.3-.6.45-1.29.45-2.08s-.15-1.48-.45-2.08c-.3-.6-.73-1.07-1.28-1.4-.55-.33-1.18-.5-1.9-.5s-1.3.17-1.85.5c-.55.33-.98.8-1.29,1.4-.31.6-.46,1.29-.46,2.08s.15,1.47.46,2.08c.31.6.74,1.07,1.29,1.41.55.34,1.17.51,1.85.51Z"/>
      <path d="M587.95,272.46c-.55,0-1-.17-1.36-.51s-.54-.76-.54-1.26.18-.94.54-1.26.81-.49,1.36-.49,1,.16,1.36.49c.36.33.54.75.54,1.26s-.18.92-.54,1.26c-.36.34-.81.51-1.36.51ZM586.45,287.06v-12.6h3v12.6h-3Z"/>
      <path d="M592.92,287.06v-12.6h2.65l.22,2.1c.38-.73.93-1.32,1.65-1.75.72-.43,1.57-.65,2.55-.65s1.88.21,2.6.64c.72.42,1.27,1.05,1.66,1.86.39.82.59,1.83.59,3.05v7.35h-3v-7.08c0-1.05-.23-1.86-.7-2.42-.47-.57-1.16-.85-2.07-.85-.6,0-1.14.14-1.61.42s-.85.7-1.12,1.24c-.27.54-.41,1.2-.41,1.96v6.72h-3Z"/>
      <path d="M613.5,287.06c-.85,0-1.59-.13-2.21-.4-.62-.27-1.11-.71-1.46-1.32-.35-.62-.52-1.45-.52-2.5v-5.85h-2.15v-2.52h2.15l.35-3.33h2.65v3.33h3.42v2.52h-3.42v5.85c0,.63.14,1.07.41,1.31.28.24.74.36,1.39.36h1.55v2.55h-2.15Z"/>
      <path d="M624.12,287.36c-1.25,0-2.35-.27-3.3-.81-.95-.54-1.69-1.3-2.23-2.29s-.8-2.12-.8-3.4.26-2.5.79-3.5,1.27-1.78,2.23-2.35c.96-.57,2.07-.85,3.34-.85s2.31.28,3.23.83c.92.55,1.62,1.29,2.12,2.21s.75,1.96.75,3.11v.55c0,.2-.02.41-.05.62h-10.25v-1.92h7.27c-.03-.92-.34-1.64-.92-2.16-.58-.53-1.31-.79-2.17-.79-.62,0-1.18.14-1.7.42-.52.28-.92.71-1.23,1.26-.3.56-.45,1.26-.45,2.11v.73c0,.78.15,1.46.44,2.02.29.57.69,1,1.2,1.29s1.08.44,1.71.44c.7,0,1.28-.15,1.74-.45.46-.3.8-.7,1.01-1.2h3.05c-.23.78-.62,1.49-1.15,2.11-.53.62-1.19,1.12-1.98,1.48-.78.36-1.67.54-2.65.54Z"/>
      <path d="M633.02,287.06v-12.6h2.68l.27,2.35c.3-.55.67-1.02,1.12-1.41s.98-.7,1.59-.91c.61-.22,1.28-.33,2.01-.33v3.18h-1.05c-.5,0-.97.06-1.42.19s-.84.32-1.16.6c-.32.28-.58.65-.76,1.12-.18.47-.28,1.07-.28,1.79v6.03h-3Z"/>
      <path d="M646.4,287.06l-4.65-12.6h3.15l3.33,9.75,3.32-9.75h3.1l-4.65,12.6h-3.6Z"/>
      <path d="M660.27,287.36c-1.03,0-1.89-.17-2.58-.52-.68-.35-1.19-.82-1.52-1.4-.33-.58-.5-1.22-.5-1.9,0-.8.2-1.49.61-2.07.41-.58,1.01-1.04,1.81-1.36.8-.32,1.78-.49,2.95-.49h3.18c0-.67-.09-1.22-.28-1.66s-.47-.77-.85-.99c-.38-.22-.88-.33-1.48-.33-.68,0-1.27.15-1.75.46-.48.31-.78.78-.9,1.41h-2.95c.1-.9.4-1.67.9-2.31s1.16-1.14,1.99-1.5c.82-.36,1.73-.54,2.71-.54,1.18,0,2.19.21,3.02.61.83.41,1.47.99,1.91,1.75.44.76.66,1.67.66,2.74v7.8h-2.55l-.3-2.03c-.17.33-.38.64-.64.93s-.55.53-.89.74c-.33.21-.71.37-1.14.49-.42.12-.9.17-1.44.17ZM660.95,284.98c.48,0,.91-.09,1.29-.26.38-.17.7-.42.98-.75.27-.32.49-.69.64-1.09.15-.4.25-.83.3-1.28v-.05h-2.77c-.58,0-1.07.08-1.45.22-.38.15-.66.35-.82.61-.17.26-.25.56-.25.91s.08.65.25.9c.17.25.41.44.72.57.32.13.69.2,1.12.2Z"/>
      <path d="M670.42,287.06v-18h3v18h-3Z"/>
    </g>
  </g>
  <g class="cls-8">
    <g class="cls-8">
      <path d="M1198.2,512.84v-17.5h6.85c1.23,0,2.26.19,3.09.58s1.45.91,1.86,1.59c.42.68.62,1.46.62,2.34s-.19,1.62-.58,2.22c-.38.6-.89,1.06-1.51,1.38-.62.32-1.3.51-2.04.58l.38-.27c.78.02,1.49.22,2.11.62.62.4,1.12.92,1.49,1.56.37.64.55,1.35.55,2.14,0,.92-.22,1.74-.66,2.46s-1.09,1.29-1.94,1.7c-.85.41-1.89.61-3.12.61h-7.1ZM1201.2,502.74h3.42c.97,0,1.7-.22,2.2-.66.5-.44.75-1.05.75-1.84s-.25-1.37-.75-1.81-1.24-.66-2.23-.66h-3.4v4.98ZM1201.2,510.39h3.65c.98,0,1.75-.23,2.3-.7.55-.47.82-1.12.82-1.95s-.28-1.5-.85-1.99c-.57-.49-1.34-.74-2.33-.74h-3.6v5.38Z"/>
      <path d="M1215.43,498.24c-.55,0-1-.17-1.36-.51s-.54-.76-.54-1.26.18-.94.54-1.26.81-.49,1.36-.49,1,.16,1.36.49.54.75.54,1.26-.18.92-.54,1.26-.81.51-1.36.51ZM1213.93,512.84v-12.6h3v12.6h-3Z"/>
      <path d="M1225.88,512.84c-.85,0-1.59-.13-2.21-.4-.62-.27-1.11-.71-1.46-1.32-.35-.62-.53-1.45-.53-2.5v-5.85h-2.15v-2.52h2.15l.35-3.33h2.65v3.33h3.42v2.52h-3.42v5.85c0,.63.14,1.07.41,1.31.28.24.74.36,1.39.36h1.55v2.55h-2.15Z"/>
      <path d="M1236.58,513.14c-1.23,0-2.34-.28-3.31-.84-.97-.56-1.73-1.33-2.27-2.33-.54-.99-.81-2.12-.81-3.39s.27-2.47.81-3.46c.54-.99,1.3-1.77,2.27-2.34.98-.57,2.09-.85,3.34-.85,1.57,0,2.88.41,3.95,1.24,1.07.82,1.75,1.95,2.05,3.39h-3.15c-.17-.63-.51-1.13-1.04-1.5-.53-.37-1.15-.55-1.86-.55-.62,0-1.18.16-1.69.48-.51.32-.91.77-1.2,1.38-.29.6-.44,1.32-.44,2.17,0,.65.08,1.22.25,1.72.17.5.4.92.71,1.26.31.34.66.6,1.06.79.4.18.83.28,1.3.28s.92-.08,1.31-.24.72-.4,1-.71c.27-.32.47-.69.59-1.12h3.15c-.3,1.4-.98,2.52-2.05,3.36-1.07.84-2.39,1.26-3.98,1.26Z"/>
      <path d="M1251.38,513.14c-1.2,0-2.28-.28-3.24-.84-.96-.56-1.71-1.33-2.25-2.33s-.81-2.13-.81-3.41.28-2.47.83-3.46,1.3-1.77,2.26-2.33c.96-.56,2.04-.84,3.24-.84s2.28.28,3.24.84,1.71,1.33,2.25,2.31.81,2.13.81,3.45-.27,2.47-.83,3.45c-.55.98-1.3,1.75-2.26,2.31-.96.56-2.04.84-3.24.84ZM1251.38,510.57c.6,0,1.15-.15,1.64-.45.49-.3.89-.75,1.19-1.35.3-.6.45-1.34.45-2.22s-.15-1.62-.44-2.21c-.29-.59-.68-1.04-1.17-1.34-.49-.3-1.04-.45-1.64-.45s-1.12.15-1.62.45c-.5.3-.9.75-1.2,1.34-.3.59-.45,1.33-.45,2.21s.15,1.62.45,2.22c.3.6.7,1.05,1.19,1.35.49.3,1.03.45,1.61.45Z"/>
      <path d="M1262.25,498.24c-.55,0-1-.17-1.36-.51s-.54-.76-.54-1.26.18-.94.54-1.26.81-.49,1.36-.49,1,.16,1.36.49c.36.33.54.75.54,1.26s-.18.92-.54,1.26c-.36.34-.81.51-1.36.51ZM1260.75,512.84v-12.6h3v12.6h-3Z"/>
      <path d="M1267.23,512.84v-12.6h2.65l.22,2.1c.38-.73.93-1.32,1.65-1.75s1.57-.65,2.55-.65,1.88.21,2.6.64c.72.42,1.27,1.05,1.66,1.86.39.82.59,1.83.59,3.05v7.35h-3v-7.08c0-1.05-.23-1.86-.7-2.42-.47-.57-1.16-.85-2.08-.85-.6,0-1.14.14-1.61.42-.48.28-.85.7-1.12,1.24-.28.54-.41,1.2-.41,1.96v6.72h-3Z"/>
      <path d="M1295.63,513.14c-.67,0-1.27-.09-1.8-.26-.53-.17-1-.42-1.4-.72s-.73-.66-1-1.06l-.33,1.75h-2.67v-18h3v7.25c.4-.62.94-1.13,1.62-1.54s1.53-.61,2.55-.61c1.18,0,2.23.29,3.14.86.91.57,1.62,1.36,2.15,2.35.52.99.79,2.13.79,3.41s-.26,2.38-.78,3.38-1.23,1.78-2.14,2.35c-.91.57-1.96.85-3.14.85ZM1295,510.54c.7,0,1.33-.17,1.88-.51s.98-.81,1.29-1.4c.31-.59.46-1.29.46-2.09s-.15-1.48-.46-2.08-.74-1.07-1.29-1.4c-.55-.33-1.17-.5-1.88-.5s-1.35.17-1.89.5c-.54.33-.97.8-1.28,1.4s-.46,1.29-.46,2.08.15,1.5.46,2.09c.31.59.73,1.06,1.28,1.4.54.34,1.17.51,1.89.51Z"/>
      <path d="M1304.58,512.84v-18h3v18h-3Z"/>
      <path d="M1316.8,513.14c-1.2,0-2.28-.28-3.24-.84-.96-.56-1.71-1.33-2.25-2.33s-.81-2.13-.81-3.41.28-2.47.83-3.46,1.3-1.77,2.26-2.33c.96-.56,2.04-.84,3.24-.84s2.28.28,3.24.84,1.71,1.33,2.25,2.31.81,2.13.81,3.45-.27,2.47-.83,3.45c-.55.98-1.3,1.75-2.26,2.31-.96.56-2.04.84-3.24.84ZM1316.8,510.57c.6,0,1.15-.15,1.64-.45.49-.3.89-.75,1.19-1.35.3-.6.45-1.34.45-2.22s-.15-1.62-.44-2.21c-.29-.59-.68-1.04-1.17-1.34-.49-.3-1.04-.45-1.64-.45s-1.12.15-1.62.45c-.5.3-.9.75-1.2,1.34-.3.59-.45,1.33-.45,2.21s.15,1.62.45,2.22c.3.6.7,1.05,1.19,1.35.49.3,1.03.45,1.61.45Z"/>
      <path d="M1332.03,513.14c-1.23,0-2.34-.28-3.31-.84-.98-.56-1.73-1.33-2.28-2.33s-.81-2.12-.81-3.39.27-2.47.81-3.46c.54-.99,1.3-1.77,2.28-2.34.97-.57,2.09-.85,3.34-.85,1.57,0,2.88.41,3.95,1.24,1.07.82,1.75,1.95,2.05,3.39h-3.15c-.17-.63-.51-1.13-1.04-1.5-.52-.37-1.15-.55-1.86-.55-.62,0-1.18.16-1.69.48s-.91.77-1.2,1.38c-.29.6-.44,1.32-.44,2.17,0,.65.08,1.22.25,1.72.17.5.4.92.71,1.26s.66.6,1.06.79c.4.18.83.28,1.3.28s.92-.08,1.31-.24.73-.4,1-.71c.28-.32.47-.69.59-1.12h3.15c-.3,1.4-.98,2.52-2.05,3.36-1.07.84-2.39,1.26-3.97,1.26Z"/>
      <path d="M1340.95,512.84v-18h3v18h-3ZM1349.08,512.84l-5.58-6.9,5-5.7h3.58l-6.22,6.92v-2.33l6.97,8h-3.75Z"/>
      <path d="M1359.83,513.14c-1.23,0-2.34-.28-3.31-.84-.97-.56-1.73-1.33-2.27-2.33-.54-.99-.81-2.12-.81-3.39s.27-2.47.81-3.46c.54-.99,1.3-1.77,2.27-2.34.98-.57,2.09-.85,3.34-.85,1.57,0,2.88.41,3.95,1.24,1.07.82,1.75,1.95,2.05,3.39h-3.15c-.17-.63-.51-1.13-1.04-1.5-.53-.37-1.15-.55-1.86-.55-.62,0-1.18.16-1.69.48-.51.32-.91.77-1.2,1.38-.29.6-.44,1.32-.44,2.17,0,.65.08,1.22.25,1.72.17.5.4.92.71,1.26.31.34.66.6,1.06.79.4.18.83.28,1.3.28s.92-.08,1.31-.24.72-.4,1-.71c.27-.32.47-.69.59-1.12h3.15c-.3,1.4-.98,2.52-2.05,3.36-1.07.84-2.39,1.26-3.98,1.26Z"/>
      <path d="M1368.75,512.84v-18h3v7.35c.42-.68.98-1.23,1.7-1.64s1.53-.61,2.42-.61c1.03,0,1.91.21,2.62.64s1.26,1.05,1.64,1.88.56,1.85.56,3.09v7.3h-2.97v-7.03c0-1.08-.23-1.91-.69-2.47-.46-.57-1.15-.85-2.09-.85-.6,0-1.14.15-1.62.44-.48.29-.87.71-1.15,1.25-.28.54-.43,1.2-.43,1.99v6.67h-3Z"/>
      <path d="M1388.08,513.14c-1.03,0-1.89-.17-2.58-.52-.68-.35-1.19-.82-1.53-1.4-.33-.58-.5-1.22-.5-1.9,0-.8.2-1.49.61-2.07.41-.58,1.01-1.04,1.81-1.36.8-.32,1.78-.49,2.95-.49h3.18c0-.67-.09-1.22-.28-1.66s-.47-.77-.85-.99c-.38-.22-.88-.33-1.48-.33-.68,0-1.27.15-1.75.46-.48.31-.78.78-.9,1.41h-2.95c.1-.9.4-1.67.9-2.31s1.16-1.14,1.99-1.5c.82-.36,1.73-.54,2.71-.54,1.18,0,2.19.21,3.03.61.83.41,1.47.99,1.91,1.75.44.76.66,1.67.66,2.74v7.8h-2.55l-.3-2.03c-.17.33-.38.64-.64.93-.26.28-.55.53-.89.74-.33.21-.71.37-1.14.49-.42.12-.9.17-1.44.17ZM1388.75,510.77c.48,0,.91-.09,1.29-.26.38-.17.7-.42.98-.75.27-.32.49-.69.64-1.09.15-.4.25-.83.3-1.28v-.05h-2.78c-.58,0-1.07.08-1.45.22-.38.15-.66.35-.82.61-.17.26-.25.56-.25.91s.08.65.25.9c.17.25.41.44.72.57.32.13.69.2,1.12.2Z"/>
      <path d="M1399.85,498.24c-.55,0-1-.17-1.36-.51s-.54-.76-.54-1.26.18-.94.54-1.26.81-.49,1.36-.49,1,.16,1.36.49c.36.33.54.75.54,1.26s-.18.92-.54,1.26c-.36.34-.81.51-1.36.51ZM1398.35,512.84v-12.6h3v12.6h-3Z"/>
      <path d="M1404.83,512.84v-12.6h2.65l.22,2.1c.38-.73.93-1.32,1.65-1.75s1.57-.65,2.55-.65,1.88.21,2.6.64c.72.42,1.27,1.05,1.66,1.86.39.82.59,1.83.59,3.05v7.35h-3v-7.08c0-1.05-.23-1.86-.7-2.42-.47-.57-1.16-.85-2.08-.85-.6,0-1.14.14-1.61.42-.48.28-.85.7-1.12,1.24-.28.54-.41,1.2-.41,1.96v6.72h-3Z"/>
    </g>
  </g>
  <g class="cls-8">
    <g class="cls-8">
      <path d="M846.76,53.03v-17.5h6.27c1.38,0,2.53.24,3.44.71.91.47,1.58,1.11,2.03,1.9.44.79.66,1.69.66,2.69,0,.93-.22,1.8-.65,2.6-.43.8-1.11,1.44-2.02,1.92-.92.48-2.09.72-3.52.72h-3.2v6.95h-3ZM849.76,43.86h3.08c1.12,0,1.94-.27,2.46-.81s.79-1.25.79-2.14-.26-1.56-.77-2.09c-.52-.52-1.34-.79-2.48-.79h-3.08v5.83ZM855.88,53.03l-3.67-7.72h3.25l3.85,7.72h-3.43Z"/>
      <path d="M867.28,53.33c-1.2,0-2.28-.28-3.24-.84-.96-.56-1.71-1.33-2.25-2.33-.54-.99-.81-2.13-.81-3.41s.27-2.47.83-3.46c.55-.99,1.3-1.77,2.26-2.33s2.04-.84,3.24-.84,2.28.28,3.24.84c.96.56,1.71,1.33,2.25,2.31.54.98.81,2.13.81,3.45s-.27,2.47-.83,3.45c-.55.98-1.3,1.75-2.26,2.31-.96.56-2.04.84-3.24.84ZM867.28,50.76c.6,0,1.15-.15,1.64-.45.49-.3.89-.75,1.19-1.35.3-.6.45-1.34.45-2.22s-.15-1.62-.44-2.21c-.29-.59-.68-1.04-1.18-1.34-.49-.3-1.04-.45-1.64-.45s-1.12.15-1.62.45c-.5.3-.9.75-1.2,1.34-.3.59-.45,1.33-.45,2.21s.15,1.62.45,2.22c.3.6.7,1.05,1.19,1.35.49.3,1.03.45,1.61.45Z"/>
      <path d="M881.21,53.33c-1.02,0-1.89-.2-2.61-.61-.72-.41-1.28-1.03-1.66-1.85-.38-.83-.58-1.85-.58-3.06v-7.38h3v7.07c0,1.08.23,1.9.69,2.46.46.56,1.15.84,2.09.84.6,0,1.14-.14,1.61-.43.47-.28.85-.7,1.12-1.24.27-.54.41-1.2.41-1.99v-6.72h3v12.6h-2.65l-.23-2.1c-.38.73-.94,1.32-1.66,1.75-.73.43-1.57.65-2.54.65Z"/>
      <path d="M891.63,53.03v-12.6h2.65l.22,2.1c.38-.73.93-1.32,1.65-1.75.72-.43,1.57-.65,2.55-.65s1.88.21,2.6.64c.72.42,1.27,1.05,1.66,1.86.39.82.59,1.83.59,3.05v7.35h-3v-7.08c0-1.05-.23-1.86-.7-2.42-.47-.57-1.16-.85-2.07-.85-.6,0-1.14.14-1.61.42s-.85.7-1.12,1.24c-.27.54-.41,1.2-.41,1.96v6.72h-3Z"/>
      <path d="M912.33,53.33c-1.17,0-2.21-.28-3.12-.85s-1.63-1.35-2.14-2.35c-.51-1-.76-2.13-.76-3.4s.26-2.4.77-3.39c.52-.99,1.24-1.78,2.16-2.35.92-.58,1.97-.86,3.14-.86.95,0,1.78.18,2.49.54.71.36,1.27.86,1.69,1.51v-7.15h3v18h-2.7l-.3-1.83c-.27.37-.59.71-.98,1.04-.38.32-.84.59-1.38.79-.53.2-1.16.3-1.88.3ZM912.96,50.73c.72,0,1.35-.17,1.9-.51.55-.34.98-.81,1.28-1.41.3-.6.45-1.29.45-2.08s-.15-1.48-.45-2.08c-.3-.6-.73-1.07-1.28-1.4-.55-.33-1.18-.5-1.9-.5s-1.3.17-1.85.5c-.55.33-.98.8-1.29,1.4-.31.6-.46,1.29-.46,2.08s.15,1.47.46,2.08c.31.6.74,1.07,1.29,1.41.55.34,1.17.51,1.85.51Z"/>
      <path d="M934.46,53.03c-.85,0-1.59-.13-2.21-.4-.62-.27-1.11-.71-1.46-1.32-.35-.62-.52-1.45-.52-2.5v-5.85h-2.15v-2.52h2.15l.35-3.33h2.65v3.33h3.42v2.52h-3.42v5.85c0,.63.14,1.07.41,1.31.28.24.74.36,1.39.36h1.55v2.55h-2.15Z"/>
      <path d="M939.51,53.03v-12.6h2.68l.27,2.35c.3-.55.67-1.02,1.12-1.41s.98-.7,1.59-.91c.61-.22,1.28-.33,2.01-.33v3.18h-1.05c-.5,0-.97.06-1.42.19s-.84.32-1.16.6c-.32.28-.58.65-.76,1.12-.18.47-.28,1.07-.28,1.79v6.03h-3Z"/>
      <path d="M953.63,53.33c-1.03,0-1.89-.17-2.58-.52-.68-.35-1.19-.82-1.52-1.4-.33-.58-.5-1.22-.5-1.9,0-.8.2-1.49.61-2.07.41-.58,1.01-1.04,1.81-1.36.8-.32,1.78-.49,2.95-.49h3.18c0-.67-.09-1.22-.28-1.66s-.47-.77-.85-.99c-.38-.22-.88-.33-1.48-.33-.68,0-1.27.15-1.75.46-.48.31-.78.78-.9,1.41h-2.95c.1-.9.4-1.67.9-2.31s1.16-1.14,1.99-1.5c.82-.36,1.73-.54,2.71-.54,1.18,0,2.19.21,3.02.61.83.41,1.47.99,1.91,1.75.44.76.66,1.67.66,2.74v7.8h-2.55l-.3-2.03c-.17.33-.38.64-.64.93s-.55.53-.89.74c-.33.21-.71.37-1.14.49-.42.12-.9.17-1.44.17ZM954.31,50.96c.48,0,.91-.09,1.29-.26.38-.17.7-.42.98-.75.27-.32.49-.69.64-1.09.15-.4.25-.83.3-1.28v-.05h-2.77c-.58,0-1.07.08-1.45.22-.38.15-.66.35-.82.61-.17.26-.25.56-.25.91s.08.65.25.9c.17.25.41.44.72.57.32.13.69.2,1.12.2Z"/>
      <path d="M963.78,53.03v-12.6h2.65l.22,2.1c.38-.73.93-1.32,1.65-1.75s1.57-.65,2.55-.65,1.88.21,2.6.64c.72.42,1.27,1.05,1.66,1.86.39.82.59,1.83.59,3.05v7.35h-3v-7.08c0-1.05-.23-1.86-.7-2.42s-1.16-.85-2.07-.85c-.6,0-1.14.14-1.61.42-.47.28-.85.7-1.12,1.24-.27.54-.41,1.2-.41,1.96v6.72h-3Z"/>
      <path d="M983.91,53.33c-1.12,0-2.09-.18-2.91-.54-.83-.36-1.48-.86-1.95-1.5-.47-.64-.75-1.38-.84-2.21h3c.08.35.23.67.45.96s.51.52.89.69.82.25,1.34.25.91-.07,1.22-.21.55-.33.7-.56c.15-.23.22-.48.22-.75,0-.4-.11-.71-.33-.92-.22-.22-.53-.39-.94-.51-.41-.12-.9-.25-1.46-.36-.6-.12-1.18-.26-1.74-.44s-1.06-.4-1.5-.66-.79-.61-1.05-1.03c-.26-.42-.39-.92-.39-1.53,0-.73.2-1.39.59-1.97.39-.58.96-1.05,1.7-1.39.74-.34,1.63-.51,2.66-.51,1.47,0,2.64.34,3.51,1.01s1.39,1.62,1.54,2.84h-2.85c-.08-.47-.32-.83-.7-1.09-.38-.26-.89-.39-1.52-.39s-1.15.12-1.49.36c-.34.24-.51.56-.51.96,0,.27.1.5.31.7.21.2.51.37.91.51s.89.28,1.47.41c.93.18,1.76.4,2.47.65s1.28.62,1.7,1.1c.42.48.62,1.17.62,2.05.02.8-.19,1.51-.61,2.12-.42.62-1.02,1.1-1.79,1.44-.77.34-1.68.51-2.75.51Z"/>
      <path d="M996.16,53.33c-1.03,0-1.89-.17-2.58-.52-.68-.35-1.19-.82-1.52-1.4-.33-.58-.5-1.22-.5-1.9,0-.8.2-1.49.61-2.07.41-.58,1.01-1.04,1.81-1.36.8-.32,1.78-.49,2.95-.49h3.17c0-.67-.09-1.22-.28-1.66s-.47-.77-.85-.99c-.38-.22-.88-.33-1.48-.33-.68,0-1.27.15-1.75.46-.48.31-.78.78-.9,1.41h-2.95c.1-.9.4-1.67.9-2.31s1.16-1.14,1.99-1.5,1.73-.54,2.71-.54c1.18,0,2.19.21,3.03.61.83.41,1.47.99,1.91,1.75.44.76.66,1.67.66,2.74v7.8h-2.55l-.3-2.03c-.17.33-.38.64-.64.93-.26.28-.55.53-.89.74-.33.21-.71.37-1.14.49-.42.12-.9.17-1.44.17ZM996.83,50.96c.48,0,.91-.09,1.29-.26.38-.17.7-.42.97-.75.28-.32.49-.69.64-1.09.15-.4.25-.83.3-1.28v-.05h-2.78c-.58,0-1.07.08-1.45.22-.38.15-.66.35-.83.61-.17.26-.25.56-.25.91s.08.65.25.9c.17.25.41.44.72.57.32.13.69.2,1.12.2Z"/>
      <path d="M1012.28,53.33c-1.23,0-2.34-.28-3.31-.84-.98-.56-1.73-1.33-2.28-2.33-.54-.99-.81-2.12-.81-3.39s.27-2.47.81-3.46c.54-.99,1.3-1.77,2.28-2.34.97-.57,2.09-.85,3.34-.85,1.57,0,2.88.41,3.95,1.24,1.07.82,1.75,1.95,2.05,3.39h-3.15c-.17-.63-.51-1.13-1.04-1.5-.52-.37-1.15-.55-1.86-.55-.62,0-1.18.16-1.69.48-.51.32-.91.77-1.2,1.38-.29.6-.44,1.32-.44,2.17,0,.65.08,1.22.25,1.72s.4.92.71,1.26c.31.34.66.6,1.06.79.4.18.83.28,1.3.28s.92-.08,1.31-.24.72-.4,1-.71c.28-.32.47-.69.59-1.12h3.15c-.3,1.4-.98,2.52-2.05,3.36-1.07.84-2.39,1.26-3.97,1.26Z"/>
      <path d="M1026.48,53.03c-.85,0-1.59-.13-2.21-.4-.62-.27-1.11-.71-1.46-1.32-.35-.62-.52-1.45-.52-2.5v-5.85h-2.15v-2.52h2.15l.35-3.33h2.65v3.33h3.42v2.52h-3.42v5.85c0,.63.14,1.07.41,1.31.28.24.74.36,1.39.36h1.55v2.55h-2.15Z"/>
      <path d="M1033.16,38.43c-.55,0-1-.17-1.36-.51s-.54-.76-.54-1.26.18-.94.54-1.26.81-.49,1.36-.49,1,.16,1.36.49.54.75.54,1.26-.18.92-.54,1.26-.81.51-1.36.51ZM1031.66,53.03v-12.6h3v12.6h-3Z"/>
      <path d="M1044,53.33c-1.2,0-2.28-.28-3.24-.84-.96-.56-1.71-1.33-2.25-2.33-.54-.99-.81-2.13-.81-3.41s.28-2.47.83-3.46,1.3-1.77,2.26-2.33c.96-.56,2.04-.84,3.24-.84s2.28.28,3.24.84c.96.56,1.71,1.33,2.25,2.31.54.98.81,2.13.81,3.45s-.28,2.47-.83,3.45-1.3,1.75-2.26,2.31c-.96.56-2.04.84-3.24.84ZM1044,50.76c.6,0,1.15-.15,1.64-.45.49-.3.89-.75,1.19-1.35.3-.6.45-1.34.45-2.22s-.15-1.62-.44-2.21c-.29-.59-.68-1.04-1.17-1.34-.49-.3-1.04-.45-1.64-.45s-1.12.15-1.62.45c-.5.3-.9.75-1.2,1.34-.3.59-.45,1.33-.45,2.21s.15,1.62.45,2.22c.3.6.7,1.05,1.19,1.35.49.3,1.03.45,1.61.45Z"/>
      <path d="M1053.25,53.03v-12.6h2.65l.22,2.1c.38-.73.93-1.32,1.65-1.75.72-.43,1.57-.65,2.55-.65s1.88.21,2.6.64,1.27,1.05,1.66,1.86c.39.82.59,1.83.59,3.05v7.35h-3v-7.08c0-1.05-.23-1.86-.7-2.42-.47-.57-1.16-.85-2.08-.85-.6,0-1.14.14-1.61.42-.48.28-.85.7-1.12,1.24-.28.54-.41,1.2-.41,1.96v6.72h-3Z"/>
    </g>
  </g>
  <g>
    <g>
      <path class="cls-11" d="M798.33,74.69h315.1c8,0,14.4,6.5,14.4,14.4v27.1h-344v-27.1c0-8,6.5-14.4,14.4-14.4h.1Z"/>
      <path d="M1113.33,76.99c6.7,0,12.1,5.4,12.1,12.1v123.6c0,6.7-5.4,12.1-12.1,12.1h-315c-6.7,0-12.1-5.4-12.1-12.1v-123.6c0-6.7,5.4-12.1,12.1-12.1h315.1M1113.33,74.69h-315c-8,0-14.4,6.5-14.4,14.4v123.6c0,8,6.5,14.4,14.4,14.4h315.1c8,0,14.4-6.5,14.4-14.4v-123.6c0-8-6.5-14.4-14.4-14.4h-.1Z"/>
      <rect x="783.83" y="115.09" width="344" height="2.3"/>
      <path class="cls-5" d="M870.53,216.99c-.6,0-1.1-.5-1.1-1.1v-88c0-.6.5-1.1,1.1-1.1s1.1.5,1.1,1.1v88c0,.6-.5,1.1-1.1,1.1Z"/>
      <path class="cls-5" d="M1118.03,173.99h-98.8c-.6,0-1.1-.5-1.1-1.1s.5-1.1,1.1-1.1h98.8c.6,0,1.1.5,1.1,1.1s-.5,1.1-1.1,1.1Z"/>
      <path class="cls-5" d="M977.63,173.99h-106.8c-.6,0-1.1-.5-1.1-1.1s.5-1.1,1.1-1.1h106.8c.6,0,1.1.5,1.1,1.1s-.5,1.1-1.1,1.1Z"/>
      <g class="cls-8">
        <g class="cls-8">
          <path class="cls-6" d="M994.13,179.89c-1.2,0-2.3-.3-3.2-.8-1-.6-1.7-1.3-2.2-2.3s-.8-2.1-.8-3.4.3-2.5.8-3.5,1.3-1.8,2.3-2.3,2-.8,3.2-.8,2.3.3,3.2.8c1,.6,1.7,1.3,2.2,2.3s.8,2.1.8,3.5-.3,2.5-.8,3.5-1.3,1.8-2.3,2.3c-1,.6-2,.8-3.2.8v-.1ZM994.13,177.29c.6,0,1.1-.1,1.6-.4.5-.3.9-.8,1.2-1.4.3-.6.5-1.3.5-2.2s-.1-1.6-.4-2.2c-.3-.6-.7-1-1.2-1.3s-1-.5-1.6-.5-1.1.1-1.6.5c-.5.3-.9.7-1.2,1.3-.3.6-.5,1.3-.5,2.2s.2,1.6.5,2.2c.3.6.7,1,1.2,1.4.5.3,1,.4,1.6.4h-.1Z"/>
          <path class="cls-6" d="M1003.43,179.59v-12.6h2.7l.3,2.3c.3-.5.7-1,1.1-1.4s1-.7,1.6-.9,1.3-.3,2-.3v3.2h-1.1c-.5,0-1,0-1.4.2s-.8.3-1.2.6c-.3.3-.6.7-.8,1.1-.2.5-.3,1.1-.3,1.8v6h-3,.1Z"/>
        </g>
      </g>
    </g>
    <g class="cls-8">
      <g class="cls-8">
        <path d="M803.66,103.59v-17.5h5.92c1.38,0,2.52.23,3.4.7s1.54,1.09,1.96,1.86c.43.78.64,1.65.64,2.64s-.21,1.8-.64,2.59c-.42.79-1.09,1.43-1.99,1.9s-2.05.71-3.45.71h-3.35v7.1h-2.5ZM806.16,94.59h3.25c1.23,0,2.14-.3,2.72-.91s.88-1.39.88-2.34-.28-1.73-.85-2.3c-.57-.57-1.48-.85-2.75-.85h-3.25v6.4ZM812.86,103.59l-3.77-7.78h2.75l3.92,7.78h-2.9Z"/>
        <path d="M823.68,103.89c-1.18,0-2.25-.27-3.19-.83-.94-.55-1.68-1.32-2.23-2.31-.54-.99-.81-2.14-.81-3.44s.27-2.5.82-3.49c.55-.99,1.3-1.76,2.25-2.31.95-.55,2.02-.83,3.2-.83s2.27.28,3.2.83c.93.55,1.67,1.32,2.21,2.3.54.98.81,2.14.81,3.48s-.27,2.49-.81,3.47c-.54.98-1.29,1.75-2.24,2.3-.95.55-2.02.83-3.22.83ZM823.68,101.74c.68,0,1.3-.17,1.86-.5.56-.33,1.01-.83,1.35-1.49.34-.66.51-1.48.51-2.46s-.17-1.8-.5-2.46c-.33-.66-.78-1.15-1.34-1.49-.56-.33-1.17-.5-1.84-.5s-1.28.17-1.85.5c-.57.33-1.02.83-1.36,1.49-.34.66-.51,1.48-.51,2.46s.17,1.8.51,2.46c.34.66.79,1.15,1.35,1.49.56.33,1.16.5,1.81.5Z"/>
        <path d="M837.53,103.89c-.98,0-1.84-.2-2.56-.6-.73-.4-1.28-1-1.68-1.8-.39-.8-.59-1.81-.59-3.03v-7.47h2.5v7.2c0,1.18.26,2.08.77,2.68.52.6,1.26.9,2.23.9.65,0,1.24-.16,1.76-.47.52-.32.94-.78,1.24-1.38.3-.6.45-1.33.45-2.2v-6.72h2.5v12.6h-2.23l-.18-2.15c-.38.77-.94,1.37-1.67,1.8-.73.43-1.58.65-2.55.65Z"/>
        <path d="M847.58,103.59v-12.6h2.25l.15,2.15c.4-.75.97-1.35,1.7-1.79s1.58-.66,2.53-.66c1,0,1.86.2,2.57.6.72.4,1.27,1,1.68,1.81.4.81.6,1.82.6,3.04v7.45h-2.5v-7.2c0-1.17-.26-2.05-.77-2.65-.52-.6-1.27-.9-2.25-.9-.65,0-1.23.15-1.75.46s-.93.76-1.24,1.36c-.31.6-.46,1.33-.46,2.2v6.72h-2.5Z"/>
        <path d="M867.86,103.89c-1.2,0-2.26-.29-3.17-.86-.92-.58-1.63-1.36-2.14-2.35-.51-.99-.76-2.12-.76-3.39s.25-2.42.76-3.4,1.23-1.76,2.15-2.34c.92-.58,1.99-.86,3.19-.86.98,0,1.85.2,2.6.59s1.33.95,1.75,1.66v-7.35h2.5v18h-2.22l-.28-1.95c-.25.38-.57.75-.97,1.09-.4.34-.88.62-1.45.84-.57.22-1.22.33-1.95.33ZM868.26,101.72c.78,0,1.47-.18,2.07-.55s1.06-.88,1.39-1.55c.32-.67.49-1.44.49-2.33s-.16-1.65-.49-2.31c-.33-.66-.79-1.17-1.39-1.55s-1.29-.56-2.07-.56-1.43.19-2.03.56c-.6.38-1.07.89-1.4,1.55s-.5,1.43-.5,2.31.17,1.66.5,2.33c.33.67.8,1.18,1.4,1.55.6.37,1.28.55,2.03.55Z"/>
      </g>
    </g>
    <g class="cls-8">
      <g class="cls-8">
        <path d="M899.11,153.12c-.93-.95-1.77-2.04-2.5-3.26-.73-1.22-1.3-2.57-1.71-4.04-.41-1.47-.61-3.02-.61-4.65s.2-3.2.61-4.66c.41-1.46.98-2.8,1.71-4.04.73-1.23,1.57-2.32,2.5-3.25h3.35v.33c-1,1.05-1.86,2.2-2.59,3.45-.72,1.25-1.29,2.56-1.69,3.94-.4,1.38-.6,2.79-.6,4.24s.2,2.86.6,4.24c.4,1.38.97,2.68,1.7,3.93.73,1.24,1.59,2.4,2.58,3.46v.33h-3.35Z"/>
      </g>
      <g class="cls-8">
        <path class="cls-4" d="M908.78,149.49l6.4-17.5h3.82l6.38,17.5h-3.57l-4.73-13.65-4.75,13.65h-3.55ZM911.61,145.52l.9-2.62h8.9l.88,2.62h-10.67Z"/>
      </g>
      <g class="cls-8">
        <path d="M932.06,143.67v-2.83h12.2v2.83h-12.2ZM936.73,147.97v-11.4h2.88v11.4h-2.88Z"/>
      </g>
      <g class="cls-8">
        <path class="cls-4" d="M952.16,149.49v-17.5h7.17c1.22,0,2.24.19,3.08.58.83.38,1.46.91,1.89,1.59.43.68.64,1.46.64,2.34s-.19,1.62-.58,2.22c-.38.6-.89,1.06-1.51,1.39s-1.31.51-2.06.56l.4-.27c.8.03,1.51.25,2.14.64.62.39,1.12.91,1.47,1.56.36.65.54,1.36.54,2.12,0,.93-.23,1.76-.67,2.48-.45.72-1.1,1.28-1.95,1.69-.85.41-1.89.61-3.13.61h-7.42ZM955.53,139.29h3.25c.88,0,1.55-.2,2.01-.6.46-.4.69-.97.69-1.7s-.23-1.28-.69-1.69c-.46-.41-1.14-.61-2.04-.61h-3.23v4.6ZM955.53,146.74h3.5c.92,0,1.62-.21,2.13-.62.5-.42.75-1.02.75-1.8s-.26-1.4-.78-1.84c-.52-.44-1.23-.66-2.15-.66h-3.45v4.92Z"/>
      </g>
      <g class="cls-8">
        <path d="M972.56,143.67v-2.83h12.2v2.83h-12.2ZM977.23,147.97v-11.4h2.88v11.4h-2.88Z"/>
      </g>
      <g class="cls-8">
        <path class="cls-4" d="M1000.41,149.79c-1.75,0-3.25-.38-4.51-1.14-1.26-.76-2.23-1.82-2.9-3.17s-1.01-2.93-1.01-4.71.34-3.36,1.01-4.73c.67-1.37,1.64-2.43,2.9-3.2,1.26-.77,2.76-1.15,4.51-1.15,2.12,0,3.85.52,5.2,1.58,1.35,1.05,2.19,2.53,2.53,4.45h-3.67c-.22-.93-.67-1.66-1.36-2.19-.69-.52-1.6-.79-2.71-.79-1.03,0-1.92.25-2.66.74-.74.49-1.31,1.18-1.71,2.08s-.6,1.96-.6,3.21.2,2.3.6,3.2c.4.9.97,1.59,1.71,2.08.74.48,1.63.73,2.66.73,1.12,0,2.02-.25,2.7-.74.68-.49,1.13-1.18,1.35-2.06h3.7c-.33,1.82-1.17,3.24-2.53,4.28-1.35,1.03-3.08,1.55-5.2,1.55Z"/>
      </g>
      <g class="cls-8">
        <path d="M1015.46,143.67v-2.83h12.2v2.83h-12.2ZM1020.13,147.97v-11.4h2.88v11.4h-2.88Z"/>
      </g>
      <g class="cls-8">
        <path class="cls-4" d="M1035.56,149.49v-17.5h5.85c2.03,0,3.71.36,5.04,1.09,1.33.72,2.31,1.74,2.95,3.05s.96,2.85.96,4.61-.32,3.3-.96,4.61c-.64,1.31-1.62,2.33-2.94,3.05-1.32.73-3,1.09-5.05,1.09h-5.85ZM1038.93,146.59h2.3c1.43,0,2.56-.23,3.39-.7s1.41-1.14,1.76-2.01.53-1.92.53-3.14-.18-2.29-.53-3.16-.94-1.55-1.76-2.01-1.95-.7-3.39-.7h-2.3v11.72Z"/>
      </g>
      <g class="cls-8">
        <path d="M1057.56,143.67v-2.83h12.2v2.83h-12.2ZM1062.23,147.97v-11.4h2.88v11.4h-2.88Z"/>
      </g>
      <g class="cls-8">
        <path class="cls-10" d="M1083.68,149.79c-1.27,0-2.4-.22-3.39-.65-.99-.43-1.77-1.07-2.35-1.9-.58-.83-.87-1.84-.89-3.03h3.58c.02.52.15.98.4,1.4.25.42.6.75,1.04.99.44.24.97.36,1.59.36.53,0,1-.09,1.39-.26.39-.18.7-.42.91-.74.22-.32.33-.69.33-1.12,0-.5-.12-.92-.36-1.25-.24-.33-.57-.62-1-.85-.42-.23-.92-.45-1.47-.64-.56-.19-1.15-.4-1.76-.61-1.38-.45-2.44-1.05-3.16-1.8-.73-.75-1.09-1.74-1.09-2.98,0-1.05.25-1.95.76-2.7.51-.75,1.21-1.33,2.11-1.73.9-.4,1.92-.6,3.08-.6s2.22.2,3.11.61,1.6,1,2.12,1.76c.53.77.8,1.67.81,2.7h-3.6c-.02-.38-.13-.75-.34-1.09s-.5-.62-.86-.83c-.37-.21-.8-.31-1.3-.31-.43-.02-.83.05-1.19.2s-.64.37-.85.66c-.21.29-.31.65-.31,1.09s.1.77.31,1.05c.21.28.5.53.86.74.37.21.8.4,1.3.58s1.04.35,1.62.54c.87.3,1.67.65,2.4,1.06s1.32.94,1.75,1.59c.43.65.65,1.51.65,2.58,0,.92-.24,1.77-.72,2.55-.48.78-1.18,1.42-2.09,1.9s-2.04.72-3.39.72Z"/>
      </g>
      <g class="cls-8">
        <path d="M1100.18,153.12h-3.38v-.33c1-1.07,1.87-2.22,2.6-3.46.73-1.24,1.3-2.55,1.69-3.93s.59-2.79.59-4.24-.2-2.86-.59-4.24-.95-2.69-1.69-3.94-1.6-2.4-2.6-3.45v-.33h3.38c.93.93,1.76,2.02,2.49,3.25.72,1.23,1.29,2.58,1.71,4.04s.62,3.01.62,4.66-.21,3.18-.62,4.65-.99,2.81-1.71,4.04c-.73,1.23-1.55,2.31-2.49,3.26Z"/>
      </g>
    </g>
    <g class="cls-8">
      <g class="cls-8">
        <path d="M812.02,169.89v-24.89l-5.17,1.31v-3.18l6.74-2.92h2.76v29.68h-4.32Z"/>
        <path d="M834.11,170.4c-2.63,0-4.89-.64-6.78-1.93-1.89-1.29-3.35-3.08-4.37-5.39-1.02-2.3-1.53-4.98-1.53-8.03s.51-5.73,1.53-8.04c1.02-2.3,2.47-4.1,4.37-5.38,1.89-1.29,4.16-1.93,6.78-1.93s4.88.64,6.76,1.93c1.88,1.29,3.32,3.08,4.32,5.38,1,2.3,1.51,4.98,1.51,8.04s-.5,5.73-1.51,8.03c-1,2.3-2.45,4.1-4.32,5.39-1.88,1.29-4.13,1.93-6.76,1.93ZM834.11,166.63c1.58,0,3-.47,4.26-1.4,1.26-.93,2.24-2.26,2.95-3.99.71-1.72,1.06-3.79,1.06-6.19s-.35-4.47-1.06-6.19c-.71-1.72-1.69-3.05-2.95-3.96-1.26-.92-2.68-1.38-4.26-1.38s-3.05.46-4.32,1.38c-1.27.92-2.26,2.24-2.97,3.96-.71,1.72-1.06,3.79-1.06,6.19s.35,4.47,1.06,6.19c.71,1.72,1.7,3.05,2.97,3.99s2.71,1.4,4.32,1.4Z"/>
      </g>
      <g class="cls-8">
        <path d="M805.06,199.89v-17.5h6.47c1.22,0,2.23.2,3.05.59.82.39,1.43.92,1.84,1.6.41.67.61,1.44.61,2.29s-.19,1.62-.57,2.23c-.38.6-.89,1.06-1.51,1.39-.62.32-1.3.51-2.01.56l.35-.25c.77.02,1.47.22,2.1.61s1.13.91,1.5,1.56c.37.65.55,1.37.55,2.15,0,.9-.22,1.71-.65,2.44-.43.73-1.07,1.3-1.92,1.71-.85.42-1.89.62-3.12.62h-6.67ZM807.56,189.94h3.7c1.05,0,1.85-.25,2.4-.74.55-.49.83-1.17.83-2.04s-.27-1.5-.83-1.99c-.55-.49-1.38-.74-2.47-.74h-3.62v5.5ZM807.56,197.82h3.85c1.1,0,1.95-.25,2.56-.76.61-.51.91-1.23.91-2.16s-.31-1.65-.94-2.2-1.49-.83-2.59-.83h-3.8v5.95Z"/>
        <path d="M824.13,199.89v-15.45h-5.17v-2.05h12.88v2.05h-5.2v15.45h-2.5Z"/>
        <path d="M841.23,200.19c-1.72,0-3.2-.38-4.44-1.14-1.24-.76-2.2-1.82-2.88-3.17s-1.01-2.94-1.01-4.74.34-3.36,1.01-4.72c.67-1.37,1.63-2.43,2.88-3.19,1.24-.76,2.72-1.14,4.44-1.14,2.05,0,3.71.49,4.99,1.47,1.28.98,2.09,2.37,2.44,4.15h-2.75c-.25-1.03-.76-1.86-1.54-2.48-.78-.62-1.82-.92-3.14-.92-1.18,0-2.21.28-3.08.83s-1.53,1.33-2,2.35c-.47,1.02-.7,2.23-.7,3.65s.23,2.64.7,3.66c.47,1.03,1.13,1.81,2,2.35s1.89.81,3.08.81c1.32,0,2.36-.3,3.14-.89.77-.59,1.29-1.4,1.54-2.41h2.75c-.35,1.73-1.16,3.09-2.44,4.06-1.27.97-2.94,1.46-4.99,1.46Z"/>
      </g>
    </g>
    <g class="cls-8">
      <g class="cls-8">
        <path class="cls-10" d="M988.05,212.29c-1.27,0-2.4-.22-3.39-.65-.99-.43-1.77-1.07-2.35-1.9-.58-.83-.87-1.84-.89-3.03h3.58c.02.52.15.98.4,1.4.25.42.6.75,1.04.99.44.24.97.36,1.59.36.53,0,1-.09,1.39-.26.39-.18.7-.42.91-.74.22-.32.33-.69.33-1.12,0-.5-.12-.92-.36-1.25-.24-.33-.57-.62-1-.85-.42-.23-.92-.45-1.47-.64-.56-.19-1.15-.4-1.76-.61-1.38-.45-2.44-1.05-3.16-1.8-.73-.75-1.09-1.74-1.09-2.98,0-1.05.25-1.95.76-2.7.51-.75,1.21-1.33,2.11-1.73.9-.4,1.92-.6,3.08-.6s2.22.2,3.11.61,1.6,1,2.12,1.76c.53.77.8,1.67.81,2.7h-3.6c-.02-.38-.13-.75-.34-1.09s-.5-.62-.86-.83c-.37-.21-.8-.31-1.3-.31-.43-.02-.83.05-1.19.2s-.64.37-.85.66c-.21.29-.31.65-.31,1.09s.1.77.31,1.05c.21.28.5.53.86.74.37.21.8.4,1.3.58s1.04.35,1.62.54c.87.3,1.67.65,2.4,1.06s1.32.94,1.75,1.59c.43.65.65,1.51.65,2.58,0,.92-.24,1.77-.72,2.55-.48.78-1.18,1.42-2.09,1.9s-2.04.72-3.39.72Z"/>
      </g>
    </g>
    <g id="Layer_1">
      <g>
        <path class="cls-9" d="M1008.12,193.67c-5.31,0-9.62,4.3-9.62,9.61s4.3,9.62,9.62,9.62,9.61-4.3,9.61-9.62-4.3-9.61-9.61-9.61ZM1008.12,210.23c-3.84,0-6.95-3.11-6.95-6.95s3.11-6.95,6.95-6.95,6.95,3.11,6.95,6.95-3.11,6.95-6.95,6.95Z"/>
        <polygon class="cls-9" points="1009.4 198.49 1006.84 198.49 1006.84 204.57 1006.89 204.57 1009.4 204.57 1012.58 204.57 1012.58 202 1009.4 202 1009.4 198.49"/>
      </g>
    </g>
  </g>
</svg>