<?xml version="1.0" encoding="utf-8" standalone="no"?>
<!DOCTYPE svg PUBLIC "-//W3C//DTD SVG 1.1//EN"
  "http://www.w3.org/Graphics/SVG/1.1/DTD/svg11.dtd">
<svg xmlns:xlink="http://www.w3.org/1999/xlink" width="864pt" height="432pt" viewBox="0 0 864 432" xmlns="http://www.w3.org/2000/svg" version="1.1">
 <metadata>
  <rdf:RDF xmlns:dc="http://purl.org/dc/elements/1.1/" xmlns:cc="http://creativecommons.org/ns#" xmlns:rdf="http://www.w3.org/1999/02/22-rdf-syntax-ns#">
   <cc:Work>
    <dc:type rdf:resource="http://purl.org/dc/dcmitype/StillImage"/>
    <dc:date>2025-04-26T00:59:46.802655</dc:date>
    <dc:format>image/svg+xml</dc:format>
    <dc:creator>
     <cc:Agent>
      <dc:title>Matplotlib v3.9.3, https://matplotlib.org/</dc:title>
     </cc:Agent>
    </dc:creator>
   </cc:Work>
  </rdf:RDF>
 </metadata>
 <defs>
  <style type="text/css">*{stroke-linejoin: round; stroke-linecap: butt}</style>
 </defs>
 <g id="figure_1">
  <g id="patch_1">
   <path d="M 0 432 
L 864 432 
L 864 0 
L 0 0 
z
" style="fill: #ffffff"/>
  </g>
  <g id="axes_1">
   <g id="patch_2">
    <path d="M 74.03625 359.045568 
L 851.04 359.045568 
L 851.04 27.65625 
L 74.03625 27.65625 
z
" style="fill: #ffffff"/>
   </g>
   <g id="matplotlib.axis_1">
    <g id="xtick_1">
     <g id="line2d_1">
      <path d="M 109.354602 359.045568 
L 109.354602 27.65625 
" clip-path="url(#p1f4b9f7c86)" style="fill: none; stroke: #cccccc; stroke-opacity: 0.5; stroke-linecap: round"/>
     </g>
     <g id="text_1">
      <!-- 2024-01 -->
      <g style="fill: #262626" transform="translate(97.094255 402.655294) rotate(-45) scale(0.11 -0.11)">
       <defs>
        <path id="ArialMT-32" d="M 3222 541 
L 3222 0 
L 194 0 
Q 188 203 259 391 
Q 375 700 629 1000 
Q 884 1300 1366 1694 
Q 2113 2306 2375 2664 
Q 2638 3022 2638 3341 
Q 2638 3675 2398 3904 
Q 2159 4134 1775 4134 
Q 1369 4134 1125 3890 
Q 881 3647 878 3216 
L 300 3275 
Q 359 3922 746 4261 
Q 1134 4600 1788 4600 
Q 2447 4600 2831 4234 
Q 3216 3869 3216 3328 
Q 3216 3053 3103 2787 
Q 2991 2522 2730 2228 
Q 2469 1934 1863 1422 
Q 1356 997 1212 845 
Q 1069 694 975 541 
L 3222 541 
z
" transform="scale(0.015625)"/>
        <path id="ArialMT-30" d="M 266 2259 
Q 266 3072 433 3567 
Q 600 4063 929 4331 
Q 1259 4600 1759 4600 
Q 2128 4600 2406 4451 
Q 2684 4303 2865 4023 
Q 3047 3744 3150 3342 
Q 3253 2941 3253 2259 
Q 3253 1453 3087 958 
Q 2922 463 2592 192 
Q 2263 -78 1759 -78 
Q 1097 -78 719 397 
Q 266 969 266 2259 
z
M 844 2259 
Q 844 1131 1108 757 
Q 1372 384 1759 384 
Q 2147 384 2411 759 
Q 2675 1134 2675 2259 
Q 2675 3391 2411 3762 
Q 2147 4134 1753 4134 
Q 1366 4134 1134 3806 
Q 844 3388 844 2259 
z
" transform="scale(0.015625)"/>
        <path id="ArialMT-34" d="M 2069 0 
L 2069 1097 
L 81 1097 
L 81 1613 
L 2172 4581 
L 2631 4581 
L 2631 1613 
L 3250 1613 
L 3250 1097 
L 2631 1097 
L 2631 0 
L 2069 0 
z
M 2069 1613 
L 2069 3678 
L 634 1613 
L 2069 1613 
z
" transform="scale(0.015625)"/>
        <path id="ArialMT-2d" d="M 203 1375 
L 203 1941 
L 1931 1941 
L 1931 1375 
L 203 1375 
z
" transform="scale(0.015625)"/>
        <path id="ArialMT-31" d="M 2384 0 
L 1822 0 
L 1822 3584 
Q 1619 3391 1289 3197 
Q 959 3003 697 2906 
L 697 3450 
Q 1169 3672 1522 3987 
Q 1875 4303 2022 4600 
L 2384 4600 
L 2384 0 
z
" transform="scale(0.015625)"/>
       </defs>
       <use xlink:href="#ArialMT-32"/>
       <use xlink:href="#ArialMT-30" x="55.615234"/>
       <use xlink:href="#ArialMT-32" x="111.230469"/>
       <use xlink:href="#ArialMT-34" x="166.845703"/>
       <use xlink:href="#ArialMT-2d" x="222.460938"/>
       <use xlink:href="#ArialMT-30" x="255.761719"/>
       <use xlink:href="#ArialMT-31" x="311.376953"/>
      </g>
     </g>
    </g>
    <g id="xtick_2">
     <g id="line2d_2">
      <path d="M 226.432013 359.045568 
L 226.432013 27.65625 
" clip-path="url(#p1f4b9f7c86)" style="fill: none; stroke: #cccccc; stroke-opacity: 0.5; stroke-linecap: round"/>
     </g>
     <g id="text_2">
      <!-- 2024-03 -->
      <g style="fill: #262626" transform="translate(214.171665 402.655294) rotate(-45) scale(0.11 -0.11)">
       <defs>
        <path id="ArialMT-33" d="M 269 1209 
L 831 1284 
Q 928 806 1161 595 
Q 1394 384 1728 384 
Q 2125 384 2398 659 
Q 2672 934 2672 1341 
Q 2672 1728 2419 1979 
Q 2166 2231 1775 2231 
Q 1616 2231 1378 2169 
L 1441 2663 
Q 1497 2656 1531 2656 
Q 1891 2656 2178 2843 
Q 2466 3031 2466 3422 
Q 2466 3731 2256 3934 
Q 2047 4138 1716 4138 
Q 1388 4138 1169 3931 
Q 950 3725 888 3313 
L 325 3413 
Q 428 3978 793 4289 
Q 1159 4600 1703 4600 
Q 2078 4600 2393 4439 
Q 2709 4278 2876 4000 
Q 3044 3722 3044 3409 
Q 3044 3113 2884 2869 
Q 2725 2625 2413 2481 
Q 2819 2388 3044 2092 
Q 3269 1797 3269 1353 
Q 3269 753 2831 336 
Q 2394 -81 1725 -81 
Q 1122 -81 723 278 
Q 325 638 269 1209 
z
" transform="scale(0.015625)"/>
       </defs>
       <use xlink:href="#ArialMT-32"/>
       <use xlink:href="#ArialMT-30" x="55.615234"/>
       <use xlink:href="#ArialMT-32" x="111.230469"/>
       <use xlink:href="#ArialMT-34" x="166.845703"/>
       <use xlink:href="#ArialMT-2d" x="222.460938"/>
       <use xlink:href="#ArialMT-30" x="255.761719"/>
       <use xlink:href="#ArialMT-33" x="311.376953"/>
      </g>
     </g>
    </g>
    <g id="xtick_3">
     <g id="line2d_3">
      <path d="M 345.460714 359.045568 
L 345.460714 27.65625 
" clip-path="url(#p1f4b9f7c86)" style="fill: none; stroke: #cccccc; stroke-opacity: 0.5; stroke-linecap: round"/>
     </g>
     <g id="text_3">
      <!-- 2024-05 -->
      <g style="fill: #262626" transform="translate(333.200366 402.655294) rotate(-45) scale(0.11 -0.11)">
       <defs>
        <path id="ArialMT-35" d="M 266 1200 
L 856 1250 
Q 922 819 1161 601 
Q 1400 384 1738 384 
Q 2144 384 2425 690 
Q 2706 997 2706 1503 
Q 2706 1984 2436 2262 
Q 2166 2541 1728 2541 
Q 1456 2541 1237 2417 
Q 1019 2294 894 2097 
L 366 2166 
L 809 4519 
L 3088 4519 
L 3088 3981 
L 1259 3981 
L 1013 2750 
Q 1425 3038 1878 3038 
Q 2478 3038 2890 2622 
Q 3303 2206 3303 1553 
Q 3303 931 2941 478 
Q 2500 -78 1738 -78 
Q 1113 -78 717 272 
Q 322 622 266 1200 
z
" transform="scale(0.015625)"/>
       </defs>
       <use xlink:href="#ArialMT-32"/>
       <use xlink:href="#ArialMT-30" x="55.615234"/>
       <use xlink:href="#ArialMT-32" x="111.230469"/>
       <use xlink:href="#ArialMT-34" x="166.845703"/>
       <use xlink:href="#ArialMT-2d" x="222.460938"/>
       <use xlink:href="#ArialMT-30" x="255.761719"/>
       <use xlink:href="#ArialMT-35" x="311.376953"/>
      </g>
     </g>
    </g>
    <g id="xtick_4">
     <g id="line2d_4">
      <path d="M 464.489415 359.045568 
L 464.489415 27.65625 
" clip-path="url(#p1f4b9f7c86)" style="fill: none; stroke: #cccccc; stroke-opacity: 0.5; stroke-linecap: round"/>
     </g>
     <g id="text_4">
      <!-- 2024-07 -->
      <g style="fill: #262626" transform="translate(452.229067 402.655294) rotate(-45) scale(0.11 -0.11)">
       <defs>
        <path id="ArialMT-37" d="M 303 3981 
L 303 4522 
L 3269 4522 
L 3269 4084 
Q 2831 3619 2401 2847 
Q 1972 2075 1738 1259 
Q 1569 684 1522 0 
L 944 0 
Q 953 541 1156 1306 
Q 1359 2072 1739 2783 
Q 2119 3494 2547 3981 
L 303 3981 
z
" transform="scale(0.015625)"/>
       </defs>
       <use xlink:href="#ArialMT-32"/>
       <use xlink:href="#ArialMT-30" x="55.615234"/>
       <use xlink:href="#ArialMT-32" x="111.230469"/>
       <use xlink:href="#ArialMT-34" x="166.845703"/>
       <use xlink:href="#ArialMT-2d" x="222.460938"/>
       <use xlink:href="#ArialMT-30" x="255.761719"/>
       <use xlink:href="#ArialMT-37" x="311.376953"/>
      </g>
     </g>
    </g>
    <g id="xtick_5">
     <g id="line2d_5">
      <path d="M 585.469406 359.045568 
L 585.469406 27.65625 
" clip-path="url(#p1f4b9f7c86)" style="fill: none; stroke: #cccccc; stroke-opacity: 0.5; stroke-linecap: round"/>
     </g>
     <g id="text_5">
      <!-- 2024-09 -->
      <g style="fill: #262626" transform="translate(573.209059 402.655294) rotate(-45) scale(0.11 -0.11)">
       <defs>
        <path id="ArialMT-39" d="M 350 1059 
L 891 1109 
Q 959 728 1153 556 
Q 1347 384 1650 384 
Q 1909 384 2104 503 
Q 2300 622 2425 820 
Q 2550 1019 2634 1356 
Q 2719 1694 2719 2044 
Q 2719 2081 2716 2156 
Q 2547 1888 2255 1720 
Q 1963 1553 1622 1553 
Q 1053 1553 659 1965 
Q 266 2378 266 3053 
Q 266 3750 677 4175 
Q 1088 4600 1706 4600 
Q 2153 4600 2523 4359 
Q 2894 4119 3086 3673 
Q 3278 3228 3278 2384 
Q 3278 1506 3087 986 
Q 2897 466 2520 194 
Q 2144 -78 1638 -78 
Q 1100 -78 759 220 
Q 419 519 350 1059 
z
M 2653 3081 
Q 2653 3566 2395 3850 
Q 2138 4134 1775 4134 
Q 1400 4134 1122 3828 
Q 844 3522 844 3034 
Q 844 2597 1108 2323 
Q 1372 2050 1759 2050 
Q 2150 2050 2401 2323 
Q 2653 2597 2653 3081 
z
" transform="scale(0.015625)"/>
       </defs>
       <use xlink:href="#ArialMT-32"/>
       <use xlink:href="#ArialMT-30" x="55.615234"/>
       <use xlink:href="#ArialMT-32" x="111.230469"/>
       <use xlink:href="#ArialMT-34" x="166.845703"/>
       <use xlink:href="#ArialMT-2d" x="222.460938"/>
       <use xlink:href="#ArialMT-30" x="255.761719"/>
       <use xlink:href="#ArialMT-39" x="311.376953"/>
      </g>
     </g>
    </g>
    <g id="xtick_6">
     <g id="line2d_6">
      <path d="M 704.498107 359.045568 
L 704.498107 27.65625 
" clip-path="url(#p1f4b9f7c86)" style="fill: none; stroke: #cccccc; stroke-opacity: 0.5; stroke-linecap: round"/>
     </g>
     <g id="text_6">
      <!-- 2024-11 -->
      <g style="fill: #262626" transform="translate(692.52458 402.081654) rotate(-45) scale(0.11 -0.11)">
       <use xlink:href="#ArialMT-32"/>
       <use xlink:href="#ArialMT-30" x="55.615234"/>
       <use xlink:href="#ArialMT-32" x="111.230469"/>
       <use xlink:href="#ArialMT-34" x="166.845703"/>
       <use xlink:href="#ArialMT-2d" x="222.460938"/>
       <use xlink:href="#ArialMT-31" x="255.761719"/>
       <use xlink:href="#ArialMT-31" x="304.001953"/>
      </g>
     </g>
    </g>
    <g id="xtick_7">
     <g id="line2d_7">
      <path d="M 823.526808 359.045568 
L 823.526808 27.65625 
" clip-path="url(#p1f4b9f7c86)" style="fill: none; stroke: #cccccc; stroke-opacity: 0.5; stroke-linecap: round"/>
     </g>
     <g id="text_7">
      <!-- 2025-01 -->
      <g style="fill: #262626" transform="translate(811.266461 402.655294) rotate(-45) scale(0.11 -0.11)">
       <use xlink:href="#ArialMT-32"/>
       <use xlink:href="#ArialMT-30" x="55.615234"/>
       <use xlink:href="#ArialMT-32" x="111.230469"/>
       <use xlink:href="#ArialMT-35" x="166.845703"/>
       <use xlink:href="#ArialMT-2d" x="222.460938"/>
       <use xlink:href="#ArialMT-30" x="255.761719"/>
       <use xlink:href="#ArialMT-31" x="311.376953"/>
      </g>
     </g>
    </g>
    <g id="text_8">
     <!-- Timestamp -->
     <g style="fill: #262626" transform="translate(433.093125 416.790582) scale(0.12 -0.12)">
      <defs>
       <path id="ArialMT-54" d="M 1659 0 
L 1659 4041 
L 150 4041 
L 150 4581 
L 3781 4581 
L 3781 4041 
L 2266 4041 
L 2266 0 
L 1659 0 
z
" transform="scale(0.015625)"/>
       <path id="ArialMT-69" d="M 425 3934 
L 425 4581 
L 988 4581 
L 988 3934 
L 425 3934 
z
M 425 0 
L 425 3319 
L 988 3319 
L 988 0 
L 425 0 
z
" transform="scale(0.015625)"/>
       <path id="ArialMT-6d" d="M 422 0 
L 422 3319 
L 925 3319 
L 925 2853 
Q 1081 3097 1340 3245 
Q 1600 3394 1931 3394 
Q 2300 3394 2536 3241 
Q 2772 3088 2869 2813 
Q 3263 3394 3894 3394 
Q 4388 3394 4653 3120 
Q 4919 2847 4919 2278 
L 4919 0 
L 4359 0 
L 4359 2091 
Q 4359 2428 4304 2576 
Q 4250 2725 4106 2815 
Q 3963 2906 3769 2906 
Q 3419 2906 3187 2673 
Q 2956 2441 2956 1928 
L 2956 0 
L 2394 0 
L 2394 2156 
Q 2394 2531 2256 2718 
Q 2119 2906 1806 2906 
Q 1569 2906 1367 2781 
Q 1166 2656 1075 2415 
Q 984 2175 984 1722 
L 984 0 
L 422 0 
z
" transform="scale(0.015625)"/>
       <path id="ArialMT-65" d="M 2694 1069 
L 3275 997 
Q 3138 488 2766 206 
Q 2394 -75 1816 -75 
Q 1088 -75 661 373 
Q 234 822 234 1631 
Q 234 2469 665 2931 
Q 1097 3394 1784 3394 
Q 2450 3394 2872 2941 
Q 3294 2488 3294 1666 
Q 3294 1616 3291 1516 
L 816 1516 
Q 847 969 1125 678 
Q 1403 388 1819 388 
Q 2128 388 2347 550 
Q 2566 713 2694 1069 
z
M 847 1978 
L 2700 1978 
Q 2663 2397 2488 2606 
Q 2219 2931 1791 2931 
Q 1403 2931 1139 2672 
Q 875 2413 847 1978 
z
" transform="scale(0.015625)"/>
       <path id="ArialMT-73" d="M 197 991 
L 753 1078 
Q 800 744 1014 566 
Q 1228 388 1613 388 
Q 2000 388 2187 545 
Q 2375 703 2375 916 
Q 2375 1106 2209 1216 
Q 2094 1291 1634 1406 
Q 1016 1563 777 1677 
Q 538 1791 414 1992 
Q 291 2194 291 2438 
Q 291 2659 392 2848 
Q 494 3038 669 3163 
Q 800 3259 1026 3326 
Q 1253 3394 1513 3394 
Q 1903 3394 2198 3281 
Q 2494 3169 2634 2976 
Q 2775 2784 2828 2463 
L 2278 2388 
Q 2241 2644 2061 2787 
Q 1881 2931 1553 2931 
Q 1166 2931 1000 2803 
Q 834 2675 834 2503 
Q 834 2394 903 2306 
Q 972 2216 1119 2156 
Q 1203 2125 1616 2013 
Q 2213 1853 2448 1751 
Q 2684 1650 2818 1456 
Q 2953 1263 2953 975 
Q 2953 694 2789 445 
Q 2625 197 2315 61 
Q 2006 -75 1616 -75 
Q 969 -75 630 194 
Q 291 463 197 991 
z
" transform="scale(0.015625)"/>
       <path id="ArialMT-74" d="M 1650 503 
L 1731 6 
Q 1494 -44 1306 -44 
Q 1000 -44 831 53 
Q 663 150 594 308 
Q 525 466 525 972 
L 525 2881 
L 113 2881 
L 113 3319 
L 525 3319 
L 525 4141 
L 1084 4478 
L 1084 3319 
L 1650 3319 
L 1650 2881 
L 1084 2881 
L 1084 941 
Q 1084 700 1114 631 
Q 1144 563 1211 522 
Q 1278 481 1403 481 
Q 1497 481 1650 503 
z
" transform="scale(0.015625)"/>
       <path id="ArialMT-61" d="M 2588 409 
Q 2275 144 1986 34 
Q 1697 -75 1366 -75 
Q 819 -75 525 192 
Q 231 459 231 875 
Q 231 1119 342 1320 
Q 453 1522 633 1644 
Q 813 1766 1038 1828 
Q 1203 1872 1538 1913 
Q 2219 1994 2541 2106 
Q 2544 2222 2544 2253 
Q 2544 2597 2384 2738 
Q 2169 2928 1744 2928 
Q 1347 2928 1158 2789 
Q 969 2650 878 2297 
L 328 2372 
Q 403 2725 575 2942 
Q 747 3159 1072 3276 
Q 1397 3394 1825 3394 
Q 2250 3394 2515 3294 
Q 2781 3194 2906 3042 
Q 3031 2891 3081 2659 
Q 3109 2516 3109 2141 
L 3109 1391 
Q 3109 606 3145 398 
Q 3181 191 3288 0 
L 2700 0 
Q 2613 175 2588 409 
z
M 2541 1666 
Q 2234 1541 1622 1453 
Q 1275 1403 1131 1340 
Q 988 1278 909 1158 
Q 831 1038 831 891 
Q 831 666 1001 516 
Q 1172 366 1500 366 
Q 1825 366 2078 508 
Q 2331 650 2450 897 
Q 2541 1088 2541 1459 
L 2541 1666 
z
" transform="scale(0.015625)"/>
       <path id="ArialMT-70" d="M 422 -1272 
L 422 3319 
L 934 3319 
L 934 2888 
Q 1116 3141 1344 3267 
Q 1572 3394 1897 3394 
Q 2322 3394 2647 3175 
Q 2972 2956 3137 2557 
Q 3303 2159 3303 1684 
Q 3303 1175 3120 767 
Q 2938 359 2589 142 
Q 2241 -75 1856 -75 
Q 1575 -75 1351 44 
Q 1128 163 984 344 
L 984 -1272 
L 422 -1272 
z
M 931 1641 
Q 931 1000 1190 694 
Q 1450 388 1819 388 
Q 2194 388 2461 705 
Q 2728 1022 2728 1688 
Q 2728 2322 2467 2637 
Q 2206 2953 1844 2953 
Q 1484 2953 1207 2617 
Q 931 2281 931 1641 
z
" transform="scale(0.015625)"/>
      </defs>
      <use xlink:href="#ArialMT-54"/>
      <use xlink:href="#ArialMT-69" x="57.333984"/>
      <use xlink:href="#ArialMT-6d" x="79.550781"/>
      <use xlink:href="#ArialMT-65" x="162.851562"/>
      <use xlink:href="#ArialMT-73" x="218.466797"/>
      <use xlink:href="#ArialMT-74" x="268.466797"/>
      <use xlink:href="#ArialMT-61" x="296.25"/>
      <use xlink:href="#ArialMT-6d" x="351.865234"/>
      <use xlink:href="#ArialMT-70" x="435.166016"/>
     </g>
    </g>
   </g>
   <g id="matplotlib.axis_2">
    <g id="ytick_1">
     <g id="line2d_8">
      <path d="M 74.03625 343.982417 
L 851.04 343.982417 
" clip-path="url(#p1f4b9f7c86)" style="fill: none; stroke: #cccccc; stroke-opacity: 0.5; stroke-linecap: round"/>
     </g>
     <g id="text_9">
      <!-- 0 -->
      <g style="fill: #262626" transform="translate(58.419219 347.919214) scale(0.11 -0.11)">
       <use xlink:href="#ArialMT-30"/>
      </g>
     </g>
    </g>
    <g id="ytick_2">
     <g id="line2d_9">
      <path d="M 74.03625 300.944844 
L 851.04 300.944844 
" clip-path="url(#p1f4b9f7c86)" style="fill: none; stroke: #cccccc; stroke-opacity: 0.5; stroke-linecap: round"/>
     </g>
     <g id="text_10">
      <!-- 50000 -->
      <g style="fill: #262626" transform="translate(33.951094 304.88164) scale(0.11 -0.11)">
       <use xlink:href="#ArialMT-35"/>
       <use xlink:href="#ArialMT-30" x="55.615234"/>
       <use xlink:href="#ArialMT-30" x="111.230469"/>
       <use xlink:href="#ArialMT-30" x="166.845703"/>
       <use xlink:href="#ArialMT-30" x="222.460938"/>
      </g>
     </g>
    </g>
    <g id="ytick_3">
     <g id="line2d_10">
      <path d="M 74.03625 257.90727 
L 851.04 257.90727 
" clip-path="url(#p1f4b9f7c86)" style="fill: none; stroke: #cccccc; stroke-opacity: 0.5; stroke-linecap: round"/>
     </g>
     <g id="text_11">
      <!-- 100000 -->
      <g style="fill: #262626" transform="translate(27.834063 261.844067) scale(0.11 -0.11)">
       <use xlink:href="#ArialMT-31"/>
       <use xlink:href="#ArialMT-30" x="55.615234"/>
       <use xlink:href="#ArialMT-30" x="111.230469"/>
       <use xlink:href="#ArialMT-30" x="166.845703"/>
       <use xlink:href="#ArialMT-30" x="222.460938"/>
       <use xlink:href="#ArialMT-30" x="278.076172"/>
      </g>
     </g>
    </g>
    <g id="ytick_4">
     <g id="line2d_11">
      <path d="M 74.03625 214.869696 
L 851.04 214.869696 
" clip-path="url(#p1f4b9f7c86)" style="fill: none; stroke: #cccccc; stroke-opacity: 0.5; stroke-linecap: round"/>
     </g>
     <g id="text_12">
      <!-- 150000 -->
      <g style="fill: #262626" transform="translate(27.834063 218.806493) scale(0.11 -0.11)">
       <use xlink:href="#ArialMT-31"/>
       <use xlink:href="#ArialMT-35" x="55.615234"/>
       <use xlink:href="#ArialMT-30" x="111.230469"/>
       <use xlink:href="#ArialMT-30" x="166.845703"/>
       <use xlink:href="#ArialMT-30" x="222.460938"/>
       <use xlink:href="#ArialMT-30" x="278.076172"/>
      </g>
     </g>
    </g>
    <g id="ytick_5">
     <g id="line2d_12">
      <path d="M 74.03625 171.832122 
L 851.04 171.832122 
" clip-path="url(#p1f4b9f7c86)" style="fill: none; stroke: #cccccc; stroke-opacity: 0.5; stroke-linecap: round"/>
     </g>
     <g id="text_13">
      <!-- 200000 -->
      <g style="fill: #262626" transform="translate(27.834063 175.768919) scale(0.11 -0.11)">
       <use xlink:href="#ArialMT-32"/>
       <use xlink:href="#ArialMT-30" x="55.615234"/>
       <use xlink:href="#ArialMT-30" x="111.230469"/>
       <use xlink:href="#ArialMT-30" x="166.845703"/>
       <use xlink:href="#ArialMT-30" x="222.460938"/>
       <use xlink:href="#ArialMT-30" x="278.076172"/>
      </g>
     </g>
    </g>
    <g id="ytick_6">
     <g id="line2d_13">
      <path d="M 74.03625 128.794548 
L 851.04 128.794548 
" clip-path="url(#p1f4b9f7c86)" style="fill: none; stroke: #cccccc; stroke-opacity: 0.5; stroke-linecap: round"/>
     </g>
     <g id="text_14">
      <!-- 250000 -->
      <g style="fill: #262626" transform="translate(27.834063 132.731345) scale(0.11 -0.11)">
       <use xlink:href="#ArialMT-32"/>
       <use xlink:href="#ArialMT-35" x="55.615234"/>
       <use xlink:href="#ArialMT-30" x="111.230469"/>
       <use xlink:href="#ArialMT-30" x="166.845703"/>
       <use xlink:href="#ArialMT-30" x="222.460938"/>
       <use xlink:href="#ArialMT-30" x="278.076172"/>
      </g>
     </g>
    </g>
    <g id="ytick_7">
     <g id="line2d_14">
      <path d="M 74.03625 85.756975 
L 851.04 85.756975 
" clip-path="url(#p1f4b9f7c86)" style="fill: none; stroke: #cccccc; stroke-opacity: 0.5; stroke-linecap: round"/>
     </g>
     <g id="text_15">
      <!-- 300000 -->
      <g style="fill: #262626" transform="translate(27.834063 89.693771) scale(0.11 -0.11)">
       <use xlink:href="#ArialMT-33"/>
       <use xlink:href="#ArialMT-30" x="55.615234"/>
       <use xlink:href="#ArialMT-30" x="111.230469"/>
       <use xlink:href="#ArialMT-30" x="166.845703"/>
       <use xlink:href="#ArialMT-30" x="222.460938"/>
       <use xlink:href="#ArialMT-30" x="278.076172"/>
      </g>
     </g>
    </g>
    <g id="ytick_8">
     <g id="line2d_15">
      <path d="M 74.03625 42.719401 
L 851.04 42.719401 
" clip-path="url(#p1f4b9f7c86)" style="fill: none; stroke: #cccccc; stroke-opacity: 0.5; stroke-linecap: round"/>
     </g>
     <g id="text_16">
      <!-- 350000 -->
      <g style="fill: #262626" transform="translate(27.834063 46.656198) scale(0.11 -0.11)">
       <use xlink:href="#ArialMT-33"/>
       <use xlink:href="#ArialMT-35" x="55.615234"/>
       <use xlink:href="#ArialMT-30" x="111.230469"/>
       <use xlink:href="#ArialMT-30" x="166.845703"/>
       <use xlink:href="#ArialMT-30" x="222.460938"/>
       <use xlink:href="#ArialMT-30" x="278.076172"/>
      </g>
     </g>
    </g>
    <g id="text_17">
     <!-- Total Liquidity (sats) -->
     <g style="fill: #262626" transform="translate(21.308438 246.366534) rotate(-90) scale(0.12 -0.12)">
      <defs>
       <path id="ArialMT-6f" d="M 213 1659 
Q 213 2581 725 3025 
Q 1153 3394 1769 3394 
Q 2453 3394 2887 2945 
Q 3322 2497 3322 1706 
Q 3322 1066 3130 698 
Q 2938 331 2570 128 
Q 2203 -75 1769 -75 
Q 1072 -75 642 372 
Q 213 819 213 1659 
z
M 791 1659 
Q 791 1022 1069 705 
Q 1347 388 1769 388 
Q 2188 388 2466 706 
Q 2744 1025 2744 1678 
Q 2744 2294 2464 2611 
Q 2184 2928 1769 2928 
Q 1347 2928 1069 2612 
Q 791 2297 791 1659 
z
" transform="scale(0.015625)"/>
       <path id="ArialMT-6c" d="M 409 0 
L 409 4581 
L 972 4581 
L 972 0 
L 409 0 
z
" transform="scale(0.015625)"/>
       <path id="ArialMT-20" transform="scale(0.015625)"/>
       <path id="ArialMT-4c" d="M 469 0 
L 469 4581 
L 1075 4581 
L 1075 541 
L 3331 541 
L 3331 0 
L 469 0 
z
" transform="scale(0.015625)"/>
       <path id="ArialMT-71" d="M 2538 -1272 
L 2538 353 
Q 2406 169 2170 47 
Q 1934 -75 1669 -75 
Q 1078 -75 651 397 
Q 225 869 225 1691 
Q 225 2191 398 2587 
Q 572 2984 901 3189 
Q 1231 3394 1625 3394 
Q 2241 3394 2594 2875 
L 2594 3319 
L 3100 3319 
L 3100 -1272 
L 2538 -1272 
z
M 803 1669 
Q 803 1028 1072 708 
Q 1341 388 1716 388 
Q 2075 388 2334 692 
Q 2594 997 2594 1619 
Q 2594 2281 2320 2615 
Q 2047 2950 1678 2950 
Q 1313 2950 1058 2639 
Q 803 2328 803 1669 
z
" transform="scale(0.015625)"/>
       <path id="ArialMT-75" d="M 2597 0 
L 2597 488 
Q 2209 -75 1544 -75 
Q 1250 -75 995 37 
Q 741 150 617 320 
Q 494 491 444 738 
Q 409 903 409 1263 
L 409 3319 
L 972 3319 
L 972 1478 
Q 972 1038 1006 884 
Q 1059 663 1231 536 
Q 1403 409 1656 409 
Q 1909 409 2131 539 
Q 2353 669 2445 892 
Q 2538 1116 2538 1541 
L 2538 3319 
L 3100 3319 
L 3100 0 
L 2597 0 
z
" transform="scale(0.015625)"/>
       <path id="ArialMT-64" d="M 2575 0 
L 2575 419 
Q 2259 -75 1647 -75 
Q 1250 -75 917 144 
Q 584 363 401 755 
Q 219 1147 219 1656 
Q 219 2153 384 2558 
Q 550 2963 881 3178 
Q 1213 3394 1622 3394 
Q 1922 3394 2156 3267 
Q 2391 3141 2538 2938 
L 2538 4581 
L 3097 4581 
L 3097 0 
L 2575 0 
z
M 797 1656 
Q 797 1019 1065 703 
Q 1334 388 1700 388 
Q 2069 388 2326 689 
Q 2584 991 2584 1609 
Q 2584 2291 2321 2609 
Q 2059 2928 1675 2928 
Q 1300 2928 1048 2622 
Q 797 2316 797 1656 
z
" transform="scale(0.015625)"/>
       <path id="ArialMT-79" d="M 397 -1278 
L 334 -750 
Q 519 -800 656 -800 
Q 844 -800 956 -737 
Q 1069 -675 1141 -563 
Q 1194 -478 1313 -144 
Q 1328 -97 1363 -6 
L 103 3319 
L 709 3319 
L 1400 1397 
Q 1534 1031 1641 628 
Q 1738 1016 1872 1384 
L 2581 3319 
L 3144 3319 
L 1881 -56 
Q 1678 -603 1566 -809 
Q 1416 -1088 1222 -1217 
Q 1028 -1347 759 -1347 
Q 597 -1347 397 -1278 
z
" transform="scale(0.015625)"/>
       <path id="ArialMT-28" d="M 1497 -1347 
Q 1031 -759 709 28 
Q 388 816 388 1659 
Q 388 2403 628 3084 
Q 909 3875 1497 4659 
L 1900 4659 
Q 1522 4009 1400 3731 
Q 1209 3300 1100 2831 
Q 966 2247 966 1656 
Q 966 153 1900 -1347 
L 1497 -1347 
z
" transform="scale(0.015625)"/>
       <path id="ArialMT-29" d="M 791 -1347 
L 388 -1347 
Q 1322 153 1322 1656 
Q 1322 2244 1188 2822 
Q 1081 3291 891 3722 
Q 769 4003 388 4659 
L 791 4659 
Q 1378 3875 1659 3084 
Q 1900 2403 1900 1659 
Q 1900 816 1576 28 
Q 1253 -759 791 -1347 
z
" transform="scale(0.015625)"/>
      </defs>
      <use xlink:href="#ArialMT-54"/>
      <use xlink:href="#ArialMT-6f" x="49.958984"/>
      <use xlink:href="#ArialMT-74" x="105.574219"/>
      <use xlink:href="#ArialMT-61" x="133.357422"/>
      <use xlink:href="#ArialMT-6c" x="188.972656"/>
      <use xlink:href="#ArialMT-20" x="211.189453"/>
      <use xlink:href="#ArialMT-4c" x="238.972656"/>
      <use xlink:href="#ArialMT-69" x="294.587891"/>
      <use xlink:href="#ArialMT-71" x="316.804688"/>
      <use xlink:href="#ArialMT-75" x="372.419922"/>
      <use xlink:href="#ArialMT-69" x="428.035156"/>
      <use xlink:href="#ArialMT-64" x="450.251953"/>
      <use xlink:href="#ArialMT-69" x="505.867188"/>
      <use xlink:href="#ArialMT-74" x="528.083984"/>
      <use xlink:href="#ArialMT-79" x="555.867188"/>
      <use xlink:href="#ArialMT-20" x="605.867188"/>
      <use xlink:href="#ArialMT-28" x="633.650391"/>
      <use xlink:href="#ArialMT-73" x="666.951172"/>
      <use xlink:href="#ArialMT-61" x="716.951172"/>
      <use xlink:href="#ArialMT-74" x="772.566406"/>
      <use xlink:href="#ArialMT-73" x="800.349609"/>
      <use xlink:href="#ArialMT-29" x="850.349609"/>
     </g>
    </g>
   </g>
   <g id="PolyCollection_1">
    <defs>
     <path id="mf1e8356de6" d="M 109.354602 -88.017583 
L 109.354602 -88.017583 
L 111.305892 -88.017583 
L 113.257183 -113.840127 
L 115.208473 -113.840127 
L 117.159763 -131.055156 
L 119.111053 -131.055156 
L 121.062343 -135.358914 
L 123.013634 -139.662671 
L 124.964924 -139.662671 
L 126.916214 -139.662671 
L 128.867504 -139.662671 
L 130.818794 -139.662671 
L 132.770084 -346.243025 
L 134.721375 -389.280599 
L 136.672665 -131.055156 
L 138.623955 -143.966429 
L 140.575245 -178.396488 
L 142.526535 -178.396488 
L 144.477826 -178.396488 
L 146.429116 -204.219032 
L 148.380406 -204.219032 
L 150.331696 -204.219032 
L 152.282986 -247.256606 
L 154.234276 -247.256606 
L 156.185567 -247.256606 
L 158.136857 -247.256606 
L 160.088147 -247.256606 
L 162.039437 -255.86412 
L 163.990727 -260.167878 
L 165.942018 -264.471635 
L 167.893308 -264.471635 
L 169.844598 -264.471635 
L 171.795888 -264.471635 
L 173.747178 -264.471635 
L 175.698468 -264.471635 
L 177.649759 -281.686665 
L 179.601049 -281.686665 
L 181.552339 -281.686665 
L 183.503629 -294.597937 
L 185.454919 -337.635511 
L 187.40621 -131.055156 
L 189.3575 -174.09273 
L 191.30879 -174.09273 
L 193.26008 -363.458055 
L 195.21137 -363.458055 
L 197.16266 -122.447642 
L 199.113951 -135.358914 
L 201.065241 -135.358914 
L 203.016531 -135.358914 
L 204.967821 -135.358914 
L 206.919111 -161.181458 
L 208.870401 -161.181458 
L 210.821692 -161.181458 
L 212.772982 -161.181458 
L 214.724272 -178.396488 
L 216.675562 -221.434061 
L 218.626852 -264.471635 
L 220.578143 -264.471635 
L 222.529433 -273.07915 
L 224.480723 -273.07915 
L 226.432013 -273.07915 
L 228.383303 -273.07915 
L 230.334593 -298.901694 
L 232.285884 -298.901694 
L 234.237174 -316.116724 
L 236.188464 -316.116724 
L 238.139754 -307.509209 
L 240.091044 -311.812966 
L 242.042335 -311.812966 
L 243.993625 -311.812966 
L 245.944915 -311.812966 
L 247.896205 -139.662671 
L 249.847495 -346.243025 
L 251.798785 -389.280599 
L 253.750076 -131.055156 
L 255.701366 -143.966429 
L 257.652656 -178.396488 
L 259.603946 -178.396488 
L 261.555236 -178.396488 
L 263.506527 -204.219032 
L 265.457817 -204.219032 
L 267.409107 -204.219032 
L 269.360397 -247.256606 
L 271.311687 -247.256606 
L 273.262977 -247.256606 
L 275.214268 -247.256606 
L 277.165558 -247.256606 
L 279.116848 -255.86412 
L 281.068138 -260.167878 
L 283.019428 -264.471635 
L 284.970719 -264.471635 
L 286.922009 -264.471635 
L 288.873299 -264.471635 
L 290.824589 -264.471635 
L 292.775879 -264.471635 
L 294.727169 -281.686665 
L 296.67846 -281.686665 
L 298.62975 -281.686665 
L 300.58104 -294.597937 
L 302.53233 -337.635511 
L 304.48362 -131.055156 
L 306.434911 -174.09273 
L 308.386201 -174.09273 
L 310.337491 -363.458055 
L 312.288781 -363.458055 
L 314.240071 -122.447642 
L 316.191361 -135.358914 
L 318.142652 -135.358914 
L 320.093942 -135.358914 
L 322.045232 -135.358914 
L 323.996522 -161.181458 
L 325.947812 -161.181458 
L 327.899103 -161.181458 
L 329.850393 -161.181458 
L 331.801683 -178.396488 
L 333.752973 -221.434061 
L 335.704263 -264.471635 
L 337.655553 -264.471635 
L 339.606844 -273.07915 
L 341.558134 -273.07915 
L 343.509424 -273.07915 
L 345.460714 -273.07915 
L 347.412004 -273.07915 
L 349.363295 -298.901694 
L 351.314585 -298.901694 
L 353.265875 -316.116724 
L 355.217165 -303.205452 
L 357.168455 -307.509209 
L 359.119745 -311.812966 
L 361.071036 -311.812966 
L 363.022326 -311.812966 
L 364.973616 -139.662671 
L 366.924906 -139.662671 
L 368.876196 -346.243025 
L 370.827487 -389.280599 
L 372.778777 -131.055156 
L 374.730067 -143.966429 
L 376.681357 -178.396488 
L 378.632647 -178.396488 
L 380.583937 -178.396488 
L 382.535228 -204.219032 
L 384.486518 -204.219032 
L 386.437808 -204.219032 
L 388.389098 -247.256606 
L 390.340388 -247.256606 
L 392.291678 -247.256606 
L 394.242969 -247.256606 
L 396.194259 -247.256606 
L 398.145549 -255.86412 
L 400.096839 -260.167878 
L 402.048129 -264.471635 
L 403.99942 -264.471635 
L 405.95071 -264.471635 
L 407.902 -264.471635 
L 409.85329 -264.471635 
L 411.80458 -264.471635 
L 413.75587 -281.686665 
L 415.707161 -281.686665 
L 417.658451 -281.686665 
L 419.609741 -294.597937 
L 421.561031 -337.635511 
L 423.512321 -131.055156 
L 425.463612 -174.09273 
L 427.414902 -174.09273 
L 429.366192 -363.458055 
L 431.317482 -363.458055 
L 433.268772 -122.447642 
L 435.220062 -135.358914 
L 437.171353 -135.358914 
L 439.122643 -135.358914 
L 441.073933 -135.358914 
L 443.025223 -161.181458 
L 444.976513 -161.181458 
L 446.927804 -161.181458 
L 448.879094 -161.181458 
L 450.830384 -178.396488 
L 452.781674 -221.434061 
L 454.732964 -264.471635 
L 456.684254 -264.471635 
L 458.635545 -273.07915 
L 460.586835 -273.07915 
L 462.538125 -273.07915 
L 464.489415 -273.07915 
L 466.440705 -273.07915 
L 468.391996 -298.901694 
L 470.343286 -298.901694 
L 472.294576 -316.116724 
L 474.245866 -303.205452 
L 476.197156 -307.509209 
L 478.148446 -311.812966 
L 480.099737 -311.812966 
L 482.051027 -311.812966 
L 484.002317 -139.662671 
L 485.953607 -139.662671 
L 487.904897 -346.243025 
L 489.856188 -389.280599 
L 491.807478 -131.055156 
L 493.758768 -143.966429 
L 495.710058 -178.396488 
L 497.661348 -178.396488 
L 499.612638 -178.396488 
L 501.563929 -204.219032 
L 503.515219 -204.219032 
L 505.466509 -204.219032 
L 507.417799 -247.256606 
L 509.369089 -247.256606 
L 511.32038 -247.256606 
L 513.27167 -247.256606 
L 515.22296 -247.256606 
L 517.17425 -255.86412 
L 519.12554 -260.167878 
L 521.07683 -264.471635 
L 523.028121 -264.471635 
L 524.979411 -264.471635 
L 526.930701 -264.471635 
L 528.881991 -264.471635 
L 530.833281 -264.471635 
L 532.784572 -281.686665 
L 534.735862 -281.686665 
L 536.687152 -281.686665 
L 538.638442 -294.597937 
L 540.589732 -337.635511 
L 542.541022 -131.055156 
L 544.492313 -174.09273 
L 546.443603 -174.09273 
L 548.394893 -363.458055 
L 550.346183 -363.458055 
L 552.297473 -122.447642 
L 554.248763 -135.358914 
L 556.200054 -135.358914 
L 558.151344 -135.358914 
L 560.102634 -135.358914 
L 562.053924 -161.181458 
L 564.005214 -161.181458 
L 565.956505 -161.181458 
L 567.907795 -161.181458 
L 569.859085 -178.396488 
L 571.810375 -221.434061 
L 573.761665 -264.471635 
L 575.712955 -264.471635 
L 577.664246 -273.07915 
L 579.615536 -273.07915 
L 581.566826 -273.07915 
L 583.518116 -273.07915 
L 585.469406 -273.07915 
L 587.420697 -273.07915 
L 589.371987 -298.901694 
L 591.323277 -298.901694 
L 593.274567 -303.205452 
L 595.225857 -303.205452 
L 597.177147 -307.509209 
L 599.128438 -311.812966 
L 601.079728 -311.812966 
L 603.031018 -139.662671 
L 604.982308 -139.662671 
L 606.933598 -139.662671 
L 608.884889 -346.243025 
L 610.836179 -389.280599 
L 612.787469 -131.055156 
L 614.738759 -143.966429 
L 616.690049 -178.396488 
L 618.641339 -178.396488 
L 620.59263 -178.396488 
L 622.54392 -204.219032 
L 624.49521 -204.219032 
L 626.4465 -204.219032 
L 628.39779 -247.256606 
L 630.349081 -247.256606 
L 632.300371 -247.256606 
L 634.251661 -247.256606 
L 636.202951 -247.256606 
L 638.154241 -255.86412 
L 640.105531 -260.167878 
L 642.056822 -264.471635 
L 644.008112 -264.471635 
L 645.959402 -264.471635 
L 647.910692 -264.471635 
L 649.861982 -264.471635 
L 651.813273 -281.686665 
L 653.764563 -281.686665 
L 655.715853 -281.686665 
L 657.667143 -281.686665 
L 659.618433 -337.635511 
L 661.569723 -337.635511 
L 663.521014 -174.09273 
L 665.472304 -174.09273 
L 667.423594 -363.458055 
L 669.374884 -363.458055 
L 671.326174 -122.447642 
L 673.277465 -135.358914 
L 675.228755 -135.358914 
L 677.180045 -135.358914 
L 679.131335 -135.358914 
L 681.082625 -161.181458 
L 683.033915 -161.181458 
L 684.985206 -161.181458 
L 686.936496 -161.181458 
L 688.887786 -178.396488 
L 690.839076 -221.434061 
L 692.790366 -264.471635 
L 694.741657 -264.471635 
L 696.692947 -273.07915 
L 698.644237 -273.07915 
L 700.595527 -273.07915 
L 702.546817 -273.07915 
L 704.498107 -273.07915 
L 706.449398 -273.07915 
L 708.400688 -298.901694 
L 710.351978 -298.901694 
L 712.303268 -316.116724 
L 714.254558 -303.205452 
L 716.205849 -307.509209 
L 718.157139 -311.812966 
L 720.108429 -311.812966 
L 722.059719 -139.662671 
L 724.011009 -139.662671 
L 725.962299 -139.662671 
L 727.91359 -346.243025 
L 729.86488 -389.280599 
L 731.81617 -131.055156 
L 733.76746 -143.966429 
L 735.71875 -178.396488 
L 737.67004 -178.396488 
L 739.621331 -178.396488 
L 741.572621 -204.219032 
L 743.523911 -204.219032 
L 745.475201 -204.219032 
L 747.426491 -247.256606 
L 749.377782 -247.256606 
L 751.329072 -247.256606 
L 753.280362 -247.256606 
L 755.231652 -247.256606 
L 757.182942 -255.86412 
L 759.134232 -260.167878 
L 761.085523 -264.471635 
L 763.036813 -264.471635 
L 764.988103 -264.471635 
L 766.939393 -264.471635 
L 768.890683 -264.471635 
L 770.841974 -281.686665 
L 772.793264 -281.686665 
L 774.744554 -281.686665 
L 776.695844 -281.686665 
L 778.647134 -337.635511 
L 780.598424 -337.635511 
L 782.549715 -174.09273 
L 784.501005 -174.09273 
L 786.452295 -363.458055 
L 788.403585 -363.458055 
L 790.354875 -122.447642 
L 792.306166 -135.358914 
L 794.257456 -135.358914 
L 796.208746 -135.358914 
L 798.160036 -135.358914 
L 800.111326 -161.181458 
L 802.062616 -161.181458 
L 804.013907 -161.181458 
L 805.965197 -161.181458 
L 807.916487 -178.396488 
L 809.867777 -221.434061 
L 811.819067 -264.471635 
L 813.770358 -264.471635 
L 815.721648 -273.07915 
L 815.721648 -88.017583 
L 815.721648 -88.017583 
L 813.770358 -88.017583 
L 811.819067 -88.017583 
L 809.867777 -88.017583 
L 807.916487 -88.017583 
L 805.965197 -88.017583 
L 804.013907 -88.017583 
L 802.062616 -88.017583 
L 800.111326 -88.017583 
L 798.160036 -88.017583 
L 796.208746 -88.017583 
L 794.257456 -88.017583 
L 792.306166 -88.017583 
L 790.354875 -88.017583 
L 788.403585 -88.017583 
L 786.452295 -88.017583 
L 784.501005 -88.017583 
L 782.549715 -88.017583 
L 780.598424 -88.017583 
L 778.647134 -88.017583 
L 776.695844 -88.017583 
L 774.744554 -88.017583 
L 772.793264 -88.017583 
L 770.841974 -88.017583 
L 768.890683 -88.017583 
L 766.939393 -88.017583 
L 764.988103 -88.017583 
L 763.036813 -88.017583 
L 761.085523 -88.017583 
L 759.134232 -88.017583 
L 757.182942 -88.017583 
L 755.231652 -88.017583 
L 753.280362 -88.017583 
L 751.329072 -88.017583 
L 749.377782 -88.017583 
L 747.426491 -88.017583 
L 745.475201 -88.017583 
L 743.523911 -88.017583 
L 741.572621 -88.017583 
L 739.621331 -88.017583 
L 737.67004 -88.017583 
L 735.71875 -88.017583 
L 733.76746 -88.017583 
L 731.81617 -88.017583 
L 729.86488 -88.017583 
L 727.91359 -88.017583 
L 725.962299 -88.017583 
L 724.011009 -88.017583 
L 722.059719 -88.017583 
L 720.108429 -88.017583 
L 718.157139 -88.017583 
L 716.205849 -88.017583 
L 714.254558 -88.017583 
L 712.303268 -88.017583 
L 710.351978 -88.017583 
L 708.400688 -88.017583 
L 706.449398 -88.017583 
L 704.498107 -88.017583 
L 702.546817 -88.017583 
L 700.595527 -88.017583 
L 698.644237 -88.017583 
L 696.692947 -88.017583 
L 694.741657 -88.017583 
L 692.790366 -88.017583 
L 690.839076 -88.017583 
L 688.887786 -88.017583 
L 686.936496 -88.017583 
L 684.985206 -88.017583 
L 683.033915 -88.017583 
L 681.082625 -88.017583 
L 679.131335 -88.017583 
L 677.180045 -88.017583 
L 675.228755 -88.017583 
L 673.277465 -88.017583 
L 671.326174 -88.017583 
L 669.374884 -88.017583 
L 667.423594 -88.017583 
L 665.472304 -88.017583 
L 663.521014 -88.017583 
L 661.569723 -88.017583 
L 659.618433 -88.017583 
L 657.667143 -88.017583 
L 655.715853 -88.017583 
L 653.764563 -88.017583 
L 651.813273 -88.017583 
L 649.861982 -88.017583 
L 647.910692 -88.017583 
L 645.959402 -88.017583 
L 644.008112 -88.017583 
L 642.056822 -88.017583 
L 640.105531 -88.017583 
L 638.154241 -88.017583 
L 636.202951 -88.017583 
L 634.251661 -88.017583 
L 632.300371 -88.017583 
L 630.349081 -88.017583 
L 628.39779 -88.017583 
L 626.4465 -88.017583 
L 624.49521 -88.017583 
L 622.54392 -88.017583 
L 620.59263 -88.017583 
L 618.641339 -88.017583 
L 616.690049 -88.017583 
L 614.738759 -88.017583 
L 612.787469 -88.017583 
L 610.836179 -88.017583 
L 608.884889 -88.017583 
L 606.933598 -88.017583 
L 604.982308 -88.017583 
L 603.031018 -88.017583 
L 601.079728 -88.017583 
L 599.128438 -88.017583 
L 597.177147 -88.017583 
L 595.225857 -88.017583 
L 593.274567 -88.017583 
L 591.323277 -88.017583 
L 589.371987 -88.017583 
L 587.420697 -88.017583 
L 585.469406 -88.017583 
L 583.518116 -88.017583 
L 581.566826 -88.017583 
L 579.615536 -88.017583 
L 577.664246 -88.017583 
L 575.712955 -88.017583 
L 573.761665 -88.017583 
L 571.810375 -88.017583 
L 569.859085 -88.017583 
L 567.907795 -88.017583 
L 565.956505 -88.017583 
L 564.005214 -88.017583 
L 562.053924 -88.017583 
L 560.102634 -88.017583 
L 558.151344 -88.017583 
L 556.200054 -88.017583 
L 554.248763 -88.017583 
L 552.297473 -88.017583 
L 550.346183 -88.017583 
L 548.394893 -88.017583 
L 546.443603 -88.017583 
L 544.492313 -88.017583 
L 542.541022 -88.017583 
L 540.589732 -88.017583 
L 538.638442 -88.017583 
L 536.687152 -88.017583 
L 534.735862 -88.017583 
L 532.784572 -88.017583 
L 530.833281 -88.017583 
L 528.881991 -88.017583 
L 526.930701 -88.017583 
L 524.979411 -88.017583 
L 523.028121 -88.017583 
L 521.07683 -88.017583 
L 519.12554 -88.017583 
L 517.17425 -88.017583 
L 515.22296 -88.017583 
L 513.27167 -88.017583 
L 511.32038 -88.017583 
L 509.369089 -88.017583 
L 507.417799 -88.017583 
L 505.466509 -88.017583 
L 503.515219 -88.017583 
L 501.563929 -88.017583 
L 499.612638 -88.017583 
L 497.661348 -88.017583 
L 495.710058 -88.017583 
L 493.758768 -88.017583 
L 491.807478 -88.017583 
L 489.856188 -88.017583 
L 487.904897 -88.017583 
L 485.953607 -88.017583 
L 484.002317 -88.017583 
L 482.051027 -88.017583 
L 480.099737 -88.017583 
L 478.148446 -88.017583 
L 476.197156 -88.017583 
L 474.245866 -88.017583 
L 472.294576 -88.017583 
L 470.343286 -88.017583 
L 468.391996 -88.017583 
L 466.440705 -88.017583 
L 464.489415 -88.017583 
L 462.538125 -88.017583 
L 460.586835 -88.017583 
L 458.635545 -88.017583 
L 456.684254 -88.017583 
L 454.732964 -88.017583 
L 452.781674 -88.017583 
L 450.830384 -88.017583 
L 448.879094 -88.017583 
L 446.927804 -88.017583 
L 444.976513 -88.017583 
L 443.025223 -88.017583 
L 441.073933 -88.017583 
L 439.122643 -88.017583 
L 437.171353 -88.017583 
L 435.220062 -88.017583 
L 433.268772 -88.017583 
L 431.317482 -88.017583 
L 429.366192 -88.017583 
L 427.414902 -88.017583 
L 425.463612 -88.017583 
L 423.512321 -88.017583 
L 421.561031 -88.017583 
L 419.609741 -88.017583 
L 417.658451 -88.017583 
L 415.707161 -88.017583 
L 413.75587 -88.017583 
L 411.80458 -88.017583 
L 409.85329 -88.017583 
L 407.902 -88.017583 
L 405.95071 -88.017583 
L 403.99942 -88.017583 
L 402.048129 -88.017583 
L 400.096839 -88.017583 
L 398.145549 -88.017583 
L 396.194259 -88.017583 
L 394.242969 -88.017583 
L 392.291678 -88.017583 
L 390.340388 -88.017583 
L 388.389098 -88.017583 
L 386.437808 -88.017583 
L 384.486518 -88.017583 
L 382.535228 -88.017583 
L 380.583937 -88.017583 
L 378.632647 -88.017583 
L 376.681357 -88.017583 
L 374.730067 -88.017583 
L 372.778777 -88.017583 
L 370.827487 -88.017583 
L 368.876196 -88.017583 
L 366.924906 -88.017583 
L 364.973616 -88.017583 
L 363.022326 -88.017583 
L 361.071036 -88.017583 
L 359.119745 -88.017583 
L 357.168455 -88.017583 
L 355.217165 -88.017583 
L 353.265875 -88.017583 
L 351.314585 -88.017583 
L 349.363295 -88.017583 
L 347.412004 -88.017583 
L 345.460714 -88.017583 
L 343.509424 -88.017583 
L 341.558134 -88.017583 
L 339.606844 -88.017583 
L 337.655553 -88.017583 
L 335.704263 -88.017583 
L 333.752973 -88.017583 
L 331.801683 -88.017583 
L 329.850393 -88.017583 
L 327.899103 -88.017583 
L 325.947812 -88.017583 
L 323.996522 -88.017583 
L 322.045232 -88.017583 
L 320.093942 -88.017583 
L 318.142652 -88.017583 
L 316.191361 -88.017583 
L 314.240071 -88.017583 
L 312.288781 -88.017583 
L 310.337491 -88.017583 
L 308.386201 -88.017583 
L 306.434911 -88.017583 
L 304.48362 -88.017583 
L 302.53233 -88.017583 
L 300.58104 -88.017583 
L 298.62975 -88.017583 
L 296.67846 -88.017583 
L 294.727169 -88.017583 
L 292.775879 -88.017583 
L 290.824589 -88.017583 
L 288.873299 -88.017583 
L 286.922009 -88.017583 
L 284.970719 -88.017583 
L 283.019428 -88.017583 
L 281.068138 -88.017583 
L 279.116848 -88.017583 
L 277.165558 -88.017583 
L 275.214268 -88.017583 
L 273.262977 -88.017583 
L 271.311687 -88.017583 
L 269.360397 -88.017583 
L 267.409107 -88.017583 
L 265.457817 -88.017583 
L 263.506527 -88.017583 
L 261.555236 -88.017583 
L 259.603946 -88.017583 
L 257.652656 -88.017583 
L 255.701366 -88.017583 
L 253.750076 -88.017583 
L 251.798785 -88.017583 
L 249.847495 -88.017583 
L 247.896205 -88.017583 
L 245.944915 -88.017583 
L 243.993625 -88.017583 
L 242.042335 -88.017583 
L 240.091044 -88.017583 
L 238.139754 -88.017583 
L 236.188464 -88.017583 
L 234.237174 -88.017583 
L 232.285884 -88.017583 
L 230.334593 -88.017583 
L 228.383303 -88.017583 
L 226.432013 -88.017583 
L 224.480723 -88.017583 
L 222.529433 -88.017583 
L 220.578143 -88.017583 
L 218.626852 -88.017583 
L 216.675562 -88.017583 
L 214.724272 -88.017583 
L 212.772982 -88.017583 
L 210.821692 -88.017583 
L 208.870401 -88.017583 
L 206.919111 -88.017583 
L 204.967821 -88.017583 
L 203.016531 -88.017583 
L 201.065241 -88.017583 
L 199.113951 -88.017583 
L 197.16266 -88.017583 
L 195.21137 -88.017583 
L 193.26008 -88.017583 
L 191.30879 -88.017583 
L 189.3575 -88.017583 
L 187.40621 -88.017583 
L 185.454919 -88.017583 
L 183.503629 -88.017583 
L 181.552339 -88.017583 
L 179.601049 -88.017583 
L 177.649759 -88.017583 
L 175.698468 -88.017583 
L 173.747178 -88.017583 
L 171.795888 -88.017583 
L 169.844598 -88.017583 
L 167.893308 -88.017583 
L 165.942018 -88.017583 
L 163.990727 -88.017583 
L 162.039437 -88.017583 
L 160.088147 -88.017583 
L 158.136857 -88.017583 
L 156.185567 -88.017583 
L 154.234276 -88.017583 
L 152.282986 -88.017583 
L 150.331696 -88.017583 
L 148.380406 -88.017583 
L 146.429116 -88.017583 
L 144.477826 -88.017583 
L 142.526535 -88.017583 
L 140.575245 -88.017583 
L 138.623955 -88.017583 
L 136.672665 -88.017583 
L 134.721375 -88.017583 
L 132.770084 -88.017583 
L 130.818794 -88.017583 
L 128.867504 -88.017583 
L 126.916214 -88.017583 
L 124.964924 -88.017583 
L 123.013634 -88.017583 
L 121.062343 -88.017583 
L 119.111053 -88.017583 
L 117.159763 -88.017583 
L 115.208473 -88.017583 
L 113.257183 -88.017583 
L 111.305892 -88.017583 
L 109.354602 -88.017583 
z
" style="stroke: #ffa500; stroke-opacity: 0.4"/>
    </defs>
    <g clip-path="url(#p1f4b9f7c86)">
     <use xlink:href="#mf1e8356de6" x="0" y="432" style="fill: #ffa500; fill-opacity: 0.4; stroke: #ffa500; stroke-opacity: 0.4"/>
    </g>
   </g>
   <g id="line2d_16">
    <path d="M 109.354602 343.982417 
L 111.305892 343.982417 
L 113.257183 318.159873 
L 115.208473 318.159873 
L 117.159763 300.944844 
L 119.111053 300.944844 
L 123.013634 292.337329 
L 130.818794 292.337329 
L 132.770084 85.756975 
L 134.721375 42.719401 
L 136.672665 300.944844 
L 138.623955 288.033571 
L 140.575245 253.603512 
L 144.477826 253.603512 
L 146.429116 227.780968 
L 150.331696 227.780968 
L 152.282986 184.743394 
L 160.088147 184.743394 
L 162.039437 176.13588 
L 165.942018 167.528365 
L 175.698468 167.528365 
L 177.649759 150.313335 
L 181.552339 150.313335 
L 183.503629 137.402063 
L 185.454919 94.364489 
L 187.40621 300.944844 
L 189.3575 257.90727 
L 191.30879 257.90727 
L 193.26008 68.541945 
L 195.21137 68.541945 
L 197.16266 309.552358 
L 199.113951 296.641086 
L 204.967821 296.641086 
L 206.919111 270.818542 
L 212.772982 270.818542 
L 214.724272 253.603512 
L 218.626852 167.528365 
L 220.578143 167.528365 
L 222.529433 158.92085 
L 228.383303 158.92085 
L 230.334593 133.098306 
L 232.285884 133.098306 
L 234.237174 115.883276 
L 236.188464 115.883276 
L 238.139754 124.490791 
L 240.091044 120.187034 
L 245.944915 120.187034 
L 247.896205 292.337329 
L 249.847495 85.756975 
L 251.798785 42.719401 
L 253.750076 300.944844 
L 255.701366 288.033571 
L 257.652656 253.603512 
L 261.555236 253.603512 
L 263.506527 227.780968 
L 267.409107 227.780968 
L 269.360397 184.743394 
L 277.165558 184.743394 
L 279.116848 176.13588 
L 283.019428 167.528365 
L 292.775879 167.528365 
L 294.727169 150.313335 
L 298.62975 150.313335 
L 300.58104 137.402063 
L 302.53233 94.364489 
L 304.48362 300.944844 
L 306.434911 257.90727 
L 308.386201 257.90727 
L 310.337491 68.541945 
L 312.288781 68.541945 
L 314.240071 309.552358 
L 316.191361 296.641086 
L 322.045232 296.641086 
L 323.996522 270.818542 
L 329.850393 270.818542 
L 331.801683 253.603512 
L 335.704263 167.528365 
L 337.655553 167.528365 
L 339.606844 158.92085 
L 347.412004 158.92085 
L 349.363295 133.098306 
L 351.314585 133.098306 
L 353.265875 115.883276 
L 355.217165 128.794548 
L 359.119745 120.187034 
L 363.022326 120.187034 
L 364.973616 292.337329 
L 366.924906 292.337329 
L 368.876196 85.756975 
L 370.827487 42.719401 
L 372.778777 300.944844 
L 374.730067 288.033571 
L 376.681357 253.603512 
L 380.583937 253.603512 
L 382.535228 227.780968 
L 386.437808 227.780968 
L 388.389098 184.743394 
L 396.194259 184.743394 
L 398.145549 176.13588 
L 402.048129 167.528365 
L 411.80458 167.528365 
L 413.75587 150.313335 
L 417.658451 150.313335 
L 419.609741 137.402063 
L 421.561031 94.364489 
L 423.512321 300.944844 
L 425.463612 257.90727 
L 427.414902 257.90727 
L 429.366192 68.541945 
L 431.317482 68.541945 
L 433.268772 309.552358 
L 435.220062 296.641086 
L 441.073933 296.641086 
L 443.025223 270.818542 
L 448.879094 270.818542 
L 450.830384 253.603512 
L 454.732964 167.528365 
L 456.684254 167.528365 
L 458.635545 158.92085 
L 466.440705 158.92085 
L 468.391996 133.098306 
L 470.343286 133.098306 
L 472.294576 115.883276 
L 474.245866 128.794548 
L 478.148446 120.187034 
L 482.051027 120.187034 
L 484.002317 292.337329 
L 485.953607 292.337329 
L 487.904897 85.756975 
L 489.856188 42.719401 
L 491.807478 300.944844 
L 493.758768 288.033571 
L 495.710058 253.603512 
L 499.612638 253.603512 
L 501.563929 227.780968 
L 505.466509 227.780968 
L 507.417799 184.743394 
L 515.22296 184.743394 
L 517.17425 176.13588 
L 521.07683 167.528365 
L 530.833281 167.528365 
L 532.784572 150.313335 
L 536.687152 150.313335 
L 538.638442 137.402063 
L 540.589732 94.364489 
L 542.541022 300.944844 
L 544.492313 257.90727 
L 546.443603 257.90727 
L 548.394893 68.541945 
L 550.346183 68.541945 
L 552.297473 309.552358 
L 554.248763 296.641086 
L 560.102634 296.641086 
L 562.053924 270.818542 
L 567.907795 270.818542 
L 569.859085 253.603512 
L 573.761665 167.528365 
L 575.712955 167.528365 
L 577.664246 158.92085 
L 587.420697 158.92085 
L 589.371987 133.098306 
L 591.323277 133.098306 
L 593.274567 128.794548 
L 595.225857 128.794548 
L 599.128438 120.187034 
L 601.079728 120.187034 
L 603.031018 292.337329 
L 606.933598 292.337329 
L 608.884889 85.756975 
L 610.836179 42.719401 
L 612.787469 300.944844 
L 614.738759 288.033571 
L 616.690049 253.603512 
L 620.59263 253.603512 
L 622.54392 227.780968 
L 626.4465 227.780968 
L 628.39779 184.743394 
L 636.202951 184.743394 
L 638.154241 176.13588 
L 642.056822 167.528365 
L 649.861982 167.528365 
L 651.813273 150.313335 
L 657.667143 150.313335 
L 659.618433 94.364489 
L 661.569723 94.364489 
L 663.521014 257.90727 
L 665.472304 257.90727 
L 667.423594 68.541945 
L 669.374884 68.541945 
L 671.326174 309.552358 
L 673.277465 296.641086 
L 679.131335 296.641086 
L 681.082625 270.818542 
L 686.936496 270.818542 
L 688.887786 253.603512 
L 692.790366 167.528365 
L 694.741657 167.528365 
L 696.692947 158.92085 
L 706.449398 158.92085 
L 708.400688 133.098306 
L 710.351978 133.098306 
L 712.303268 115.883276 
L 714.254558 128.794548 
L 718.157139 120.187034 
L 720.108429 120.187034 
L 722.059719 292.337329 
L 725.962299 292.337329 
L 727.91359 85.756975 
L 729.86488 42.719401 
L 731.81617 300.944844 
L 733.76746 288.033571 
L 735.71875 253.603512 
L 739.621331 253.603512 
L 741.572621 227.780968 
L 745.475201 227.780968 
L 747.426491 184.743394 
L 755.231652 184.743394 
L 757.182942 176.13588 
L 761.085523 167.528365 
L 768.890683 167.528365 
L 770.841974 150.313335 
L 776.695844 150.313335 
L 778.647134 94.364489 
L 780.598424 94.364489 
L 782.549715 257.90727 
L 784.501005 257.90727 
L 786.452295 68.541945 
L 788.403585 68.541945 
L 790.354875 309.552358 
L 792.306166 296.641086 
L 798.160036 296.641086 
L 800.111326 270.818542 
L 805.965197 270.818542 
L 807.916487 253.603512 
L 811.819067 167.528365 
L 813.770358 167.528365 
L 815.721648 158.92085 
L 815.721648 158.92085 
" clip-path="url(#p1f4b9f7c86)" style="fill: none; stroke: #ffa500; stroke-opacity: 0.8; stroke-width: 1.5; stroke-linecap: round"/>
   </g>
   <g id="line2d_17">
    <path d="M 109.354602 85.756975 
L 111.305892 85.756975 
L 113.257183 111.579519 
L 115.208473 111.579519 
L 117.159763 128.794548 
L 119.111053 128.794548 
L 123.013634 137.402063 
L 132.770084 137.402063 
L 134.721375 180.439637 
L 136.672665 180.439637 
L 138.623955 193.350909 
L 140.575245 227.780968 
L 144.477826 227.780968 
L 146.429116 253.603512 
L 150.331696 253.603512 
L 152.282986 296.641086 
L 160.088147 296.641086 
L 162.039437 305.248601 
L 165.942018 313.856116 
L 167.893308 313.856116 
L 169.844598 55.630673 
L 175.698468 55.630673 
L 177.649759 72.845702 
L 183.503629 72.845702 
L 185.454919 115.883276 
L 187.40621 115.883276 
L 189.3575 158.92085 
L 191.30879 158.92085 
L 193.26008 176.13588 
L 195.21137 176.13588 
L 197.16266 193.350909 
L 199.113951 206.262181 
L 204.967821 206.262181 
L 206.919111 232.084726 
L 212.772982 232.084726 
L 214.724272 249.299755 
L 218.626852 335.374903 
L 220.578143 335.374903 
L 222.529433 343.982417 
L 224.480723 343.982417 
L 226.432013 85.756975 
L 228.383303 85.756975 
L 230.334593 111.579519 
L 232.285884 111.579519 
L 234.237174 128.794548 
L 236.188464 128.794548 
L 240.091044 137.402063 
L 249.847495 137.402063 
L 251.798785 180.439637 
L 253.750076 180.439637 
L 255.701366 193.350909 
L 257.652656 227.780968 
L 261.555236 227.780968 
L 263.506527 253.603512 
L 267.409107 253.603512 
L 269.360397 296.641086 
L 277.165558 296.641086 
L 279.116848 305.248601 
L 283.019428 313.856116 
L 284.970719 313.856116 
L 286.922009 55.630673 
L 292.775879 55.630673 
L 294.727169 72.845702 
L 300.58104 72.845702 
L 302.53233 115.883276 
L 304.48362 115.883276 
L 306.434911 158.92085 
L 308.386201 158.92085 
L 310.337491 176.13588 
L 312.288781 176.13588 
L 314.240071 193.350909 
L 316.191361 206.262181 
L 322.045232 206.262181 
L 323.996522 232.084726 
L 329.850393 232.084726 
L 331.801683 249.299755 
L 335.704263 335.374903 
L 337.655553 335.374903 
L 339.606844 343.982417 
L 343.509424 343.982417 
L 345.460714 85.756975 
L 347.412004 85.756975 
L 349.363295 111.579519 
L 351.314585 111.579519 
L 353.265875 128.794548 
L 355.217165 128.794548 
L 359.119745 137.402063 
L 368.876196 137.402063 
L 370.827487 180.439637 
L 372.778777 180.439637 
L 374.730067 193.350909 
L 376.681357 227.780968 
L 380.583937 227.780968 
L 382.535228 253.603512 
L 386.437808 253.603512 
L 388.389098 296.641086 
L 396.194259 296.641086 
L 398.145549 305.248601 
L 402.048129 313.856116 
L 403.99942 313.856116 
L 405.95071 55.630673 
L 411.80458 55.630673 
L 413.75587 72.845702 
L 419.609741 72.845702 
L 421.561031 115.883276 
L 423.512321 115.883276 
L 425.463612 158.92085 
L 427.414902 158.92085 
L 429.366192 176.13588 
L 431.317482 176.13588 
L 433.268772 193.350909 
L 435.220062 206.262181 
L 441.073933 206.262181 
L 443.025223 232.084726 
L 448.879094 232.084726 
L 450.830384 249.299755 
L 454.732964 335.374903 
L 456.684254 335.374903 
L 458.635545 343.982417 
L 462.538125 343.982417 
L 464.489415 85.756975 
L 466.440705 85.756975 
L 468.391996 111.579519 
L 470.343286 111.579519 
L 472.294576 128.794548 
L 474.245866 128.794548 
L 478.148446 137.402063 
L 487.904897 137.402063 
L 489.856188 180.439637 
L 491.807478 180.439637 
L 493.758768 193.350909 
L 495.710058 227.780968 
L 499.612638 227.780968 
L 501.563929 253.603512 
L 505.466509 253.603512 
L 507.417799 296.641086 
L 515.22296 296.641086 
L 517.17425 305.248601 
L 521.07683 313.856116 
L 523.028121 313.856116 
L 524.979411 55.630673 
L 530.833281 55.630673 
L 532.784572 72.845702 
L 538.638442 72.845702 
L 540.589732 115.883276 
L 542.541022 115.883276 
L 544.492313 158.92085 
L 546.443603 158.92085 
L 548.394893 176.13588 
L 550.346183 176.13588 
L 552.297473 193.350909 
L 554.248763 206.262181 
L 560.102634 206.262181 
L 562.053924 232.084726 
L 567.907795 232.084726 
L 569.859085 249.299755 
L 573.761665 335.374903 
L 575.712955 335.374903 
L 577.664246 343.982417 
L 583.518116 343.982417 
L 585.469406 85.756975 
L 587.420697 85.756975 
L 589.371987 111.579519 
L 591.323277 111.579519 
L 593.274567 128.794548 
L 595.225857 128.794548 
L 599.128438 137.402063 
L 608.884889 137.402063 
L 610.836179 180.439637 
L 612.787469 180.439637 
L 614.738759 193.350909 
L 616.690049 227.780968 
L 620.59263 227.780968 
L 622.54392 253.603512 
L 626.4465 253.603512 
L 628.39779 296.641086 
L 636.202951 296.641086 
L 638.154241 305.248601 
L 642.056822 313.856116 
L 644.008112 55.630673 
L 649.861982 55.630673 
L 651.813273 72.845702 
L 657.667143 72.845702 
L 659.618433 115.883276 
L 661.569723 115.883276 
L 663.521014 158.92085 
L 665.472304 158.92085 
L 667.423594 176.13588 
L 669.374884 176.13588 
L 671.326174 193.350909 
L 673.277465 206.262181 
L 679.131335 206.262181 
L 681.082625 232.084726 
L 686.936496 232.084726 
L 688.887786 249.299755 
L 692.790366 335.374903 
L 694.741657 335.374903 
L 696.692947 343.982417 
L 702.546817 343.982417 
L 704.498107 85.756975 
L 706.449398 85.756975 
L 708.400688 111.579519 
L 710.351978 111.579519 
L 712.303268 128.794548 
L 714.254558 128.794548 
L 718.157139 137.402063 
L 727.91359 137.402063 
L 729.86488 180.439637 
L 731.81617 180.439637 
L 733.76746 193.350909 
L 735.71875 227.780968 
L 739.621331 227.780968 
L 741.572621 253.603512 
L 745.475201 253.603512 
L 747.426491 296.641086 
L 755.231652 296.641086 
L 757.182942 305.248601 
L 761.085523 313.856116 
L 763.036813 55.630673 
L 768.890683 55.630673 
L 770.841974 72.845702 
L 776.695844 72.845702 
L 778.647134 115.883276 
L 780.598424 115.883276 
L 782.549715 158.92085 
L 784.501005 158.92085 
L 786.452295 176.13588 
L 788.403585 176.13588 
L 790.354875 193.350909 
L 792.306166 206.262181 
L 798.160036 206.262181 
L 800.111326 232.084726 
L 805.965197 232.084726 
L 807.916487 249.299755 
L 811.819067 335.374903 
L 813.770358 335.374903 
L 815.721648 343.982417 
L 815.721648 343.982417 
" clip-path="url(#p1f4b9f7c86)" style="fill: none; stroke: #008000; stroke-opacity: 0.8; stroke-width: 1.5; stroke-linecap: round"/>
   </g>
   <g id="patch_3">
    <path d="M 74.03625 359.045568 
L 74.03625 27.65625 
" style="fill: none; stroke: #cccccc; stroke-width: 1.25; stroke-linejoin: miter; stroke-linecap: square"/>
   </g>
   <g id="patch_4">
    <path d="M 851.04 359.045568 
L 851.04 27.65625 
" style="fill: none; stroke: #cccccc; stroke-width: 1.25; stroke-linejoin: miter; stroke-linecap: square"/>
   </g>
   <g id="patch_5">
    <path d="M 74.03625 359.045568 
L 851.04 359.045568 
" style="fill: none; stroke: #cccccc; stroke-width: 1.25; stroke-linejoin: miter; stroke-linecap: square"/>
   </g>
   <g id="patch_6">
    <path d="M 74.03625 27.65625 
L 851.04 27.65625 
" style="fill: none; stroke: #cccccc; stroke-width: 1.25; stroke-linejoin: miter; stroke-linecap: square"/>
   </g>
   <g id="text_18">
    <!-- Area: 61252500.00 sat-days -->
    <g style="fill: #ff8c00" transform="translate(144.477826 57.782552) scale(0.1 -0.1)">
     <defs>
      <path id="ArialMT-41" d="M -9 0 
L 1750 4581 
L 2403 4581 
L 4278 0 
L 3588 0 
L 3053 1388 
L 1138 1388 
L 634 0 
L -9 0 
z
M 1313 1881 
L 2866 1881 
L 2388 3150 
Q 2169 3728 2063 4100 
Q 1975 3659 1816 3225 
L 1313 1881 
z
" transform="scale(0.015625)"/>
      <path id="ArialMT-72" d="M 416 0 
L 416 3319 
L 922 3319 
L 922 2816 
Q 1116 3169 1280 3281 
Q 1444 3394 1641 3394 
Q 1925 3394 2219 3213 
L 2025 2691 
Q 1819 2813 1613 2813 
Q 1428 2813 1281 2702 
Q 1134 2591 1072 2394 
Q 978 2094 978 1738 
L 978 0 
L 416 0 
z
" transform="scale(0.015625)"/>
      <path id="ArialMT-3a" d="M 578 2678 
L 578 3319 
L 1219 3319 
L 1219 2678 
L 578 2678 
z
M 578 0 
L 578 641 
L 1219 641 
L 1219 0 
L 578 0 
z
" transform="scale(0.015625)"/>
      <path id="ArialMT-36" d="M 3184 3459 
L 2625 3416 
Q 2550 3747 2413 3897 
Q 2184 4138 1850 4138 
Q 1581 4138 1378 3988 
Q 1113 3794 959 3422 
Q 806 3050 800 2363 
Q 1003 2672 1297 2822 
Q 1591 2972 1913 2972 
Q 2475 2972 2870 2558 
Q 3266 2144 3266 1488 
Q 3266 1056 3080 686 
Q 2894 316 2569 119 
Q 2244 -78 1831 -78 
Q 1128 -78 684 439 
Q 241 956 241 2144 
Q 241 3472 731 4075 
Q 1159 4600 1884 4600 
Q 2425 4600 2770 4297 
Q 3116 3994 3184 3459 
z
M 888 1484 
Q 888 1194 1011 928 
Q 1134 663 1356 523 
Q 1578 384 1822 384 
Q 2178 384 2434 671 
Q 2691 959 2691 1453 
Q 2691 1928 2437 2201 
Q 2184 2475 1800 2475 
Q 1419 2475 1153 2201 
Q 888 1928 888 1484 
z
" transform="scale(0.015625)"/>
      <path id="ArialMT-2e" d="M 581 0 
L 581 641 
L 1222 641 
L 1222 0 
L 581 0 
z
" transform="scale(0.015625)"/>
     </defs>
     <use xlink:href="#ArialMT-41"/>
     <use xlink:href="#ArialMT-72" x="66.699219"/>
     <use xlink:href="#ArialMT-65" x="100"/>
     <use xlink:href="#ArialMT-61" x="155.615234"/>
     <use xlink:href="#ArialMT-3a" x="211.230469"/>
     <use xlink:href="#ArialMT-20" x="239.013672"/>
     <use xlink:href="#ArialMT-36" x="266.796875"/>
     <use xlink:href="#ArialMT-31" x="322.412109"/>
     <use xlink:href="#ArialMT-32" x="378.027344"/>
     <use xlink:href="#ArialMT-35" x="433.642578"/>
     <use xlink:href="#ArialMT-32" x="489.257812"/>
     <use xlink:href="#ArialMT-35" x="544.873047"/>
     <use xlink:href="#ArialMT-30" x="600.488281"/>
     <use xlink:href="#ArialMT-30" x="656.103516"/>
     <use xlink:href="#ArialMT-2e" x="711.71875"/>
     <use xlink:href="#ArialMT-30" x="739.501953"/>
     <use xlink:href="#ArialMT-30" x="795.117188"/>
     <use xlink:href="#ArialMT-20" x="850.732422"/>
     <use xlink:href="#ArialMT-73" x="878.515625"/>
     <use xlink:href="#ArialMT-61" x="928.515625"/>
     <use xlink:href="#ArialMT-74" x="984.130859"/>
     <use xlink:href="#ArialMT-2d" x="1011.914062"/>
     <use xlink:href="#ArialMT-64" x="1045.214844"/>
     <use xlink:href="#ArialMT-61" x="1100.830078"/>
     <use xlink:href="#ArialMT-79" x="1156.445312"/>
     <use xlink:href="#ArialMT-73" x="1206.445312"/>
    </g>
   </g>
   <g id="text_19">
    <!-- Ark Server Liquidity Requirements -->
    <g style="fill: #262626" transform="translate(371.505937 21.65625) scale(0.12 -0.12)">
     <defs>
      <path id="ArialMT-6b" d="M 425 0 
L 425 4581 
L 988 4581 
L 988 1969 
L 2319 3319 
L 3047 3319 
L 1778 2088 
L 3175 0 
L 2481 0 
L 1384 1697 
L 988 1316 
L 988 0 
L 425 0 
z
" transform="scale(0.015625)"/>
      <path id="ArialMT-53" d="M 288 1472 
L 859 1522 
Q 900 1178 1048 958 
Q 1197 738 1509 602 
Q 1822 466 2213 466 
Q 2559 466 2825 569 
Q 3091 672 3220 851 
Q 3350 1031 3350 1244 
Q 3350 1459 3225 1620 
Q 3100 1781 2813 1891 
Q 2628 1963 1997 2114 
Q 1366 2266 1113 2400 
Q 784 2572 623 2826 
Q 463 3081 463 3397 
Q 463 3744 659 4045 
Q 856 4347 1234 4503 
Q 1613 4659 2075 4659 
Q 2584 4659 2973 4495 
Q 3363 4331 3572 4012 
Q 3781 3694 3797 3291 
L 3216 3247 
Q 3169 3681 2898 3903 
Q 2628 4125 2100 4125 
Q 1550 4125 1298 3923 
Q 1047 3722 1047 3438 
Q 1047 3191 1225 3031 
Q 1400 2872 2139 2705 
Q 2878 2538 3153 2413 
Q 3553 2228 3743 1945 
Q 3934 1663 3934 1294 
Q 3934 928 3725 604 
Q 3516 281 3123 101 
Q 2731 -78 2241 -78 
Q 1619 -78 1198 103 
Q 778 284 539 648 
Q 300 1013 288 1472 
z
" transform="scale(0.015625)"/>
      <path id="ArialMT-76" d="M 1344 0 
L 81 3319 
L 675 3319 
L 1388 1331 
Q 1503 1009 1600 663 
Q 1675 925 1809 1294 
L 2547 3319 
L 3125 3319 
L 1869 0 
L 1344 0 
z
" transform="scale(0.015625)"/>
      <path id="ArialMT-52" d="M 503 0 
L 503 4581 
L 2534 4581 
Q 3147 4581 3465 4457 
Q 3784 4334 3975 4021 
Q 4166 3709 4166 3331 
Q 4166 2844 3850 2509 
Q 3534 2175 2875 2084 
Q 3116 1969 3241 1856 
Q 3506 1613 3744 1247 
L 4541 0 
L 3778 0 
L 3172 953 
Q 2906 1366 2734 1584 
Q 2563 1803 2427 1890 
Q 2291 1978 2150 2013 
Q 2047 2034 1813 2034 
L 1109 2034 
L 1109 0 
L 503 0 
z
M 1109 2559 
L 2413 2559 
Q 2828 2559 3062 2645 
Q 3297 2731 3419 2920 
Q 3541 3109 3541 3331 
Q 3541 3656 3305 3865 
Q 3069 4075 2559 4075 
L 1109 4075 
L 1109 2559 
z
" transform="scale(0.015625)"/>
      <path id="ArialMT-6e" d="M 422 0 
L 422 3319 
L 928 3319 
L 928 2847 
Q 1294 3394 1984 3394 
Q 2284 3394 2536 3286 
Q 2788 3178 2913 3003 
Q 3038 2828 3088 2588 
Q 3119 2431 3119 2041 
L 3119 0 
L 2556 0 
L 2556 2019 
Q 2556 2363 2490 2533 
Q 2425 2703 2258 2804 
Q 2091 2906 1866 2906 
Q 1506 2906 1245 2678 
Q 984 2450 984 1813 
L 984 0 
L 422 0 
z
" transform="scale(0.015625)"/>
     </defs>
     <use xlink:href="#ArialMT-41"/>
     <use xlink:href="#ArialMT-72" x="66.699219"/>
     <use xlink:href="#ArialMT-6b" x="100"/>
     <use xlink:href="#ArialMT-20" x="150"/>
     <use xlink:href="#ArialMT-53" x="177.783203"/>
     <use xlink:href="#ArialMT-65" x="244.482422"/>
     <use xlink:href="#ArialMT-72" x="300.097656"/>
     <use xlink:href="#ArialMT-76" x="333.398438"/>
     <use xlink:href="#ArialMT-65" x="383.398438"/>
     <use xlink:href="#ArialMT-72" x="439.013672"/>
     <use xlink:href="#ArialMT-20" x="472.314453"/>
     <use xlink:href="#ArialMT-4c" x="500.097656"/>
     <use xlink:href="#ArialMT-69" x="555.712891"/>
     <use xlink:href="#ArialMT-71" x="577.929688"/>
     <use xlink:href="#ArialMT-75" x="633.544922"/>
     <use xlink:href="#ArialMT-69" x="689.160156"/>
     <use xlink:href="#ArialMT-64" x="711.376953"/>
     <use xlink:href="#ArialMT-69" x="766.992188"/>
     <use xlink:href="#ArialMT-74" x="789.208984"/>
     <use xlink:href="#ArialMT-79" x="816.992188"/>
     <use xlink:href="#ArialMT-20" x="866.992188"/>
     <use xlink:href="#ArialMT-52" x="894.775391"/>
     <use xlink:href="#ArialMT-65" x="966.992188"/>
     <use xlink:href="#ArialMT-71" x="1022.607422"/>
     <use xlink:href="#ArialMT-75" x="1078.222656"/>
     <use xlink:href="#ArialMT-69" x="1133.837891"/>
     <use xlink:href="#ArialMT-72" x="1156.054688"/>
     <use xlink:href="#ArialMT-65" x="1189.355469"/>
     <use xlink:href="#ArialMT-6d" x="1244.970703"/>
     <use xlink:href="#ArialMT-65" x="1328.271484"/>
     <use xlink:href="#ArialMT-6e" x="1383.886719"/>
     <use xlink:href="#ArialMT-74" x="1439.501953"/>
     <use xlink:href="#ArialMT-73" x="1467.285156"/>
    </g>
   </g>
   <g id="legend_1">
    <g id="patch_7">
     <path d="M 690.782031 83.527656 
L 843.34 83.527656 
Q 845.54 83.527656 845.54 81.327656 
L 845.54 35.35625 
Q 845.54 33.15625 843.34 33.15625 
L 690.782031 33.15625 
Q 688.582031 33.15625 688.582031 35.35625 
L 688.582031 81.327656 
Q 688.582031 83.527656 690.782031 83.527656 
z
" style="fill: #ffffff; opacity: 0.8; stroke: #cccccc; stroke-linejoin: miter"/>
    </g>
    <g id="patch_8">
     <path d="M 692.982031 45.429844 
L 714.982031 45.429844 
L 714.982031 37.729844 
L 692.982031 37.729844 
z
" style="fill: #ffa500; fill-opacity: 0.4; stroke: #ffa500; stroke-opacity: 0.4; stroke-linejoin: miter"/>
    </g>
    <g id="text_20">
     <!-- Ark server liquidity -->
     <g style="fill: #262626" transform="translate(723.782031 45.429844) scale(0.11 -0.11)">
      <use xlink:href="#ArialMT-41"/>
      <use xlink:href="#ArialMT-72" x="66.699219"/>
      <use xlink:href="#ArialMT-6b" x="100"/>
      <use xlink:href="#ArialMT-20" x="150"/>
      <use xlink:href="#ArialMT-73" x="177.783203"/>
      <use xlink:href="#ArialMT-65" x="227.783203"/>
      <use xlink:href="#ArialMT-72" x="283.398438"/>
      <use xlink:href="#ArialMT-76" x="316.699219"/>
      <use xlink:href="#ArialMT-65" x="366.699219"/>
      <use xlink:href="#ArialMT-72" x="422.314453"/>
      <use xlink:href="#ArialMT-20" x="455.615234"/>
      <use xlink:href="#ArialMT-6c" x="483.398438"/>
      <use xlink:href="#ArialMT-69" x="505.615234"/>
      <use xlink:href="#ArialMT-71" x="527.832031"/>
      <use xlink:href="#ArialMT-75" x="583.447266"/>
      <use xlink:href="#ArialMT-69" x="639.0625"/>
      <use xlink:href="#ArialMT-64" x="661.279297"/>
      <use xlink:href="#ArialMT-69" x="716.894531"/>
      <use xlink:href="#ArialMT-74" x="739.111328"/>
      <use xlink:href="#ArialMT-79" x="766.894531"/>
     </g>
    </g>
    <g id="line2d_18">
     <path d="M 692.982031 57.402656 
L 703.982031 57.402656 
L 714.982031 57.402656 
" style="fill: none; stroke: #ffa500; stroke-opacity: 0.8; stroke-width: 1.5; stroke-linecap: round"/>
    </g>
    <g id="text_21">
     <!-- Ark server liquidity (line) -->
     <g style="fill: #262626" transform="translate(723.782031 61.252656) scale(0.11 -0.11)">
      <use xlink:href="#ArialMT-41"/>
      <use xlink:href="#ArialMT-72" x="66.699219"/>
      <use xlink:href="#ArialMT-6b" x="100"/>
      <use xlink:href="#ArialMT-20" x="150"/>
      <use xlink:href="#ArialMT-73" x="177.783203"/>
      <use xlink:href="#ArialMT-65" x="227.783203"/>
      <use xlink:href="#ArialMT-72" x="283.398438"/>
      <use xlink:href="#ArialMT-76" x="316.699219"/>
      <use xlink:href="#ArialMT-65" x="366.699219"/>
      <use xlink:href="#ArialMT-72" x="422.314453"/>
      <use xlink:href="#ArialMT-20" x="455.615234"/>
      <use xlink:href="#ArialMT-6c" x="483.398438"/>
      <use xlink:href="#ArialMT-69" x="505.615234"/>
      <use xlink:href="#ArialMT-71" x="527.832031"/>
      <use xlink:href="#ArialMT-75" x="583.447266"/>
      <use xlink:href="#ArialMT-69" x="639.0625"/>
      <use xlink:href="#ArialMT-64" x="661.279297"/>
      <use xlink:href="#ArialMT-69" x="716.894531"/>
      <use xlink:href="#ArialMT-74" x="739.111328"/>
      <use xlink:href="#ArialMT-79" x="766.894531"/>
      <use xlink:href="#ArialMT-20" x="816.894531"/>
      <use xlink:href="#ArialMT-28" x="844.677734"/>
      <use xlink:href="#ArialMT-6c" x="877.978516"/>
      <use xlink:href="#ArialMT-69" x="900.195312"/>
      <use xlink:href="#ArialMT-6e" x="922.412109"/>
      <use xlink:href="#ArialMT-65" x="978.027344"/>
      <use xlink:href="#ArialMT-29" x="1033.642578"/>
     </g>
    </g>
    <g id="line2d_19">
     <path d="M 692.982031 73.091406 
L 703.982031 73.091406 
L 714.982031 73.091406 
" style="fill: none; stroke: #008000; stroke-opacity: 0.8; stroke-width: 1.5; stroke-linecap: round"/>
    </g>
    <g id="text_22">
     <!-- User account balance -->
     <g style="fill: #262626" transform="translate(723.782031 76.941406) scale(0.11 -0.11)">
      <defs>
       <path id="ArialMT-55" d="M 3500 4581 
L 4106 4581 
L 4106 1934 
Q 4106 1244 3950 837 
Q 3794 431 3386 176 
Q 2978 -78 2316 -78 
Q 1672 -78 1262 144 
Q 853 366 678 786 
Q 503 1206 503 1934 
L 503 4581 
L 1109 4581 
L 1109 1938 
Q 1109 1341 1220 1058 
Q 1331 775 1601 622 
Q 1872 469 2263 469 
Q 2931 469 3215 772 
Q 3500 1075 3500 1938 
L 3500 4581 
z
" transform="scale(0.015625)"/>
       <path id="ArialMT-63" d="M 2588 1216 
L 3141 1144 
Q 3050 572 2676 248 
Q 2303 -75 1759 -75 
Q 1078 -75 664 370 
Q 250 816 250 1647 
Q 250 2184 428 2587 
Q 606 2991 970 3192 
Q 1334 3394 1763 3394 
Q 2303 3394 2647 3120 
Q 2991 2847 3088 2344 
L 2541 2259 
Q 2463 2594 2264 2762 
Q 2066 2931 1784 2931 
Q 1359 2931 1093 2626 
Q 828 2322 828 1663 
Q 828 994 1084 691 
Q 1341 388 1753 388 
Q 2084 388 2306 591 
Q 2528 794 2588 1216 
z
" transform="scale(0.015625)"/>
       <path id="ArialMT-62" d="M 941 0 
L 419 0 
L 419 4581 
L 981 4581 
L 981 2947 
Q 1338 3394 1891 3394 
Q 2197 3394 2470 3270 
Q 2744 3147 2920 2923 
Q 3097 2700 3197 2384 
Q 3297 2069 3297 1709 
Q 3297 856 2875 390 
Q 2453 -75 1863 -75 
Q 1275 -75 941 416 
L 941 0 
z
M 934 1684 
Q 934 1088 1097 822 
Q 1363 388 1816 388 
Q 2184 388 2453 708 
Q 2722 1028 2722 1663 
Q 2722 2313 2464 2622 
Q 2206 2931 1841 2931 
Q 1472 2931 1203 2611 
Q 934 2291 934 1684 
z
" transform="scale(0.015625)"/>
      </defs>
      <use xlink:href="#ArialMT-55"/>
      <use xlink:href="#ArialMT-73" x="72.216797"/>
      <use xlink:href="#ArialMT-65" x="122.216797"/>
      <use xlink:href="#ArialMT-72" x="177.832031"/>
      <use xlink:href="#ArialMT-20" x="211.132812"/>
      <use xlink:href="#ArialMT-61" x="238.916016"/>
      <use xlink:href="#ArialMT-63" x="294.53125"/>
      <use xlink:href="#ArialMT-63" x="344.53125"/>
      <use xlink:href="#ArialMT-6f" x="394.53125"/>
      <use xlink:href="#ArialMT-75" x="450.146484"/>
      <use xlink:href="#ArialMT-6e" x="505.761719"/>
      <use xlink:href="#ArialMT-74" x="561.376953"/>
      <use xlink:href="#ArialMT-20" x="589.160156"/>
      <use xlink:href="#ArialMT-62" x="616.943359"/>
      <use xlink:href="#ArialMT-61" x="672.558594"/>
      <use xlink:href="#ArialMT-6c" x="728.173828"/>
      <use xlink:href="#ArialMT-61" x="750.390625"/>
      <use xlink:href="#ArialMT-6e" x="806.005859"/>
      <use xlink:href="#ArialMT-63" x="861.621094"/>
      <use xlink:href="#ArialMT-65" x="911.621094"/>
     </g>
    </g>
   </g>
  </g>
 </g>
 <defs>
  <clipPath id="p1f4b9f7c86">
   <rect x="74.03625" y="27.65625" width="777.00375" height="331.389318"/>
  </clipPath>
 </defs>
</svg>
