<?xml version="1.0" encoding="utf-8" standalone="no"?>
<!DOCTYPE svg PUBLIC "-//W3C//DTD SVG 1.1//EN"
  "http://www.w3.org/Graphics/SVG/1.1/DTD/svg11.dtd">
<svg xmlns:xlink="http://www.w3.org/1999/xlink" width="864pt" height="432pt" viewBox="0 0 864 432" xmlns="http://www.w3.org/2000/svg" version="1.1">
 <metadata>
  <rdf:RDF xmlns:dc="http://purl.org/dc/elements/1.1/" xmlns:cc="http://creativecommons.org/ns#" xmlns:rdf="http://www.w3.org/1999/02/22-rdf-syntax-ns#">
   <cc:Work>
    <dc:type rdf:resource="http://purl.org/dc/dcmitype/StillImage"/>
    <dc:date>2025-04-26T00:59:48.059057</dc:date>
    <dc:format>image/svg+xml</dc:format>
    <dc:creator>
     <cc:Agent>
      <dc:title>Matplotlib v3.9.3, https://matplotlib.org/</dc:title>
     </cc:Agent>
    </dc:creator>
   </cc:Work>
  </rdf:RDF>
 </metadata>
 <defs>
  <style type="text/css">*{stroke-linejoin: round; stroke-linecap: butt}</style>
 </defs>
 <g id="figure_1">
  <g id="patch_1">
   <path d="M 0 432 
L 864 432 
L 864 0 
L 0 0 
z
" style="fill: #ffffff"/>
  </g>
  <g id="axes_1">
   <g id="patch_2">
    <path d="M 74.03625 359.045568 
L 851.04 359.045568 
L 851.04 27.65625 
L 74.03625 27.65625 
z
" style="fill: #ffffff"/>
   </g>
   <g id="matplotlib.axis_1">
    <g id="xtick_1">
     <g id="line2d_1">
      <path d="M 109.354602 359.045568 
L 109.354602 27.65625 
" clip-path="url(#p9128fad593)" style="fill: none; stroke: #cccccc; stroke-opacity: 0.5; stroke-linecap: round"/>
     </g>
     <g id="text_1">
      <!-- 2024-01 -->
      <g style="fill: #262626" transform="translate(97.094255 402.655294) rotate(-45) scale(0.11 -0.11)">
       <defs>
        <path id="ArialMT-32" d="M 3222 541 
L 3222 0 
L 194 0 
Q 188 203 259 391 
Q 375 700 629 1000 
Q 884 1300 1366 1694 
Q 2113 2306 2375 2664 
Q 2638 3022 2638 3341 
Q 2638 3675 2398 3904 
Q 2159 4134 1775 4134 
Q 1369 4134 1125 3890 
Q 881 3647 878 3216 
L 300 3275 
Q 359 3922 746 4261 
Q 1134 4600 1788 4600 
Q 2447 4600 2831 4234 
Q 3216 3869 3216 3328 
Q 3216 3053 3103 2787 
Q 2991 2522 2730 2228 
Q 2469 1934 1863 1422 
Q 1356 997 1212 845 
Q 1069 694 975 541 
L 3222 541 
z
" transform="scale(0.015625)"/>
        <path id="ArialMT-30" d="M 266 2259 
Q 266 3072 433 3567 
Q 600 4063 929 4331 
Q 1259 4600 1759 4600 
Q 2128 4600 2406 4451 
Q 2684 4303 2865 4023 
Q 3047 3744 3150 3342 
Q 3253 2941 3253 2259 
Q 3253 1453 3087 958 
Q 2922 463 2592 192 
Q 2263 -78 1759 -78 
Q 1097 -78 719 397 
Q 266 969 266 2259 
z
M 844 2259 
Q 844 1131 1108 757 
Q 1372 384 1759 384 
Q 2147 384 2411 759 
Q 2675 1134 2675 2259 
Q 2675 3391 2411 3762 
Q 2147 4134 1753 4134 
Q 1366 4134 1134 3806 
Q 844 3388 844 2259 
z
" transform="scale(0.015625)"/>
        <path id="ArialMT-34" d="M 2069 0 
L 2069 1097 
L 81 1097 
L 81 1613 
L 2172 4581 
L 2631 4581 
L 2631 1613 
L 3250 1613 
L 3250 1097 
L 2631 1097 
L 2631 0 
L 2069 0 
z
M 2069 1613 
L 2069 3678 
L 634 1613 
L 2069 1613 
z
" transform="scale(0.015625)"/>
        <path id="ArialMT-2d" d="M 203 1375 
L 203 1941 
L 1931 1941 
L 1931 1375 
L 203 1375 
z
" transform="scale(0.015625)"/>
        <path id="ArialMT-31" d="M 2384 0 
L 1822 0 
L 1822 3584 
Q 1619 3391 1289 3197 
Q 959 3003 697 2906 
L 697 3450 
Q 1169 3672 1522 3987 
Q 1875 4303 2022 4600 
L 2384 4600 
L 2384 0 
z
" transform="scale(0.015625)"/>
       </defs>
       <use xlink:href="#ArialMT-32"/>
       <use xlink:href="#ArialMT-30" x="55.615234"/>
       <use xlink:href="#ArialMT-32" x="111.230469"/>
       <use xlink:href="#ArialMT-34" x="166.845703"/>
       <use xlink:href="#ArialMT-2d" x="222.460938"/>
       <use xlink:href="#ArialMT-30" x="255.761719"/>
       <use xlink:href="#ArialMT-31" x="311.376953"/>
      </g>
     </g>
    </g>
    <g id="xtick_2">
     <g id="line2d_2">
      <path d="M 226.432013 359.045568 
L 226.432013 27.65625 
" clip-path="url(#p9128fad593)" style="fill: none; stroke: #cccccc; stroke-opacity: 0.5; stroke-linecap: round"/>
     </g>
     <g id="text_2">
      <!-- 2024-03 -->
      <g style="fill: #262626" transform="translate(214.171665 402.655294) rotate(-45) scale(0.11 -0.11)">
       <defs>
        <path id="ArialMT-33" d="M 269 1209 
L 831 1284 
Q 928 806 1161 595 
Q 1394 384 1728 384 
Q 2125 384 2398 659 
Q 2672 934 2672 1341 
Q 2672 1728 2419 1979 
Q 2166 2231 1775 2231 
Q 1616 2231 1378 2169 
L 1441 2663 
Q 1497 2656 1531 2656 
Q 1891 2656 2178 2843 
Q 2466 3031 2466 3422 
Q 2466 3731 2256 3934 
Q 2047 4138 1716 4138 
Q 1388 4138 1169 3931 
Q 950 3725 888 3313 
L 325 3413 
Q 428 3978 793 4289 
Q 1159 4600 1703 4600 
Q 2078 4600 2393 4439 
Q 2709 4278 2876 4000 
Q 3044 3722 3044 3409 
Q 3044 3113 2884 2869 
Q 2725 2625 2413 2481 
Q 2819 2388 3044 2092 
Q 3269 1797 3269 1353 
Q 3269 753 2831 336 
Q 2394 -81 1725 -81 
Q 1122 -81 723 278 
Q 325 638 269 1209 
z
" transform="scale(0.015625)"/>
       </defs>
       <use xlink:href="#ArialMT-32"/>
       <use xlink:href="#ArialMT-30" x="55.615234"/>
       <use xlink:href="#ArialMT-32" x="111.230469"/>
       <use xlink:href="#ArialMT-34" x="166.845703"/>
       <use xlink:href="#ArialMT-2d" x="222.460938"/>
       <use xlink:href="#ArialMT-30" x="255.761719"/>
       <use xlink:href="#ArialMT-33" x="311.376953"/>
      </g>
     </g>
    </g>
    <g id="xtick_3">
     <g id="line2d_3">
      <path d="M 345.460714 359.045568 
L 345.460714 27.65625 
" clip-path="url(#p9128fad593)" style="fill: none; stroke: #cccccc; stroke-opacity: 0.5; stroke-linecap: round"/>
     </g>
     <g id="text_3">
      <!-- 2024-05 -->
      <g style="fill: #262626" transform="translate(333.200366 402.655294) rotate(-45) scale(0.11 -0.11)">
       <defs>
        <path id="ArialMT-35" d="M 266 1200 
L 856 1250 
Q 922 819 1161 601 
Q 1400 384 1738 384 
Q 2144 384 2425 690 
Q 2706 997 2706 1503 
Q 2706 1984 2436 2262 
Q 2166 2541 1728 2541 
Q 1456 2541 1237 2417 
Q 1019 2294 894 2097 
L 366 2166 
L 809 4519 
L 3088 4519 
L 3088 3981 
L 1259 3981 
L 1013 2750 
Q 1425 3038 1878 3038 
Q 2478 3038 2890 2622 
Q 3303 2206 3303 1553 
Q 3303 931 2941 478 
Q 2500 -78 1738 -78 
Q 1113 -78 717 272 
Q 322 622 266 1200 
z
" transform="scale(0.015625)"/>
       </defs>
       <use xlink:href="#ArialMT-32"/>
       <use xlink:href="#ArialMT-30" x="55.615234"/>
       <use xlink:href="#ArialMT-32" x="111.230469"/>
       <use xlink:href="#ArialMT-34" x="166.845703"/>
       <use xlink:href="#ArialMT-2d" x="222.460938"/>
       <use xlink:href="#ArialMT-30" x="255.761719"/>
       <use xlink:href="#ArialMT-35" x="311.376953"/>
      </g>
     </g>
    </g>
    <g id="xtick_4">
     <g id="line2d_4">
      <path d="M 464.489415 359.045568 
L 464.489415 27.65625 
" clip-path="url(#p9128fad593)" style="fill: none; stroke: #cccccc; stroke-opacity: 0.5; stroke-linecap: round"/>
     </g>
     <g id="text_4">
      <!-- 2024-07 -->
      <g style="fill: #262626" transform="translate(452.229067 402.655294) rotate(-45) scale(0.11 -0.11)">
       <defs>
        <path id="ArialMT-37" d="M 303 3981 
L 303 4522 
L 3269 4522 
L 3269 4084 
Q 2831 3619 2401 2847 
Q 1972 2075 1738 1259 
Q 1569 684 1522 0 
L 944 0 
Q 953 541 1156 1306 
Q 1359 2072 1739 2783 
Q 2119 3494 2547 3981 
L 303 3981 
z
" transform="scale(0.015625)"/>
       </defs>
       <use xlink:href="#ArialMT-32"/>
       <use xlink:href="#ArialMT-30" x="55.615234"/>
       <use xlink:href="#ArialMT-32" x="111.230469"/>
       <use xlink:href="#ArialMT-34" x="166.845703"/>
       <use xlink:href="#ArialMT-2d" x="222.460938"/>
       <use xlink:href="#ArialMT-30" x="255.761719"/>
       <use xlink:href="#ArialMT-37" x="311.376953"/>
      </g>
     </g>
    </g>
    <g id="xtick_5">
     <g id="line2d_5">
      <path d="M 585.469406 359.045568 
L 585.469406 27.65625 
" clip-path="url(#p9128fad593)" style="fill: none; stroke: #cccccc; stroke-opacity: 0.5; stroke-linecap: round"/>
     </g>
     <g id="text_5">
      <!-- 2024-09 -->
      <g style="fill: #262626" transform="translate(573.209059 402.655294) rotate(-45) scale(0.11 -0.11)">
       <defs>
        <path id="ArialMT-39" d="M 350 1059 
L 891 1109 
Q 959 728 1153 556 
Q 1347 384 1650 384 
Q 1909 384 2104 503 
Q 2300 622 2425 820 
Q 2550 1019 2634 1356 
Q 2719 1694 2719 2044 
Q 2719 2081 2716 2156 
Q 2547 1888 2255 1720 
Q 1963 1553 1622 1553 
Q 1053 1553 659 1965 
Q 266 2378 266 3053 
Q 266 3750 677 4175 
Q 1088 4600 1706 4600 
Q 2153 4600 2523 4359 
Q 2894 4119 3086 3673 
Q 3278 3228 3278 2384 
Q 3278 1506 3087 986 
Q 2897 466 2520 194 
Q 2144 -78 1638 -78 
Q 1100 -78 759 220 
Q 419 519 350 1059 
z
M 2653 3081 
Q 2653 3566 2395 3850 
Q 2138 4134 1775 4134 
Q 1400 4134 1122 3828 
Q 844 3522 844 3034 
Q 844 2597 1108 2323 
Q 1372 2050 1759 2050 
Q 2150 2050 2401 2323 
Q 2653 2597 2653 3081 
z
" transform="scale(0.015625)"/>
       </defs>
       <use xlink:href="#ArialMT-32"/>
       <use xlink:href="#ArialMT-30" x="55.615234"/>
       <use xlink:href="#ArialMT-32" x="111.230469"/>
       <use xlink:href="#ArialMT-34" x="166.845703"/>
       <use xlink:href="#ArialMT-2d" x="222.460938"/>
       <use xlink:href="#ArialMT-30" x="255.761719"/>
       <use xlink:href="#ArialMT-39" x="311.376953"/>
      </g>
     </g>
    </g>
    <g id="xtick_6">
     <g id="line2d_6">
      <path d="M 704.498107 359.045568 
L 704.498107 27.65625 
" clip-path="url(#p9128fad593)" style="fill: none; stroke: #cccccc; stroke-opacity: 0.5; stroke-linecap: round"/>
     </g>
     <g id="text_6">
      <!-- 2024-11 -->
      <g style="fill: #262626" transform="translate(692.52458 402.081654) rotate(-45) scale(0.11 -0.11)">
       <use xlink:href="#ArialMT-32"/>
       <use xlink:href="#ArialMT-30" x="55.615234"/>
       <use xlink:href="#ArialMT-32" x="111.230469"/>
       <use xlink:href="#ArialMT-34" x="166.845703"/>
       <use xlink:href="#ArialMT-2d" x="222.460938"/>
       <use xlink:href="#ArialMT-31" x="255.761719"/>
       <use xlink:href="#ArialMT-31" x="304.001953"/>
      </g>
     </g>
    </g>
    <g id="xtick_7">
     <g id="line2d_7">
      <path d="M 823.526808 359.045568 
L 823.526808 27.65625 
" clip-path="url(#p9128fad593)" style="fill: none; stroke: #cccccc; stroke-opacity: 0.5; stroke-linecap: round"/>
     </g>
     <g id="text_7">
      <!-- 2025-01 -->
      <g style="fill: #262626" transform="translate(811.266461 402.655294) rotate(-45) scale(0.11 -0.11)">
       <use xlink:href="#ArialMT-32"/>
       <use xlink:href="#ArialMT-30" x="55.615234"/>
       <use xlink:href="#ArialMT-32" x="111.230469"/>
       <use xlink:href="#ArialMT-35" x="166.845703"/>
       <use xlink:href="#ArialMT-2d" x="222.460938"/>
       <use xlink:href="#ArialMT-30" x="255.761719"/>
       <use xlink:href="#ArialMT-31" x="311.376953"/>
      </g>
     </g>
    </g>
    <g id="text_8">
     <!-- Timestamp -->
     <g style="fill: #262626" transform="translate(433.093125 416.790582) scale(0.12 -0.12)">
      <defs>
       <path id="ArialMT-54" d="M 1659 0 
L 1659 4041 
L 150 4041 
L 150 4581 
L 3781 4581 
L 3781 4041 
L 2266 4041 
L 2266 0 
L 1659 0 
z
" transform="scale(0.015625)"/>
       <path id="ArialMT-69" d="M 425 3934 
L 425 4581 
L 988 4581 
L 988 3934 
L 425 3934 
z
M 425 0 
L 425 3319 
L 988 3319 
L 988 0 
L 425 0 
z
" transform="scale(0.015625)"/>
       <path id="ArialMT-6d" d="M 422 0 
L 422 3319 
L 925 3319 
L 925 2853 
Q 1081 3097 1340 3245 
Q 1600 3394 1931 3394 
Q 2300 3394 2536 3241 
Q 2772 3088 2869 2813 
Q 3263 3394 3894 3394 
Q 4388 3394 4653 3120 
Q 4919 2847 4919 2278 
L 4919 0 
L 4359 0 
L 4359 2091 
Q 4359 2428 4304 2576 
Q 4250 2725 4106 2815 
Q 3963 2906 3769 2906 
Q 3419 2906 3187 2673 
Q 2956 2441 2956 1928 
L 2956 0 
L 2394 0 
L 2394 2156 
Q 2394 2531 2256 2718 
Q 2119 2906 1806 2906 
Q 1569 2906 1367 2781 
Q 1166 2656 1075 2415 
Q 984 2175 984 1722 
L 984 0 
L 422 0 
z
" transform="scale(0.015625)"/>
       <path id="ArialMT-65" d="M 2694 1069 
L 3275 997 
Q 3138 488 2766 206 
Q 2394 -75 1816 -75 
Q 1088 -75 661 373 
Q 234 822 234 1631 
Q 234 2469 665 2931 
Q 1097 3394 1784 3394 
Q 2450 3394 2872 2941 
Q 3294 2488 3294 1666 
Q 3294 1616 3291 1516 
L 816 1516 
Q 847 969 1125 678 
Q 1403 388 1819 388 
Q 2128 388 2347 550 
Q 2566 713 2694 1069 
z
M 847 1978 
L 2700 1978 
Q 2663 2397 2488 2606 
Q 2219 2931 1791 2931 
Q 1403 2931 1139 2672 
Q 875 2413 847 1978 
z
" transform="scale(0.015625)"/>
       <path id="ArialMT-73" d="M 197 991 
L 753 1078 
Q 800 744 1014 566 
Q 1228 388 1613 388 
Q 2000 388 2187 545 
Q 2375 703 2375 916 
Q 2375 1106 2209 1216 
Q 2094 1291 1634 1406 
Q 1016 1563 777 1677 
Q 538 1791 414 1992 
Q 291 2194 291 2438 
Q 291 2659 392 2848 
Q 494 3038 669 3163 
Q 800 3259 1026 3326 
Q 1253 3394 1513 3394 
Q 1903 3394 2198 3281 
Q 2494 3169 2634 2976 
Q 2775 2784 2828 2463 
L 2278 2388 
Q 2241 2644 2061 2787 
Q 1881 2931 1553 2931 
Q 1166 2931 1000 2803 
Q 834 2675 834 2503 
Q 834 2394 903 2306 
Q 972 2216 1119 2156 
Q 1203 2125 1616 2013 
Q 2213 1853 2448 1751 
Q 2684 1650 2818 1456 
Q 2953 1263 2953 975 
Q 2953 694 2789 445 
Q 2625 197 2315 61 
Q 2006 -75 1616 -75 
Q 969 -75 630 194 
Q 291 463 197 991 
z
" transform="scale(0.015625)"/>
       <path id="ArialMT-74" d="M 1650 503 
L 1731 6 
Q 1494 -44 1306 -44 
Q 1000 -44 831 53 
Q 663 150 594 308 
Q 525 466 525 972 
L 525 2881 
L 113 2881 
L 113 3319 
L 525 3319 
L 525 4141 
L 1084 4478 
L 1084 3319 
L 1650 3319 
L 1650 2881 
L 1084 2881 
L 1084 941 
Q 1084 700 1114 631 
Q 1144 563 1211 522 
Q 1278 481 1403 481 
Q 1497 481 1650 503 
z
" transform="scale(0.015625)"/>
       <path id="ArialMT-61" d="M 2588 409 
Q 2275 144 1986 34 
Q 1697 -75 1366 -75 
Q 819 -75 525 192 
Q 231 459 231 875 
Q 231 1119 342 1320 
Q 453 1522 633 1644 
Q 813 1766 1038 1828 
Q 1203 1872 1538 1913 
Q 2219 1994 2541 2106 
Q 2544 2222 2544 2253 
Q 2544 2597 2384 2738 
Q 2169 2928 1744 2928 
Q 1347 2928 1158 2789 
Q 969 2650 878 2297 
L 328 2372 
Q 403 2725 575 2942 
Q 747 3159 1072 3276 
Q 1397 3394 1825 3394 
Q 2250 3394 2515 3294 
Q 2781 3194 2906 3042 
Q 3031 2891 3081 2659 
Q 3109 2516 3109 2141 
L 3109 1391 
Q 3109 606 3145 398 
Q 3181 191 3288 0 
L 2700 0 
Q 2613 175 2588 409 
z
M 2541 1666 
Q 2234 1541 1622 1453 
Q 1275 1403 1131 1340 
Q 988 1278 909 1158 
Q 831 1038 831 891 
Q 831 666 1001 516 
Q 1172 366 1500 366 
Q 1825 366 2078 508 
Q 2331 650 2450 897 
Q 2541 1088 2541 1459 
L 2541 1666 
z
" transform="scale(0.015625)"/>
       <path id="ArialMT-70" d="M 422 -1272 
L 422 3319 
L 934 3319 
L 934 2888 
Q 1116 3141 1344 3267 
Q 1572 3394 1897 3394 
Q 2322 3394 2647 3175 
Q 2972 2956 3137 2557 
Q 3303 2159 3303 1684 
Q 3303 1175 3120 767 
Q 2938 359 2589 142 
Q 2241 -75 1856 -75 
Q 1575 -75 1351 44 
Q 1128 163 984 344 
L 984 -1272 
L 422 -1272 
z
M 931 1641 
Q 931 1000 1190 694 
Q 1450 388 1819 388 
Q 2194 388 2461 705 
Q 2728 1022 2728 1688 
Q 2728 2322 2467 2637 
Q 2206 2953 1844 2953 
Q 1484 2953 1207 2617 
Q 931 2281 931 1641 
z
" transform="scale(0.015625)"/>
      </defs>
      <use xlink:href="#ArialMT-54"/>
      <use xlink:href="#ArialMT-69" x="57.333984"/>
      <use xlink:href="#ArialMT-6d" x="79.550781"/>
      <use xlink:href="#ArialMT-65" x="162.851562"/>
      <use xlink:href="#ArialMT-73" x="218.466797"/>
      <use xlink:href="#ArialMT-74" x="268.466797"/>
      <use xlink:href="#ArialMT-61" x="296.25"/>
      <use xlink:href="#ArialMT-6d" x="351.865234"/>
      <use xlink:href="#ArialMT-70" x="435.166016"/>
     </g>
    </g>
   </g>
   <g id="matplotlib.axis_2">
    <g id="ytick_1">
     <g id="line2d_8">
      <path d="M 74.03625 343.982417 
L 851.04 343.982417 
" clip-path="url(#p9128fad593)" style="fill: none; stroke: #cccccc; stroke-opacity: 0.5; stroke-linecap: round"/>
     </g>
     <g id="text_9">
      <!-- 0 -->
      <g style="fill: #262626" transform="translate(58.419219 347.919214) scale(0.11 -0.11)">
       <use xlink:href="#ArialMT-30"/>
      </g>
     </g>
    </g>
    <g id="ytick_2">
     <g id="line2d_9">
      <path d="M 74.03625 299.017788 
L 851.04 299.017788 
" clip-path="url(#p9128fad593)" style="fill: none; stroke: #cccccc; stroke-opacity: 0.5; stroke-linecap: round"/>
     </g>
     <g id="text_10">
      <!-- 50000 -->
      <g style="fill: #262626" transform="translate(33.951094 302.954585) scale(0.11 -0.11)">
       <use xlink:href="#ArialMT-35"/>
       <use xlink:href="#ArialMT-30" x="55.615234"/>
       <use xlink:href="#ArialMT-30" x="111.230469"/>
       <use xlink:href="#ArialMT-30" x="166.845703"/>
       <use xlink:href="#ArialMT-30" x="222.460938"/>
      </g>
     </g>
    </g>
    <g id="ytick_3">
     <g id="line2d_10">
      <path d="M 74.03625 254.053159 
L 851.04 254.053159 
" clip-path="url(#p9128fad593)" style="fill: none; stroke: #cccccc; stroke-opacity: 0.5; stroke-linecap: round"/>
     </g>
     <g id="text_11">
      <!-- 100000 -->
      <g style="fill: #262626" transform="translate(27.834063 257.989956) scale(0.11 -0.11)">
       <use xlink:href="#ArialMT-31"/>
       <use xlink:href="#ArialMT-30" x="55.615234"/>
       <use xlink:href="#ArialMT-30" x="111.230469"/>
       <use xlink:href="#ArialMT-30" x="166.845703"/>
       <use xlink:href="#ArialMT-30" x="222.460938"/>
       <use xlink:href="#ArialMT-30" x="278.076172"/>
      </g>
     </g>
    </g>
    <g id="ytick_4">
     <g id="line2d_11">
      <path d="M 74.03625 209.088529 
L 851.04 209.088529 
" clip-path="url(#p9128fad593)" style="fill: none; stroke: #cccccc; stroke-opacity: 0.5; stroke-linecap: round"/>
     </g>
     <g id="text_12">
      <!-- 150000 -->
      <g style="fill: #262626" transform="translate(27.834063 213.025326) scale(0.11 -0.11)">
       <use xlink:href="#ArialMT-31"/>
       <use xlink:href="#ArialMT-35" x="55.615234"/>
       <use xlink:href="#ArialMT-30" x="111.230469"/>
       <use xlink:href="#ArialMT-30" x="166.845703"/>
       <use xlink:href="#ArialMT-30" x="222.460938"/>
       <use xlink:href="#ArialMT-30" x="278.076172"/>
      </g>
     </g>
    </g>
    <g id="ytick_5">
     <g id="line2d_12">
      <path d="M 74.03625 164.1239 
L 851.04 164.1239 
" clip-path="url(#p9128fad593)" style="fill: none; stroke: #cccccc; stroke-opacity: 0.5; stroke-linecap: round"/>
     </g>
     <g id="text_13">
      <!-- 200000 -->
      <g style="fill: #262626" transform="translate(27.834063 168.060697) scale(0.11 -0.11)">
       <use xlink:href="#ArialMT-32"/>
       <use xlink:href="#ArialMT-30" x="55.615234"/>
       <use xlink:href="#ArialMT-30" x="111.230469"/>
       <use xlink:href="#ArialMT-30" x="166.845703"/>
       <use xlink:href="#ArialMT-30" x="222.460938"/>
       <use xlink:href="#ArialMT-30" x="278.076172"/>
      </g>
     </g>
    </g>
    <g id="ytick_6">
     <g id="line2d_13">
      <path d="M 74.03625 119.159271 
L 851.04 119.159271 
" clip-path="url(#p9128fad593)" style="fill: none; stroke: #cccccc; stroke-opacity: 0.5; stroke-linecap: round"/>
     </g>
     <g id="text_14">
      <!-- 250000 -->
      <g style="fill: #262626" transform="translate(27.834063 123.096068) scale(0.11 -0.11)">
       <use xlink:href="#ArialMT-32"/>
       <use xlink:href="#ArialMT-35" x="55.615234"/>
       <use xlink:href="#ArialMT-30" x="111.230469"/>
       <use xlink:href="#ArialMT-30" x="166.845703"/>
       <use xlink:href="#ArialMT-30" x="222.460938"/>
       <use xlink:href="#ArialMT-30" x="278.076172"/>
      </g>
     </g>
    </g>
    <g id="ytick_7">
     <g id="line2d_14">
      <path d="M 74.03625 74.194641 
L 851.04 74.194641 
" clip-path="url(#p9128fad593)" style="fill: none; stroke: #cccccc; stroke-opacity: 0.5; stroke-linecap: round"/>
     </g>
     <g id="text_15">
      <!-- 300000 -->
      <g style="fill: #262626" transform="translate(27.834063 78.131438) scale(0.11 -0.11)">
       <use xlink:href="#ArialMT-33"/>
       <use xlink:href="#ArialMT-30" x="55.615234"/>
       <use xlink:href="#ArialMT-30" x="111.230469"/>
       <use xlink:href="#ArialMT-30" x="166.845703"/>
       <use xlink:href="#ArialMT-30" x="222.460938"/>
       <use xlink:href="#ArialMT-30" x="278.076172"/>
      </g>
     </g>
    </g>
    <g id="ytick_8">
     <g id="line2d_15">
      <path d="M 74.03625 29.230012 
L 851.04 29.230012 
" clip-path="url(#p9128fad593)" style="fill: none; stroke: #cccccc; stroke-opacity: 0.5; stroke-linecap: round"/>
     </g>
     <g id="text_16">
      <!-- 350000 -->
      <g style="fill: #262626" transform="translate(27.834063 33.166809) scale(0.11 -0.11)">
       <use xlink:href="#ArialMT-33"/>
       <use xlink:href="#ArialMT-35" x="55.615234"/>
       <use xlink:href="#ArialMT-30" x="111.230469"/>
       <use xlink:href="#ArialMT-30" x="166.845703"/>
       <use xlink:href="#ArialMT-30" x="222.460938"/>
       <use xlink:href="#ArialMT-30" x="278.076172"/>
      </g>
     </g>
    </g>
    <g id="text_17">
     <!-- Total Liquidity (sats) -->
     <g style="fill: #262626" transform="translate(21.308438 246.366534) rotate(-90) scale(0.12 -0.12)">
      <defs>
       <path id="ArialMT-6f" d="M 213 1659 
Q 213 2581 725 3025 
Q 1153 3394 1769 3394 
Q 2453 3394 2887 2945 
Q 3322 2497 3322 1706 
Q 3322 1066 3130 698 
Q 2938 331 2570 128 
Q 2203 -75 1769 -75 
Q 1072 -75 642 372 
Q 213 819 213 1659 
z
M 791 1659 
Q 791 1022 1069 705 
Q 1347 388 1769 388 
Q 2188 388 2466 706 
Q 2744 1025 2744 1678 
Q 2744 2294 2464 2611 
Q 2184 2928 1769 2928 
Q 1347 2928 1069 2612 
Q 791 2297 791 1659 
z
" transform="scale(0.015625)"/>
       <path id="ArialMT-6c" d="M 409 0 
L 409 4581 
L 972 4581 
L 972 0 
L 409 0 
z
" transform="scale(0.015625)"/>
       <path id="ArialMT-20" transform="scale(0.015625)"/>
       <path id="ArialMT-4c" d="M 469 0 
L 469 4581 
L 1075 4581 
L 1075 541 
L 3331 541 
L 3331 0 
L 469 0 
z
" transform="scale(0.015625)"/>
       <path id="ArialMT-71" d="M 2538 -1272 
L 2538 353 
Q 2406 169 2170 47 
Q 1934 -75 1669 -75 
Q 1078 -75 651 397 
Q 225 869 225 1691 
Q 225 2191 398 2587 
Q 572 2984 901 3189 
Q 1231 3394 1625 3394 
Q 2241 3394 2594 2875 
L 2594 3319 
L 3100 3319 
L 3100 -1272 
L 2538 -1272 
z
M 803 1669 
Q 803 1028 1072 708 
Q 1341 388 1716 388 
Q 2075 388 2334 692 
Q 2594 997 2594 1619 
Q 2594 2281 2320 2615 
Q 2047 2950 1678 2950 
Q 1313 2950 1058 2639 
Q 803 2328 803 1669 
z
" transform="scale(0.015625)"/>
       <path id="ArialMT-75" d="M 2597 0 
L 2597 488 
Q 2209 -75 1544 -75 
Q 1250 -75 995 37 
Q 741 150 617 320 
Q 494 491 444 738 
Q 409 903 409 1263 
L 409 3319 
L 972 3319 
L 972 1478 
Q 972 1038 1006 884 
Q 1059 663 1231 536 
Q 1403 409 1656 409 
Q 1909 409 2131 539 
Q 2353 669 2445 892 
Q 2538 1116 2538 1541 
L 2538 3319 
L 3100 3319 
L 3100 0 
L 2597 0 
z
" transform="scale(0.015625)"/>
       <path id="ArialMT-64" d="M 2575 0 
L 2575 419 
Q 2259 -75 1647 -75 
Q 1250 -75 917 144 
Q 584 363 401 755 
Q 219 1147 219 1656 
Q 219 2153 384 2558 
Q 550 2963 881 3178 
Q 1213 3394 1622 3394 
Q 1922 3394 2156 3267 
Q 2391 3141 2538 2938 
L 2538 4581 
L 3097 4581 
L 3097 0 
L 2575 0 
z
M 797 1656 
Q 797 1019 1065 703 
Q 1334 388 1700 388 
Q 2069 388 2326 689 
Q 2584 991 2584 1609 
Q 2584 2291 2321 2609 
Q 2059 2928 1675 2928 
Q 1300 2928 1048 2622 
Q 797 2316 797 1656 
z
" transform="scale(0.015625)"/>
       <path id="ArialMT-79" d="M 397 -1278 
L 334 -750 
Q 519 -800 656 -800 
Q 844 -800 956 -737 
Q 1069 -675 1141 -563 
Q 1194 -478 1313 -144 
Q 1328 -97 1363 -6 
L 103 3319 
L 709 3319 
L 1400 1397 
Q 1534 1031 1641 628 
Q 1738 1016 1872 1384 
L 2581 3319 
L 3144 3319 
L 1881 -56 
Q 1678 -603 1566 -809 
Q 1416 -1088 1222 -1217 
Q 1028 -1347 759 -1347 
Q 597 -1347 397 -1278 
z
" transform="scale(0.015625)"/>
       <path id="ArialMT-28" d="M 1497 -1347 
Q 1031 -759 709 28 
Q 388 816 388 1659 
Q 388 2403 628 3084 
Q 909 3875 1497 4659 
L 1900 4659 
Q 1522 4009 1400 3731 
Q 1209 3300 1100 2831 
Q 966 2247 966 1656 
Q 966 153 1900 -1347 
L 1497 -1347 
z
" transform="scale(0.015625)"/>
       <path id="ArialMT-29" d="M 791 -1347 
L 388 -1347 
Q 1322 153 1322 1656 
Q 1322 2244 1188 2822 
Q 1081 3291 891 3722 
Q 769 4003 388 4659 
L 791 4659 
Q 1378 3875 1659 3084 
Q 1900 2403 1900 1659 
Q 1900 816 1576 28 
Q 1253 -759 791 -1347 
z
" transform="scale(0.015625)"/>
      </defs>
      <use xlink:href="#ArialMT-54"/>
      <use xlink:href="#ArialMT-6f" x="49.958984"/>
      <use xlink:href="#ArialMT-74" x="105.574219"/>
      <use xlink:href="#ArialMT-61" x="133.357422"/>
      <use xlink:href="#ArialMT-6c" x="188.972656"/>
      <use xlink:href="#ArialMT-20" x="211.189453"/>
      <use xlink:href="#ArialMT-4c" x="238.972656"/>
      <use xlink:href="#ArialMT-69" x="294.587891"/>
      <use xlink:href="#ArialMT-71" x="316.804688"/>
      <use xlink:href="#ArialMT-75" x="372.419922"/>
      <use xlink:href="#ArialMT-69" x="428.035156"/>
      <use xlink:href="#ArialMT-64" x="450.251953"/>
      <use xlink:href="#ArialMT-69" x="505.867188"/>
      <use xlink:href="#ArialMT-74" x="528.083984"/>
      <use xlink:href="#ArialMT-79" x="555.867188"/>
      <use xlink:href="#ArialMT-20" x="605.867188"/>
      <use xlink:href="#ArialMT-28" x="633.650391"/>
      <use xlink:href="#ArialMT-73" x="666.951172"/>
      <use xlink:href="#ArialMT-61" x="716.951172"/>
      <use xlink:href="#ArialMT-74" x="772.566406"/>
      <use xlink:href="#ArialMT-73" x="800.349609"/>
      <use xlink:href="#ArialMT-29" x="850.349609"/>
     </g>
    </g>
   </g>
   <g id="PolyCollection_1">
    <path d="M 109.354602 74.194641 
L 109.354602 74.194641 
L 111.305892 74.194641 
L 113.257183 101.173419 
L 115.208473 101.173419 
L 117.159763 119.159271 
L 119.111053 119.159271 
L 121.062343 123.655734 
L 123.013634 128.152197 
L 124.964924 128.152197 
L 126.916214 128.152197 
L 128.867504 128.152197 
L 130.818794 128.152197 
L 132.770084 128.152197 
L 134.721375 173.116826 
L 136.672665 173.116826 
L 138.623955 186.606215 
L 140.575245 222.577918 
L 142.526535 222.577918 
L 144.477826 222.577918 
L 146.429116 249.556696 
L 148.380406 249.556696 
L 150.331696 249.556696 
L 152.282986 294.521325 
L 154.234276 294.521325 
L 156.185567 294.521325 
L 158.136857 294.521325 
L 160.088147 294.521325 
L 162.039437 303.514251 
L 163.990727 308.010714 
L 165.942018 312.507177 
L 167.893308 312.507177 
L 169.844598 42.719401 
L 167.893308 42.719401 
L 165.942018 42.719401 
L 163.990727 42.719401 
L 162.039437 42.719401 
L 160.088147 42.719401 
L 158.136857 42.719401 
L 156.185567 42.719401 
L 154.234276 42.719401 
L 152.282986 42.719401 
L 150.331696 42.719401 
L 148.380406 42.719401 
L 146.429116 42.719401 
L 144.477826 42.719401 
L 142.526535 42.719401 
L 140.575245 42.719401 
L 138.623955 42.719401 
L 136.672665 42.719401 
L 134.721375 42.719401 
L 132.770084 42.719401 
L 130.818794 42.719401 
L 128.867504 42.719401 
L 126.916214 42.719401 
L 124.964924 42.719401 
L 123.013634 42.719401 
L 121.062343 42.719401 
L 119.111053 42.719401 
L 117.159763 42.719401 
L 115.208473 42.719401 
L 113.257183 42.719401 
L 111.305892 42.719401 
L 109.354602 42.719401 
z
" clip-path="url(#p9128fad593)" style="fill: #87ceeb; fill-opacity: 0.5; stroke: #87ceeb; stroke-opacity: 0.5"/>
    <path d="M 175.698468 42.719401 
L 177.649759 60.705253 
L 179.601049 60.705253 
L 181.552339 60.705253 
L 183.503629 60.705253 
L 185.454919 105.669882 
L 187.40621 105.669882 
L 189.3575 150.634511 
L 191.30879 150.634511 
L 193.26008 168.620363 
L 195.21137 168.620363 
L 197.16266 186.606215 
L 199.113951 200.095604 
L 201.065241 200.095604 
L 203.016531 200.095604 
L 204.967821 200.095604 
L 206.919111 227.074381 
L 208.870401 227.074381 
L 210.821692 227.074381 
L 212.772982 227.074381 
L 214.724272 245.060233 
L 216.675562 290.024862 
L 218.626852 334.989492 
L 220.578143 334.989492 
L 222.529433 343.982417 
L 224.480723 343.982417 
L 226.432013 74.194641 
L 228.383303 74.194641 
L 230.334593 101.173419 
L 232.285884 101.173419 
L 234.237174 119.159271 
L 236.188464 119.159271 
L 238.139754 123.655734 
L 240.091044 128.152197 
L 242.042335 128.152197 
L 243.993625 128.152197 
L 245.944915 128.152197 
L 247.896205 128.152197 
L 249.847495 128.152197 
L 251.798785 173.116826 
L 253.750076 173.116826 
L 255.701366 186.606215 
L 257.652656 222.577918 
L 259.603946 222.577918 
L 261.555236 222.577918 
L 263.506527 249.556696 
L 265.457817 249.556696 
L 267.409107 249.556696 
L 269.360397 294.521325 
L 271.311687 294.521325 
L 273.262977 294.521325 
L 275.214268 294.521325 
L 277.165558 294.521325 
L 279.116848 303.514251 
L 281.068138 308.010714 
L 283.019428 312.507177 
L 284.970719 312.507177 
L 286.922009 42.719401 
L 284.970719 42.719401 
L 283.019428 42.719401 
L 281.068138 42.719401 
L 279.116848 42.719401 
L 277.165558 42.719401 
L 275.214268 42.719401 
L 273.262977 42.719401 
L 271.311687 42.719401 
L 269.360397 42.719401 
L 267.409107 42.719401 
L 265.457817 42.719401 
L 263.506527 42.719401 
L 261.555236 42.719401 
L 259.603946 42.719401 
L 257.652656 42.719401 
L 255.701366 42.719401 
L 253.750076 42.719401 
L 251.798785 42.719401 
L 249.847495 42.719401 
L 247.896205 42.719401 
L 245.944915 42.719401 
L 243.993625 42.719401 
L 242.042335 42.719401 
L 240.091044 42.719401 
L 238.139754 42.719401 
L 236.188464 42.719401 
L 234.237174 42.719401 
L 232.285884 42.719401 
L 230.334593 42.719401 
L 228.383303 42.719401 
L 226.432013 42.719401 
L 224.480723 42.719401 
L 222.529433 42.719401 
L 220.578143 42.719401 
L 218.626852 42.719401 
L 216.675562 42.719401 
L 214.724272 42.719401 
L 212.772982 42.719401 
L 210.821692 42.719401 
L 208.870401 42.719401 
L 206.919111 42.719401 
L 204.967821 42.719401 
L 203.016531 42.719401 
L 201.065241 42.719401 
L 199.113951 42.719401 
L 197.16266 42.719401 
L 195.21137 42.719401 
L 193.26008 42.719401 
L 191.30879 42.719401 
L 189.3575 42.719401 
L 187.40621 42.719401 
L 185.454919 42.719401 
L 183.503629 42.719401 
L 181.552339 42.719401 
L 179.601049 42.719401 
L 177.649759 42.719401 
z
" clip-path="url(#p9128fad593)" style="fill: #87ceeb; fill-opacity: 0.5; stroke: #87ceeb; stroke-opacity: 0.5"/>
    <path d="M 292.775879 42.719401 
L 294.727169 60.705253 
L 296.67846 60.705253 
L 298.62975 60.705253 
L 300.58104 60.705253 
L 302.53233 105.669882 
L 304.48362 105.669882 
L 306.434911 150.634511 
L 308.386201 150.634511 
L 310.337491 168.620363 
L 312.288781 168.620363 
L 314.240071 186.606215 
L 316.191361 200.095604 
L 318.142652 200.095604 
L 320.093942 200.095604 
L 322.045232 200.095604 
L 323.996522 227.074381 
L 325.947812 227.074381 
L 327.899103 227.074381 
L 329.850393 227.074381 
L 331.801683 245.060233 
L 333.752973 290.024862 
L 335.704263 334.989492 
L 337.655553 334.989492 
L 339.606844 343.982417 
L 341.558134 343.982417 
L 343.509424 343.982417 
L 345.460714 74.194641 
L 347.412004 74.194641 
L 349.363295 101.173419 
L 351.314585 101.173419 
L 353.265875 119.159271 
L 355.217165 119.159271 
L 357.168455 123.655734 
L 359.119745 128.152197 
L 361.071036 128.152197 
L 363.022326 128.152197 
L 364.973616 128.152197 
L 366.924906 128.152197 
L 368.876196 128.152197 
L 370.827487 173.116826 
L 372.778777 173.116826 
L 374.730067 186.606215 
L 376.681357 222.577918 
L 378.632647 222.577918 
L 380.583937 222.577918 
L 382.535228 249.556696 
L 384.486518 249.556696 
L 386.437808 249.556696 
L 388.389098 294.521325 
L 390.340388 294.521325 
L 392.291678 294.521325 
L 394.242969 294.521325 
L 396.194259 294.521325 
L 398.145549 303.514251 
L 400.096839 308.010714 
L 402.048129 312.507177 
L 403.99942 312.507177 
L 405.95071 42.719401 
L 403.99942 42.719401 
L 402.048129 42.719401 
L 400.096839 42.719401 
L 398.145549 42.719401 
L 396.194259 42.719401 
L 394.242969 42.719401 
L 392.291678 42.719401 
L 390.340388 42.719401 
L 388.389098 42.719401 
L 386.437808 42.719401 
L 384.486518 42.719401 
L 382.535228 42.719401 
L 380.583937 42.719401 
L 378.632647 42.719401 
L 376.681357 42.719401 
L 374.730067 42.719401 
L 372.778777 42.719401 
L 370.827487 42.719401 
L 368.876196 42.719401 
L 366.924906 42.719401 
L 364.973616 42.719401 
L 363.022326 42.719401 
L 361.071036 42.719401 
L 359.119745 42.719401 
L 357.168455 42.719401 
L 355.217165 42.719401 
L 353.265875 42.719401 
L 351.314585 42.719401 
L 349.363295 42.719401 
L 347.412004 42.719401 
L 345.460714 42.719401 
L 343.509424 42.719401 
L 341.558134 42.719401 
L 339.606844 42.719401 
L 337.655553 42.719401 
L 335.704263 42.719401 
L 333.752973 42.719401 
L 331.801683 42.719401 
L 329.850393 42.719401 
L 327.899103 42.719401 
L 325.947812 42.719401 
L 323.996522 42.719401 
L 322.045232 42.719401 
L 320.093942 42.719401 
L 318.142652 42.719401 
L 316.191361 42.719401 
L 314.240071 42.719401 
L 312.288781 42.719401 
L 310.337491 42.719401 
L 308.386201 42.719401 
L 306.434911 42.719401 
L 304.48362 42.719401 
L 302.53233 42.719401 
L 300.58104 42.719401 
L 298.62975 42.719401 
L 296.67846 42.719401 
L 294.727169 42.719401 
z
" clip-path="url(#p9128fad593)" style="fill: #87ceeb; fill-opacity: 0.5; stroke: #87ceeb; stroke-opacity: 0.5"/>
    <path d="M 411.80458 42.719401 
L 413.75587 60.705253 
L 415.707161 60.705253 
L 417.658451 60.705253 
L 419.609741 60.705253 
L 421.561031 105.669882 
L 423.512321 105.669882 
L 425.463612 150.634511 
L 427.414902 150.634511 
L 429.366192 168.620363 
L 431.317482 168.620363 
L 433.268772 186.606215 
L 435.220062 200.095604 
L 437.171353 200.095604 
L 439.122643 200.095604 
L 441.073933 200.095604 
L 443.025223 227.074381 
L 444.976513 227.074381 
L 446.927804 227.074381 
L 448.879094 227.074381 
L 450.830384 245.060233 
L 452.781674 290.024862 
L 454.732964 334.989492 
L 456.684254 334.989492 
L 458.635545 343.982417 
L 460.586835 343.982417 
L 462.538125 343.982417 
L 464.489415 74.194641 
L 466.440705 74.194641 
L 468.391996 101.173419 
L 470.343286 101.173419 
L 472.294576 119.159271 
L 474.245866 119.159271 
L 476.197156 123.655734 
L 478.148446 128.152197 
L 480.099737 128.152197 
L 482.051027 128.152197 
L 484.002317 128.152197 
L 485.953607 128.152197 
L 487.904897 128.152197 
L 489.856188 173.116826 
L 491.807478 173.116826 
L 493.758768 186.606215 
L 495.710058 222.577918 
L 497.661348 222.577918 
L 499.612638 222.577918 
L 501.563929 249.556696 
L 503.515219 249.556696 
L 505.466509 249.556696 
L 507.417799 294.521325 
L 509.369089 294.521325 
L 511.32038 294.521325 
L 513.27167 294.521325 
L 515.22296 294.521325 
L 517.17425 303.514251 
L 519.12554 308.010714 
L 521.07683 312.507177 
L 523.028121 312.507177 
L 524.979411 42.719401 
L 523.028121 42.719401 
L 521.07683 42.719401 
L 519.12554 42.719401 
L 517.17425 42.719401 
L 515.22296 42.719401 
L 513.27167 42.719401 
L 511.32038 42.719401 
L 509.369089 42.719401 
L 507.417799 42.719401 
L 505.466509 42.719401 
L 503.515219 42.719401 
L 501.563929 42.719401 
L 499.612638 42.719401 
L 497.661348 42.719401 
L 495.710058 42.719401 
L 493.758768 42.719401 
L 491.807478 42.719401 
L 489.856188 42.719401 
L 487.904897 42.719401 
L 485.953607 42.719401 
L 484.002317 42.719401 
L 482.051027 42.719401 
L 480.099737 42.719401 
L 478.148446 42.719401 
L 476.197156 42.719401 
L 474.245866 42.719401 
L 472.294576 42.719401 
L 470.343286 42.719401 
L 468.391996 42.719401 
L 466.440705 42.719401 
L 464.489415 42.719401 
L 462.538125 42.719401 
L 460.586835 42.719401 
L 458.635545 42.719401 
L 456.684254 42.719401 
L 454.732964 42.719401 
L 452.781674 42.719401 
L 450.830384 42.719401 
L 448.879094 42.719401 
L 446.927804 42.719401 
L 444.976513 42.719401 
L 443.025223 42.719401 
L 441.073933 42.719401 
L 439.122643 42.719401 
L 437.171353 42.719401 
L 435.220062 42.719401 
L 433.268772 42.719401 
L 431.317482 42.719401 
L 429.366192 42.719401 
L 427.414902 42.719401 
L 425.463612 42.719401 
L 423.512321 42.719401 
L 421.561031 42.719401 
L 419.609741 42.719401 
L 417.658451 42.719401 
L 415.707161 42.719401 
L 413.75587 42.719401 
z
" clip-path="url(#p9128fad593)" style="fill: #87ceeb; fill-opacity: 0.5; stroke: #87ceeb; stroke-opacity: 0.5"/>
    <path d="M 530.833281 42.719401 
L 532.784572 60.705253 
L 534.735862 60.705253 
L 536.687152 60.705253 
L 538.638442 60.705253 
L 540.589732 105.669882 
L 542.541022 105.669882 
L 544.492313 150.634511 
L 546.443603 150.634511 
L 548.394893 168.620363 
L 550.346183 168.620363 
L 552.297473 186.606215 
L 554.248763 200.095604 
L 556.200054 200.095604 
L 558.151344 200.095604 
L 560.102634 200.095604 
L 562.053924 227.074381 
L 564.005214 227.074381 
L 565.956505 227.074381 
L 567.907795 227.074381 
L 569.859085 245.060233 
L 571.810375 290.024862 
L 573.761665 334.989492 
L 575.712955 334.989492 
L 577.664246 343.982417 
L 579.615536 343.982417 
L 581.566826 343.982417 
L 583.518116 343.982417 
L 585.469406 74.194641 
L 587.420697 74.194641 
L 589.371987 101.173419 
L 591.323277 101.173419 
L 593.274567 119.159271 
L 595.225857 119.159271 
L 597.177147 123.655734 
L 599.128438 128.152197 
L 601.079728 128.152197 
L 603.031018 128.152197 
L 604.982308 128.152197 
L 606.933598 128.152197 
L 608.884889 128.152197 
L 610.836179 173.116826 
L 612.787469 173.116826 
L 614.738759 186.606215 
L 616.690049 222.577918 
L 618.641339 222.577918 
L 620.59263 222.577918 
L 622.54392 249.556696 
L 624.49521 249.556696 
L 626.4465 249.556696 
L 628.39779 294.521325 
L 630.349081 294.521325 
L 632.300371 294.521325 
L 634.251661 294.521325 
L 636.202951 294.521325 
L 638.154241 303.514251 
L 640.105531 308.010714 
L 642.056822 312.507177 
L 644.008112 42.719401 
L 642.056822 42.719401 
L 640.105531 42.719401 
L 638.154241 42.719401 
L 636.202951 42.719401 
L 634.251661 42.719401 
L 632.300371 42.719401 
L 630.349081 42.719401 
L 628.39779 42.719401 
L 626.4465 42.719401 
L 624.49521 42.719401 
L 622.54392 42.719401 
L 620.59263 42.719401 
L 618.641339 42.719401 
L 616.690049 42.719401 
L 614.738759 42.719401 
L 612.787469 42.719401 
L 610.836179 42.719401 
L 608.884889 42.719401 
L 606.933598 42.719401 
L 604.982308 42.719401 
L 603.031018 42.719401 
L 601.079728 42.719401 
L 599.128438 42.719401 
L 597.177147 42.719401 
L 595.225857 42.719401 
L 593.274567 42.719401 
L 591.323277 42.719401 
L 589.371987 42.719401 
L 587.420697 42.719401 
L 585.469406 42.719401 
L 583.518116 42.719401 
L 581.566826 42.719401 
L 579.615536 42.719401 
L 577.664246 42.719401 
L 575.712955 42.719401 
L 573.761665 42.719401 
L 571.810375 42.719401 
L 569.859085 42.719401 
L 567.907795 42.719401 
L 565.956505 42.719401 
L 564.005214 42.719401 
L 562.053924 42.719401 
L 560.102634 42.719401 
L 558.151344 42.719401 
L 556.200054 42.719401 
L 554.248763 42.719401 
L 552.297473 42.719401 
L 550.346183 42.719401 
L 548.394893 42.719401 
L 546.443603 42.719401 
L 544.492313 42.719401 
L 542.541022 42.719401 
L 540.589732 42.719401 
L 538.638442 42.719401 
L 536.687152 42.719401 
L 534.735862 42.719401 
L 532.784572 42.719401 
z
" clip-path="url(#p9128fad593)" style="fill: #87ceeb; fill-opacity: 0.5; stroke: #87ceeb; stroke-opacity: 0.5"/>
    <path d="M 649.861982 42.719401 
L 651.813273 60.705253 
L 653.764563 60.705253 
L 655.715853 60.705253 
L 657.667143 60.705253 
L 659.618433 105.669882 
L 661.569723 105.669882 
L 663.521014 150.634511 
L 665.472304 150.634511 
L 667.423594 168.620363 
L 669.374884 168.620363 
L 671.326174 186.606215 
L 673.277465 200.095604 
L 675.228755 200.095604 
L 677.180045 200.095604 
L 679.131335 200.095604 
L 681.082625 227.074381 
L 683.033915 227.074381 
L 684.985206 227.074381 
L 686.936496 227.074381 
L 688.887786 245.060233 
L 690.839076 290.024862 
L 692.790366 334.989492 
L 694.741657 334.989492 
L 696.692947 343.982417 
L 698.644237 343.982417 
L 700.595527 343.982417 
L 702.546817 343.982417 
L 704.498107 74.194641 
L 706.449398 74.194641 
L 708.400688 101.173419 
L 710.351978 101.173419 
L 712.303268 119.159271 
L 714.254558 119.159271 
L 716.205849 123.655734 
L 718.157139 128.152197 
L 720.108429 128.152197 
L 722.059719 128.152197 
L 724.011009 128.152197 
L 725.962299 128.152197 
L 727.91359 128.152197 
L 729.86488 173.116826 
L 731.81617 173.116826 
L 733.76746 186.606215 
L 735.71875 222.577918 
L 737.67004 222.577918 
L 739.621331 222.577918 
L 741.572621 249.556696 
L 743.523911 249.556696 
L 745.475201 249.556696 
L 747.426491 294.521325 
L 749.377782 294.521325 
L 751.329072 294.521325 
L 753.280362 294.521325 
L 755.231652 294.521325 
L 757.182942 303.514251 
L 759.134232 308.010714 
L 761.085523 312.507177 
L 763.036813 42.719401 
L 761.085523 42.719401 
L 759.134232 42.719401 
L 757.182942 42.719401 
L 755.231652 42.719401 
L 753.280362 42.719401 
L 751.329072 42.719401 
L 749.377782 42.719401 
L 747.426491 42.719401 
L 745.475201 42.719401 
L 743.523911 42.719401 
L 741.572621 42.719401 
L 739.621331 42.719401 
L 737.67004 42.719401 
L 735.71875 42.719401 
L 733.76746 42.719401 
L 731.81617 42.719401 
L 729.86488 42.719401 
L 727.91359 42.719401 
L 725.962299 42.719401 
L 724.011009 42.719401 
L 722.059719 42.719401 
L 720.108429 42.719401 
L 718.157139 42.719401 
L 716.205849 42.719401 
L 714.254558 42.719401 
L 712.303268 42.719401 
L 710.351978 42.719401 
L 708.400688 42.719401 
L 706.449398 42.719401 
L 704.498107 42.719401 
L 702.546817 42.719401 
L 700.595527 42.719401 
L 698.644237 42.719401 
L 696.692947 42.719401 
L 694.741657 42.719401 
L 692.790366 42.719401 
L 690.839076 42.719401 
L 688.887786 42.719401 
L 686.936496 42.719401 
L 684.985206 42.719401 
L 683.033915 42.719401 
L 681.082625 42.719401 
L 679.131335 42.719401 
L 677.180045 42.719401 
L 675.228755 42.719401 
L 673.277465 42.719401 
L 671.326174 42.719401 
L 669.374884 42.719401 
L 667.423594 42.719401 
L 665.472304 42.719401 
L 663.521014 42.719401 
L 661.569723 42.719401 
L 659.618433 42.719401 
L 657.667143 42.719401 
L 655.715853 42.719401 
L 653.764563 42.719401 
L 651.813273 42.719401 
z
" clip-path="url(#p9128fad593)" style="fill: #87ceeb; fill-opacity: 0.5; stroke: #87ceeb; stroke-opacity: 0.5"/>
    <path d="M 768.890683 42.719401 
L 770.841974 60.705253 
L 772.793264 60.705253 
L 774.744554 60.705253 
L 776.695844 60.705253 
L 778.647134 105.669882 
L 780.598424 105.669882 
L 782.549715 150.634511 
L 784.501005 150.634511 
L 786.452295 168.620363 
L 788.403585 168.620363 
L 790.354875 186.606215 
L 792.306166 200.095604 
L 794.257456 200.095604 
L 796.208746 200.095604 
L 798.160036 200.095604 
L 800.111326 227.074381 
L 802.062616 227.074381 
L 804.013907 227.074381 
L 805.965197 227.074381 
L 807.916487 245.060233 
L 809.867777 290.024862 
L 811.819067 334.989492 
L 813.770358 334.989492 
L 815.721648 343.982417 
L 815.721648 343.982417 
L 815.721648 42.719401 
L 813.770358 42.719401 
L 811.819067 42.719401 
L 809.867777 42.719401 
L 807.916487 42.719401 
L 805.965197 42.719401 
L 804.013907 42.719401 
L 802.062616 42.719401 
L 800.111326 42.719401 
L 798.160036 42.719401 
L 796.208746 42.719401 
L 794.257456 42.719401 
L 792.306166 42.719401 
L 790.354875 42.719401 
L 788.403585 42.719401 
L 786.452295 42.719401 
L 784.501005 42.719401 
L 782.549715 42.719401 
L 780.598424 42.719401 
L 778.647134 42.719401 
L 776.695844 42.719401 
L 774.744554 42.719401 
L 772.793264 42.719401 
L 770.841974 42.719401 
z
" clip-path="url(#p9128fad593)" style="fill: #87ceeb; fill-opacity: 0.5; stroke: #87ceeb; stroke-opacity: 0.5"/>
   </g>
   <g id="PolyCollection_2">
    <path d="M 109.354602 343.982417 
L 109.354602 343.982417 
L 111.305892 343.982417 
L 113.257183 343.982417 
L 115.208473 343.982417 
L 117.159763 343.982417 
L 119.111053 343.982417 
L 121.062343 343.982417 
L 123.013634 343.982417 
L 124.964924 343.982417 
L 126.916214 343.982417 
L 128.867504 343.982417 
L 130.818794 343.982417 
L 132.770084 343.982417 
L 134.721375 343.982417 
L 136.672665 343.982417 
L 138.623955 343.982417 
L 140.575245 343.982417 
L 142.526535 343.982417 
L 144.477826 343.982417 
L 146.429116 343.982417 
L 148.380406 343.982417 
L 150.331696 343.982417 
L 152.282986 343.982417 
L 154.234276 343.982417 
L 156.185567 343.982417 
L 158.136857 343.982417 
L 160.088147 343.982417 
L 162.039437 343.982417 
L 163.990727 343.982417 
L 165.942018 343.982417 
L 167.893308 343.982417 
L 169.844598 343.982417 
L 171.795888 343.982417 
L 173.747178 343.982417 
L 175.698468 343.982417 
L 177.649759 343.982417 
L 179.601049 343.982417 
L 181.552339 343.982417 
L 183.503629 343.982417 
L 185.454919 343.982417 
L 187.40621 343.982417 
L 189.3575 343.982417 
L 191.30879 343.982417 
L 193.26008 343.982417 
L 195.21137 343.982417 
L 197.16266 343.982417 
L 199.113951 343.982417 
L 201.065241 343.982417 
L 203.016531 343.982417 
L 204.967821 343.982417 
L 206.919111 343.982417 
L 208.870401 343.982417 
L 210.821692 343.982417 
L 212.772982 343.982417 
L 214.724272 343.982417 
L 216.675562 343.982417 
L 218.626852 343.982417 
L 220.578143 343.982417 
L 222.529433 343.982417 
L 220.578143 334.989492 
L 218.626852 334.989492 
L 216.675562 290.024862 
L 214.724272 245.060233 
L 212.772982 227.074381 
L 210.821692 227.074381 
L 208.870401 227.074381 
L 206.919111 227.074381 
L 204.967821 200.095604 
L 203.016531 200.095604 
L 201.065241 200.095604 
L 199.113951 200.095604 
L 197.16266 186.606215 
L 195.21137 168.620363 
L 193.26008 168.620363 
L 191.30879 150.634511 
L 189.3575 150.634511 
L 187.40621 105.669882 
L 185.454919 105.669882 
L 183.503629 60.705253 
L 181.552339 60.705253 
L 179.601049 60.705253 
L 177.649759 60.705253 
L 175.698468 42.719401 
L 173.747178 42.719401 
L 171.795888 42.719401 
L 169.844598 42.719401 
L 167.893308 312.507177 
L 165.942018 312.507177 
L 163.990727 308.010714 
L 162.039437 303.514251 
L 160.088147 294.521325 
L 158.136857 294.521325 
L 156.185567 294.521325 
L 154.234276 294.521325 
L 152.282986 294.521325 
L 150.331696 249.556696 
L 148.380406 249.556696 
L 146.429116 249.556696 
L 144.477826 222.577918 
L 142.526535 222.577918 
L 140.575245 222.577918 
L 138.623955 186.606215 
L 136.672665 173.116826 
L 134.721375 173.116826 
L 132.770084 128.152197 
L 130.818794 128.152197 
L 128.867504 128.152197 
L 126.916214 128.152197 
L 124.964924 128.152197 
L 123.013634 128.152197 
L 121.062343 123.655734 
L 119.111053 119.159271 
L 117.159763 119.159271 
L 115.208473 101.173419 
L 113.257183 101.173419 
L 111.305892 74.194641 
L 109.354602 74.194641 
z
" clip-path="url(#p9128fad593)" style="fill: #90ee90; fill-opacity: 0.5; stroke: #90ee90; stroke-opacity: 0.5"/>
    <path d="M 224.480723 343.982417 
L 226.432013 343.982417 
L 228.383303 343.982417 
L 230.334593 343.982417 
L 232.285884 343.982417 
L 234.237174 343.982417 
L 236.188464 343.982417 
L 238.139754 343.982417 
L 240.091044 343.982417 
L 242.042335 343.982417 
L 243.993625 343.982417 
L 245.944915 343.982417 
L 247.896205 343.982417 
L 249.847495 343.982417 
L 251.798785 343.982417 
L 253.750076 343.982417 
L 255.701366 343.982417 
L 257.652656 343.982417 
L 259.603946 343.982417 
L 261.555236 343.982417 
L 263.506527 343.982417 
L 265.457817 343.982417 
L 267.409107 343.982417 
L 269.360397 343.982417 
L 271.311687 343.982417 
L 273.262977 343.982417 
L 275.214268 343.982417 
L 277.165558 343.982417 
L 279.116848 343.982417 
L 281.068138 343.982417 
L 283.019428 343.982417 
L 284.970719 343.982417 
L 286.922009 343.982417 
L 288.873299 343.982417 
L 290.824589 343.982417 
L 292.775879 343.982417 
L 294.727169 343.982417 
L 296.67846 343.982417 
L 298.62975 343.982417 
L 300.58104 343.982417 
L 302.53233 343.982417 
L 304.48362 343.982417 
L 306.434911 343.982417 
L 308.386201 343.982417 
L 310.337491 343.982417 
L 312.288781 343.982417 
L 314.240071 343.982417 
L 316.191361 343.982417 
L 318.142652 343.982417 
L 320.093942 343.982417 
L 322.045232 343.982417 
L 323.996522 343.982417 
L 325.947812 343.982417 
L 327.899103 343.982417 
L 329.850393 343.982417 
L 331.801683 343.982417 
L 333.752973 343.982417 
L 335.704263 343.982417 
L 337.655553 343.982417 
L 339.606844 343.982417 
L 337.655553 334.989492 
L 335.704263 334.989492 
L 333.752973 290.024862 
L 331.801683 245.060233 
L 329.850393 227.074381 
L 327.899103 227.074381 
L 325.947812 227.074381 
L 323.996522 227.074381 
L 322.045232 200.095604 
L 320.093942 200.095604 
L 318.142652 200.095604 
L 316.191361 200.095604 
L 314.240071 186.606215 
L 312.288781 168.620363 
L 310.337491 168.620363 
L 308.386201 150.634511 
L 306.434911 150.634511 
L 304.48362 105.669882 
L 302.53233 105.669882 
L 300.58104 60.705253 
L 298.62975 60.705253 
L 296.67846 60.705253 
L 294.727169 60.705253 
L 292.775879 42.719401 
L 290.824589 42.719401 
L 288.873299 42.719401 
L 286.922009 42.719401 
L 284.970719 312.507177 
L 283.019428 312.507177 
L 281.068138 308.010714 
L 279.116848 303.514251 
L 277.165558 294.521325 
L 275.214268 294.521325 
L 273.262977 294.521325 
L 271.311687 294.521325 
L 269.360397 294.521325 
L 267.409107 249.556696 
L 265.457817 249.556696 
L 263.506527 249.556696 
L 261.555236 222.577918 
L 259.603946 222.577918 
L 257.652656 222.577918 
L 255.701366 186.606215 
L 253.750076 173.116826 
L 251.798785 173.116826 
L 249.847495 128.152197 
L 247.896205 128.152197 
L 245.944915 128.152197 
L 243.993625 128.152197 
L 242.042335 128.152197 
L 240.091044 128.152197 
L 238.139754 123.655734 
L 236.188464 119.159271 
L 234.237174 119.159271 
L 232.285884 101.173419 
L 230.334593 101.173419 
L 228.383303 74.194641 
L 226.432013 74.194641 
z
" clip-path="url(#p9128fad593)" style="fill: #90ee90; fill-opacity: 0.5; stroke: #90ee90; stroke-opacity: 0.5"/>
    <path d="M 343.509424 343.982417 
L 345.460714 343.982417 
L 347.412004 343.982417 
L 349.363295 343.982417 
L 351.314585 343.982417 
L 353.265875 343.982417 
L 355.217165 343.982417 
L 357.168455 343.982417 
L 359.119745 343.982417 
L 361.071036 343.982417 
L 363.022326 343.982417 
L 364.973616 343.982417 
L 366.924906 343.982417 
L 368.876196 343.982417 
L 370.827487 343.982417 
L 372.778777 343.982417 
L 374.730067 343.982417 
L 376.681357 343.982417 
L 378.632647 343.982417 
L 380.583937 343.982417 
L 382.535228 343.982417 
L 384.486518 343.982417 
L 386.437808 343.982417 
L 388.389098 343.982417 
L 390.340388 343.982417 
L 392.291678 343.982417 
L 394.242969 343.982417 
L 396.194259 343.982417 
L 398.145549 343.982417 
L 400.096839 343.982417 
L 402.048129 343.982417 
L 403.99942 343.982417 
L 405.95071 343.982417 
L 407.902 343.982417 
L 409.85329 343.982417 
L 411.80458 343.982417 
L 413.75587 343.982417 
L 415.707161 343.982417 
L 417.658451 343.982417 
L 419.609741 343.982417 
L 421.561031 343.982417 
L 423.512321 343.982417 
L 425.463612 343.982417 
L 427.414902 343.982417 
L 429.366192 343.982417 
L 431.317482 343.982417 
L 433.268772 343.982417 
L 435.220062 343.982417 
L 437.171353 343.982417 
L 439.122643 343.982417 
L 441.073933 343.982417 
L 443.025223 343.982417 
L 444.976513 343.982417 
L 446.927804 343.982417 
L 448.879094 343.982417 
L 450.830384 343.982417 
L 452.781674 343.982417 
L 454.732964 343.982417 
L 456.684254 343.982417 
L 458.635545 343.982417 
L 456.684254 334.989492 
L 454.732964 334.989492 
L 452.781674 290.024862 
L 450.830384 245.060233 
L 448.879094 227.074381 
L 446.927804 227.074381 
L 444.976513 227.074381 
L 443.025223 227.074381 
L 441.073933 200.095604 
L 439.122643 200.095604 
L 437.171353 200.095604 
L 435.220062 200.095604 
L 433.268772 186.606215 
L 431.317482 168.620363 
L 429.366192 168.620363 
L 427.414902 150.634511 
L 425.463612 150.634511 
L 423.512321 105.669882 
L 421.561031 105.669882 
L 419.609741 60.705253 
L 417.658451 60.705253 
L 415.707161 60.705253 
L 413.75587 60.705253 
L 411.80458 42.719401 
L 409.85329 42.719401 
L 407.902 42.719401 
L 405.95071 42.719401 
L 403.99942 312.507177 
L 402.048129 312.507177 
L 400.096839 308.010714 
L 398.145549 303.514251 
L 396.194259 294.521325 
L 394.242969 294.521325 
L 392.291678 294.521325 
L 390.340388 294.521325 
L 388.389098 294.521325 
L 386.437808 249.556696 
L 384.486518 249.556696 
L 382.535228 249.556696 
L 380.583937 222.577918 
L 378.632647 222.577918 
L 376.681357 222.577918 
L 374.730067 186.606215 
L 372.778777 173.116826 
L 370.827487 173.116826 
L 368.876196 128.152197 
L 366.924906 128.152197 
L 364.973616 128.152197 
L 363.022326 128.152197 
L 361.071036 128.152197 
L 359.119745 128.152197 
L 357.168455 123.655734 
L 355.217165 119.159271 
L 353.265875 119.159271 
L 351.314585 101.173419 
L 349.363295 101.173419 
L 347.412004 74.194641 
L 345.460714 74.194641 
z
" clip-path="url(#p9128fad593)" style="fill: #90ee90; fill-opacity: 0.5; stroke: #90ee90; stroke-opacity: 0.5"/>
    <path d="M 462.538125 343.982417 
L 464.489415 343.982417 
L 466.440705 343.982417 
L 468.391996 343.982417 
L 470.343286 343.982417 
L 472.294576 343.982417 
L 474.245866 343.982417 
L 476.197156 343.982417 
L 478.148446 343.982417 
L 480.099737 343.982417 
L 482.051027 343.982417 
L 484.002317 343.982417 
L 485.953607 343.982417 
L 487.904897 343.982417 
L 489.856188 343.982417 
L 491.807478 343.982417 
L 493.758768 343.982417 
L 495.710058 343.982417 
L 497.661348 343.982417 
L 499.612638 343.982417 
L 501.563929 343.982417 
L 503.515219 343.982417 
L 505.466509 343.982417 
L 507.417799 343.982417 
L 509.369089 343.982417 
L 511.32038 343.982417 
L 513.27167 343.982417 
L 515.22296 343.982417 
L 517.17425 343.982417 
L 519.12554 343.982417 
L 521.07683 343.982417 
L 523.028121 343.982417 
L 524.979411 343.982417 
L 526.930701 343.982417 
L 528.881991 343.982417 
L 530.833281 343.982417 
L 532.784572 343.982417 
L 534.735862 343.982417 
L 536.687152 343.982417 
L 538.638442 343.982417 
L 540.589732 343.982417 
L 542.541022 343.982417 
L 544.492313 343.982417 
L 546.443603 343.982417 
L 548.394893 343.982417 
L 550.346183 343.982417 
L 552.297473 343.982417 
L 554.248763 343.982417 
L 556.200054 343.982417 
L 558.151344 343.982417 
L 560.102634 343.982417 
L 562.053924 343.982417 
L 564.005214 343.982417 
L 565.956505 343.982417 
L 567.907795 343.982417 
L 569.859085 343.982417 
L 571.810375 343.982417 
L 573.761665 343.982417 
L 575.712955 343.982417 
L 577.664246 343.982417 
L 575.712955 334.989492 
L 573.761665 334.989492 
L 571.810375 290.024862 
L 569.859085 245.060233 
L 567.907795 227.074381 
L 565.956505 227.074381 
L 564.005214 227.074381 
L 562.053924 227.074381 
L 560.102634 200.095604 
L 558.151344 200.095604 
L 556.200054 200.095604 
L 554.248763 200.095604 
L 552.297473 186.606215 
L 550.346183 168.620363 
L 548.394893 168.620363 
L 546.443603 150.634511 
L 544.492313 150.634511 
L 542.541022 105.669882 
L 540.589732 105.669882 
L 538.638442 60.705253 
L 536.687152 60.705253 
L 534.735862 60.705253 
L 532.784572 60.705253 
L 530.833281 42.719401 
L 528.881991 42.719401 
L 526.930701 42.719401 
L 524.979411 42.719401 
L 523.028121 312.507177 
L 521.07683 312.507177 
L 519.12554 308.010714 
L 517.17425 303.514251 
L 515.22296 294.521325 
L 513.27167 294.521325 
L 511.32038 294.521325 
L 509.369089 294.521325 
L 507.417799 294.521325 
L 505.466509 249.556696 
L 503.515219 249.556696 
L 501.563929 249.556696 
L 499.612638 222.577918 
L 497.661348 222.577918 
L 495.710058 222.577918 
L 493.758768 186.606215 
L 491.807478 173.116826 
L 489.856188 173.116826 
L 487.904897 128.152197 
L 485.953607 128.152197 
L 484.002317 128.152197 
L 482.051027 128.152197 
L 480.099737 128.152197 
L 478.148446 128.152197 
L 476.197156 123.655734 
L 474.245866 119.159271 
L 472.294576 119.159271 
L 470.343286 101.173419 
L 468.391996 101.173419 
L 466.440705 74.194641 
L 464.489415 74.194641 
z
" clip-path="url(#p9128fad593)" style="fill: #90ee90; fill-opacity: 0.5; stroke: #90ee90; stroke-opacity: 0.5"/>
    <path d="M 583.518116 343.982417 
L 585.469406 343.982417 
L 587.420697 343.982417 
L 589.371987 343.982417 
L 591.323277 343.982417 
L 593.274567 343.982417 
L 595.225857 343.982417 
L 597.177147 343.982417 
L 599.128438 343.982417 
L 601.079728 343.982417 
L 603.031018 343.982417 
L 604.982308 343.982417 
L 606.933598 343.982417 
L 608.884889 343.982417 
L 610.836179 343.982417 
L 612.787469 343.982417 
L 614.738759 343.982417 
L 616.690049 343.982417 
L 618.641339 343.982417 
L 620.59263 343.982417 
L 622.54392 343.982417 
L 624.49521 343.982417 
L 626.4465 343.982417 
L 628.39779 343.982417 
L 630.349081 343.982417 
L 632.300371 343.982417 
L 634.251661 343.982417 
L 636.202951 343.982417 
L 638.154241 343.982417 
L 640.105531 343.982417 
L 642.056822 343.982417 
L 644.008112 343.982417 
L 645.959402 343.982417 
L 647.910692 343.982417 
L 649.861982 343.982417 
L 651.813273 343.982417 
L 653.764563 343.982417 
L 655.715853 343.982417 
L 657.667143 343.982417 
L 659.618433 343.982417 
L 661.569723 343.982417 
L 663.521014 343.982417 
L 665.472304 343.982417 
L 667.423594 343.982417 
L 669.374884 343.982417 
L 671.326174 343.982417 
L 673.277465 343.982417 
L 675.228755 343.982417 
L 677.180045 343.982417 
L 679.131335 343.982417 
L 681.082625 343.982417 
L 683.033915 343.982417 
L 684.985206 343.982417 
L 686.936496 343.982417 
L 688.887786 343.982417 
L 690.839076 343.982417 
L 692.790366 343.982417 
L 694.741657 343.982417 
L 696.692947 343.982417 
L 694.741657 334.989492 
L 692.790366 334.989492 
L 690.839076 290.024862 
L 688.887786 245.060233 
L 686.936496 227.074381 
L 684.985206 227.074381 
L 683.033915 227.074381 
L 681.082625 227.074381 
L 679.131335 200.095604 
L 677.180045 200.095604 
L 675.228755 200.095604 
L 673.277465 200.095604 
L 671.326174 186.606215 
L 669.374884 168.620363 
L 667.423594 168.620363 
L 665.472304 150.634511 
L 663.521014 150.634511 
L 661.569723 105.669882 
L 659.618433 105.669882 
L 657.667143 60.705253 
L 655.715853 60.705253 
L 653.764563 60.705253 
L 651.813273 60.705253 
L 649.861982 42.719401 
L 647.910692 42.719401 
L 645.959402 42.719401 
L 644.008112 42.719401 
L 642.056822 312.507177 
L 640.105531 308.010714 
L 638.154241 303.514251 
L 636.202951 294.521325 
L 634.251661 294.521325 
L 632.300371 294.521325 
L 630.349081 294.521325 
L 628.39779 294.521325 
L 626.4465 249.556696 
L 624.49521 249.556696 
L 622.54392 249.556696 
L 620.59263 222.577918 
L 618.641339 222.577918 
L 616.690049 222.577918 
L 614.738759 186.606215 
L 612.787469 173.116826 
L 610.836179 173.116826 
L 608.884889 128.152197 
L 606.933598 128.152197 
L 604.982308 128.152197 
L 603.031018 128.152197 
L 601.079728 128.152197 
L 599.128438 128.152197 
L 597.177147 123.655734 
L 595.225857 119.159271 
L 593.274567 119.159271 
L 591.323277 101.173419 
L 589.371987 101.173419 
L 587.420697 74.194641 
L 585.469406 74.194641 
z
" clip-path="url(#p9128fad593)" style="fill: #90ee90; fill-opacity: 0.5; stroke: #90ee90; stroke-opacity: 0.5"/>
    <path d="M 702.546817 343.982417 
L 704.498107 343.982417 
L 706.449398 343.982417 
L 708.400688 343.982417 
L 710.351978 343.982417 
L 712.303268 343.982417 
L 714.254558 343.982417 
L 716.205849 343.982417 
L 718.157139 343.982417 
L 720.108429 343.982417 
L 722.059719 343.982417 
L 724.011009 343.982417 
L 725.962299 343.982417 
L 727.91359 343.982417 
L 729.86488 343.982417 
L 731.81617 343.982417 
L 733.76746 343.982417 
L 735.71875 343.982417 
L 737.67004 343.982417 
L 739.621331 343.982417 
L 741.572621 343.982417 
L 743.523911 343.982417 
L 745.475201 343.982417 
L 747.426491 343.982417 
L 749.377782 343.982417 
L 751.329072 343.982417 
L 753.280362 343.982417 
L 755.231652 343.982417 
L 757.182942 343.982417 
L 759.134232 343.982417 
L 761.085523 343.982417 
L 763.036813 343.982417 
L 764.988103 343.982417 
L 766.939393 343.982417 
L 768.890683 343.982417 
L 770.841974 343.982417 
L 772.793264 343.982417 
L 774.744554 343.982417 
L 776.695844 343.982417 
L 778.647134 343.982417 
L 780.598424 343.982417 
L 782.549715 343.982417 
L 784.501005 343.982417 
L 786.452295 343.982417 
L 788.403585 343.982417 
L 790.354875 343.982417 
L 792.306166 343.982417 
L 794.257456 343.982417 
L 796.208746 343.982417 
L 798.160036 343.982417 
L 800.111326 343.982417 
L 802.062616 343.982417 
L 804.013907 343.982417 
L 805.965197 343.982417 
L 807.916487 343.982417 
L 809.867777 343.982417 
L 811.819067 343.982417 
L 813.770358 343.982417 
L 815.721648 343.982417 
L 813.770358 334.989492 
L 811.819067 334.989492 
L 809.867777 290.024862 
L 807.916487 245.060233 
L 805.965197 227.074381 
L 804.013907 227.074381 
L 802.062616 227.074381 
L 800.111326 227.074381 
L 798.160036 200.095604 
L 796.208746 200.095604 
L 794.257456 200.095604 
L 792.306166 200.095604 
L 790.354875 186.606215 
L 788.403585 168.620363 
L 786.452295 168.620363 
L 784.501005 150.634511 
L 782.549715 150.634511 
L 780.598424 105.669882 
L 778.647134 105.669882 
L 776.695844 60.705253 
L 774.744554 60.705253 
L 772.793264 60.705253 
L 770.841974 60.705253 
L 768.890683 42.719401 
L 766.939393 42.719401 
L 764.988103 42.719401 
L 763.036813 42.719401 
L 761.085523 312.507177 
L 759.134232 308.010714 
L 757.182942 303.514251 
L 755.231652 294.521325 
L 753.280362 294.521325 
L 751.329072 294.521325 
L 749.377782 294.521325 
L 747.426491 294.521325 
L 745.475201 249.556696 
L 743.523911 249.556696 
L 741.572621 249.556696 
L 739.621331 222.577918 
L 737.67004 222.577918 
L 735.71875 222.577918 
L 733.76746 186.606215 
L 731.81617 173.116826 
L 729.86488 173.116826 
L 727.91359 128.152197 
L 725.962299 128.152197 
L 724.011009 128.152197 
L 722.059719 128.152197 
L 720.108429 128.152197 
L 718.157139 128.152197 
L 716.205849 123.655734 
L 714.254558 119.159271 
L 712.303268 119.159271 
L 710.351978 101.173419 
L 708.400688 101.173419 
L 706.449398 74.194641 
L 704.498107 74.194641 
z
" clip-path="url(#p9128fad593)" style="fill: #90ee90; fill-opacity: 0.5; stroke: #90ee90; stroke-opacity: 0.5"/>
   </g>
   <g id="line2d_16">
    <path d="M 74.03625 42.719401 
L 851.04 42.719401 
" clip-path="url(#p9128fad593)" style="fill: none; stroke-dasharray: 5.55,2.4; stroke-dashoffset: 0; stroke: #808080; stroke-width: 1.5"/>
   </g>
   <g id="line2d_17">
    <path d="M 109.354602 74.194641 
L 111.305892 74.194641 
L 113.257183 101.173419 
L 115.208473 101.173419 
L 117.159763 119.159271 
L 119.111053 119.159271 
L 123.013634 128.152197 
L 132.770084 128.152197 
L 134.721375 173.116826 
L 136.672665 173.116826 
L 138.623955 186.606215 
L 140.575245 222.577918 
L 144.477826 222.577918 
L 146.429116 249.556696 
L 150.331696 249.556696 
L 152.282986 294.521325 
L 160.088147 294.521325 
L 162.039437 303.514251 
L 165.942018 312.507177 
L 167.893308 312.507177 
L 169.844598 42.719401 
L 175.698468 42.719401 
L 177.649759 60.705253 
L 183.503629 60.705253 
L 185.454919 105.669882 
L 187.40621 105.669882 
L 189.3575 150.634511 
L 191.30879 150.634511 
L 193.26008 168.620363 
L 195.21137 168.620363 
L 197.16266 186.606215 
L 199.113951 200.095604 
L 204.967821 200.095604 
L 206.919111 227.074381 
L 212.772982 227.074381 
L 214.724272 245.060233 
L 218.626852 334.989492 
L 220.578143 334.989492 
L 222.529433 343.982417 
L 224.480723 343.982417 
L 226.432013 74.194641 
L 228.383303 74.194641 
L 230.334593 101.173419 
L 232.285884 101.173419 
L 234.237174 119.159271 
L 236.188464 119.159271 
L 240.091044 128.152197 
L 249.847495 128.152197 
L 251.798785 173.116826 
L 253.750076 173.116826 
L 255.701366 186.606215 
L 257.652656 222.577918 
L 261.555236 222.577918 
L 263.506527 249.556696 
L 267.409107 249.556696 
L 269.360397 294.521325 
L 277.165558 294.521325 
L 279.116848 303.514251 
L 283.019428 312.507177 
L 284.970719 312.507177 
L 286.922009 42.719401 
L 292.775879 42.719401 
L 294.727169 60.705253 
L 300.58104 60.705253 
L 302.53233 105.669882 
L 304.48362 105.669882 
L 306.434911 150.634511 
L 308.386201 150.634511 
L 310.337491 168.620363 
L 312.288781 168.620363 
L 314.240071 186.606215 
L 316.191361 200.095604 
L 322.045232 200.095604 
L 323.996522 227.074381 
L 329.850393 227.074381 
L 331.801683 245.060233 
L 335.704263 334.989492 
L 337.655553 334.989492 
L 339.606844 343.982417 
L 343.509424 343.982417 
L 345.460714 74.194641 
L 347.412004 74.194641 
L 349.363295 101.173419 
L 351.314585 101.173419 
L 353.265875 119.159271 
L 355.217165 119.159271 
L 359.119745 128.152197 
L 368.876196 128.152197 
L 370.827487 173.116826 
L 372.778777 173.116826 
L 374.730067 186.606215 
L 376.681357 222.577918 
L 380.583937 222.577918 
L 382.535228 249.556696 
L 386.437808 249.556696 
L 388.389098 294.521325 
L 396.194259 294.521325 
L 398.145549 303.514251 
L 402.048129 312.507177 
L 403.99942 312.507177 
L 405.95071 42.719401 
L 411.80458 42.719401 
L 413.75587 60.705253 
L 419.609741 60.705253 
L 421.561031 105.669882 
L 423.512321 105.669882 
L 425.463612 150.634511 
L 427.414902 150.634511 
L 429.366192 168.620363 
L 431.317482 168.620363 
L 433.268772 186.606215 
L 435.220062 200.095604 
L 441.073933 200.095604 
L 443.025223 227.074381 
L 448.879094 227.074381 
L 450.830384 245.060233 
L 454.732964 334.989492 
L 456.684254 334.989492 
L 458.635545 343.982417 
L 462.538125 343.982417 
L 464.489415 74.194641 
L 466.440705 74.194641 
L 468.391996 101.173419 
L 470.343286 101.173419 
L 472.294576 119.159271 
L 474.245866 119.159271 
L 478.148446 128.152197 
L 487.904897 128.152197 
L 489.856188 173.116826 
L 491.807478 173.116826 
L 493.758768 186.606215 
L 495.710058 222.577918 
L 499.612638 222.577918 
L 501.563929 249.556696 
L 505.466509 249.556696 
L 507.417799 294.521325 
L 515.22296 294.521325 
L 517.17425 303.514251 
L 521.07683 312.507177 
L 523.028121 312.507177 
L 524.979411 42.719401 
L 530.833281 42.719401 
L 532.784572 60.705253 
L 538.638442 60.705253 
L 540.589732 105.669882 
L 542.541022 105.669882 
L 544.492313 150.634511 
L 546.443603 150.634511 
L 548.394893 168.620363 
L 550.346183 168.620363 
L 552.297473 186.606215 
L 554.248763 200.095604 
L 560.102634 200.095604 
L 562.053924 227.074381 
L 567.907795 227.074381 
L 569.859085 245.060233 
L 573.761665 334.989492 
L 575.712955 334.989492 
L 577.664246 343.982417 
L 583.518116 343.982417 
L 585.469406 74.194641 
L 587.420697 74.194641 
L 589.371987 101.173419 
L 591.323277 101.173419 
L 593.274567 119.159271 
L 595.225857 119.159271 
L 599.128438 128.152197 
L 608.884889 128.152197 
L 610.836179 173.116826 
L 612.787469 173.116826 
L 614.738759 186.606215 
L 616.690049 222.577918 
L 620.59263 222.577918 
L 622.54392 249.556696 
L 626.4465 249.556696 
L 628.39779 294.521325 
L 636.202951 294.521325 
L 638.154241 303.514251 
L 642.056822 312.507177 
L 644.008112 42.719401 
L 649.861982 42.719401 
L 651.813273 60.705253 
L 657.667143 60.705253 
L 659.618433 105.669882 
L 661.569723 105.669882 
L 663.521014 150.634511 
L 665.472304 150.634511 
L 667.423594 168.620363 
L 669.374884 168.620363 
L 671.326174 186.606215 
L 673.277465 200.095604 
L 679.131335 200.095604 
L 681.082625 227.074381 
L 686.936496 227.074381 
L 688.887786 245.060233 
L 692.790366 334.989492 
L 694.741657 334.989492 
L 696.692947 343.982417 
L 702.546817 343.982417 
L 704.498107 74.194641 
L 706.449398 74.194641 
L 708.400688 101.173419 
L 710.351978 101.173419 
L 712.303268 119.159271 
L 714.254558 119.159271 
L 718.157139 128.152197 
L 727.91359 128.152197 
L 729.86488 173.116826 
L 731.81617 173.116826 
L 733.76746 186.606215 
L 735.71875 222.577918 
L 739.621331 222.577918 
L 741.572621 249.556696 
L 745.475201 249.556696 
L 747.426491 294.521325 
L 755.231652 294.521325 
L 757.182942 303.514251 
L 761.085523 312.507177 
L 763.036813 42.719401 
L 768.890683 42.719401 
L 770.841974 60.705253 
L 776.695844 60.705253 
L 778.647134 105.669882 
L 780.598424 105.669882 
L 782.549715 150.634511 
L 784.501005 150.634511 
L 786.452295 168.620363 
L 788.403585 168.620363 
L 790.354875 186.606215 
L 792.306166 200.095604 
L 798.160036 200.095604 
L 800.111326 227.074381 
L 805.965197 227.074381 
L 807.916487 245.060233 
L 811.819067 334.989492 
L 813.770358 334.989492 
L 815.721648 343.982417 
L 815.721648 343.982417 
" clip-path="url(#p9128fad593)" style="fill: none; stroke: #000000; stroke-width: 2; stroke-linecap: round"/>
   </g>
   <g id="patch_3">
    <path d="M 74.03625 359.045568 
L 74.03625 27.65625 
" style="fill: none; stroke: #cccccc; stroke-width: 1.25; stroke-linejoin: miter; stroke-linecap: square"/>
   </g>
   <g id="patch_4">
    <path d="M 851.04 359.045568 
L 851.04 27.65625 
" style="fill: none; stroke: #cccccc; stroke-width: 1.25; stroke-linejoin: miter; stroke-linecap: square"/>
   </g>
   <g id="patch_5">
    <path d="M 74.03625 359.045568 
L 851.04 359.045568 
" style="fill: none; stroke: #cccccc; stroke-width: 1.25; stroke-linejoin: miter; stroke-linecap: square"/>
   </g>
   <g id="patch_6">
    <path d="M 74.03625 27.65625 
L 851.04 27.65625 
" style="fill: none; stroke: #cccccc; stroke-width: 1.25; stroke-linejoin: miter; stroke-linecap: square"/>
   </g>
   <g id="text_18">
    <!-- LSP Liquidity Requirements -->
    <g style="fill: #262626" transform="translate(388.607812 21.65625) scale(0.12 -0.12)">
     <defs>
      <path id="ArialMT-53" d="M 288 1472 
L 859 1522 
Q 900 1178 1048 958 
Q 1197 738 1509 602 
Q 1822 466 2213 466 
Q 2559 466 2825 569 
Q 3091 672 3220 851 
Q 3350 1031 3350 1244 
Q 3350 1459 3225 1620 
Q 3100 1781 2813 1891 
Q 2628 1963 1997 2114 
Q 1366 2266 1113 2400 
Q 784 2572 623 2826 
Q 463 3081 463 3397 
Q 463 3744 659 4045 
Q 856 4347 1234 4503 
Q 1613 4659 2075 4659 
Q 2584 4659 2973 4495 
Q 3363 4331 3572 4012 
Q 3781 3694 3797 3291 
L 3216 3247 
Q 3169 3681 2898 3903 
Q 2628 4125 2100 4125 
Q 1550 4125 1298 3923 
Q 1047 3722 1047 3438 
Q 1047 3191 1225 3031 
Q 1400 2872 2139 2705 
Q 2878 2538 3153 2413 
Q 3553 2228 3743 1945 
Q 3934 1663 3934 1294 
Q 3934 928 3725 604 
Q 3516 281 3123 101 
Q 2731 -78 2241 -78 
Q 1619 -78 1198 103 
Q 778 284 539 648 
Q 300 1013 288 1472 
z
" transform="scale(0.015625)"/>
      <path id="ArialMT-50" d="M 494 0 
L 494 4581 
L 2222 4581 
Q 2678 4581 2919 4538 
Q 3256 4481 3484 4323 
Q 3713 4166 3852 3881 
Q 3991 3597 3991 3256 
Q 3991 2672 3619 2267 
Q 3247 1863 2275 1863 
L 1100 1863 
L 1100 0 
L 494 0 
z
M 1100 2403 
L 2284 2403 
Q 2872 2403 3119 2622 
Q 3366 2841 3366 3238 
Q 3366 3525 3220 3729 
Q 3075 3934 2838 4000 
Q 2684 4041 2272 4041 
L 1100 4041 
L 1100 2403 
z
" transform="scale(0.015625)"/>
      <path id="ArialMT-52" d="M 503 0 
L 503 4581 
L 2534 4581 
Q 3147 4581 3465 4457 
Q 3784 4334 3975 4021 
Q 4166 3709 4166 3331 
Q 4166 2844 3850 2509 
Q 3534 2175 2875 2084 
Q 3116 1969 3241 1856 
Q 3506 1613 3744 1247 
L 4541 0 
L 3778 0 
L 3172 953 
Q 2906 1366 2734 1584 
Q 2563 1803 2427 1890 
Q 2291 1978 2150 2013 
Q 2047 2034 1813 2034 
L 1109 2034 
L 1109 0 
L 503 0 
z
M 1109 2559 
L 2413 2559 
Q 2828 2559 3062 2645 
Q 3297 2731 3419 2920 
Q 3541 3109 3541 3331 
Q 3541 3656 3305 3865 
Q 3069 4075 2559 4075 
L 1109 4075 
L 1109 2559 
z
" transform="scale(0.015625)"/>
      <path id="ArialMT-72" d="M 416 0 
L 416 3319 
L 922 3319 
L 922 2816 
Q 1116 3169 1280 3281 
Q 1444 3394 1641 3394 
Q 1925 3394 2219 3213 
L 2025 2691 
Q 1819 2813 1613 2813 
Q 1428 2813 1281 2702 
Q 1134 2591 1072 2394 
Q 978 2094 978 1738 
L 978 0 
L 416 0 
z
" transform="scale(0.015625)"/>
      <path id="ArialMT-6e" d="M 422 0 
L 422 3319 
L 928 3319 
L 928 2847 
Q 1294 3394 1984 3394 
Q 2284 3394 2536 3286 
Q 2788 3178 2913 3003 
Q 3038 2828 3088 2588 
Q 3119 2431 3119 2041 
L 3119 0 
L 2556 0 
L 2556 2019 
Q 2556 2363 2490 2533 
Q 2425 2703 2258 2804 
Q 2091 2906 1866 2906 
Q 1506 2906 1245 2678 
Q 984 2450 984 1813 
L 984 0 
L 422 0 
z
" transform="scale(0.015625)"/>
     </defs>
     <use xlink:href="#ArialMT-4c"/>
     <use xlink:href="#ArialMT-53" x="55.615234"/>
     <use xlink:href="#ArialMT-50" x="122.314453"/>
     <use xlink:href="#ArialMT-20" x="187.263672"/>
     <use xlink:href="#ArialMT-4c" x="215.046875"/>
     <use xlink:href="#ArialMT-69" x="270.662109"/>
     <use xlink:href="#ArialMT-71" x="292.878906"/>
     <use xlink:href="#ArialMT-75" x="348.494141"/>
     <use xlink:href="#ArialMT-69" x="404.109375"/>
     <use xlink:href="#ArialMT-64" x="426.326172"/>
     <use xlink:href="#ArialMT-69" x="481.941406"/>
     <use xlink:href="#ArialMT-74" x="504.158203"/>
     <use xlink:href="#ArialMT-79" x="531.941406"/>
     <use xlink:href="#ArialMT-20" x="581.941406"/>
     <use xlink:href="#ArialMT-52" x="609.724609"/>
     <use xlink:href="#ArialMT-65" x="681.941406"/>
     <use xlink:href="#ArialMT-71" x="737.556641"/>
     <use xlink:href="#ArialMT-75" x="793.171875"/>
     <use xlink:href="#ArialMT-69" x="848.787109"/>
     <use xlink:href="#ArialMT-72" x="871.003906"/>
     <use xlink:href="#ArialMT-65" x="904.304688"/>
     <use xlink:href="#ArialMT-6d" x="959.919922"/>
     <use xlink:href="#ArialMT-65" x="1043.220703"/>
     <use xlink:href="#ArialMT-6e" x="1098.835938"/>
     <use xlink:href="#ArialMT-74" x="1154.451172"/>
     <use xlink:href="#ArialMT-73" x="1182.234375"/>
    </g>
   </g>
   <g id="legend_1">
    <g id="patch_7">
     <path d="M 700.541094 226.316534 
L 843.34 226.316534 
Q 845.54 226.316534 845.54 224.116534 
L 845.54 162.585284 
Q 845.54 160.385284 843.34 160.385284 
L 700.541094 160.385284 
Q 698.341094 160.385284 698.341094 162.585284 
L 698.341094 224.116534 
Q 698.341094 226.316534 700.541094 226.316534 
z
" style="fill: #ffffff; opacity: 0.8; stroke: #cccccc; stroke-linejoin: miter"/>
    </g>
    <g id="line2d_18">
     <path d="M 702.741094 168.808878 
L 713.741094 168.808878 
L 724.741094 168.808878 
" style="fill: none; stroke-dasharray: 5.55,2.4; stroke-dashoffset: 0; stroke: #808080; stroke-width: 1.5"/>
    </g>
    <g id="text_19">
     <!-- Channel size -->
     <g style="fill: #262626" transform="translate(733.541094 172.658878) scale(0.11 -0.11)">
      <defs>
       <path id="ArialMT-43" d="M 3763 1606 
L 4369 1453 
Q 4178 706 3683 314 
Q 3188 -78 2472 -78 
Q 1731 -78 1267 223 
Q 803 525 561 1097 
Q 319 1669 319 2325 
Q 319 3041 592 3573 
Q 866 4106 1370 4382 
Q 1875 4659 2481 4659 
Q 3169 4659 3637 4309 
Q 4106 3959 4291 3325 
L 3694 3184 
Q 3534 3684 3231 3912 
Q 2928 4141 2469 4141 
Q 1941 4141 1586 3887 
Q 1231 3634 1087 3207 
Q 944 2781 944 2328 
Q 944 1744 1114 1308 
Q 1284 872 1643 656 
Q 2003 441 2422 441 
Q 2931 441 3284 734 
Q 3638 1028 3763 1606 
z
" transform="scale(0.015625)"/>
       <path id="ArialMT-68" d="M 422 0 
L 422 4581 
L 984 4581 
L 984 2938 
Q 1378 3394 1978 3394 
Q 2347 3394 2619 3248 
Q 2891 3103 3008 2847 
Q 3125 2591 3125 2103 
L 3125 0 
L 2563 0 
L 2563 2103 
Q 2563 2525 2380 2717 
Q 2197 2909 1863 2909 
Q 1613 2909 1392 2779 
Q 1172 2650 1078 2428 
Q 984 2206 984 1816 
L 984 0 
L 422 0 
z
" transform="scale(0.015625)"/>
       <path id="ArialMT-7a" d="M 125 0 
L 125 456 
L 2238 2881 
Q 1878 2863 1603 2863 
L 250 2863 
L 250 3319 
L 2963 3319 
L 2963 2947 
L 1166 841 
L 819 456 
Q 1197 484 1528 484 
L 3063 484 
L 3063 0 
L 125 0 
z
" transform="scale(0.015625)"/>
      </defs>
      <use xlink:href="#ArialMT-43"/>
      <use xlink:href="#ArialMT-68" x="72.216797"/>
      <use xlink:href="#ArialMT-61" x="127.832031"/>
      <use xlink:href="#ArialMT-6e" x="183.447266"/>
      <use xlink:href="#ArialMT-6e" x="239.0625"/>
      <use xlink:href="#ArialMT-65" x="294.677734"/>
      <use xlink:href="#ArialMT-6c" x="350.292969"/>
      <use xlink:href="#ArialMT-20" x="372.509766"/>
      <use xlink:href="#ArialMT-73" x="400.292969"/>
      <use xlink:href="#ArialMT-69" x="450.292969"/>
      <use xlink:href="#ArialMT-7a" x="472.509766"/>
      <use xlink:href="#ArialMT-65" x="522.509766"/>
     </g>
    </g>
    <g id="patch_8">
     <path d="M 702.741094 188.352784 
L 724.741094 188.352784 
L 724.741094 180.652784 
L 702.741094 180.652784 
z
" style="fill: #87ceeb; fill-opacity: 0.5; stroke: #87ceeb; stroke-opacity: 0.5; stroke-linejoin: miter"/>
    </g>
    <g id="text_20">
     <!-- LSP-supplied liquidity -->
     <g style="fill: #262626" transform="translate(733.541094 188.352784) scale(0.11 -0.11)">
      <use xlink:href="#ArialMT-4c"/>
      <use xlink:href="#ArialMT-53" x="55.615234"/>
      <use xlink:href="#ArialMT-50" x="122.314453"/>
      <use xlink:href="#ArialMT-2d" x="189.013672"/>
      <use xlink:href="#ArialMT-73" x="222.314453"/>
      <use xlink:href="#ArialMT-75" x="272.314453"/>
      <use xlink:href="#ArialMT-70" x="327.929688"/>
      <use xlink:href="#ArialMT-70" x="383.544922"/>
      <use xlink:href="#ArialMT-6c" x="439.160156"/>
      <use xlink:href="#ArialMT-69" x="461.376953"/>
      <use xlink:href="#ArialMT-65" x="483.59375"/>
      <use xlink:href="#ArialMT-64" x="539.208984"/>
      <use xlink:href="#ArialMT-20" x="594.824219"/>
      <use xlink:href="#ArialMT-6c" x="622.607422"/>
      <use xlink:href="#ArialMT-69" x="644.824219"/>
      <use xlink:href="#ArialMT-71" x="667.041016"/>
      <use xlink:href="#ArialMT-75" x="722.65625"/>
      <use xlink:href="#ArialMT-69" x="778.271484"/>
      <use xlink:href="#ArialMT-64" x="800.488281"/>
      <use xlink:href="#ArialMT-69" x="856.103516"/>
      <use xlink:href="#ArialMT-74" x="878.320312"/>
      <use xlink:href="#ArialMT-79" x="906.103516"/>
     </g>
    </g>
    <g id="patch_9">
     <path d="M 702.741094 204.041534 
L 724.741094 204.041534 
L 724.741094 196.341534 
L 702.741094 196.341534 
z
" style="fill: #90ee90; fill-opacity: 0.5; stroke: #90ee90; stroke-opacity: 0.5; stroke-linejoin: miter"/>
    </g>
    <g id="text_21">
     <!-- User-supplied liquidity -->
     <g style="fill: #262626" transform="translate(733.541094 204.041534) scale(0.11 -0.11)">
      <defs>
       <path id="ArialMT-55" d="M 3500 4581 
L 4106 4581 
L 4106 1934 
Q 4106 1244 3950 837 
Q 3794 431 3386 176 
Q 2978 -78 2316 -78 
Q 1672 -78 1262 144 
Q 853 366 678 786 
Q 503 1206 503 1934 
L 503 4581 
L 1109 4581 
L 1109 1938 
Q 1109 1341 1220 1058 
Q 1331 775 1601 622 
Q 1872 469 2263 469 
Q 2931 469 3215 772 
Q 3500 1075 3500 1938 
L 3500 4581 
z
" transform="scale(0.015625)"/>
      </defs>
      <use xlink:href="#ArialMT-55"/>
      <use xlink:href="#ArialMT-73" x="72.216797"/>
      <use xlink:href="#ArialMT-65" x="122.216797"/>
      <use xlink:href="#ArialMT-72" x="177.832031"/>
      <use xlink:href="#ArialMT-2d" x="211.132812"/>
      <use xlink:href="#ArialMT-73" x="244.433594"/>
      <use xlink:href="#ArialMT-75" x="294.433594"/>
      <use xlink:href="#ArialMT-70" x="350.048828"/>
      <use xlink:href="#ArialMT-70" x="405.664062"/>
      <use xlink:href="#ArialMT-6c" x="461.279297"/>
      <use xlink:href="#ArialMT-69" x="483.496094"/>
      <use xlink:href="#ArialMT-65" x="505.712891"/>
      <use xlink:href="#ArialMT-64" x="561.328125"/>
      <use xlink:href="#ArialMT-20" x="616.943359"/>
      <use xlink:href="#ArialMT-6c" x="644.726562"/>
      <use xlink:href="#ArialMT-69" x="666.943359"/>
      <use xlink:href="#ArialMT-71" x="689.160156"/>
      <use xlink:href="#ArialMT-75" x="744.775391"/>
      <use xlink:href="#ArialMT-69" x="800.390625"/>
      <use xlink:href="#ArialMT-64" x="822.607422"/>
      <use xlink:href="#ArialMT-69" x="878.222656"/>
      <use xlink:href="#ArialMT-74" x="900.439453"/>
      <use xlink:href="#ArialMT-79" x="928.222656"/>
     </g>
    </g>
    <g id="line2d_19">
     <path d="M 702.741094 215.880284 
L 713.741094 215.880284 
L 724.741094 215.880284 
" style="fill: none; stroke: #000000; stroke-width: 2; stroke-linecap: round"/>
    </g>
    <g id="text_22">
     <!-- User account balance -->
     <g style="fill: #262626" transform="translate(733.541094 219.730284) scale(0.11 -0.11)">
      <defs>
       <path id="ArialMT-63" d="M 2588 1216 
L 3141 1144 
Q 3050 572 2676 248 
Q 2303 -75 1759 -75 
Q 1078 -75 664 370 
Q 250 816 250 1647 
Q 250 2184 428 2587 
Q 606 2991 970 3192 
Q 1334 3394 1763 3394 
Q 2303 3394 2647 3120 
Q 2991 2847 3088 2344 
L 2541 2259 
Q 2463 2594 2264 2762 
Q 2066 2931 1784 2931 
Q 1359 2931 1093 2626 
Q 828 2322 828 1663 
Q 828 994 1084 691 
Q 1341 388 1753 388 
Q 2084 388 2306 591 
Q 2528 794 2588 1216 
z
" transform="scale(0.015625)"/>
       <path id="ArialMT-62" d="M 941 0 
L 419 0 
L 419 4581 
L 981 4581 
L 981 2947 
Q 1338 3394 1891 3394 
Q 2197 3394 2470 3270 
Q 2744 3147 2920 2923 
Q 3097 2700 3197 2384 
Q 3297 2069 3297 1709 
Q 3297 856 2875 390 
Q 2453 -75 1863 -75 
Q 1275 -75 941 416 
L 941 0 
z
M 934 1684 
Q 934 1088 1097 822 
Q 1363 388 1816 388 
Q 2184 388 2453 708 
Q 2722 1028 2722 1663 
Q 2722 2313 2464 2622 
Q 2206 2931 1841 2931 
Q 1472 2931 1203 2611 
Q 934 2291 934 1684 
z
" transform="scale(0.015625)"/>
      </defs>
      <use xlink:href="#ArialMT-55"/>
      <use xlink:href="#ArialMT-73" x="72.216797"/>
      <use xlink:href="#ArialMT-65" x="122.216797"/>
      <use xlink:href="#ArialMT-72" x="177.832031"/>
      <use xlink:href="#ArialMT-20" x="211.132812"/>
      <use xlink:href="#ArialMT-61" x="238.916016"/>
      <use xlink:href="#ArialMT-63" x="294.53125"/>
      <use xlink:href="#ArialMT-63" x="344.53125"/>
      <use xlink:href="#ArialMT-6f" x="394.53125"/>
      <use xlink:href="#ArialMT-75" x="450.146484"/>
      <use xlink:href="#ArialMT-6e" x="505.761719"/>
      <use xlink:href="#ArialMT-74" x="561.376953"/>
      <use xlink:href="#ArialMT-20" x="589.160156"/>
      <use xlink:href="#ArialMT-62" x="616.943359"/>
      <use xlink:href="#ArialMT-61" x="672.558594"/>
      <use xlink:href="#ArialMT-6c" x="728.173828"/>
      <use xlink:href="#ArialMT-61" x="750.390625"/>
      <use xlink:href="#ArialMT-6e" x="806.005859"/>
      <use xlink:href="#ArialMT-63" x="861.621094"/>
      <use xlink:href="#ArialMT-65" x="911.621094"/>
     </g>
    </g>
   </g>
  </g>
 </g>
 <defs>
  <clipPath id="p9128fad593">
   <rect x="74.03625" y="27.65625" width="777.00375" height="331.389318"/>
  </clipPath>
 </defs>
</svg>
