<?xml version="1.0" encoding="utf-8" standalone="no"?>
<!DOCTYPE svg PUBLIC "-//W3C//DTD SVG 1.1//EN"
  "http://www.w3.org/Graphics/SVG/1.1/DTD/svg11.dtd">
<svg xmlns:xlink="http://www.w3.org/1999/xlink" width="864pt" height="432pt" viewBox="0 0 864 432" xmlns="http://www.w3.org/2000/svg" version="1.1">
 <metadata>
  <rdf:RDF xmlns:dc="http://purl.org/dc/elements/1.1/" xmlns:cc="http://creativecommons.org/ns#" xmlns:rdf="http://www.w3.org/1999/02/22-rdf-syntax-ns#">
   <cc:Work>
    <dc:type rdf:resource="http://purl.org/dc/dcmitype/StillImage"/>
    <dc:date>2025-04-26T01:01:42.929083</dc:date>
    <dc:format>image/svg+xml</dc:format>
    <dc:creator>
     <cc:Agent>
      <dc:title>Matplotlib v3.9.3, https://matplotlib.org/</dc:title>
     </cc:Agent>
    </dc:creator>
   </cc:Work>
  </rdf:RDF>
 </metadata>
 <defs>
  <style type="text/css">*{stroke-linejoin: round; stroke-linecap: butt}</style>
 </defs>
 <g id="figure_1">
  <g id="patch_1">
   <path d="M 0 432 
L 864 432 
L 864 0 
L 0 0 
z
" style="fill: #ffffff"/>
  </g>
  <g id="axes_1">
   <g id="patch_2">
    <path d="M 74.03625 359.045568 
L 851.04 359.045568 
L 851.04 27.65625 
L 74.03625 27.65625 
z
" style="fill: #ffffff"/>
   </g>
   <g id="matplotlib.axis_1">
    <g id="xtick_1">
     <g id="line2d_1">
      <path d="M 109.354602 359.045568 
L 109.354602 27.65625 
" clip-path="url(#p5314a57380)" style="fill: none; stroke: #cccccc; stroke-opacity: 0.5; stroke-linecap: round"/>
     </g>
     <g id="text_1">
      <!-- 2024-01 -->
      <g style="fill: #262626" transform="translate(97.094255 402.655294) rotate(-45) scale(0.11 -0.11)">
       <defs>
        <path id="ArialMT-32" d="M 3222 541 
L 3222 0 
L 194 0 
Q 188 203 259 391 
Q 375 700 629 1000 
Q 884 1300 1366 1694 
Q 2113 2306 2375 2664 
Q 2638 3022 2638 3341 
Q 2638 3675 2398 3904 
Q 2159 4134 1775 4134 
Q 1369 4134 1125 3890 
Q 881 3647 878 3216 
L 300 3275 
Q 359 3922 746 4261 
Q 1134 4600 1788 4600 
Q 2447 4600 2831 4234 
Q 3216 3869 3216 3328 
Q 3216 3053 3103 2787 
Q 2991 2522 2730 2228 
Q 2469 1934 1863 1422 
Q 1356 997 1212 845 
Q 1069 694 975 541 
L 3222 541 
z
" transform="scale(0.015625)"/>
        <path id="ArialMT-30" d="M 266 2259 
Q 266 3072 433 3567 
Q 600 4063 929 4331 
Q 1259 4600 1759 4600 
Q 2128 4600 2406 4451 
Q 2684 4303 2865 4023 
Q 3047 3744 3150 3342 
Q 3253 2941 3253 2259 
Q 3253 1453 3087 958 
Q 2922 463 2592 192 
Q 2263 -78 1759 -78 
Q 1097 -78 719 397 
Q 266 969 266 2259 
z
M 844 2259 
Q 844 1131 1108 757 
Q 1372 384 1759 384 
Q 2147 384 2411 759 
Q 2675 1134 2675 2259 
Q 2675 3391 2411 3762 
Q 2147 4134 1753 4134 
Q 1366 4134 1134 3806 
Q 844 3388 844 2259 
z
" transform="scale(0.015625)"/>
        <path id="ArialMT-34" d="M 2069 0 
L 2069 1097 
L 81 1097 
L 81 1613 
L 2172 4581 
L 2631 4581 
L 2631 1613 
L 3250 1613 
L 3250 1097 
L 2631 1097 
L 2631 0 
L 2069 0 
z
M 2069 1613 
L 2069 3678 
L 634 1613 
L 2069 1613 
z
" transform="scale(0.015625)"/>
        <path id="ArialMT-2d" d="M 203 1375 
L 203 1941 
L 1931 1941 
L 1931 1375 
L 203 1375 
z
" transform="scale(0.015625)"/>
        <path id="ArialMT-31" d="M 2384 0 
L 1822 0 
L 1822 3584 
Q 1619 3391 1289 3197 
Q 959 3003 697 2906 
L 697 3450 
Q 1169 3672 1522 3987 
Q 1875 4303 2022 4600 
L 2384 4600 
L 2384 0 
z
" transform="scale(0.015625)"/>
       </defs>
       <use xlink:href="#ArialMT-32"/>
       <use xlink:href="#ArialMT-30" x="55.615234"/>
       <use xlink:href="#ArialMT-32" x="111.230469"/>
       <use xlink:href="#ArialMT-34" x="166.845703"/>
       <use xlink:href="#ArialMT-2d" x="222.460938"/>
       <use xlink:href="#ArialMT-30" x="255.761719"/>
       <use xlink:href="#ArialMT-31" x="311.376953"/>
      </g>
     </g>
    </g>
    <g id="xtick_2">
     <g id="line2d_2">
      <path d="M 226.109486 359.045568 
L 226.109486 27.65625 
" clip-path="url(#p5314a57380)" style="fill: none; stroke: #cccccc; stroke-opacity: 0.5; stroke-linecap: round"/>
     </g>
     <g id="text_2">
      <!-- 2024-03 -->
      <g style="fill: #262626" transform="translate(213.849138 402.655294) rotate(-45) scale(0.11 -0.11)">
       <defs>
        <path id="ArialMT-33" d="M 269 1209 
L 831 1284 
Q 928 806 1161 595 
Q 1394 384 1728 384 
Q 2125 384 2398 659 
Q 2672 934 2672 1341 
Q 2672 1728 2419 1979 
Q 2166 2231 1775 2231 
Q 1616 2231 1378 2169 
L 1441 2663 
Q 1497 2656 1531 2656 
Q 1891 2656 2178 2843 
Q 2466 3031 2466 3422 
Q 2466 3731 2256 3934 
Q 2047 4138 1716 4138 
Q 1388 4138 1169 3931 
Q 950 3725 888 3313 
L 325 3413 
Q 428 3978 793 4289 
Q 1159 4600 1703 4600 
Q 2078 4600 2393 4439 
Q 2709 4278 2876 4000 
Q 3044 3722 3044 3409 
Q 3044 3113 2884 2869 
Q 2725 2625 2413 2481 
Q 2819 2388 3044 2092 
Q 3269 1797 3269 1353 
Q 3269 753 2831 336 
Q 2394 -81 1725 -81 
Q 1122 -81 723 278 
Q 325 638 269 1209 
z
" transform="scale(0.015625)"/>
       </defs>
       <use xlink:href="#ArialMT-32"/>
       <use xlink:href="#ArialMT-30" x="55.615234"/>
       <use xlink:href="#ArialMT-32" x="111.230469"/>
       <use xlink:href="#ArialMT-34" x="166.845703"/>
       <use xlink:href="#ArialMT-2d" x="222.460938"/>
       <use xlink:href="#ArialMT-30" x="255.761719"/>
       <use xlink:href="#ArialMT-33" x="311.376953"/>
      </g>
     </g>
    </g>
    <g id="xtick_3">
     <g id="line2d_3">
      <path d="M 344.810284 359.045568 
L 344.810284 27.65625 
" clip-path="url(#p5314a57380)" style="fill: none; stroke: #cccccc; stroke-opacity: 0.5; stroke-linecap: round"/>
     </g>
     <g id="text_3">
      <!-- 2024-05 -->
      <g style="fill: #262626" transform="translate(332.549936 402.655294) rotate(-45) scale(0.11 -0.11)">
       <defs>
        <path id="ArialMT-35" d="M 266 1200 
L 856 1250 
Q 922 819 1161 601 
Q 1400 384 1738 384 
Q 2144 384 2425 690 
Q 2706 997 2706 1503 
Q 2706 1984 2436 2262 
Q 2166 2541 1728 2541 
Q 1456 2541 1237 2417 
Q 1019 2294 894 2097 
L 366 2166 
L 809 4519 
L 3088 4519 
L 3088 3981 
L 1259 3981 
L 1013 2750 
Q 1425 3038 1878 3038 
Q 2478 3038 2890 2622 
Q 3303 2206 3303 1553 
Q 3303 931 2941 478 
Q 2500 -78 1738 -78 
Q 1113 -78 717 272 
Q 322 622 266 1200 
z
" transform="scale(0.015625)"/>
       </defs>
       <use xlink:href="#ArialMT-32"/>
       <use xlink:href="#ArialMT-30" x="55.615234"/>
       <use xlink:href="#ArialMT-32" x="111.230469"/>
       <use xlink:href="#ArialMT-34" x="166.845703"/>
       <use xlink:href="#ArialMT-2d" x="222.460938"/>
       <use xlink:href="#ArialMT-30" x="255.761719"/>
       <use xlink:href="#ArialMT-35" x="311.376953"/>
      </g>
     </g>
    </g>
    <g id="xtick_4">
     <g id="line2d_4">
      <path d="M 463.511082 359.045568 
L 463.511082 27.65625 
" clip-path="url(#p5314a57380)" style="fill: none; stroke: #cccccc; stroke-opacity: 0.5; stroke-linecap: round"/>
     </g>
     <g id="text_4">
      <!-- 2024-07 -->
      <g style="fill: #262626" transform="translate(451.250735 402.655294) rotate(-45) scale(0.11 -0.11)">
       <defs>
        <path id="ArialMT-37" d="M 303 3981 
L 303 4522 
L 3269 4522 
L 3269 4084 
Q 2831 3619 2401 2847 
Q 1972 2075 1738 1259 
Q 1569 684 1522 0 
L 944 0 
Q 953 541 1156 1306 
Q 1359 2072 1739 2783 
Q 2119 3494 2547 3981 
L 303 3981 
z
" transform="scale(0.015625)"/>
       </defs>
       <use xlink:href="#ArialMT-32"/>
       <use xlink:href="#ArialMT-30" x="55.615234"/>
       <use xlink:href="#ArialMT-32" x="111.230469"/>
       <use xlink:href="#ArialMT-34" x="166.845703"/>
       <use xlink:href="#ArialMT-2d" x="222.460938"/>
       <use xlink:href="#ArialMT-30" x="255.761719"/>
       <use xlink:href="#ArialMT-37" x="311.376953"/>
      </g>
     </g>
    </g>
    <g id="xtick_5">
     <g id="line2d_5">
      <path d="M 584.157795 359.045568 
L 584.157795 27.65625 
" clip-path="url(#p5314a57380)" style="fill: none; stroke: #cccccc; stroke-opacity: 0.5; stroke-linecap: round"/>
     </g>
     <g id="text_5">
      <!-- 2024-09 -->
      <g style="fill: #262626" transform="translate(571.897448 402.655294) rotate(-45) scale(0.11 -0.11)">
       <defs>
        <path id="ArialMT-39" d="M 350 1059 
L 891 1109 
Q 959 728 1153 556 
Q 1347 384 1650 384 
Q 1909 384 2104 503 
Q 2300 622 2425 820 
Q 2550 1019 2634 1356 
Q 2719 1694 2719 2044 
Q 2719 2081 2716 2156 
Q 2547 1888 2255 1720 
Q 1963 1553 1622 1553 
Q 1053 1553 659 1965 
Q 266 2378 266 3053 
Q 266 3750 677 4175 
Q 1088 4600 1706 4600 
Q 2153 4600 2523 4359 
Q 2894 4119 3086 3673 
Q 3278 3228 3278 2384 
Q 3278 1506 3087 986 
Q 2897 466 2520 194 
Q 2144 -78 1638 -78 
Q 1100 -78 759 220 
Q 419 519 350 1059 
z
M 2653 3081 
Q 2653 3566 2395 3850 
Q 2138 4134 1775 4134 
Q 1400 4134 1122 3828 
Q 844 3522 844 3034 
Q 844 2597 1108 2323 
Q 1372 2050 1759 2050 
Q 2150 2050 2401 2323 
Q 2653 2597 2653 3081 
z
" transform="scale(0.015625)"/>
       </defs>
       <use xlink:href="#ArialMT-32"/>
       <use xlink:href="#ArialMT-30" x="55.615234"/>
       <use xlink:href="#ArialMT-32" x="111.230469"/>
       <use xlink:href="#ArialMT-34" x="166.845703"/>
       <use xlink:href="#ArialMT-2d" x="222.460938"/>
       <use xlink:href="#ArialMT-30" x="255.761719"/>
       <use xlink:href="#ArialMT-39" x="311.376953"/>
      </g>
     </g>
    </g>
    <g id="xtick_6">
     <g id="line2d_6">
      <path d="M 702.858594 359.045568 
L 702.858594 27.65625 
" clip-path="url(#p5314a57380)" style="fill: none; stroke: #cccccc; stroke-opacity: 0.5; stroke-linecap: round"/>
     </g>
     <g id="text_6">
      <!-- 2024-11 -->
      <g style="fill: #262626" transform="translate(690.885066 402.081654) rotate(-45) scale(0.11 -0.11)">
       <use xlink:href="#ArialMT-32"/>
       <use xlink:href="#ArialMT-30" x="55.615234"/>
       <use xlink:href="#ArialMT-32" x="111.230469"/>
       <use xlink:href="#ArialMT-34" x="166.845703"/>
       <use xlink:href="#ArialMT-2d" x="222.460938"/>
       <use xlink:href="#ArialMT-31" x="255.761719"/>
       <use xlink:href="#ArialMT-31" x="304.001953"/>
      </g>
     </g>
    </g>
    <g id="xtick_7">
     <g id="line2d_7">
      <path d="M 821.559392 359.045568 
L 821.559392 27.65625 
" clip-path="url(#p5314a57380)" style="fill: none; stroke: #cccccc; stroke-opacity: 0.5; stroke-linecap: round"/>
     </g>
     <g id="text_7">
      <!-- 2025-01 -->
      <g style="fill: #262626" transform="translate(809.299044 402.655294) rotate(-45) scale(0.11 -0.11)">
       <use xlink:href="#ArialMT-32"/>
       <use xlink:href="#ArialMT-30" x="55.615234"/>
       <use xlink:href="#ArialMT-32" x="111.230469"/>
       <use xlink:href="#ArialMT-35" x="166.845703"/>
       <use xlink:href="#ArialMT-2d" x="222.460938"/>
       <use xlink:href="#ArialMT-30" x="255.761719"/>
       <use xlink:href="#ArialMT-31" x="311.376953"/>
      </g>
     </g>
    </g>
    <g id="text_8">
     <!-- Timestamp -->
     <g style="fill: #262626" transform="translate(433.093125 416.790582) scale(0.12 -0.12)">
      <defs>
       <path id="ArialMT-54" d="M 1659 0 
L 1659 4041 
L 150 4041 
L 150 4581 
L 3781 4581 
L 3781 4041 
L 2266 4041 
L 2266 0 
L 1659 0 
z
" transform="scale(0.015625)"/>
       <path id="ArialMT-69" d="M 425 3934 
L 425 4581 
L 988 4581 
L 988 3934 
L 425 3934 
z
M 425 0 
L 425 3319 
L 988 3319 
L 988 0 
L 425 0 
z
" transform="scale(0.015625)"/>
       <path id="ArialMT-6d" d="M 422 0 
L 422 3319 
L 925 3319 
L 925 2853 
Q 1081 3097 1340 3245 
Q 1600 3394 1931 3394 
Q 2300 3394 2536 3241 
Q 2772 3088 2869 2813 
Q 3263 3394 3894 3394 
Q 4388 3394 4653 3120 
Q 4919 2847 4919 2278 
L 4919 0 
L 4359 0 
L 4359 2091 
Q 4359 2428 4304 2576 
Q 4250 2725 4106 2815 
Q 3963 2906 3769 2906 
Q 3419 2906 3187 2673 
Q 2956 2441 2956 1928 
L 2956 0 
L 2394 0 
L 2394 2156 
Q 2394 2531 2256 2718 
Q 2119 2906 1806 2906 
Q 1569 2906 1367 2781 
Q 1166 2656 1075 2415 
Q 984 2175 984 1722 
L 984 0 
L 422 0 
z
" transform="scale(0.015625)"/>
       <path id="ArialMT-65" d="M 2694 1069 
L 3275 997 
Q 3138 488 2766 206 
Q 2394 -75 1816 -75 
Q 1088 -75 661 373 
Q 234 822 234 1631 
Q 234 2469 665 2931 
Q 1097 3394 1784 3394 
Q 2450 3394 2872 2941 
Q 3294 2488 3294 1666 
Q 3294 1616 3291 1516 
L 816 1516 
Q 847 969 1125 678 
Q 1403 388 1819 388 
Q 2128 388 2347 550 
Q 2566 713 2694 1069 
z
M 847 1978 
L 2700 1978 
Q 2663 2397 2488 2606 
Q 2219 2931 1791 2931 
Q 1403 2931 1139 2672 
Q 875 2413 847 1978 
z
" transform="scale(0.015625)"/>
       <path id="ArialMT-73" d="M 197 991 
L 753 1078 
Q 800 744 1014 566 
Q 1228 388 1613 388 
Q 2000 388 2187 545 
Q 2375 703 2375 916 
Q 2375 1106 2209 1216 
Q 2094 1291 1634 1406 
Q 1016 1563 777 1677 
Q 538 1791 414 1992 
Q 291 2194 291 2438 
Q 291 2659 392 2848 
Q 494 3038 669 3163 
Q 800 3259 1026 3326 
Q 1253 3394 1513 3394 
Q 1903 3394 2198 3281 
Q 2494 3169 2634 2976 
Q 2775 2784 2828 2463 
L 2278 2388 
Q 2241 2644 2061 2787 
Q 1881 2931 1553 2931 
Q 1166 2931 1000 2803 
Q 834 2675 834 2503 
Q 834 2394 903 2306 
Q 972 2216 1119 2156 
Q 1203 2125 1616 2013 
Q 2213 1853 2448 1751 
Q 2684 1650 2818 1456 
Q 2953 1263 2953 975 
Q 2953 694 2789 445 
Q 2625 197 2315 61 
Q 2006 -75 1616 -75 
Q 969 -75 630 194 
Q 291 463 197 991 
z
" transform="scale(0.015625)"/>
       <path id="ArialMT-74" d="M 1650 503 
L 1731 6 
Q 1494 -44 1306 -44 
Q 1000 -44 831 53 
Q 663 150 594 308 
Q 525 466 525 972 
L 525 2881 
L 113 2881 
L 113 3319 
L 525 3319 
L 525 4141 
L 1084 4478 
L 1084 3319 
L 1650 3319 
L 1650 2881 
L 1084 2881 
L 1084 941 
Q 1084 700 1114 631 
Q 1144 563 1211 522 
Q 1278 481 1403 481 
Q 1497 481 1650 503 
z
" transform="scale(0.015625)"/>
       <path id="ArialMT-61" d="M 2588 409 
Q 2275 144 1986 34 
Q 1697 -75 1366 -75 
Q 819 -75 525 192 
Q 231 459 231 875 
Q 231 1119 342 1320 
Q 453 1522 633 1644 
Q 813 1766 1038 1828 
Q 1203 1872 1538 1913 
Q 2219 1994 2541 2106 
Q 2544 2222 2544 2253 
Q 2544 2597 2384 2738 
Q 2169 2928 1744 2928 
Q 1347 2928 1158 2789 
Q 969 2650 878 2297 
L 328 2372 
Q 403 2725 575 2942 
Q 747 3159 1072 3276 
Q 1397 3394 1825 3394 
Q 2250 3394 2515 3294 
Q 2781 3194 2906 3042 
Q 3031 2891 3081 2659 
Q 3109 2516 3109 2141 
L 3109 1391 
Q 3109 606 3145 398 
Q 3181 191 3288 0 
L 2700 0 
Q 2613 175 2588 409 
z
M 2541 1666 
Q 2234 1541 1622 1453 
Q 1275 1403 1131 1340 
Q 988 1278 909 1158 
Q 831 1038 831 891 
Q 831 666 1001 516 
Q 1172 366 1500 366 
Q 1825 366 2078 508 
Q 2331 650 2450 897 
Q 2541 1088 2541 1459 
L 2541 1666 
z
" transform="scale(0.015625)"/>
       <path id="ArialMT-70" d="M 422 -1272 
L 422 3319 
L 934 3319 
L 934 2888 
Q 1116 3141 1344 3267 
Q 1572 3394 1897 3394 
Q 2322 3394 2647 3175 
Q 2972 2956 3137 2557 
Q 3303 2159 3303 1684 
Q 3303 1175 3120 767 
Q 2938 359 2589 142 
Q 2241 -75 1856 -75 
Q 1575 -75 1351 44 
Q 1128 163 984 344 
L 984 -1272 
L 422 -1272 
z
M 931 1641 
Q 931 1000 1190 694 
Q 1450 388 1819 388 
Q 2194 388 2461 705 
Q 2728 1022 2728 1688 
Q 2728 2322 2467 2637 
Q 2206 2953 1844 2953 
Q 1484 2953 1207 2617 
Q 931 2281 931 1641 
z
" transform="scale(0.015625)"/>
      </defs>
      <use xlink:href="#ArialMT-54"/>
      <use xlink:href="#ArialMT-69" x="57.333984"/>
      <use xlink:href="#ArialMT-6d" x="79.550781"/>
      <use xlink:href="#ArialMT-65" x="162.851562"/>
      <use xlink:href="#ArialMT-73" x="218.466797"/>
      <use xlink:href="#ArialMT-74" x="268.466797"/>
      <use xlink:href="#ArialMT-61" x="296.25"/>
      <use xlink:href="#ArialMT-6d" x="351.865234"/>
      <use xlink:href="#ArialMT-70" x="435.166016"/>
     </g>
    </g>
   </g>
   <g id="matplotlib.axis_2">
    <g id="ytick_1">
     <g id="line2d_8">
      <path d="M 74.03625 343.982417 
L 851.04 343.982417 
" clip-path="url(#p5314a57380)" style="fill: none; stroke: #cccccc; stroke-opacity: 0.5; stroke-linecap: round"/>
     </g>
     <g id="text_9">
      <!-- 0 -->
      <g style="fill: #262626" transform="translate(58.419219 347.919214) scale(0.11 -0.11)">
       <use xlink:href="#ArialMT-30"/>
      </g>
     </g>
    </g>
    <g id="ytick_2">
     <g id="line2d_9">
      <path d="M 74.03625 298.336506 
L 851.04 298.336506 
" clip-path="url(#p5314a57380)" style="fill: none; stroke: #cccccc; stroke-opacity: 0.5; stroke-linecap: round"/>
     </g>
     <g id="text_10">
      <!-- 50000 -->
      <g style="fill: #262626" transform="translate(33.951094 302.273303) scale(0.11 -0.11)">
       <use xlink:href="#ArialMT-35"/>
       <use xlink:href="#ArialMT-30" x="55.615234"/>
       <use xlink:href="#ArialMT-30" x="111.230469"/>
       <use xlink:href="#ArialMT-30" x="166.845703"/>
       <use xlink:href="#ArialMT-30" x="222.460938"/>
      </g>
     </g>
    </g>
    <g id="ytick_3">
     <g id="line2d_10">
      <path d="M 74.03625 252.690594 
L 851.04 252.690594 
" clip-path="url(#p5314a57380)" style="fill: none; stroke: #cccccc; stroke-opacity: 0.5; stroke-linecap: round"/>
     </g>
     <g id="text_11">
      <!-- 100000 -->
      <g style="fill: #262626" transform="translate(27.834063 256.627391) scale(0.11 -0.11)">
       <use xlink:href="#ArialMT-31"/>
       <use xlink:href="#ArialMT-30" x="55.615234"/>
       <use xlink:href="#ArialMT-30" x="111.230469"/>
       <use xlink:href="#ArialMT-30" x="166.845703"/>
       <use xlink:href="#ArialMT-30" x="222.460938"/>
       <use xlink:href="#ArialMT-30" x="278.076172"/>
      </g>
     </g>
    </g>
    <g id="ytick_4">
     <g id="line2d_11">
      <path d="M 74.03625 207.044683 
L 851.04 207.044683 
" clip-path="url(#p5314a57380)" style="fill: none; stroke: #cccccc; stroke-opacity: 0.5; stroke-linecap: round"/>
     </g>
     <g id="text_12">
      <!-- 150000 -->
      <g style="fill: #262626" transform="translate(27.834063 210.981479) scale(0.11 -0.11)">
       <use xlink:href="#ArialMT-31"/>
       <use xlink:href="#ArialMT-35" x="55.615234"/>
       <use xlink:href="#ArialMT-30" x="111.230469"/>
       <use xlink:href="#ArialMT-30" x="166.845703"/>
       <use xlink:href="#ArialMT-30" x="222.460938"/>
       <use xlink:href="#ArialMT-30" x="278.076172"/>
      </g>
     </g>
    </g>
    <g id="ytick_5">
     <g id="line2d_12">
      <path d="M 74.03625 161.398771 
L 851.04 161.398771 
" clip-path="url(#p5314a57380)" style="fill: none; stroke: #cccccc; stroke-opacity: 0.5; stroke-linecap: round"/>
     </g>
     <g id="text_13">
      <!-- 200000 -->
      <g style="fill: #262626" transform="translate(27.834063 165.335568) scale(0.11 -0.11)">
       <use xlink:href="#ArialMT-32"/>
       <use xlink:href="#ArialMT-30" x="55.615234"/>
       <use xlink:href="#ArialMT-30" x="111.230469"/>
       <use xlink:href="#ArialMT-30" x="166.845703"/>
       <use xlink:href="#ArialMT-30" x="222.460938"/>
       <use xlink:href="#ArialMT-30" x="278.076172"/>
      </g>
     </g>
    </g>
    <g id="ytick_6">
     <g id="line2d_13">
      <path d="M 74.03625 115.752859 
L 851.04 115.752859 
" clip-path="url(#p5314a57380)" style="fill: none; stroke: #cccccc; stroke-opacity: 0.5; stroke-linecap: round"/>
     </g>
     <g id="text_14">
      <!-- 250000 -->
      <g style="fill: #262626" transform="translate(27.834063 119.689656) scale(0.11 -0.11)">
       <use xlink:href="#ArialMT-32"/>
       <use xlink:href="#ArialMT-35" x="55.615234"/>
       <use xlink:href="#ArialMT-30" x="111.230469"/>
       <use xlink:href="#ArialMT-30" x="166.845703"/>
       <use xlink:href="#ArialMT-30" x="222.460938"/>
       <use xlink:href="#ArialMT-30" x="278.076172"/>
      </g>
     </g>
    </g>
    <g id="ytick_7">
     <g id="line2d_14">
      <path d="M 74.03625 70.106948 
L 851.04 70.106948 
" clip-path="url(#p5314a57380)" style="fill: none; stroke: #cccccc; stroke-opacity: 0.5; stroke-linecap: round"/>
     </g>
     <g id="text_15">
      <!-- 300000 -->
      <g style="fill: #262626" transform="translate(27.834063 74.043745) scale(0.11 -0.11)">
       <use xlink:href="#ArialMT-33"/>
       <use xlink:href="#ArialMT-30" x="55.615234"/>
       <use xlink:href="#ArialMT-30" x="111.230469"/>
       <use xlink:href="#ArialMT-30" x="166.845703"/>
       <use xlink:href="#ArialMT-30" x="222.460938"/>
       <use xlink:href="#ArialMT-30" x="278.076172"/>
      </g>
     </g>
    </g>
    <g id="text_16">
     <!-- Total Liquidity (sats) -->
     <g style="fill: #262626" transform="translate(21.308438 246.366534) rotate(-90) scale(0.12 -0.12)">
      <defs>
       <path id="ArialMT-6f" d="M 213 1659 
Q 213 2581 725 3025 
Q 1153 3394 1769 3394 
Q 2453 3394 2887 2945 
Q 3322 2497 3322 1706 
Q 3322 1066 3130 698 
Q 2938 331 2570 128 
Q 2203 -75 1769 -75 
Q 1072 -75 642 372 
Q 213 819 213 1659 
z
M 791 1659 
Q 791 1022 1069 705 
Q 1347 388 1769 388 
Q 2188 388 2466 706 
Q 2744 1025 2744 1678 
Q 2744 2294 2464 2611 
Q 2184 2928 1769 2928 
Q 1347 2928 1069 2612 
Q 791 2297 791 1659 
z
" transform="scale(0.015625)"/>
       <path id="ArialMT-6c" d="M 409 0 
L 409 4581 
L 972 4581 
L 972 0 
L 409 0 
z
" transform="scale(0.015625)"/>
       <path id="ArialMT-20" transform="scale(0.015625)"/>
       <path id="ArialMT-4c" d="M 469 0 
L 469 4581 
L 1075 4581 
L 1075 541 
L 3331 541 
L 3331 0 
L 469 0 
z
" transform="scale(0.015625)"/>
       <path id="ArialMT-71" d="M 2538 -1272 
L 2538 353 
Q 2406 169 2170 47 
Q 1934 -75 1669 -75 
Q 1078 -75 651 397 
Q 225 869 225 1691 
Q 225 2191 398 2587 
Q 572 2984 901 3189 
Q 1231 3394 1625 3394 
Q 2241 3394 2594 2875 
L 2594 3319 
L 3100 3319 
L 3100 -1272 
L 2538 -1272 
z
M 803 1669 
Q 803 1028 1072 708 
Q 1341 388 1716 388 
Q 2075 388 2334 692 
Q 2594 997 2594 1619 
Q 2594 2281 2320 2615 
Q 2047 2950 1678 2950 
Q 1313 2950 1058 2639 
Q 803 2328 803 1669 
z
" transform="scale(0.015625)"/>
       <path id="ArialMT-75" d="M 2597 0 
L 2597 488 
Q 2209 -75 1544 -75 
Q 1250 -75 995 37 
Q 741 150 617 320 
Q 494 491 444 738 
Q 409 903 409 1263 
L 409 3319 
L 972 3319 
L 972 1478 
Q 972 1038 1006 884 
Q 1059 663 1231 536 
Q 1403 409 1656 409 
Q 1909 409 2131 539 
Q 2353 669 2445 892 
Q 2538 1116 2538 1541 
L 2538 3319 
L 3100 3319 
L 3100 0 
L 2597 0 
z
" transform="scale(0.015625)"/>
       <path id="ArialMT-64" d="M 2575 0 
L 2575 419 
Q 2259 -75 1647 -75 
Q 1250 -75 917 144 
Q 584 363 401 755 
Q 219 1147 219 1656 
Q 219 2153 384 2558 
Q 550 2963 881 3178 
Q 1213 3394 1622 3394 
Q 1922 3394 2156 3267 
Q 2391 3141 2538 2938 
L 2538 4581 
L 3097 4581 
L 3097 0 
L 2575 0 
z
M 797 1656 
Q 797 1019 1065 703 
Q 1334 388 1700 388 
Q 2069 388 2326 689 
Q 2584 991 2584 1609 
Q 2584 2291 2321 2609 
Q 2059 2928 1675 2928 
Q 1300 2928 1048 2622 
Q 797 2316 797 1656 
z
" transform="scale(0.015625)"/>
       <path id="ArialMT-79" d="M 397 -1278 
L 334 -750 
Q 519 -800 656 -800 
Q 844 -800 956 -737 
Q 1069 -675 1141 -563 
Q 1194 -478 1313 -144 
Q 1328 -97 1363 -6 
L 103 3319 
L 709 3319 
L 1400 1397 
Q 1534 1031 1641 628 
Q 1738 1016 1872 1384 
L 2581 3319 
L 3144 3319 
L 1881 -56 
Q 1678 -603 1566 -809 
Q 1416 -1088 1222 -1217 
Q 1028 -1347 759 -1347 
Q 597 -1347 397 -1278 
z
" transform="scale(0.015625)"/>
       <path id="ArialMT-28" d="M 1497 -1347 
Q 1031 -759 709 28 
Q 388 816 388 1659 
Q 388 2403 628 3084 
Q 909 3875 1497 4659 
L 1900 4659 
Q 1522 4009 1400 3731 
Q 1209 3300 1100 2831 
Q 966 2247 966 1656 
Q 966 153 1900 -1347 
L 1497 -1347 
z
" transform="scale(0.015625)"/>
       <path id="ArialMT-29" d="M 791 -1347 
L 388 -1347 
Q 1322 153 1322 1656 
Q 1322 2244 1188 2822 
Q 1081 3291 891 3722 
Q 769 4003 388 4659 
L 791 4659 
Q 1378 3875 1659 3084 
Q 1900 2403 1900 1659 
Q 1900 816 1576 28 
Q 1253 -759 791 -1347 
z
" transform="scale(0.015625)"/>
      </defs>
      <use xlink:href="#ArialMT-54"/>
      <use xlink:href="#ArialMT-6f" x="49.958984"/>
      <use xlink:href="#ArialMT-74" x="105.574219"/>
      <use xlink:href="#ArialMT-61" x="133.357422"/>
      <use xlink:href="#ArialMT-6c" x="188.972656"/>
      <use xlink:href="#ArialMT-20" x="211.189453"/>
      <use xlink:href="#ArialMT-4c" x="238.972656"/>
      <use xlink:href="#ArialMT-69" x="294.587891"/>
      <use xlink:href="#ArialMT-71" x="316.804688"/>
      <use xlink:href="#ArialMT-75" x="372.419922"/>
      <use xlink:href="#ArialMT-69" x="428.035156"/>
      <use xlink:href="#ArialMT-64" x="450.251953"/>
      <use xlink:href="#ArialMT-69" x="505.867188"/>
      <use xlink:href="#ArialMT-74" x="528.083984"/>
      <use xlink:href="#ArialMT-79" x="555.867188"/>
      <use xlink:href="#ArialMT-20" x="605.867188"/>
      <use xlink:href="#ArialMT-28" x="633.650391"/>
      <use xlink:href="#ArialMT-73" x="666.951172"/>
      <use xlink:href="#ArialMT-61" x="716.951172"/>
      <use xlink:href="#ArialMT-74" x="772.566406"/>
      <use xlink:href="#ArialMT-73" x="800.349609"/>
      <use xlink:href="#ArialMT-29" x="850.349609"/>
     </g>
    </g>
   </g>
   <g id="PolyCollection_1">
    <path d="M 109.354602 343.982417 
L 109.354602 343.982417 
L 111.300517 343.982417 
L 113.246432 343.982417 
L 115.192346 343.982417 
L 117.138261 343.982417 
L 119.084176 343.982417 
L 121.030091 70.106948 
L 122.976005 70.106948 
L 124.92192 152.269589 
L 126.867835 152.269589 
L 128.81375 234.43223 
L 130.759664 234.43223 
L 132.705579 316.59487 
L 134.651494 42.719401 
L 132.705579 42.719401 
L 130.759664 42.719401 
L 128.81375 42.719401 
L 126.867835 42.719401 
L 124.92192 42.719401 
L 122.976005 42.719401 
L 121.030091 42.719401 
L 119.084176 42.719401 
L 117.138261 42.719401 
L 115.192346 42.719401 
L 113.246432 42.719401 
L 111.300517 42.719401 
L 109.354602 42.719401 
z
" clip-path="url(#p5314a57380)" style="fill: #87ceeb; fill-opacity: 0.5; stroke: #87ceeb; stroke-opacity: 0.5"/>
    <path d="M 138.543323 42.719401 
L 140.489238 124.882042 
L 142.435153 124.882042 
L 144.381067 207.044683 
L 146.326982 343.982417 
L 148.272897 70.106948 
L 150.218812 70.106948 
L 152.164726 152.269589 
L 154.110641 152.269589 
L 156.056556 234.43223 
L 158.00247 234.43223 
L 159.948385 316.59487 
L 161.8943 42.719401 
L 159.948385 42.719401 
L 158.00247 42.719401 
L 156.056556 42.719401 
L 154.110641 42.719401 
L 152.164726 42.719401 
L 150.218812 42.719401 
L 148.272897 42.719401 
L 146.326982 42.719401 
L 144.381067 42.719401 
L 142.435153 42.719401 
L 140.489238 42.719401 
z
" clip-path="url(#p5314a57380)" style="fill: #87ceeb; fill-opacity: 0.5; stroke: #87ceeb; stroke-opacity: 0.5"/>
    <path d="M 161.8943 42.719401 
L 163.840215 124.882042 
L 165.786129 261.819777 
L 167.732044 261.819777 
L 169.677959 261.819777 
L 171.623873 343.982417 
L 173.569788 343.982417 
L 175.515703 70.106948 
L 177.461618 152.269589 
L 179.407532 234.43223 
L 181.353447 234.43223 
L 183.299362 234.43223 
L 185.245277 234.43223 
L 187.191191 316.59487 
L 189.137106 42.719401 
L 187.191191 42.719401 
L 185.245277 42.719401 
L 183.299362 42.719401 
L 181.353447 42.719401 
L 179.407532 42.719401 
L 177.461618 42.719401 
L 175.515703 42.719401 
L 173.569788 42.719401 
L 171.623873 42.719401 
L 169.677959 42.719401 
L 167.732044 42.719401 
L 165.786129 42.719401 
L 163.840215 42.719401 
z
" clip-path="url(#p5314a57380)" style="fill: #87ceeb; fill-opacity: 0.5; stroke: #87ceeb; stroke-opacity: 0.5"/>
    <path d="M 193.028935 42.719401 
L 194.97485 124.882042 
L 196.920765 261.819777 
L 198.86668 261.819777 
L 200.812594 343.982417 
L 202.758509 70.106948 
L 204.704424 152.269589 
L 206.650339 152.269589 
L 208.596253 152.269589 
L 210.542168 234.43223 
L 212.488083 234.43223 
L 214.433997 316.59487 
L 216.379912 42.719401 
L 214.433997 42.719401 
L 212.488083 42.719401 
L 210.542168 42.719401 
L 208.596253 42.719401 
L 206.650339 42.719401 
L 204.704424 42.719401 
L 202.758509 42.719401 
L 200.812594 42.719401 
L 198.86668 42.719401 
L 196.920765 42.719401 
L 194.97485 42.719401 
z
" clip-path="url(#p5314a57380)" style="fill: #87ceeb; fill-opacity: 0.5; stroke: #87ceeb; stroke-opacity: 0.5"/>
    <path d="M 218.325827 42.719401 
L 220.271742 179.657136 
L 222.217656 179.657136 
L 224.163571 179.657136 
L 226.109486 261.819777 
L 228.055401 343.982417 
L 230.001315 70.106948 
L 231.94723 152.269589 
L 233.893145 152.269589 
L 235.839059 152.269589 
L 237.784974 234.43223 
L 239.730889 316.59487 
L 241.676804 316.59487 
L 243.622718 42.719401 
L 241.676804 42.719401 
L 239.730889 42.719401 
L 237.784974 42.719401 
L 235.839059 42.719401 
L 233.893145 42.719401 
L 231.94723 42.719401 
L 230.001315 42.719401 
L 228.055401 42.719401 
L 226.109486 42.719401 
L 224.163571 42.719401 
L 222.217656 42.719401 
L 220.271742 42.719401 
z
" clip-path="url(#p5314a57380)" style="fill: #87ceeb; fill-opacity: 0.5; stroke: #87ceeb; stroke-opacity: 0.5"/>
    <path d="M 245.568633 42.719401 
L 247.514548 124.882042 
L 249.460463 261.819777 
L 251.406377 261.819777 
L 253.352292 261.819777 
L 255.298207 343.982417 
L 257.244121 70.106948 
L 259.190036 70.106948 
L 261.135951 152.269589 
L 263.081866 234.43223 
L 265.02778 234.43223 
L 266.973695 234.43223 
L 268.91961 316.59487 
L 270.865525 42.719401 
L 268.91961 42.719401 
L 266.973695 42.719401 
L 265.02778 42.719401 
L 263.081866 42.719401 
L 261.135951 42.719401 
L 259.190036 42.719401 
L 257.244121 42.719401 
L 255.298207 42.719401 
L 253.352292 42.719401 
L 251.406377 42.719401 
L 249.460463 42.719401 
L 247.514548 42.719401 
z
" clip-path="url(#p5314a57380)" style="fill: #87ceeb; fill-opacity: 0.5; stroke: #87ceeb; stroke-opacity: 0.5"/>
    <path d="M 270.865525 42.719401 
L 272.811439 179.657136 
L 274.757354 179.657136 
L 276.703269 261.819777 
L 278.649183 261.819777 
L 280.595098 261.819777 
L 282.541013 343.982417 
L 284.486928 70.106948 
L 286.432842 70.106948 
L 288.378757 152.269589 
L 290.324672 234.43223 
L 292.270586 234.43223 
L 294.216501 316.59487 
L 296.162416 316.59487 
L 298.108331 42.719401 
L 296.162416 42.719401 
L 294.216501 42.719401 
L 292.270586 42.719401 
L 290.324672 42.719401 
L 288.378757 42.719401 
L 286.432842 42.719401 
L 284.486928 42.719401 
L 282.541013 42.719401 
L 280.595098 42.719401 
L 278.649183 42.719401 
L 276.703269 42.719401 
L 274.757354 42.719401 
L 272.811439 42.719401 
z
" clip-path="url(#p5314a57380)" style="fill: #87ceeb; fill-opacity: 0.5; stroke: #87ceeb; stroke-opacity: 0.5"/>
    <path d="M 302.00016 42.719401 
L 303.946075 124.882042 
L 305.89199 207.044683 
L 307.837904 207.044683 
L 309.783819 343.982417 
L 311.729734 70.106948 
L 313.675648 152.269589 
L 315.621563 152.269589 
L 317.567478 234.43223 
L 319.513393 316.59487 
L 321.459307 316.59487 
L 323.405222 316.59487 
L 325.351137 42.719401 
L 323.405222 42.719401 
L 321.459307 42.719401 
L 319.513393 42.719401 
L 317.567478 42.719401 
L 315.621563 42.719401 
L 313.675648 42.719401 
L 311.729734 42.719401 
L 309.783819 42.719401 
L 307.837904 42.719401 
L 305.89199 42.719401 
L 303.946075 42.719401 
z
" clip-path="url(#p5314a57380)" style="fill: #87ceeb; fill-opacity: 0.5; stroke: #87ceeb; stroke-opacity: 0.5"/>
    <path d="M 327.297052 42.719401 
L 329.242966 179.657136 
L 331.188881 179.657136 
L 333.134796 261.819777 
L 335.08071 343.982417 
L 337.026625 343.982417 
L 338.97254 70.106948 
L 340.918455 152.269589 
L 342.864369 152.269589 
L 344.810284 152.269589 
L 346.756199 152.269589 
L 348.702114 234.43223 
L 350.648028 316.59487 
L 352.593943 42.719401 
L 350.648028 42.719401 
L 348.702114 42.719401 
L 346.756199 42.719401 
L 344.810284 42.719401 
L 342.864369 42.719401 
L 340.918455 42.719401 
L 338.97254 42.719401 
L 337.026625 42.719401 
L 335.08071 42.719401 
L 333.134796 42.719401 
L 331.188881 42.719401 
L 329.242966 42.719401 
z
" clip-path="url(#p5314a57380)" style="fill: #87ceeb; fill-opacity: 0.5; stroke: #87ceeb; stroke-opacity: 0.5"/>
    <path d="M 354.539858 42.719401 
L 356.485772 124.882042 
L 358.431687 261.819777 
L 360.377602 261.819777 
L 362.323517 343.982417 
L 364.269431 343.982417 
L 366.215346 70.106948 
L 368.161261 70.106948 
L 370.107176 70.106948 
L 372.05309 152.269589 
L 373.999005 234.43223 
L 375.94492 234.43223 
L 377.890834 316.59487 
L 379.836749 42.719401 
L 377.890834 42.719401 
L 375.94492 42.719401 
L 373.999005 42.719401 
L 372.05309 42.719401 
L 370.107176 42.719401 
L 368.161261 42.719401 
L 366.215346 42.719401 
L 364.269431 42.719401 
L 362.323517 42.719401 
L 360.377602 42.719401 
L 358.431687 42.719401 
L 356.485772 42.719401 
z
" clip-path="url(#p5314a57380)" style="fill: #87ceeb; fill-opacity: 0.5; stroke: #87ceeb; stroke-opacity: 0.5"/>
    <path d="M 383.728579 42.719401 
L 385.674493 179.657136 
L 387.620408 179.657136 
L 389.566323 261.819777 
L 391.512238 343.982417 
L 393.458152 70.106948 
L 395.404067 152.269589 
L 397.349982 234.43223 
L 399.295896 234.43223 
L 401.241811 234.43223 
L 403.187726 234.43223 
L 405.133641 316.59487 
L 407.079555 42.719401 
L 405.133641 42.719401 
L 403.187726 42.719401 
L 401.241811 42.719401 
L 399.295896 42.719401 
L 397.349982 42.719401 
L 395.404067 42.719401 
L 393.458152 42.719401 
L 391.512238 42.719401 
L 389.566323 42.719401 
L 387.620408 42.719401 
L 385.674493 42.719401 
z
" clip-path="url(#p5314a57380)" style="fill: #87ceeb; fill-opacity: 0.5; stroke: #87ceeb; stroke-opacity: 0.5"/>
    <path d="M 407.079555 42.719401 
L 409.02547 124.882042 
L 410.971385 261.819777 
L 412.917299 261.819777 
L 414.863214 261.819777 
L 416.809129 261.819777 
L 418.755044 343.982417 
L 420.700958 70.106948 
L 422.646873 152.269589 
L 424.592788 152.269589 
L 426.538703 234.43223 
L 428.484617 234.43223 
L 430.430532 343.982417 
L 432.376447 343.982417 
L 434.322361 70.106948 
L 436.268276 70.106948 
L 438.214191 152.269589 
L 440.160106 234.43223 
L 442.10602 316.59487 
L 444.051935 316.59487 
L 445.99785 316.59487 
L 447.943765 42.719401 
L 445.99785 42.719401 
L 444.051935 42.719401 
L 442.10602 42.719401 
L 440.160106 42.719401 
L 438.214191 42.719401 
L 436.268276 42.719401 
L 434.322361 42.719401 
L 432.376447 42.719401 
L 430.430532 42.719401 
L 428.484617 42.719401 
L 426.538703 42.719401 
L 424.592788 42.719401 
L 422.646873 42.719401 
L 420.700958 42.719401 
L 418.755044 42.719401 
L 416.809129 42.719401 
L 414.863214 42.719401 
L 412.917299 42.719401 
L 410.971385 42.719401 
L 409.02547 42.719401 
z
" clip-path="url(#p5314a57380)" style="fill: #87ceeb; fill-opacity: 0.5; stroke: #87ceeb; stroke-opacity: 0.5"/>
    <path d="M 447.943765 42.719401 
L 449.889679 124.882042 
L 451.835594 261.819777 
L 453.781509 261.819777 
L 455.727423 343.982417 
L 457.673338 343.982417 
L 459.619253 343.982417 
L 461.565168 70.106948 
L 463.511082 70.106948 
L 465.456997 152.269589 
L 467.402912 152.269589 
L 469.348827 234.43223 
L 471.294741 316.59487 
L 473.240656 316.59487 
L 475.186571 42.719401 
L 473.240656 42.719401 
L 471.294741 42.719401 
L 469.348827 42.719401 
L 467.402912 42.719401 
L 465.456997 42.719401 
L 463.511082 42.719401 
L 461.565168 42.719401 
L 459.619253 42.719401 
L 457.673338 42.719401 
L 455.727423 42.719401 
L 453.781509 42.719401 
L 451.835594 42.719401 
L 449.889679 42.719401 
z
" clip-path="url(#p5314a57380)" style="fill: #87ceeb; fill-opacity: 0.5; stroke: #87ceeb; stroke-opacity: 0.5"/>
    <path d="M 477.132485 42.719401 
L 479.0784 124.882042 
L 481.024315 207.044683 
L 482.97023 207.044683 
L 484.916144 343.982417 
L 486.862059 343.982417 
L 488.807974 70.106948 
L 490.753889 152.269589 
L 492.699803 234.43223 
L 494.645718 234.43223 
L 496.591633 234.43223 
L 498.537547 316.59487 
L 500.483462 316.59487 
L 502.429377 42.719401 
L 500.483462 42.719401 
L 498.537547 42.719401 
L 496.591633 42.719401 
L 494.645718 42.719401 
L 492.699803 42.719401 
L 490.753889 42.719401 
L 488.807974 42.719401 
L 486.862059 42.719401 
L 484.916144 42.719401 
L 482.97023 42.719401 
L 481.024315 42.719401 
L 479.0784 42.719401 
z
" clip-path="url(#p5314a57380)" style="fill: #87ceeb; fill-opacity: 0.5; stroke: #87ceeb; stroke-opacity: 0.5"/>
    <path d="M 504.375292 42.719401 
L 506.321206 179.657136 
L 508.267121 179.657136 
L 510.213036 261.819777 
L 512.158951 343.982417 
L 514.104865 343.982417 
L 516.05078 70.106948 
L 517.996695 152.269589 
L 519.942609 152.269589 
L 521.888524 152.269589 
L 523.834439 152.269589 
L 525.780354 234.43223 
L 527.726268 316.59487 
L 529.672183 42.719401 
L 527.726268 42.719401 
L 525.780354 42.719401 
L 523.834439 42.719401 
L 521.888524 42.719401 
L 519.942609 42.719401 
L 517.996695 42.719401 
L 516.05078 42.719401 
L 514.104865 42.719401 
L 512.158951 42.719401 
L 510.213036 42.719401 
L 508.267121 42.719401 
L 506.321206 42.719401 
z
" clip-path="url(#p5314a57380)" style="fill: #87ceeb; fill-opacity: 0.5; stroke: #87ceeb; stroke-opacity: 0.5"/>
    <path d="M 531.618098 42.719401 
L 533.564012 124.882042 
L 535.509927 261.819777 
L 537.455842 343.982417 
L 539.401757 343.982417 
L 541.347671 343.982417 
L 543.293586 70.106948 
L 545.239501 152.269589 
L 547.185416 152.269589 
L 549.13133 234.43223 
L 551.077245 316.59487 
L 553.02316 316.59487 
L 554.969074 316.59487 
L 556.914989 42.719401 
L 554.969074 42.719401 
L 553.02316 42.719401 
L 551.077245 42.719401 
L 549.13133 42.719401 
L 547.185416 42.719401 
L 545.239501 42.719401 
L 543.293586 42.719401 
L 541.347671 42.719401 
L 539.401757 42.719401 
L 537.455842 42.719401 
L 535.509927 42.719401 
L 533.564012 42.719401 
z
" clip-path="url(#p5314a57380)" style="fill: #87ceeb; fill-opacity: 0.5; stroke: #87ceeb; stroke-opacity: 0.5"/>
    <path d="M 556.914989 42.719401 
L 558.860904 124.882042 
L 560.806819 124.882042 
L 562.752733 124.882042 
L 564.698648 124.882042 
L 566.644563 207.044683 
L 568.590478 343.982417 
L 570.536392 70.106948 
L 572.482307 152.269589 
L 574.428222 234.43223 
L 576.374136 234.43223 
L 578.320051 316.59487 
L 580.265966 316.59487 
L 582.211881 316.59487 
L 584.157795 42.719401 
L 582.211881 42.719401 
L 580.265966 42.719401 
L 578.320051 42.719401 
L 576.374136 42.719401 
L 574.428222 42.719401 
L 572.482307 42.719401 
L 570.536392 42.719401 
L 568.590478 42.719401 
L 566.644563 42.719401 
L 564.698648 42.719401 
L 562.752733 42.719401 
L 560.806819 42.719401 
L 558.860904 42.719401 
z
" clip-path="url(#p5314a57380)" style="fill: #87ceeb; fill-opacity: 0.5; stroke: #87ceeb; stroke-opacity: 0.5"/>
    <path d="M 584.157795 42.719401 
L 586.10371 124.882042 
L 588.049625 124.882042 
L 589.99554 261.819777 
L 591.941454 343.982417 
L 593.887369 343.982417 
L 595.833284 343.982417 
L 597.779198 70.106948 
L 599.725113 70.106948 
L 601.671028 152.269589 
L 603.616943 152.269589 
L 605.562857 234.43223 
L 607.508772 316.59487 
L 609.454687 316.59487 
L 611.400602 42.719401 
L 609.454687 42.719401 
L 607.508772 42.719401 
L 605.562857 42.719401 
L 603.616943 42.719401 
L 601.671028 42.719401 
L 599.725113 42.719401 
L 597.779198 42.719401 
L 595.833284 42.719401 
L 593.887369 42.719401 
L 591.941454 42.719401 
L 589.99554 42.719401 
L 588.049625 42.719401 
L 586.10371 42.719401 
z
" clip-path="url(#p5314a57380)" style="fill: #87ceeb; fill-opacity: 0.5; stroke: #87ceeb; stroke-opacity: 0.5"/>
    <path d="M 613.346516 42.719401 
L 615.292431 124.882042 
L 617.238346 207.044683 
L 619.18426 343.982417 
L 621.130175 343.982417 
L 623.07609 343.982417 
L 625.022005 70.106948 
L 626.967919 152.269589 
L 628.913834 152.269589 
L 630.859749 234.43223 
L 632.805664 234.43223 
L 634.751578 234.43223 
L 636.697493 316.59487 
L 638.643408 42.719401 
L 636.697493 42.719401 
L 634.751578 42.719401 
L 632.805664 42.719401 
L 630.859749 42.719401 
L 628.913834 42.719401 
L 626.967919 42.719401 
L 625.022005 42.719401 
L 623.07609 42.719401 
L 621.130175 42.719401 
L 619.18426 42.719401 
L 617.238346 42.719401 
L 615.292431 42.719401 
z
" clip-path="url(#p5314a57380)" style="fill: #87ceeb; fill-opacity: 0.5; stroke: #87ceeb; stroke-opacity: 0.5"/>
    <path d="M 638.643408 42.719401 
L 640.589322 124.882042 
L 642.535237 124.882042 
L 644.481152 261.819777 
L 646.427067 343.982417 
L 648.372981 343.982417 
L 650.318896 343.982417 
L 652.264811 70.106948 
L 654.210725 152.269589 
L 656.15664 152.269589 
L 658.102555 152.269589 
L 660.04847 234.43223 
L 661.994384 316.59487 
L 663.940299 316.59487 
L 665.886214 42.719401 
L 663.940299 42.719401 
L 661.994384 42.719401 
L 660.04847 42.719401 
L 658.102555 42.719401 
L 656.15664 42.719401 
L 654.210725 42.719401 
L 652.264811 42.719401 
L 650.318896 42.719401 
L 648.372981 42.719401 
L 646.427067 42.719401 
L 644.481152 42.719401 
L 642.535237 42.719401 
L 640.589322 42.719401 
z
" clip-path="url(#p5314a57380)" style="fill: #87ceeb; fill-opacity: 0.5; stroke: #87ceeb; stroke-opacity: 0.5"/>
    <path d="M 665.886214 42.719401 
L 667.832129 179.657136 
L 669.778043 261.819777 
L 671.723958 261.819777 
L 673.669873 261.819777 
L 675.615787 261.819777 
L 677.561702 343.982417 
L 679.507617 70.106948 
L 681.453532 152.269589 
L 683.399446 152.269589 
L 685.345361 234.43223 
L 687.291276 316.59487 
L 689.237191 316.59487 
L 691.183105 316.59487 
L 693.12902 42.719401 
L 691.183105 42.719401 
L 689.237191 42.719401 
L 687.291276 42.719401 
L 685.345361 42.719401 
L 683.399446 42.719401 
L 681.453532 42.719401 
L 679.507617 42.719401 
L 677.561702 42.719401 
L 675.615787 42.719401 
L 673.669873 42.719401 
L 671.723958 42.719401 
L 669.778043 42.719401 
L 667.832129 42.719401 
z
" clip-path="url(#p5314a57380)" style="fill: #87ceeb; fill-opacity: 0.5; stroke: #87ceeb; stroke-opacity: 0.5"/>
    <path d="M 693.12902 42.719401 
L 695.074935 124.882042 
L 697.020849 124.882042 
L 698.966764 207.044683 
L 700.912679 207.044683 
L 702.858594 207.044683 
L 704.804508 343.982417 
L 706.750423 70.106948 
L 708.696338 70.106948 
L 710.642253 152.269589 
L 712.588167 152.269589 
L 714.534082 234.43223 
L 716.479997 316.59487 
L 718.425911 316.59487 
L 720.371826 42.719401 
L 718.425911 42.719401 
L 716.479997 42.719401 
L 714.534082 42.719401 
L 712.588167 42.719401 
L 710.642253 42.719401 
L 708.696338 42.719401 
L 706.750423 42.719401 
L 704.804508 42.719401 
L 702.858594 42.719401 
L 700.912679 42.719401 
L 698.966764 42.719401 
L 697.020849 42.719401 
L 695.074935 42.719401 
z
" clip-path="url(#p5314a57380)" style="fill: #87ceeb; fill-opacity: 0.5; stroke: #87ceeb; stroke-opacity: 0.5"/>
    <path d="M 722.317741 42.719401 
L 724.263656 179.657136 
L 726.20957 179.657136 
L 728.155485 261.819777 
L 730.1014 343.982417 
L 732.047315 343.982417 
L 733.993229 70.106948 
L 735.939144 152.269589 
L 737.885059 152.269589 
L 739.830973 234.43223 
L 741.776888 316.59487 
L 743.722803 316.59487 
L 745.668718 316.59487 
L 747.614632 42.719401 
L 745.668718 42.719401 
L 743.722803 42.719401 
L 741.776888 42.719401 
L 739.830973 42.719401 
L 737.885059 42.719401 
L 735.939144 42.719401 
L 733.993229 42.719401 
L 732.047315 42.719401 
L 730.1014 42.719401 
L 728.155485 42.719401 
L 726.20957 42.719401 
L 724.263656 42.719401 
z
" clip-path="url(#p5314a57380)" style="fill: #87ceeb; fill-opacity: 0.5; stroke: #87ceeb; stroke-opacity: 0.5"/>
    <path d="M 749.560547 42.719401 
L 751.506462 124.882042 
L 753.452377 124.882042 
L 755.398291 261.819777 
L 757.344206 343.982417 
L 759.290121 343.982417 
L 761.236035 70.106948 
L 763.18195 152.269589 
L 765.127865 152.269589 
L 767.07378 234.43223 
L 769.019694 316.59487 
L 770.965609 316.59487 
L 772.911524 316.59487 
L 774.857438 42.719401 
L 772.911524 42.719401 
L 770.965609 42.719401 
L 769.019694 42.719401 
L 767.07378 42.719401 
L 765.127865 42.719401 
L 763.18195 42.719401 
L 761.236035 42.719401 
L 759.290121 42.719401 
L 757.344206 42.719401 
L 755.398291 42.719401 
L 753.452377 42.719401 
L 751.506462 42.719401 
z
" clip-path="url(#p5314a57380)" style="fill: #87ceeb; fill-opacity: 0.5; stroke: #87ceeb; stroke-opacity: 0.5"/>
    <path d="M 776.803353 42.719401 
L 778.749268 124.882042 
L 780.695183 207.044683 
L 782.641097 207.044683 
L 784.587012 343.982417 
L 786.532927 343.982417 
L 788.478842 70.106948 
L 790.424756 70.106948 
L 792.370671 152.269589 
L 794.316586 234.43223 
L 796.2625 234.43223 
L 798.208415 234.43223 
L 800.15433 316.59487 
L 802.100245 42.719401 
L 800.15433 42.719401 
L 798.208415 42.719401 
L 796.2625 42.719401 
L 794.316586 42.719401 
L 792.370671 42.719401 
L 790.424756 42.719401 
L 788.478842 42.719401 
L 786.532927 42.719401 
L 784.587012 42.719401 
L 782.641097 42.719401 
L 780.695183 42.719401 
L 778.749268 42.719401 
z
" clip-path="url(#p5314a57380)" style="fill: #87ceeb; fill-opacity: 0.5; stroke: #87ceeb; stroke-opacity: 0.5"/>
    <path d="M 802.100245 42.719401 
L 804.046159 124.882042 
L 805.992074 124.882042 
L 807.937989 261.819777 
L 809.883904 343.982417 
L 811.829818 343.982417 
L 813.775733 343.982417 
L 815.721648 70.106948 
L 815.721648 70.106948 
L 815.721648 42.719401 
L 813.775733 42.719401 
L 811.829818 42.719401 
L 809.883904 42.719401 
L 807.937989 42.719401 
L 805.992074 42.719401 
L 804.046159 42.719401 
z
" clip-path="url(#p5314a57380)" style="fill: #87ceeb; fill-opacity: 0.5; stroke: #87ceeb; stroke-opacity: 0.5"/>
   </g>
   <g id="PolyCollection_2">
    <path d="M 119.084176 343.982417 
L 121.030091 343.982417 
L 122.976005 343.982417 
L 124.92192 343.982417 
L 126.867835 343.982417 
L 128.81375 343.982417 
L 130.759664 343.982417 
L 132.705579 343.982417 
L 134.651494 343.982417 
L 136.597408 343.982417 
L 138.543323 343.982417 
L 140.489238 343.982417 
L 142.435153 343.982417 
L 144.381067 343.982417 
L 146.326982 343.982417 
L 144.381067 207.044683 
L 142.435153 124.882042 
L 140.489238 124.882042 
L 138.543323 42.719401 
L 136.597408 42.719401 
L 134.651494 42.719401 
L 132.705579 316.59487 
L 130.759664 234.43223 
L 128.81375 234.43223 
L 126.867835 152.269589 
L 124.92192 152.269589 
L 122.976005 70.106948 
L 121.030091 70.106948 
z
" clip-path="url(#p5314a57380)" style="fill: #90ee90; fill-opacity: 0.5; stroke: #90ee90; stroke-opacity: 0.5"/>
    <path d="M 146.326982 343.982417 
L 148.272897 343.982417 
L 150.218812 343.982417 
L 152.164726 343.982417 
L 154.110641 343.982417 
L 156.056556 343.982417 
L 158.00247 343.982417 
L 159.948385 343.982417 
L 161.8943 343.982417 
L 163.840215 343.982417 
L 165.786129 343.982417 
L 167.732044 343.982417 
L 169.677959 343.982417 
L 171.623873 343.982417 
L 169.677959 261.819777 
L 167.732044 261.819777 
L 165.786129 261.819777 
L 163.840215 124.882042 
L 161.8943 42.719401 
L 159.948385 316.59487 
L 158.00247 234.43223 
L 156.056556 234.43223 
L 154.110641 152.269589 
L 152.164726 152.269589 
L 150.218812 70.106948 
L 148.272897 70.106948 
z
" clip-path="url(#p5314a57380)" style="fill: #90ee90; fill-opacity: 0.5; stroke: #90ee90; stroke-opacity: 0.5"/>
    <path d="M 173.569788 343.982417 
L 175.515703 343.982417 
L 177.461618 343.982417 
L 179.407532 343.982417 
L 181.353447 343.982417 
L 183.299362 343.982417 
L 185.245277 343.982417 
L 187.191191 343.982417 
L 189.137106 343.982417 
L 191.083021 343.982417 
L 193.028935 343.982417 
L 194.97485 343.982417 
L 196.920765 343.982417 
L 198.86668 343.982417 
L 200.812594 343.982417 
L 198.86668 261.819777 
L 196.920765 261.819777 
L 194.97485 124.882042 
L 193.028935 42.719401 
L 191.083021 42.719401 
L 189.137106 42.719401 
L 187.191191 316.59487 
L 185.245277 234.43223 
L 183.299362 234.43223 
L 181.353447 234.43223 
L 179.407532 234.43223 
L 177.461618 152.269589 
L 175.515703 70.106948 
z
" clip-path="url(#p5314a57380)" style="fill: #90ee90; fill-opacity: 0.5; stroke: #90ee90; stroke-opacity: 0.5"/>
    <path d="M 200.812594 343.982417 
L 202.758509 343.982417 
L 204.704424 343.982417 
L 206.650339 343.982417 
L 208.596253 343.982417 
L 210.542168 343.982417 
L 212.488083 343.982417 
L 214.433997 343.982417 
L 216.379912 343.982417 
L 218.325827 343.982417 
L 220.271742 343.982417 
L 222.217656 343.982417 
L 224.163571 343.982417 
L 226.109486 343.982417 
L 228.055401 343.982417 
L 226.109486 261.819777 
L 224.163571 179.657136 
L 222.217656 179.657136 
L 220.271742 179.657136 
L 218.325827 42.719401 
L 216.379912 42.719401 
L 214.433997 316.59487 
L 212.488083 234.43223 
L 210.542168 234.43223 
L 208.596253 152.269589 
L 206.650339 152.269589 
L 204.704424 152.269589 
L 202.758509 70.106948 
z
" clip-path="url(#p5314a57380)" style="fill: #90ee90; fill-opacity: 0.5; stroke: #90ee90; stroke-opacity: 0.5"/>
    <path d="M 228.055401 343.982417 
L 230.001315 343.982417 
L 231.94723 343.982417 
L 233.893145 343.982417 
L 235.839059 343.982417 
L 237.784974 343.982417 
L 239.730889 343.982417 
L 241.676804 343.982417 
L 243.622718 343.982417 
L 245.568633 343.982417 
L 247.514548 343.982417 
L 249.460463 343.982417 
L 251.406377 343.982417 
L 253.352292 343.982417 
L 255.298207 343.982417 
L 253.352292 261.819777 
L 251.406377 261.819777 
L 249.460463 261.819777 
L 247.514548 124.882042 
L 245.568633 42.719401 
L 243.622718 42.719401 
L 241.676804 316.59487 
L 239.730889 316.59487 
L 237.784974 234.43223 
L 235.839059 152.269589 
L 233.893145 152.269589 
L 231.94723 152.269589 
L 230.001315 70.106948 
z
" clip-path="url(#p5314a57380)" style="fill: #90ee90; fill-opacity: 0.5; stroke: #90ee90; stroke-opacity: 0.5"/>
    <path d="M 255.298207 343.982417 
L 257.244121 343.982417 
L 259.190036 343.982417 
L 261.135951 343.982417 
L 263.081866 343.982417 
L 265.02778 343.982417 
L 266.973695 343.982417 
L 268.91961 343.982417 
L 270.865525 343.982417 
L 272.811439 343.982417 
L 274.757354 343.982417 
L 276.703269 343.982417 
L 278.649183 343.982417 
L 280.595098 343.982417 
L 282.541013 343.982417 
L 280.595098 261.819777 
L 278.649183 261.819777 
L 276.703269 261.819777 
L 274.757354 179.657136 
L 272.811439 179.657136 
L 270.865525 42.719401 
L 268.91961 316.59487 
L 266.973695 234.43223 
L 265.02778 234.43223 
L 263.081866 234.43223 
L 261.135951 152.269589 
L 259.190036 70.106948 
L 257.244121 70.106948 
z
" clip-path="url(#p5314a57380)" style="fill: #90ee90; fill-opacity: 0.5; stroke: #90ee90; stroke-opacity: 0.5"/>
    <path d="M 282.541013 343.982417 
L 284.486928 343.982417 
L 286.432842 343.982417 
L 288.378757 343.982417 
L 290.324672 343.982417 
L 292.270586 343.982417 
L 294.216501 343.982417 
L 296.162416 343.982417 
L 298.108331 343.982417 
L 300.054245 343.982417 
L 302.00016 343.982417 
L 303.946075 343.982417 
L 305.89199 343.982417 
L 307.837904 343.982417 
L 309.783819 343.982417 
L 307.837904 207.044683 
L 305.89199 207.044683 
L 303.946075 124.882042 
L 302.00016 42.719401 
L 300.054245 42.719401 
L 298.108331 42.719401 
L 296.162416 316.59487 
L 294.216501 316.59487 
L 292.270586 234.43223 
L 290.324672 234.43223 
L 288.378757 152.269589 
L 286.432842 70.106948 
L 284.486928 70.106948 
z
" clip-path="url(#p5314a57380)" style="fill: #90ee90; fill-opacity: 0.5; stroke: #90ee90; stroke-opacity: 0.5"/>
    <path d="M 309.783819 343.982417 
L 311.729734 343.982417 
L 313.675648 343.982417 
L 315.621563 343.982417 
L 317.567478 343.982417 
L 319.513393 343.982417 
L 321.459307 343.982417 
L 323.405222 343.982417 
L 325.351137 343.982417 
L 327.297052 343.982417 
L 329.242966 343.982417 
L 331.188881 343.982417 
L 333.134796 343.982417 
L 335.08071 343.982417 
L 333.134796 261.819777 
L 331.188881 179.657136 
L 329.242966 179.657136 
L 327.297052 42.719401 
L 325.351137 42.719401 
L 323.405222 316.59487 
L 321.459307 316.59487 
L 319.513393 316.59487 
L 317.567478 234.43223 
L 315.621563 152.269589 
L 313.675648 152.269589 
L 311.729734 70.106948 
z
" clip-path="url(#p5314a57380)" style="fill: #90ee90; fill-opacity: 0.5; stroke: #90ee90; stroke-opacity: 0.5"/>
    <path d="M 337.026625 343.982417 
L 338.97254 343.982417 
L 340.918455 343.982417 
L 342.864369 343.982417 
L 344.810284 343.982417 
L 346.756199 343.982417 
L 348.702114 343.982417 
L 350.648028 343.982417 
L 352.593943 343.982417 
L 354.539858 343.982417 
L 356.485772 343.982417 
L 358.431687 343.982417 
L 360.377602 343.982417 
L 362.323517 343.982417 
L 360.377602 261.819777 
L 358.431687 261.819777 
L 356.485772 124.882042 
L 354.539858 42.719401 
L 352.593943 42.719401 
L 350.648028 316.59487 
L 348.702114 234.43223 
L 346.756199 152.269589 
L 344.810284 152.269589 
L 342.864369 152.269589 
L 340.918455 152.269589 
L 338.97254 70.106948 
z
" clip-path="url(#p5314a57380)" style="fill: #90ee90; fill-opacity: 0.5; stroke: #90ee90; stroke-opacity: 0.5"/>
    <path d="M 364.269431 343.982417 
L 366.215346 343.982417 
L 368.161261 343.982417 
L 370.107176 343.982417 
L 372.05309 343.982417 
L 373.999005 343.982417 
L 375.94492 343.982417 
L 377.890834 343.982417 
L 379.836749 343.982417 
L 381.782664 343.982417 
L 383.728579 343.982417 
L 385.674493 343.982417 
L 387.620408 343.982417 
L 389.566323 343.982417 
L 391.512238 343.982417 
L 389.566323 261.819777 
L 387.620408 179.657136 
L 385.674493 179.657136 
L 383.728579 42.719401 
L 381.782664 42.719401 
L 379.836749 42.719401 
L 377.890834 316.59487 
L 375.94492 234.43223 
L 373.999005 234.43223 
L 372.05309 152.269589 
L 370.107176 70.106948 
L 368.161261 70.106948 
L 366.215346 70.106948 
z
" clip-path="url(#p5314a57380)" style="fill: #90ee90; fill-opacity: 0.5; stroke: #90ee90; stroke-opacity: 0.5"/>
    <path d="M 391.512238 343.982417 
L 393.458152 343.982417 
L 395.404067 343.982417 
L 397.349982 343.982417 
L 399.295896 343.982417 
L 401.241811 343.982417 
L 403.187726 343.982417 
L 405.133641 343.982417 
L 407.079555 343.982417 
L 409.02547 343.982417 
L 410.971385 343.982417 
L 412.917299 343.982417 
L 414.863214 343.982417 
L 416.809129 343.982417 
L 418.755044 343.982417 
L 416.809129 261.819777 
L 414.863214 261.819777 
L 412.917299 261.819777 
L 410.971385 261.819777 
L 409.02547 124.882042 
L 407.079555 42.719401 
L 405.133641 316.59487 
L 403.187726 234.43223 
L 401.241811 234.43223 
L 399.295896 234.43223 
L 397.349982 234.43223 
L 395.404067 152.269589 
L 393.458152 70.106948 
z
" clip-path="url(#p5314a57380)" style="fill: #90ee90; fill-opacity: 0.5; stroke: #90ee90; stroke-opacity: 0.5"/>
    <path d="M 418.755044 343.982417 
L 420.700958 343.982417 
L 422.646873 343.982417 
L 424.592788 343.982417 
L 426.538703 343.982417 
L 428.484617 343.982417 
L 430.430532 343.982417 
L 428.484617 234.43223 
L 426.538703 234.43223 
L 424.592788 152.269589 
L 422.646873 152.269589 
L 420.700958 70.106948 
z
" clip-path="url(#p5314a57380)" style="fill: #90ee90; fill-opacity: 0.5; stroke: #90ee90; stroke-opacity: 0.5"/>
    <path d="M 432.376447 343.982417 
L 434.322361 343.982417 
L 436.268276 343.982417 
L 438.214191 343.982417 
L 440.160106 343.982417 
L 442.10602 343.982417 
L 444.051935 343.982417 
L 445.99785 343.982417 
L 447.943765 343.982417 
L 449.889679 343.982417 
L 451.835594 343.982417 
L 453.781509 343.982417 
L 455.727423 343.982417 
L 453.781509 261.819777 
L 451.835594 261.819777 
L 449.889679 124.882042 
L 447.943765 42.719401 
L 445.99785 316.59487 
L 444.051935 316.59487 
L 442.10602 316.59487 
L 440.160106 234.43223 
L 438.214191 152.269589 
L 436.268276 70.106948 
L 434.322361 70.106948 
z
" clip-path="url(#p5314a57380)" style="fill: #90ee90; fill-opacity: 0.5; stroke: #90ee90; stroke-opacity: 0.5"/>
    <path d="M 459.619253 343.982417 
L 461.565168 343.982417 
L 463.511082 343.982417 
L 465.456997 343.982417 
L 467.402912 343.982417 
L 469.348827 343.982417 
L 471.294741 343.982417 
L 473.240656 343.982417 
L 475.186571 343.982417 
L 477.132485 343.982417 
L 479.0784 343.982417 
L 481.024315 343.982417 
L 482.97023 343.982417 
L 484.916144 343.982417 
L 482.97023 207.044683 
L 481.024315 207.044683 
L 479.0784 124.882042 
L 477.132485 42.719401 
L 475.186571 42.719401 
L 473.240656 316.59487 
L 471.294741 316.59487 
L 469.348827 234.43223 
L 467.402912 152.269589 
L 465.456997 152.269589 
L 463.511082 70.106948 
L 461.565168 70.106948 
z
" clip-path="url(#p5314a57380)" style="fill: #90ee90; fill-opacity: 0.5; stroke: #90ee90; stroke-opacity: 0.5"/>
    <path d="M 486.862059 343.982417 
L 488.807974 343.982417 
L 490.753889 343.982417 
L 492.699803 343.982417 
L 494.645718 343.982417 
L 496.591633 343.982417 
L 498.537547 343.982417 
L 500.483462 343.982417 
L 502.429377 343.982417 
L 504.375292 343.982417 
L 506.321206 343.982417 
L 508.267121 343.982417 
L 510.213036 343.982417 
L 512.158951 343.982417 
L 510.213036 261.819777 
L 508.267121 179.657136 
L 506.321206 179.657136 
L 504.375292 42.719401 
L 502.429377 42.719401 
L 500.483462 316.59487 
L 498.537547 316.59487 
L 496.591633 234.43223 
L 494.645718 234.43223 
L 492.699803 234.43223 
L 490.753889 152.269589 
L 488.807974 70.106948 
z
" clip-path="url(#p5314a57380)" style="fill: #90ee90; fill-opacity: 0.5; stroke: #90ee90; stroke-opacity: 0.5"/>
    <path d="M 514.104865 343.982417 
L 516.05078 343.982417 
L 517.996695 343.982417 
L 519.942609 343.982417 
L 521.888524 343.982417 
L 523.834439 343.982417 
L 525.780354 343.982417 
L 527.726268 343.982417 
L 529.672183 343.982417 
L 531.618098 343.982417 
L 533.564012 343.982417 
L 535.509927 343.982417 
L 537.455842 343.982417 
L 535.509927 261.819777 
L 533.564012 124.882042 
L 531.618098 42.719401 
L 529.672183 42.719401 
L 527.726268 316.59487 
L 525.780354 234.43223 
L 523.834439 152.269589 
L 521.888524 152.269589 
L 519.942609 152.269589 
L 517.996695 152.269589 
L 516.05078 70.106948 
z
" clip-path="url(#p5314a57380)" style="fill: #90ee90; fill-opacity: 0.5; stroke: #90ee90; stroke-opacity: 0.5"/>
    <path d="M 541.347671 343.982417 
L 543.293586 343.982417 
L 545.239501 343.982417 
L 547.185416 343.982417 
L 549.13133 343.982417 
L 551.077245 343.982417 
L 553.02316 343.982417 
L 554.969074 343.982417 
L 556.914989 343.982417 
L 558.860904 343.982417 
L 560.806819 343.982417 
L 562.752733 343.982417 
L 564.698648 343.982417 
L 566.644563 343.982417 
L 568.590478 343.982417 
L 566.644563 207.044683 
L 564.698648 124.882042 
L 562.752733 124.882042 
L 560.806819 124.882042 
L 558.860904 124.882042 
L 556.914989 42.719401 
L 554.969074 316.59487 
L 553.02316 316.59487 
L 551.077245 316.59487 
L 549.13133 234.43223 
L 547.185416 152.269589 
L 545.239501 152.269589 
L 543.293586 70.106948 
z
" clip-path="url(#p5314a57380)" style="fill: #90ee90; fill-opacity: 0.5; stroke: #90ee90; stroke-opacity: 0.5"/>
    <path d="M 568.590478 343.982417 
L 570.536392 343.982417 
L 572.482307 343.982417 
L 574.428222 343.982417 
L 576.374136 343.982417 
L 578.320051 343.982417 
L 580.265966 343.982417 
L 582.211881 343.982417 
L 584.157795 343.982417 
L 586.10371 343.982417 
L 588.049625 343.982417 
L 589.99554 343.982417 
L 591.941454 343.982417 
L 589.99554 261.819777 
L 588.049625 124.882042 
L 586.10371 124.882042 
L 584.157795 42.719401 
L 582.211881 316.59487 
L 580.265966 316.59487 
L 578.320051 316.59487 
L 576.374136 234.43223 
L 574.428222 234.43223 
L 572.482307 152.269589 
L 570.536392 70.106948 
z
" clip-path="url(#p5314a57380)" style="fill: #90ee90; fill-opacity: 0.5; stroke: #90ee90; stroke-opacity: 0.5"/>
    <path d="M 595.833284 343.982417 
L 597.779198 343.982417 
L 599.725113 343.982417 
L 601.671028 343.982417 
L 603.616943 343.982417 
L 605.562857 343.982417 
L 607.508772 343.982417 
L 609.454687 343.982417 
L 611.400602 343.982417 
L 613.346516 343.982417 
L 615.292431 343.982417 
L 617.238346 343.982417 
L 619.18426 343.982417 
L 617.238346 207.044683 
L 615.292431 124.882042 
L 613.346516 42.719401 
L 611.400602 42.719401 
L 609.454687 316.59487 
L 607.508772 316.59487 
L 605.562857 234.43223 
L 603.616943 152.269589 
L 601.671028 152.269589 
L 599.725113 70.106948 
L 597.779198 70.106948 
z
" clip-path="url(#p5314a57380)" style="fill: #90ee90; fill-opacity: 0.5; stroke: #90ee90; stroke-opacity: 0.5"/>
    <path d="M 623.07609 343.982417 
L 625.022005 343.982417 
L 626.967919 343.982417 
L 628.913834 343.982417 
L 630.859749 343.982417 
L 632.805664 343.982417 
L 634.751578 343.982417 
L 636.697493 343.982417 
L 638.643408 343.982417 
L 640.589322 343.982417 
L 642.535237 343.982417 
L 644.481152 343.982417 
L 646.427067 343.982417 
L 644.481152 261.819777 
L 642.535237 124.882042 
L 640.589322 124.882042 
L 638.643408 42.719401 
L 636.697493 316.59487 
L 634.751578 234.43223 
L 632.805664 234.43223 
L 630.859749 234.43223 
L 628.913834 152.269589 
L 626.967919 152.269589 
L 625.022005 70.106948 
z
" clip-path="url(#p5314a57380)" style="fill: #90ee90; fill-opacity: 0.5; stroke: #90ee90; stroke-opacity: 0.5"/>
    <path d="M 650.318896 343.982417 
L 652.264811 343.982417 
L 654.210725 343.982417 
L 656.15664 343.982417 
L 658.102555 343.982417 
L 660.04847 343.982417 
L 661.994384 343.982417 
L 663.940299 343.982417 
L 665.886214 343.982417 
L 667.832129 343.982417 
L 669.778043 343.982417 
L 671.723958 343.982417 
L 673.669873 343.982417 
L 675.615787 343.982417 
L 677.561702 343.982417 
L 675.615787 261.819777 
L 673.669873 261.819777 
L 671.723958 261.819777 
L 669.778043 261.819777 
L 667.832129 179.657136 
L 665.886214 42.719401 
L 663.940299 316.59487 
L 661.994384 316.59487 
L 660.04847 234.43223 
L 658.102555 152.269589 
L 656.15664 152.269589 
L 654.210725 152.269589 
L 652.264811 70.106948 
z
" clip-path="url(#p5314a57380)" style="fill: #90ee90; fill-opacity: 0.5; stroke: #90ee90; stroke-opacity: 0.5"/>
    <path d="M 677.561702 343.982417 
L 679.507617 343.982417 
L 681.453532 343.982417 
L 683.399446 343.982417 
L 685.345361 343.982417 
L 687.291276 343.982417 
L 689.237191 343.982417 
L 691.183105 343.982417 
L 693.12902 343.982417 
L 695.074935 343.982417 
L 697.020849 343.982417 
L 698.966764 343.982417 
L 700.912679 343.982417 
L 702.858594 343.982417 
L 704.804508 343.982417 
L 702.858594 207.044683 
L 700.912679 207.044683 
L 698.966764 207.044683 
L 697.020849 124.882042 
L 695.074935 124.882042 
L 693.12902 42.719401 
L 691.183105 316.59487 
L 689.237191 316.59487 
L 687.291276 316.59487 
L 685.345361 234.43223 
L 683.399446 152.269589 
L 681.453532 152.269589 
L 679.507617 70.106948 
z
" clip-path="url(#p5314a57380)" style="fill: #90ee90; fill-opacity: 0.5; stroke: #90ee90; stroke-opacity: 0.5"/>
    <path d="M 704.804508 343.982417 
L 706.750423 343.982417 
L 708.696338 343.982417 
L 710.642253 343.982417 
L 712.588167 343.982417 
L 714.534082 343.982417 
L 716.479997 343.982417 
L 718.425911 343.982417 
L 720.371826 343.982417 
L 722.317741 343.982417 
L 724.263656 343.982417 
L 726.20957 343.982417 
L 728.155485 343.982417 
L 730.1014 343.982417 
L 728.155485 261.819777 
L 726.20957 179.657136 
L 724.263656 179.657136 
L 722.317741 42.719401 
L 720.371826 42.719401 
L 718.425911 316.59487 
L 716.479997 316.59487 
L 714.534082 234.43223 
L 712.588167 152.269589 
L 710.642253 152.269589 
L 708.696338 70.106948 
L 706.750423 70.106948 
z
" clip-path="url(#p5314a57380)" style="fill: #90ee90; fill-opacity: 0.5; stroke: #90ee90; stroke-opacity: 0.5"/>
    <path d="M 732.047315 343.982417 
L 733.993229 343.982417 
L 735.939144 343.982417 
L 737.885059 343.982417 
L 739.830973 343.982417 
L 741.776888 343.982417 
L 743.722803 343.982417 
L 745.668718 343.982417 
L 747.614632 343.982417 
L 749.560547 343.982417 
L 751.506462 343.982417 
L 753.452377 343.982417 
L 755.398291 343.982417 
L 757.344206 343.982417 
L 755.398291 261.819777 
L 753.452377 124.882042 
L 751.506462 124.882042 
L 749.560547 42.719401 
L 747.614632 42.719401 
L 745.668718 316.59487 
L 743.722803 316.59487 
L 741.776888 316.59487 
L 739.830973 234.43223 
L 737.885059 152.269589 
L 735.939144 152.269589 
L 733.993229 70.106948 
z
" clip-path="url(#p5314a57380)" style="fill: #90ee90; fill-opacity: 0.5; stroke: #90ee90; stroke-opacity: 0.5"/>
    <path d="M 759.290121 343.982417 
L 761.236035 343.982417 
L 763.18195 343.982417 
L 765.127865 343.982417 
L 767.07378 343.982417 
L 769.019694 343.982417 
L 770.965609 343.982417 
L 772.911524 343.982417 
L 774.857438 343.982417 
L 776.803353 343.982417 
L 778.749268 343.982417 
L 780.695183 343.982417 
L 782.641097 343.982417 
L 784.587012 343.982417 
L 782.641097 207.044683 
L 780.695183 207.044683 
L 778.749268 124.882042 
L 776.803353 42.719401 
L 774.857438 42.719401 
L 772.911524 316.59487 
L 770.965609 316.59487 
L 769.019694 316.59487 
L 767.07378 234.43223 
L 765.127865 152.269589 
L 763.18195 152.269589 
L 761.236035 70.106948 
z
" clip-path="url(#p5314a57380)" style="fill: #90ee90; fill-opacity: 0.5; stroke: #90ee90; stroke-opacity: 0.5"/>
    <path d="M 786.532927 343.982417 
L 788.478842 343.982417 
L 790.424756 343.982417 
L 792.370671 343.982417 
L 794.316586 343.982417 
L 796.2625 343.982417 
L 798.208415 343.982417 
L 800.15433 343.982417 
L 802.100245 343.982417 
L 804.046159 343.982417 
L 805.992074 343.982417 
L 807.937989 343.982417 
L 809.883904 343.982417 
L 807.937989 261.819777 
L 805.992074 124.882042 
L 804.046159 124.882042 
L 802.100245 42.719401 
L 800.15433 316.59487 
L 798.208415 234.43223 
L 796.2625 234.43223 
L 794.316586 234.43223 
L 792.370671 152.269589 
L 790.424756 70.106948 
L 788.478842 70.106948 
z
" clip-path="url(#p5314a57380)" style="fill: #90ee90; fill-opacity: 0.5; stroke: #90ee90; stroke-opacity: 0.5"/>
    <path d="M 813.775733 343.982417 
L 815.721648 343.982417 
L 815.721648 343.982417 
L 815.721648 70.106948 
z
" clip-path="url(#p5314a57380)" style="fill: #90ee90; fill-opacity: 0.5; stroke: #90ee90; stroke-opacity: 0.5"/>
   </g>
   <g id="line2d_15">
    <path d="M 74.03625 42.719401 
L 851.04 42.719401 
" clip-path="url(#p5314a57380)" style="fill: none; stroke-dasharray: 5.55,2.4; stroke-dashoffset: 0; stroke: #808080; stroke-width: 1.5"/>
   </g>
   <g id="line2d_16">
    <path d="M 109.354602 343.982417 
L 119.084176 343.982417 
L 121.030091 70.106948 
L 122.976005 70.106948 
L 124.92192 152.269589 
L 126.867835 152.269589 
L 128.81375 234.43223 
L 130.759664 234.43223 
L 132.705579 316.59487 
L 134.651494 42.719401 
L 138.543323 42.719401 
L 140.489238 124.882042 
L 142.435153 124.882042 
L 144.381067 207.044683 
L 146.326982 343.982417 
L 148.272897 70.106948 
L 150.218812 70.106948 
L 152.164726 152.269589 
L 154.110641 152.269589 
L 156.056556 234.43223 
L 158.00247 234.43223 
L 159.948385 316.59487 
L 161.8943 42.719401 
L 163.840215 124.882042 
L 165.786129 261.819777 
L 169.677959 261.819777 
L 171.623873 343.982417 
L 173.569788 343.982417 
L 175.515703 70.106948 
L 179.407532 234.43223 
L 185.245277 234.43223 
L 187.191191 316.59487 
L 189.137106 42.719401 
L 193.028935 42.719401 
L 194.97485 124.882042 
L 196.920765 261.819777 
L 198.86668 261.819777 
L 200.812594 343.982417 
L 202.758509 70.106948 
L 204.704424 152.269589 
L 208.596253 152.269589 
L 210.542168 234.43223 
L 212.488083 234.43223 
L 214.433997 316.59487 
L 216.379912 42.719401 
L 218.325827 42.719401 
L 220.271742 179.657136 
L 224.163571 179.657136 
L 228.055401 343.982417 
L 230.001315 70.106948 
L 231.94723 152.269589 
L 235.839059 152.269589 
L 239.730889 316.59487 
L 241.676804 316.59487 
L 243.622718 42.719401 
L 245.568633 42.719401 
L 247.514548 124.882042 
L 249.460463 261.819777 
L 253.352292 261.819777 
L 255.298207 343.982417 
L 257.244121 70.106948 
L 259.190036 70.106948 
L 263.081866 234.43223 
L 266.973695 234.43223 
L 268.91961 316.59487 
L 270.865525 42.719401 
L 272.811439 179.657136 
L 274.757354 179.657136 
L 276.703269 261.819777 
L 280.595098 261.819777 
L 282.541013 343.982417 
L 284.486928 70.106948 
L 286.432842 70.106948 
L 290.324672 234.43223 
L 292.270586 234.43223 
L 294.216501 316.59487 
L 296.162416 316.59487 
L 298.108331 42.719401 
L 302.00016 42.719401 
L 305.89199 207.044683 
L 307.837904 207.044683 
L 309.783819 343.982417 
L 311.729734 70.106948 
L 313.675648 152.269589 
L 315.621563 152.269589 
L 319.513393 316.59487 
L 323.405222 316.59487 
L 325.351137 42.719401 
L 327.297052 42.719401 
L 329.242966 179.657136 
L 331.188881 179.657136 
L 335.08071 343.982417 
L 337.026625 343.982417 
L 338.97254 70.106948 
L 340.918455 152.269589 
L 346.756199 152.269589 
L 350.648028 316.59487 
L 352.593943 42.719401 
L 354.539858 42.719401 
L 356.485772 124.882042 
L 358.431687 261.819777 
L 360.377602 261.819777 
L 362.323517 343.982417 
L 364.269431 343.982417 
L 366.215346 70.106948 
L 370.107176 70.106948 
L 373.999005 234.43223 
L 375.94492 234.43223 
L 377.890834 316.59487 
L 379.836749 42.719401 
L 383.728579 42.719401 
L 385.674493 179.657136 
L 387.620408 179.657136 
L 391.512238 343.982417 
L 393.458152 70.106948 
L 397.349982 234.43223 
L 403.187726 234.43223 
L 405.133641 316.59487 
L 407.079555 42.719401 
L 409.02547 124.882042 
L 410.971385 261.819777 
L 416.809129 261.819777 
L 418.755044 343.982417 
L 420.700958 70.106948 
L 422.646873 152.269589 
L 424.592788 152.269589 
L 426.538703 234.43223 
L 428.484617 234.43223 
L 430.430532 343.982417 
L 432.376447 343.982417 
L 434.322361 70.106948 
L 436.268276 70.106948 
L 442.10602 316.59487 
L 445.99785 316.59487 
L 447.943765 42.719401 
L 449.889679 124.882042 
L 451.835594 261.819777 
L 453.781509 261.819777 
L 455.727423 343.982417 
L 459.619253 343.982417 
L 461.565168 70.106948 
L 463.511082 70.106948 
L 465.456997 152.269589 
L 467.402912 152.269589 
L 471.294741 316.59487 
L 473.240656 316.59487 
L 475.186571 42.719401 
L 477.132485 42.719401 
L 481.024315 207.044683 
L 482.97023 207.044683 
L 484.916144 343.982417 
L 486.862059 343.982417 
L 488.807974 70.106948 
L 492.699803 234.43223 
L 496.591633 234.43223 
L 498.537547 316.59487 
L 500.483462 316.59487 
L 502.429377 42.719401 
L 504.375292 42.719401 
L 506.321206 179.657136 
L 508.267121 179.657136 
L 512.158951 343.982417 
L 514.104865 343.982417 
L 516.05078 70.106948 
L 517.996695 152.269589 
L 523.834439 152.269589 
L 527.726268 316.59487 
L 529.672183 42.719401 
L 531.618098 42.719401 
L 533.564012 124.882042 
L 535.509927 261.819777 
L 537.455842 343.982417 
L 541.347671 343.982417 
L 543.293586 70.106948 
L 545.239501 152.269589 
L 547.185416 152.269589 
L 551.077245 316.59487 
L 554.969074 316.59487 
L 556.914989 42.719401 
L 558.860904 124.882042 
L 564.698648 124.882042 
L 566.644563 207.044683 
L 568.590478 343.982417 
L 570.536392 70.106948 
L 574.428222 234.43223 
L 576.374136 234.43223 
L 578.320051 316.59487 
L 582.211881 316.59487 
L 584.157795 42.719401 
L 586.10371 124.882042 
L 588.049625 124.882042 
L 589.99554 261.819777 
L 591.941454 343.982417 
L 595.833284 343.982417 
L 597.779198 70.106948 
L 599.725113 70.106948 
L 601.671028 152.269589 
L 603.616943 152.269589 
L 607.508772 316.59487 
L 609.454687 316.59487 
L 611.400602 42.719401 
L 613.346516 42.719401 
L 617.238346 207.044683 
L 619.18426 343.982417 
L 623.07609 343.982417 
L 625.022005 70.106948 
L 626.967919 152.269589 
L 628.913834 152.269589 
L 630.859749 234.43223 
L 634.751578 234.43223 
L 636.697493 316.59487 
L 638.643408 42.719401 
L 640.589322 124.882042 
L 642.535237 124.882042 
L 644.481152 261.819777 
L 646.427067 343.982417 
L 650.318896 343.982417 
L 652.264811 70.106948 
L 654.210725 152.269589 
L 658.102555 152.269589 
L 661.994384 316.59487 
L 663.940299 316.59487 
L 665.886214 42.719401 
L 667.832129 179.657136 
L 669.778043 261.819777 
L 675.615787 261.819777 
L 677.561702 343.982417 
L 679.507617 70.106948 
L 681.453532 152.269589 
L 683.399446 152.269589 
L 687.291276 316.59487 
L 691.183105 316.59487 
L 693.12902 42.719401 
L 695.074935 124.882042 
L 697.020849 124.882042 
L 698.966764 207.044683 
L 702.858594 207.044683 
L 704.804508 343.982417 
L 706.750423 70.106948 
L 708.696338 70.106948 
L 710.642253 152.269589 
L 712.588167 152.269589 
L 716.479997 316.59487 
L 718.425911 316.59487 
L 720.371826 42.719401 
L 722.317741 42.719401 
L 724.263656 179.657136 
L 726.20957 179.657136 
L 730.1014 343.982417 
L 732.047315 343.982417 
L 733.993229 70.106948 
L 735.939144 152.269589 
L 737.885059 152.269589 
L 741.776888 316.59487 
L 745.668718 316.59487 
L 747.614632 42.719401 
L 749.560547 42.719401 
L 751.506462 124.882042 
L 753.452377 124.882042 
L 755.398291 261.819777 
L 757.344206 343.982417 
L 759.290121 343.982417 
L 761.236035 70.106948 
L 763.18195 152.269589 
L 765.127865 152.269589 
L 769.019694 316.59487 
L 772.911524 316.59487 
L 774.857438 42.719401 
L 776.803353 42.719401 
L 780.695183 207.044683 
L 782.641097 207.044683 
L 784.587012 343.982417 
L 786.532927 343.982417 
L 788.478842 70.106948 
L 790.424756 70.106948 
L 794.316586 234.43223 
L 798.208415 234.43223 
L 800.15433 316.59487 
L 802.100245 42.719401 
L 804.046159 124.882042 
L 805.992074 124.882042 
L 807.937989 261.819777 
L 809.883904 343.982417 
L 813.775733 343.982417 
L 815.721648 70.106948 
L 815.721648 70.106948 
" clip-path="url(#p5314a57380)" style="fill: none; stroke: #000000; stroke-width: 2; stroke-linecap: round"/>
   </g>
   <g id="patch_3">
    <path d="M 74.03625 359.045568 
L 74.03625 27.65625 
" style="fill: none; stroke: #cccccc; stroke-width: 1.25; stroke-linejoin: miter; stroke-linecap: square"/>
   </g>
   <g id="patch_4">
    <path d="M 851.04 359.045568 
L 851.04 27.65625 
" style="fill: none; stroke: #cccccc; stroke-width: 1.25; stroke-linejoin: miter; stroke-linecap: square"/>
   </g>
   <g id="patch_5">
    <path d="M 74.03625 359.045568 
L 851.04 359.045568 
" style="fill: none; stroke: #cccccc; stroke-width: 1.25; stroke-linejoin: miter; stroke-linecap: square"/>
   </g>
   <g id="patch_6">
    <path d="M 74.03625 27.65625 
L 851.04 27.65625 
" style="fill: none; stroke: #cccccc; stroke-width: 1.25; stroke-linejoin: miter; stroke-linecap: square"/>
   </g>
   <g id="text_17">
    <!-- LSP Liquidity Requirements -->
    <g style="fill: #262626" transform="translate(388.607812 21.65625) scale(0.12 -0.12)">
     <defs>
      <path id="ArialMT-53" d="M 288 1472 
L 859 1522 
Q 900 1178 1048 958 
Q 1197 738 1509 602 
Q 1822 466 2213 466 
Q 2559 466 2825 569 
Q 3091 672 3220 851 
Q 3350 1031 3350 1244 
Q 3350 1459 3225 1620 
Q 3100 1781 2813 1891 
Q 2628 1963 1997 2114 
Q 1366 2266 1113 2400 
Q 784 2572 623 2826 
Q 463 3081 463 3397 
Q 463 3744 659 4045 
Q 856 4347 1234 4503 
Q 1613 4659 2075 4659 
Q 2584 4659 2973 4495 
Q 3363 4331 3572 4012 
Q 3781 3694 3797 3291 
L 3216 3247 
Q 3169 3681 2898 3903 
Q 2628 4125 2100 4125 
Q 1550 4125 1298 3923 
Q 1047 3722 1047 3438 
Q 1047 3191 1225 3031 
Q 1400 2872 2139 2705 
Q 2878 2538 3153 2413 
Q 3553 2228 3743 1945 
Q 3934 1663 3934 1294 
Q 3934 928 3725 604 
Q 3516 281 3123 101 
Q 2731 -78 2241 -78 
Q 1619 -78 1198 103 
Q 778 284 539 648 
Q 300 1013 288 1472 
z
" transform="scale(0.015625)"/>
      <path id="ArialMT-50" d="M 494 0 
L 494 4581 
L 2222 4581 
Q 2678 4581 2919 4538 
Q 3256 4481 3484 4323 
Q 3713 4166 3852 3881 
Q 3991 3597 3991 3256 
Q 3991 2672 3619 2267 
Q 3247 1863 2275 1863 
L 1100 1863 
L 1100 0 
L 494 0 
z
M 1100 2403 
L 2284 2403 
Q 2872 2403 3119 2622 
Q 3366 2841 3366 3238 
Q 3366 3525 3220 3729 
Q 3075 3934 2838 4000 
Q 2684 4041 2272 4041 
L 1100 4041 
L 1100 2403 
z
" transform="scale(0.015625)"/>
      <path id="ArialMT-52" d="M 503 0 
L 503 4581 
L 2534 4581 
Q 3147 4581 3465 4457 
Q 3784 4334 3975 4021 
Q 4166 3709 4166 3331 
Q 4166 2844 3850 2509 
Q 3534 2175 2875 2084 
Q 3116 1969 3241 1856 
Q 3506 1613 3744 1247 
L 4541 0 
L 3778 0 
L 3172 953 
Q 2906 1366 2734 1584 
Q 2563 1803 2427 1890 
Q 2291 1978 2150 2013 
Q 2047 2034 1813 2034 
L 1109 2034 
L 1109 0 
L 503 0 
z
M 1109 2559 
L 2413 2559 
Q 2828 2559 3062 2645 
Q 3297 2731 3419 2920 
Q 3541 3109 3541 3331 
Q 3541 3656 3305 3865 
Q 3069 4075 2559 4075 
L 1109 4075 
L 1109 2559 
z
" transform="scale(0.015625)"/>
      <path id="ArialMT-72" d="M 416 0 
L 416 3319 
L 922 3319 
L 922 2816 
Q 1116 3169 1280 3281 
Q 1444 3394 1641 3394 
Q 1925 3394 2219 3213 
L 2025 2691 
Q 1819 2813 1613 2813 
Q 1428 2813 1281 2702 
Q 1134 2591 1072 2394 
Q 978 2094 978 1738 
L 978 0 
L 416 0 
z
" transform="scale(0.015625)"/>
      <path id="ArialMT-6e" d="M 422 0 
L 422 3319 
L 928 3319 
L 928 2847 
Q 1294 3394 1984 3394 
Q 2284 3394 2536 3286 
Q 2788 3178 2913 3003 
Q 3038 2828 3088 2588 
Q 3119 2431 3119 2041 
L 3119 0 
L 2556 0 
L 2556 2019 
Q 2556 2363 2490 2533 
Q 2425 2703 2258 2804 
Q 2091 2906 1866 2906 
Q 1506 2906 1245 2678 
Q 984 2450 984 1813 
L 984 0 
L 422 0 
z
" transform="scale(0.015625)"/>
     </defs>
     <use xlink:href="#ArialMT-4c"/>
     <use xlink:href="#ArialMT-53" x="55.615234"/>
     <use xlink:href="#ArialMT-50" x="122.314453"/>
     <use xlink:href="#ArialMT-20" x="187.263672"/>
     <use xlink:href="#ArialMT-4c" x="215.046875"/>
     <use xlink:href="#ArialMT-69" x="270.662109"/>
     <use xlink:href="#ArialMT-71" x="292.878906"/>
     <use xlink:href="#ArialMT-75" x="348.494141"/>
     <use xlink:href="#ArialMT-69" x="404.109375"/>
     <use xlink:href="#ArialMT-64" x="426.326172"/>
     <use xlink:href="#ArialMT-69" x="481.941406"/>
     <use xlink:href="#ArialMT-74" x="504.158203"/>
     <use xlink:href="#ArialMT-79" x="531.941406"/>
     <use xlink:href="#ArialMT-20" x="581.941406"/>
     <use xlink:href="#ArialMT-52" x="609.724609"/>
     <use xlink:href="#ArialMT-65" x="681.941406"/>
     <use xlink:href="#ArialMT-71" x="737.556641"/>
     <use xlink:href="#ArialMT-75" x="793.171875"/>
     <use xlink:href="#ArialMT-69" x="848.787109"/>
     <use xlink:href="#ArialMT-72" x="871.003906"/>
     <use xlink:href="#ArialMT-65" x="904.304688"/>
     <use xlink:href="#ArialMT-6d" x="959.919922"/>
     <use xlink:href="#ArialMT-65" x="1043.220703"/>
     <use xlink:href="#ArialMT-6e" x="1098.835938"/>
     <use xlink:href="#ArialMT-74" x="1154.451172"/>
     <use xlink:href="#ArialMT-73" x="1182.234375"/>
    </g>
   </g>
   <g id="legend_1">
    <g id="patch_7">
     <path d="M 81.73625 226.316534 
L 224.535156 226.316534 
Q 226.735156 226.316534 226.735156 224.116534 
L 226.735156 162.585284 
Q 226.735156 160.385284 224.535156 160.385284 
L 81.73625 160.385284 
Q 79.53625 160.385284 79.53625 162.585284 
L 79.53625 224.116534 
Q 79.53625 226.316534 81.73625 226.316534 
z
" style="fill: #ffffff; opacity: 0.8; stroke: #cccccc; stroke-linejoin: miter"/>
    </g>
    <g id="line2d_17">
     <path d="M 83.93625 168.808878 
L 94.93625 168.808878 
L 105.93625 168.808878 
" style="fill: none; stroke-dasharray: 5.55,2.4; stroke-dashoffset: 0; stroke: #808080; stroke-width: 1.5"/>
    </g>
    <g id="text_18">
     <!-- Channel size -->
     <g style="fill: #262626" transform="translate(114.73625 172.658878) scale(0.11 -0.11)">
      <defs>
       <path id="ArialMT-43" d="M 3763 1606 
L 4369 1453 
Q 4178 706 3683 314 
Q 3188 -78 2472 -78 
Q 1731 -78 1267 223 
Q 803 525 561 1097 
Q 319 1669 319 2325 
Q 319 3041 592 3573 
Q 866 4106 1370 4382 
Q 1875 4659 2481 4659 
Q 3169 4659 3637 4309 
Q 4106 3959 4291 3325 
L 3694 3184 
Q 3534 3684 3231 3912 
Q 2928 4141 2469 4141 
Q 1941 4141 1586 3887 
Q 1231 3634 1087 3207 
Q 944 2781 944 2328 
Q 944 1744 1114 1308 
Q 1284 872 1643 656 
Q 2003 441 2422 441 
Q 2931 441 3284 734 
Q 3638 1028 3763 1606 
z
" transform="scale(0.015625)"/>
       <path id="ArialMT-68" d="M 422 0 
L 422 4581 
L 984 4581 
L 984 2938 
Q 1378 3394 1978 3394 
Q 2347 3394 2619 3248 
Q 2891 3103 3008 2847 
Q 3125 2591 3125 2103 
L 3125 0 
L 2563 0 
L 2563 2103 
Q 2563 2525 2380 2717 
Q 2197 2909 1863 2909 
Q 1613 2909 1392 2779 
Q 1172 2650 1078 2428 
Q 984 2206 984 1816 
L 984 0 
L 422 0 
z
" transform="scale(0.015625)"/>
       <path id="ArialMT-7a" d="M 125 0 
L 125 456 
L 2238 2881 
Q 1878 2863 1603 2863 
L 250 2863 
L 250 3319 
L 2963 3319 
L 2963 2947 
L 1166 841 
L 819 456 
Q 1197 484 1528 484 
L 3063 484 
L 3063 0 
L 125 0 
z
" transform="scale(0.015625)"/>
      </defs>
      <use xlink:href="#ArialMT-43"/>
      <use xlink:href="#ArialMT-68" x="72.216797"/>
      <use xlink:href="#ArialMT-61" x="127.832031"/>
      <use xlink:href="#ArialMT-6e" x="183.447266"/>
      <use xlink:href="#ArialMT-6e" x="239.0625"/>
      <use xlink:href="#ArialMT-65" x="294.677734"/>
      <use xlink:href="#ArialMT-6c" x="350.292969"/>
      <use xlink:href="#ArialMT-20" x="372.509766"/>
      <use xlink:href="#ArialMT-73" x="400.292969"/>
      <use xlink:href="#ArialMT-69" x="450.292969"/>
      <use xlink:href="#ArialMT-7a" x="472.509766"/>
      <use xlink:href="#ArialMT-65" x="522.509766"/>
     </g>
    </g>
    <g id="patch_8">
     <path d="M 83.93625 188.352784 
L 105.93625 188.352784 
L 105.93625 180.652784 
L 83.93625 180.652784 
z
" style="fill: #87ceeb; fill-opacity: 0.5; stroke: #87ceeb; stroke-opacity: 0.5; stroke-linejoin: miter"/>
    </g>
    <g id="text_19">
     <!-- LSP-supplied liquidity -->
     <g style="fill: #262626" transform="translate(114.73625 188.352784) scale(0.11 -0.11)">
      <use xlink:href="#ArialMT-4c"/>
      <use xlink:href="#ArialMT-53" x="55.615234"/>
      <use xlink:href="#ArialMT-50" x="122.314453"/>
      <use xlink:href="#ArialMT-2d" x="189.013672"/>
      <use xlink:href="#ArialMT-73" x="222.314453"/>
      <use xlink:href="#ArialMT-75" x="272.314453"/>
      <use xlink:href="#ArialMT-70" x="327.929688"/>
      <use xlink:href="#ArialMT-70" x="383.544922"/>
      <use xlink:href="#ArialMT-6c" x="439.160156"/>
      <use xlink:href="#ArialMT-69" x="461.376953"/>
      <use xlink:href="#ArialMT-65" x="483.59375"/>
      <use xlink:href="#ArialMT-64" x="539.208984"/>
      <use xlink:href="#ArialMT-20" x="594.824219"/>
      <use xlink:href="#ArialMT-6c" x="622.607422"/>
      <use xlink:href="#ArialMT-69" x="644.824219"/>
      <use xlink:href="#ArialMT-71" x="667.041016"/>
      <use xlink:href="#ArialMT-75" x="722.65625"/>
      <use xlink:href="#ArialMT-69" x="778.271484"/>
      <use xlink:href="#ArialMT-64" x="800.488281"/>
      <use xlink:href="#ArialMT-69" x="856.103516"/>
      <use xlink:href="#ArialMT-74" x="878.320312"/>
      <use xlink:href="#ArialMT-79" x="906.103516"/>
     </g>
    </g>
    <g id="patch_9">
     <path d="M 83.93625 204.041534 
L 105.93625 204.041534 
L 105.93625 196.341534 
L 83.93625 196.341534 
z
" style="fill: #90ee90; fill-opacity: 0.5; stroke: #90ee90; stroke-opacity: 0.5; stroke-linejoin: miter"/>
    </g>
    <g id="text_20">
     <!-- User-supplied liquidity -->
     <g style="fill: #262626" transform="translate(114.73625 204.041534) scale(0.11 -0.11)">
      <defs>
       <path id="ArialMT-55" d="M 3500 4581 
L 4106 4581 
L 4106 1934 
Q 4106 1244 3950 837 
Q 3794 431 3386 176 
Q 2978 -78 2316 -78 
Q 1672 -78 1262 144 
Q 853 366 678 786 
Q 503 1206 503 1934 
L 503 4581 
L 1109 4581 
L 1109 1938 
Q 1109 1341 1220 1058 
Q 1331 775 1601 622 
Q 1872 469 2263 469 
Q 2931 469 3215 772 
Q 3500 1075 3500 1938 
L 3500 4581 
z
" transform="scale(0.015625)"/>
      </defs>
      <use xlink:href="#ArialMT-55"/>
      <use xlink:href="#ArialMT-73" x="72.216797"/>
      <use xlink:href="#ArialMT-65" x="122.216797"/>
      <use xlink:href="#ArialMT-72" x="177.832031"/>
      <use xlink:href="#ArialMT-2d" x="211.132812"/>
      <use xlink:href="#ArialMT-73" x="244.433594"/>
      <use xlink:href="#ArialMT-75" x="294.433594"/>
      <use xlink:href="#ArialMT-70" x="350.048828"/>
      <use xlink:href="#ArialMT-70" x="405.664062"/>
      <use xlink:href="#ArialMT-6c" x="461.279297"/>
      <use xlink:href="#ArialMT-69" x="483.496094"/>
      <use xlink:href="#ArialMT-65" x="505.712891"/>
      <use xlink:href="#ArialMT-64" x="561.328125"/>
      <use xlink:href="#ArialMT-20" x="616.943359"/>
      <use xlink:href="#ArialMT-6c" x="644.726562"/>
      <use xlink:href="#ArialMT-69" x="666.943359"/>
      <use xlink:href="#ArialMT-71" x="689.160156"/>
      <use xlink:href="#ArialMT-75" x="744.775391"/>
      <use xlink:href="#ArialMT-69" x="800.390625"/>
      <use xlink:href="#ArialMT-64" x="822.607422"/>
      <use xlink:href="#ArialMT-69" x="878.222656"/>
      <use xlink:href="#ArialMT-74" x="900.439453"/>
      <use xlink:href="#ArialMT-79" x="928.222656"/>
     </g>
    </g>
    <g id="line2d_18">
     <path d="M 83.93625 215.880284 
L 94.93625 215.880284 
L 105.93625 215.880284 
" style="fill: none; stroke: #000000; stroke-width: 2; stroke-linecap: round"/>
    </g>
    <g id="text_21">
     <!-- User account balance -->
     <g style="fill: #262626" transform="translate(114.73625 219.730284) scale(0.11 -0.11)">
      <defs>
       <path id="ArialMT-63" d="M 2588 1216 
L 3141 1144 
Q 3050 572 2676 248 
Q 2303 -75 1759 -75 
Q 1078 -75 664 370 
Q 250 816 250 1647 
Q 250 2184 428 2587 
Q 606 2991 970 3192 
Q 1334 3394 1763 3394 
Q 2303 3394 2647 3120 
Q 2991 2847 3088 2344 
L 2541 2259 
Q 2463 2594 2264 2762 
Q 2066 2931 1784 2931 
Q 1359 2931 1093 2626 
Q 828 2322 828 1663 
Q 828 994 1084 691 
Q 1341 388 1753 388 
Q 2084 388 2306 591 
Q 2528 794 2588 1216 
z
" transform="scale(0.015625)"/>
       <path id="ArialMT-62" d="M 941 0 
L 419 0 
L 419 4581 
L 981 4581 
L 981 2947 
Q 1338 3394 1891 3394 
Q 2197 3394 2470 3270 
Q 2744 3147 2920 2923 
Q 3097 2700 3197 2384 
Q 3297 2069 3297 1709 
Q 3297 856 2875 390 
Q 2453 -75 1863 -75 
Q 1275 -75 941 416 
L 941 0 
z
M 934 1684 
Q 934 1088 1097 822 
Q 1363 388 1816 388 
Q 2184 388 2453 708 
Q 2722 1028 2722 1663 
Q 2722 2313 2464 2622 
Q 2206 2931 1841 2931 
Q 1472 2931 1203 2611 
Q 934 2291 934 1684 
z
" transform="scale(0.015625)"/>
      </defs>
      <use xlink:href="#ArialMT-55"/>
      <use xlink:href="#ArialMT-73" x="72.216797"/>
      <use xlink:href="#ArialMT-65" x="122.216797"/>
      <use xlink:href="#ArialMT-72" x="177.832031"/>
      <use xlink:href="#ArialMT-20" x="211.132812"/>
      <use xlink:href="#ArialMT-61" x="238.916016"/>
      <use xlink:href="#ArialMT-63" x="294.53125"/>
      <use xlink:href="#ArialMT-63" x="344.53125"/>
      <use xlink:href="#ArialMT-6f" x="394.53125"/>
      <use xlink:href="#ArialMT-75" x="450.146484"/>
      <use xlink:href="#ArialMT-6e" x="505.761719"/>
      <use xlink:href="#ArialMT-74" x="561.376953"/>
      <use xlink:href="#ArialMT-20" x="589.160156"/>
      <use xlink:href="#ArialMT-62" x="616.943359"/>
      <use xlink:href="#ArialMT-61" x="672.558594"/>
      <use xlink:href="#ArialMT-6c" x="728.173828"/>
      <use xlink:href="#ArialMT-61" x="750.390625"/>
      <use xlink:href="#ArialMT-6e" x="806.005859"/>
      <use xlink:href="#ArialMT-63" x="861.621094"/>
      <use xlink:href="#ArialMT-65" x="911.621094"/>
     </g>
    </g>
   </g>
  </g>
 </g>
 <defs>
  <clipPath id="p5314a57380">
   <rect x="74.03625" y="27.65625" width="777.00375" height="331.389318"/>
  </clipPath>
 </defs>
</svg>
