<?xml version="1.0" encoding="utf-8" standalone="no"?>
<!DOCTYPE svg PUBLIC "-//W3C//DTD SVG 1.1//EN"
  "http://www.w3.org/Graphics/SVG/1.1/DTD/svg11.dtd">
<svg xmlns:xlink="http://www.w3.org/1999/xlink" width="864pt" height="432pt" viewBox="0 0 864 432" xmlns="http://www.w3.org/2000/svg" version="1.1">
 <metadata>
  <rdf:RDF xmlns:dc="http://purl.org/dc/elements/1.1/" xmlns:cc="http://creativecommons.org/ns#" xmlns:rdf="http://www.w3.org/1999/02/22-rdf-syntax-ns#">
   <cc:Work>
    <dc:type rdf:resource="http://purl.org/dc/dcmitype/StillImage"/>
    <dc:date>2025-04-26T01:01:41.551110</dc:date>
    <dc:format>image/svg+xml</dc:format>
    <dc:creator>
     <cc:Agent>
      <dc:title>Matplotlib v3.9.3, https://matplotlib.org/</dc:title>
     </cc:Agent>
    </dc:creator>
   </cc:Work>
  </rdf:RDF>
 </metadata>
 <defs>
  <style type="text/css">*{stroke-linejoin: round; stroke-linecap: butt}</style>
 </defs>
 <g id="figure_1">
  <g id="patch_1">
   <path d="M 0 432 
L 864 432 
L 864 0 
L 0 0 
z
" style="fill: #ffffff"/>
  </g>
  <g id="axes_1">
   <g id="patch_2">
    <path d="M 74.12625 359.045568 
L 851.04 359.045568 
L 851.04 27.65625 
L 74.12625 27.65625 
z
" style="fill: #ffffff"/>
   </g>
   <g id="matplotlib.axis_1">
    <g id="xtick_1">
     <g id="line2d_1">
      <path d="M 109.440511 359.045568 
L 109.440511 27.65625 
" clip-path="url(#pc45c925501)" style="fill: none; stroke: #cccccc; stroke-opacity: 0.5; stroke-linecap: round"/>
     </g>
     <g id="text_1">
      <!-- 2024-01 -->
      <g style="fill: #262626" transform="translate(97.180164 402.655294) rotate(-45) scale(0.11 -0.11)">
       <defs>
        <path id="ArialMT-32" d="M 3222 541 
L 3222 0 
L 194 0 
Q 188 203 259 391 
Q 375 700 629 1000 
Q 884 1300 1366 1694 
Q 2113 2306 2375 2664 
Q 2638 3022 2638 3341 
Q 2638 3675 2398 3904 
Q 2159 4134 1775 4134 
Q 1369 4134 1125 3890 
Q 881 3647 878 3216 
L 300 3275 
Q 359 3922 746 4261 
Q 1134 4600 1788 4600 
Q 2447 4600 2831 4234 
Q 3216 3869 3216 3328 
Q 3216 3053 3103 2787 
Q 2991 2522 2730 2228 
Q 2469 1934 1863 1422 
Q 1356 997 1212 845 
Q 1069 694 975 541 
L 3222 541 
z
" transform="scale(0.015625)"/>
        <path id="ArialMT-30" d="M 266 2259 
Q 266 3072 433 3567 
Q 600 4063 929 4331 
Q 1259 4600 1759 4600 
Q 2128 4600 2406 4451 
Q 2684 4303 2865 4023 
Q 3047 3744 3150 3342 
Q 3253 2941 3253 2259 
Q 3253 1453 3087 958 
Q 2922 463 2592 192 
Q 2263 -78 1759 -78 
Q 1097 -78 719 397 
Q 266 969 266 2259 
z
M 844 2259 
Q 844 1131 1108 757 
Q 1372 384 1759 384 
Q 2147 384 2411 759 
Q 2675 1134 2675 2259 
Q 2675 3391 2411 3762 
Q 2147 4134 1753 4134 
Q 1366 4134 1134 3806 
Q 844 3388 844 2259 
z
" transform="scale(0.015625)"/>
        <path id="ArialMT-34" d="M 2069 0 
L 2069 1097 
L 81 1097 
L 81 1613 
L 2172 4581 
L 2631 4581 
L 2631 1613 
L 3250 1613 
L 3250 1097 
L 2631 1097 
L 2631 0 
L 2069 0 
z
M 2069 1613 
L 2069 3678 
L 634 1613 
L 2069 1613 
z
" transform="scale(0.015625)"/>
        <path id="ArialMT-2d" d="M 203 1375 
L 203 1941 
L 1931 1941 
L 1931 1375 
L 203 1375 
z
" transform="scale(0.015625)"/>
        <path id="ArialMT-31" d="M 2384 0 
L 1822 0 
L 1822 3584 
Q 1619 3391 1289 3197 
Q 959 3003 697 2906 
L 697 3450 
Q 1169 3672 1522 3987 
Q 1875 4303 2022 4600 
L 2384 4600 
L 2384 0 
z
" transform="scale(0.015625)"/>
       </defs>
       <use xlink:href="#ArialMT-32"/>
       <use xlink:href="#ArialMT-30" x="55.615234"/>
       <use xlink:href="#ArialMT-32" x="111.230469"/>
       <use xlink:href="#ArialMT-34" x="166.845703"/>
       <use xlink:href="#ArialMT-2d" x="222.460938"/>
       <use xlink:href="#ArialMT-30" x="255.761719"/>
       <use xlink:href="#ArialMT-31" x="311.376953"/>
      </g>
     </g>
    </g>
    <g id="xtick_2">
     <g id="line2d_2">
      <path d="M 226.181871 359.045568 
L 226.181871 27.65625 
" clip-path="url(#pc45c925501)" style="fill: none; stroke: #cccccc; stroke-opacity: 0.5; stroke-linecap: round"/>
     </g>
     <g id="text_2">
      <!-- 2024-03 -->
      <g style="fill: #262626" transform="translate(213.921524 402.655294) rotate(-45) scale(0.11 -0.11)">
       <defs>
        <path id="ArialMT-33" d="M 269 1209 
L 831 1284 
Q 928 806 1161 595 
Q 1394 384 1728 384 
Q 2125 384 2398 659 
Q 2672 934 2672 1341 
Q 2672 1728 2419 1979 
Q 2166 2231 1775 2231 
Q 1616 2231 1378 2169 
L 1441 2663 
Q 1497 2656 1531 2656 
Q 1891 2656 2178 2843 
Q 2466 3031 2466 3422 
Q 2466 3731 2256 3934 
Q 2047 4138 1716 4138 
Q 1388 4138 1169 3931 
Q 950 3725 888 3313 
L 325 3413 
Q 428 3978 793 4289 
Q 1159 4600 1703 4600 
Q 2078 4600 2393 4439 
Q 2709 4278 2876 4000 
Q 3044 3722 3044 3409 
Q 3044 3113 2884 2869 
Q 2725 2625 2413 2481 
Q 2819 2388 3044 2092 
Q 3269 1797 3269 1353 
Q 3269 753 2831 336 
Q 2394 -81 1725 -81 
Q 1122 -81 723 278 
Q 325 638 269 1209 
z
" transform="scale(0.015625)"/>
       </defs>
       <use xlink:href="#ArialMT-32"/>
       <use xlink:href="#ArialMT-30" x="55.615234"/>
       <use xlink:href="#ArialMT-32" x="111.230469"/>
       <use xlink:href="#ArialMT-34" x="166.845703"/>
       <use xlink:href="#ArialMT-2d" x="222.460938"/>
       <use xlink:href="#ArialMT-30" x="255.761719"/>
       <use xlink:href="#ArialMT-33" x="311.376953"/>
      </g>
     </g>
    </g>
    <g id="xtick_3">
     <g id="line2d_3">
      <path d="M 344.86892 359.045568 
L 344.86892 27.65625 
" clip-path="url(#pc45c925501)" style="fill: none; stroke: #cccccc; stroke-opacity: 0.5; stroke-linecap: round"/>
     </g>
     <g id="text_3">
      <!-- 2024-05 -->
      <g style="fill: #262626" transform="translate(332.608573 402.655294) rotate(-45) scale(0.11 -0.11)">
       <defs>
        <path id="ArialMT-35" d="M 266 1200 
L 856 1250 
Q 922 819 1161 601 
Q 1400 384 1738 384 
Q 2144 384 2425 690 
Q 2706 997 2706 1503 
Q 2706 1984 2436 2262 
Q 2166 2541 1728 2541 
Q 1456 2541 1237 2417 
Q 1019 2294 894 2097 
L 366 2166 
L 809 4519 
L 3088 4519 
L 3088 3981 
L 1259 3981 
L 1013 2750 
Q 1425 3038 1878 3038 
Q 2478 3038 2890 2622 
Q 3303 2206 3303 1553 
Q 3303 931 2941 478 
Q 2500 -78 1738 -78 
Q 1113 -78 717 272 
Q 322 622 266 1200 
z
" transform="scale(0.015625)"/>
       </defs>
       <use xlink:href="#ArialMT-32"/>
       <use xlink:href="#ArialMT-30" x="55.615234"/>
       <use xlink:href="#ArialMT-32" x="111.230469"/>
       <use xlink:href="#ArialMT-34" x="166.845703"/>
       <use xlink:href="#ArialMT-2d" x="222.460938"/>
       <use xlink:href="#ArialMT-30" x="255.761719"/>
       <use xlink:href="#ArialMT-35" x="311.376953"/>
      </g>
     </g>
    </g>
    <g id="xtick_4">
     <g id="line2d_4">
      <path d="M 463.55597 359.045568 
L 463.55597 27.65625 
" clip-path="url(#pc45c925501)" style="fill: none; stroke: #cccccc; stroke-opacity: 0.5; stroke-linecap: round"/>
     </g>
     <g id="text_4">
      <!-- 2024-07 -->
      <g style="fill: #262626" transform="translate(451.295622 402.655294) rotate(-45) scale(0.11 -0.11)">
       <defs>
        <path id="ArialMT-37" d="M 303 3981 
L 303 4522 
L 3269 4522 
L 3269 4084 
Q 2831 3619 2401 2847 
Q 1972 2075 1738 1259 
Q 1569 684 1522 0 
L 944 0 
Q 953 541 1156 1306 
Q 1359 2072 1739 2783 
Q 2119 3494 2547 3981 
L 303 3981 
z
" transform="scale(0.015625)"/>
       </defs>
       <use xlink:href="#ArialMT-32"/>
       <use xlink:href="#ArialMT-30" x="55.615234"/>
       <use xlink:href="#ArialMT-32" x="111.230469"/>
       <use xlink:href="#ArialMT-34" x="166.845703"/>
       <use xlink:href="#ArialMT-2d" x="222.460938"/>
       <use xlink:href="#ArialMT-30" x="255.761719"/>
       <use xlink:href="#ArialMT-37" x="311.376953"/>
      </g>
     </g>
    </g>
    <g id="xtick_5">
     <g id="line2d_5">
      <path d="M 584.188708 359.045568 
L 584.188708 27.65625 
" clip-path="url(#pc45c925501)" style="fill: none; stroke: #cccccc; stroke-opacity: 0.5; stroke-linecap: round"/>
     </g>
     <g id="text_5">
      <!-- 2024-09 -->
      <g style="fill: #262626" transform="translate(571.928361 402.655294) rotate(-45) scale(0.11 -0.11)">
       <defs>
        <path id="ArialMT-39" d="M 350 1059 
L 891 1109 
Q 959 728 1153 556 
Q 1347 384 1650 384 
Q 1909 384 2104 503 
Q 2300 622 2425 820 
Q 2550 1019 2634 1356 
Q 2719 1694 2719 2044 
Q 2719 2081 2716 2156 
Q 2547 1888 2255 1720 
Q 1963 1553 1622 1553 
Q 1053 1553 659 1965 
Q 266 2378 266 3053 
Q 266 3750 677 4175 
Q 1088 4600 1706 4600 
Q 2153 4600 2523 4359 
Q 2894 4119 3086 3673 
Q 3278 3228 3278 2384 
Q 3278 1506 3087 986 
Q 2897 466 2520 194 
Q 2144 -78 1638 -78 
Q 1100 -78 759 220 
Q 419 519 350 1059 
z
M 2653 3081 
Q 2653 3566 2395 3850 
Q 2138 4134 1775 4134 
Q 1400 4134 1122 3828 
Q 844 3522 844 3034 
Q 844 2597 1108 2323 
Q 1372 2050 1759 2050 
Q 2150 2050 2401 2323 
Q 2653 2597 2653 3081 
z
" transform="scale(0.015625)"/>
       </defs>
       <use xlink:href="#ArialMT-32"/>
       <use xlink:href="#ArialMT-30" x="55.615234"/>
       <use xlink:href="#ArialMT-32" x="111.230469"/>
       <use xlink:href="#ArialMT-34" x="166.845703"/>
       <use xlink:href="#ArialMT-2d" x="222.460938"/>
       <use xlink:href="#ArialMT-30" x="255.761719"/>
       <use xlink:href="#ArialMT-39" x="311.376953"/>
      </g>
     </g>
    </g>
    <g id="xtick_6">
     <g id="line2d_6">
      <path d="M 702.875757 359.045568 
L 702.875757 27.65625 
" clip-path="url(#pc45c925501)" style="fill: none; stroke: #cccccc; stroke-opacity: 0.5; stroke-linecap: round"/>
     </g>
     <g id="text_6">
      <!-- 2024-11 -->
      <g style="fill: #262626" transform="translate(690.90223 402.081654) rotate(-45) scale(0.11 -0.11)">
       <use xlink:href="#ArialMT-32"/>
       <use xlink:href="#ArialMT-30" x="55.615234"/>
       <use xlink:href="#ArialMT-32" x="111.230469"/>
       <use xlink:href="#ArialMT-34" x="166.845703"/>
       <use xlink:href="#ArialMT-2d" x="222.460938"/>
       <use xlink:href="#ArialMT-31" x="255.761719"/>
       <use xlink:href="#ArialMT-31" x="304.001953"/>
      </g>
     </g>
    </g>
    <g id="xtick_7">
     <g id="line2d_7">
      <path d="M 821.562807 359.045568 
L 821.562807 27.65625 
" clip-path="url(#pc45c925501)" style="fill: none; stroke: #cccccc; stroke-opacity: 0.5; stroke-linecap: round"/>
     </g>
     <g id="text_7">
      <!-- 2025-01 -->
      <g style="fill: #262626" transform="translate(809.302459 402.655294) rotate(-45) scale(0.11 -0.11)">
       <use xlink:href="#ArialMT-32"/>
       <use xlink:href="#ArialMT-30" x="55.615234"/>
       <use xlink:href="#ArialMT-32" x="111.230469"/>
       <use xlink:href="#ArialMT-35" x="166.845703"/>
       <use xlink:href="#ArialMT-2d" x="222.460938"/>
       <use xlink:href="#ArialMT-30" x="255.761719"/>
       <use xlink:href="#ArialMT-31" x="311.376953"/>
      </g>
     </g>
    </g>
    <g id="text_8">
     <!-- Timestamp -->
     <g style="fill: #262626" transform="translate(433.138125 416.790582) scale(0.12 -0.12)">
      <defs>
       <path id="ArialMT-54" d="M 1659 0 
L 1659 4041 
L 150 4041 
L 150 4581 
L 3781 4581 
L 3781 4041 
L 2266 4041 
L 2266 0 
L 1659 0 
z
" transform="scale(0.015625)"/>
       <path id="ArialMT-69" d="M 425 3934 
L 425 4581 
L 988 4581 
L 988 3934 
L 425 3934 
z
M 425 0 
L 425 3319 
L 988 3319 
L 988 0 
L 425 0 
z
" transform="scale(0.015625)"/>
       <path id="ArialMT-6d" d="M 422 0 
L 422 3319 
L 925 3319 
L 925 2853 
Q 1081 3097 1340 3245 
Q 1600 3394 1931 3394 
Q 2300 3394 2536 3241 
Q 2772 3088 2869 2813 
Q 3263 3394 3894 3394 
Q 4388 3394 4653 3120 
Q 4919 2847 4919 2278 
L 4919 0 
L 4359 0 
L 4359 2091 
Q 4359 2428 4304 2576 
Q 4250 2725 4106 2815 
Q 3963 2906 3769 2906 
Q 3419 2906 3187 2673 
Q 2956 2441 2956 1928 
L 2956 0 
L 2394 0 
L 2394 2156 
Q 2394 2531 2256 2718 
Q 2119 2906 1806 2906 
Q 1569 2906 1367 2781 
Q 1166 2656 1075 2415 
Q 984 2175 984 1722 
L 984 0 
L 422 0 
z
" transform="scale(0.015625)"/>
       <path id="ArialMT-65" d="M 2694 1069 
L 3275 997 
Q 3138 488 2766 206 
Q 2394 -75 1816 -75 
Q 1088 -75 661 373 
Q 234 822 234 1631 
Q 234 2469 665 2931 
Q 1097 3394 1784 3394 
Q 2450 3394 2872 2941 
Q 3294 2488 3294 1666 
Q 3294 1616 3291 1516 
L 816 1516 
Q 847 969 1125 678 
Q 1403 388 1819 388 
Q 2128 388 2347 550 
Q 2566 713 2694 1069 
z
M 847 1978 
L 2700 1978 
Q 2663 2397 2488 2606 
Q 2219 2931 1791 2931 
Q 1403 2931 1139 2672 
Q 875 2413 847 1978 
z
" transform="scale(0.015625)"/>
       <path id="ArialMT-73" d="M 197 991 
L 753 1078 
Q 800 744 1014 566 
Q 1228 388 1613 388 
Q 2000 388 2187 545 
Q 2375 703 2375 916 
Q 2375 1106 2209 1216 
Q 2094 1291 1634 1406 
Q 1016 1563 777 1677 
Q 538 1791 414 1992 
Q 291 2194 291 2438 
Q 291 2659 392 2848 
Q 494 3038 669 3163 
Q 800 3259 1026 3326 
Q 1253 3394 1513 3394 
Q 1903 3394 2198 3281 
Q 2494 3169 2634 2976 
Q 2775 2784 2828 2463 
L 2278 2388 
Q 2241 2644 2061 2787 
Q 1881 2931 1553 2931 
Q 1166 2931 1000 2803 
Q 834 2675 834 2503 
Q 834 2394 903 2306 
Q 972 2216 1119 2156 
Q 1203 2125 1616 2013 
Q 2213 1853 2448 1751 
Q 2684 1650 2818 1456 
Q 2953 1263 2953 975 
Q 2953 694 2789 445 
Q 2625 197 2315 61 
Q 2006 -75 1616 -75 
Q 969 -75 630 194 
Q 291 463 197 991 
z
" transform="scale(0.015625)"/>
       <path id="ArialMT-74" d="M 1650 503 
L 1731 6 
Q 1494 -44 1306 -44 
Q 1000 -44 831 53 
Q 663 150 594 308 
Q 525 466 525 972 
L 525 2881 
L 113 2881 
L 113 3319 
L 525 3319 
L 525 4141 
L 1084 4478 
L 1084 3319 
L 1650 3319 
L 1650 2881 
L 1084 2881 
L 1084 941 
Q 1084 700 1114 631 
Q 1144 563 1211 522 
Q 1278 481 1403 481 
Q 1497 481 1650 503 
z
" transform="scale(0.015625)"/>
       <path id="ArialMT-61" d="M 2588 409 
Q 2275 144 1986 34 
Q 1697 -75 1366 -75 
Q 819 -75 525 192 
Q 231 459 231 875 
Q 231 1119 342 1320 
Q 453 1522 633 1644 
Q 813 1766 1038 1828 
Q 1203 1872 1538 1913 
Q 2219 1994 2541 2106 
Q 2544 2222 2544 2253 
Q 2544 2597 2384 2738 
Q 2169 2928 1744 2928 
Q 1347 2928 1158 2789 
Q 969 2650 878 2297 
L 328 2372 
Q 403 2725 575 2942 
Q 747 3159 1072 3276 
Q 1397 3394 1825 3394 
Q 2250 3394 2515 3294 
Q 2781 3194 2906 3042 
Q 3031 2891 3081 2659 
Q 3109 2516 3109 2141 
L 3109 1391 
Q 3109 606 3145 398 
Q 3181 191 3288 0 
L 2700 0 
Q 2613 175 2588 409 
z
M 2541 1666 
Q 2234 1541 1622 1453 
Q 1275 1403 1131 1340 
Q 988 1278 909 1158 
Q 831 1038 831 891 
Q 831 666 1001 516 
Q 1172 366 1500 366 
Q 1825 366 2078 508 
Q 2331 650 2450 897 
Q 2541 1088 2541 1459 
L 2541 1666 
z
" transform="scale(0.015625)"/>
       <path id="ArialMT-70" d="M 422 -1272 
L 422 3319 
L 934 3319 
L 934 2888 
Q 1116 3141 1344 3267 
Q 1572 3394 1897 3394 
Q 2322 3394 2647 3175 
Q 2972 2956 3137 2557 
Q 3303 2159 3303 1684 
Q 3303 1175 3120 767 
Q 2938 359 2589 142 
Q 2241 -75 1856 -75 
Q 1575 -75 1351 44 
Q 1128 163 984 344 
L 984 -1272 
L 422 -1272 
z
M 931 1641 
Q 931 1000 1190 694 
Q 1450 388 1819 388 
Q 2194 388 2461 705 
Q 2728 1022 2728 1688 
Q 2728 2322 2467 2637 
Q 2206 2953 1844 2953 
Q 1484 2953 1207 2617 
Q 931 2281 931 1641 
z
" transform="scale(0.015625)"/>
      </defs>
      <use xlink:href="#ArialMT-54"/>
      <use xlink:href="#ArialMT-69" x="57.333984"/>
      <use xlink:href="#ArialMT-6d" x="79.550781"/>
      <use xlink:href="#ArialMT-65" x="162.851562"/>
      <use xlink:href="#ArialMT-73" x="218.466797"/>
      <use xlink:href="#ArialMT-74" x="268.466797"/>
      <use xlink:href="#ArialMT-61" x="296.25"/>
      <use xlink:href="#ArialMT-6d" x="351.865234"/>
      <use xlink:href="#ArialMT-70" x="435.166016"/>
     </g>
    </g>
   </g>
   <g id="matplotlib.axis_2">
    <g id="ytick_1">
     <g id="line2d_8">
      <path d="M 74.12625 343.982417 
L 851.04 343.982417 
" clip-path="url(#pc45c925501)" style="fill: none; stroke: #cccccc; stroke-opacity: 0.5; stroke-linecap: round"/>
     </g>
     <g id="text_9">
      <!-- 0 -->
      <g style="fill: #262626" transform="translate(58.509219 347.919214) scale(0.11 -0.11)">
       <use xlink:href="#ArialMT-30"/>
      </g>
     </g>
    </g>
    <g id="ytick_2">
     <g id="line2d_9">
      <path d="M 74.12625 293.771915 
L 851.04 293.771915 
" clip-path="url(#pc45c925501)" style="fill: none; stroke: #cccccc; stroke-opacity: 0.5; stroke-linecap: round"/>
     </g>
     <g id="text_10">
      <!-- 100000 -->
      <g style="fill: #262626" transform="translate(27.924062 297.708712) scale(0.11 -0.11)">
       <use xlink:href="#ArialMT-31"/>
       <use xlink:href="#ArialMT-30" x="55.615234"/>
       <use xlink:href="#ArialMT-30" x="111.230469"/>
       <use xlink:href="#ArialMT-30" x="166.845703"/>
       <use xlink:href="#ArialMT-30" x="222.460938"/>
       <use xlink:href="#ArialMT-30" x="278.076172"/>
      </g>
     </g>
    </g>
    <g id="ytick_3">
     <g id="line2d_10">
      <path d="M 74.12625 243.561412 
L 851.04 243.561412 
" clip-path="url(#pc45c925501)" style="fill: none; stroke: #cccccc; stroke-opacity: 0.5; stroke-linecap: round"/>
     </g>
     <g id="text_11">
      <!-- 200000 -->
      <g style="fill: #262626" transform="translate(27.924062 247.498209) scale(0.11 -0.11)">
       <use xlink:href="#ArialMT-32"/>
       <use xlink:href="#ArialMT-30" x="55.615234"/>
       <use xlink:href="#ArialMT-30" x="111.230469"/>
       <use xlink:href="#ArialMT-30" x="166.845703"/>
       <use xlink:href="#ArialMT-30" x="222.460938"/>
       <use xlink:href="#ArialMT-30" x="278.076172"/>
      </g>
     </g>
    </g>
    <g id="ytick_4">
     <g id="line2d_11">
      <path d="M 74.12625 193.350909 
L 851.04 193.350909 
" clip-path="url(#pc45c925501)" style="fill: none; stroke: #cccccc; stroke-opacity: 0.5; stroke-linecap: round"/>
     </g>
     <g id="text_12">
      <!-- 300000 -->
      <g style="fill: #262626" transform="translate(27.924062 197.287706) scale(0.11 -0.11)">
       <use xlink:href="#ArialMT-33"/>
       <use xlink:href="#ArialMT-30" x="55.615234"/>
       <use xlink:href="#ArialMT-30" x="111.230469"/>
       <use xlink:href="#ArialMT-30" x="166.845703"/>
       <use xlink:href="#ArialMT-30" x="222.460938"/>
       <use xlink:href="#ArialMT-30" x="278.076172"/>
      </g>
     </g>
    </g>
    <g id="ytick_5">
     <g id="line2d_12">
      <path d="M 74.12625 143.140406 
L 851.04 143.140406 
" clip-path="url(#pc45c925501)" style="fill: none; stroke: #cccccc; stroke-opacity: 0.5; stroke-linecap: round"/>
     </g>
     <g id="text_13">
      <!-- 400000 -->
      <g style="fill: #262626" transform="translate(27.924062 147.077203) scale(0.11 -0.11)">
       <use xlink:href="#ArialMT-34"/>
       <use xlink:href="#ArialMT-30" x="55.615234"/>
       <use xlink:href="#ArialMT-30" x="111.230469"/>
       <use xlink:href="#ArialMT-30" x="166.845703"/>
       <use xlink:href="#ArialMT-30" x="222.460938"/>
       <use xlink:href="#ArialMT-30" x="278.076172"/>
      </g>
     </g>
    </g>
    <g id="ytick_6">
     <g id="line2d_13">
      <path d="M 74.12625 92.929904 
L 851.04 92.929904 
" clip-path="url(#pc45c925501)" style="fill: none; stroke: #cccccc; stroke-opacity: 0.5; stroke-linecap: round"/>
     </g>
     <g id="text_14">
      <!-- 500000 -->
      <g style="fill: #262626" transform="translate(27.924062 96.8667) scale(0.11 -0.11)">
       <use xlink:href="#ArialMT-35"/>
       <use xlink:href="#ArialMT-30" x="55.615234"/>
       <use xlink:href="#ArialMT-30" x="111.230469"/>
       <use xlink:href="#ArialMT-30" x="166.845703"/>
       <use xlink:href="#ArialMT-30" x="222.460938"/>
       <use xlink:href="#ArialMT-30" x="278.076172"/>
      </g>
     </g>
    </g>
    <g id="ytick_7">
     <g id="line2d_14">
      <path d="M 74.12625 42.719401 
L 851.04 42.719401 
" clip-path="url(#pc45c925501)" style="fill: none; stroke: #cccccc; stroke-opacity: 0.5; stroke-linecap: round"/>
     </g>
     <g id="text_15">
      <!-- 600000 -->
      <g style="fill: #262626" transform="translate(27.924062 46.656198) scale(0.11 -0.11)">
       <defs>
        <path id="ArialMT-36" d="M 3184 3459 
L 2625 3416 
Q 2550 3747 2413 3897 
Q 2184 4138 1850 4138 
Q 1581 4138 1378 3988 
Q 1113 3794 959 3422 
Q 806 3050 800 2363 
Q 1003 2672 1297 2822 
Q 1591 2972 1913 2972 
Q 2475 2972 2870 2558 
Q 3266 2144 3266 1488 
Q 3266 1056 3080 686 
Q 2894 316 2569 119 
Q 2244 -78 1831 -78 
Q 1128 -78 684 439 
Q 241 956 241 2144 
Q 241 3472 731 4075 
Q 1159 4600 1884 4600 
Q 2425 4600 2770 4297 
Q 3116 3994 3184 3459 
z
M 888 1484 
Q 888 1194 1011 928 
Q 1134 663 1356 523 
Q 1578 384 1822 384 
Q 2178 384 2434 671 
Q 2691 959 2691 1453 
Q 2691 1928 2437 2201 
Q 2184 2475 1800 2475 
Q 1419 2475 1153 2201 
Q 888 1928 888 1484 
z
" transform="scale(0.015625)"/>
       </defs>
       <use xlink:href="#ArialMT-36"/>
       <use xlink:href="#ArialMT-30" x="55.615234"/>
       <use xlink:href="#ArialMT-30" x="111.230469"/>
       <use xlink:href="#ArialMT-30" x="166.845703"/>
       <use xlink:href="#ArialMT-30" x="222.460938"/>
       <use xlink:href="#ArialMT-30" x="278.076172"/>
      </g>
     </g>
    </g>
    <g id="text_16">
     <!-- Total Liquidity (sats) -->
     <g style="fill: #262626" transform="translate(21.398437 246.366534) rotate(-90) scale(0.12 -0.12)">
      <defs>
       <path id="ArialMT-6f" d="M 213 1659 
Q 213 2581 725 3025 
Q 1153 3394 1769 3394 
Q 2453 3394 2887 2945 
Q 3322 2497 3322 1706 
Q 3322 1066 3130 698 
Q 2938 331 2570 128 
Q 2203 -75 1769 -75 
Q 1072 -75 642 372 
Q 213 819 213 1659 
z
M 791 1659 
Q 791 1022 1069 705 
Q 1347 388 1769 388 
Q 2188 388 2466 706 
Q 2744 1025 2744 1678 
Q 2744 2294 2464 2611 
Q 2184 2928 1769 2928 
Q 1347 2928 1069 2612 
Q 791 2297 791 1659 
z
" transform="scale(0.015625)"/>
       <path id="ArialMT-6c" d="M 409 0 
L 409 4581 
L 972 4581 
L 972 0 
L 409 0 
z
" transform="scale(0.015625)"/>
       <path id="ArialMT-20" transform="scale(0.015625)"/>
       <path id="ArialMT-4c" d="M 469 0 
L 469 4581 
L 1075 4581 
L 1075 541 
L 3331 541 
L 3331 0 
L 469 0 
z
" transform="scale(0.015625)"/>
       <path id="ArialMT-71" d="M 2538 -1272 
L 2538 353 
Q 2406 169 2170 47 
Q 1934 -75 1669 -75 
Q 1078 -75 651 397 
Q 225 869 225 1691 
Q 225 2191 398 2587 
Q 572 2984 901 3189 
Q 1231 3394 1625 3394 
Q 2241 3394 2594 2875 
L 2594 3319 
L 3100 3319 
L 3100 -1272 
L 2538 -1272 
z
M 803 1669 
Q 803 1028 1072 708 
Q 1341 388 1716 388 
Q 2075 388 2334 692 
Q 2594 997 2594 1619 
Q 2594 2281 2320 2615 
Q 2047 2950 1678 2950 
Q 1313 2950 1058 2639 
Q 803 2328 803 1669 
z
" transform="scale(0.015625)"/>
       <path id="ArialMT-75" d="M 2597 0 
L 2597 488 
Q 2209 -75 1544 -75 
Q 1250 -75 995 37 
Q 741 150 617 320 
Q 494 491 444 738 
Q 409 903 409 1263 
L 409 3319 
L 972 3319 
L 972 1478 
Q 972 1038 1006 884 
Q 1059 663 1231 536 
Q 1403 409 1656 409 
Q 1909 409 2131 539 
Q 2353 669 2445 892 
Q 2538 1116 2538 1541 
L 2538 3319 
L 3100 3319 
L 3100 0 
L 2597 0 
z
" transform="scale(0.015625)"/>
       <path id="ArialMT-64" d="M 2575 0 
L 2575 419 
Q 2259 -75 1647 -75 
Q 1250 -75 917 144 
Q 584 363 401 755 
Q 219 1147 219 1656 
Q 219 2153 384 2558 
Q 550 2963 881 3178 
Q 1213 3394 1622 3394 
Q 1922 3394 2156 3267 
Q 2391 3141 2538 2938 
L 2538 4581 
L 3097 4581 
L 3097 0 
L 2575 0 
z
M 797 1656 
Q 797 1019 1065 703 
Q 1334 388 1700 388 
Q 2069 388 2326 689 
Q 2584 991 2584 1609 
Q 2584 2291 2321 2609 
Q 2059 2928 1675 2928 
Q 1300 2928 1048 2622 
Q 797 2316 797 1656 
z
" transform="scale(0.015625)"/>
       <path id="ArialMT-79" d="M 397 -1278 
L 334 -750 
Q 519 -800 656 -800 
Q 844 -800 956 -737 
Q 1069 -675 1141 -563 
Q 1194 -478 1313 -144 
Q 1328 -97 1363 -6 
L 103 3319 
L 709 3319 
L 1400 1397 
Q 1534 1031 1641 628 
Q 1738 1016 1872 1384 
L 2581 3319 
L 3144 3319 
L 1881 -56 
Q 1678 -603 1566 -809 
Q 1416 -1088 1222 -1217 
Q 1028 -1347 759 -1347 
Q 597 -1347 397 -1278 
z
" transform="scale(0.015625)"/>
       <path id="ArialMT-28" d="M 1497 -1347 
Q 1031 -759 709 28 
Q 388 816 388 1659 
Q 388 2403 628 3084 
Q 909 3875 1497 4659 
L 1900 4659 
Q 1522 4009 1400 3731 
Q 1209 3300 1100 2831 
Q 966 2247 966 1656 
Q 966 153 1900 -1347 
L 1497 -1347 
z
" transform="scale(0.015625)"/>
       <path id="ArialMT-29" d="M 791 -1347 
L 388 -1347 
Q 1322 153 1322 1656 
Q 1322 2244 1188 2822 
Q 1081 3291 891 3722 
Q 769 4003 388 4659 
L 791 4659 
Q 1378 3875 1659 3084 
Q 1900 2403 1900 1659 
Q 1900 816 1576 28 
Q 1253 -759 791 -1347 
z
" transform="scale(0.015625)"/>
      </defs>
      <use xlink:href="#ArialMT-54"/>
      <use xlink:href="#ArialMT-6f" x="49.958984"/>
      <use xlink:href="#ArialMT-74" x="105.574219"/>
      <use xlink:href="#ArialMT-61" x="133.357422"/>
      <use xlink:href="#ArialMT-6c" x="188.972656"/>
      <use xlink:href="#ArialMT-20" x="211.189453"/>
      <use xlink:href="#ArialMT-4c" x="238.972656"/>
      <use xlink:href="#ArialMT-69" x="294.587891"/>
      <use xlink:href="#ArialMT-71" x="316.804688"/>
      <use xlink:href="#ArialMT-75" x="372.419922"/>
      <use xlink:href="#ArialMT-69" x="428.035156"/>
      <use xlink:href="#ArialMT-64" x="450.251953"/>
      <use xlink:href="#ArialMT-69" x="505.867188"/>
      <use xlink:href="#ArialMT-74" x="528.083984"/>
      <use xlink:href="#ArialMT-79" x="555.867188"/>
      <use xlink:href="#ArialMT-20" x="605.867188"/>
      <use xlink:href="#ArialMT-28" x="633.650391"/>
      <use xlink:href="#ArialMT-73" x="666.951172"/>
      <use xlink:href="#ArialMT-61" x="716.951172"/>
      <use xlink:href="#ArialMT-74" x="772.566406"/>
      <use xlink:href="#ArialMT-73" x="800.349609"/>
      <use xlink:href="#ArialMT-29" x="850.349609"/>
     </g>
    </g>
   </g>
   <g id="PolyCollection_1">
    <defs>
     <path id="me363350623" d="M 109.440511 -88.017583 
L 109.440511 -88.017583 
L 111.386201 -88.017583 
L 113.33189 -88.017583 
L 115.277579 -88.017583 
L 117.223269 -88.017583 
L 119.168958 -88.017583 
L 121.114647 -88.017583 
L 123.060337 -88.017583 
L 125.006026 -133.207035 
L 126.951715 -133.207035 
L 128.897405 -178.396488 
L 130.843094 -178.396488 
L 132.788783 -223.58594 
L 134.734473 -223.58594 
L 136.680162 -223.58594 
L 138.625851 -223.58594 
L 140.571541 -268.775393 
L 142.51723 -268.775393 
L 144.462919 -313.964845 
L 146.408609 -389.280599 
L 148.354298 -238.649091 
L 150.299987 -238.649091 
L 152.245677 -283.838543 
L 154.191366 -283.838543 
L 156.137055 -329.027996 
L 158.082745 -329.027996 
L 160.028434 -374.217448 
L 161.974123 -223.58594 
L 163.919813 -268.775393 
L 165.865502 -344.091147 
L 167.811191 -344.091147 
L 169.756881 -344.091147 
L 171.70257 -389.280599 
L 173.648259 -389.280599 
L 175.593949 -238.649091 
L 177.539638 -283.838543 
L 179.485327 -329.027996 
L 181.431017 -329.027996 
L 183.376706 -329.027996 
L 185.322395 -329.027996 
L 187.268085 -374.217448 
L 189.213774 -223.58594 
L 191.159463 -223.58594 
L 193.105153 -223.58594 
L 195.050842 -268.775393 
L 196.996531 -344.091147 
L 198.942221 -344.091147 
L 200.88791 -389.280599 
L 202.833599 -238.649091 
L 204.779289 -283.838543 
L 206.724978 -283.838543 
L 208.670667 -283.838543 
L 210.616357 -329.027996 
L 212.562046 -329.027996 
L 214.507735 -374.217448 
L 216.453425 -223.58594 
L 218.399114 -223.58594 
L 220.344803 -298.901694 
L 222.290493 -298.901694 
L 224.236182 -298.901694 
L 226.181871 -344.091147 
L 228.127561 -389.280599 
L 230.07325 -238.649091 
L 232.018939 -283.838543 
L 233.964629 -283.838543 
L 235.910318 -283.838543 
L 237.856007 -329.027996 
L 239.801697 -374.217448 
L 241.747386 -374.217448 
L 243.693075 -223.58594 
L 245.638765 -223.58594 
L 247.584454 -268.775393 
L 249.530143 -344.091147 
L 251.475833 -344.091147 
L 253.421522 -344.091147 
L 255.367211 -389.280599 
L 257.312901 -238.649091 
L 259.25859 -238.649091 
L 261.204279 -283.838543 
L 263.149969 -329.027996 
L 265.095658 -329.027996 
L 267.041347 -329.027996 
L 268.987037 -374.217448 
L 270.932726 -223.58594 
L 272.878415 -298.901694 
L 274.824105 -298.901694 
L 276.769794 -344.091147 
L 278.715483 -344.091147 
L 280.661173 -344.091147 
L 282.606862 -389.280599 
L 284.552551 -238.649091 
L 286.498241 -238.649091 
L 288.44393 -283.838543 
L 290.389619 -329.027996 
L 292.335309 -329.027996 
L 294.280998 -374.217448 
L 296.226687 -374.217448 
L 298.172377 -223.58594 
L 300.118066 -223.58594 
L 302.063755 -223.58594 
L 304.009444 -268.775393 
L 305.955134 -313.964845 
L 307.900823 -313.964845 
L 309.846512 -389.280599 
L 311.792202 -238.649091 
L 313.737891 -283.838543 
L 315.68358 -283.838543 
L 317.62927 -329.027996 
L 319.574959 -374.217448 
L 321.520648 -374.217448 
L 323.466338 -374.217448 
L 325.412027 -223.58594 
L 327.357716 -223.58594 
L 329.303406 -298.901694 
L 331.249095 -298.901694 
L 333.194784 -344.091147 
L 335.140474 -389.280599 
L 337.086163 -389.280599 
L 339.031852 -238.649091 
L 340.977542 -283.838543 
L 342.923231 -283.838543 
L 344.86892 -283.838543 
L 346.81461 -283.838543 
L 348.760299 -329.027996 
L 350.705988 -374.217448 
L 352.651678 -223.58594 
L 354.597367 -223.58594 
L 356.543056 -268.775393 
L 358.488746 -344.091147 
L 360.434435 -344.091147 
L 362.380124 -389.280599 
L 364.325814 -389.280599 
L 366.271503 -238.649091 
L 368.217192 -238.649091 
L 370.162882 -238.649091 
L 372.108571 -283.838543 
L 374.05426 -329.027996 
L 375.99995 -329.027996 
L 377.945639 -374.217448 
L 379.891328 -223.58594 
L 381.837018 -223.58594 
L 383.782707 -223.58594 
L 385.728396 -298.901694 
L 387.674086 -298.901694 
L 389.619775 -344.091147 
L 391.565464 -389.280599 
L 393.511154 -238.649091 
L 395.456843 -283.838543 
L 397.402532 -329.027996 
L 399.348222 -329.027996 
L 401.293911 -329.027996 
L 403.2396 -329.027996 
L 405.18529 -374.217448 
L 407.130979 -223.58594 
L 409.076668 -268.775393 
L 411.022358 -344.091147 
L 412.968047 -344.091147 
L 414.913736 -344.091147 
L 416.859426 -344.091147 
L 418.805115 -389.280599 
L 420.750804 -238.649091 
L 422.696494 -283.838543 
L 424.642183 -283.838543 
L 426.587872 -329.027996 
L 428.533562 -329.027996 
L 430.479251 -389.280599 
L 432.42494 -389.280599 
L 434.37063 -238.649091 
L 436.316319 -238.649091 
L 438.262008 -283.838543 
L 440.207698 -329.027996 
L 442.153387 -374.217448 
L 444.099076 -374.217448 
L 446.044766 -374.217448 
L 447.990455 -223.58594 
L 449.936144 -268.775393 
L 451.881834 -344.091147 
L 453.827523 -344.091147 
L 455.773212 -389.280599 
L 457.718902 -389.280599 
L 459.664591 -389.280599 
L 461.61028 -238.649091 
L 463.55597 -238.649091 
L 465.501659 -283.838543 
L 467.447348 -283.838543 
L 469.393038 -329.027996 
L 471.338727 -374.217448 
L 473.284416 -374.217448 
L 475.230106 -223.58594 
L 477.175795 -223.58594 
L 479.121484 -268.775393 
L 481.067174 -313.964845 
L 483.012863 -313.964845 
L 484.958552 -389.280599 
L 486.904242 -389.280599 
L 488.849931 -238.649091 
L 490.79562 -283.838543 
L 492.74131 -329.027996 
L 494.686999 -329.027996 
L 496.632688 -329.027996 
L 498.578378 -374.217448 
L 500.524067 -374.217448 
L 502.469756 -223.58594 
L 504.415446 -223.58594 
L 506.361135 -298.901694 
L 508.306824 -298.901694 
L 510.252514 -344.091147 
L 512.198203 -389.280599 
L 514.143892 -389.280599 
L 516.089582 -238.649091 
L 518.035271 -283.838543 
L 519.98096 -283.838543 
L 521.92665 -283.838543 
L 523.872339 -283.838543 
L 525.818028 -329.027996 
L 527.763718 -374.217448 
L 529.709407 -223.58594 
L 531.655096 -223.58594 
L 533.600786 -268.775393 
L 535.546475 -344.091147 
L 537.492164 -389.280599 
L 539.437854 -389.280599 
L 541.383543 -389.280599 
L 543.329232 -238.649091 
L 545.274922 -283.838543 
L 547.220611 -283.838543 
L 549.1663 -329.027996 
L 551.11199 -374.217448 
L 553.057679 -374.217448 
L 555.003368 -374.217448 
L 556.949058 -223.58594 
L 558.894747 -268.775393 
L 560.840436 -268.775393 
L 562.786126 -268.775393 
L 564.731815 -268.775393 
L 566.677504 -313.964845 
L 568.623194 -389.280599 
L 570.568883 -238.649091 
L 572.514572 -283.838543 
L 574.460262 -329.027996 
L 576.405951 -329.027996 
L 578.35164 -374.217448 
L 580.29733 -374.217448 
L 582.243019 -374.217448 
L 584.188708 -223.58594 
L 586.134398 -268.775393 
L 588.080087 -268.775393 
L 590.025776 -344.091147 
L 591.971466 -389.280599 
L 593.917155 -389.280599 
L 595.862844 -389.280599 
L 597.808534 -238.649091 
L 599.754223 -238.649091 
L 601.699912 -283.838543 
L 603.645602 -283.838543 
L 605.591291 -329.027996 
L 607.53698 -374.217448 
L 609.48267 -374.217448 
L 611.428359 -223.58594 
L 613.374048 -223.58594 
L 615.319738 -268.775393 
L 617.265427 -313.964845 
L 619.211116 -389.280599 
L 621.156806 -389.280599 
L 623.102495 -389.280599 
L 625.048184 -238.649091 
L 626.993873 -283.838543 
L 628.939563 -283.838543 
L 630.885252 -329.027996 
L 632.830941 -329.027996 
L 634.776631 -329.027996 
L 636.72232 -374.217448 
L 638.668009 -223.58594 
L 640.613699 -268.775393 
L 642.559388 -268.775393 
L 644.505077 -344.091147 
L 646.450767 -389.280599 
L 648.396456 -389.280599 
L 650.342145 -389.280599 
L 652.287835 -238.649091 
L 654.233524 -283.838543 
L 656.179213 -283.838543 
L 658.124903 -283.838543 
L 660.070592 -329.027996 
L 662.016281 -374.217448 
L 663.961971 -374.217448 
L 665.90766 -223.58594 
L 667.853349 -298.901694 
L 669.799039 -344.091147 
L 671.744728 -344.091147 
L 673.690417 -344.091147 
L 675.636107 -344.091147 
L 677.581796 -389.280599 
L 679.527485 -238.649091 
L 681.473175 -283.838543 
L 683.418864 -283.838543 
L 685.364553 -329.027996 
L 687.310243 -374.217448 
L 689.255932 -374.217448 
L 691.201621 -374.217448 
L 693.147311 -223.58594 
L 695.093 -268.775393 
L 697.038689 -268.775393 
L 698.984379 -313.964845 
L 700.930068 -313.964845 
L 702.875757 -313.964845 
L 704.821447 -389.280599 
L 706.767136 -238.649091 
L 708.712825 -238.649091 
L 710.658515 -283.838543 
L 712.604204 -283.838543 
L 714.549893 -329.027996 
L 716.495583 -374.217448 
L 718.441272 -374.217448 
L 720.386961 -223.58594 
L 722.332651 -223.58594 
L 724.27834 -298.901694 
L 726.224029 -298.901694 
L 728.169719 -344.091147 
L 730.115408 -389.280599 
L 732.061097 -389.280599 
L 734.006787 -238.649091 
L 735.952476 -283.838543 
L 737.898165 -283.838543 
L 739.843855 -329.027996 
L 741.789544 -374.217448 
L 743.735233 -374.217448 
L 745.680923 -374.217448 
L 747.626612 -223.58594 
L 749.572301 -223.58594 
L 751.517991 -268.775393 
L 753.46368 -268.775393 
L 755.409369 -344.091147 
L 757.355059 -389.280599 
L 759.300748 -389.280599 
L 761.246437 -238.649091 
L 763.192127 -283.838543 
L 765.137816 -283.838543 
L 767.083505 -329.027996 
L 769.029195 -374.217448 
L 770.974884 -374.217448 
L 772.920573 -374.217448 
L 774.866263 -223.58594 
L 776.811952 -223.58594 
L 778.757641 -268.775393 
L 780.703331 -313.964845 
L 782.64902 -313.964845 
L 784.594709 -389.280599 
L 786.540399 -389.280599 
L 788.486088 -238.649091 
L 790.431777 -238.649091 
L 792.377467 -283.838543 
L 794.323156 -329.027996 
L 796.268845 -329.027996 
L 798.214535 -329.027996 
L 800.160224 -374.217448 
L 802.105913 -223.58594 
L 804.051603 -268.775393 
L 805.997292 -268.775393 
L 807.942981 -344.091147 
L 809.888671 -389.280599 
L 811.83436 -389.280599 
L 813.780049 -389.280599 
L 815.725739 -238.649091 
L 815.725739 -88.017583 
L 815.725739 -88.017583 
L 813.780049 -88.017583 
L 811.83436 -88.017583 
L 809.888671 -88.017583 
L 807.942981 -88.017583 
L 805.997292 -88.017583 
L 804.051603 -88.017583 
L 802.105913 -88.017583 
L 800.160224 -88.017583 
L 798.214535 -88.017583 
L 796.268845 -88.017583 
L 794.323156 -88.017583 
L 792.377467 -88.017583 
L 790.431777 -88.017583 
L 788.486088 -88.017583 
L 786.540399 -88.017583 
L 784.594709 -88.017583 
L 782.64902 -88.017583 
L 780.703331 -88.017583 
L 778.757641 -88.017583 
L 776.811952 -88.017583 
L 774.866263 -88.017583 
L 772.920573 -88.017583 
L 770.974884 -88.017583 
L 769.029195 -88.017583 
L 767.083505 -88.017583 
L 765.137816 -88.017583 
L 763.192127 -88.017583 
L 761.246437 -88.017583 
L 759.300748 -88.017583 
L 757.355059 -88.017583 
L 755.409369 -88.017583 
L 753.46368 -88.017583 
L 751.517991 -88.017583 
L 749.572301 -88.017583 
L 747.626612 -88.017583 
L 745.680923 -88.017583 
L 743.735233 -88.017583 
L 741.789544 -88.017583 
L 739.843855 -88.017583 
L 737.898165 -88.017583 
L 735.952476 -88.017583 
L 734.006787 -88.017583 
L 732.061097 -88.017583 
L 730.115408 -88.017583 
L 728.169719 -88.017583 
L 726.224029 -88.017583 
L 724.27834 -88.017583 
L 722.332651 -88.017583 
L 720.386961 -88.017583 
L 718.441272 -88.017583 
L 716.495583 -88.017583 
L 714.549893 -88.017583 
L 712.604204 -88.017583 
L 710.658515 -88.017583 
L 708.712825 -88.017583 
L 706.767136 -88.017583 
L 704.821447 -88.017583 
L 702.875757 -88.017583 
L 700.930068 -88.017583 
L 698.984379 -88.017583 
L 697.038689 -88.017583 
L 695.093 -88.017583 
L 693.147311 -88.017583 
L 691.201621 -88.017583 
L 689.255932 -88.017583 
L 687.310243 -88.017583 
L 685.364553 -88.017583 
L 683.418864 -88.017583 
L 681.473175 -88.017583 
L 679.527485 -88.017583 
L 677.581796 -88.017583 
L 675.636107 -88.017583 
L 673.690417 -88.017583 
L 671.744728 -88.017583 
L 669.799039 -88.017583 
L 667.853349 -88.017583 
L 665.90766 -88.017583 
L 663.961971 -88.017583 
L 662.016281 -88.017583 
L 660.070592 -88.017583 
L 658.124903 -88.017583 
L 656.179213 -88.017583 
L 654.233524 -88.017583 
L 652.287835 -88.017583 
L 650.342145 -88.017583 
L 648.396456 -88.017583 
L 646.450767 -88.017583 
L 644.505077 -88.017583 
L 642.559388 -88.017583 
L 640.613699 -88.017583 
L 638.668009 -88.017583 
L 636.72232 -88.017583 
L 634.776631 -88.017583 
L 632.830941 -88.017583 
L 630.885252 -88.017583 
L 628.939563 -88.017583 
L 626.993873 -88.017583 
L 625.048184 -88.017583 
L 623.102495 -88.017583 
L 621.156806 -88.017583 
L 619.211116 -88.017583 
L 617.265427 -88.017583 
L 615.319738 -88.017583 
L 613.374048 -88.017583 
L 611.428359 -88.017583 
L 609.48267 -88.017583 
L 607.53698 -88.017583 
L 605.591291 -88.017583 
L 603.645602 -88.017583 
L 601.699912 -88.017583 
L 599.754223 -88.017583 
L 597.808534 -88.017583 
L 595.862844 -88.017583 
L 593.917155 -88.017583 
L 591.971466 -88.017583 
L 590.025776 -88.017583 
L 588.080087 -88.017583 
L 586.134398 -88.017583 
L 584.188708 -88.017583 
L 582.243019 -88.017583 
L 580.29733 -88.017583 
L 578.35164 -88.017583 
L 576.405951 -88.017583 
L 574.460262 -88.017583 
L 572.514572 -88.017583 
L 570.568883 -88.017583 
L 568.623194 -88.017583 
L 566.677504 -88.017583 
L 564.731815 -88.017583 
L 562.786126 -88.017583 
L 560.840436 -88.017583 
L 558.894747 -88.017583 
L 556.949058 -88.017583 
L 555.003368 -88.017583 
L 553.057679 -88.017583 
L 551.11199 -88.017583 
L 549.1663 -88.017583 
L 547.220611 -88.017583 
L 545.274922 -88.017583 
L 543.329232 -88.017583 
L 541.383543 -88.017583 
L 539.437854 -88.017583 
L 537.492164 -88.017583 
L 535.546475 -88.017583 
L 533.600786 -88.017583 
L 531.655096 -88.017583 
L 529.709407 -88.017583 
L 527.763718 -88.017583 
L 525.818028 -88.017583 
L 523.872339 -88.017583 
L 521.92665 -88.017583 
L 519.98096 -88.017583 
L 518.035271 -88.017583 
L 516.089582 -88.017583 
L 514.143892 -88.017583 
L 512.198203 -88.017583 
L 510.252514 -88.017583 
L 508.306824 -88.017583 
L 506.361135 -88.017583 
L 504.415446 -88.017583 
L 502.469756 -88.017583 
L 500.524067 -88.017583 
L 498.578378 -88.017583 
L 496.632688 -88.017583 
L 494.686999 -88.017583 
L 492.74131 -88.017583 
L 490.79562 -88.017583 
L 488.849931 -88.017583 
L 486.904242 -88.017583 
L 484.958552 -88.017583 
L 483.012863 -88.017583 
L 481.067174 -88.017583 
L 479.121484 -88.017583 
L 477.175795 -88.017583 
L 475.230106 -88.017583 
L 473.284416 -88.017583 
L 471.338727 -88.017583 
L 469.393038 -88.017583 
L 467.447348 -88.017583 
L 465.501659 -88.017583 
L 463.55597 -88.017583 
L 461.61028 -88.017583 
L 459.664591 -88.017583 
L 457.718902 -88.017583 
L 455.773212 -88.017583 
L 453.827523 -88.017583 
L 451.881834 -88.017583 
L 449.936144 -88.017583 
L 447.990455 -88.017583 
L 446.044766 -88.017583 
L 444.099076 -88.017583 
L 442.153387 -88.017583 
L 440.207698 -88.017583 
L 438.262008 -88.017583 
L 436.316319 -88.017583 
L 434.37063 -88.017583 
L 432.42494 -88.017583 
L 430.479251 -88.017583 
L 428.533562 -88.017583 
L 426.587872 -88.017583 
L 424.642183 -88.017583 
L 422.696494 -88.017583 
L 420.750804 -88.017583 
L 418.805115 -88.017583 
L 416.859426 -88.017583 
L 414.913736 -88.017583 
L 412.968047 -88.017583 
L 411.022358 -88.017583 
L 409.076668 -88.017583 
L 407.130979 -88.017583 
L 405.18529 -88.017583 
L 403.2396 -88.017583 
L 401.293911 -88.017583 
L 399.348222 -88.017583 
L 397.402532 -88.017583 
L 395.456843 -88.017583 
L 393.511154 -88.017583 
L 391.565464 -88.017583 
L 389.619775 -88.017583 
L 387.674086 -88.017583 
L 385.728396 -88.017583 
L 383.782707 -88.017583 
L 381.837018 -88.017583 
L 379.891328 -88.017583 
L 377.945639 -88.017583 
L 375.99995 -88.017583 
L 374.05426 -88.017583 
L 372.108571 -88.017583 
L 370.162882 -88.017583 
L 368.217192 -88.017583 
L 366.271503 -88.017583 
L 364.325814 -88.017583 
L 362.380124 -88.017583 
L 360.434435 -88.017583 
L 358.488746 -88.017583 
L 356.543056 -88.017583 
L 354.597367 -88.017583 
L 352.651678 -88.017583 
L 350.705988 -88.017583 
L 348.760299 -88.017583 
L 346.81461 -88.017583 
L 344.86892 -88.017583 
L 342.923231 -88.017583 
L 340.977542 -88.017583 
L 339.031852 -88.017583 
L 337.086163 -88.017583 
L 335.140474 -88.017583 
L 333.194784 -88.017583 
L 331.249095 -88.017583 
L 329.303406 -88.017583 
L 327.357716 -88.017583 
L 325.412027 -88.017583 
L 323.466338 -88.017583 
L 321.520648 -88.017583 
L 319.574959 -88.017583 
L 317.62927 -88.017583 
L 315.68358 -88.017583 
L 313.737891 -88.017583 
L 311.792202 -88.017583 
L 309.846512 -88.017583 
L 307.900823 -88.017583 
L 305.955134 -88.017583 
L 304.009444 -88.017583 
L 302.063755 -88.017583 
L 300.118066 -88.017583 
L 298.172377 -88.017583 
L 296.226687 -88.017583 
L 294.280998 -88.017583 
L 292.335309 -88.017583 
L 290.389619 -88.017583 
L 288.44393 -88.017583 
L 286.498241 -88.017583 
L 284.552551 -88.017583 
L 282.606862 -88.017583 
L 280.661173 -88.017583 
L 278.715483 -88.017583 
L 276.769794 -88.017583 
L 274.824105 -88.017583 
L 272.878415 -88.017583 
L 270.932726 -88.017583 
L 268.987037 -88.017583 
L 267.041347 -88.017583 
L 265.095658 -88.017583 
L 263.149969 -88.017583 
L 261.204279 -88.017583 
L 259.25859 -88.017583 
L 257.312901 -88.017583 
L 255.367211 -88.017583 
L 253.421522 -88.017583 
L 251.475833 -88.017583 
L 249.530143 -88.017583 
L 247.584454 -88.017583 
L 245.638765 -88.017583 
L 243.693075 -88.017583 
L 241.747386 -88.017583 
L 239.801697 -88.017583 
L 237.856007 -88.017583 
L 235.910318 -88.017583 
L 233.964629 -88.017583 
L 232.018939 -88.017583 
L 230.07325 -88.017583 
L 228.127561 -88.017583 
L 226.181871 -88.017583 
L 224.236182 -88.017583 
L 222.290493 -88.017583 
L 220.344803 -88.017583 
L 218.399114 -88.017583 
L 216.453425 -88.017583 
L 214.507735 -88.017583 
L 212.562046 -88.017583 
L 210.616357 -88.017583 
L 208.670667 -88.017583 
L 206.724978 -88.017583 
L 204.779289 -88.017583 
L 202.833599 -88.017583 
L 200.88791 -88.017583 
L 198.942221 -88.017583 
L 196.996531 -88.017583 
L 195.050842 -88.017583 
L 193.105153 -88.017583 
L 191.159463 -88.017583 
L 189.213774 -88.017583 
L 187.268085 -88.017583 
L 185.322395 -88.017583 
L 183.376706 -88.017583 
L 181.431017 -88.017583 
L 179.485327 -88.017583 
L 177.539638 -88.017583 
L 175.593949 -88.017583 
L 173.648259 -88.017583 
L 171.70257 -88.017583 
L 169.756881 -88.017583 
L 167.811191 -88.017583 
L 165.865502 -88.017583 
L 163.919813 -88.017583 
L 161.974123 -88.017583 
L 160.028434 -88.017583 
L 158.082745 -88.017583 
L 156.137055 -88.017583 
L 154.191366 -88.017583 
L 152.245677 -88.017583 
L 150.299987 -88.017583 
L 148.354298 -88.017583 
L 146.408609 -88.017583 
L 144.462919 -88.017583 
L 142.51723 -88.017583 
L 140.571541 -88.017583 
L 138.625851 -88.017583 
L 136.680162 -88.017583 
L 134.734473 -88.017583 
L 132.788783 -88.017583 
L 130.843094 -88.017583 
L 128.897405 -88.017583 
L 126.951715 -88.017583 
L 125.006026 -88.017583 
L 123.060337 -88.017583 
L 121.114647 -88.017583 
L 119.168958 -88.017583 
L 117.223269 -88.017583 
L 115.277579 -88.017583 
L 113.33189 -88.017583 
L 111.386201 -88.017583 
L 109.440511 -88.017583 
z
" style="stroke: #ffa500; stroke-opacity: 0.4"/>
    </defs>
    <g clip-path="url(#pc45c925501)">
     <use xlink:href="#me363350623" x="0" y="432" style="fill: #ffa500; fill-opacity: 0.4; stroke: #ffa500; stroke-opacity: 0.4"/>
    </g>
   </g>
   <g id="line2d_15">
    <path d="M 109.440511 343.982417 
L 123.060337 343.982417 
L 125.006026 298.792965 
L 126.951715 298.792965 
L 128.897405 253.603512 
L 130.843094 253.603512 
L 132.788783 208.41406 
L 138.625851 208.41406 
L 140.571541 163.224607 
L 142.51723 163.224607 
L 144.462919 118.035155 
L 146.408609 42.719401 
L 148.354298 193.350909 
L 150.299987 193.350909 
L 152.245677 148.161457 
L 154.191366 148.161457 
L 156.137055 102.972004 
L 158.082745 102.972004 
L 160.028434 57.782552 
L 161.974123 208.41406 
L 163.919813 163.224607 
L 165.865502 87.908853 
L 169.756881 87.908853 
L 171.70257 42.719401 
L 173.648259 42.719401 
L 175.593949 193.350909 
L 179.485327 102.972004 
L 185.322395 102.972004 
L 187.268085 57.782552 
L 189.213774 208.41406 
L 193.105153 208.41406 
L 195.050842 163.224607 
L 196.996531 87.908853 
L 198.942221 87.908853 
L 200.88791 42.719401 
L 202.833599 193.350909 
L 204.779289 148.161457 
L 208.670667 148.161457 
L 210.616357 102.972004 
L 212.562046 102.972004 
L 214.507735 57.782552 
L 216.453425 208.41406 
L 218.399114 208.41406 
L 220.344803 133.098306 
L 224.236182 133.098306 
L 228.127561 42.719401 
L 230.07325 193.350909 
L 232.018939 148.161457 
L 235.910318 148.161457 
L 239.801697 57.782552 
L 241.747386 57.782552 
L 243.693075 208.41406 
L 245.638765 208.41406 
L 247.584454 163.224607 
L 249.530143 87.908853 
L 253.421522 87.908853 
L 255.367211 42.719401 
L 257.312901 193.350909 
L 259.25859 193.350909 
L 263.149969 102.972004 
L 267.041347 102.972004 
L 268.987037 57.782552 
L 270.932726 208.41406 
L 272.878415 133.098306 
L 274.824105 133.098306 
L 276.769794 87.908853 
L 280.661173 87.908853 
L 282.606862 42.719401 
L 284.552551 193.350909 
L 286.498241 193.350909 
L 290.389619 102.972004 
L 292.335309 102.972004 
L 294.280998 57.782552 
L 296.226687 57.782552 
L 298.172377 208.41406 
L 302.063755 208.41406 
L 305.955134 118.035155 
L 307.900823 118.035155 
L 309.846512 42.719401 
L 311.792202 193.350909 
L 313.737891 148.161457 
L 315.68358 148.161457 
L 319.574959 57.782552 
L 323.466338 57.782552 
L 325.412027 208.41406 
L 327.357716 208.41406 
L 329.303406 133.098306 
L 331.249095 133.098306 
L 335.140474 42.719401 
L 337.086163 42.719401 
L 339.031852 193.350909 
L 340.977542 148.161457 
L 346.81461 148.161457 
L 350.705988 57.782552 
L 352.651678 208.41406 
L 354.597367 208.41406 
L 356.543056 163.224607 
L 358.488746 87.908853 
L 360.434435 87.908853 
L 362.380124 42.719401 
L 364.325814 42.719401 
L 366.271503 193.350909 
L 370.162882 193.350909 
L 374.05426 102.972004 
L 375.99995 102.972004 
L 377.945639 57.782552 
L 379.891328 208.41406 
L 383.782707 208.41406 
L 385.728396 133.098306 
L 387.674086 133.098306 
L 391.565464 42.719401 
L 393.511154 193.350909 
L 397.402532 102.972004 
L 403.2396 102.972004 
L 405.18529 57.782552 
L 407.130979 208.41406 
L 409.076668 163.224607 
L 411.022358 87.908853 
L 416.859426 87.908853 
L 418.805115 42.719401 
L 420.750804 193.350909 
L 422.696494 148.161457 
L 424.642183 148.161457 
L 426.587872 102.972004 
L 428.533562 102.972004 
L 430.479251 42.719401 
L 432.42494 42.719401 
L 434.37063 193.350909 
L 436.316319 193.350909 
L 442.153387 57.782552 
L 446.044766 57.782552 
L 447.990455 208.41406 
L 449.936144 163.224607 
L 451.881834 87.908853 
L 453.827523 87.908853 
L 455.773212 42.719401 
L 459.664591 42.719401 
L 461.61028 193.350909 
L 463.55597 193.350909 
L 465.501659 148.161457 
L 467.447348 148.161457 
L 471.338727 57.782552 
L 473.284416 57.782552 
L 475.230106 208.41406 
L 477.175795 208.41406 
L 481.067174 118.035155 
L 483.012863 118.035155 
L 484.958552 42.719401 
L 486.904242 42.719401 
L 488.849931 193.350909 
L 492.74131 102.972004 
L 496.632688 102.972004 
L 498.578378 57.782552 
L 500.524067 57.782552 
L 502.469756 208.41406 
L 504.415446 208.41406 
L 506.361135 133.098306 
L 508.306824 133.098306 
L 512.198203 42.719401 
L 514.143892 42.719401 
L 516.089582 193.350909 
L 518.035271 148.161457 
L 523.872339 148.161457 
L 527.763718 57.782552 
L 529.709407 208.41406 
L 531.655096 208.41406 
L 533.600786 163.224607 
L 535.546475 87.908853 
L 537.492164 42.719401 
L 541.383543 42.719401 
L 543.329232 193.350909 
L 545.274922 148.161457 
L 547.220611 148.161457 
L 551.11199 57.782552 
L 555.003368 57.782552 
L 556.949058 208.41406 
L 558.894747 163.224607 
L 564.731815 163.224607 
L 566.677504 118.035155 
L 568.623194 42.719401 
L 570.568883 193.350909 
L 574.460262 102.972004 
L 576.405951 102.972004 
L 578.35164 57.782552 
L 582.243019 57.782552 
L 584.188708 208.41406 
L 586.134398 163.224607 
L 588.080087 163.224607 
L 590.025776 87.908853 
L 591.971466 42.719401 
L 595.862844 42.719401 
L 597.808534 193.350909 
L 599.754223 193.350909 
L 601.699912 148.161457 
L 603.645602 148.161457 
L 607.53698 57.782552 
L 609.48267 57.782552 
L 611.428359 208.41406 
L 613.374048 208.41406 
L 617.265427 118.035155 
L 619.211116 42.719401 
L 623.102495 42.719401 
L 625.048184 193.350909 
L 626.993873 148.161457 
L 628.939563 148.161457 
L 630.885252 102.972004 
L 634.776631 102.972004 
L 636.72232 57.782552 
L 638.668009 208.41406 
L 640.613699 163.224607 
L 642.559388 163.224607 
L 644.505077 87.908853 
L 646.450767 42.719401 
L 650.342145 42.719401 
L 652.287835 193.350909 
L 654.233524 148.161457 
L 658.124903 148.161457 
L 662.016281 57.782552 
L 663.961971 57.782552 
L 665.90766 208.41406 
L 667.853349 133.098306 
L 669.799039 87.908853 
L 675.636107 87.908853 
L 677.581796 42.719401 
L 679.527485 193.350909 
L 681.473175 148.161457 
L 683.418864 148.161457 
L 687.310243 57.782552 
L 691.201621 57.782552 
L 693.147311 208.41406 
L 695.093 163.224607 
L 697.038689 163.224607 
L 698.984379 118.035155 
L 702.875757 118.035155 
L 704.821447 42.719401 
L 706.767136 193.350909 
L 708.712825 193.350909 
L 710.658515 148.161457 
L 712.604204 148.161457 
L 716.495583 57.782552 
L 718.441272 57.782552 
L 720.386961 208.41406 
L 722.332651 208.41406 
L 724.27834 133.098306 
L 726.224029 133.098306 
L 730.115408 42.719401 
L 732.061097 42.719401 
L 734.006787 193.350909 
L 735.952476 148.161457 
L 737.898165 148.161457 
L 741.789544 57.782552 
L 745.680923 57.782552 
L 747.626612 208.41406 
L 749.572301 208.41406 
L 751.517991 163.224607 
L 753.46368 163.224607 
L 755.409369 87.908853 
L 757.355059 42.719401 
L 759.300748 42.719401 
L 761.246437 193.350909 
L 763.192127 148.161457 
L 765.137816 148.161457 
L 769.029195 57.782552 
L 772.920573 57.782552 
L 774.866263 208.41406 
L 776.811952 208.41406 
L 780.703331 118.035155 
L 782.64902 118.035155 
L 784.594709 42.719401 
L 786.540399 42.719401 
L 788.486088 193.350909 
L 790.431777 193.350909 
L 794.323156 102.972004 
L 798.214535 102.972004 
L 800.160224 57.782552 
L 802.105913 208.41406 
L 804.051603 163.224607 
L 805.997292 163.224607 
L 807.942981 87.908853 
L 809.888671 42.719401 
L 813.780049 42.719401 
L 815.725739 193.350909 
L 815.725739 193.350909 
" clip-path="url(#pc45c925501)" style="fill: none; stroke: #ffa500; stroke-opacity: 0.8; stroke-width: 1.5; stroke-linecap: round"/>
   </g>
   <g id="line2d_16">
    <path d="M 109.440511 343.982417 
L 119.168958 343.982417 
L 121.114647 193.350909 
L 123.060337 193.350909 
L 125.006026 238.540362 
L 126.951715 238.540362 
L 128.897405 283.729814 
L 130.843094 283.729814 
L 132.788783 328.919267 
L 134.734473 178.287758 
L 138.625851 178.287758 
L 140.571541 223.477211 
L 142.51723 223.477211 
L 144.462919 268.666663 
L 146.408609 343.982417 
L 148.354298 193.350909 
L 150.299987 193.350909 
L 152.245677 238.540362 
L 154.191366 238.540362 
L 156.137055 283.729814 
L 158.082745 283.729814 
L 160.028434 328.919267 
L 161.974123 178.287758 
L 163.919813 223.477211 
L 165.865502 298.792965 
L 169.756881 298.792965 
L 171.70257 343.982417 
L 173.648259 343.982417 
L 175.593949 193.350909 
L 179.485327 283.729814 
L 185.322395 283.729814 
L 187.268085 328.919267 
L 189.213774 178.287758 
L 193.105153 178.287758 
L 195.050842 223.477211 
L 196.996531 298.792965 
L 198.942221 298.792965 
L 200.88791 343.982417 
L 202.833599 193.350909 
L 204.779289 238.540362 
L 208.670667 238.540362 
L 210.616357 283.729814 
L 212.562046 283.729814 
L 214.507735 328.919267 
L 216.453425 178.287758 
L 218.399114 178.287758 
L 220.344803 253.603512 
L 224.236182 253.603512 
L 228.127561 343.982417 
L 230.07325 193.350909 
L 232.018939 238.540362 
L 235.910318 238.540362 
L 239.801697 328.919267 
L 241.747386 328.919267 
L 243.693075 178.287758 
L 245.638765 178.287758 
L 247.584454 223.477211 
L 249.530143 298.792965 
L 253.421522 298.792965 
L 255.367211 343.982417 
L 257.312901 193.350909 
L 259.25859 193.350909 
L 263.149969 283.729814 
L 267.041347 283.729814 
L 268.987037 328.919267 
L 270.932726 178.287758 
L 272.878415 253.603512 
L 274.824105 253.603512 
L 276.769794 298.792965 
L 280.661173 298.792965 
L 282.606862 343.982417 
L 284.552551 193.350909 
L 286.498241 193.350909 
L 290.389619 283.729814 
L 292.335309 283.729814 
L 294.280998 328.919267 
L 296.226687 328.919267 
L 298.172377 178.287758 
L 302.063755 178.287758 
L 305.955134 268.666663 
L 307.900823 268.666663 
L 309.846512 343.982417 
L 311.792202 193.350909 
L 313.737891 238.540362 
L 315.68358 238.540362 
L 319.574959 328.919267 
L 323.466338 328.919267 
L 325.412027 178.287758 
L 327.357716 178.287758 
L 329.303406 253.603512 
L 331.249095 253.603512 
L 335.140474 343.982417 
L 337.086163 343.982417 
L 339.031852 193.350909 
L 340.977542 238.540362 
L 346.81461 238.540362 
L 350.705988 328.919267 
L 352.651678 178.287758 
L 354.597367 178.287758 
L 356.543056 223.477211 
L 358.488746 298.792965 
L 360.434435 298.792965 
L 362.380124 343.982417 
L 364.325814 343.982417 
L 366.271503 193.350909 
L 370.162882 193.350909 
L 374.05426 283.729814 
L 375.99995 283.729814 
L 377.945639 328.919267 
L 379.891328 178.287758 
L 383.782707 178.287758 
L 385.728396 253.603512 
L 387.674086 253.603512 
L 391.565464 343.982417 
L 393.511154 193.350909 
L 397.402532 283.729814 
L 403.2396 283.729814 
L 405.18529 328.919267 
L 407.130979 178.287758 
L 409.076668 223.477211 
L 411.022358 298.792965 
L 416.859426 298.792965 
L 418.805115 343.982417 
L 420.750804 193.350909 
L 422.696494 238.540362 
L 424.642183 238.540362 
L 426.587872 283.729814 
L 428.533562 283.729814 
L 430.479251 343.982417 
L 432.42494 343.982417 
L 434.37063 193.350909 
L 436.316319 193.350909 
L 442.153387 328.919267 
L 446.044766 328.919267 
L 447.990455 178.287758 
L 449.936144 223.477211 
L 451.881834 298.792965 
L 453.827523 298.792965 
L 455.773212 343.982417 
L 459.664591 343.982417 
L 461.61028 193.350909 
L 463.55597 193.350909 
L 465.501659 238.540362 
L 467.447348 238.540362 
L 471.338727 328.919267 
L 473.284416 328.919267 
L 475.230106 178.287758 
L 477.175795 178.287758 
L 481.067174 268.666663 
L 483.012863 268.666663 
L 484.958552 343.982417 
L 486.904242 343.982417 
L 488.849931 193.350909 
L 492.74131 283.729814 
L 496.632688 283.729814 
L 498.578378 328.919267 
L 500.524067 328.919267 
L 502.469756 178.287758 
L 504.415446 178.287758 
L 506.361135 253.603512 
L 508.306824 253.603512 
L 512.198203 343.982417 
L 514.143892 343.982417 
L 516.089582 193.350909 
L 518.035271 238.540362 
L 523.872339 238.540362 
L 527.763718 328.919267 
L 529.709407 178.287758 
L 531.655096 178.287758 
L 533.600786 223.477211 
L 535.546475 298.792965 
L 537.492164 343.982417 
L 541.383543 343.982417 
L 543.329232 193.350909 
L 545.274922 238.540362 
L 547.220611 238.540362 
L 551.11199 328.919267 
L 555.003368 328.919267 
L 556.949058 178.287758 
L 558.894747 223.477211 
L 564.731815 223.477211 
L 566.677504 268.666663 
L 568.623194 343.982417 
L 570.568883 193.350909 
L 574.460262 283.729814 
L 576.405951 283.729814 
L 578.35164 328.919267 
L 582.243019 328.919267 
L 584.188708 178.287758 
L 586.134398 223.477211 
L 588.080087 223.477211 
L 590.025776 298.792965 
L 591.971466 343.982417 
L 595.862844 343.982417 
L 597.808534 193.350909 
L 599.754223 193.350909 
L 601.699912 238.540362 
L 603.645602 238.540362 
L 607.53698 328.919267 
L 609.48267 328.919267 
L 611.428359 178.287758 
L 613.374048 178.287758 
L 617.265427 268.666663 
L 619.211116 343.982417 
L 623.102495 343.982417 
L 625.048184 193.350909 
L 626.993873 238.540362 
L 628.939563 238.540362 
L 630.885252 283.729814 
L 634.776631 283.729814 
L 636.72232 328.919267 
L 638.668009 178.287758 
L 640.613699 223.477211 
L 642.559388 223.477211 
L 644.505077 298.792965 
L 646.450767 343.982417 
L 650.342145 343.982417 
L 652.287835 193.350909 
L 654.233524 238.540362 
L 658.124903 238.540362 
L 662.016281 328.919267 
L 663.961971 328.919267 
L 665.90766 178.287758 
L 667.853349 253.603512 
L 669.799039 298.792965 
L 675.636107 298.792965 
L 677.581796 343.982417 
L 679.527485 193.350909 
L 681.473175 238.540362 
L 683.418864 238.540362 
L 687.310243 328.919267 
L 691.201621 328.919267 
L 693.147311 178.287758 
L 695.093 223.477211 
L 697.038689 223.477211 
L 698.984379 268.666663 
L 702.875757 268.666663 
L 704.821447 343.982417 
L 706.767136 193.350909 
L 708.712825 193.350909 
L 710.658515 238.540362 
L 712.604204 238.540362 
L 716.495583 328.919267 
L 718.441272 328.919267 
L 720.386961 178.287758 
L 722.332651 178.287758 
L 724.27834 253.603512 
L 726.224029 253.603512 
L 730.115408 343.982417 
L 732.061097 343.982417 
L 734.006787 193.350909 
L 735.952476 238.540362 
L 737.898165 238.540362 
L 741.789544 328.919267 
L 745.680923 328.919267 
L 747.626612 178.287758 
L 749.572301 178.287758 
L 751.517991 223.477211 
L 753.46368 223.477211 
L 755.409369 298.792965 
L 757.355059 343.982417 
L 759.300748 343.982417 
L 761.246437 193.350909 
L 763.192127 238.540362 
L 765.137816 238.540362 
L 769.029195 328.919267 
L 772.920573 328.919267 
L 774.866263 178.287758 
L 776.811952 178.287758 
L 780.703331 268.666663 
L 782.64902 268.666663 
L 784.594709 343.982417 
L 786.540399 343.982417 
L 788.486088 193.350909 
L 790.431777 193.350909 
L 794.323156 283.729814 
L 798.214535 283.729814 
L 800.160224 328.919267 
L 802.105913 178.287758 
L 804.051603 223.477211 
L 805.997292 223.477211 
L 807.942981 298.792965 
L 809.888671 343.982417 
L 813.780049 343.982417 
L 815.725739 193.350909 
L 815.725739 193.350909 
" clip-path="url(#pc45c925501)" style="fill: none; stroke: #008000; stroke-opacity: 0.8; stroke-width: 1.5; stroke-linecap: round"/>
   </g>
   <g id="patch_3">
    <path d="M 74.12625 359.045568 
L 74.12625 27.65625 
" style="fill: none; stroke: #cccccc; stroke-width: 1.25; stroke-linejoin: miter; stroke-linecap: square"/>
   </g>
   <g id="patch_4">
    <path d="M 851.04 359.045568 
L 851.04 27.65625 
" style="fill: none; stroke: #cccccc; stroke-width: 1.25; stroke-linejoin: miter; stroke-linecap: square"/>
   </g>
   <g id="patch_5">
    <path d="M 74.12625 359.045568 
L 851.04 359.045568 
" style="fill: none; stroke: #cccccc; stroke-width: 1.25; stroke-linejoin: miter; stroke-linecap: square"/>
   </g>
   <g id="patch_6">
    <path d="M 74.12625 27.65625 
L 851.04 27.65625 
" style="fill: none; stroke: #cccccc; stroke-width: 1.25; stroke-linejoin: miter; stroke-linecap: square"/>
   </g>
   <g id="text_17">
    <!-- Area: 155340000.00 sat-days -->
    <g style="fill: #ff8c00" transform="translate(144.462919 57.782552) scale(0.1 -0.1)">
     <defs>
      <path id="ArialMT-41" d="M -9 0 
L 1750 4581 
L 2403 4581 
L 4278 0 
L 3588 0 
L 3053 1388 
L 1138 1388 
L 634 0 
L -9 0 
z
M 1313 1881 
L 2866 1881 
L 2388 3150 
Q 2169 3728 2063 4100 
Q 1975 3659 1816 3225 
L 1313 1881 
z
" transform="scale(0.015625)"/>
      <path id="ArialMT-72" d="M 416 0 
L 416 3319 
L 922 3319 
L 922 2816 
Q 1116 3169 1280 3281 
Q 1444 3394 1641 3394 
Q 1925 3394 2219 3213 
L 2025 2691 
Q 1819 2813 1613 2813 
Q 1428 2813 1281 2702 
Q 1134 2591 1072 2394 
Q 978 2094 978 1738 
L 978 0 
L 416 0 
z
" transform="scale(0.015625)"/>
      <path id="ArialMT-3a" d="M 578 2678 
L 578 3319 
L 1219 3319 
L 1219 2678 
L 578 2678 
z
M 578 0 
L 578 641 
L 1219 641 
L 1219 0 
L 578 0 
z
" transform="scale(0.015625)"/>
      <path id="ArialMT-2e" d="M 581 0 
L 581 641 
L 1222 641 
L 1222 0 
L 581 0 
z
" transform="scale(0.015625)"/>
     </defs>
     <use xlink:href="#ArialMT-41"/>
     <use xlink:href="#ArialMT-72" x="66.699219"/>
     <use xlink:href="#ArialMT-65" x="100"/>
     <use xlink:href="#ArialMT-61" x="155.615234"/>
     <use xlink:href="#ArialMT-3a" x="211.230469"/>
     <use xlink:href="#ArialMT-20" x="239.013672"/>
     <use xlink:href="#ArialMT-31" x="266.796875"/>
     <use xlink:href="#ArialMT-35" x="322.412109"/>
     <use xlink:href="#ArialMT-35" x="378.027344"/>
     <use xlink:href="#ArialMT-33" x="433.642578"/>
     <use xlink:href="#ArialMT-34" x="489.257812"/>
     <use xlink:href="#ArialMT-30" x="544.873047"/>
     <use xlink:href="#ArialMT-30" x="600.488281"/>
     <use xlink:href="#ArialMT-30" x="656.103516"/>
     <use xlink:href="#ArialMT-30" x="711.71875"/>
     <use xlink:href="#ArialMT-2e" x="767.333984"/>
     <use xlink:href="#ArialMT-30" x="795.117188"/>
     <use xlink:href="#ArialMT-30" x="850.732422"/>
     <use xlink:href="#ArialMT-20" x="906.347656"/>
     <use xlink:href="#ArialMT-73" x="934.130859"/>
     <use xlink:href="#ArialMT-61" x="984.130859"/>
     <use xlink:href="#ArialMT-74" x="1039.746094"/>
     <use xlink:href="#ArialMT-2d" x="1067.529297"/>
     <use xlink:href="#ArialMT-64" x="1100.830078"/>
     <use xlink:href="#ArialMT-61" x="1156.445312"/>
     <use xlink:href="#ArialMT-79" x="1212.060547"/>
     <use xlink:href="#ArialMT-73" x="1262.060547"/>
    </g>
   </g>
   <g id="text_18">
    <!-- Ark Server Liquidity Requirements -->
    <g style="fill: #262626" transform="translate(371.550938 21.65625) scale(0.12 -0.12)">
     <defs>
      <path id="ArialMT-6b" d="M 425 0 
L 425 4581 
L 988 4581 
L 988 1969 
L 2319 3319 
L 3047 3319 
L 1778 2088 
L 3175 0 
L 2481 0 
L 1384 1697 
L 988 1316 
L 988 0 
L 425 0 
z
" transform="scale(0.015625)"/>
      <path id="ArialMT-53" d="M 288 1472 
L 859 1522 
Q 900 1178 1048 958 
Q 1197 738 1509 602 
Q 1822 466 2213 466 
Q 2559 466 2825 569 
Q 3091 672 3220 851 
Q 3350 1031 3350 1244 
Q 3350 1459 3225 1620 
Q 3100 1781 2813 1891 
Q 2628 1963 1997 2114 
Q 1366 2266 1113 2400 
Q 784 2572 623 2826 
Q 463 3081 463 3397 
Q 463 3744 659 4045 
Q 856 4347 1234 4503 
Q 1613 4659 2075 4659 
Q 2584 4659 2973 4495 
Q 3363 4331 3572 4012 
Q 3781 3694 3797 3291 
L 3216 3247 
Q 3169 3681 2898 3903 
Q 2628 4125 2100 4125 
Q 1550 4125 1298 3923 
Q 1047 3722 1047 3438 
Q 1047 3191 1225 3031 
Q 1400 2872 2139 2705 
Q 2878 2538 3153 2413 
Q 3553 2228 3743 1945 
Q 3934 1663 3934 1294 
Q 3934 928 3725 604 
Q 3516 281 3123 101 
Q 2731 -78 2241 -78 
Q 1619 -78 1198 103 
Q 778 284 539 648 
Q 300 1013 288 1472 
z
" transform="scale(0.015625)"/>
      <path id="ArialMT-76" d="M 1344 0 
L 81 3319 
L 675 3319 
L 1388 1331 
Q 1503 1009 1600 663 
Q 1675 925 1809 1294 
L 2547 3319 
L 3125 3319 
L 1869 0 
L 1344 0 
z
" transform="scale(0.015625)"/>
      <path id="ArialMT-52" d="M 503 0 
L 503 4581 
L 2534 4581 
Q 3147 4581 3465 4457 
Q 3784 4334 3975 4021 
Q 4166 3709 4166 3331 
Q 4166 2844 3850 2509 
Q 3534 2175 2875 2084 
Q 3116 1969 3241 1856 
Q 3506 1613 3744 1247 
L 4541 0 
L 3778 0 
L 3172 953 
Q 2906 1366 2734 1584 
Q 2563 1803 2427 1890 
Q 2291 1978 2150 2013 
Q 2047 2034 1813 2034 
L 1109 2034 
L 1109 0 
L 503 0 
z
M 1109 2559 
L 2413 2559 
Q 2828 2559 3062 2645 
Q 3297 2731 3419 2920 
Q 3541 3109 3541 3331 
Q 3541 3656 3305 3865 
Q 3069 4075 2559 4075 
L 1109 4075 
L 1109 2559 
z
" transform="scale(0.015625)"/>
      <path id="ArialMT-6e" d="M 422 0 
L 422 3319 
L 928 3319 
L 928 2847 
Q 1294 3394 1984 3394 
Q 2284 3394 2536 3286 
Q 2788 3178 2913 3003 
Q 3038 2828 3088 2588 
Q 3119 2431 3119 2041 
L 3119 0 
L 2556 0 
L 2556 2019 
Q 2556 2363 2490 2533 
Q 2425 2703 2258 2804 
Q 2091 2906 1866 2906 
Q 1506 2906 1245 2678 
Q 984 2450 984 1813 
L 984 0 
L 422 0 
z
" transform="scale(0.015625)"/>
     </defs>
     <use xlink:href="#ArialMT-41"/>
     <use xlink:href="#ArialMT-72" x="66.699219"/>
     <use xlink:href="#ArialMT-6b" x="100"/>
     <use xlink:href="#ArialMT-20" x="150"/>
     <use xlink:href="#ArialMT-53" x="177.783203"/>
     <use xlink:href="#ArialMT-65" x="244.482422"/>
     <use xlink:href="#ArialMT-72" x="300.097656"/>
     <use xlink:href="#ArialMT-76" x="333.398438"/>
     <use xlink:href="#ArialMT-65" x="383.398438"/>
     <use xlink:href="#ArialMT-72" x="439.013672"/>
     <use xlink:href="#ArialMT-20" x="472.314453"/>
     <use xlink:href="#ArialMT-4c" x="500.097656"/>
     <use xlink:href="#ArialMT-69" x="555.712891"/>
     <use xlink:href="#ArialMT-71" x="577.929688"/>
     <use xlink:href="#ArialMT-75" x="633.544922"/>
     <use xlink:href="#ArialMT-69" x="689.160156"/>
     <use xlink:href="#ArialMT-64" x="711.376953"/>
     <use xlink:href="#ArialMT-69" x="766.992188"/>
     <use xlink:href="#ArialMT-74" x="789.208984"/>
     <use xlink:href="#ArialMT-79" x="816.992188"/>
     <use xlink:href="#ArialMT-20" x="866.992188"/>
     <use xlink:href="#ArialMT-52" x="894.775391"/>
     <use xlink:href="#ArialMT-65" x="966.992188"/>
     <use xlink:href="#ArialMT-71" x="1022.607422"/>
     <use xlink:href="#ArialMT-75" x="1078.222656"/>
     <use xlink:href="#ArialMT-69" x="1133.837891"/>
     <use xlink:href="#ArialMT-72" x="1156.054688"/>
     <use xlink:href="#ArialMT-65" x="1189.355469"/>
     <use xlink:href="#ArialMT-6d" x="1244.970703"/>
     <use xlink:href="#ArialMT-65" x="1328.271484"/>
     <use xlink:href="#ArialMT-6e" x="1383.886719"/>
     <use xlink:href="#ArialMT-74" x="1439.501953"/>
     <use xlink:href="#ArialMT-73" x="1467.285156"/>
    </g>
   </g>
   <g id="legend_1">
    <g id="patch_7">
     <path d="M 81.82625 83.527656 
L 234.384219 83.527656 
Q 236.584219 83.527656 236.584219 81.327656 
L 236.584219 35.35625 
Q 236.584219 33.15625 234.384219 33.15625 
L 81.82625 33.15625 
Q 79.62625 33.15625 79.62625 35.35625 
L 79.62625 81.327656 
Q 79.62625 83.527656 81.82625 83.527656 
z
" style="fill: #ffffff; opacity: 0.8; stroke: #cccccc; stroke-linejoin: miter"/>
    </g>
    <g id="patch_8">
     <path d="M 84.02625 45.429844 
L 106.02625 45.429844 
L 106.02625 37.729844 
L 84.02625 37.729844 
z
" style="fill: #ffa500; fill-opacity: 0.4; stroke: #ffa500; stroke-opacity: 0.4; stroke-linejoin: miter"/>
    </g>
    <g id="text_19">
     <!-- Ark server liquidity -->
     <g style="fill: #262626" transform="translate(114.82625 45.429844) scale(0.11 -0.11)">
      <use xlink:href="#ArialMT-41"/>
      <use xlink:href="#ArialMT-72" x="66.699219"/>
      <use xlink:href="#ArialMT-6b" x="100"/>
      <use xlink:href="#ArialMT-20" x="150"/>
      <use xlink:href="#ArialMT-73" x="177.783203"/>
      <use xlink:href="#ArialMT-65" x="227.783203"/>
      <use xlink:href="#ArialMT-72" x="283.398438"/>
      <use xlink:href="#ArialMT-76" x="316.699219"/>
      <use xlink:href="#ArialMT-65" x="366.699219"/>
      <use xlink:href="#ArialMT-72" x="422.314453"/>
      <use xlink:href="#ArialMT-20" x="455.615234"/>
      <use xlink:href="#ArialMT-6c" x="483.398438"/>
      <use xlink:href="#ArialMT-69" x="505.615234"/>
      <use xlink:href="#ArialMT-71" x="527.832031"/>
      <use xlink:href="#ArialMT-75" x="583.447266"/>
      <use xlink:href="#ArialMT-69" x="639.0625"/>
      <use xlink:href="#ArialMT-64" x="661.279297"/>
      <use xlink:href="#ArialMT-69" x="716.894531"/>
      <use xlink:href="#ArialMT-74" x="739.111328"/>
      <use xlink:href="#ArialMT-79" x="766.894531"/>
     </g>
    </g>
    <g id="line2d_17">
     <path d="M 84.02625 57.402656 
L 95.02625 57.402656 
L 106.02625 57.402656 
" style="fill: none; stroke: #ffa500; stroke-opacity: 0.8; stroke-width: 1.5; stroke-linecap: round"/>
    </g>
    <g id="text_20">
     <!-- Ark server liquidity (line) -->
     <g style="fill: #262626" transform="translate(114.82625 61.252656) scale(0.11 -0.11)">
      <use xlink:href="#ArialMT-41"/>
      <use xlink:href="#ArialMT-72" x="66.699219"/>
      <use xlink:href="#ArialMT-6b" x="100"/>
      <use xlink:href="#ArialMT-20" x="150"/>
      <use xlink:href="#ArialMT-73" x="177.783203"/>
      <use xlink:href="#ArialMT-65" x="227.783203"/>
      <use xlink:href="#ArialMT-72" x="283.398438"/>
      <use xlink:href="#ArialMT-76" x="316.699219"/>
      <use xlink:href="#ArialMT-65" x="366.699219"/>
      <use xlink:href="#ArialMT-72" x="422.314453"/>
      <use xlink:href="#ArialMT-20" x="455.615234"/>
      <use xlink:href="#ArialMT-6c" x="483.398438"/>
      <use xlink:href="#ArialMT-69" x="505.615234"/>
      <use xlink:href="#ArialMT-71" x="527.832031"/>
      <use xlink:href="#ArialMT-75" x="583.447266"/>
      <use xlink:href="#ArialMT-69" x="639.0625"/>
      <use xlink:href="#ArialMT-64" x="661.279297"/>
      <use xlink:href="#ArialMT-69" x="716.894531"/>
      <use xlink:href="#ArialMT-74" x="739.111328"/>
      <use xlink:href="#ArialMT-79" x="766.894531"/>
      <use xlink:href="#ArialMT-20" x="816.894531"/>
      <use xlink:href="#ArialMT-28" x="844.677734"/>
      <use xlink:href="#ArialMT-6c" x="877.978516"/>
      <use xlink:href="#ArialMT-69" x="900.195312"/>
      <use xlink:href="#ArialMT-6e" x="922.412109"/>
      <use xlink:href="#ArialMT-65" x="978.027344"/>
      <use xlink:href="#ArialMT-29" x="1033.642578"/>
     </g>
    </g>
    <g id="line2d_18">
     <path d="M 84.02625 73.091406 
L 95.02625 73.091406 
L 106.02625 73.091406 
" style="fill: none; stroke: #008000; stroke-opacity: 0.8; stroke-width: 1.5; stroke-linecap: round"/>
    </g>
    <g id="text_21">
     <!-- User account balance -->
     <g style="fill: #262626" transform="translate(114.82625 76.941406) scale(0.11 -0.11)">
      <defs>
       <path id="ArialMT-55" d="M 3500 4581 
L 4106 4581 
L 4106 1934 
Q 4106 1244 3950 837 
Q 3794 431 3386 176 
Q 2978 -78 2316 -78 
Q 1672 -78 1262 144 
Q 853 366 678 786 
Q 503 1206 503 1934 
L 503 4581 
L 1109 4581 
L 1109 1938 
Q 1109 1341 1220 1058 
Q 1331 775 1601 622 
Q 1872 469 2263 469 
Q 2931 469 3215 772 
Q 3500 1075 3500 1938 
L 3500 4581 
z
" transform="scale(0.015625)"/>
       <path id="ArialMT-63" d="M 2588 1216 
L 3141 1144 
Q 3050 572 2676 248 
Q 2303 -75 1759 -75 
Q 1078 -75 664 370 
Q 250 816 250 1647 
Q 250 2184 428 2587 
Q 606 2991 970 3192 
Q 1334 3394 1763 3394 
Q 2303 3394 2647 3120 
Q 2991 2847 3088 2344 
L 2541 2259 
Q 2463 2594 2264 2762 
Q 2066 2931 1784 2931 
Q 1359 2931 1093 2626 
Q 828 2322 828 1663 
Q 828 994 1084 691 
Q 1341 388 1753 388 
Q 2084 388 2306 591 
Q 2528 794 2588 1216 
z
" transform="scale(0.015625)"/>
       <path id="ArialMT-62" d="M 941 0 
L 419 0 
L 419 4581 
L 981 4581 
L 981 2947 
Q 1338 3394 1891 3394 
Q 2197 3394 2470 3270 
Q 2744 3147 2920 2923 
Q 3097 2700 3197 2384 
Q 3297 2069 3297 1709 
Q 3297 856 2875 390 
Q 2453 -75 1863 -75 
Q 1275 -75 941 416 
L 941 0 
z
M 934 1684 
Q 934 1088 1097 822 
Q 1363 388 1816 388 
Q 2184 388 2453 708 
Q 2722 1028 2722 1663 
Q 2722 2313 2464 2622 
Q 2206 2931 1841 2931 
Q 1472 2931 1203 2611 
Q 934 2291 934 1684 
z
" transform="scale(0.015625)"/>
      </defs>
      <use xlink:href="#ArialMT-55"/>
      <use xlink:href="#ArialMT-73" x="72.216797"/>
      <use xlink:href="#ArialMT-65" x="122.216797"/>
      <use xlink:href="#ArialMT-72" x="177.832031"/>
      <use xlink:href="#ArialMT-20" x="211.132812"/>
      <use xlink:href="#ArialMT-61" x="238.916016"/>
      <use xlink:href="#ArialMT-63" x="294.53125"/>
      <use xlink:href="#ArialMT-63" x="344.53125"/>
      <use xlink:href="#ArialMT-6f" x="394.53125"/>
      <use xlink:href="#ArialMT-75" x="450.146484"/>
      <use xlink:href="#ArialMT-6e" x="505.761719"/>
      <use xlink:href="#ArialMT-74" x="561.376953"/>
      <use xlink:href="#ArialMT-20" x="589.160156"/>
      <use xlink:href="#ArialMT-62" x="616.943359"/>
      <use xlink:href="#ArialMT-61" x="672.558594"/>
      <use xlink:href="#ArialMT-6c" x="728.173828"/>
      <use xlink:href="#ArialMT-61" x="750.390625"/>
      <use xlink:href="#ArialMT-6e" x="806.005859"/>
      <use xlink:href="#ArialMT-63" x="861.621094"/>
      <use xlink:href="#ArialMT-65" x="911.621094"/>
     </g>
    </g>
   </g>
  </g>
 </g>
 <defs>
  <clipPath id="pc45c925501">
   <rect x="74.12625" y="27.65625" width="776.91375" height="331.389318"/>
  </clipPath>
 </defs>
</svg>
