<?xml version="1.0" encoding="utf-8" standalone="no"?>
<!DOCTYPE svg PUBLIC "-//W3C//DTD SVG 1.1//EN"
  "http://www.w3.org/Graphics/SVG/1.1/DTD/svg11.dtd">
<svg xmlns:xlink="http://www.w3.org/1999/xlink" width="864pt" height="432pt" viewBox="0 0 864 432" xmlns="http://www.w3.org/2000/svg" version="1.1">
 <metadata>
  <rdf:RDF xmlns:dc="http://purl.org/dc/elements/1.1/" xmlns:cc="http://creativecommons.org/ns#" xmlns:rdf="http://www.w3.org/1999/02/22-rdf-syntax-ns#">
   <cc:Work>
    <dc:type rdf:resource="http://purl.org/dc/dcmitype/StillImage"/>
    <dc:date>2025-04-26T00:58:18.449497</dc:date>
    <dc:format>image/svg+xml</dc:format>
    <dc:creator>
     <cc:Agent>
      <dc:title>Matplotlib v3.9.3, https://matplotlib.org/</dc:title>
     </cc:Agent>
    </dc:creator>
   </cc:Work>
  </rdf:RDF>
 </metadata>
 <defs>
  <style type="text/css">*{stroke-linejoin: round; stroke-linecap: butt}</style>
 </defs>
 <g id="figure_1">
  <g id="patch_1">
   <path d="M 0 432 
L 864 432 
L 864 0 
L 0 0 
z
" style="fill: #ffffff"/>
  </g>
  <g id="axes_1">
   <g id="patch_2">
    <path d="M 74.03625 359.045568 
L 851.04 359.045568 
L 851.04 27.65625 
L 74.03625 27.65625 
z
" style="fill: #ffffff"/>
   </g>
   <g id="matplotlib.axis_1">
    <g id="xtick_1">
     <g id="line2d_1">
      <path d="M 109.354602 359.045568 
L 109.354602 27.65625 
" clip-path="url(#p4ac24c2412)" style="fill: none; stroke: #cccccc; stroke-opacity: 0.5; stroke-linecap: round"/>
     </g>
     <g id="text_1">
      <!-- 2024-01 -->
      <g style="fill: #262626" transform="translate(97.094255 402.655294) rotate(-45) scale(0.11 -0.11)">
       <defs>
        <path id="ArialMT-32" d="M 3222 541 
L 3222 0 
L 194 0 
Q 188 203 259 391 
Q 375 700 629 1000 
Q 884 1300 1366 1694 
Q 2113 2306 2375 2664 
Q 2638 3022 2638 3341 
Q 2638 3675 2398 3904 
Q 2159 4134 1775 4134 
Q 1369 4134 1125 3890 
Q 881 3647 878 3216 
L 300 3275 
Q 359 3922 746 4261 
Q 1134 4600 1788 4600 
Q 2447 4600 2831 4234 
Q 3216 3869 3216 3328 
Q 3216 3053 3103 2787 
Q 2991 2522 2730 2228 
Q 2469 1934 1863 1422 
Q 1356 997 1212 845 
Q 1069 694 975 541 
L 3222 541 
z
" transform="scale(0.015625)"/>
        <path id="ArialMT-30" d="M 266 2259 
Q 266 3072 433 3567 
Q 600 4063 929 4331 
Q 1259 4600 1759 4600 
Q 2128 4600 2406 4451 
Q 2684 4303 2865 4023 
Q 3047 3744 3150 3342 
Q 3253 2941 3253 2259 
Q 3253 1453 3087 958 
Q 2922 463 2592 192 
Q 2263 -78 1759 -78 
Q 1097 -78 719 397 
Q 266 969 266 2259 
z
M 844 2259 
Q 844 1131 1108 757 
Q 1372 384 1759 384 
Q 2147 384 2411 759 
Q 2675 1134 2675 2259 
Q 2675 3391 2411 3762 
Q 2147 4134 1753 4134 
Q 1366 4134 1134 3806 
Q 844 3388 844 2259 
z
" transform="scale(0.015625)"/>
        <path id="ArialMT-34" d="M 2069 0 
L 2069 1097 
L 81 1097 
L 81 1613 
L 2172 4581 
L 2631 4581 
L 2631 1613 
L 3250 1613 
L 3250 1097 
L 2631 1097 
L 2631 0 
L 2069 0 
z
M 2069 1613 
L 2069 3678 
L 634 1613 
L 2069 1613 
z
" transform="scale(0.015625)"/>
        <path id="ArialMT-2d" d="M 203 1375 
L 203 1941 
L 1931 1941 
L 1931 1375 
L 203 1375 
z
" transform="scale(0.015625)"/>
        <path id="ArialMT-31" d="M 2384 0 
L 1822 0 
L 1822 3584 
Q 1619 3391 1289 3197 
Q 959 3003 697 2906 
L 697 3450 
Q 1169 3672 1522 3987 
Q 1875 4303 2022 4600 
L 2384 4600 
L 2384 0 
z
" transform="scale(0.015625)"/>
       </defs>
       <use xlink:href="#ArialMT-32"/>
       <use xlink:href="#ArialMT-30" x="55.615234"/>
       <use xlink:href="#ArialMT-32" x="111.230469"/>
       <use xlink:href="#ArialMT-34" x="166.845703"/>
       <use xlink:href="#ArialMT-2d" x="222.460938"/>
       <use xlink:href="#ArialMT-30" x="255.761719"/>
       <use xlink:href="#ArialMT-31" x="311.376953"/>
      </g>
     </g>
    </g>
    <g id="xtick_2">
     <g id="line2d_2">
      <path d="M 225.469733 359.045568 
L 225.469733 27.65625 
" clip-path="url(#p4ac24c2412)" style="fill: none; stroke: #cccccc; stroke-opacity: 0.5; stroke-linecap: round"/>
     </g>
     <g id="text_2">
      <!-- 2024-03 -->
      <g style="fill: #262626" transform="translate(213.209385 402.655294) rotate(-45) scale(0.11 -0.11)">
       <defs>
        <path id="ArialMT-33" d="M 269 1209 
L 831 1284 
Q 928 806 1161 595 
Q 1394 384 1728 384 
Q 2125 384 2398 659 
Q 2672 934 2672 1341 
Q 2672 1728 2419 1979 
Q 2166 2231 1775 2231 
Q 1616 2231 1378 2169 
L 1441 2663 
Q 1497 2656 1531 2656 
Q 1891 2656 2178 2843 
Q 2466 3031 2466 3422 
Q 2466 3731 2256 3934 
Q 2047 4138 1716 4138 
Q 1388 4138 1169 3931 
Q 950 3725 888 3313 
L 325 3413 
Q 428 3978 793 4289 
Q 1159 4600 1703 4600 
Q 2078 4600 2393 4439 
Q 2709 4278 2876 4000 
Q 3044 3722 3044 3409 
Q 3044 3113 2884 2869 
Q 2725 2625 2413 2481 
Q 2819 2388 3044 2092 
Q 3269 1797 3269 1353 
Q 3269 753 2831 336 
Q 2394 -81 1725 -81 
Q 1122 -81 723 278 
Q 325 638 269 1209 
z
" transform="scale(0.015625)"/>
       </defs>
       <use xlink:href="#ArialMT-32"/>
       <use xlink:href="#ArialMT-30" x="55.615234"/>
       <use xlink:href="#ArialMT-32" x="111.230469"/>
       <use xlink:href="#ArialMT-34" x="166.845703"/>
       <use xlink:href="#ArialMT-2d" x="222.460938"/>
       <use xlink:href="#ArialMT-30" x="255.761719"/>
       <use xlink:href="#ArialMT-33" x="311.376953"/>
      </g>
     </g>
    </g>
    <g id="xtick_3">
     <g id="line2d_3">
      <path d="M 343.520116 359.045568 
L 343.520116 27.65625 
" clip-path="url(#p4ac24c2412)" style="fill: none; stroke: #cccccc; stroke-opacity: 0.5; stroke-linecap: round"/>
     </g>
     <g id="text_3">
      <!-- 2024-05 -->
      <g style="fill: #262626" transform="translate(331.259768 402.655294) rotate(-45) scale(0.11 -0.11)">
       <defs>
        <path id="ArialMT-35" d="M 266 1200 
L 856 1250 
Q 922 819 1161 601 
Q 1400 384 1738 384 
Q 2144 384 2425 690 
Q 2706 997 2706 1503 
Q 2706 1984 2436 2262 
Q 2166 2541 1728 2541 
Q 1456 2541 1237 2417 
Q 1019 2294 894 2097 
L 366 2166 
L 809 4519 
L 3088 4519 
L 3088 3981 
L 1259 3981 
L 1013 2750 
Q 1425 3038 1878 3038 
Q 2478 3038 2890 2622 
Q 3303 2206 3303 1553 
Q 3303 931 2941 478 
Q 2500 -78 1738 -78 
Q 1113 -78 717 272 
Q 322 622 266 1200 
z
" transform="scale(0.015625)"/>
       </defs>
       <use xlink:href="#ArialMT-32"/>
       <use xlink:href="#ArialMT-30" x="55.615234"/>
       <use xlink:href="#ArialMT-32" x="111.230469"/>
       <use xlink:href="#ArialMT-34" x="166.845703"/>
       <use xlink:href="#ArialMT-2d" x="222.460938"/>
       <use xlink:href="#ArialMT-30" x="255.761719"/>
       <use xlink:href="#ArialMT-35" x="311.376953"/>
      </g>
     </g>
    </g>
    <g id="xtick_4">
     <g id="line2d_4">
      <path d="M 461.570499 359.045568 
L 461.570499 27.65625 
" clip-path="url(#p4ac24c2412)" style="fill: none; stroke: #cccccc; stroke-opacity: 0.5; stroke-linecap: round"/>
     </g>
     <g id="text_4">
      <!-- 2024-07 -->
      <g style="fill: #262626" transform="translate(449.310151 402.655294) rotate(-45) scale(0.11 -0.11)">
       <defs>
        <path id="ArialMT-37" d="M 303 3981 
L 303 4522 
L 3269 4522 
L 3269 4084 
Q 2831 3619 2401 2847 
Q 1972 2075 1738 1259 
Q 1569 684 1522 0 
L 944 0 
Q 953 541 1156 1306 
Q 1359 2072 1739 2783 
Q 2119 3494 2547 3981 
L 303 3981 
z
" transform="scale(0.015625)"/>
       </defs>
       <use xlink:href="#ArialMT-32"/>
       <use xlink:href="#ArialMT-30" x="55.615234"/>
       <use xlink:href="#ArialMT-32" x="111.230469"/>
       <use xlink:href="#ArialMT-34" x="166.845703"/>
       <use xlink:href="#ArialMT-2d" x="222.460938"/>
       <use xlink:href="#ArialMT-30" x="255.761719"/>
       <use xlink:href="#ArialMT-37" x="311.376953"/>
      </g>
     </g>
    </g>
    <g id="xtick_5">
     <g id="line2d_5">
      <path d="M 581.556134 359.045568 
L 581.556134 27.65625 
" clip-path="url(#p4ac24c2412)" style="fill: none; stroke: #cccccc; stroke-opacity: 0.5; stroke-linecap: round"/>
     </g>
     <g id="text_5">
      <!-- 2024-09 -->
      <g style="fill: #262626" transform="translate(569.295786 402.655294) rotate(-45) scale(0.11 -0.11)">
       <defs>
        <path id="ArialMT-39" d="M 350 1059 
L 891 1109 
Q 959 728 1153 556 
Q 1347 384 1650 384 
Q 1909 384 2104 503 
Q 2300 622 2425 820 
Q 2550 1019 2634 1356 
Q 2719 1694 2719 2044 
Q 2719 2081 2716 2156 
Q 2547 1888 2255 1720 
Q 1963 1553 1622 1553 
Q 1053 1553 659 1965 
Q 266 2378 266 3053 
Q 266 3750 677 4175 
Q 1088 4600 1706 4600 
Q 2153 4600 2523 4359 
Q 2894 4119 3086 3673 
Q 3278 3228 3278 2384 
Q 3278 1506 3087 986 
Q 2897 466 2520 194 
Q 2144 -78 1638 -78 
Q 1100 -78 759 220 
Q 419 519 350 1059 
z
M 2653 3081 
Q 2653 3566 2395 3850 
Q 2138 4134 1775 4134 
Q 1400 4134 1122 3828 
Q 844 3522 844 3034 
Q 844 2597 1108 2323 
Q 1372 2050 1759 2050 
Q 2150 2050 2401 2323 
Q 2653 2597 2653 3081 
z
" transform="scale(0.015625)"/>
       </defs>
       <use xlink:href="#ArialMT-32"/>
       <use xlink:href="#ArialMT-30" x="55.615234"/>
       <use xlink:href="#ArialMT-32" x="111.230469"/>
       <use xlink:href="#ArialMT-34" x="166.845703"/>
       <use xlink:href="#ArialMT-2d" x="222.460938"/>
       <use xlink:href="#ArialMT-30" x="255.761719"/>
       <use xlink:href="#ArialMT-39" x="311.376953"/>
      </g>
     </g>
    </g>
    <g id="xtick_6">
     <g id="line2d_6">
      <path d="M 699.606517 359.045568 
L 699.606517 27.65625 
" clip-path="url(#p4ac24c2412)" style="fill: none; stroke: #cccccc; stroke-opacity: 0.5; stroke-linecap: round"/>
     </g>
     <g id="text_6">
      <!-- 2024-11 -->
      <g style="fill: #262626" transform="translate(687.632989 402.081654) rotate(-45) scale(0.11 -0.11)">
       <use xlink:href="#ArialMT-32"/>
       <use xlink:href="#ArialMT-30" x="55.615234"/>
       <use xlink:href="#ArialMT-32" x="111.230469"/>
       <use xlink:href="#ArialMT-34" x="166.845703"/>
       <use xlink:href="#ArialMT-2d" x="222.460938"/>
       <use xlink:href="#ArialMT-31" x="255.761719"/>
       <use xlink:href="#ArialMT-31" x="304.001953"/>
      </g>
     </g>
    </g>
    <g id="xtick_7">
     <g id="line2d_7">
      <path d="M 817.6569 359.045568 
L 817.6569 27.65625 
" clip-path="url(#p4ac24c2412)" style="fill: none; stroke: #cccccc; stroke-opacity: 0.5; stroke-linecap: round"/>
     </g>
     <g id="text_7">
      <!-- 2025-01 -->
      <g style="fill: #262626" transform="translate(805.396552 402.655294) rotate(-45) scale(0.11 -0.11)">
       <use xlink:href="#ArialMT-32"/>
       <use xlink:href="#ArialMT-30" x="55.615234"/>
       <use xlink:href="#ArialMT-32" x="111.230469"/>
       <use xlink:href="#ArialMT-35" x="166.845703"/>
       <use xlink:href="#ArialMT-2d" x="222.460938"/>
       <use xlink:href="#ArialMT-30" x="255.761719"/>
       <use xlink:href="#ArialMT-31" x="311.376953"/>
      </g>
     </g>
    </g>
    <g id="text_8">
     <!-- Timestamp -->
     <g style="fill: #262626" transform="translate(433.093125 416.790582) scale(0.12 -0.12)">
      <defs>
       <path id="ArialMT-54" d="M 1659 0 
L 1659 4041 
L 150 4041 
L 150 4581 
L 3781 4581 
L 3781 4041 
L 2266 4041 
L 2266 0 
L 1659 0 
z
" transform="scale(0.015625)"/>
       <path id="ArialMT-69" d="M 425 3934 
L 425 4581 
L 988 4581 
L 988 3934 
L 425 3934 
z
M 425 0 
L 425 3319 
L 988 3319 
L 988 0 
L 425 0 
z
" transform="scale(0.015625)"/>
       <path id="ArialMT-6d" d="M 422 0 
L 422 3319 
L 925 3319 
L 925 2853 
Q 1081 3097 1340 3245 
Q 1600 3394 1931 3394 
Q 2300 3394 2536 3241 
Q 2772 3088 2869 2813 
Q 3263 3394 3894 3394 
Q 4388 3394 4653 3120 
Q 4919 2847 4919 2278 
L 4919 0 
L 4359 0 
L 4359 2091 
Q 4359 2428 4304 2576 
Q 4250 2725 4106 2815 
Q 3963 2906 3769 2906 
Q 3419 2906 3187 2673 
Q 2956 2441 2956 1928 
L 2956 0 
L 2394 0 
L 2394 2156 
Q 2394 2531 2256 2718 
Q 2119 2906 1806 2906 
Q 1569 2906 1367 2781 
Q 1166 2656 1075 2415 
Q 984 2175 984 1722 
L 984 0 
L 422 0 
z
" transform="scale(0.015625)"/>
       <path id="ArialMT-65" d="M 2694 1069 
L 3275 997 
Q 3138 488 2766 206 
Q 2394 -75 1816 -75 
Q 1088 -75 661 373 
Q 234 822 234 1631 
Q 234 2469 665 2931 
Q 1097 3394 1784 3394 
Q 2450 3394 2872 2941 
Q 3294 2488 3294 1666 
Q 3294 1616 3291 1516 
L 816 1516 
Q 847 969 1125 678 
Q 1403 388 1819 388 
Q 2128 388 2347 550 
Q 2566 713 2694 1069 
z
M 847 1978 
L 2700 1978 
Q 2663 2397 2488 2606 
Q 2219 2931 1791 2931 
Q 1403 2931 1139 2672 
Q 875 2413 847 1978 
z
" transform="scale(0.015625)"/>
       <path id="ArialMT-73" d="M 197 991 
L 753 1078 
Q 800 744 1014 566 
Q 1228 388 1613 388 
Q 2000 388 2187 545 
Q 2375 703 2375 916 
Q 2375 1106 2209 1216 
Q 2094 1291 1634 1406 
Q 1016 1563 777 1677 
Q 538 1791 414 1992 
Q 291 2194 291 2438 
Q 291 2659 392 2848 
Q 494 3038 669 3163 
Q 800 3259 1026 3326 
Q 1253 3394 1513 3394 
Q 1903 3394 2198 3281 
Q 2494 3169 2634 2976 
Q 2775 2784 2828 2463 
L 2278 2388 
Q 2241 2644 2061 2787 
Q 1881 2931 1553 2931 
Q 1166 2931 1000 2803 
Q 834 2675 834 2503 
Q 834 2394 903 2306 
Q 972 2216 1119 2156 
Q 1203 2125 1616 2013 
Q 2213 1853 2448 1751 
Q 2684 1650 2818 1456 
Q 2953 1263 2953 975 
Q 2953 694 2789 445 
Q 2625 197 2315 61 
Q 2006 -75 1616 -75 
Q 969 -75 630 194 
Q 291 463 197 991 
z
" transform="scale(0.015625)"/>
       <path id="ArialMT-74" d="M 1650 503 
L 1731 6 
Q 1494 -44 1306 -44 
Q 1000 -44 831 53 
Q 663 150 594 308 
Q 525 466 525 972 
L 525 2881 
L 113 2881 
L 113 3319 
L 525 3319 
L 525 4141 
L 1084 4478 
L 1084 3319 
L 1650 3319 
L 1650 2881 
L 1084 2881 
L 1084 941 
Q 1084 700 1114 631 
Q 1144 563 1211 522 
Q 1278 481 1403 481 
Q 1497 481 1650 503 
z
" transform="scale(0.015625)"/>
       <path id="ArialMT-61" d="M 2588 409 
Q 2275 144 1986 34 
Q 1697 -75 1366 -75 
Q 819 -75 525 192 
Q 231 459 231 875 
Q 231 1119 342 1320 
Q 453 1522 633 1644 
Q 813 1766 1038 1828 
Q 1203 1872 1538 1913 
Q 2219 1994 2541 2106 
Q 2544 2222 2544 2253 
Q 2544 2597 2384 2738 
Q 2169 2928 1744 2928 
Q 1347 2928 1158 2789 
Q 969 2650 878 2297 
L 328 2372 
Q 403 2725 575 2942 
Q 747 3159 1072 3276 
Q 1397 3394 1825 3394 
Q 2250 3394 2515 3294 
Q 2781 3194 2906 3042 
Q 3031 2891 3081 2659 
Q 3109 2516 3109 2141 
L 3109 1391 
Q 3109 606 3145 398 
Q 3181 191 3288 0 
L 2700 0 
Q 2613 175 2588 409 
z
M 2541 1666 
Q 2234 1541 1622 1453 
Q 1275 1403 1131 1340 
Q 988 1278 909 1158 
Q 831 1038 831 891 
Q 831 666 1001 516 
Q 1172 366 1500 366 
Q 1825 366 2078 508 
Q 2331 650 2450 897 
Q 2541 1088 2541 1459 
L 2541 1666 
z
" transform="scale(0.015625)"/>
       <path id="ArialMT-70" d="M 422 -1272 
L 422 3319 
L 934 3319 
L 934 2888 
Q 1116 3141 1344 3267 
Q 1572 3394 1897 3394 
Q 2322 3394 2647 3175 
Q 2972 2956 3137 2557 
Q 3303 2159 3303 1684 
Q 3303 1175 3120 767 
Q 2938 359 2589 142 
Q 2241 -75 1856 -75 
Q 1575 -75 1351 44 
Q 1128 163 984 344 
L 984 -1272 
L 422 -1272 
z
M 931 1641 
Q 931 1000 1190 694 
Q 1450 388 1819 388 
Q 2194 388 2461 705 
Q 2728 1022 2728 1688 
Q 2728 2322 2467 2637 
Q 2206 2953 1844 2953 
Q 1484 2953 1207 2617 
Q 931 2281 931 1641 
z
" transform="scale(0.015625)"/>
      </defs>
      <use xlink:href="#ArialMT-54"/>
      <use xlink:href="#ArialMT-69" x="57.333984"/>
      <use xlink:href="#ArialMT-6d" x="79.550781"/>
      <use xlink:href="#ArialMT-65" x="162.851562"/>
      <use xlink:href="#ArialMT-73" x="218.466797"/>
      <use xlink:href="#ArialMT-74" x="268.466797"/>
      <use xlink:href="#ArialMT-61" x="296.25"/>
      <use xlink:href="#ArialMT-6d" x="351.865234"/>
      <use xlink:href="#ArialMT-70" x="435.166016"/>
     </g>
    </g>
   </g>
   <g id="matplotlib.axis_2">
    <g id="ytick_1">
     <g id="line2d_8">
      <path d="M 74.03625 343.982417 
L 851.04 343.982417 
" clip-path="url(#p4ac24c2412)" style="fill: none; stroke: #cccccc; stroke-opacity: 0.5; stroke-linecap: round"/>
     </g>
     <g id="text_9">
      <!-- 0 -->
      <g style="fill: #262626" transform="translate(58.419219 347.919214) scale(0.11 -0.11)">
       <use xlink:href="#ArialMT-30"/>
      </g>
     </g>
    </g>
    <g id="ytick_2">
     <g id="line2d_9">
      <path d="M 74.03625 300.944844 
L 851.04 300.944844 
" clip-path="url(#p4ac24c2412)" style="fill: none; stroke: #cccccc; stroke-opacity: 0.5; stroke-linecap: round"/>
     </g>
     <g id="text_10">
      <!-- 50000 -->
      <g style="fill: #262626" transform="translate(33.951094 304.88164) scale(0.11 -0.11)">
       <use xlink:href="#ArialMT-35"/>
       <use xlink:href="#ArialMT-30" x="55.615234"/>
       <use xlink:href="#ArialMT-30" x="111.230469"/>
       <use xlink:href="#ArialMT-30" x="166.845703"/>
       <use xlink:href="#ArialMT-30" x="222.460938"/>
      </g>
     </g>
    </g>
    <g id="ytick_3">
     <g id="line2d_10">
      <path d="M 74.03625 257.90727 
L 851.04 257.90727 
" clip-path="url(#p4ac24c2412)" style="fill: none; stroke: #cccccc; stroke-opacity: 0.5; stroke-linecap: round"/>
     </g>
     <g id="text_11">
      <!-- 100000 -->
      <g style="fill: #262626" transform="translate(27.834063 261.844067) scale(0.11 -0.11)">
       <use xlink:href="#ArialMT-31"/>
       <use xlink:href="#ArialMT-30" x="55.615234"/>
       <use xlink:href="#ArialMT-30" x="111.230469"/>
       <use xlink:href="#ArialMT-30" x="166.845703"/>
       <use xlink:href="#ArialMT-30" x="222.460938"/>
       <use xlink:href="#ArialMT-30" x="278.076172"/>
      </g>
     </g>
    </g>
    <g id="ytick_4">
     <g id="line2d_11">
      <path d="M 74.03625 214.869696 
L 851.04 214.869696 
" clip-path="url(#p4ac24c2412)" style="fill: none; stroke: #cccccc; stroke-opacity: 0.5; stroke-linecap: round"/>
     </g>
     <g id="text_12">
      <!-- 150000 -->
      <g style="fill: #262626" transform="translate(27.834063 218.806493) scale(0.11 -0.11)">
       <use xlink:href="#ArialMT-31"/>
       <use xlink:href="#ArialMT-35" x="55.615234"/>
       <use xlink:href="#ArialMT-30" x="111.230469"/>
       <use xlink:href="#ArialMT-30" x="166.845703"/>
       <use xlink:href="#ArialMT-30" x="222.460938"/>
       <use xlink:href="#ArialMT-30" x="278.076172"/>
      </g>
     </g>
    </g>
    <g id="ytick_5">
     <g id="line2d_12">
      <path d="M 74.03625 171.832122 
L 851.04 171.832122 
" clip-path="url(#p4ac24c2412)" style="fill: none; stroke: #cccccc; stroke-opacity: 0.5; stroke-linecap: round"/>
     </g>
     <g id="text_13">
      <!-- 200000 -->
      <g style="fill: #262626" transform="translate(27.834063 175.768919) scale(0.11 -0.11)">
       <use xlink:href="#ArialMT-32"/>
       <use xlink:href="#ArialMT-30" x="55.615234"/>
       <use xlink:href="#ArialMT-30" x="111.230469"/>
       <use xlink:href="#ArialMT-30" x="166.845703"/>
       <use xlink:href="#ArialMT-30" x="222.460938"/>
       <use xlink:href="#ArialMT-30" x="278.076172"/>
      </g>
     </g>
    </g>
    <g id="ytick_6">
     <g id="line2d_13">
      <path d="M 74.03625 128.794548 
L 851.04 128.794548 
" clip-path="url(#p4ac24c2412)" style="fill: none; stroke: #cccccc; stroke-opacity: 0.5; stroke-linecap: round"/>
     </g>
     <g id="text_14">
      <!-- 250000 -->
      <g style="fill: #262626" transform="translate(27.834063 132.731345) scale(0.11 -0.11)">
       <use xlink:href="#ArialMT-32"/>
       <use xlink:href="#ArialMT-35" x="55.615234"/>
       <use xlink:href="#ArialMT-30" x="111.230469"/>
       <use xlink:href="#ArialMT-30" x="166.845703"/>
       <use xlink:href="#ArialMT-30" x="222.460938"/>
       <use xlink:href="#ArialMT-30" x="278.076172"/>
      </g>
     </g>
    </g>
    <g id="ytick_7">
     <g id="line2d_14">
      <path d="M 74.03625 85.756975 
L 851.04 85.756975 
" clip-path="url(#p4ac24c2412)" style="fill: none; stroke: #cccccc; stroke-opacity: 0.5; stroke-linecap: round"/>
     </g>
     <g id="text_15">
      <!-- 300000 -->
      <g style="fill: #262626" transform="translate(27.834063 89.693771) scale(0.11 -0.11)">
       <use xlink:href="#ArialMT-33"/>
       <use xlink:href="#ArialMT-30" x="55.615234"/>
       <use xlink:href="#ArialMT-30" x="111.230469"/>
       <use xlink:href="#ArialMT-30" x="166.845703"/>
       <use xlink:href="#ArialMT-30" x="222.460938"/>
       <use xlink:href="#ArialMT-30" x="278.076172"/>
      </g>
     </g>
    </g>
    <g id="ytick_8">
     <g id="line2d_15">
      <path d="M 74.03625 42.719401 
L 851.04 42.719401 
" clip-path="url(#p4ac24c2412)" style="fill: none; stroke: #cccccc; stroke-opacity: 0.5; stroke-linecap: round"/>
     </g>
     <g id="text_16">
      <!-- 350000 -->
      <g style="fill: #262626" transform="translate(27.834063 46.656198) scale(0.11 -0.11)">
       <use xlink:href="#ArialMT-33"/>
       <use xlink:href="#ArialMT-35" x="55.615234"/>
       <use xlink:href="#ArialMT-30" x="111.230469"/>
       <use xlink:href="#ArialMT-30" x="166.845703"/>
       <use xlink:href="#ArialMT-30" x="222.460938"/>
       <use xlink:href="#ArialMT-30" x="278.076172"/>
      </g>
     </g>
    </g>
    <g id="text_17">
     <!-- Total Liquidity (sats) -->
     <g style="fill: #262626" transform="translate(21.308438 246.366534) rotate(-90) scale(0.12 -0.12)">
      <defs>
       <path id="ArialMT-6f" d="M 213 1659 
Q 213 2581 725 3025 
Q 1153 3394 1769 3394 
Q 2453 3394 2887 2945 
Q 3322 2497 3322 1706 
Q 3322 1066 3130 698 
Q 2938 331 2570 128 
Q 2203 -75 1769 -75 
Q 1072 -75 642 372 
Q 213 819 213 1659 
z
M 791 1659 
Q 791 1022 1069 705 
Q 1347 388 1769 388 
Q 2188 388 2466 706 
Q 2744 1025 2744 1678 
Q 2744 2294 2464 2611 
Q 2184 2928 1769 2928 
Q 1347 2928 1069 2612 
Q 791 2297 791 1659 
z
" transform="scale(0.015625)"/>
       <path id="ArialMT-6c" d="M 409 0 
L 409 4581 
L 972 4581 
L 972 0 
L 409 0 
z
" transform="scale(0.015625)"/>
       <path id="ArialMT-20" transform="scale(0.015625)"/>
       <path id="ArialMT-4c" d="M 469 0 
L 469 4581 
L 1075 4581 
L 1075 541 
L 3331 541 
L 3331 0 
L 469 0 
z
" transform="scale(0.015625)"/>
       <path id="ArialMT-71" d="M 2538 -1272 
L 2538 353 
Q 2406 169 2170 47 
Q 1934 -75 1669 -75 
Q 1078 -75 651 397 
Q 225 869 225 1691 
Q 225 2191 398 2587 
Q 572 2984 901 3189 
Q 1231 3394 1625 3394 
Q 2241 3394 2594 2875 
L 2594 3319 
L 3100 3319 
L 3100 -1272 
L 2538 -1272 
z
M 803 1669 
Q 803 1028 1072 708 
Q 1341 388 1716 388 
Q 2075 388 2334 692 
Q 2594 997 2594 1619 
Q 2594 2281 2320 2615 
Q 2047 2950 1678 2950 
Q 1313 2950 1058 2639 
Q 803 2328 803 1669 
z
" transform="scale(0.015625)"/>
       <path id="ArialMT-75" d="M 2597 0 
L 2597 488 
Q 2209 -75 1544 -75 
Q 1250 -75 995 37 
Q 741 150 617 320 
Q 494 491 444 738 
Q 409 903 409 1263 
L 409 3319 
L 972 3319 
L 972 1478 
Q 972 1038 1006 884 
Q 1059 663 1231 536 
Q 1403 409 1656 409 
Q 1909 409 2131 539 
Q 2353 669 2445 892 
Q 2538 1116 2538 1541 
L 2538 3319 
L 3100 3319 
L 3100 0 
L 2597 0 
z
" transform="scale(0.015625)"/>
       <path id="ArialMT-64" d="M 2575 0 
L 2575 419 
Q 2259 -75 1647 -75 
Q 1250 -75 917 144 
Q 584 363 401 755 
Q 219 1147 219 1656 
Q 219 2153 384 2558 
Q 550 2963 881 3178 
Q 1213 3394 1622 3394 
Q 1922 3394 2156 3267 
Q 2391 3141 2538 2938 
L 2538 4581 
L 3097 4581 
L 3097 0 
L 2575 0 
z
M 797 1656 
Q 797 1019 1065 703 
Q 1334 388 1700 388 
Q 2069 388 2326 689 
Q 2584 991 2584 1609 
Q 2584 2291 2321 2609 
Q 2059 2928 1675 2928 
Q 1300 2928 1048 2622 
Q 797 2316 797 1656 
z
" transform="scale(0.015625)"/>
       <path id="ArialMT-79" d="M 397 -1278 
L 334 -750 
Q 519 -800 656 -800 
Q 844 -800 956 -737 
Q 1069 -675 1141 -563 
Q 1194 -478 1313 -144 
Q 1328 -97 1363 -6 
L 103 3319 
L 709 3319 
L 1400 1397 
Q 1534 1031 1641 628 
Q 1738 1016 1872 1384 
L 2581 3319 
L 3144 3319 
L 1881 -56 
Q 1678 -603 1566 -809 
Q 1416 -1088 1222 -1217 
Q 1028 -1347 759 -1347 
Q 597 -1347 397 -1278 
z
" transform="scale(0.015625)"/>
       <path id="ArialMT-28" d="M 1497 -1347 
Q 1031 -759 709 28 
Q 388 816 388 1659 
Q 388 2403 628 3084 
Q 909 3875 1497 4659 
L 1900 4659 
Q 1522 4009 1400 3731 
Q 1209 3300 1100 2831 
Q 966 2247 966 1656 
Q 966 153 1900 -1347 
L 1497 -1347 
z
" transform="scale(0.015625)"/>
       <path id="ArialMT-29" d="M 791 -1347 
L 388 -1347 
Q 1322 153 1322 1656 
Q 1322 2244 1188 2822 
Q 1081 3291 891 3722 
Q 769 4003 388 4659 
L 791 4659 
Q 1378 3875 1659 3084 
Q 1900 2403 1900 1659 
Q 1900 816 1576 28 
Q 1253 -759 791 -1347 
z
" transform="scale(0.015625)"/>
      </defs>
      <use xlink:href="#ArialMT-54"/>
      <use xlink:href="#ArialMT-6f" x="49.958984"/>
      <use xlink:href="#ArialMT-74" x="105.574219"/>
      <use xlink:href="#ArialMT-61" x="133.357422"/>
      <use xlink:href="#ArialMT-6c" x="188.972656"/>
      <use xlink:href="#ArialMT-20" x="211.189453"/>
      <use xlink:href="#ArialMT-4c" x="238.972656"/>
      <use xlink:href="#ArialMT-69" x="294.587891"/>
      <use xlink:href="#ArialMT-71" x="316.804688"/>
      <use xlink:href="#ArialMT-75" x="372.419922"/>
      <use xlink:href="#ArialMT-69" x="428.035156"/>
      <use xlink:href="#ArialMT-64" x="450.251953"/>
      <use xlink:href="#ArialMT-69" x="505.867188"/>
      <use xlink:href="#ArialMT-74" x="528.083984"/>
      <use xlink:href="#ArialMT-79" x="555.867188"/>
      <use xlink:href="#ArialMT-20" x="605.867188"/>
      <use xlink:href="#ArialMT-28" x="633.650391"/>
      <use xlink:href="#ArialMT-73" x="666.951172"/>
      <use xlink:href="#ArialMT-61" x="716.951172"/>
      <use xlink:href="#ArialMT-74" x="772.566406"/>
      <use xlink:href="#ArialMT-73" x="800.349609"/>
      <use xlink:href="#ArialMT-29" x="850.349609"/>
     </g>
    </g>
   </g>
   <g id="PolyCollection_1">
    <defs>
     <path id="m7287b3ef1e" d="M 109.354602 -88.017583 
L 109.354602 -88.017583 
L 111.289854 -88.017583 
L 113.225107 -88.017583 
L 115.160359 -88.017583 
L 117.095611 -105.232612 
L 119.030863 -105.232612 
L 120.966115 -109.536369 
L 122.901368 -113.840127 
L 124.83662 -113.840127 
L 126.771872 -113.840127 
L 128.707124 -113.840127 
L 130.642376 -113.840127 
L 132.577628 -346.243025 
L 134.512881 -367.761812 
L 136.448133 -109.536369 
L 138.383385 -109.536369 
L 140.318637 -143.966429 
L 142.253889 -143.966429 
L 144.189142 -143.966429 
L 146.124394 -156.877701 
L 148.059646 -156.877701 
L 149.994898 -156.877701 
L 151.93015 -178.396488 
L 153.865402 -178.396488 
L 155.800655 -178.396488 
L 157.735907 -178.396488 
L 159.671159 -178.396488 
L 161.606411 -187.004002 
L 163.541663 -187.004002 
L 165.476915 -187.004002 
L 167.412168 -187.004002 
L 169.34742 -187.004002 
L 171.282672 -187.004002 
L 173.217924 -187.004002 
L 175.153176 -187.004002 
L 177.088429 -191.30776 
L 179.023681 -191.30776 
L 180.958933 -191.30776 
L 182.894185 -320.420481 
L 184.829437 -320.420481 
L 186.764689 -88.017583 
L 188.699942 -88.017583 
L 190.635194 -100.928855 
L 192.570446 -100.928855 
L 194.505698 -113.840127 
L 196.44095 -113.840127 
L 198.376203 -113.840127 
L 200.311455 -113.840127 
L 202.246707 -113.840127 
L 204.181959 -113.840127 
L 206.117211 -113.840127 
L 208.052463 -113.840127 
L 209.987716 -113.840127 
L 211.922968 -113.840127 
L 213.85822 -113.840127 
L 215.793472 -135.358914 
L 217.728724 -135.358914 
L 219.663976 -135.358914 
L 221.599229 -135.358914 
L 223.534481 -135.358914 
L 225.469733 -135.358914 
L 227.404985 -135.358914 
L 229.340237 -135.358914 
L 231.27549 -135.358914 
L 233.210742 -221.434061 
L 235.145994 -221.434061 
L 237.081246 -92.32134 
L 239.016498 -92.32134 
L 240.95175 -92.32134 
L 242.887003 -92.32134 
L 244.822255 -92.32134 
L 246.757507 -92.32134 
L 248.692759 -96.625097 
L 250.628011 -96.625097 
L 252.563264 -96.625097 
L 254.498516 -96.625097 
L 256.433768 -96.625097 
L 258.36902 -118.143884 
L 260.304272 -118.143884 
L 262.239524 -118.143884 
L 264.174777 -118.143884 
L 266.110029 -118.143884 
L 268.045281 -118.143884 
L 269.980533 -118.143884 
L 271.915785 -118.143884 
L 273.851038 -126.751399 
L 275.78629 -126.751399 
L 277.721542 -126.751399 
L 279.656794 -126.751399 
L 281.592046 -126.751399 
L 283.527298 -169.788973 
L 285.462551 -169.788973 
L 287.397803 -88.017583 
L 289.333055 -105.232612 
L 291.268307 -122.447642 
L 293.203559 -139.662671 
L 295.138811 -139.662671 
L 297.074064 -139.662671 
L 299.009316 -139.662671 
L 300.944568 -139.662671 
L 302.87982 -139.662671 
L 304.815072 -191.30776 
L 306.750325 -191.30776 
L 308.685577 -346.243025 
L 310.620829 -346.243025 
L 312.556081 -88.017583 
L 314.491333 -88.017583 
L 316.426585 -88.017583 
L 318.361838 -88.017583 
L 320.29709 -88.017583 
L 322.232342 -88.017583 
L 324.167594 -122.447642 
L 326.102846 -122.447642 
L 328.038099 -122.447642 
L 329.973351 -122.447642 
L 331.908603 -122.447642 
L 333.843855 -131.055156 
L 335.779107 -131.055156 
L 337.714359 -88.017583 
L 339.649612 -88.017583 
L 341.584864 -88.017583 
L 343.520116 -105.232612 
L 345.455368 -105.232612 
L 347.39062 -105.232612 
L 349.325873 -105.232612 
L 351.261125 -105.232612 
L 353.196377 -105.232612 
L 355.131629 -105.232612 
L 357.066881 -105.232612 
L 359.002133 -242.952848 
L 360.937386 -242.952848 
L 362.872638 -118.143884 
L 364.80789 -118.143884 
L 366.743142 -118.143884 
L 368.678394 -131.055156 
L 370.613646 -131.055156 
L 372.548899 -131.055156 
L 374.484151 -139.662671 
L 376.419403 -148.270186 
L 378.354655 -148.270186 
L 380.289907 -148.270186 
L 382.22516 -162.04221 
L 384.160412 -162.04221 
L 386.095664 -162.04221 
L 388.030916 -153.434695 
L 389.966168 -153.434695 
L 391.90142 -153.434695 
L 393.836673 -153.434695 
L 395.771925 -153.434695 
L 397.707177 -153.434695 
L 399.642429 -153.434695 
L 401.577681 -153.434695 
L 403.512934 -170.649724 
L 405.448186 -170.649724 
L 407.383438 -170.649724 
L 409.31869 -225.737819 
L 411.253942 -225.737819 
L 413.189194 -88.017583 
L 415.124447 -88.017583 
L 417.059699 -88.017583 
L 418.994951 -88.017583 
L 420.930203 -88.017583 
L 422.865455 -105.232612 
L 424.800708 -105.232612 
L 426.73596 -105.232612 
L 428.671212 -105.232612 
L 430.606464 -105.232612 
L 432.541716 -105.232612 
L 434.476968 -105.232612 
L 436.412221 -105.232612 
L 438.347473 -105.232612 
L 440.282725 -105.232612 
L 442.217977 -122.447642 
L 444.153229 -122.447642 
L 446.088481 -122.447642 
L 448.023734 -122.447642 
L 449.958986 -122.447642 
L 451.894238 -122.447642 
L 453.82949 -139.662671 
L 455.764742 -139.662671 
L 457.699995 -143.105677 
L 459.635247 -143.105677 
L 461.570499 -143.105677 
L 463.505751 -88.017583 
L 465.441003 -88.017583 
L 467.376255 -88.017583 
L 469.311508 -105.232612 
L 471.24676 -105.232612 
L 473.182012 -109.536369 
L 475.117264 -113.840127 
L 477.052516 -113.840127 
L 478.987769 -113.840127 
L 480.923021 -113.840127 
L 482.858273 -113.840127 
L 484.793525 -346.243025 
L 486.728777 -367.761812 
L 488.664029 -109.536369 
L 490.599282 -109.536369 
L 492.534534 -143.966429 
L 494.469786 -143.966429 
L 496.405038 -143.966429 
L 498.34029 -156.877701 
L 500.275542 -156.877701 
L 502.210795 -156.877701 
L 504.146047 -178.396488 
L 506.081299 -178.396488 
L 508.016551 -178.396488 
L 509.951803 -178.396488 
L 511.887056 -178.396488 
L 513.822308 -187.004002 
L 515.75756 -187.004002 
L 517.692812 -187.004002 
L 519.628064 -187.004002 
L 521.563316 -187.004002 
L 523.498569 -187.004002 
L 525.433821 -187.004002 
L 527.369073 -187.004002 
L 529.304325 -191.30776 
L 531.239577 -191.30776 
L 533.17483 -191.30776 
L 535.110082 -320.420481 
L 537.045334 -320.420481 
L 538.980586 -88.017583 
L 540.915838 -88.017583 
L 542.85109 -100.928855 
L 544.786343 -100.928855 
L 546.721595 -113.840127 
L 548.656847 -113.840127 
L 550.592099 -113.840127 
L 552.527351 -113.840127 
L 554.462604 -113.840127 
L 556.397856 -113.840127 
L 558.333108 -113.840127 
L 560.26836 -113.840127 
L 562.203612 -113.840127 
L 564.138864 -113.840127 
L 566.074117 -113.840127 
L 568.009369 -135.358914 
L 569.944621 -135.358914 
L 571.879873 -135.358914 
L 573.815125 -135.358914 
L 575.750377 -135.358914 
L 577.68563 -135.358914 
L 579.620882 -135.358914 
L 581.556134 -135.358914 
L 583.491386 -135.358914 
L 585.426638 -217.130304 
L 587.361891 -217.130304 
L 589.297143 -92.32134 
L 591.232395 -92.32134 
L 593.167647 -92.32134 
L 595.102899 -92.32134 
L 597.038151 -92.32134 
L 598.973404 -92.32134 
L 600.908656 -92.32134 
L 602.843908 -92.32134 
L 604.77916 -96.625097 
L 606.714412 -96.625097 
L 608.649665 -96.625097 
L 610.584917 -96.625097 
L 612.520169 -96.625097 
L 614.455421 -118.143884 
L 616.390673 -118.143884 
L 618.325925 -118.143884 
L 620.261178 -118.143884 
L 622.19643 -118.143884 
L 624.131682 -118.143884 
L 626.066934 -118.143884 
L 628.002186 -118.143884 
L 629.937439 -126.751399 
L 631.872691 -126.751399 
L 633.807943 -126.751399 
L 635.743195 -169.788973 
L 637.678447 -169.788973 
L 639.613699 -88.017583 
L 641.548952 -88.017583 
L 643.484204 -105.232612 
L 645.419456 -122.447642 
L 647.354708 -139.662671 
L 649.28996 -139.662671 
L 651.225212 -139.662671 
L 653.160465 -139.662671 
L 655.095717 -139.662671 
L 657.030969 -139.662671 
L 658.966221 -191.30776 
L 660.901473 -191.30776 
L 662.836726 -346.243025 
L 664.771978 -346.243025 
L 666.70723 -88.017583 
L 668.642482 -88.017583 
L 670.577734 -88.017583 
L 672.512986 -88.017583 
L 674.448239 -88.017583 
L 676.383491 -88.017583 
L 678.318743 -122.447642 
L 680.253995 -122.447642 
L 682.189247 -122.447642 
L 684.1245 -122.447642 
L 686.059752 -131.055156 
L 687.995004 -131.055156 
L 689.930256 -88.017583 
L 691.865508 -88.017583 
L 693.80076 -88.017583 
L 695.736013 -88.017583 
L 697.671265 -88.017583 
L 699.606517 -105.232612 
L 701.541769 -105.232612 
L 703.477021 -105.232612 
L 705.412274 -105.232612 
L 707.347526 -105.232612 
L 709.282778 -105.232612 
L 711.21803 -105.232612 
L 713.153282 -242.952848 
L 715.088534 -242.952848 
L 717.023787 -88.017583 
L 718.959039 -118.143884 
L 720.894291 -118.143884 
L 722.829543 -118.143884 
L 724.764795 -131.055156 
L 726.700047 -131.055156 
L 728.6353 -131.055156 
L 730.570552 -139.662671 
L 732.505804 -148.270186 
L 734.441056 -148.270186 
L 736.376308 -148.270186 
L 738.311561 -162.04221 
L 740.246813 -153.434695 
L 742.182065 -153.434695 
L 744.117317 -153.434695 
L 746.052569 -153.434695 
L 747.987821 -153.434695 
L 749.923074 -153.434695 
L 751.858326 -153.434695 
L 753.793578 -153.434695 
L 755.72883 -153.434695 
L 757.664082 -170.649724 
L 759.599335 -170.649724 
L 761.534587 -170.649724 
L 763.469839 -225.737819 
L 765.405091 -225.737819 
L 767.340343 -88.017583 
L 769.275595 -88.017583 
L 771.210848 -88.017583 
L 773.1461 -88.017583 
L 775.081352 -88.017583 
L 777.016604 -105.232612 
L 778.951856 -105.232612 
L 780.887108 -105.232612 
L 782.822361 -105.232612 
L 784.757613 -105.232612 
L 786.692865 -105.232612 
L 788.628117 -105.232612 
L 790.563369 -105.232612 
L 792.498622 -105.232612 
L 794.433874 -105.232612 
L 796.369126 -122.447642 
L 798.304378 -122.447642 
L 800.23963 -122.447642 
L 802.174882 -122.447642 
L 804.110135 -122.447642 
L 806.045387 -122.447642 
L 807.980639 -139.662671 
L 809.915891 -139.662671 
L 811.851143 -139.662671 
L 813.786396 -143.105677 
L 815.721648 -143.105677 
L 815.721648 -88.017583 
L 815.721648 -88.017583 
L 813.786396 -88.017583 
L 811.851143 -88.017583 
L 809.915891 -88.017583 
L 807.980639 -88.017583 
L 806.045387 -88.017583 
L 804.110135 -88.017583 
L 802.174882 -88.017583 
L 800.23963 -88.017583 
L 798.304378 -88.017583 
L 796.369126 -88.017583 
L 794.433874 -88.017583 
L 792.498622 -88.017583 
L 790.563369 -88.017583 
L 788.628117 -88.017583 
L 786.692865 -88.017583 
L 784.757613 -88.017583 
L 782.822361 -88.017583 
L 780.887108 -88.017583 
L 778.951856 -88.017583 
L 777.016604 -88.017583 
L 775.081352 -88.017583 
L 773.1461 -88.017583 
L 771.210848 -88.017583 
L 769.275595 -88.017583 
L 767.340343 -88.017583 
L 765.405091 -88.017583 
L 763.469839 -88.017583 
L 761.534587 -88.017583 
L 759.599335 -88.017583 
L 757.664082 -88.017583 
L 755.72883 -88.017583 
L 753.793578 -88.017583 
L 751.858326 -88.017583 
L 749.923074 -88.017583 
L 747.987821 -88.017583 
L 746.052569 -88.017583 
L 744.117317 -88.017583 
L 742.182065 -88.017583 
L 740.246813 -88.017583 
L 738.311561 -88.017583 
L 736.376308 -88.017583 
L 734.441056 -88.017583 
L 732.505804 -88.017583 
L 730.570552 -88.017583 
L 728.6353 -88.017583 
L 726.700047 -88.017583 
L 724.764795 -88.017583 
L 722.829543 -88.017583 
L 720.894291 -88.017583 
L 718.959039 -88.017583 
L 717.023787 -88.017583 
L 715.088534 -88.017583 
L 713.153282 -88.017583 
L 711.21803 -88.017583 
L 709.282778 -88.017583 
L 707.347526 -88.017583 
L 705.412274 -88.017583 
L 703.477021 -88.017583 
L 701.541769 -88.017583 
L 699.606517 -88.017583 
L 697.671265 -88.017583 
L 695.736013 -88.017583 
L 693.80076 -88.017583 
L 691.865508 -88.017583 
L 689.930256 -88.017583 
L 687.995004 -88.017583 
L 686.059752 -88.017583 
L 684.1245 -88.017583 
L 682.189247 -88.017583 
L 680.253995 -88.017583 
L 678.318743 -88.017583 
L 676.383491 -88.017583 
L 674.448239 -88.017583 
L 672.512986 -88.017583 
L 670.577734 -88.017583 
L 668.642482 -88.017583 
L 666.70723 -88.017583 
L 664.771978 -88.017583 
L 662.836726 -88.017583 
L 660.901473 -88.017583 
L 658.966221 -88.017583 
L 657.030969 -88.017583 
L 655.095717 -88.017583 
L 653.160465 -88.017583 
L 651.225212 -88.017583 
L 649.28996 -88.017583 
L 647.354708 -88.017583 
L 645.419456 -88.017583 
L 643.484204 -88.017583 
L 641.548952 -88.017583 
L 639.613699 -88.017583 
L 637.678447 -88.017583 
L 635.743195 -88.017583 
L 633.807943 -88.017583 
L 631.872691 -88.017583 
L 629.937439 -88.017583 
L 628.002186 -88.017583 
L 626.066934 -88.017583 
L 624.131682 -88.017583 
L 622.19643 -88.017583 
L 620.261178 -88.017583 
L 618.325925 -88.017583 
L 616.390673 -88.017583 
L 614.455421 -88.017583 
L 612.520169 -88.017583 
L 610.584917 -88.017583 
L 608.649665 -88.017583 
L 606.714412 -88.017583 
L 604.77916 -88.017583 
L 602.843908 -88.017583 
L 600.908656 -88.017583 
L 598.973404 -88.017583 
L 597.038151 -88.017583 
L 595.102899 -88.017583 
L 593.167647 -88.017583 
L 591.232395 -88.017583 
L 589.297143 -88.017583 
L 587.361891 -88.017583 
L 585.426638 -88.017583 
L 583.491386 -88.017583 
L 581.556134 -88.017583 
L 579.620882 -88.017583 
L 577.68563 -88.017583 
L 575.750377 -88.017583 
L 573.815125 -88.017583 
L 571.879873 -88.017583 
L 569.944621 -88.017583 
L 568.009369 -88.017583 
L 566.074117 -88.017583 
L 564.138864 -88.017583 
L 562.203612 -88.017583 
L 560.26836 -88.017583 
L 558.333108 -88.017583 
L 556.397856 -88.017583 
L 554.462604 -88.017583 
L 552.527351 -88.017583 
L 550.592099 -88.017583 
L 548.656847 -88.017583 
L 546.721595 -88.017583 
L 544.786343 -88.017583 
L 542.85109 -88.017583 
L 540.915838 -88.017583 
L 538.980586 -88.017583 
L 537.045334 -88.017583 
L 535.110082 -88.017583 
L 533.17483 -88.017583 
L 531.239577 -88.017583 
L 529.304325 -88.017583 
L 527.369073 -88.017583 
L 525.433821 -88.017583 
L 523.498569 -88.017583 
L 521.563316 -88.017583 
L 519.628064 -88.017583 
L 517.692812 -88.017583 
L 515.75756 -88.017583 
L 513.822308 -88.017583 
L 511.887056 -88.017583 
L 509.951803 -88.017583 
L 508.016551 -88.017583 
L 506.081299 -88.017583 
L 504.146047 -88.017583 
L 502.210795 -88.017583 
L 500.275542 -88.017583 
L 498.34029 -88.017583 
L 496.405038 -88.017583 
L 494.469786 -88.017583 
L 492.534534 -88.017583 
L 490.599282 -88.017583 
L 488.664029 -88.017583 
L 486.728777 -88.017583 
L 484.793525 -88.017583 
L 482.858273 -88.017583 
L 480.923021 -88.017583 
L 478.987769 -88.017583 
L 477.052516 -88.017583 
L 475.117264 -88.017583 
L 473.182012 -88.017583 
L 471.24676 -88.017583 
L 469.311508 -88.017583 
L 467.376255 -88.017583 
L 465.441003 -88.017583 
L 463.505751 -88.017583 
L 461.570499 -88.017583 
L 459.635247 -88.017583 
L 457.699995 -88.017583 
L 455.764742 -88.017583 
L 453.82949 -88.017583 
L 451.894238 -88.017583 
L 449.958986 -88.017583 
L 448.023734 -88.017583 
L 446.088481 -88.017583 
L 444.153229 -88.017583 
L 442.217977 -88.017583 
L 440.282725 -88.017583 
L 438.347473 -88.017583 
L 436.412221 -88.017583 
L 434.476968 -88.017583 
L 432.541716 -88.017583 
L 430.606464 -88.017583 
L 428.671212 -88.017583 
L 426.73596 -88.017583 
L 424.800708 -88.017583 
L 422.865455 -88.017583 
L 420.930203 -88.017583 
L 418.994951 -88.017583 
L 417.059699 -88.017583 
L 415.124447 -88.017583 
L 413.189194 -88.017583 
L 411.253942 -88.017583 
L 409.31869 -88.017583 
L 407.383438 -88.017583 
L 405.448186 -88.017583 
L 403.512934 -88.017583 
L 401.577681 -88.017583 
L 399.642429 -88.017583 
L 397.707177 -88.017583 
L 395.771925 -88.017583 
L 393.836673 -88.017583 
L 391.90142 -88.017583 
L 389.966168 -88.017583 
L 388.030916 -88.017583 
L 386.095664 -88.017583 
L 384.160412 -88.017583 
L 382.22516 -88.017583 
L 380.289907 -88.017583 
L 378.354655 -88.017583 
L 376.419403 -88.017583 
L 374.484151 -88.017583 
L 372.548899 -88.017583 
L 370.613646 -88.017583 
L 368.678394 -88.017583 
L 366.743142 -88.017583 
L 364.80789 -88.017583 
L 362.872638 -88.017583 
L 360.937386 -88.017583 
L 359.002133 -88.017583 
L 357.066881 -88.017583 
L 355.131629 -88.017583 
L 353.196377 -88.017583 
L 351.261125 -88.017583 
L 349.325873 -88.017583 
L 347.39062 -88.017583 
L 345.455368 -88.017583 
L 343.520116 -88.017583 
L 341.584864 -88.017583 
L 339.649612 -88.017583 
L 337.714359 -88.017583 
L 335.779107 -88.017583 
L 333.843855 -88.017583 
L 331.908603 -88.017583 
L 329.973351 -88.017583 
L 328.038099 -88.017583 
L 326.102846 -88.017583 
L 324.167594 -88.017583 
L 322.232342 -88.017583 
L 320.29709 -88.017583 
L 318.361838 -88.017583 
L 316.426585 -88.017583 
L 314.491333 -88.017583 
L 312.556081 -88.017583 
L 310.620829 -88.017583 
L 308.685577 -88.017583 
L 306.750325 -88.017583 
L 304.815072 -88.017583 
L 302.87982 -88.017583 
L 300.944568 -88.017583 
L 299.009316 -88.017583 
L 297.074064 -88.017583 
L 295.138811 -88.017583 
L 293.203559 -88.017583 
L 291.268307 -88.017583 
L 289.333055 -88.017583 
L 287.397803 -88.017583 
L 285.462551 -88.017583 
L 283.527298 -88.017583 
L 281.592046 -88.017583 
L 279.656794 -88.017583 
L 277.721542 -88.017583 
L 275.78629 -88.017583 
L 273.851038 -88.017583 
L 271.915785 -88.017583 
L 269.980533 -88.017583 
L 268.045281 -88.017583 
L 266.110029 -88.017583 
L 264.174777 -88.017583 
L 262.239524 -88.017583 
L 260.304272 -88.017583 
L 258.36902 -88.017583 
L 256.433768 -88.017583 
L 254.498516 -88.017583 
L 252.563264 -88.017583 
L 250.628011 -88.017583 
L 248.692759 -88.017583 
L 246.757507 -88.017583 
L 244.822255 -88.017583 
L 242.887003 -88.017583 
L 240.95175 -88.017583 
L 239.016498 -88.017583 
L 237.081246 -88.017583 
L 235.145994 -88.017583 
L 233.210742 -88.017583 
L 231.27549 -88.017583 
L 229.340237 -88.017583 
L 227.404985 -88.017583 
L 225.469733 -88.017583 
L 223.534481 -88.017583 
L 221.599229 -88.017583 
L 219.663976 -88.017583 
L 217.728724 -88.017583 
L 215.793472 -88.017583 
L 213.85822 -88.017583 
L 211.922968 -88.017583 
L 209.987716 -88.017583 
L 208.052463 -88.017583 
L 206.117211 -88.017583 
L 204.181959 -88.017583 
L 202.246707 -88.017583 
L 200.311455 -88.017583 
L 198.376203 -88.017583 
L 196.44095 -88.017583 
L 194.505698 -88.017583 
L 192.570446 -88.017583 
L 190.635194 -88.017583 
L 188.699942 -88.017583 
L 186.764689 -88.017583 
L 184.829437 -88.017583 
L 182.894185 -88.017583 
L 180.958933 -88.017583 
L 179.023681 -88.017583 
L 177.088429 -88.017583 
L 175.153176 -88.017583 
L 173.217924 -88.017583 
L 171.282672 -88.017583 
L 169.34742 -88.017583 
L 167.412168 -88.017583 
L 165.476915 -88.017583 
L 163.541663 -88.017583 
L 161.606411 -88.017583 
L 159.671159 -88.017583 
L 157.735907 -88.017583 
L 155.800655 -88.017583 
L 153.865402 -88.017583 
L 151.93015 -88.017583 
L 149.994898 -88.017583 
L 148.059646 -88.017583 
L 146.124394 -88.017583 
L 144.189142 -88.017583 
L 142.253889 -88.017583 
L 140.318637 -88.017583 
L 138.383385 -88.017583 
L 136.448133 -88.017583 
L 134.512881 -88.017583 
L 132.577628 -88.017583 
L 130.642376 -88.017583 
L 128.707124 -88.017583 
L 126.771872 -88.017583 
L 124.83662 -88.017583 
L 122.901368 -88.017583 
L 120.966115 -88.017583 
L 119.030863 -88.017583 
L 117.095611 -88.017583 
L 115.160359 -88.017583 
L 113.225107 -88.017583 
L 111.289854 -88.017583 
L 109.354602 -88.017583 
z
" style="stroke: #ffa500; stroke-opacity: 0.4"/>
    </defs>
    <g clip-path="url(#p4ac24c2412)">
     <use xlink:href="#m7287b3ef1e" x="0" y="432" style="fill: #ffa500; fill-opacity: 0.4; stroke: #ffa500; stroke-opacity: 0.4"/>
    </g>
   </g>
   <g id="line2d_16">
    <path d="M 109.354602 343.982417 
L 115.160359 343.982417 
L 117.095611 326.767388 
L 119.030863 326.767388 
L 122.901368 318.159873 
L 130.642376 318.159873 
L 132.577628 85.756975 
L 134.512881 64.238188 
L 136.448133 322.463631 
L 138.383385 322.463631 
L 140.318637 288.033571 
L 144.189142 288.033571 
L 146.124394 275.122299 
L 149.994898 275.122299 
L 151.93015 253.603512 
L 159.671159 253.603512 
L 161.606411 244.995998 
L 175.153176 244.995998 
L 177.088429 240.69224 
L 180.958933 240.69224 
L 182.894185 111.579519 
L 184.829437 111.579519 
L 186.764689 343.982417 
L 188.699942 343.982417 
L 190.635194 331.071145 
L 192.570446 331.071145 
L 194.505698 318.159873 
L 213.85822 318.159873 
L 215.793472 296.641086 
L 231.27549 296.641086 
L 233.210742 210.565939 
L 235.145994 210.565939 
L 237.081246 339.67866 
L 246.757507 339.67866 
L 248.692759 335.374903 
L 256.433768 335.374903 
L 258.36902 313.856116 
L 271.915785 313.856116 
L 273.851038 305.248601 
L 281.592046 305.248601 
L 283.527298 262.211027 
L 285.462551 262.211027 
L 287.397803 343.982417 
L 293.203559 292.337329 
L 302.87982 292.337329 
L 304.815072 240.69224 
L 306.750325 240.69224 
L 308.685577 85.756975 
L 310.620829 85.756975 
L 312.556081 343.982417 
L 322.232342 343.982417 
L 324.167594 309.552358 
L 331.908603 309.552358 
L 333.843855 300.944844 
L 335.779107 300.944844 
L 337.714359 343.982417 
L 341.584864 343.982417 
L 343.520116 326.767388 
L 357.066881 326.767388 
L 359.002133 189.047152 
L 360.937386 189.047152 
L 362.872638 313.856116 
L 366.743142 313.856116 
L 368.678394 300.944844 
L 372.548899 300.944844 
L 376.419403 283.729814 
L 380.289907 283.729814 
L 382.22516 269.95779 
L 386.095664 269.95779 
L 388.030916 278.565305 
L 401.577681 278.565305 
L 403.512934 261.350276 
L 407.383438 261.350276 
L 409.31869 206.262181 
L 411.253942 206.262181 
L 413.189194 343.982417 
L 420.930203 343.982417 
L 422.865455 326.767388 
L 440.282725 326.767388 
L 442.217977 309.552358 
L 451.894238 309.552358 
L 453.82949 292.337329 
L 455.764742 292.337329 
L 457.699995 288.894323 
L 461.570499 288.894323 
L 463.505751 343.982417 
L 467.376255 343.982417 
L 469.311508 326.767388 
L 471.24676 326.767388 
L 475.117264 318.159873 
L 482.858273 318.159873 
L 484.793525 85.756975 
L 486.728777 64.238188 
L 488.664029 322.463631 
L 490.599282 322.463631 
L 492.534534 288.033571 
L 496.405038 288.033571 
L 498.34029 275.122299 
L 502.210795 275.122299 
L 504.146047 253.603512 
L 511.887056 253.603512 
L 513.822308 244.995998 
L 527.369073 244.995998 
L 529.304325 240.69224 
L 533.17483 240.69224 
L 535.110082 111.579519 
L 537.045334 111.579519 
L 538.980586 343.982417 
L 540.915838 343.982417 
L 542.85109 331.071145 
L 544.786343 331.071145 
L 546.721595 318.159873 
L 566.074117 318.159873 
L 568.009369 296.641086 
L 583.491386 296.641086 
L 585.426638 214.869696 
L 587.361891 214.869696 
L 589.297143 339.67866 
L 602.843908 339.67866 
L 604.77916 335.374903 
L 612.520169 335.374903 
L 614.455421 313.856116 
L 628.002186 313.856116 
L 629.937439 305.248601 
L 633.807943 305.248601 
L 635.743195 262.211027 
L 637.678447 262.211027 
L 639.613699 343.982417 
L 641.548952 343.982417 
L 647.354708 292.337329 
L 657.030969 292.337329 
L 658.966221 240.69224 
L 660.901473 240.69224 
L 662.836726 85.756975 
L 664.771978 85.756975 
L 666.70723 343.982417 
L 676.383491 343.982417 
L 678.318743 309.552358 
L 684.1245 309.552358 
L 686.059752 300.944844 
L 687.995004 300.944844 
L 689.930256 343.982417 
L 697.671265 343.982417 
L 699.606517 326.767388 
L 711.21803 326.767388 
L 713.153282 189.047152 
L 715.088534 189.047152 
L 717.023787 343.982417 
L 718.959039 313.856116 
L 722.829543 313.856116 
L 724.764795 300.944844 
L 728.6353 300.944844 
L 732.505804 283.729814 
L 736.376308 283.729814 
L 738.311561 269.95779 
L 740.246813 278.565305 
L 755.72883 278.565305 
L 757.664082 261.350276 
L 761.534587 261.350276 
L 763.469839 206.262181 
L 765.405091 206.262181 
L 767.340343 343.982417 
L 775.081352 343.982417 
L 777.016604 326.767388 
L 794.433874 326.767388 
L 796.369126 309.552358 
L 806.045387 309.552358 
L 807.980639 292.337329 
L 811.851143 292.337329 
L 813.786396 288.894323 
L 815.721648 288.894323 
L 815.721648 288.894323 
" clip-path="url(#p4ac24c2412)" style="fill: none; stroke: #ffa500; stroke-opacity: 0.8; stroke-width: 1.5; stroke-linecap: round"/>
   </g>
   <g id="line2d_17">
    <path d="M 109.354602 85.756975 
L 115.160359 85.756975 
L 117.095611 102.972004 
L 119.030863 102.972004 
L 122.901368 111.579519 
L 132.577628 111.579519 
L 134.512881 133.098306 
L 138.383385 133.098306 
L 140.318637 167.528365 
L 144.189142 167.528365 
L 146.124394 180.439637 
L 149.994898 180.439637 
L 151.93015 201.958424 
L 159.671159 201.958424 
L 161.606411 210.565939 
L 175.153176 210.565939 
L 177.088429 214.869696 
L 188.699942 214.869696 
L 190.635194 227.780968 
L 192.570446 227.780968 
L 194.505698 240.69224 
L 213.85822 240.69224 
L 215.793472 262.211027 
L 231.27549 262.211027 
L 233.210742 266.514785 
L 246.757507 266.514785 
L 248.692759 270.818542 
L 256.433768 270.818542 
L 258.36902 292.337329 
L 271.915785 292.337329 
L 273.851038 300.944844 
L 283.527298 300.944844 
L 285.462551 42.719401 
L 287.397803 42.719401 
L 293.203559 94.364489 
L 302.87982 94.364489 
L 304.815072 146.009578 
L 322.232342 146.009578 
L 324.167594 180.439637 
L 341.584864 180.439637 
L 343.520116 197.654666 
L 360.937386 197.654666 
L 362.872638 227.780968 
L 366.743142 227.780968 
L 368.678394 240.69224 
L 372.548899 240.69224 
L 376.419403 257.90727 
L 380.289907 257.90727 
L 382.22516 271.679293 
L 401.577681 271.679293 
L 403.512934 288.894323 
L 420.930203 288.894323 
L 422.865455 306.109352 
L 440.282725 306.109352 
L 442.217977 323.324382 
L 451.894238 323.324382 
L 453.82949 340.539411 
L 455.764742 340.539411 
L 457.699995 343.982417 
L 459.635247 343.982417 
L 461.570499 85.756975 
L 467.376255 85.756975 
L 469.311508 102.972004 
L 471.24676 102.972004 
L 475.117264 111.579519 
L 484.793525 111.579519 
L 486.728777 133.098306 
L 490.599282 133.098306 
L 492.534534 167.528365 
L 496.405038 167.528365 
L 498.34029 180.439637 
L 502.210795 180.439637 
L 504.146047 201.958424 
L 511.887056 201.958424 
L 513.822308 210.565939 
L 527.369073 210.565939 
L 529.304325 214.869696 
L 540.915838 214.869696 
L 542.85109 227.780968 
L 544.786343 227.780968 
L 546.721595 240.69224 
L 566.074117 240.69224 
L 568.009369 262.211027 
L 587.361891 262.211027 
L 589.297143 266.514785 
L 602.843908 266.514785 
L 604.77916 270.818542 
L 612.520169 270.818542 
L 614.455421 292.337329 
L 628.002186 292.337329 
L 629.937439 300.944844 
L 637.678447 300.944844 
L 639.613699 42.719401 
L 641.548952 42.719401 
L 647.354708 94.364489 
L 657.030969 94.364489 
L 658.966221 146.009578 
L 676.383491 146.009578 
L 678.318743 180.439637 
L 697.671265 180.439637 
L 699.606517 197.654666 
L 717.023787 197.654666 
L 718.959039 227.780968 
L 722.829543 227.780968 
L 724.764795 240.69224 
L 728.6353 240.69224 
L 732.505804 257.90727 
L 736.376308 257.90727 
L 738.311561 271.679293 
L 755.72883 271.679293 
L 757.664082 288.894323 
L 775.081352 288.894323 
L 777.016604 306.109352 
L 794.433874 306.109352 
L 796.369126 323.324382 
L 806.045387 323.324382 
L 807.980639 340.539411 
L 815.721648 340.539411 
L 815.721648 340.539411 
" clip-path="url(#p4ac24c2412)" style="fill: none; stroke: #008000; stroke-opacity: 0.8; stroke-width: 1.5; stroke-linecap: round"/>
   </g>
   <g id="patch_3">
    <path d="M 74.03625 359.045568 
L 74.03625 27.65625 
" style="fill: none; stroke: #cccccc; stroke-width: 1.25; stroke-linejoin: miter; stroke-linecap: square"/>
   </g>
   <g id="patch_4">
    <path d="M 851.04 359.045568 
L 851.04 27.65625 
" style="fill: none; stroke: #cccccc; stroke-width: 1.25; stroke-linejoin: miter; stroke-linecap: square"/>
   </g>
   <g id="patch_5">
    <path d="M 74.03625 359.045568 
L 851.04 359.045568 
" style="fill: none; stroke: #cccccc; stroke-width: 1.25; stroke-linejoin: miter; stroke-linecap: square"/>
   </g>
   <g id="patch_6">
    <path d="M 74.03625 27.65625 
L 851.04 27.65625 
" style="fill: none; stroke: #cccccc; stroke-width: 1.25; stroke-linejoin: miter; stroke-linecap: square"/>
   </g>
   <g id="text_18">
    <!-- Area: 20600000.00 sat-days -->
    <g style="fill: #ff8c00" transform="translate(144.189142 78.225399) scale(0.1 -0.1)">
     <defs>
      <path id="ArialMT-41" d="M -9 0 
L 1750 4581 
L 2403 4581 
L 4278 0 
L 3588 0 
L 3053 1388 
L 1138 1388 
L 634 0 
L -9 0 
z
M 1313 1881 
L 2866 1881 
L 2388 3150 
Q 2169 3728 2063 4100 
Q 1975 3659 1816 3225 
L 1313 1881 
z
" transform="scale(0.015625)"/>
      <path id="ArialMT-72" d="M 416 0 
L 416 3319 
L 922 3319 
L 922 2816 
Q 1116 3169 1280 3281 
Q 1444 3394 1641 3394 
Q 1925 3394 2219 3213 
L 2025 2691 
Q 1819 2813 1613 2813 
Q 1428 2813 1281 2702 
Q 1134 2591 1072 2394 
Q 978 2094 978 1738 
L 978 0 
L 416 0 
z
" transform="scale(0.015625)"/>
      <path id="ArialMT-3a" d="M 578 2678 
L 578 3319 
L 1219 3319 
L 1219 2678 
L 578 2678 
z
M 578 0 
L 578 641 
L 1219 641 
L 1219 0 
L 578 0 
z
" transform="scale(0.015625)"/>
      <path id="ArialMT-36" d="M 3184 3459 
L 2625 3416 
Q 2550 3747 2413 3897 
Q 2184 4138 1850 4138 
Q 1581 4138 1378 3988 
Q 1113 3794 959 3422 
Q 806 3050 800 2363 
Q 1003 2672 1297 2822 
Q 1591 2972 1913 2972 
Q 2475 2972 2870 2558 
Q 3266 2144 3266 1488 
Q 3266 1056 3080 686 
Q 2894 316 2569 119 
Q 2244 -78 1831 -78 
Q 1128 -78 684 439 
Q 241 956 241 2144 
Q 241 3472 731 4075 
Q 1159 4600 1884 4600 
Q 2425 4600 2770 4297 
Q 3116 3994 3184 3459 
z
M 888 1484 
Q 888 1194 1011 928 
Q 1134 663 1356 523 
Q 1578 384 1822 384 
Q 2178 384 2434 671 
Q 2691 959 2691 1453 
Q 2691 1928 2437 2201 
Q 2184 2475 1800 2475 
Q 1419 2475 1153 2201 
Q 888 1928 888 1484 
z
" transform="scale(0.015625)"/>
      <path id="ArialMT-2e" d="M 581 0 
L 581 641 
L 1222 641 
L 1222 0 
L 581 0 
z
" transform="scale(0.015625)"/>
     </defs>
     <use xlink:href="#ArialMT-41"/>
     <use xlink:href="#ArialMT-72" x="66.699219"/>
     <use xlink:href="#ArialMT-65" x="100"/>
     <use xlink:href="#ArialMT-61" x="155.615234"/>
     <use xlink:href="#ArialMT-3a" x="211.230469"/>
     <use xlink:href="#ArialMT-20" x="239.013672"/>
     <use xlink:href="#ArialMT-32" x="266.796875"/>
     <use xlink:href="#ArialMT-30" x="322.412109"/>
     <use xlink:href="#ArialMT-36" x="378.027344"/>
     <use xlink:href="#ArialMT-30" x="433.642578"/>
     <use xlink:href="#ArialMT-30" x="489.257812"/>
     <use xlink:href="#ArialMT-30" x="544.873047"/>
     <use xlink:href="#ArialMT-30" x="600.488281"/>
     <use xlink:href="#ArialMT-30" x="656.103516"/>
     <use xlink:href="#ArialMT-2e" x="711.71875"/>
     <use xlink:href="#ArialMT-30" x="739.501953"/>
     <use xlink:href="#ArialMT-30" x="795.117188"/>
     <use xlink:href="#ArialMT-20" x="850.732422"/>
     <use xlink:href="#ArialMT-73" x="878.515625"/>
     <use xlink:href="#ArialMT-61" x="928.515625"/>
     <use xlink:href="#ArialMT-74" x="984.130859"/>
     <use xlink:href="#ArialMT-2d" x="1011.914062"/>
     <use xlink:href="#ArialMT-64" x="1045.214844"/>
     <use xlink:href="#ArialMT-61" x="1100.830078"/>
     <use xlink:href="#ArialMT-79" x="1156.445312"/>
     <use xlink:href="#ArialMT-73" x="1206.445312"/>
    </g>
   </g>
   <g id="text_19">
    <!-- Ark Server Liquidity Requirements -->
    <g style="fill: #262626" transform="translate(371.505937 21.65625) scale(0.12 -0.12)">
     <defs>
      <path id="ArialMT-6b" d="M 425 0 
L 425 4581 
L 988 4581 
L 988 1969 
L 2319 3319 
L 3047 3319 
L 1778 2088 
L 3175 0 
L 2481 0 
L 1384 1697 
L 988 1316 
L 988 0 
L 425 0 
z
" transform="scale(0.015625)"/>
      <path id="ArialMT-53" d="M 288 1472 
L 859 1522 
Q 900 1178 1048 958 
Q 1197 738 1509 602 
Q 1822 466 2213 466 
Q 2559 466 2825 569 
Q 3091 672 3220 851 
Q 3350 1031 3350 1244 
Q 3350 1459 3225 1620 
Q 3100 1781 2813 1891 
Q 2628 1963 1997 2114 
Q 1366 2266 1113 2400 
Q 784 2572 623 2826 
Q 463 3081 463 3397 
Q 463 3744 659 4045 
Q 856 4347 1234 4503 
Q 1613 4659 2075 4659 
Q 2584 4659 2973 4495 
Q 3363 4331 3572 4012 
Q 3781 3694 3797 3291 
L 3216 3247 
Q 3169 3681 2898 3903 
Q 2628 4125 2100 4125 
Q 1550 4125 1298 3923 
Q 1047 3722 1047 3438 
Q 1047 3191 1225 3031 
Q 1400 2872 2139 2705 
Q 2878 2538 3153 2413 
Q 3553 2228 3743 1945 
Q 3934 1663 3934 1294 
Q 3934 928 3725 604 
Q 3516 281 3123 101 
Q 2731 -78 2241 -78 
Q 1619 -78 1198 103 
Q 778 284 539 648 
Q 300 1013 288 1472 
z
" transform="scale(0.015625)"/>
      <path id="ArialMT-76" d="M 1344 0 
L 81 3319 
L 675 3319 
L 1388 1331 
Q 1503 1009 1600 663 
Q 1675 925 1809 1294 
L 2547 3319 
L 3125 3319 
L 1869 0 
L 1344 0 
z
" transform="scale(0.015625)"/>
      <path id="ArialMT-52" d="M 503 0 
L 503 4581 
L 2534 4581 
Q 3147 4581 3465 4457 
Q 3784 4334 3975 4021 
Q 4166 3709 4166 3331 
Q 4166 2844 3850 2509 
Q 3534 2175 2875 2084 
Q 3116 1969 3241 1856 
Q 3506 1613 3744 1247 
L 4541 0 
L 3778 0 
L 3172 953 
Q 2906 1366 2734 1584 
Q 2563 1803 2427 1890 
Q 2291 1978 2150 2013 
Q 2047 2034 1813 2034 
L 1109 2034 
L 1109 0 
L 503 0 
z
M 1109 2559 
L 2413 2559 
Q 2828 2559 3062 2645 
Q 3297 2731 3419 2920 
Q 3541 3109 3541 3331 
Q 3541 3656 3305 3865 
Q 3069 4075 2559 4075 
L 1109 4075 
L 1109 2559 
z
" transform="scale(0.015625)"/>
      <path id="ArialMT-6e" d="M 422 0 
L 422 3319 
L 928 3319 
L 928 2847 
Q 1294 3394 1984 3394 
Q 2284 3394 2536 3286 
Q 2788 3178 2913 3003 
Q 3038 2828 3088 2588 
Q 3119 2431 3119 2041 
L 3119 0 
L 2556 0 
L 2556 2019 
Q 2556 2363 2490 2533 
Q 2425 2703 2258 2804 
Q 2091 2906 1866 2906 
Q 1506 2906 1245 2678 
Q 984 2450 984 1813 
L 984 0 
L 422 0 
z
" transform="scale(0.015625)"/>
     </defs>
     <use xlink:href="#ArialMT-41"/>
     <use xlink:href="#ArialMT-72" x="66.699219"/>
     <use xlink:href="#ArialMT-6b" x="100"/>
     <use xlink:href="#ArialMT-20" x="150"/>
     <use xlink:href="#ArialMT-53" x="177.783203"/>
     <use xlink:href="#ArialMT-65" x="244.482422"/>
     <use xlink:href="#ArialMT-72" x="300.097656"/>
     <use xlink:href="#ArialMT-76" x="333.398438"/>
     <use xlink:href="#ArialMT-65" x="383.398438"/>
     <use xlink:href="#ArialMT-72" x="439.013672"/>
     <use xlink:href="#ArialMT-20" x="472.314453"/>
     <use xlink:href="#ArialMT-4c" x="500.097656"/>
     <use xlink:href="#ArialMT-69" x="555.712891"/>
     <use xlink:href="#ArialMT-71" x="577.929688"/>
     <use xlink:href="#ArialMT-75" x="633.544922"/>
     <use xlink:href="#ArialMT-69" x="689.160156"/>
     <use xlink:href="#ArialMT-64" x="711.376953"/>
     <use xlink:href="#ArialMT-69" x="766.992188"/>
     <use xlink:href="#ArialMT-74" x="789.208984"/>
     <use xlink:href="#ArialMT-79" x="816.992188"/>
     <use xlink:href="#ArialMT-20" x="866.992188"/>
     <use xlink:href="#ArialMT-52" x="894.775391"/>
     <use xlink:href="#ArialMT-65" x="966.992188"/>
     <use xlink:href="#ArialMT-71" x="1022.607422"/>
     <use xlink:href="#ArialMT-75" x="1078.222656"/>
     <use xlink:href="#ArialMT-69" x="1133.837891"/>
     <use xlink:href="#ArialMT-72" x="1156.054688"/>
     <use xlink:href="#ArialMT-65" x="1189.355469"/>
     <use xlink:href="#ArialMT-6d" x="1244.970703"/>
     <use xlink:href="#ArialMT-65" x="1328.271484"/>
     <use xlink:href="#ArialMT-6e" x="1383.886719"/>
     <use xlink:href="#ArialMT-74" x="1439.501953"/>
     <use xlink:href="#ArialMT-73" x="1467.285156"/>
    </g>
   </g>
   <g id="legend_1">
    <g id="patch_7">
     <path d="M 690.782031 83.527656 
L 843.34 83.527656 
Q 845.54 83.527656 845.54 81.327656 
L 845.54 35.35625 
Q 845.54 33.15625 843.34 33.15625 
L 690.782031 33.15625 
Q 688.582031 33.15625 688.582031 35.35625 
L 688.582031 81.327656 
Q 688.582031 83.527656 690.782031 83.527656 
z
" style="fill: #ffffff; opacity: 0.8; stroke: #cccccc; stroke-linejoin: miter"/>
    </g>
    <g id="patch_8">
     <path d="M 692.982031 45.429844 
L 714.982031 45.429844 
L 714.982031 37.729844 
L 692.982031 37.729844 
z
" style="fill: #ffa500; fill-opacity: 0.4; stroke: #ffa500; stroke-opacity: 0.4; stroke-linejoin: miter"/>
    </g>
    <g id="text_20">
     <!-- Ark server liquidity -->
     <g style="fill: #262626" transform="translate(723.782031 45.429844) scale(0.11 -0.11)">
      <use xlink:href="#ArialMT-41"/>
      <use xlink:href="#ArialMT-72" x="66.699219"/>
      <use xlink:href="#ArialMT-6b" x="100"/>
      <use xlink:href="#ArialMT-20" x="150"/>
      <use xlink:href="#ArialMT-73" x="177.783203"/>
      <use xlink:href="#ArialMT-65" x="227.783203"/>
      <use xlink:href="#ArialMT-72" x="283.398438"/>
      <use xlink:href="#ArialMT-76" x="316.699219"/>
      <use xlink:href="#ArialMT-65" x="366.699219"/>
      <use xlink:href="#ArialMT-72" x="422.314453"/>
      <use xlink:href="#ArialMT-20" x="455.615234"/>
      <use xlink:href="#ArialMT-6c" x="483.398438"/>
      <use xlink:href="#ArialMT-69" x="505.615234"/>
      <use xlink:href="#ArialMT-71" x="527.832031"/>
      <use xlink:href="#ArialMT-75" x="583.447266"/>
      <use xlink:href="#ArialMT-69" x="639.0625"/>
      <use xlink:href="#ArialMT-64" x="661.279297"/>
      <use xlink:href="#ArialMT-69" x="716.894531"/>
      <use xlink:href="#ArialMT-74" x="739.111328"/>
      <use xlink:href="#ArialMT-79" x="766.894531"/>
     </g>
    </g>
    <g id="line2d_18">
     <path d="M 692.982031 57.402656 
L 703.982031 57.402656 
L 714.982031 57.402656 
" style="fill: none; stroke: #ffa500; stroke-opacity: 0.8; stroke-width: 1.5; stroke-linecap: round"/>
    </g>
    <g id="text_21">
     <!-- Ark server liquidity (line) -->
     <g style="fill: #262626" transform="translate(723.782031 61.252656) scale(0.11 -0.11)">
      <use xlink:href="#ArialMT-41"/>
      <use xlink:href="#ArialMT-72" x="66.699219"/>
      <use xlink:href="#ArialMT-6b" x="100"/>
      <use xlink:href="#ArialMT-20" x="150"/>
      <use xlink:href="#ArialMT-73" x="177.783203"/>
      <use xlink:href="#ArialMT-65" x="227.783203"/>
      <use xlink:href="#ArialMT-72" x="283.398438"/>
      <use xlink:href="#ArialMT-76" x="316.699219"/>
      <use xlink:href="#ArialMT-65" x="366.699219"/>
      <use xlink:href="#ArialMT-72" x="422.314453"/>
      <use xlink:href="#ArialMT-20" x="455.615234"/>
      <use xlink:href="#ArialMT-6c" x="483.398438"/>
      <use xlink:href="#ArialMT-69" x="505.615234"/>
      <use xlink:href="#ArialMT-71" x="527.832031"/>
      <use xlink:href="#ArialMT-75" x="583.447266"/>
      <use xlink:href="#ArialMT-69" x="639.0625"/>
      <use xlink:href="#ArialMT-64" x="661.279297"/>
      <use xlink:href="#ArialMT-69" x="716.894531"/>
      <use xlink:href="#ArialMT-74" x="739.111328"/>
      <use xlink:href="#ArialMT-79" x="766.894531"/>
      <use xlink:href="#ArialMT-20" x="816.894531"/>
      <use xlink:href="#ArialMT-28" x="844.677734"/>
      <use xlink:href="#ArialMT-6c" x="877.978516"/>
      <use xlink:href="#ArialMT-69" x="900.195312"/>
      <use xlink:href="#ArialMT-6e" x="922.412109"/>
      <use xlink:href="#ArialMT-65" x="978.027344"/>
      <use xlink:href="#ArialMT-29" x="1033.642578"/>
     </g>
    </g>
    <g id="line2d_19">
     <path d="M 692.982031 73.091406 
L 703.982031 73.091406 
L 714.982031 73.091406 
" style="fill: none; stroke: #008000; stroke-opacity: 0.8; stroke-width: 1.5; stroke-linecap: round"/>
    </g>
    <g id="text_22">
     <!-- User account balance -->
     <g style="fill: #262626" transform="translate(723.782031 76.941406) scale(0.11 -0.11)">
      <defs>
       <path id="ArialMT-55" d="M 3500 4581 
L 4106 4581 
L 4106 1934 
Q 4106 1244 3950 837 
Q 3794 431 3386 176 
Q 2978 -78 2316 -78 
Q 1672 -78 1262 144 
Q 853 366 678 786 
Q 503 1206 503 1934 
L 503 4581 
L 1109 4581 
L 1109 1938 
Q 1109 1341 1220 1058 
Q 1331 775 1601 622 
Q 1872 469 2263 469 
Q 2931 469 3215 772 
Q 3500 1075 3500 1938 
L 3500 4581 
z
" transform="scale(0.015625)"/>
       <path id="ArialMT-63" d="M 2588 1216 
L 3141 1144 
Q 3050 572 2676 248 
Q 2303 -75 1759 -75 
Q 1078 -75 664 370 
Q 250 816 250 1647 
Q 250 2184 428 2587 
Q 606 2991 970 3192 
Q 1334 3394 1763 3394 
Q 2303 3394 2647 3120 
Q 2991 2847 3088 2344 
L 2541 2259 
Q 2463 2594 2264 2762 
Q 2066 2931 1784 2931 
Q 1359 2931 1093 2626 
Q 828 2322 828 1663 
Q 828 994 1084 691 
Q 1341 388 1753 388 
Q 2084 388 2306 591 
Q 2528 794 2588 1216 
z
" transform="scale(0.015625)"/>
       <path id="ArialMT-62" d="M 941 0 
L 419 0 
L 419 4581 
L 981 4581 
L 981 2947 
Q 1338 3394 1891 3394 
Q 2197 3394 2470 3270 
Q 2744 3147 2920 2923 
Q 3097 2700 3197 2384 
Q 3297 2069 3297 1709 
Q 3297 856 2875 390 
Q 2453 -75 1863 -75 
Q 1275 -75 941 416 
L 941 0 
z
M 934 1684 
Q 934 1088 1097 822 
Q 1363 388 1816 388 
Q 2184 388 2453 708 
Q 2722 1028 2722 1663 
Q 2722 2313 2464 2622 
Q 2206 2931 1841 2931 
Q 1472 2931 1203 2611 
Q 934 2291 934 1684 
z
" transform="scale(0.015625)"/>
      </defs>
      <use xlink:href="#ArialMT-55"/>
      <use xlink:href="#ArialMT-73" x="72.216797"/>
      <use xlink:href="#ArialMT-65" x="122.216797"/>
      <use xlink:href="#ArialMT-72" x="177.832031"/>
      <use xlink:href="#ArialMT-20" x="211.132812"/>
      <use xlink:href="#ArialMT-61" x="238.916016"/>
      <use xlink:href="#ArialMT-63" x="294.53125"/>
      <use xlink:href="#ArialMT-63" x="344.53125"/>
      <use xlink:href="#ArialMT-6f" x="394.53125"/>
      <use xlink:href="#ArialMT-75" x="450.146484"/>
      <use xlink:href="#ArialMT-6e" x="505.761719"/>
      <use xlink:href="#ArialMT-74" x="561.376953"/>
      <use xlink:href="#ArialMT-20" x="589.160156"/>
      <use xlink:href="#ArialMT-62" x="616.943359"/>
      <use xlink:href="#ArialMT-61" x="672.558594"/>
      <use xlink:href="#ArialMT-6c" x="728.173828"/>
      <use xlink:href="#ArialMT-61" x="750.390625"/>
      <use xlink:href="#ArialMT-6e" x="806.005859"/>
      <use xlink:href="#ArialMT-63" x="861.621094"/>
      <use xlink:href="#ArialMT-65" x="911.621094"/>
     </g>
    </g>
   </g>
  </g>
 </g>
 <defs>
  <clipPath id="p4ac24c2412">
   <rect x="74.03625" y="27.65625" width="777.00375" height="331.389318"/>
  </clipPath>
 </defs>
</svg>
