<?xml version="1.0" encoding="utf-8" standalone="no"?>
<!DOCTYPE svg PUBLIC "-//W3C//DTD SVG 1.1//EN"
  "http://www.w3.org/Graphics/SVG/1.1/DTD/svg11.dtd">
<svg xmlns:xlink="http://www.w3.org/1999/xlink" width="864pt" height="432pt" viewBox="0 0 864 432" xmlns="http://www.w3.org/2000/svg" version="1.1">
 <metadata>
  <rdf:RDF xmlns:dc="http://purl.org/dc/elements/1.1/" xmlns:cc="http://creativecommons.org/ns#" xmlns:rdf="http://www.w3.org/1999/02/22-rdf-syntax-ns#">
   <cc:Work>
    <dc:type rdf:resource="http://purl.org/dc/dcmitype/StillImage"/>
    <dc:date>2025-04-26T00:43:58.165272</dc:date>
    <dc:format>image/svg+xml</dc:format>
    <dc:creator>
     <cc:Agent>
      <dc:title>Matplotlib v3.9.3, https://matplotlib.org/</dc:title>
     </cc:Agent>
    </dc:creator>
   </cc:Work>
  </rdf:RDF>
 </metadata>
 <defs>
  <style type="text/css">*{stroke-linejoin: round; stroke-linecap: butt}</style>
 </defs>
 <g id="figure_1">
  <g id="patch_1">
   <path d="M 0 432 
L 864 432 
L 864 0 
L 0 0 
z
" style="fill: #ffffff"/>
  </g>
  <g id="axes_1">
   <g id="patch_2">
    <path d="M 80.15625 359.045568 
L 851.04 359.045568 
L 851.04 27.65625 
L 80.15625 27.65625 
z
" style="fill: #ffffff"/>
   </g>
   <g id="matplotlib.axis_1">
    <g id="xtick_1">
     <g id="line2d_1">
      <path d="M 132.500208 359.045568 
L 132.500208 27.65625 
" clip-path="url(#p550dedf400)" style="fill: none; stroke: #cccccc; stroke-opacity: 0.5; stroke-linecap: round"/>
     </g>
     <g id="text_1">
      <!-- 2024-01 -->
      <g style="fill: #262626" transform="translate(120.239861 402.655294) rotate(-45) scale(0.11 -0.11)">
       <defs>
        <path id="ArialMT-32" d="M 3222 541 
L 3222 0 
L 194 0 
Q 188 203 259 391 
Q 375 700 629 1000 
Q 884 1300 1366 1694 
Q 2113 2306 2375 2664 
Q 2638 3022 2638 3341 
Q 2638 3675 2398 3904 
Q 2159 4134 1775 4134 
Q 1369 4134 1125 3890 
Q 881 3647 878 3216 
L 300 3275 
Q 359 3922 746 4261 
Q 1134 4600 1788 4600 
Q 2447 4600 2831 4234 
Q 3216 3869 3216 3328 
Q 3216 3053 3103 2787 
Q 2991 2522 2730 2228 
Q 2469 1934 1863 1422 
Q 1356 997 1212 845 
Q 1069 694 975 541 
L 3222 541 
z
" transform="scale(0.015625)"/>
        <path id="ArialMT-30" d="M 266 2259 
Q 266 3072 433 3567 
Q 600 4063 929 4331 
Q 1259 4600 1759 4600 
Q 2128 4600 2406 4451 
Q 2684 4303 2865 4023 
Q 3047 3744 3150 3342 
Q 3253 2941 3253 2259 
Q 3253 1453 3087 958 
Q 2922 463 2592 192 
Q 2263 -78 1759 -78 
Q 1097 -78 719 397 
Q 266 969 266 2259 
z
M 844 2259 
Q 844 1131 1108 757 
Q 1372 384 1759 384 
Q 2147 384 2411 759 
Q 2675 1134 2675 2259 
Q 2675 3391 2411 3762 
Q 2147 4134 1753 4134 
Q 1366 4134 1134 3806 
Q 844 3388 844 2259 
z
" transform="scale(0.015625)"/>
        <path id="ArialMT-34" d="M 2069 0 
L 2069 1097 
L 81 1097 
L 81 1613 
L 2172 4581 
L 2631 4581 
L 2631 1613 
L 3250 1613 
L 3250 1097 
L 2631 1097 
L 2631 0 
L 2069 0 
z
M 2069 1613 
L 2069 3678 
L 634 1613 
L 2069 1613 
z
" transform="scale(0.015625)"/>
        <path id="ArialMT-2d" d="M 203 1375 
L 203 1941 
L 1931 1941 
L 1931 1375 
L 203 1375 
z
" transform="scale(0.015625)"/>
        <path id="ArialMT-31" d="M 2384 0 
L 1822 0 
L 1822 3584 
Q 1619 3391 1289 3197 
Q 959 3003 697 2906 
L 697 3450 
Q 1169 3672 1522 3987 
Q 1875 4303 2022 4600 
L 2384 4600 
L 2384 0 
z
" transform="scale(0.015625)"/>
       </defs>
       <use xlink:href="#ArialMT-32"/>
       <use xlink:href="#ArialMT-30" x="55.615234"/>
       <use xlink:href="#ArialMT-32" x="111.230469"/>
       <use xlink:href="#ArialMT-34" x="166.845703"/>
       <use xlink:href="#ArialMT-2d" x="222.460938"/>
       <use xlink:href="#ArialMT-30" x="255.761719"/>
       <use xlink:href="#ArialMT-31" x="311.376953"/>
      </g>
     </g>
    </g>
    <g id="xtick_2">
     <g id="line2d_2">
      <path d="M 236.322936 359.045568 
L 236.322936 27.65625 
" clip-path="url(#p550dedf400)" style="fill: none; stroke: #cccccc; stroke-opacity: 0.5; stroke-linecap: round"/>
     </g>
     <g id="text_2">
      <!-- 2024-03 -->
      <g style="fill: #262626" transform="translate(224.062588 402.655294) rotate(-45) scale(0.11 -0.11)">
       <defs>
        <path id="ArialMT-33" d="M 269 1209 
L 831 1284 
Q 928 806 1161 595 
Q 1394 384 1728 384 
Q 2125 384 2398 659 
Q 2672 934 2672 1341 
Q 2672 1728 2419 1979 
Q 2166 2231 1775 2231 
Q 1616 2231 1378 2169 
L 1441 2663 
Q 1497 2656 1531 2656 
Q 1891 2656 2178 2843 
Q 2466 3031 2466 3422 
Q 2466 3731 2256 3934 
Q 2047 4138 1716 4138 
Q 1388 4138 1169 3931 
Q 950 3725 888 3313 
L 325 3413 
Q 428 3978 793 4289 
Q 1159 4600 1703 4600 
Q 2078 4600 2393 4439 
Q 2709 4278 2876 4000 
Q 3044 3722 3044 3409 
Q 3044 3113 2884 2869 
Q 2725 2625 2413 2481 
Q 2819 2388 3044 2092 
Q 3269 1797 3269 1353 
Q 3269 753 2831 336 
Q 2394 -81 1725 -81 
Q 1122 -81 723 278 
Q 325 638 269 1209 
z
" transform="scale(0.015625)"/>
       </defs>
       <use xlink:href="#ArialMT-32"/>
       <use xlink:href="#ArialMT-30" x="55.615234"/>
       <use xlink:href="#ArialMT-32" x="111.230469"/>
       <use xlink:href="#ArialMT-34" x="166.845703"/>
       <use xlink:href="#ArialMT-2d" x="222.460938"/>
       <use xlink:href="#ArialMT-30" x="255.761719"/>
       <use xlink:href="#ArialMT-33" x="311.376953"/>
      </g>
     </g>
    </g>
    <g id="xtick_3">
     <g id="line2d_3">
      <path d="M 341.876042 359.045568 
L 341.876042 27.65625 
" clip-path="url(#p550dedf400)" style="fill: none; stroke: #cccccc; stroke-opacity: 0.5; stroke-linecap: round"/>
     </g>
     <g id="text_3">
      <!-- 2024-05 -->
      <g style="fill: #262626" transform="translate(329.615694 402.655294) rotate(-45) scale(0.11 -0.11)">
       <defs>
        <path id="ArialMT-35" d="M 266 1200 
L 856 1250 
Q 922 819 1161 601 
Q 1400 384 1738 384 
Q 2144 384 2425 690 
Q 2706 997 2706 1503 
Q 2706 1984 2436 2262 
Q 2166 2541 1728 2541 
Q 1456 2541 1237 2417 
Q 1019 2294 894 2097 
L 366 2166 
L 809 4519 
L 3088 4519 
L 3088 3981 
L 1259 3981 
L 1013 2750 
Q 1425 3038 1878 3038 
Q 2478 3038 2890 2622 
Q 3303 2206 3303 1553 
Q 3303 931 2941 478 
Q 2500 -78 1738 -78 
Q 1113 -78 717 272 
Q 322 622 266 1200 
z
" transform="scale(0.015625)"/>
       </defs>
       <use xlink:href="#ArialMT-32"/>
       <use xlink:href="#ArialMT-30" x="55.615234"/>
       <use xlink:href="#ArialMT-32" x="111.230469"/>
       <use xlink:href="#ArialMT-34" x="166.845703"/>
       <use xlink:href="#ArialMT-2d" x="222.460938"/>
       <use xlink:href="#ArialMT-30" x="255.761719"/>
       <use xlink:href="#ArialMT-35" x="311.376953"/>
      </g>
     </g>
    </g>
    <g id="xtick_4">
     <g id="line2d_4">
      <path d="M 447.429148 359.045568 
L 447.429148 27.65625 
" clip-path="url(#p550dedf400)" style="fill: none; stroke: #cccccc; stroke-opacity: 0.5; stroke-linecap: round"/>
     </g>
     <g id="text_4">
      <!-- 2024-07 -->
      <g style="fill: #262626" transform="translate(435.1688 402.655294) rotate(-45) scale(0.11 -0.11)">
       <defs>
        <path id="ArialMT-37" d="M 303 3981 
L 303 4522 
L 3269 4522 
L 3269 4084 
Q 2831 3619 2401 2847 
Q 1972 2075 1738 1259 
Q 1569 684 1522 0 
L 944 0 
Q 953 541 1156 1306 
Q 1359 2072 1739 2783 
Q 2119 3494 2547 3981 
L 303 3981 
z
" transform="scale(0.015625)"/>
       </defs>
       <use xlink:href="#ArialMT-32"/>
       <use xlink:href="#ArialMT-30" x="55.615234"/>
       <use xlink:href="#ArialMT-32" x="111.230469"/>
       <use xlink:href="#ArialMT-34" x="166.845703"/>
       <use xlink:href="#ArialMT-2d" x="222.460938"/>
       <use xlink:href="#ArialMT-30" x="255.761719"/>
       <use xlink:href="#ArialMT-37" x="311.376953"/>
      </g>
     </g>
    </g>
    <g id="xtick_5">
     <g id="line2d_5">
      <path d="M 554.712633 359.045568 
L 554.712633 27.65625 
" clip-path="url(#p550dedf400)" style="fill: none; stroke: #cccccc; stroke-opacity: 0.5; stroke-linecap: round"/>
     </g>
     <g id="text_5">
      <!-- 2024-09 -->
      <g style="fill: #262626" transform="translate(542.452285 402.655294) rotate(-45) scale(0.11 -0.11)">
       <defs>
        <path id="ArialMT-39" d="M 350 1059 
L 891 1109 
Q 959 728 1153 556 
Q 1347 384 1650 384 
Q 1909 384 2104 503 
Q 2300 622 2425 820 
Q 2550 1019 2634 1356 
Q 2719 1694 2719 2044 
Q 2719 2081 2716 2156 
Q 2547 1888 2255 1720 
Q 1963 1553 1622 1553 
Q 1053 1553 659 1965 
Q 266 2378 266 3053 
Q 266 3750 677 4175 
Q 1088 4600 1706 4600 
Q 2153 4600 2523 4359 
Q 2894 4119 3086 3673 
Q 3278 3228 3278 2384 
Q 3278 1506 3087 986 
Q 2897 466 2520 194 
Q 2144 -78 1638 -78 
Q 1100 -78 759 220 
Q 419 519 350 1059 
z
M 2653 3081 
Q 2653 3566 2395 3850 
Q 2138 4134 1775 4134 
Q 1400 4134 1122 3828 
Q 844 3522 844 3034 
Q 844 2597 1108 2323 
Q 1372 2050 1759 2050 
Q 2150 2050 2401 2323 
Q 2653 2597 2653 3081 
z
" transform="scale(0.015625)"/>
       </defs>
       <use xlink:href="#ArialMT-32"/>
       <use xlink:href="#ArialMT-30" x="55.615234"/>
       <use xlink:href="#ArialMT-32" x="111.230469"/>
       <use xlink:href="#ArialMT-34" x="166.845703"/>
       <use xlink:href="#ArialMT-2d" x="222.460938"/>
       <use xlink:href="#ArialMT-30" x="255.761719"/>
       <use xlink:href="#ArialMT-39" x="311.376953"/>
      </g>
     </g>
    </g>
    <g id="xtick_6">
     <g id="line2d_6">
      <path d="M 660.265739 359.045568 
L 660.265739 27.65625 
" clip-path="url(#p550dedf400)" style="fill: none; stroke: #cccccc; stroke-opacity: 0.5; stroke-linecap: round"/>
     </g>
     <g id="text_6">
      <!-- 2024-11 -->
      <g style="fill: #262626" transform="translate(648.292211 402.081654) rotate(-45) scale(0.11 -0.11)">
       <use xlink:href="#ArialMT-32"/>
       <use xlink:href="#ArialMT-30" x="55.615234"/>
       <use xlink:href="#ArialMT-32" x="111.230469"/>
       <use xlink:href="#ArialMT-34" x="166.845703"/>
       <use xlink:href="#ArialMT-2d" x="222.460938"/>
       <use xlink:href="#ArialMT-31" x="255.761719"/>
       <use xlink:href="#ArialMT-31" x="304.001953"/>
      </g>
     </g>
    </g>
    <g id="xtick_7">
     <g id="line2d_7">
      <path d="M 765.818845 359.045568 
L 765.818845 27.65625 
" clip-path="url(#p550dedf400)" style="fill: none; stroke: #cccccc; stroke-opacity: 0.5; stroke-linecap: round"/>
     </g>
     <g id="text_7">
      <!-- 2025-01 -->
      <g style="fill: #262626" transform="translate(753.558497 402.655294) rotate(-45) scale(0.11 -0.11)">
       <use xlink:href="#ArialMT-32"/>
       <use xlink:href="#ArialMT-30" x="55.615234"/>
       <use xlink:href="#ArialMT-32" x="111.230469"/>
       <use xlink:href="#ArialMT-35" x="166.845703"/>
       <use xlink:href="#ArialMT-2d" x="222.460938"/>
       <use xlink:href="#ArialMT-30" x="255.761719"/>
       <use xlink:href="#ArialMT-31" x="311.376953"/>
      </g>
     </g>
    </g>
    <g id="text_8">
     <!-- Timestamp -->
     <g style="fill: #262626" transform="translate(436.153125 416.790582) scale(0.12 -0.12)">
      <defs>
       <path id="ArialMT-54" d="M 1659 0 
L 1659 4041 
L 150 4041 
L 150 4581 
L 3781 4581 
L 3781 4041 
L 2266 4041 
L 2266 0 
L 1659 0 
z
" transform="scale(0.015625)"/>
       <path id="ArialMT-69" d="M 425 3934 
L 425 4581 
L 988 4581 
L 988 3934 
L 425 3934 
z
M 425 0 
L 425 3319 
L 988 3319 
L 988 0 
L 425 0 
z
" transform="scale(0.015625)"/>
       <path id="ArialMT-6d" d="M 422 0 
L 422 3319 
L 925 3319 
L 925 2853 
Q 1081 3097 1340 3245 
Q 1600 3394 1931 3394 
Q 2300 3394 2536 3241 
Q 2772 3088 2869 2813 
Q 3263 3394 3894 3394 
Q 4388 3394 4653 3120 
Q 4919 2847 4919 2278 
L 4919 0 
L 4359 0 
L 4359 2091 
Q 4359 2428 4304 2576 
Q 4250 2725 4106 2815 
Q 3963 2906 3769 2906 
Q 3419 2906 3187 2673 
Q 2956 2441 2956 1928 
L 2956 0 
L 2394 0 
L 2394 2156 
Q 2394 2531 2256 2718 
Q 2119 2906 1806 2906 
Q 1569 2906 1367 2781 
Q 1166 2656 1075 2415 
Q 984 2175 984 1722 
L 984 0 
L 422 0 
z
" transform="scale(0.015625)"/>
       <path id="ArialMT-65" d="M 2694 1069 
L 3275 997 
Q 3138 488 2766 206 
Q 2394 -75 1816 -75 
Q 1088 -75 661 373 
Q 234 822 234 1631 
Q 234 2469 665 2931 
Q 1097 3394 1784 3394 
Q 2450 3394 2872 2941 
Q 3294 2488 3294 1666 
Q 3294 1616 3291 1516 
L 816 1516 
Q 847 969 1125 678 
Q 1403 388 1819 388 
Q 2128 388 2347 550 
Q 2566 713 2694 1069 
z
M 847 1978 
L 2700 1978 
Q 2663 2397 2488 2606 
Q 2219 2931 1791 2931 
Q 1403 2931 1139 2672 
Q 875 2413 847 1978 
z
" transform="scale(0.015625)"/>
       <path id="ArialMT-73" d="M 197 991 
L 753 1078 
Q 800 744 1014 566 
Q 1228 388 1613 388 
Q 2000 388 2187 545 
Q 2375 703 2375 916 
Q 2375 1106 2209 1216 
Q 2094 1291 1634 1406 
Q 1016 1563 777 1677 
Q 538 1791 414 1992 
Q 291 2194 291 2438 
Q 291 2659 392 2848 
Q 494 3038 669 3163 
Q 800 3259 1026 3326 
Q 1253 3394 1513 3394 
Q 1903 3394 2198 3281 
Q 2494 3169 2634 2976 
Q 2775 2784 2828 2463 
L 2278 2388 
Q 2241 2644 2061 2787 
Q 1881 2931 1553 2931 
Q 1166 2931 1000 2803 
Q 834 2675 834 2503 
Q 834 2394 903 2306 
Q 972 2216 1119 2156 
Q 1203 2125 1616 2013 
Q 2213 1853 2448 1751 
Q 2684 1650 2818 1456 
Q 2953 1263 2953 975 
Q 2953 694 2789 445 
Q 2625 197 2315 61 
Q 2006 -75 1616 -75 
Q 969 -75 630 194 
Q 291 463 197 991 
z
" transform="scale(0.015625)"/>
       <path id="ArialMT-74" d="M 1650 503 
L 1731 6 
Q 1494 -44 1306 -44 
Q 1000 -44 831 53 
Q 663 150 594 308 
Q 525 466 525 972 
L 525 2881 
L 113 2881 
L 113 3319 
L 525 3319 
L 525 4141 
L 1084 4478 
L 1084 3319 
L 1650 3319 
L 1650 2881 
L 1084 2881 
L 1084 941 
Q 1084 700 1114 631 
Q 1144 563 1211 522 
Q 1278 481 1403 481 
Q 1497 481 1650 503 
z
" transform="scale(0.015625)"/>
       <path id="ArialMT-61" d="M 2588 409 
Q 2275 144 1986 34 
Q 1697 -75 1366 -75 
Q 819 -75 525 192 
Q 231 459 231 875 
Q 231 1119 342 1320 
Q 453 1522 633 1644 
Q 813 1766 1038 1828 
Q 1203 1872 1538 1913 
Q 2219 1994 2541 2106 
Q 2544 2222 2544 2253 
Q 2544 2597 2384 2738 
Q 2169 2928 1744 2928 
Q 1347 2928 1158 2789 
Q 969 2650 878 2297 
L 328 2372 
Q 403 2725 575 2942 
Q 747 3159 1072 3276 
Q 1397 3394 1825 3394 
Q 2250 3394 2515 3294 
Q 2781 3194 2906 3042 
Q 3031 2891 3081 2659 
Q 3109 2516 3109 2141 
L 3109 1391 
Q 3109 606 3145 398 
Q 3181 191 3288 0 
L 2700 0 
Q 2613 175 2588 409 
z
M 2541 1666 
Q 2234 1541 1622 1453 
Q 1275 1403 1131 1340 
Q 988 1278 909 1158 
Q 831 1038 831 891 
Q 831 666 1001 516 
Q 1172 366 1500 366 
Q 1825 366 2078 508 
Q 2331 650 2450 897 
Q 2541 1088 2541 1459 
L 2541 1666 
z
" transform="scale(0.015625)"/>
       <path id="ArialMT-70" d="M 422 -1272 
L 422 3319 
L 934 3319 
L 934 2888 
Q 1116 3141 1344 3267 
Q 1572 3394 1897 3394 
Q 2322 3394 2647 3175 
Q 2972 2956 3137 2557 
Q 3303 2159 3303 1684 
Q 3303 1175 3120 767 
Q 2938 359 2589 142 
Q 2241 -75 1856 -75 
Q 1575 -75 1351 44 
Q 1128 163 984 344 
L 984 -1272 
L 422 -1272 
z
M 931 1641 
Q 931 1000 1190 694 
Q 1450 388 1819 388 
Q 2194 388 2461 705 
Q 2728 1022 2728 1688 
Q 2728 2322 2467 2637 
Q 2206 2953 1844 2953 
Q 1484 2953 1207 2617 
Q 931 2281 931 1641 
z
" transform="scale(0.015625)"/>
      </defs>
      <use xlink:href="#ArialMT-54"/>
      <use xlink:href="#ArialMT-69" x="57.333984"/>
      <use xlink:href="#ArialMT-6d" x="79.550781"/>
      <use xlink:href="#ArialMT-65" x="162.851562"/>
      <use xlink:href="#ArialMT-73" x="218.466797"/>
      <use xlink:href="#ArialMT-74" x="268.466797"/>
      <use xlink:href="#ArialMT-61" x="296.25"/>
      <use xlink:href="#ArialMT-6d" x="351.865234"/>
      <use xlink:href="#ArialMT-70" x="435.166016"/>
     </g>
    </g>
   </g>
   <g id="matplotlib.axis_2">
    <g id="ytick_1">
     <g id="line2d_8">
      <path d="M 80.15625 343.982417 
L 851.04 343.982417 
" clip-path="url(#p550dedf400)" style="fill: none; stroke: #cccccc; stroke-opacity: 0.5; stroke-linecap: round"/>
     </g>
     <g id="text_9">
      <!-- 0 -->
      <g style="fill: #262626" transform="translate(64.539219 347.919214) scale(0.11 -0.11)">
       <use xlink:href="#ArialMT-30"/>
      </g>
     </g>
    </g>
    <g id="ytick_2">
     <g id="line2d_9">
      <path d="M 80.15625 276.602721 
L 851.04 276.602721 
" clip-path="url(#p550dedf400)" style="fill: none; stroke: #cccccc; stroke-opacity: 0.5; stroke-linecap: round"/>
     </g>
     <g id="text_10">
      <!-- 1000000 -->
      <g style="fill: #262626" transform="translate(27.837031 280.539518) scale(0.11 -0.11)">
       <use xlink:href="#ArialMT-31"/>
       <use xlink:href="#ArialMT-30" x="55.615234"/>
       <use xlink:href="#ArialMT-30" x="111.230469"/>
       <use xlink:href="#ArialMT-30" x="166.845703"/>
       <use xlink:href="#ArialMT-30" x="222.460938"/>
       <use xlink:href="#ArialMT-30" x="278.076172"/>
       <use xlink:href="#ArialMT-30" x="333.691406"/>
      </g>
     </g>
    </g>
    <g id="ytick_3">
     <g id="line2d_10">
      <path d="M 80.15625 209.223024 
L 851.04 209.223024 
" clip-path="url(#p550dedf400)" style="fill: none; stroke: #cccccc; stroke-opacity: 0.5; stroke-linecap: round"/>
     </g>
     <g id="text_11">
      <!-- 2000000 -->
      <g style="fill: #262626" transform="translate(27.837031 213.159821) scale(0.11 -0.11)">
       <use xlink:href="#ArialMT-32"/>
       <use xlink:href="#ArialMT-30" x="55.615234"/>
       <use xlink:href="#ArialMT-30" x="111.230469"/>
       <use xlink:href="#ArialMT-30" x="166.845703"/>
       <use xlink:href="#ArialMT-30" x="222.460938"/>
       <use xlink:href="#ArialMT-30" x="278.076172"/>
       <use xlink:href="#ArialMT-30" x="333.691406"/>
      </g>
     </g>
    </g>
    <g id="ytick_4">
     <g id="line2d_11">
      <path d="M 80.15625 141.843328 
L 851.04 141.843328 
" clip-path="url(#p550dedf400)" style="fill: none; stroke: #cccccc; stroke-opacity: 0.5; stroke-linecap: round"/>
     </g>
     <g id="text_12">
      <!-- 3000000 -->
      <g style="fill: #262626" transform="translate(27.837031 145.780125) scale(0.11 -0.11)">
       <use xlink:href="#ArialMT-33"/>
       <use xlink:href="#ArialMT-30" x="55.615234"/>
       <use xlink:href="#ArialMT-30" x="111.230469"/>
       <use xlink:href="#ArialMT-30" x="166.845703"/>
       <use xlink:href="#ArialMT-30" x="222.460938"/>
       <use xlink:href="#ArialMT-30" x="278.076172"/>
       <use xlink:href="#ArialMT-30" x="333.691406"/>
      </g>
     </g>
    </g>
    <g id="ytick_5">
     <g id="line2d_12">
      <path d="M 80.15625 74.463631 
L 851.04 74.463631 
" clip-path="url(#p550dedf400)" style="fill: none; stroke: #cccccc; stroke-opacity: 0.5; stroke-linecap: round"/>
     </g>
     <g id="text_13">
      <!-- 4000000 -->
      <g style="fill: #262626" transform="translate(27.837031 78.400428) scale(0.11 -0.11)">
       <use xlink:href="#ArialMT-34"/>
       <use xlink:href="#ArialMT-30" x="55.615234"/>
       <use xlink:href="#ArialMT-30" x="111.230469"/>
       <use xlink:href="#ArialMT-30" x="166.845703"/>
       <use xlink:href="#ArialMT-30" x="222.460938"/>
       <use xlink:href="#ArialMT-30" x="278.076172"/>
       <use xlink:href="#ArialMT-30" x="333.691406"/>
      </g>
     </g>
    </g>
    <g id="text_14">
     <!-- Total Liquidity (sats) -->
     <g style="fill: #262626" transform="translate(21.311406 246.366534) rotate(-90) scale(0.12 -0.12)">
      <defs>
       <path id="ArialMT-6f" d="M 213 1659 
Q 213 2581 725 3025 
Q 1153 3394 1769 3394 
Q 2453 3394 2887 2945 
Q 3322 2497 3322 1706 
Q 3322 1066 3130 698 
Q 2938 331 2570 128 
Q 2203 -75 1769 -75 
Q 1072 -75 642 372 
Q 213 819 213 1659 
z
M 791 1659 
Q 791 1022 1069 705 
Q 1347 388 1769 388 
Q 2188 388 2466 706 
Q 2744 1025 2744 1678 
Q 2744 2294 2464 2611 
Q 2184 2928 1769 2928 
Q 1347 2928 1069 2612 
Q 791 2297 791 1659 
z
" transform="scale(0.015625)"/>
       <path id="ArialMT-6c" d="M 409 0 
L 409 4581 
L 972 4581 
L 972 0 
L 409 0 
z
" transform="scale(0.015625)"/>
       <path id="ArialMT-20" transform="scale(0.015625)"/>
       <path id="ArialMT-4c" d="M 469 0 
L 469 4581 
L 1075 4581 
L 1075 541 
L 3331 541 
L 3331 0 
L 469 0 
z
" transform="scale(0.015625)"/>
       <path id="ArialMT-71" d="M 2538 -1272 
L 2538 353 
Q 2406 169 2170 47 
Q 1934 -75 1669 -75 
Q 1078 -75 651 397 
Q 225 869 225 1691 
Q 225 2191 398 2587 
Q 572 2984 901 3189 
Q 1231 3394 1625 3394 
Q 2241 3394 2594 2875 
L 2594 3319 
L 3100 3319 
L 3100 -1272 
L 2538 -1272 
z
M 803 1669 
Q 803 1028 1072 708 
Q 1341 388 1716 388 
Q 2075 388 2334 692 
Q 2594 997 2594 1619 
Q 2594 2281 2320 2615 
Q 2047 2950 1678 2950 
Q 1313 2950 1058 2639 
Q 803 2328 803 1669 
z
" transform="scale(0.015625)"/>
       <path id="ArialMT-75" d="M 2597 0 
L 2597 488 
Q 2209 -75 1544 -75 
Q 1250 -75 995 37 
Q 741 150 617 320 
Q 494 491 444 738 
Q 409 903 409 1263 
L 409 3319 
L 972 3319 
L 972 1478 
Q 972 1038 1006 884 
Q 1059 663 1231 536 
Q 1403 409 1656 409 
Q 1909 409 2131 539 
Q 2353 669 2445 892 
Q 2538 1116 2538 1541 
L 2538 3319 
L 3100 3319 
L 3100 0 
L 2597 0 
z
" transform="scale(0.015625)"/>
       <path id="ArialMT-64" d="M 2575 0 
L 2575 419 
Q 2259 -75 1647 -75 
Q 1250 -75 917 144 
Q 584 363 401 755 
Q 219 1147 219 1656 
Q 219 2153 384 2558 
Q 550 2963 881 3178 
Q 1213 3394 1622 3394 
Q 1922 3394 2156 3267 
Q 2391 3141 2538 2938 
L 2538 4581 
L 3097 4581 
L 3097 0 
L 2575 0 
z
M 797 1656 
Q 797 1019 1065 703 
Q 1334 388 1700 388 
Q 2069 388 2326 689 
Q 2584 991 2584 1609 
Q 2584 2291 2321 2609 
Q 2059 2928 1675 2928 
Q 1300 2928 1048 2622 
Q 797 2316 797 1656 
z
" transform="scale(0.015625)"/>
       <path id="ArialMT-79" d="M 397 -1278 
L 334 -750 
Q 519 -800 656 -800 
Q 844 -800 956 -737 
Q 1069 -675 1141 -563 
Q 1194 -478 1313 -144 
Q 1328 -97 1363 -6 
L 103 3319 
L 709 3319 
L 1400 1397 
Q 1534 1031 1641 628 
Q 1738 1016 1872 1384 
L 2581 3319 
L 3144 3319 
L 1881 -56 
Q 1678 -603 1566 -809 
Q 1416 -1088 1222 -1217 
Q 1028 -1347 759 -1347 
Q 597 -1347 397 -1278 
z
" transform="scale(0.015625)"/>
       <path id="ArialMT-28" d="M 1497 -1347 
Q 1031 -759 709 28 
Q 388 816 388 1659 
Q 388 2403 628 3084 
Q 909 3875 1497 4659 
L 1900 4659 
Q 1522 4009 1400 3731 
Q 1209 3300 1100 2831 
Q 966 2247 966 1656 
Q 966 153 1900 -1347 
L 1497 -1347 
z
" transform="scale(0.015625)"/>
       <path id="ArialMT-29" d="M 791 -1347 
L 388 -1347 
Q 1322 153 1322 1656 
Q 1322 2244 1188 2822 
Q 1081 3291 891 3722 
Q 769 4003 388 4659 
L 791 4659 
Q 1378 3875 1659 3084 
Q 1900 2403 1900 1659 
Q 1900 816 1576 28 
Q 1253 -759 791 -1347 
z
" transform="scale(0.015625)"/>
      </defs>
      <use xlink:href="#ArialMT-54"/>
      <use xlink:href="#ArialMT-6f" x="49.958984"/>
      <use xlink:href="#ArialMT-74" x="105.574219"/>
      <use xlink:href="#ArialMT-61" x="133.357422"/>
      <use xlink:href="#ArialMT-6c" x="188.972656"/>
      <use xlink:href="#ArialMT-20" x="211.189453"/>
      <use xlink:href="#ArialMT-4c" x="238.972656"/>
      <use xlink:href="#ArialMT-69" x="294.587891"/>
      <use xlink:href="#ArialMT-71" x="316.804688"/>
      <use xlink:href="#ArialMT-75" x="372.419922"/>
      <use xlink:href="#ArialMT-69" x="428.035156"/>
      <use xlink:href="#ArialMT-64" x="450.251953"/>
      <use xlink:href="#ArialMT-69" x="505.867188"/>
      <use xlink:href="#ArialMT-74" x="528.083984"/>
      <use xlink:href="#ArialMT-79" x="555.867188"/>
      <use xlink:href="#ArialMT-20" x="605.867188"/>
      <use xlink:href="#ArialMT-28" x="633.650391"/>
      <use xlink:href="#ArialMT-73" x="666.951172"/>
      <use xlink:href="#ArialMT-61" x="716.951172"/>
      <use xlink:href="#ArialMT-74" x="772.566406"/>
      <use xlink:href="#ArialMT-73" x="800.349609"/>
      <use xlink:href="#ArialMT-29" x="850.349609"/>
     </g>
    </g>
   </g>
   <g id="PolyCollection_1">
    <defs>
     <path id="mb2ca0ea343" d="M 115.19642 -88.017583 
L 115.19642 -88.017583 
L 116.926799 -88.017583 
L 118.657178 -88.017583 
L 120.387557 -88.017583 
L 122.117936 -88.017583 
L 123.848314 -88.017583 
L 125.578693 -88.017583 
L 127.309072 -88.017583 
L 129.039451 -88.017583 
L 130.76983 -88.017583 
L 132.500208 -88.017583 
L 134.230587 -88.017583 
L 135.960966 -88.017583 
L 137.691345 -88.017583 
L 139.421723 -88.017583 
L 141.152102 -88.017583 
L 142.882481 -88.017583 
L 144.61286 -88.017583 
L 146.343239 -88.017583 
L 148.073617 -88.017583 
L 149.803996 -88.017583 
L 151.534375 -88.017583 
L 153.264754 -88.017583 
L 154.995133 -88.017583 
L 156.725511 -88.017583 
L 158.45589 -88.017583 
L 160.186269 -103.263383 
L 161.916648 -103.263383 
L 163.647027 -88.017583 
L 165.377405 -88.017583 
L 167.107784 -88.017583 
L 168.838163 -88.017583 
L 170.568542 -88.017583 
L 172.29892 -88.017583 
L 174.029299 -88.017583 
L 175.759678 -88.017583 
L 177.490057 -88.017583 
L 179.220436 -88.017583 
L 180.950814 -88.017583 
L 182.681193 -88.017583 
L 184.411572 -104.347544 
L 186.141951 -104.347544 
L 187.87233 -88.017583 
L 189.602708 -88.017583 
L 191.333087 -88.017583 
L 193.063466 -88.017583 
L 194.793845 -88.017583 
L 196.524223 -88.017583 
L 198.254602 -88.017583 
L 199.984981 -88.017583 
L 201.71536 -88.017583 
L 203.445739 -88.017583 
L 205.176117 -103.263383 
L 206.906496 -103.263383 
L 208.636875 -103.66216 
L 210.367254 -103.66216 
L 212.097633 -88.017583 
L 213.828011 -88.017583 
L 215.55839 -88.017583 
L 217.288769 -88.017583 
L 219.019148 -88.017583 
L 220.749527 -88.017583 
L 222.479905 -88.017583 
L 224.210284 -88.017583 
L 225.940663 -88.017583 
L 227.671042 -88.017583 
L 229.40142 -104.347544 
L 231.131799 -104.347544 
L 232.862178 -100.985633 
L 234.592557 -100.985633 
L 236.322936 -88.017583 
L 238.053314 -88.017583 
L 239.783693 -88.017583 
L 241.514072 -88.017583 
L 243.244451 -88.017583 
L 244.97483 -88.017583 
L 246.705208 -88.017583 
L 248.435587 -88.017583 
L 250.165966 -103.263383 
L 251.896345 -103.263383 
L 253.626723 -103.66216 
L 255.357102 -103.66216 
L 257.087481 -99.009696 
L 258.81786 -99.009696 
L 260.548239 -88.017583 
L 262.278617 -88.017583 
L 264.008996 -88.017583 
L 265.739375 -88.017583 
L 267.469754 -88.017583 
L 269.200133 -88.017583 
L 270.930511 -88.017583 
L 272.66089 -88.017583 
L 274.391269 -104.347544 
L 276.121648 -104.347544 
L 277.852027 -100.985633 
L 279.582405 -100.985633 
L 281.312784 -97.451868 
L 283.043163 -97.451868 
L 284.773542 -88.017583 
L 286.50392 -88.017583 
L 288.234299 -88.017583 
L 289.964678 -88.017583 
L 291.695057 -88.017583 
L 293.425436 -88.017583 
L 295.155814 -103.263383 
L 296.886193 -103.263383 
L 298.616572 -103.66216 
L 300.346951 -103.66216 
L 302.07733 -99.009696 
L 303.807708 -99.009696 
L 305.538087 -97.546576 
L 307.268466 -97.546576 
L 308.998845 -88.017583 
L 310.729223 -88.017583 
L 312.459602 -88.017583 
L 314.189981 -88.017583 
L 315.92036 -88.017583 
L 317.650739 -88.017583 
L 319.381117 -104.347544 
L 321.111496 -104.347544 
L 322.841875 -100.985633 
L 324.572254 -100.985633 
L 326.302633 -97.451868 
L 328.033011 -97.451868 
L 329.76339 -97.628609 
L 331.493769 -97.628609 
L 333.224148 -88.017583 
L 334.954527 -88.017583 
L 336.684905 -88.017583 
L 338.415284 -88.017583 
L 340.145663 -103.263383 
L 341.876042 -103.263383 
L 343.60642 -103.66216 
L 345.336799 -103.66216 
L 347.067178 -99.009696 
L 348.797557 -99.009696 
L 350.527936 -97.546576 
L 352.258314 -97.546576 
L 353.988693 -98.466285 
L 355.719072 -98.466285 
L 357.449451 -88.017583 
L 359.17983 -88.017583 
L 360.910208 -88.017583 
L 362.640587 -88.017583 
L 364.370966 -104.347544 
L 366.101345 -104.347544 
L 367.831723 -100.985633 
L 369.562102 -100.985633 
L 371.292481 -97.451868 
L 373.02286 -97.451868 
L 374.753239 -97.628609 
L 376.483617 -97.628609 
L 378.213996 -98.687605 
L 379.944375 -98.687605 
L 381.674754 -88.017583 
L 383.405133 -88.017583 
L 385.135511 -103.263383 
L 386.86589 -103.263383 
L 388.596269 -103.66216 
L 390.326648 -103.66216 
L 392.057027 -99.009696 
L 393.787405 -99.009696 
L 395.517784 -97.546576 
L 397.248163 -97.546576 
L 398.978542 -98.466285 
L 400.70892 -98.466285 
L 402.439299 -97.94001 
L 404.169678 -97.94001 
L 405.900057 -88.017583 
L 407.630436 -88.017583 
L 409.360814 -104.347544 
L 411.091193 -104.347544 
L 412.821572 -100.985633 
L 414.551951 -100.985633 
L 416.28233 -97.451868 
L 418.012708 -97.451868 
L 419.743087 -97.628609 
L 421.473466 -97.628609 
L 423.203845 -98.687605 
L 424.934223 -98.687605 
L 426.664602 -97.539924 
L 428.394981 -97.539924 
L 430.12536 -103.263383 
L 431.855739 -103.263383 
L 433.586117 -103.66216 
L 435.316496 -103.66216 
L 437.046875 -99.009696 
L 438.777254 -99.009696 
L 440.507633 -97.546576 
L 442.238011 -97.546576 
L 443.96839 -98.466285 
L 445.698769 -98.466285 
L 447.429148 -97.94001 
L 449.159527 -97.94001 
L 450.889905 -98.40852 
L 452.620284 -98.40852 
L 454.350663 -104.347544 
L 456.081042 -104.347544 
L 457.81142 -100.985633 
L 459.541799 -100.985633 
L 461.272178 -97.451868 
L 463.002557 -97.451868 
L 464.732936 -97.628609 
L 466.463314 -97.628609 
L 468.193693 -98.687605 
L 469.924072 -98.687605 
L 471.654451 -97.539924 
L 473.38483 -97.539924 
L 475.115208 -115.04528 
L 476.845587 -115.04528 
L 478.575966 -103.66216 
L 480.306345 -103.66216 
L 482.036723 -99.009696 
L 483.767102 -99.009696 
L 485.497481 -97.546576 
L 487.22786 -97.546576 
L 488.958239 -98.466285 
L 490.688617 -98.466285 
L 492.418996 -97.94001 
L 494.149375 -97.94001 
L 495.879754 -98.40852 
L 497.610133 -98.40852 
L 499.340511 -114.882276 
L 501.07089 -114.882276 
L 502.801269 -100.985633 
L 504.531648 -100.985633 
L 506.262027 -97.451868 
L 507.992405 -97.451868 
L 509.722784 -97.628609 
L 511.453163 -97.628609 
L 513.183542 -98.687605 
L 514.91392 -98.687605 
L 516.644299 -97.539924 
L 518.374678 -97.539924 
L 520.105057 -115.04528 
L 521.835436 -115.04528 
L 523.565814 -113.97156 
L 525.296193 -113.97156 
L 527.026572 -99.009696 
L 528.756951 -99.009696 
L 530.48733 -97.546576 
L 532.217708 -97.546576 
L 533.948087 -98.466285 
L 535.678466 -98.466285 
L 537.408845 -97.94001 
L 539.139223 -97.94001 
L 540.869602 -98.40852 
L 542.599981 -98.40852 
L 544.33036 -114.882276 
L 546.060739 -114.882276 
L 547.791117 -112.678602 
L 549.521496 -112.678602 
L 551.251875 -97.451868 
L 552.982254 -97.451868 
L 554.712633 -97.628609 
L 556.443011 -97.628609 
L 558.17339 -98.687605 
L 559.903769 -98.687605 
L 561.634148 -97.539924 
L 563.364527 -97.539924 
L 565.094905 -115.04528 
L 566.825284 -115.04528 
L 568.555663 -113.97156 
L 570.286042 -113.97156 
L 572.01642 -110.362334 
L 573.746799 -110.362334 
L 575.477178 -97.546576 
L 577.207557 -97.546576 
L 578.937936 -98.466285 
L 580.668314 -98.466285 
L 582.398693 -97.94001 
L 584.129072 -97.94001 
L 585.859451 -98.40852 
L 587.58983 -98.40852 
L 589.320208 -114.882276 
L 591.050587 -114.882276 
L 592.780966 -112.678602 
L 594.511345 -112.678602 
L 596.241723 -109.047675 
L 597.972102 -109.047675 
L 599.702481 -97.628609 
L 601.43286 -97.628609 
L 603.163239 -98.687605 
L 604.893617 -98.687605 
L 606.623996 -97.539924 
L 608.354375 -97.539924 
L 610.084754 -115.04528 
L 611.815133 -115.04528 
L 613.545511 -113.97156 
L 615.27589 -113.97156 
L 617.006269 -110.362334 
L 618.736648 -110.362334 
L 620.467027 -107.89187 
L 622.197405 -107.89187 
L 623.927784 -98.466285 
L 625.658163 -98.466285 
L 627.388542 -97.94001 
L 629.11892 -97.94001 
L 630.849299 -98.40852 
L 632.579678 -98.40852 
L 634.310057 -114.882276 
L 636.040436 -114.882276 
L 637.770814 -112.678602 
L 639.501193 -112.678602 
L 641.231572 -109.047675 
L 642.961951 -109.047675 
L 644.69233 -108.822145 
L 646.422708 -108.822145 
L 648.153087 -98.687605 
L 649.883466 -98.687605 
L 651.613845 -97.539924 
L 653.344223 -97.539924 
L 655.074602 -115.04528 
L 656.804981 -115.04528 
L 658.53536 -113.97156 
L 660.265739 -113.97156 
L 661.996117 -110.362334 
L 663.726496 -110.362334 
L 665.456875 -107.89187 
L 667.187254 -107.89187 
L 668.917633 -108.343971 
L 670.648011 -108.343971 
L 672.37839 -97.94001 
L 674.108769 -97.94001 
L 675.839148 -98.40852 
L 677.569527 -98.40852 
L 679.299905 -114.882276 
L 681.030284 -114.882276 
L 682.760663 -112.678602 
L 684.491042 -112.678602 
L 686.22142 -109.047675 
L 687.951799 -109.047675 
L 689.682178 -108.822145 
L 691.412557 -108.822145 
L 693.142936 -107.554843 
L 694.873314 -107.554843 
L 696.603693 -97.539924 
L 698.334072 -97.539924 
L 700.064451 -115.04528 
L 701.79483 -115.04528 
L 703.525208 -113.97156 
L 705.255587 -113.97156 
L 706.985966 -110.362334 
L 708.716345 -110.362334 
L 710.446723 -107.89187 
L 712.177102 -107.89187 
L 713.907481 -108.343971 
L 715.63786 -108.343971 
L 717.368239 -104.779955 
L 719.098617 -104.779955 
L 720.828996 -98.40852 
L 722.559375 -98.40852 
L 724.289754 -114.882276 
L 726.020133 -114.882276 
L 727.750511 -112.678602 
L 729.48089 -112.678602 
L 731.211269 -109.047675 
L 732.941648 -109.047675 
L 734.672027 -108.822145 
L 736.402405 -108.822145 
L 738.132784 -107.554843 
L 739.863163 -107.554843 
L 741.593542 -104.471885 
L 743.32392 -104.471885 
L 745.054299 -115.04528 
L 746.784678 -115.04528 
L 748.515057 -113.97156 
L 750.245436 -113.97156 
L 751.975814 -389.280599 
L 753.706193 -389.280599 
L 755.436572 -366.935848 
L 757.166951 -366.935848 
L 758.89733 -347.061561 
L 760.627708 -347.061561 
L 762.358087 -326.735172 
L 764.088466 -326.735172 
L 765.818845 -309.9728 
L 767.549223 -309.9728 
L 769.279602 -292.695938 
L 771.009981 -292.695938 
L 772.74036 -265.831245 
L 774.470739 -265.831245 
L 776.201117 -241.170226 
L 777.931496 -241.170226 
L 779.661875 -220.140134 
L 781.392254 -220.140134 
L 783.122633 -199.335571 
L 784.853011 -199.335571 
L 786.58339 -179.798311 
L 788.313769 -179.798311 
L 790.044148 -163.344009 
L 791.774527 -163.344009 
L 793.504905 -136.316311 
L 795.235284 -136.316311 
L 796.965663 -110.362334 
L 798.696042 -110.362334 
L 800.42642 -88.017583 
L 802.156799 -88.017583 
L 803.887178 -88.017583 
L 805.617557 -88.017583 
L 807.347936 -88.017583 
L 809.078314 -88.017583 
L 810.808693 -88.017583 
L 812.539072 -88.017583 
L 814.269451 -88.017583 
L 815.99983 -88.017583 
L 815.99983 -88.017583 
L 815.99983 -88.017583 
L 814.269451 -88.017583 
L 812.539072 -88.017583 
L 810.808693 -88.017583 
L 809.078314 -88.017583 
L 807.347936 -88.017583 
L 805.617557 -88.017583 
L 803.887178 -88.017583 
L 802.156799 -88.017583 
L 800.42642 -88.017583 
L 798.696042 -88.017583 
L 796.965663 -88.017583 
L 795.235284 -88.017583 
L 793.504905 -88.017583 
L 791.774527 -88.017583 
L 790.044148 -88.017583 
L 788.313769 -88.017583 
L 786.58339 -88.017583 
L 784.853011 -88.017583 
L 783.122633 -88.017583 
L 781.392254 -88.017583 
L 779.661875 -88.017583 
L 777.931496 -88.017583 
L 776.201117 -88.017583 
L 774.470739 -88.017583 
L 772.74036 -88.017583 
L 771.009981 -88.017583 
L 769.279602 -88.017583 
L 767.549223 -88.017583 
L 765.818845 -88.017583 
L 764.088466 -88.017583 
L 762.358087 -88.017583 
L 760.627708 -88.017583 
L 758.89733 -88.017583 
L 757.166951 -88.017583 
L 755.436572 -88.017583 
L 753.706193 -88.017583 
L 751.975814 -88.017583 
L 750.245436 -88.017583 
L 748.515057 -88.017583 
L 746.784678 -88.017583 
L 745.054299 -88.017583 
L 743.32392 -88.017583 
L 741.593542 -88.017583 
L 739.863163 -88.017583 
L 738.132784 -88.017583 
L 736.402405 -88.017583 
L 734.672027 -88.017583 
L 732.941648 -88.017583 
L 731.211269 -88.017583 
L 729.48089 -88.017583 
L 727.750511 -88.017583 
L 726.020133 -88.017583 
L 724.289754 -88.017583 
L 722.559375 -88.017583 
L 720.828996 -88.017583 
L 719.098617 -88.017583 
L 717.368239 -88.017583 
L 715.63786 -88.017583 
L 713.907481 -88.017583 
L 712.177102 -88.017583 
L 710.446723 -88.017583 
L 708.716345 -88.017583 
L 706.985966 -88.017583 
L 705.255587 -88.017583 
L 703.525208 -88.017583 
L 701.79483 -88.017583 
L 700.064451 -88.017583 
L 698.334072 -88.017583 
L 696.603693 -88.017583 
L 694.873314 -88.017583 
L 693.142936 -88.017583 
L 691.412557 -88.017583 
L 689.682178 -88.017583 
L 687.951799 -88.017583 
L 686.22142 -88.017583 
L 684.491042 -88.017583 
L 682.760663 -88.017583 
L 681.030284 -88.017583 
L 679.299905 -88.017583 
L 677.569527 -88.017583 
L 675.839148 -88.017583 
L 674.108769 -88.017583 
L 672.37839 -88.017583 
L 670.648011 -88.017583 
L 668.917633 -88.017583 
L 667.187254 -88.017583 
L 665.456875 -88.017583 
L 663.726496 -88.017583 
L 661.996117 -88.017583 
L 660.265739 -88.017583 
L 658.53536 -88.017583 
L 656.804981 -88.017583 
L 655.074602 -88.017583 
L 653.344223 -88.017583 
L 651.613845 -88.017583 
L 649.883466 -88.017583 
L 648.153087 -88.017583 
L 646.422708 -88.017583 
L 644.69233 -88.017583 
L 642.961951 -88.017583 
L 641.231572 -88.017583 
L 639.501193 -88.017583 
L 637.770814 -88.017583 
L 636.040436 -88.017583 
L 634.310057 -88.017583 
L 632.579678 -88.017583 
L 630.849299 -88.017583 
L 629.11892 -88.017583 
L 627.388542 -88.017583 
L 625.658163 -88.017583 
L 623.927784 -88.017583 
L 622.197405 -88.017583 
L 620.467027 -88.017583 
L 618.736648 -88.017583 
L 617.006269 -88.017583 
L 615.27589 -88.017583 
L 613.545511 -88.017583 
L 611.815133 -88.017583 
L 610.084754 -88.017583 
L 608.354375 -88.017583 
L 606.623996 -88.017583 
L 604.893617 -88.017583 
L 603.163239 -88.017583 
L 601.43286 -88.017583 
L 599.702481 -88.017583 
L 597.972102 -88.017583 
L 596.241723 -88.017583 
L 594.511345 -88.017583 
L 592.780966 -88.017583 
L 591.050587 -88.017583 
L 589.320208 -88.017583 
L 587.58983 -88.017583 
L 585.859451 -88.017583 
L 584.129072 -88.017583 
L 582.398693 -88.017583 
L 580.668314 -88.017583 
L 578.937936 -88.017583 
L 577.207557 -88.017583 
L 575.477178 -88.017583 
L 573.746799 -88.017583 
L 572.01642 -88.017583 
L 570.286042 -88.017583 
L 568.555663 -88.017583 
L 566.825284 -88.017583 
L 565.094905 -88.017583 
L 563.364527 -88.017583 
L 561.634148 -88.017583 
L 559.903769 -88.017583 
L 558.17339 -88.017583 
L 556.443011 -88.017583 
L 554.712633 -88.017583 
L 552.982254 -88.017583 
L 551.251875 -88.017583 
L 549.521496 -88.017583 
L 547.791117 -88.017583 
L 546.060739 -88.017583 
L 544.33036 -88.017583 
L 542.599981 -88.017583 
L 540.869602 -88.017583 
L 539.139223 -88.017583 
L 537.408845 -88.017583 
L 535.678466 -88.017583 
L 533.948087 -88.017583 
L 532.217708 -88.017583 
L 530.48733 -88.017583 
L 528.756951 -88.017583 
L 527.026572 -88.017583 
L 525.296193 -88.017583 
L 523.565814 -88.017583 
L 521.835436 -88.017583 
L 520.105057 -88.017583 
L 518.374678 -88.017583 
L 516.644299 -88.017583 
L 514.91392 -88.017583 
L 513.183542 -88.017583 
L 511.453163 -88.017583 
L 509.722784 -88.017583 
L 507.992405 -88.017583 
L 506.262027 -88.017583 
L 504.531648 -88.017583 
L 502.801269 -88.017583 
L 501.07089 -88.017583 
L 499.340511 -88.017583 
L 497.610133 -88.017583 
L 495.879754 -88.017583 
L 494.149375 -88.017583 
L 492.418996 -88.017583 
L 490.688617 -88.017583 
L 488.958239 -88.017583 
L 487.22786 -88.017583 
L 485.497481 -88.017583 
L 483.767102 -88.017583 
L 482.036723 -88.017583 
L 480.306345 -88.017583 
L 478.575966 -88.017583 
L 476.845587 -88.017583 
L 475.115208 -88.017583 
L 473.38483 -88.017583 
L 471.654451 -88.017583 
L 469.924072 -88.017583 
L 468.193693 -88.017583 
L 466.463314 -88.017583 
L 464.732936 -88.017583 
L 463.002557 -88.017583 
L 461.272178 -88.017583 
L 459.541799 -88.017583 
L 457.81142 -88.017583 
L 456.081042 -88.017583 
L 454.350663 -88.017583 
L 452.620284 -88.017583 
L 450.889905 -88.017583 
L 449.159527 -88.017583 
L 447.429148 -88.017583 
L 445.698769 -88.017583 
L 443.96839 -88.017583 
L 442.238011 -88.017583 
L 440.507633 -88.017583 
L 438.777254 -88.017583 
L 437.046875 -88.017583 
L 435.316496 -88.017583 
L 433.586117 -88.017583 
L 431.855739 -88.017583 
L 430.12536 -88.017583 
L 428.394981 -88.017583 
L 426.664602 -88.017583 
L 424.934223 -88.017583 
L 423.203845 -88.017583 
L 421.473466 -88.017583 
L 419.743087 -88.017583 
L 418.012708 -88.017583 
L 416.28233 -88.017583 
L 414.551951 -88.017583 
L 412.821572 -88.017583 
L 411.091193 -88.017583 
L 409.360814 -88.017583 
L 407.630436 -88.017583 
L 405.900057 -88.017583 
L 404.169678 -88.017583 
L 402.439299 -88.017583 
L 400.70892 -88.017583 
L 398.978542 -88.017583 
L 397.248163 -88.017583 
L 395.517784 -88.017583 
L 393.787405 -88.017583 
L 392.057027 -88.017583 
L 390.326648 -88.017583 
L 388.596269 -88.017583 
L 386.86589 -88.017583 
L 385.135511 -88.017583 
L 383.405133 -88.017583 
L 381.674754 -88.017583 
L 379.944375 -88.017583 
L 378.213996 -88.017583 
L 376.483617 -88.017583 
L 374.753239 -88.017583 
L 373.02286 -88.017583 
L 371.292481 -88.017583 
L 369.562102 -88.017583 
L 367.831723 -88.017583 
L 366.101345 -88.017583 
L 364.370966 -88.017583 
L 362.640587 -88.017583 
L 360.910208 -88.017583 
L 359.17983 -88.017583 
L 357.449451 -88.017583 
L 355.719072 -88.017583 
L 353.988693 -88.017583 
L 352.258314 -88.017583 
L 350.527936 -88.017583 
L 348.797557 -88.017583 
L 347.067178 -88.017583 
L 345.336799 -88.017583 
L 343.60642 -88.017583 
L 341.876042 -88.017583 
L 340.145663 -88.017583 
L 338.415284 -88.017583 
L 336.684905 -88.017583 
L 334.954527 -88.017583 
L 333.224148 -88.017583 
L 331.493769 -88.017583 
L 329.76339 -88.017583 
L 328.033011 -88.017583 
L 326.302633 -88.017583 
L 324.572254 -88.017583 
L 322.841875 -88.017583 
L 321.111496 -88.017583 
L 319.381117 -88.017583 
L 317.650739 -88.017583 
L 315.92036 -88.017583 
L 314.189981 -88.017583 
L 312.459602 -88.017583 
L 310.729223 -88.017583 
L 308.998845 -88.017583 
L 307.268466 -88.017583 
L 305.538087 -88.017583 
L 303.807708 -88.017583 
L 302.07733 -88.017583 
L 300.346951 -88.017583 
L 298.616572 -88.017583 
L 296.886193 -88.017583 
L 295.155814 -88.017583 
L 293.425436 -88.017583 
L 291.695057 -88.017583 
L 289.964678 -88.017583 
L 288.234299 -88.017583 
L 286.50392 -88.017583 
L 284.773542 -88.017583 
L 283.043163 -88.017583 
L 281.312784 -88.017583 
L 279.582405 -88.017583 
L 277.852027 -88.017583 
L 276.121648 -88.017583 
L 274.391269 -88.017583 
L 272.66089 -88.017583 
L 270.930511 -88.017583 
L 269.200133 -88.017583 
L 267.469754 -88.017583 
L 265.739375 -88.017583 
L 264.008996 -88.017583 
L 262.278617 -88.017583 
L 260.548239 -88.017583 
L 258.81786 -88.017583 
L 257.087481 -88.017583 
L 255.357102 -88.017583 
L 253.626723 -88.017583 
L 251.896345 -88.017583 
L 250.165966 -88.017583 
L 248.435587 -88.017583 
L 246.705208 -88.017583 
L 244.97483 -88.017583 
L 243.244451 -88.017583 
L 241.514072 -88.017583 
L 239.783693 -88.017583 
L 238.053314 -88.017583 
L 236.322936 -88.017583 
L 234.592557 -88.017583 
L 232.862178 -88.017583 
L 231.131799 -88.017583 
L 229.40142 -88.017583 
L 227.671042 -88.017583 
L 225.940663 -88.017583 
L 224.210284 -88.017583 
L 222.479905 -88.017583 
L 220.749527 -88.017583 
L 219.019148 -88.017583 
L 217.288769 -88.017583 
L 215.55839 -88.017583 
L 213.828011 -88.017583 
L 212.097633 -88.017583 
L 210.367254 -88.017583 
L 208.636875 -88.017583 
L 206.906496 -88.017583 
L 205.176117 -88.017583 
L 203.445739 -88.017583 
L 201.71536 -88.017583 
L 199.984981 -88.017583 
L 198.254602 -88.017583 
L 196.524223 -88.017583 
L 194.793845 -88.017583 
L 193.063466 -88.017583 
L 191.333087 -88.017583 
L 189.602708 -88.017583 
L 187.87233 -88.017583 
L 186.141951 -88.017583 
L 184.411572 -88.017583 
L 182.681193 -88.017583 
L 180.950814 -88.017583 
L 179.220436 -88.017583 
L 177.490057 -88.017583 
L 175.759678 -88.017583 
L 174.029299 -88.017583 
L 172.29892 -88.017583 
L 170.568542 -88.017583 
L 168.838163 -88.017583 
L 167.107784 -88.017583 
L 165.377405 -88.017583 
L 163.647027 -88.017583 
L 161.916648 -88.017583 
L 160.186269 -88.017583 
L 158.45589 -88.017583 
L 156.725511 -88.017583 
L 154.995133 -88.017583 
L 153.264754 -88.017583 
L 151.534375 -88.017583 
L 149.803996 -88.017583 
L 148.073617 -88.017583 
L 146.343239 -88.017583 
L 144.61286 -88.017583 
L 142.882481 -88.017583 
L 141.152102 -88.017583 
L 139.421723 -88.017583 
L 137.691345 -88.017583 
L 135.960966 -88.017583 
L 134.230587 -88.017583 
L 132.500208 -88.017583 
L 130.76983 -88.017583 
L 129.039451 -88.017583 
L 127.309072 -88.017583 
L 125.578693 -88.017583 
L 123.848314 -88.017583 
L 122.117936 -88.017583 
L 120.387557 -88.017583 
L 118.657178 -88.017583 
L 116.926799 -88.017583 
L 115.19642 -88.017583 
z
" style="stroke: #ffa500; stroke-opacity: 0.4"/>
    </defs>
    <g clip-path="url(#p550dedf400)">
     <use xlink:href="#mb2ca0ea343" x="0" y="432" style="fill: #ffa500; fill-opacity: 0.4; stroke: #ffa500; stroke-opacity: 0.4"/>
    </g>
   </g>
   <g id="line2d_13">
    <path d="M 115.19642 343.982417 
L 158.45589 343.982417 
L 160.186269 328.736617 
L 161.916648 328.736617 
L 163.647027 343.982417 
L 182.681193 343.982417 
L 184.411572 327.652456 
L 186.141951 327.652456 
L 187.87233 343.982417 
L 203.445739 343.982417 
L 205.176117 328.736617 
L 206.906496 328.736617 
L 208.636875 328.33784 
L 210.367254 328.33784 
L 212.097633 343.982417 
L 227.671042 343.982417 
L 229.40142 327.652456 
L 231.131799 327.652456 
L 232.862178 331.014367 
L 234.592557 331.014367 
L 236.322936 343.982417 
L 248.435587 343.982417 
L 250.165966 328.736617 
L 251.896345 328.736617 
L 253.626723 328.33784 
L 255.357102 328.33784 
L 257.087481 332.990304 
L 258.81786 332.990304 
L 260.548239 343.982417 
L 272.66089 343.982417 
L 274.391269 327.652456 
L 276.121648 327.652456 
L 277.852027 331.014367 
L 279.582405 331.014367 
L 281.312784 334.548132 
L 283.043163 334.548132 
L 284.773542 343.982417 
L 293.425436 343.982417 
L 295.155814 328.736617 
L 296.886193 328.736617 
L 298.616572 328.33784 
L 300.346951 328.33784 
L 302.07733 332.990304 
L 303.807708 332.990304 
L 305.538087 334.453424 
L 307.268466 334.453424 
L 308.998845 343.982417 
L 317.650739 343.982417 
L 319.381117 327.652456 
L 321.111496 327.652456 
L 322.841875 331.014367 
L 324.572254 331.014367 
L 326.302633 334.548132 
L 328.033011 334.548132 
L 329.76339 334.371391 
L 331.493769 334.371391 
L 333.224148 343.982417 
L 338.415284 343.982417 
L 340.145663 328.736617 
L 341.876042 328.736617 
L 343.60642 328.33784 
L 345.336799 328.33784 
L 347.067178 332.990304 
L 348.797557 332.990304 
L 350.527936 334.453424 
L 352.258314 334.453424 
L 353.988693 333.533715 
L 355.719072 333.533715 
L 357.449451 343.982417 
L 362.640587 343.982417 
L 364.370966 327.652456 
L 366.101345 327.652456 
L 367.831723 331.014367 
L 369.562102 331.014367 
L 371.292481 334.548132 
L 373.02286 334.548132 
L 374.753239 334.371391 
L 376.483617 334.371391 
L 378.213996 333.312395 
L 379.944375 333.312395 
L 381.674754 343.982417 
L 383.405133 343.982417 
L 385.135511 328.736617 
L 386.86589 328.736617 
L 388.596269 328.33784 
L 390.326648 328.33784 
L 392.057027 332.990304 
L 393.787405 332.990304 
L 395.517784 334.453424 
L 397.248163 334.453424 
L 398.978542 333.533715 
L 400.70892 333.533715 
L 402.439299 334.05999 
L 404.169678 334.05999 
L 405.900057 343.982417 
L 407.630436 343.982417 
L 409.360814 327.652456 
L 411.091193 327.652456 
L 412.821572 331.014367 
L 414.551951 331.014367 
L 416.28233 334.548132 
L 418.012708 334.548132 
L 419.743087 334.371391 
L 421.473466 334.371391 
L 423.203845 333.312395 
L 424.934223 333.312395 
L 426.664602 334.460076 
L 428.394981 334.460076 
L 430.12536 328.736617 
L 431.855739 328.736617 
L 433.586117 328.33784 
L 435.316496 328.33784 
L 437.046875 332.990304 
L 438.777254 332.990304 
L 440.507633 334.453424 
L 442.238011 334.453424 
L 443.96839 333.533715 
L 445.698769 333.533715 
L 447.429148 334.05999 
L 449.159527 334.05999 
L 450.889905 333.59148 
L 452.620284 333.59148 
L 454.350663 327.652456 
L 456.081042 327.652456 
L 457.81142 331.014367 
L 459.541799 331.014367 
L 461.272178 334.548132 
L 463.002557 334.548132 
L 464.732936 334.371391 
L 466.463314 334.371391 
L 468.193693 333.312395 
L 469.924072 333.312395 
L 471.654451 334.460076 
L 473.38483 334.460076 
L 475.115208 316.95472 
L 476.845587 316.95472 
L 478.575966 328.33784 
L 480.306345 328.33784 
L 482.036723 332.990304 
L 483.767102 332.990304 
L 485.497481 334.453424 
L 487.22786 334.453424 
L 488.958239 333.533715 
L 490.688617 333.533715 
L 492.418996 334.05999 
L 494.149375 334.05999 
L 495.879754 333.59148 
L 497.610133 333.59148 
L 499.340511 317.117724 
L 501.07089 317.117724 
L 502.801269 331.014367 
L 504.531648 331.014367 
L 506.262027 334.548132 
L 507.992405 334.548132 
L 509.722784 334.371391 
L 511.453163 334.371391 
L 513.183542 333.312395 
L 514.91392 333.312395 
L 516.644299 334.460076 
L 518.374678 334.460076 
L 520.105057 316.95472 
L 521.835436 316.95472 
L 523.565814 318.02844 
L 525.296193 318.02844 
L 527.026572 332.990304 
L 528.756951 332.990304 
L 530.48733 334.453424 
L 532.217708 334.453424 
L 533.948087 333.533715 
L 535.678466 333.533715 
L 537.408845 334.05999 
L 539.139223 334.05999 
L 540.869602 333.59148 
L 542.599981 333.59148 
L 544.33036 317.117724 
L 546.060739 317.117724 
L 547.791117 319.321398 
L 549.521496 319.321398 
L 551.251875 334.548132 
L 552.982254 334.548132 
L 554.712633 334.371391 
L 556.443011 334.371391 
L 558.17339 333.312395 
L 559.903769 333.312395 
L 561.634148 334.460076 
L 563.364527 334.460076 
L 565.094905 316.95472 
L 566.825284 316.95472 
L 568.555663 318.02844 
L 570.286042 318.02844 
L 572.01642 321.637666 
L 573.746799 321.637666 
L 575.477178 334.453424 
L 577.207557 334.453424 
L 578.937936 333.533715 
L 580.668314 333.533715 
L 582.398693 334.05999 
L 584.129072 334.05999 
L 585.859451 333.59148 
L 587.58983 333.59148 
L 589.320208 317.117724 
L 591.050587 317.117724 
L 592.780966 319.321398 
L 594.511345 319.321398 
L 596.241723 322.952325 
L 597.972102 322.952325 
L 599.702481 334.371391 
L 601.43286 334.371391 
L 603.163239 333.312395 
L 604.893617 333.312395 
L 606.623996 334.460076 
L 608.354375 334.460076 
L 610.084754 316.95472 
L 611.815133 316.95472 
L 613.545511 318.02844 
L 615.27589 318.02844 
L 617.006269 321.637666 
L 618.736648 321.637666 
L 620.467027 324.10813 
L 622.197405 324.10813 
L 623.927784 333.533715 
L 625.658163 333.533715 
L 627.388542 334.05999 
L 629.11892 334.05999 
L 630.849299 333.59148 
L 632.579678 333.59148 
L 634.310057 317.117724 
L 636.040436 317.117724 
L 637.770814 319.321398 
L 639.501193 319.321398 
L 641.231572 322.952325 
L 642.961951 322.952325 
L 644.69233 323.177855 
L 646.422708 323.177855 
L 648.153087 333.312395 
L 649.883466 333.312395 
L 651.613845 334.460076 
L 653.344223 334.460076 
L 655.074602 316.95472 
L 656.804981 316.95472 
L 658.53536 318.02844 
L 660.265739 318.02844 
L 661.996117 321.637666 
L 663.726496 321.637666 
L 665.456875 324.10813 
L 667.187254 324.10813 
L 668.917633 323.656029 
L 670.648011 323.656029 
L 672.37839 334.05999 
L 674.108769 334.05999 
L 675.839148 333.59148 
L 677.569527 333.59148 
L 679.299905 317.117724 
L 681.030284 317.117724 
L 682.760663 319.321398 
L 684.491042 319.321398 
L 686.22142 322.952325 
L 687.951799 322.952325 
L 689.682178 323.177855 
L 691.412557 323.177855 
L 693.142936 324.445157 
L 694.873314 324.445157 
L 696.603693 334.460076 
L 698.334072 334.460076 
L 700.064451 316.95472 
L 701.79483 316.95472 
L 703.525208 318.02844 
L 705.255587 318.02844 
L 706.985966 321.637666 
L 708.716345 321.637666 
L 710.446723 324.10813 
L 712.177102 324.10813 
L 713.907481 323.656029 
L 715.63786 323.656029 
L 717.368239 327.220045 
L 719.098617 327.220045 
L 720.828996 333.59148 
L 722.559375 333.59148 
L 724.289754 317.117724 
L 726.020133 317.117724 
L 727.750511 319.321398 
L 729.48089 319.321398 
L 731.211269 322.952325 
L 732.941648 322.952325 
L 734.672027 323.177855 
L 736.402405 323.177855 
L 738.132784 324.445157 
L 739.863163 324.445157 
L 741.593542 327.528115 
L 743.32392 327.528115 
L 745.054299 316.95472 
L 746.784678 316.95472 
L 748.515057 318.02844 
L 750.245436 318.02844 
L 751.975814 42.719401 
L 753.706193 42.719401 
L 755.436572 65.064152 
L 757.166951 65.064152 
L 758.89733 84.938439 
L 760.627708 84.938439 
L 762.358087 105.264828 
L 764.088466 105.264828 
L 765.818845 122.0272 
L 767.549223 122.0272 
L 769.279602 139.304062 
L 771.009981 139.304062 
L 772.74036 166.168755 
L 774.470739 166.168755 
L 776.201117 190.829774 
L 777.931496 190.829774 
L 779.661875 211.859866 
L 781.392254 211.859866 
L 783.122633 232.664429 
L 784.853011 232.664429 
L 786.58339 252.201689 
L 788.313769 252.201689 
L 790.044148 268.655991 
L 791.774527 268.655991 
L 793.504905 295.683689 
L 795.235284 295.683689 
L 796.965663 321.637666 
L 798.696042 321.637666 
L 800.42642 343.982417 
L 815.99983 343.982417 
L 815.99983 343.982417 
" clip-path="url(#p550dedf400)" style="fill: none; stroke: #ffa500; stroke-opacity: 0.8; stroke-width: 1.5; stroke-linecap: round"/>
   </g>
   <g id="line2d_14">
    <path d="M 115.19642 343.982417 
L 137.691345 343.982417 
L 139.421723 328.736617 
L 161.916648 328.736617 
L 163.647027 312.406656 
L 186.141951 312.406656 
L 187.87233 296.762079 
L 210.367254 296.762079 
L 212.097633 283.794028 
L 234.592557 283.794028 
L 236.322936 272.801915 
L 258.81786 272.801915 
L 260.548239 263.367629 
L 283.043163 263.367629 
L 284.773542 253.838636 
L 307.268466 253.838636 
L 308.998845 244.22761 
L 331.493769 244.22761 
L 333.224148 233.778907 
L 355.719072 233.778907 
L 357.449451 223.108885 
L 379.944375 223.108885 
L 381.674754 213.186458 
L 404.169678 213.186458 
L 405.900057 203.664116 
L 428.394981 203.664116 
L 430.12536 193.273179 
L 452.620284 193.273179 
L 454.350663 181.491282 
L 476.845587 181.491282 
L 478.575966 170.956549 
L 501.07089 170.956549 
L 502.801269 160.647148 
L 525.296193 160.647148 
L 527.026572 148.95418 
L 549.521496 148.95418 
L 551.251875 137.601542 
L 573.746799 137.601542 
L 575.477178 126.005736 
L 597.972102 126.005736 
L 599.702481 115.660442 
L 622.197405 115.660442 
L 623.927784 104.466905 
L 646.422708 104.466905 
L 648.153087 94.589219 
L 670.648011 94.589219 
L 672.37839 85.721981 
L 694.873314 85.721981 
L 696.603693 78.882036 
L 719.098617 78.882036 
L 720.828996 71.950076 
L 743.32392 71.950076 
L 745.054299 65.064152 
L 750.245436 65.064152 
L 751.975814 343.982417 
L 815.99983 343.982417 
L 815.99983 343.982417 
" clip-path="url(#p550dedf400)" style="fill: none; stroke: #008000; stroke-opacity: 0.8; stroke-width: 1.5; stroke-linecap: round"/>
   </g>
   <g id="patch_3">
    <path d="M 80.15625 359.045568 
L 80.15625 27.65625 
" style="fill: none; stroke: #cccccc; stroke-width: 1.25; stroke-linejoin: miter; stroke-linecap: square"/>
   </g>
   <g id="patch_4">
    <path d="M 851.04 359.045568 
L 851.04 27.65625 
" style="fill: none; stroke: #cccccc; stroke-width: 1.25; stroke-linejoin: miter; stroke-linecap: square"/>
   </g>
   <g id="patch_5">
    <path d="M 80.15625 359.045568 
L 851.04 359.045568 
" style="fill: none; stroke: #cccccc; stroke-width: 1.25; stroke-linejoin: miter; stroke-linecap: square"/>
   </g>
   <g id="patch_6">
    <path d="M 80.15625 27.65625 
L 851.04 27.65625 
" style="fill: none; stroke: #cccccc; stroke-width: 1.25; stroke-linejoin: miter; stroke-linecap: square"/>
   </g>
   <g id="text_15">
    <!-- Area: 130887780.61 sat-days -->
    <g style="fill: #ff8c00" transform="translate(149.803996 57.782552) scale(0.1 -0.1)">
     <defs>
      <path id="ArialMT-41" d="M -9 0 
L 1750 4581 
L 2403 4581 
L 4278 0 
L 3588 0 
L 3053 1388 
L 1138 1388 
L 634 0 
L -9 0 
z
M 1313 1881 
L 2866 1881 
L 2388 3150 
Q 2169 3728 2063 4100 
Q 1975 3659 1816 3225 
L 1313 1881 
z
" transform="scale(0.015625)"/>
      <path id="ArialMT-72" d="M 416 0 
L 416 3319 
L 922 3319 
L 922 2816 
Q 1116 3169 1280 3281 
Q 1444 3394 1641 3394 
Q 1925 3394 2219 3213 
L 2025 2691 
Q 1819 2813 1613 2813 
Q 1428 2813 1281 2702 
Q 1134 2591 1072 2394 
Q 978 2094 978 1738 
L 978 0 
L 416 0 
z
" transform="scale(0.015625)"/>
      <path id="ArialMT-3a" d="M 578 2678 
L 578 3319 
L 1219 3319 
L 1219 2678 
L 578 2678 
z
M 578 0 
L 578 641 
L 1219 641 
L 1219 0 
L 578 0 
z
" transform="scale(0.015625)"/>
      <path id="ArialMT-38" d="M 1131 2484 
Q 781 2613 612 2850 
Q 444 3088 444 3419 
Q 444 3919 803 4259 
Q 1163 4600 1759 4600 
Q 2359 4600 2725 4251 
Q 3091 3903 3091 3403 
Q 3091 3084 2923 2848 
Q 2756 2613 2416 2484 
Q 2838 2347 3058 2040 
Q 3278 1734 3278 1309 
Q 3278 722 2862 322 
Q 2447 -78 1769 -78 
Q 1091 -78 675 323 
Q 259 725 259 1325 
Q 259 1772 486 2073 
Q 713 2375 1131 2484 
z
M 1019 3438 
Q 1019 3113 1228 2906 
Q 1438 2700 1772 2700 
Q 2097 2700 2305 2904 
Q 2513 3109 2513 3406 
Q 2513 3716 2298 3927 
Q 2084 4138 1766 4138 
Q 1444 4138 1231 3931 
Q 1019 3725 1019 3438 
z
M 838 1322 
Q 838 1081 952 856 
Q 1066 631 1291 507 
Q 1516 384 1775 384 
Q 2178 384 2440 643 
Q 2703 903 2703 1303 
Q 2703 1709 2433 1975 
Q 2163 2241 1756 2241 
Q 1359 2241 1098 1978 
Q 838 1716 838 1322 
z
" transform="scale(0.015625)"/>
      <path id="ArialMT-2e" d="M 581 0 
L 581 641 
L 1222 641 
L 1222 0 
L 581 0 
z
" transform="scale(0.015625)"/>
      <path id="ArialMT-36" d="M 3184 3459 
L 2625 3416 
Q 2550 3747 2413 3897 
Q 2184 4138 1850 4138 
Q 1581 4138 1378 3988 
Q 1113 3794 959 3422 
Q 806 3050 800 2363 
Q 1003 2672 1297 2822 
Q 1591 2972 1913 2972 
Q 2475 2972 2870 2558 
Q 3266 2144 3266 1488 
Q 3266 1056 3080 686 
Q 2894 316 2569 119 
Q 2244 -78 1831 -78 
Q 1128 -78 684 439 
Q 241 956 241 2144 
Q 241 3472 731 4075 
Q 1159 4600 1884 4600 
Q 2425 4600 2770 4297 
Q 3116 3994 3184 3459 
z
M 888 1484 
Q 888 1194 1011 928 
Q 1134 663 1356 523 
Q 1578 384 1822 384 
Q 2178 384 2434 671 
Q 2691 959 2691 1453 
Q 2691 1928 2437 2201 
Q 2184 2475 1800 2475 
Q 1419 2475 1153 2201 
Q 888 1928 888 1484 
z
" transform="scale(0.015625)"/>
     </defs>
     <use xlink:href="#ArialMT-41"/>
     <use xlink:href="#ArialMT-72" x="66.699219"/>
     <use xlink:href="#ArialMT-65" x="100"/>
     <use xlink:href="#ArialMT-61" x="155.615234"/>
     <use xlink:href="#ArialMT-3a" x="211.230469"/>
     <use xlink:href="#ArialMT-20" x="239.013672"/>
     <use xlink:href="#ArialMT-31" x="266.796875"/>
     <use xlink:href="#ArialMT-33" x="322.412109"/>
     <use xlink:href="#ArialMT-30" x="378.027344"/>
     <use xlink:href="#ArialMT-38" x="433.642578"/>
     <use xlink:href="#ArialMT-38" x="489.257812"/>
     <use xlink:href="#ArialMT-37" x="544.873047"/>
     <use xlink:href="#ArialMT-37" x="600.488281"/>
     <use xlink:href="#ArialMT-38" x="656.103516"/>
     <use xlink:href="#ArialMT-30" x="711.71875"/>
     <use xlink:href="#ArialMT-2e" x="767.333984"/>
     <use xlink:href="#ArialMT-36" x="795.117188"/>
     <use xlink:href="#ArialMT-31" x="850.732422"/>
     <use xlink:href="#ArialMT-20" x="906.347656"/>
     <use xlink:href="#ArialMT-73" x="934.130859"/>
     <use xlink:href="#ArialMT-61" x="984.130859"/>
     <use xlink:href="#ArialMT-74" x="1039.746094"/>
     <use xlink:href="#ArialMT-2d" x="1067.529297"/>
     <use xlink:href="#ArialMT-64" x="1100.830078"/>
     <use xlink:href="#ArialMT-61" x="1156.445312"/>
     <use xlink:href="#ArialMT-79" x="1212.060547"/>
     <use xlink:href="#ArialMT-73" x="1262.060547"/>
    </g>
   </g>
   <g id="text_16">
    <!-- Ark Server Liquidity Requirements -->
    <g style="fill: #262626" transform="translate(374.565938 21.65625) scale(0.12 -0.12)">
     <defs>
      <path id="ArialMT-6b" d="M 425 0 
L 425 4581 
L 988 4581 
L 988 1969 
L 2319 3319 
L 3047 3319 
L 1778 2088 
L 3175 0 
L 2481 0 
L 1384 1697 
L 988 1316 
L 988 0 
L 425 0 
z
" transform="scale(0.015625)"/>
      <path id="ArialMT-53" d="M 288 1472 
L 859 1522 
Q 900 1178 1048 958 
Q 1197 738 1509 602 
Q 1822 466 2213 466 
Q 2559 466 2825 569 
Q 3091 672 3220 851 
Q 3350 1031 3350 1244 
Q 3350 1459 3225 1620 
Q 3100 1781 2813 1891 
Q 2628 1963 1997 2114 
Q 1366 2266 1113 2400 
Q 784 2572 623 2826 
Q 463 3081 463 3397 
Q 463 3744 659 4045 
Q 856 4347 1234 4503 
Q 1613 4659 2075 4659 
Q 2584 4659 2973 4495 
Q 3363 4331 3572 4012 
Q 3781 3694 3797 3291 
L 3216 3247 
Q 3169 3681 2898 3903 
Q 2628 4125 2100 4125 
Q 1550 4125 1298 3923 
Q 1047 3722 1047 3438 
Q 1047 3191 1225 3031 
Q 1400 2872 2139 2705 
Q 2878 2538 3153 2413 
Q 3553 2228 3743 1945 
Q 3934 1663 3934 1294 
Q 3934 928 3725 604 
Q 3516 281 3123 101 
Q 2731 -78 2241 -78 
Q 1619 -78 1198 103 
Q 778 284 539 648 
Q 300 1013 288 1472 
z
" transform="scale(0.015625)"/>
      <path id="ArialMT-76" d="M 1344 0 
L 81 3319 
L 675 3319 
L 1388 1331 
Q 1503 1009 1600 663 
Q 1675 925 1809 1294 
L 2547 3319 
L 3125 3319 
L 1869 0 
L 1344 0 
z
" transform="scale(0.015625)"/>
      <path id="ArialMT-52" d="M 503 0 
L 503 4581 
L 2534 4581 
Q 3147 4581 3465 4457 
Q 3784 4334 3975 4021 
Q 4166 3709 4166 3331 
Q 4166 2844 3850 2509 
Q 3534 2175 2875 2084 
Q 3116 1969 3241 1856 
Q 3506 1613 3744 1247 
L 4541 0 
L 3778 0 
L 3172 953 
Q 2906 1366 2734 1584 
Q 2563 1803 2427 1890 
Q 2291 1978 2150 2013 
Q 2047 2034 1813 2034 
L 1109 2034 
L 1109 0 
L 503 0 
z
M 1109 2559 
L 2413 2559 
Q 2828 2559 3062 2645 
Q 3297 2731 3419 2920 
Q 3541 3109 3541 3331 
Q 3541 3656 3305 3865 
Q 3069 4075 2559 4075 
L 1109 4075 
L 1109 2559 
z
" transform="scale(0.015625)"/>
      <path id="ArialMT-6e" d="M 422 0 
L 422 3319 
L 928 3319 
L 928 2847 
Q 1294 3394 1984 3394 
Q 2284 3394 2536 3286 
Q 2788 3178 2913 3003 
Q 3038 2828 3088 2588 
Q 3119 2431 3119 2041 
L 3119 0 
L 2556 0 
L 2556 2019 
Q 2556 2363 2490 2533 
Q 2425 2703 2258 2804 
Q 2091 2906 1866 2906 
Q 1506 2906 1245 2678 
Q 984 2450 984 1813 
L 984 0 
L 422 0 
z
" transform="scale(0.015625)"/>
     </defs>
     <use xlink:href="#ArialMT-41"/>
     <use xlink:href="#ArialMT-72" x="66.699219"/>
     <use xlink:href="#ArialMT-6b" x="100"/>
     <use xlink:href="#ArialMT-20" x="150"/>
     <use xlink:href="#ArialMT-53" x="177.783203"/>
     <use xlink:href="#ArialMT-65" x="244.482422"/>
     <use xlink:href="#ArialMT-72" x="300.097656"/>
     <use xlink:href="#ArialMT-76" x="333.398438"/>
     <use xlink:href="#ArialMT-65" x="383.398438"/>
     <use xlink:href="#ArialMT-72" x="439.013672"/>
     <use xlink:href="#ArialMT-20" x="472.314453"/>
     <use xlink:href="#ArialMT-4c" x="500.097656"/>
     <use xlink:href="#ArialMT-69" x="555.712891"/>
     <use xlink:href="#ArialMT-71" x="577.929688"/>
     <use xlink:href="#ArialMT-75" x="633.544922"/>
     <use xlink:href="#ArialMT-69" x="689.160156"/>
     <use xlink:href="#ArialMT-64" x="711.376953"/>
     <use xlink:href="#ArialMT-69" x="766.992188"/>
     <use xlink:href="#ArialMT-74" x="789.208984"/>
     <use xlink:href="#ArialMT-79" x="816.992188"/>
     <use xlink:href="#ArialMT-20" x="866.992188"/>
     <use xlink:href="#ArialMT-52" x="894.775391"/>
     <use xlink:href="#ArialMT-65" x="966.992188"/>
     <use xlink:href="#ArialMT-71" x="1022.607422"/>
     <use xlink:href="#ArialMT-75" x="1078.222656"/>
     <use xlink:href="#ArialMT-69" x="1133.837891"/>
     <use xlink:href="#ArialMT-72" x="1156.054688"/>
     <use xlink:href="#ArialMT-65" x="1189.355469"/>
     <use xlink:href="#ArialMT-6d" x="1244.970703"/>
     <use xlink:href="#ArialMT-65" x="1328.271484"/>
     <use xlink:href="#ArialMT-6e" x="1383.886719"/>
     <use xlink:href="#ArialMT-74" x="1439.501953"/>
     <use xlink:href="#ArialMT-73" x="1467.285156"/>
    </g>
   </g>
   <g id="legend_1">
    <g id="patch_7">
     <path d="M 87.85625 218.536612 
L 240.414219 218.536612 
Q 242.614219 218.536612 242.614219 216.336612 
L 242.614219 170.365206 
Q 242.614219 168.165206 240.414219 168.165206 
L 87.85625 168.165206 
Q 85.65625 168.165206 85.65625 170.365206 
L 85.65625 216.336612 
Q 85.65625 218.536612 87.85625 218.536612 
z
" style="fill: #ffffff; opacity: 0.8; stroke: #cccccc; stroke-linejoin: miter"/>
    </g>
    <g id="patch_8">
     <path d="M 90.05625 180.4388 
L 112.05625 180.4388 
L 112.05625 172.7388 
L 90.05625 172.7388 
z
" style="fill: #ffa500; fill-opacity: 0.4; stroke: #ffa500; stroke-opacity: 0.4; stroke-linejoin: miter"/>
    </g>
    <g id="text_17">
     <!-- Ark server liquidity -->
     <g style="fill: #262626" transform="translate(120.85625 180.4388) scale(0.11 -0.11)">
      <use xlink:href="#ArialMT-41"/>
      <use xlink:href="#ArialMT-72" x="66.699219"/>
      <use xlink:href="#ArialMT-6b" x="100"/>
      <use xlink:href="#ArialMT-20" x="150"/>
      <use xlink:href="#ArialMT-73" x="177.783203"/>
      <use xlink:href="#ArialMT-65" x="227.783203"/>
      <use xlink:href="#ArialMT-72" x="283.398438"/>
      <use xlink:href="#ArialMT-76" x="316.699219"/>
      <use xlink:href="#ArialMT-65" x="366.699219"/>
      <use xlink:href="#ArialMT-72" x="422.314453"/>
      <use xlink:href="#ArialMT-20" x="455.615234"/>
      <use xlink:href="#ArialMT-6c" x="483.398438"/>
      <use xlink:href="#ArialMT-69" x="505.615234"/>
      <use xlink:href="#ArialMT-71" x="527.832031"/>
      <use xlink:href="#ArialMT-75" x="583.447266"/>
      <use xlink:href="#ArialMT-69" x="639.0625"/>
      <use xlink:href="#ArialMT-64" x="661.279297"/>
      <use xlink:href="#ArialMT-69" x="716.894531"/>
      <use xlink:href="#ArialMT-74" x="739.111328"/>
      <use xlink:href="#ArialMT-79" x="766.894531"/>
     </g>
    </g>
    <g id="line2d_15">
     <path d="M 90.05625 192.411612 
L 101.05625 192.411612 
L 112.05625 192.411612 
" style="fill: none; stroke: #ffa500; stroke-opacity: 0.8; stroke-width: 1.5; stroke-linecap: round"/>
    </g>
    <g id="text_18">
     <!-- Ark server liquidity (line) -->
     <g style="fill: #262626" transform="translate(120.85625 196.261612) scale(0.11 -0.11)">
      <use xlink:href="#ArialMT-41"/>
      <use xlink:href="#ArialMT-72" x="66.699219"/>
      <use xlink:href="#ArialMT-6b" x="100"/>
      <use xlink:href="#ArialMT-20" x="150"/>
      <use xlink:href="#ArialMT-73" x="177.783203"/>
      <use xlink:href="#ArialMT-65" x="227.783203"/>
      <use xlink:href="#ArialMT-72" x="283.398438"/>
      <use xlink:href="#ArialMT-76" x="316.699219"/>
      <use xlink:href="#ArialMT-65" x="366.699219"/>
      <use xlink:href="#ArialMT-72" x="422.314453"/>
      <use xlink:href="#ArialMT-20" x="455.615234"/>
      <use xlink:href="#ArialMT-6c" x="483.398438"/>
      <use xlink:href="#ArialMT-69" x="505.615234"/>
      <use xlink:href="#ArialMT-71" x="527.832031"/>
      <use xlink:href="#ArialMT-75" x="583.447266"/>
      <use xlink:href="#ArialMT-69" x="639.0625"/>
      <use xlink:href="#ArialMT-64" x="661.279297"/>
      <use xlink:href="#ArialMT-69" x="716.894531"/>
      <use xlink:href="#ArialMT-74" x="739.111328"/>
      <use xlink:href="#ArialMT-79" x="766.894531"/>
      <use xlink:href="#ArialMT-20" x="816.894531"/>
      <use xlink:href="#ArialMT-28" x="844.677734"/>
      <use xlink:href="#ArialMT-6c" x="877.978516"/>
      <use xlink:href="#ArialMT-69" x="900.195312"/>
      <use xlink:href="#ArialMT-6e" x="922.412109"/>
      <use xlink:href="#ArialMT-65" x="978.027344"/>
      <use xlink:href="#ArialMT-29" x="1033.642578"/>
     </g>
    </g>
    <g id="line2d_16">
     <path d="M 90.05625 208.100362 
L 101.05625 208.100362 
L 112.05625 208.100362 
" style="fill: none; stroke: #008000; stroke-opacity: 0.8; stroke-width: 1.5; stroke-linecap: round"/>
    </g>
    <g id="text_19">
     <!-- User account balance -->
     <g style="fill: #262626" transform="translate(120.85625 211.950362) scale(0.11 -0.11)">
      <defs>
       <path id="ArialMT-55" d="M 3500 4581 
L 4106 4581 
L 4106 1934 
Q 4106 1244 3950 837 
Q 3794 431 3386 176 
Q 2978 -78 2316 -78 
Q 1672 -78 1262 144 
Q 853 366 678 786 
Q 503 1206 503 1934 
L 503 4581 
L 1109 4581 
L 1109 1938 
Q 1109 1341 1220 1058 
Q 1331 775 1601 622 
Q 1872 469 2263 469 
Q 2931 469 3215 772 
Q 3500 1075 3500 1938 
L 3500 4581 
z
" transform="scale(0.015625)"/>
       <path id="ArialMT-63" d="M 2588 1216 
L 3141 1144 
Q 3050 572 2676 248 
Q 2303 -75 1759 -75 
Q 1078 -75 664 370 
Q 250 816 250 1647 
Q 250 2184 428 2587 
Q 606 2991 970 3192 
Q 1334 3394 1763 3394 
Q 2303 3394 2647 3120 
Q 2991 2847 3088 2344 
L 2541 2259 
Q 2463 2594 2264 2762 
Q 2066 2931 1784 2931 
Q 1359 2931 1093 2626 
Q 828 2322 828 1663 
Q 828 994 1084 691 
Q 1341 388 1753 388 
Q 2084 388 2306 591 
Q 2528 794 2588 1216 
z
" transform="scale(0.015625)"/>
       <path id="ArialMT-62" d="M 941 0 
L 419 0 
L 419 4581 
L 981 4581 
L 981 2947 
Q 1338 3394 1891 3394 
Q 2197 3394 2470 3270 
Q 2744 3147 2920 2923 
Q 3097 2700 3197 2384 
Q 3297 2069 3297 1709 
Q 3297 856 2875 390 
Q 2453 -75 1863 -75 
Q 1275 -75 941 416 
L 941 0 
z
M 934 1684 
Q 934 1088 1097 822 
Q 1363 388 1816 388 
Q 2184 388 2453 708 
Q 2722 1028 2722 1663 
Q 2722 2313 2464 2622 
Q 2206 2931 1841 2931 
Q 1472 2931 1203 2611 
Q 934 2291 934 1684 
z
" transform="scale(0.015625)"/>
      </defs>
      <use xlink:href="#ArialMT-55"/>
      <use xlink:href="#ArialMT-73" x="72.216797"/>
      <use xlink:href="#ArialMT-65" x="122.216797"/>
      <use xlink:href="#ArialMT-72" x="177.832031"/>
      <use xlink:href="#ArialMT-20" x="211.132812"/>
      <use xlink:href="#ArialMT-61" x="238.916016"/>
      <use xlink:href="#ArialMT-63" x="294.53125"/>
      <use xlink:href="#ArialMT-63" x="344.53125"/>
      <use xlink:href="#ArialMT-6f" x="394.53125"/>
      <use xlink:href="#ArialMT-75" x="450.146484"/>
      <use xlink:href="#ArialMT-6e" x="505.761719"/>
      <use xlink:href="#ArialMT-74" x="561.376953"/>
      <use xlink:href="#ArialMT-20" x="589.160156"/>
      <use xlink:href="#ArialMT-62" x="616.943359"/>
      <use xlink:href="#ArialMT-61" x="672.558594"/>
      <use xlink:href="#ArialMT-6c" x="728.173828"/>
      <use xlink:href="#ArialMT-61" x="750.390625"/>
      <use xlink:href="#ArialMT-6e" x="806.005859"/>
      <use xlink:href="#ArialMT-63" x="861.621094"/>
      <use xlink:href="#ArialMT-65" x="911.621094"/>
     </g>
    </g>
   </g>
  </g>
 </g>
 <defs>
  <clipPath id="p550dedf400">
   <rect x="80.15625" y="27.65625" width="770.88375" height="331.389318"/>
  </clipPath>
 </defs>
</svg>
