<?xml version="1.0" encoding="utf-8" standalone="no"?>
<!DOCTYPE svg PUBLIC "-//W3C//DTD SVG 1.1//EN"
  "http://www.w3.org/Graphics/SVG/1.1/DTD/svg11.dtd">
<svg xmlns:xlink="http://www.w3.org/1999/xlink" width="864pt" height="432pt" viewBox="0 0 864 432" xmlns="http://www.w3.org/2000/svg" version="1.1">
 <metadata>
  <rdf:RDF xmlns:dc="http://purl.org/dc/elements/1.1/" xmlns:cc="http://creativecommons.org/ns#" xmlns:rdf="http://www.w3.org/1999/02/22-rdf-syntax-ns#">
   <cc:Work>
    <dc:type rdf:resource="http://purl.org/dc/dcmitype/StillImage"/>
    <dc:date>2025-04-26T00:47:27.657489</dc:date>
    <dc:format>image/svg+xml</dc:format>
    <dc:creator>
     <cc:Agent>
      <dc:title>Matplotlib v3.9.3, https://matplotlib.org/</dc:title>
     </cc:Agent>
    </dc:creator>
   </cc:Work>
  </rdf:RDF>
 </metadata>
 <defs>
  <style type="text/css">*{stroke-linejoin: round; stroke-linecap: butt}</style>
 </defs>
 <g id="figure_1">
  <g id="patch_1">
   <path d="M 0 432 
L 864 432 
L 864 0 
L 0 0 
z
" style="fill: #ffffff"/>
  </g>
  <g id="axes_1">
   <g id="patch_2">
    <path d="M 80.15625 359.045568 
L 851.04 359.045568 
L 851.04 27.65625 
L 80.15625 27.65625 
z
" style="fill: #ffffff"/>
   </g>
   <g id="matplotlib.axis_1">
    <g id="xtick_1">
     <g id="line2d_1">
      <path d="M 132.500208 359.045568 
L 132.500208 27.65625 
" clip-path="url(#p39f7b57f19)" style="fill: none; stroke: #cccccc; stroke-opacity: 0.5; stroke-linecap: round"/>
     </g>
     <g id="text_1">
      <!-- 2024-01 -->
      <g style="fill: #262626" transform="translate(120.239861 402.655294) rotate(-45) scale(0.11 -0.11)">
       <defs>
        <path id="ArialMT-32" d="M 3222 541 
L 3222 0 
L 194 0 
Q 188 203 259 391 
Q 375 700 629 1000 
Q 884 1300 1366 1694 
Q 2113 2306 2375 2664 
Q 2638 3022 2638 3341 
Q 2638 3675 2398 3904 
Q 2159 4134 1775 4134 
Q 1369 4134 1125 3890 
Q 881 3647 878 3216 
L 300 3275 
Q 359 3922 746 4261 
Q 1134 4600 1788 4600 
Q 2447 4600 2831 4234 
Q 3216 3869 3216 3328 
Q 3216 3053 3103 2787 
Q 2991 2522 2730 2228 
Q 2469 1934 1863 1422 
Q 1356 997 1212 845 
Q 1069 694 975 541 
L 3222 541 
z
" transform="scale(0.015625)"/>
        <path id="ArialMT-30" d="M 266 2259 
Q 266 3072 433 3567 
Q 600 4063 929 4331 
Q 1259 4600 1759 4600 
Q 2128 4600 2406 4451 
Q 2684 4303 2865 4023 
Q 3047 3744 3150 3342 
Q 3253 2941 3253 2259 
Q 3253 1453 3087 958 
Q 2922 463 2592 192 
Q 2263 -78 1759 -78 
Q 1097 -78 719 397 
Q 266 969 266 2259 
z
M 844 2259 
Q 844 1131 1108 757 
Q 1372 384 1759 384 
Q 2147 384 2411 759 
Q 2675 1134 2675 2259 
Q 2675 3391 2411 3762 
Q 2147 4134 1753 4134 
Q 1366 4134 1134 3806 
Q 844 3388 844 2259 
z
" transform="scale(0.015625)"/>
        <path id="ArialMT-34" d="M 2069 0 
L 2069 1097 
L 81 1097 
L 81 1613 
L 2172 4581 
L 2631 4581 
L 2631 1613 
L 3250 1613 
L 3250 1097 
L 2631 1097 
L 2631 0 
L 2069 0 
z
M 2069 1613 
L 2069 3678 
L 634 1613 
L 2069 1613 
z
" transform="scale(0.015625)"/>
        <path id="ArialMT-2d" d="M 203 1375 
L 203 1941 
L 1931 1941 
L 1931 1375 
L 203 1375 
z
" transform="scale(0.015625)"/>
        <path id="ArialMT-31" d="M 2384 0 
L 1822 0 
L 1822 3584 
Q 1619 3391 1289 3197 
Q 959 3003 697 2906 
L 697 3450 
Q 1169 3672 1522 3987 
Q 1875 4303 2022 4600 
L 2384 4600 
L 2384 0 
z
" transform="scale(0.015625)"/>
       </defs>
       <use xlink:href="#ArialMT-32"/>
       <use xlink:href="#ArialMT-30" x="55.615234"/>
       <use xlink:href="#ArialMT-32" x="111.230469"/>
       <use xlink:href="#ArialMT-34" x="166.845703"/>
       <use xlink:href="#ArialMT-2d" x="222.460938"/>
       <use xlink:href="#ArialMT-30" x="255.761719"/>
       <use xlink:href="#ArialMT-31" x="311.376953"/>
      </g>
     </g>
    </g>
    <g id="xtick_2">
     <g id="line2d_2">
      <path d="M 236.322936 359.045568 
L 236.322936 27.65625 
" clip-path="url(#p39f7b57f19)" style="fill: none; stroke: #cccccc; stroke-opacity: 0.5; stroke-linecap: round"/>
     </g>
     <g id="text_2">
      <!-- 2024-03 -->
      <g style="fill: #262626" transform="translate(224.062588 402.655294) rotate(-45) scale(0.11 -0.11)">
       <defs>
        <path id="ArialMT-33" d="M 269 1209 
L 831 1284 
Q 928 806 1161 595 
Q 1394 384 1728 384 
Q 2125 384 2398 659 
Q 2672 934 2672 1341 
Q 2672 1728 2419 1979 
Q 2166 2231 1775 2231 
Q 1616 2231 1378 2169 
L 1441 2663 
Q 1497 2656 1531 2656 
Q 1891 2656 2178 2843 
Q 2466 3031 2466 3422 
Q 2466 3731 2256 3934 
Q 2047 4138 1716 4138 
Q 1388 4138 1169 3931 
Q 950 3725 888 3313 
L 325 3413 
Q 428 3978 793 4289 
Q 1159 4600 1703 4600 
Q 2078 4600 2393 4439 
Q 2709 4278 2876 4000 
Q 3044 3722 3044 3409 
Q 3044 3113 2884 2869 
Q 2725 2625 2413 2481 
Q 2819 2388 3044 2092 
Q 3269 1797 3269 1353 
Q 3269 753 2831 336 
Q 2394 -81 1725 -81 
Q 1122 -81 723 278 
Q 325 638 269 1209 
z
" transform="scale(0.015625)"/>
       </defs>
       <use xlink:href="#ArialMT-32"/>
       <use xlink:href="#ArialMT-30" x="55.615234"/>
       <use xlink:href="#ArialMT-32" x="111.230469"/>
       <use xlink:href="#ArialMT-34" x="166.845703"/>
       <use xlink:href="#ArialMT-2d" x="222.460938"/>
       <use xlink:href="#ArialMT-30" x="255.761719"/>
       <use xlink:href="#ArialMT-33" x="311.376953"/>
      </g>
     </g>
    </g>
    <g id="xtick_3">
     <g id="line2d_3">
      <path d="M 341.876042 359.045568 
L 341.876042 27.65625 
" clip-path="url(#p39f7b57f19)" style="fill: none; stroke: #cccccc; stroke-opacity: 0.5; stroke-linecap: round"/>
     </g>
     <g id="text_3">
      <!-- 2024-05 -->
      <g style="fill: #262626" transform="translate(329.615694 402.655294) rotate(-45) scale(0.11 -0.11)">
       <defs>
        <path id="ArialMT-35" d="M 266 1200 
L 856 1250 
Q 922 819 1161 601 
Q 1400 384 1738 384 
Q 2144 384 2425 690 
Q 2706 997 2706 1503 
Q 2706 1984 2436 2262 
Q 2166 2541 1728 2541 
Q 1456 2541 1237 2417 
Q 1019 2294 894 2097 
L 366 2166 
L 809 4519 
L 3088 4519 
L 3088 3981 
L 1259 3981 
L 1013 2750 
Q 1425 3038 1878 3038 
Q 2478 3038 2890 2622 
Q 3303 2206 3303 1553 
Q 3303 931 2941 478 
Q 2500 -78 1738 -78 
Q 1113 -78 717 272 
Q 322 622 266 1200 
z
" transform="scale(0.015625)"/>
       </defs>
       <use xlink:href="#ArialMT-32"/>
       <use xlink:href="#ArialMT-30" x="55.615234"/>
       <use xlink:href="#ArialMT-32" x="111.230469"/>
       <use xlink:href="#ArialMT-34" x="166.845703"/>
       <use xlink:href="#ArialMT-2d" x="222.460938"/>
       <use xlink:href="#ArialMT-30" x="255.761719"/>
       <use xlink:href="#ArialMT-35" x="311.376953"/>
      </g>
     </g>
    </g>
    <g id="xtick_4">
     <g id="line2d_4">
      <path d="M 447.429148 359.045568 
L 447.429148 27.65625 
" clip-path="url(#p39f7b57f19)" style="fill: none; stroke: #cccccc; stroke-opacity: 0.5; stroke-linecap: round"/>
     </g>
     <g id="text_4">
      <!-- 2024-07 -->
      <g style="fill: #262626" transform="translate(435.1688 402.655294) rotate(-45) scale(0.11 -0.11)">
       <defs>
        <path id="ArialMT-37" d="M 303 3981 
L 303 4522 
L 3269 4522 
L 3269 4084 
Q 2831 3619 2401 2847 
Q 1972 2075 1738 1259 
Q 1569 684 1522 0 
L 944 0 
Q 953 541 1156 1306 
Q 1359 2072 1739 2783 
Q 2119 3494 2547 3981 
L 303 3981 
z
" transform="scale(0.015625)"/>
       </defs>
       <use xlink:href="#ArialMT-32"/>
       <use xlink:href="#ArialMT-30" x="55.615234"/>
       <use xlink:href="#ArialMT-32" x="111.230469"/>
       <use xlink:href="#ArialMT-34" x="166.845703"/>
       <use xlink:href="#ArialMT-2d" x="222.460938"/>
       <use xlink:href="#ArialMT-30" x="255.761719"/>
       <use xlink:href="#ArialMT-37" x="311.376953"/>
      </g>
     </g>
    </g>
    <g id="xtick_5">
     <g id="line2d_5">
      <path d="M 554.712633 359.045568 
L 554.712633 27.65625 
" clip-path="url(#p39f7b57f19)" style="fill: none; stroke: #cccccc; stroke-opacity: 0.5; stroke-linecap: round"/>
     </g>
     <g id="text_5">
      <!-- 2024-09 -->
      <g style="fill: #262626" transform="translate(542.452285 402.655294) rotate(-45) scale(0.11 -0.11)">
       <defs>
        <path id="ArialMT-39" d="M 350 1059 
L 891 1109 
Q 959 728 1153 556 
Q 1347 384 1650 384 
Q 1909 384 2104 503 
Q 2300 622 2425 820 
Q 2550 1019 2634 1356 
Q 2719 1694 2719 2044 
Q 2719 2081 2716 2156 
Q 2547 1888 2255 1720 
Q 1963 1553 1622 1553 
Q 1053 1553 659 1965 
Q 266 2378 266 3053 
Q 266 3750 677 4175 
Q 1088 4600 1706 4600 
Q 2153 4600 2523 4359 
Q 2894 4119 3086 3673 
Q 3278 3228 3278 2384 
Q 3278 1506 3087 986 
Q 2897 466 2520 194 
Q 2144 -78 1638 -78 
Q 1100 -78 759 220 
Q 419 519 350 1059 
z
M 2653 3081 
Q 2653 3566 2395 3850 
Q 2138 4134 1775 4134 
Q 1400 4134 1122 3828 
Q 844 3522 844 3034 
Q 844 2597 1108 2323 
Q 1372 2050 1759 2050 
Q 2150 2050 2401 2323 
Q 2653 2597 2653 3081 
z
" transform="scale(0.015625)"/>
       </defs>
       <use xlink:href="#ArialMT-32"/>
       <use xlink:href="#ArialMT-30" x="55.615234"/>
       <use xlink:href="#ArialMT-32" x="111.230469"/>
       <use xlink:href="#ArialMT-34" x="166.845703"/>
       <use xlink:href="#ArialMT-2d" x="222.460938"/>
       <use xlink:href="#ArialMT-30" x="255.761719"/>
       <use xlink:href="#ArialMT-39" x="311.376953"/>
      </g>
     </g>
    </g>
    <g id="xtick_6">
     <g id="line2d_6">
      <path d="M 660.265739 359.045568 
L 660.265739 27.65625 
" clip-path="url(#p39f7b57f19)" style="fill: none; stroke: #cccccc; stroke-opacity: 0.5; stroke-linecap: round"/>
     </g>
     <g id="text_6">
      <!-- 2024-11 -->
      <g style="fill: #262626" transform="translate(648.292211 402.081654) rotate(-45) scale(0.11 -0.11)">
       <use xlink:href="#ArialMT-32"/>
       <use xlink:href="#ArialMT-30" x="55.615234"/>
       <use xlink:href="#ArialMT-32" x="111.230469"/>
       <use xlink:href="#ArialMT-34" x="166.845703"/>
       <use xlink:href="#ArialMT-2d" x="222.460938"/>
       <use xlink:href="#ArialMT-31" x="255.761719"/>
       <use xlink:href="#ArialMT-31" x="304.001953"/>
      </g>
     </g>
    </g>
    <g id="xtick_7">
     <g id="line2d_7">
      <path d="M 765.818845 359.045568 
L 765.818845 27.65625 
" clip-path="url(#p39f7b57f19)" style="fill: none; stroke: #cccccc; stroke-opacity: 0.5; stroke-linecap: round"/>
     </g>
     <g id="text_7">
      <!-- 2025-01 -->
      <g style="fill: #262626" transform="translate(753.558497 402.655294) rotate(-45) scale(0.11 -0.11)">
       <use xlink:href="#ArialMT-32"/>
       <use xlink:href="#ArialMT-30" x="55.615234"/>
       <use xlink:href="#ArialMT-32" x="111.230469"/>
       <use xlink:href="#ArialMT-35" x="166.845703"/>
       <use xlink:href="#ArialMT-2d" x="222.460938"/>
       <use xlink:href="#ArialMT-30" x="255.761719"/>
       <use xlink:href="#ArialMT-31" x="311.376953"/>
      </g>
     </g>
    </g>
    <g id="text_8">
     <!-- Timestamp -->
     <g style="fill: #262626" transform="translate(436.153125 416.790582) scale(0.12 -0.12)">
      <defs>
       <path id="ArialMT-54" d="M 1659 0 
L 1659 4041 
L 150 4041 
L 150 4581 
L 3781 4581 
L 3781 4041 
L 2266 4041 
L 2266 0 
L 1659 0 
z
" transform="scale(0.015625)"/>
       <path id="ArialMT-69" d="M 425 3934 
L 425 4581 
L 988 4581 
L 988 3934 
L 425 3934 
z
M 425 0 
L 425 3319 
L 988 3319 
L 988 0 
L 425 0 
z
" transform="scale(0.015625)"/>
       <path id="ArialMT-6d" d="M 422 0 
L 422 3319 
L 925 3319 
L 925 2853 
Q 1081 3097 1340 3245 
Q 1600 3394 1931 3394 
Q 2300 3394 2536 3241 
Q 2772 3088 2869 2813 
Q 3263 3394 3894 3394 
Q 4388 3394 4653 3120 
Q 4919 2847 4919 2278 
L 4919 0 
L 4359 0 
L 4359 2091 
Q 4359 2428 4304 2576 
Q 4250 2725 4106 2815 
Q 3963 2906 3769 2906 
Q 3419 2906 3187 2673 
Q 2956 2441 2956 1928 
L 2956 0 
L 2394 0 
L 2394 2156 
Q 2394 2531 2256 2718 
Q 2119 2906 1806 2906 
Q 1569 2906 1367 2781 
Q 1166 2656 1075 2415 
Q 984 2175 984 1722 
L 984 0 
L 422 0 
z
" transform="scale(0.015625)"/>
       <path id="ArialMT-65" d="M 2694 1069 
L 3275 997 
Q 3138 488 2766 206 
Q 2394 -75 1816 -75 
Q 1088 -75 661 373 
Q 234 822 234 1631 
Q 234 2469 665 2931 
Q 1097 3394 1784 3394 
Q 2450 3394 2872 2941 
Q 3294 2488 3294 1666 
Q 3294 1616 3291 1516 
L 816 1516 
Q 847 969 1125 678 
Q 1403 388 1819 388 
Q 2128 388 2347 550 
Q 2566 713 2694 1069 
z
M 847 1978 
L 2700 1978 
Q 2663 2397 2488 2606 
Q 2219 2931 1791 2931 
Q 1403 2931 1139 2672 
Q 875 2413 847 1978 
z
" transform="scale(0.015625)"/>
       <path id="ArialMT-73" d="M 197 991 
L 753 1078 
Q 800 744 1014 566 
Q 1228 388 1613 388 
Q 2000 388 2187 545 
Q 2375 703 2375 916 
Q 2375 1106 2209 1216 
Q 2094 1291 1634 1406 
Q 1016 1563 777 1677 
Q 538 1791 414 1992 
Q 291 2194 291 2438 
Q 291 2659 392 2848 
Q 494 3038 669 3163 
Q 800 3259 1026 3326 
Q 1253 3394 1513 3394 
Q 1903 3394 2198 3281 
Q 2494 3169 2634 2976 
Q 2775 2784 2828 2463 
L 2278 2388 
Q 2241 2644 2061 2787 
Q 1881 2931 1553 2931 
Q 1166 2931 1000 2803 
Q 834 2675 834 2503 
Q 834 2394 903 2306 
Q 972 2216 1119 2156 
Q 1203 2125 1616 2013 
Q 2213 1853 2448 1751 
Q 2684 1650 2818 1456 
Q 2953 1263 2953 975 
Q 2953 694 2789 445 
Q 2625 197 2315 61 
Q 2006 -75 1616 -75 
Q 969 -75 630 194 
Q 291 463 197 991 
z
" transform="scale(0.015625)"/>
       <path id="ArialMT-74" d="M 1650 503 
L 1731 6 
Q 1494 -44 1306 -44 
Q 1000 -44 831 53 
Q 663 150 594 308 
Q 525 466 525 972 
L 525 2881 
L 113 2881 
L 113 3319 
L 525 3319 
L 525 4141 
L 1084 4478 
L 1084 3319 
L 1650 3319 
L 1650 2881 
L 1084 2881 
L 1084 941 
Q 1084 700 1114 631 
Q 1144 563 1211 522 
Q 1278 481 1403 481 
Q 1497 481 1650 503 
z
" transform="scale(0.015625)"/>
       <path id="ArialMT-61" d="M 2588 409 
Q 2275 144 1986 34 
Q 1697 -75 1366 -75 
Q 819 -75 525 192 
Q 231 459 231 875 
Q 231 1119 342 1320 
Q 453 1522 633 1644 
Q 813 1766 1038 1828 
Q 1203 1872 1538 1913 
Q 2219 1994 2541 2106 
Q 2544 2222 2544 2253 
Q 2544 2597 2384 2738 
Q 2169 2928 1744 2928 
Q 1347 2928 1158 2789 
Q 969 2650 878 2297 
L 328 2372 
Q 403 2725 575 2942 
Q 747 3159 1072 3276 
Q 1397 3394 1825 3394 
Q 2250 3394 2515 3294 
Q 2781 3194 2906 3042 
Q 3031 2891 3081 2659 
Q 3109 2516 3109 2141 
L 3109 1391 
Q 3109 606 3145 398 
Q 3181 191 3288 0 
L 2700 0 
Q 2613 175 2588 409 
z
M 2541 1666 
Q 2234 1541 1622 1453 
Q 1275 1403 1131 1340 
Q 988 1278 909 1158 
Q 831 1038 831 891 
Q 831 666 1001 516 
Q 1172 366 1500 366 
Q 1825 366 2078 508 
Q 2331 650 2450 897 
Q 2541 1088 2541 1459 
L 2541 1666 
z
" transform="scale(0.015625)"/>
       <path id="ArialMT-70" d="M 422 -1272 
L 422 3319 
L 934 3319 
L 934 2888 
Q 1116 3141 1344 3267 
Q 1572 3394 1897 3394 
Q 2322 3394 2647 3175 
Q 2972 2956 3137 2557 
Q 3303 2159 3303 1684 
Q 3303 1175 3120 767 
Q 2938 359 2589 142 
Q 2241 -75 1856 -75 
Q 1575 -75 1351 44 
Q 1128 163 984 344 
L 984 -1272 
L 422 -1272 
z
M 931 1641 
Q 931 1000 1190 694 
Q 1450 388 1819 388 
Q 2194 388 2461 705 
Q 2728 1022 2728 1688 
Q 2728 2322 2467 2637 
Q 2206 2953 1844 2953 
Q 1484 2953 1207 2617 
Q 931 2281 931 1641 
z
" transform="scale(0.015625)"/>
      </defs>
      <use xlink:href="#ArialMT-54"/>
      <use xlink:href="#ArialMT-69" x="57.333984"/>
      <use xlink:href="#ArialMT-6d" x="79.550781"/>
      <use xlink:href="#ArialMT-65" x="162.851562"/>
      <use xlink:href="#ArialMT-73" x="218.466797"/>
      <use xlink:href="#ArialMT-74" x="268.466797"/>
      <use xlink:href="#ArialMT-61" x="296.25"/>
      <use xlink:href="#ArialMT-6d" x="351.865234"/>
      <use xlink:href="#ArialMT-70" x="435.166016"/>
     </g>
    </g>
   </g>
   <g id="matplotlib.axis_2">
    <g id="ytick_1">
     <g id="line2d_8">
      <path d="M 80.15625 343.982417 
L 851.04 343.982417 
" clip-path="url(#p39f7b57f19)" style="fill: none; stroke: #cccccc; stroke-opacity: 0.5; stroke-linecap: round"/>
     </g>
     <g id="text_9">
      <!-- 0 -->
      <g style="fill: #262626" transform="translate(64.539219 347.919214) scale(0.11 -0.11)">
       <use xlink:href="#ArialMT-30"/>
      </g>
     </g>
    </g>
    <g id="ytick_2">
     <g id="line2d_9">
      <path d="M 80.15625 271.204786 
L 851.04 271.204786 
" clip-path="url(#p39f7b57f19)" style="fill: none; stroke: #cccccc; stroke-opacity: 0.5; stroke-linecap: round"/>
     </g>
     <g id="text_10">
      <!-- 1000000 -->
      <g style="fill: #262626" transform="translate(27.837031 275.141583) scale(0.11 -0.11)">
       <use xlink:href="#ArialMT-31"/>
       <use xlink:href="#ArialMT-30" x="55.615234"/>
       <use xlink:href="#ArialMT-30" x="111.230469"/>
       <use xlink:href="#ArialMT-30" x="166.845703"/>
       <use xlink:href="#ArialMT-30" x="222.460938"/>
       <use xlink:href="#ArialMT-30" x="278.076172"/>
       <use xlink:href="#ArialMT-30" x="333.691406"/>
      </g>
     </g>
    </g>
    <g id="ytick_3">
     <g id="line2d_10">
      <path d="M 80.15625 198.427155 
L 851.04 198.427155 
" clip-path="url(#p39f7b57f19)" style="fill: none; stroke: #cccccc; stroke-opacity: 0.5; stroke-linecap: round"/>
     </g>
     <g id="text_11">
      <!-- 2000000 -->
      <g style="fill: #262626" transform="translate(27.837031 202.363952) scale(0.11 -0.11)">
       <use xlink:href="#ArialMT-32"/>
       <use xlink:href="#ArialMT-30" x="55.615234"/>
       <use xlink:href="#ArialMT-30" x="111.230469"/>
       <use xlink:href="#ArialMT-30" x="166.845703"/>
       <use xlink:href="#ArialMT-30" x="222.460938"/>
       <use xlink:href="#ArialMT-30" x="278.076172"/>
       <use xlink:href="#ArialMT-30" x="333.691406"/>
      </g>
     </g>
    </g>
    <g id="ytick_4">
     <g id="line2d_11">
      <path d="M 80.15625 125.649524 
L 851.04 125.649524 
" clip-path="url(#p39f7b57f19)" style="fill: none; stroke: #cccccc; stroke-opacity: 0.5; stroke-linecap: round"/>
     </g>
     <g id="text_12">
      <!-- 3000000 -->
      <g style="fill: #262626" transform="translate(27.837031 129.586321) scale(0.11 -0.11)">
       <use xlink:href="#ArialMT-33"/>
       <use xlink:href="#ArialMT-30" x="55.615234"/>
       <use xlink:href="#ArialMT-30" x="111.230469"/>
       <use xlink:href="#ArialMT-30" x="166.845703"/>
       <use xlink:href="#ArialMT-30" x="222.460938"/>
       <use xlink:href="#ArialMT-30" x="278.076172"/>
       <use xlink:href="#ArialMT-30" x="333.691406"/>
      </g>
     </g>
    </g>
    <g id="ytick_5">
     <g id="line2d_12">
      <path d="M 80.15625 52.871893 
L 851.04 52.871893 
" clip-path="url(#p39f7b57f19)" style="fill: none; stroke: #cccccc; stroke-opacity: 0.5; stroke-linecap: round"/>
     </g>
     <g id="text_13">
      <!-- 4000000 -->
      <g style="fill: #262626" transform="translate(27.837031 56.80869) scale(0.11 -0.11)">
       <use xlink:href="#ArialMT-34"/>
       <use xlink:href="#ArialMT-30" x="55.615234"/>
       <use xlink:href="#ArialMT-30" x="111.230469"/>
       <use xlink:href="#ArialMT-30" x="166.845703"/>
       <use xlink:href="#ArialMT-30" x="222.460938"/>
       <use xlink:href="#ArialMT-30" x="278.076172"/>
       <use xlink:href="#ArialMT-30" x="333.691406"/>
      </g>
     </g>
    </g>
    <g id="text_14">
     <!-- Total Liquidity (sats) -->
     <g style="fill: #262626" transform="translate(21.311406 246.366534) rotate(-90) scale(0.12 -0.12)">
      <defs>
       <path id="ArialMT-6f" d="M 213 1659 
Q 213 2581 725 3025 
Q 1153 3394 1769 3394 
Q 2453 3394 2887 2945 
Q 3322 2497 3322 1706 
Q 3322 1066 3130 698 
Q 2938 331 2570 128 
Q 2203 -75 1769 -75 
Q 1072 -75 642 372 
Q 213 819 213 1659 
z
M 791 1659 
Q 791 1022 1069 705 
Q 1347 388 1769 388 
Q 2188 388 2466 706 
Q 2744 1025 2744 1678 
Q 2744 2294 2464 2611 
Q 2184 2928 1769 2928 
Q 1347 2928 1069 2612 
Q 791 2297 791 1659 
z
" transform="scale(0.015625)"/>
       <path id="ArialMT-6c" d="M 409 0 
L 409 4581 
L 972 4581 
L 972 0 
L 409 0 
z
" transform="scale(0.015625)"/>
       <path id="ArialMT-20" transform="scale(0.015625)"/>
       <path id="ArialMT-4c" d="M 469 0 
L 469 4581 
L 1075 4581 
L 1075 541 
L 3331 541 
L 3331 0 
L 469 0 
z
" transform="scale(0.015625)"/>
       <path id="ArialMT-71" d="M 2538 -1272 
L 2538 353 
Q 2406 169 2170 47 
Q 1934 -75 1669 -75 
Q 1078 -75 651 397 
Q 225 869 225 1691 
Q 225 2191 398 2587 
Q 572 2984 901 3189 
Q 1231 3394 1625 3394 
Q 2241 3394 2594 2875 
L 2594 3319 
L 3100 3319 
L 3100 -1272 
L 2538 -1272 
z
M 803 1669 
Q 803 1028 1072 708 
Q 1341 388 1716 388 
Q 2075 388 2334 692 
Q 2594 997 2594 1619 
Q 2594 2281 2320 2615 
Q 2047 2950 1678 2950 
Q 1313 2950 1058 2639 
Q 803 2328 803 1669 
z
" transform="scale(0.015625)"/>
       <path id="ArialMT-75" d="M 2597 0 
L 2597 488 
Q 2209 -75 1544 -75 
Q 1250 -75 995 37 
Q 741 150 617 320 
Q 494 491 444 738 
Q 409 903 409 1263 
L 409 3319 
L 972 3319 
L 972 1478 
Q 972 1038 1006 884 
Q 1059 663 1231 536 
Q 1403 409 1656 409 
Q 1909 409 2131 539 
Q 2353 669 2445 892 
Q 2538 1116 2538 1541 
L 2538 3319 
L 3100 3319 
L 3100 0 
L 2597 0 
z
" transform="scale(0.015625)"/>
       <path id="ArialMT-64" d="M 2575 0 
L 2575 419 
Q 2259 -75 1647 -75 
Q 1250 -75 917 144 
Q 584 363 401 755 
Q 219 1147 219 1656 
Q 219 2153 384 2558 
Q 550 2963 881 3178 
Q 1213 3394 1622 3394 
Q 1922 3394 2156 3267 
Q 2391 3141 2538 2938 
L 2538 4581 
L 3097 4581 
L 3097 0 
L 2575 0 
z
M 797 1656 
Q 797 1019 1065 703 
Q 1334 388 1700 388 
Q 2069 388 2326 689 
Q 2584 991 2584 1609 
Q 2584 2291 2321 2609 
Q 2059 2928 1675 2928 
Q 1300 2928 1048 2622 
Q 797 2316 797 1656 
z
" transform="scale(0.015625)"/>
       <path id="ArialMT-79" d="M 397 -1278 
L 334 -750 
Q 519 -800 656 -800 
Q 844 -800 956 -737 
Q 1069 -675 1141 -563 
Q 1194 -478 1313 -144 
Q 1328 -97 1363 -6 
L 103 3319 
L 709 3319 
L 1400 1397 
Q 1534 1031 1641 628 
Q 1738 1016 1872 1384 
L 2581 3319 
L 3144 3319 
L 1881 -56 
Q 1678 -603 1566 -809 
Q 1416 -1088 1222 -1217 
Q 1028 -1347 759 -1347 
Q 597 -1347 397 -1278 
z
" transform="scale(0.015625)"/>
       <path id="ArialMT-28" d="M 1497 -1347 
Q 1031 -759 709 28 
Q 388 816 388 1659 
Q 388 2403 628 3084 
Q 909 3875 1497 4659 
L 1900 4659 
Q 1522 4009 1400 3731 
Q 1209 3300 1100 2831 
Q 966 2247 966 1656 
Q 966 153 1900 -1347 
L 1497 -1347 
z
" transform="scale(0.015625)"/>
       <path id="ArialMT-29" d="M 791 -1347 
L 388 -1347 
Q 1322 153 1322 1656 
Q 1322 2244 1188 2822 
Q 1081 3291 891 3722 
Q 769 4003 388 4659 
L 791 4659 
Q 1378 3875 1659 3084 
Q 1900 2403 1900 1659 
Q 1900 816 1576 28 
Q 1253 -759 791 -1347 
z
" transform="scale(0.015625)"/>
      </defs>
      <use xlink:href="#ArialMT-54"/>
      <use xlink:href="#ArialMT-6f" x="49.958984"/>
      <use xlink:href="#ArialMT-74" x="105.574219"/>
      <use xlink:href="#ArialMT-61" x="133.357422"/>
      <use xlink:href="#ArialMT-6c" x="188.972656"/>
      <use xlink:href="#ArialMT-20" x="211.189453"/>
      <use xlink:href="#ArialMT-4c" x="238.972656"/>
      <use xlink:href="#ArialMT-69" x="294.587891"/>
      <use xlink:href="#ArialMT-71" x="316.804688"/>
      <use xlink:href="#ArialMT-75" x="372.419922"/>
      <use xlink:href="#ArialMT-69" x="428.035156"/>
      <use xlink:href="#ArialMT-64" x="450.251953"/>
      <use xlink:href="#ArialMT-69" x="505.867188"/>
      <use xlink:href="#ArialMT-74" x="528.083984"/>
      <use xlink:href="#ArialMT-79" x="555.867188"/>
      <use xlink:href="#ArialMT-20" x="605.867188"/>
      <use xlink:href="#ArialMT-28" x="633.650391"/>
      <use xlink:href="#ArialMT-73" x="666.951172"/>
      <use xlink:href="#ArialMT-61" x="716.951172"/>
      <use xlink:href="#ArialMT-74" x="772.566406"/>
      <use xlink:href="#ArialMT-73" x="800.349609"/>
      <use xlink:href="#ArialMT-29" x="850.349609"/>
     </g>
    </g>
   </g>
   <g id="PolyCollection_1">
    <path d="M 115.19642 343.982417 
L 115.19642 343.982417 
L 116.926799 343.982417 
L 118.657178 343.982417 
L 120.387557 343.982417 
L 122.117936 343.982417 
L 123.848314 343.982417 
L 125.578693 343.982417 
L 127.309072 343.982417 
L 129.039451 343.982417 
L 130.76983 343.982417 
L 132.500208 343.982417 
L 134.230587 343.982417 
L 135.960966 343.982417 
L 137.691345 343.982417 
L 139.421723 327.515243 
L 141.152102 327.515243 
L 142.882481 327.515243 
L 144.61286 327.515243 
L 146.343239 327.515243 
L 148.073617 327.515243 
L 149.803996 327.515243 
L 151.534375 327.515243 
L 153.264754 327.515243 
L 154.995133 327.515243 
L 156.725511 327.515243 
L 158.45589 327.515243 
L 160.186269 327.515243 
L 161.916648 327.515243 
L 163.647027 309.877053 
L 165.377405 309.877053 
L 167.107784 309.877053 
L 168.838163 309.877053 
L 170.568542 309.877053 
L 172.29892 309.877053 
L 174.029299 309.877053 
L 175.759678 309.877053 
L 177.490057 309.877053 
L 179.220436 309.877053 
L 180.950814 309.877053 
L 182.681193 309.877053 
L 184.411572 309.877053 
L 186.141951 309.877053 
L 187.87233 292.979155 
L 189.602708 292.979155 
L 191.333087 292.979155 
L 193.063466 292.979155 
L 194.793845 292.979155 
L 196.524223 292.979155 
L 198.254602 292.979155 
L 199.984981 292.979155 
L 201.71536 292.979155 
L 203.445739 292.979155 
L 205.176117 292.979155 
L 206.906496 292.979155 
L 208.636875 292.979155 
L 210.367254 292.979155 
L 212.097633 278.972205 
L 213.828011 278.972205 
L 215.55839 278.972205 
L 217.288769 278.972205 
L 219.019148 278.972205 
L 220.749527 278.972205 
L 222.479905 278.972205 
L 224.210284 278.972205 
L 225.940663 278.972205 
L 227.671042 278.972205 
L 229.40142 278.972205 
L 231.131799 278.972205 
L 232.862178 278.972205 
L 234.592557 278.972205 
L 236.322936 267.099489 
L 238.053314 267.099489 
L 239.783693 267.099489 
L 241.514072 267.099489 
L 243.244451 267.099489 
L 244.97483 267.099489 
L 246.705208 267.099489 
L 248.435587 267.099489 
L 250.165966 267.099489 
L 251.896345 267.099489 
L 253.626723 267.099489 
L 255.357102 267.099489 
L 257.087481 267.099489 
L 258.81786 267.099489 
L 260.548239 256.909403 
L 262.278617 256.909403 
L 264.008996 256.909403 
L 265.739375 256.909403 
L 267.469754 256.909403 
L 269.200133 256.909403 
L 270.930511 256.909403 
L 272.66089 256.909403 
L 274.391269 256.909403 
L 276.121648 256.909403 
L 277.852027 256.909403 
L 279.582405 256.909403 
L 281.312784 256.909403 
L 283.043163 256.909403 
L 284.773542 246.617021 
L 286.50392 246.617021 
L 288.234299 246.617021 
L 289.964678 246.617021 
L 291.695057 246.617021 
L 293.425436 246.617021 
L 295.155814 246.617021 
L 296.886193 246.617021 
L 298.616572 246.617021 
L 300.346951 246.617021 
L 302.07733 246.617021 
L 303.807708 246.617021 
L 305.538087 246.617021 
L 307.268466 246.617021 
L 308.998845 236.236035 
L 310.729223 236.236035 
L 312.459602 236.236035 
L 314.189981 236.236035 
L 315.92036 236.236035 
L 317.650739 236.236035 
L 319.381117 236.236035 
L 321.111496 236.236035 
L 322.841875 236.236035 
L 324.572254 236.236035 
L 326.302633 236.236035 
L 328.033011 236.236035 
L 329.76339 236.236035 
L 331.493769 236.236035 
L 333.224148 224.950264 
L 334.954527 224.950264 
L 336.684905 224.950264 
L 338.415284 224.950264 
L 340.145663 224.950264 
L 341.876042 224.950264 
L 343.60642 224.950264 
L 345.336799 224.950264 
L 347.067178 224.950264 
L 348.797557 224.950264 
L 350.527936 224.950264 
L 352.258314 224.950264 
L 353.988693 224.950264 
L 355.719072 224.950264 
L 357.449451 213.425443 
L 359.17983 213.425443 
L 360.910208 213.425443 
L 362.640587 213.425443 
L 364.370966 213.425443 
L 366.101345 213.425443 
L 367.831723 213.425443 
L 369.562102 213.425443 
L 371.292481 213.425443 
L 373.02286 213.425443 
L 374.753239 213.425443 
L 376.483617 213.425443 
L 378.213996 213.425443 
L 379.944375 213.425443 
L 381.674754 202.708108 
L 383.405133 202.708108 
L 385.135511 202.708108 
L 386.86589 202.708108 
L 388.596269 202.708108 
L 390.326648 202.708108 
L 392.057027 202.708108 
L 393.787405 202.708108 
L 395.517784 202.708108 
L 397.248163 202.708108 
L 398.978542 202.708108 
L 400.70892 202.708108 
L 402.439299 202.708108 
L 404.169678 202.708108 
L 405.900057 192.422911 
L 407.630436 192.422911 
L 409.360814 192.422911 
L 411.091193 192.422911 
L 412.821572 192.422911 
L 414.551951 192.422911 
L 416.28233 192.422911 
L 418.012708 192.422911 
L 419.743087 192.422911 
L 421.473466 192.422911 
L 423.203845 192.422911 
L 424.934223 192.422911 
L 426.664602 192.422911 
L 428.394981 192.422911 
L 430.12536 181.199533 
L 431.855739 181.199533 
L 433.586117 181.199533 
L 435.316496 181.199533 
L 437.046875 181.199533 
L 438.777254 181.199533 
L 440.507633 181.199533 
L 442.238011 181.199533 
L 443.96839 181.199533 
L 445.698769 181.199533 
L 447.429148 181.199533 
L 449.159527 181.199533 
L 450.889905 181.199533 
L 452.620284 181.199533 
L 454.350663 168.473762 
L 456.081042 168.473762 
L 457.81142 168.473762 
L 459.541799 168.473762 
L 461.272178 168.473762 
L 463.002557 168.473762 
L 464.732936 168.473762 
L 466.463314 168.473762 
L 468.193693 168.473762 
L 469.924072 168.473762 
L 471.654451 168.473762 
L 473.38483 168.473762 
L 475.115208 168.473762 
L 476.845587 168.473762 
L 478.575966 157.095069 
L 480.306345 157.095069 
L 482.036723 157.095069 
L 483.767102 157.095069 
L 485.497481 157.095069 
L 487.22786 157.095069 
L 488.958239 157.095069 
L 490.688617 157.095069 
L 492.418996 157.095069 
L 494.149375 157.095069 
L 495.879754 157.095069 
L 497.610133 157.095069 
L 499.340511 157.095069 
L 501.07089 157.095069 
L 502.801269 145.95976 
L 504.531648 145.95976 
L 506.262027 145.95976 
L 507.992405 145.95976 
L 509.722784 145.95976 
L 511.453163 145.95976 
L 513.183542 145.95976 
L 514.91392 145.95976 
L 516.644299 145.95976 
L 518.374678 145.95976 
L 520.105057 145.95976 
L 521.835436 145.95976 
L 523.565814 145.95976 
L 525.296193 145.95976 
L 527.026572 133.330042 
L 528.756951 133.330042 
L 530.48733 133.330042 
L 532.217708 133.330042 
L 533.948087 133.330042 
L 535.678466 133.330042 
L 537.408845 133.330042 
L 539.139223 133.330042 
L 540.869602 133.330042 
L 542.599981 133.330042 
L 544.33036 133.330042 
L 546.060739 133.330042 
L 547.791117 133.330042 
L 549.521496 133.330042 
L 551.251875 121.06792 
L 552.982254 121.06792 
L 554.712633 121.06792 
L 556.443011 121.06792 
L 558.17339 121.06792 
L 559.903769 121.06792 
L 561.634148 121.06792 
L 563.364527 121.06792 
L 565.094905 121.06792 
L 566.825284 121.06792 
L 568.555663 121.06792 
L 570.286042 121.06792 
L 572.01642 121.06792 
L 573.746799 121.06792 
L 575.477178 108.543148 
L 577.207557 108.543148 
L 578.937936 108.543148 
L 580.668314 108.543148 
L 582.398693 108.543148 
L 584.129072 108.543148 
L 585.859451 108.543148 
L 587.58983 108.543148 
L 589.320208 108.543148 
L 591.050587 108.543148 
L 592.780966 108.543148 
L 594.511345 108.543148 
L 596.241723 108.543148 
L 597.972102 108.543148 
L 599.702481 97.36907 
L 601.43286 97.36907 
L 603.163239 97.36907 
L 604.893617 97.36907 
L 606.623996 97.36907 
L 608.354375 97.36907 
L 610.084754 97.36907 
L 611.815133 97.36907 
L 613.545511 97.36907 
L 615.27589 97.36907 
L 617.006269 97.36907 
L 618.736648 97.36907 
L 620.467027 97.36907 
L 622.197405 97.36907 
L 623.927784 85.278795 
L 625.658163 85.278795 
L 627.388542 85.278795 
L 629.11892 85.278795 
L 630.849299 85.278795 
L 632.579678 85.278795 
L 634.310057 85.278795 
L 636.040436 85.278795 
L 637.770814 85.278795 
L 639.501193 85.278795 
L 641.231572 85.278795 
L 642.961951 85.278795 
L 644.69233 85.278795 
L 646.422708 85.278795 
L 648.153087 74.609786 
L 649.883466 74.609786 
L 651.613845 74.609786 
L 653.344223 74.609786 
L 655.074602 74.609786 
L 656.804981 74.609786 
L 658.53536 74.609786 
L 660.265739 74.609786 
L 661.996117 74.609786 
L 663.726496 74.609786 
L 665.456875 74.609786 
L 667.187254 74.609786 
L 668.917633 74.609786 
L 670.648011 74.609786 
L 672.37839 65.032174 
L 674.108769 65.032174 
L 675.839148 65.032174 
L 677.569527 65.032174 
L 679.299905 65.032174 
L 681.030284 65.032174 
L 682.760663 65.032174 
L 684.491042 65.032174 
L 686.22142 65.032174 
L 687.951799 65.032174 
L 689.682178 65.032174 
L 691.412557 65.032174 
L 693.142936 65.032174 
L 694.873314 65.032174 
L 696.603693 57.644266 
L 698.334072 57.644266 
L 700.064451 57.644266 
L 701.79483 57.644266 
L 703.525208 57.644266 
L 705.255587 57.644266 
L 706.985966 57.644266 
L 708.716345 57.644266 
L 710.446723 57.644266 
L 712.177102 57.644266 
L 713.907481 57.644266 
L 715.63786 57.644266 
L 717.368239 57.644266 
L 719.098617 57.644266 
L 720.828996 50.156971 
L 722.559375 50.156971 
L 724.289754 50.156971 
L 726.020133 50.156971 
L 727.750511 50.156971 
L 729.48089 50.156971 
L 731.211269 50.156971 
L 732.941648 50.156971 
L 734.672027 50.156971 
L 736.402405 50.156971 
L 738.132784 50.156971 
L 739.863163 50.156971 
L 741.593542 50.156971 
L 743.32392 50.156971 
L 745.054299 42.719401 
L 743.32392 42.719401 
L 741.593542 42.719401 
L 739.863163 42.719401 
L 738.132784 42.719401 
L 736.402405 42.719401 
L 734.672027 42.719401 
L 732.941648 42.719401 
L 731.211269 42.719401 
L 729.48089 42.719401 
L 727.750511 42.719401 
L 726.020133 42.719401 
L 724.289754 42.719401 
L 722.559375 42.719401 
L 720.828996 42.719401 
L 719.098617 42.719401 
L 717.368239 42.719401 
L 715.63786 42.719401 
L 713.907481 42.719401 
L 712.177102 42.719401 
L 710.446723 42.719401 
L 708.716345 42.719401 
L 706.985966 42.719401 
L 705.255587 42.719401 
L 703.525208 42.719401 
L 701.79483 42.719401 
L 700.064451 42.719401 
L 698.334072 42.719401 
L 696.603693 42.719401 
L 694.873314 42.719401 
L 693.142936 42.719401 
L 691.412557 42.719401 
L 689.682178 42.719401 
L 687.951799 42.719401 
L 686.22142 42.719401 
L 684.491042 42.719401 
L 682.760663 42.719401 
L 681.030284 42.719401 
L 679.299905 42.719401 
L 677.569527 42.719401 
L 675.839148 42.719401 
L 674.108769 42.719401 
L 672.37839 42.719401 
L 670.648011 42.719401 
L 668.917633 42.719401 
L 667.187254 42.719401 
L 665.456875 42.719401 
L 663.726496 42.719401 
L 661.996117 42.719401 
L 660.265739 42.719401 
L 658.53536 42.719401 
L 656.804981 42.719401 
L 655.074602 42.719401 
L 653.344223 42.719401 
L 651.613845 42.719401 
L 649.883466 42.719401 
L 648.153087 42.719401 
L 646.422708 42.719401 
L 644.69233 42.719401 
L 642.961951 42.719401 
L 641.231572 42.719401 
L 639.501193 42.719401 
L 637.770814 42.719401 
L 636.040436 42.719401 
L 634.310057 42.719401 
L 632.579678 42.719401 
L 630.849299 42.719401 
L 629.11892 42.719401 
L 627.388542 42.719401 
L 625.658163 42.719401 
L 623.927784 42.719401 
L 622.197405 42.719401 
L 620.467027 42.719401 
L 618.736648 42.719401 
L 617.006269 42.719401 
L 615.27589 42.719401 
L 613.545511 42.719401 
L 611.815133 42.719401 
L 610.084754 42.719401 
L 608.354375 42.719401 
L 606.623996 42.719401 
L 604.893617 42.719401 
L 603.163239 42.719401 
L 601.43286 42.719401 
L 599.702481 42.719401 
L 597.972102 42.719401 
L 596.241723 42.719401 
L 594.511345 42.719401 
L 592.780966 42.719401 
L 591.050587 42.719401 
L 589.320208 42.719401 
L 587.58983 42.719401 
L 585.859451 42.719401 
L 584.129072 42.719401 
L 582.398693 42.719401 
L 580.668314 42.719401 
L 578.937936 42.719401 
L 577.207557 42.719401 
L 575.477178 42.719401 
L 573.746799 42.719401 
L 572.01642 42.719401 
L 570.286042 42.719401 
L 568.555663 42.719401 
L 566.825284 42.719401 
L 565.094905 42.719401 
L 563.364527 42.719401 
L 561.634148 42.719401 
L 559.903769 42.719401 
L 558.17339 42.719401 
L 556.443011 42.719401 
L 554.712633 42.719401 
L 552.982254 42.719401 
L 551.251875 42.719401 
L 549.521496 42.719401 
L 547.791117 42.719401 
L 546.060739 42.719401 
L 544.33036 42.719401 
L 542.599981 42.719401 
L 540.869602 42.719401 
L 539.139223 42.719401 
L 537.408845 42.719401 
L 535.678466 42.719401 
L 533.948087 42.719401 
L 532.217708 42.719401 
L 530.48733 42.719401 
L 528.756951 42.719401 
L 527.026572 42.719401 
L 525.296193 42.719401 
L 523.565814 42.719401 
L 521.835436 42.719401 
L 520.105057 42.719401 
L 518.374678 42.719401 
L 516.644299 42.719401 
L 514.91392 42.719401 
L 513.183542 42.719401 
L 511.453163 42.719401 
L 509.722784 42.719401 
L 507.992405 42.719401 
L 506.262027 42.719401 
L 504.531648 42.719401 
L 502.801269 42.719401 
L 501.07089 42.719401 
L 499.340511 42.719401 
L 497.610133 42.719401 
L 495.879754 42.719401 
L 494.149375 42.719401 
L 492.418996 42.719401 
L 490.688617 42.719401 
L 488.958239 42.719401 
L 487.22786 42.719401 
L 485.497481 42.719401 
L 483.767102 42.719401 
L 482.036723 42.719401 
L 480.306345 42.719401 
L 478.575966 42.719401 
L 476.845587 42.719401 
L 475.115208 42.719401 
L 473.38483 42.719401 
L 471.654451 42.719401 
L 469.924072 42.719401 
L 468.193693 42.719401 
L 466.463314 42.719401 
L 464.732936 42.719401 
L 463.002557 42.719401 
L 461.272178 42.719401 
L 459.541799 42.719401 
L 457.81142 42.719401 
L 456.081042 42.719401 
L 454.350663 42.719401 
L 452.620284 42.719401 
L 450.889905 42.719401 
L 449.159527 42.719401 
L 447.429148 42.719401 
L 445.698769 42.719401 
L 443.96839 42.719401 
L 442.238011 42.719401 
L 440.507633 42.719401 
L 438.777254 42.719401 
L 437.046875 42.719401 
L 435.316496 42.719401 
L 433.586117 42.719401 
L 431.855739 42.719401 
L 430.12536 42.719401 
L 428.394981 42.719401 
L 426.664602 42.719401 
L 424.934223 42.719401 
L 423.203845 42.719401 
L 421.473466 42.719401 
L 419.743087 42.719401 
L 418.012708 42.719401 
L 416.28233 42.719401 
L 414.551951 42.719401 
L 412.821572 42.719401 
L 411.091193 42.719401 
L 409.360814 42.719401 
L 407.630436 42.719401 
L 405.900057 42.719401 
L 404.169678 42.719401 
L 402.439299 42.719401 
L 400.70892 42.719401 
L 398.978542 42.719401 
L 397.248163 42.719401 
L 395.517784 42.719401 
L 393.787405 42.719401 
L 392.057027 42.719401 
L 390.326648 42.719401 
L 388.596269 42.719401 
L 386.86589 42.719401 
L 385.135511 42.719401 
L 383.405133 42.719401 
L 381.674754 42.719401 
L 379.944375 42.719401 
L 378.213996 42.719401 
L 376.483617 42.719401 
L 374.753239 42.719401 
L 373.02286 42.719401 
L 371.292481 42.719401 
L 369.562102 42.719401 
L 367.831723 42.719401 
L 366.101345 42.719401 
L 364.370966 42.719401 
L 362.640587 42.719401 
L 360.910208 42.719401 
L 359.17983 42.719401 
L 357.449451 42.719401 
L 355.719072 42.719401 
L 353.988693 42.719401 
L 352.258314 42.719401 
L 350.527936 42.719401 
L 348.797557 42.719401 
L 347.067178 42.719401 
L 345.336799 42.719401 
L 343.60642 42.719401 
L 341.876042 42.719401 
L 340.145663 42.719401 
L 338.415284 42.719401 
L 336.684905 42.719401 
L 334.954527 42.719401 
L 333.224148 42.719401 
L 331.493769 42.719401 
L 329.76339 42.719401 
L 328.033011 42.719401 
L 326.302633 42.719401 
L 324.572254 42.719401 
L 322.841875 42.719401 
L 321.111496 42.719401 
L 319.381117 42.719401 
L 317.650739 42.719401 
L 315.92036 42.719401 
L 314.189981 42.719401 
L 312.459602 42.719401 
L 310.729223 42.719401 
L 308.998845 42.719401 
L 307.268466 42.719401 
L 305.538087 42.719401 
L 303.807708 42.719401 
L 302.07733 42.719401 
L 300.346951 42.719401 
L 298.616572 42.719401 
L 296.886193 42.719401 
L 295.155814 42.719401 
L 293.425436 42.719401 
L 291.695057 42.719401 
L 289.964678 42.719401 
L 288.234299 42.719401 
L 286.50392 42.719401 
L 284.773542 42.719401 
L 283.043163 42.719401 
L 281.312784 42.719401 
L 279.582405 42.719401 
L 277.852027 42.719401 
L 276.121648 42.719401 
L 274.391269 42.719401 
L 272.66089 42.719401 
L 270.930511 42.719401 
L 269.200133 42.719401 
L 267.469754 42.719401 
L 265.739375 42.719401 
L 264.008996 42.719401 
L 262.278617 42.719401 
L 260.548239 42.719401 
L 258.81786 42.719401 
L 257.087481 42.719401 
L 255.357102 42.719401 
L 253.626723 42.719401 
L 251.896345 42.719401 
L 250.165966 42.719401 
L 248.435587 42.719401 
L 246.705208 42.719401 
L 244.97483 42.719401 
L 243.244451 42.719401 
L 241.514072 42.719401 
L 239.783693 42.719401 
L 238.053314 42.719401 
L 236.322936 42.719401 
L 234.592557 42.719401 
L 232.862178 42.719401 
L 231.131799 42.719401 
L 229.40142 42.719401 
L 227.671042 42.719401 
L 225.940663 42.719401 
L 224.210284 42.719401 
L 222.479905 42.719401 
L 220.749527 42.719401 
L 219.019148 42.719401 
L 217.288769 42.719401 
L 215.55839 42.719401 
L 213.828011 42.719401 
L 212.097633 42.719401 
L 210.367254 42.719401 
L 208.636875 42.719401 
L 206.906496 42.719401 
L 205.176117 42.719401 
L 203.445739 42.719401 
L 201.71536 42.719401 
L 199.984981 42.719401 
L 198.254602 42.719401 
L 196.524223 42.719401 
L 194.793845 42.719401 
L 193.063466 42.719401 
L 191.333087 42.719401 
L 189.602708 42.719401 
L 187.87233 42.719401 
L 186.141951 42.719401 
L 184.411572 42.719401 
L 182.681193 42.719401 
L 180.950814 42.719401 
L 179.220436 42.719401 
L 177.490057 42.719401 
L 175.759678 42.719401 
L 174.029299 42.719401 
L 172.29892 42.719401 
L 170.568542 42.719401 
L 168.838163 42.719401 
L 167.107784 42.719401 
L 165.377405 42.719401 
L 163.647027 42.719401 
L 161.916648 42.719401 
L 160.186269 42.719401 
L 158.45589 42.719401 
L 156.725511 42.719401 
L 154.995133 42.719401 
L 153.264754 42.719401 
L 151.534375 42.719401 
L 149.803996 42.719401 
L 148.073617 42.719401 
L 146.343239 42.719401 
L 144.61286 42.719401 
L 142.882481 42.719401 
L 141.152102 42.719401 
L 139.421723 42.719401 
L 137.691345 42.719401 
L 135.960966 42.719401 
L 134.230587 42.719401 
L 132.500208 42.719401 
L 130.76983 42.719401 
L 129.039451 42.719401 
L 127.309072 42.719401 
L 125.578693 42.719401 
L 123.848314 42.719401 
L 122.117936 42.719401 
L 120.387557 42.719401 
L 118.657178 42.719401 
L 116.926799 42.719401 
L 115.19642 42.719401 
z
" clip-path="url(#p39f7b57f19)" style="fill: #87ceeb; fill-opacity: 0.5; stroke: #87ceeb; stroke-opacity: 0.5"/>
    <path d="M 750.245436 42.719401 
L 751.975814 343.982417 
L 753.706193 343.982417 
L 755.436572 343.982417 
L 757.166951 343.982417 
L 758.89733 343.982417 
L 760.627708 343.982417 
L 762.358087 343.982417 
L 764.088466 343.982417 
L 765.818845 343.982417 
L 767.549223 343.982417 
L 769.279602 343.982417 
L 771.009981 343.982417 
L 772.74036 343.982417 
L 774.470739 343.982417 
L 776.201117 343.982417 
L 777.931496 343.982417 
L 779.661875 343.982417 
L 781.392254 343.982417 
L 783.122633 343.982417 
L 784.853011 343.982417 
L 786.58339 343.982417 
L 788.313769 343.982417 
L 790.044148 343.982417 
L 791.774527 343.982417 
L 793.504905 343.982417 
L 795.235284 343.982417 
L 796.965663 343.982417 
L 798.696042 343.982417 
L 800.42642 343.982417 
L 802.156799 343.982417 
L 803.887178 343.982417 
L 805.617557 343.982417 
L 807.347936 343.982417 
L 809.078314 343.982417 
L 810.808693 343.982417 
L 812.539072 343.982417 
L 814.269451 343.982417 
L 815.99983 343.982417 
L 815.99983 343.982417 
L 815.99983 42.719401 
L 814.269451 42.719401 
L 812.539072 42.719401 
L 810.808693 42.719401 
L 809.078314 42.719401 
L 807.347936 42.719401 
L 805.617557 42.719401 
L 803.887178 42.719401 
L 802.156799 42.719401 
L 800.42642 42.719401 
L 798.696042 42.719401 
L 796.965663 42.719401 
L 795.235284 42.719401 
L 793.504905 42.719401 
L 791.774527 42.719401 
L 790.044148 42.719401 
L 788.313769 42.719401 
L 786.58339 42.719401 
L 784.853011 42.719401 
L 783.122633 42.719401 
L 781.392254 42.719401 
L 779.661875 42.719401 
L 777.931496 42.719401 
L 776.201117 42.719401 
L 774.470739 42.719401 
L 772.74036 42.719401 
L 771.009981 42.719401 
L 769.279602 42.719401 
L 767.549223 42.719401 
L 765.818845 42.719401 
L 764.088466 42.719401 
L 762.358087 42.719401 
L 760.627708 42.719401 
L 758.89733 42.719401 
L 757.166951 42.719401 
L 755.436572 42.719401 
L 753.706193 42.719401 
L 751.975814 42.719401 
z
" clip-path="url(#p39f7b57f19)" style="fill: #87ceeb; fill-opacity: 0.5; stroke: #87ceeb; stroke-opacity: 0.5"/>
   </g>
   <g id="PolyCollection_2">
    <defs>
     <path id="m2ba347bff9" d="M 137.691345 -88.017583 
L 139.421723 -88.017583 
L 141.152102 -88.017583 
L 142.882481 -88.017583 
L 144.61286 -88.017583 
L 146.343239 -88.017583 
L 148.073617 -88.017583 
L 149.803996 -88.017583 
L 151.534375 -88.017583 
L 153.264754 -88.017583 
L 154.995133 -88.017583 
L 156.725511 -88.017583 
L 158.45589 -88.017583 
L 160.186269 -88.017583 
L 161.916648 -88.017583 
L 163.647027 -88.017583 
L 165.377405 -88.017583 
L 167.107784 -88.017583 
L 168.838163 -88.017583 
L 170.568542 -88.017583 
L 172.29892 -88.017583 
L 174.029299 -88.017583 
L 175.759678 -88.017583 
L 177.490057 -88.017583 
L 179.220436 -88.017583 
L 180.950814 -88.017583 
L 182.681193 -88.017583 
L 184.411572 -88.017583 
L 186.141951 -88.017583 
L 187.87233 -88.017583 
L 189.602708 -88.017583 
L 191.333087 -88.017583 
L 193.063466 -88.017583 
L 194.793845 -88.017583 
L 196.524223 -88.017583 
L 198.254602 -88.017583 
L 199.984981 -88.017583 
L 201.71536 -88.017583 
L 203.445739 -88.017583 
L 205.176117 -88.017583 
L 206.906496 -88.017583 
L 208.636875 -88.017583 
L 210.367254 -88.017583 
L 212.097633 -88.017583 
L 213.828011 -88.017583 
L 215.55839 -88.017583 
L 217.288769 -88.017583 
L 219.019148 -88.017583 
L 220.749527 -88.017583 
L 222.479905 -88.017583 
L 224.210284 -88.017583 
L 225.940663 -88.017583 
L 227.671042 -88.017583 
L 229.40142 -88.017583 
L 231.131799 -88.017583 
L 232.862178 -88.017583 
L 234.592557 -88.017583 
L 236.322936 -88.017583 
L 238.053314 -88.017583 
L 239.783693 -88.017583 
L 241.514072 -88.017583 
L 243.244451 -88.017583 
L 244.97483 -88.017583 
L 246.705208 -88.017583 
L 248.435587 -88.017583 
L 250.165966 -88.017583 
L 251.896345 -88.017583 
L 253.626723 -88.017583 
L 255.357102 -88.017583 
L 257.087481 -88.017583 
L 258.81786 -88.017583 
L 260.548239 -88.017583 
L 262.278617 -88.017583 
L 264.008996 -88.017583 
L 265.739375 -88.017583 
L 267.469754 -88.017583 
L 269.200133 -88.017583 
L 270.930511 -88.017583 
L 272.66089 -88.017583 
L 274.391269 -88.017583 
L 276.121648 -88.017583 
L 277.852027 -88.017583 
L 279.582405 -88.017583 
L 281.312784 -88.017583 
L 283.043163 -88.017583 
L 284.773542 -88.017583 
L 286.50392 -88.017583 
L 288.234299 -88.017583 
L 289.964678 -88.017583 
L 291.695057 -88.017583 
L 293.425436 -88.017583 
L 295.155814 -88.017583 
L 296.886193 -88.017583 
L 298.616572 -88.017583 
L 300.346951 -88.017583 
L 302.07733 -88.017583 
L 303.807708 -88.017583 
L 305.538087 -88.017583 
L 307.268466 -88.017583 
L 308.998845 -88.017583 
L 310.729223 -88.017583 
L 312.459602 -88.017583 
L 314.189981 -88.017583 
L 315.92036 -88.017583 
L 317.650739 -88.017583 
L 319.381117 -88.017583 
L 321.111496 -88.017583 
L 322.841875 -88.017583 
L 324.572254 -88.017583 
L 326.302633 -88.017583 
L 328.033011 -88.017583 
L 329.76339 -88.017583 
L 331.493769 -88.017583 
L 333.224148 -88.017583 
L 334.954527 -88.017583 
L 336.684905 -88.017583 
L 338.415284 -88.017583 
L 340.145663 -88.017583 
L 341.876042 -88.017583 
L 343.60642 -88.017583 
L 345.336799 -88.017583 
L 347.067178 -88.017583 
L 348.797557 -88.017583 
L 350.527936 -88.017583 
L 352.258314 -88.017583 
L 353.988693 -88.017583 
L 355.719072 -88.017583 
L 357.449451 -88.017583 
L 359.17983 -88.017583 
L 360.910208 -88.017583 
L 362.640587 -88.017583 
L 364.370966 -88.017583 
L 366.101345 -88.017583 
L 367.831723 -88.017583 
L 369.562102 -88.017583 
L 371.292481 -88.017583 
L 373.02286 -88.017583 
L 374.753239 -88.017583 
L 376.483617 -88.017583 
L 378.213996 -88.017583 
L 379.944375 -88.017583 
L 381.674754 -88.017583 
L 383.405133 -88.017583 
L 385.135511 -88.017583 
L 386.86589 -88.017583 
L 388.596269 -88.017583 
L 390.326648 -88.017583 
L 392.057027 -88.017583 
L 393.787405 -88.017583 
L 395.517784 -88.017583 
L 397.248163 -88.017583 
L 398.978542 -88.017583 
L 400.70892 -88.017583 
L 402.439299 -88.017583 
L 404.169678 -88.017583 
L 405.900057 -88.017583 
L 407.630436 -88.017583 
L 409.360814 -88.017583 
L 411.091193 -88.017583 
L 412.821572 -88.017583 
L 414.551951 -88.017583 
L 416.28233 -88.017583 
L 418.012708 -88.017583 
L 419.743087 -88.017583 
L 421.473466 -88.017583 
L 423.203845 -88.017583 
L 424.934223 -88.017583 
L 426.664602 -88.017583 
L 428.394981 -88.017583 
L 430.12536 -88.017583 
L 431.855739 -88.017583 
L 433.586117 -88.017583 
L 435.316496 -88.017583 
L 437.046875 -88.017583 
L 438.777254 -88.017583 
L 440.507633 -88.017583 
L 442.238011 -88.017583 
L 443.96839 -88.017583 
L 445.698769 -88.017583 
L 447.429148 -88.017583 
L 449.159527 -88.017583 
L 450.889905 -88.017583 
L 452.620284 -88.017583 
L 454.350663 -88.017583 
L 456.081042 -88.017583 
L 457.81142 -88.017583 
L 459.541799 -88.017583 
L 461.272178 -88.017583 
L 463.002557 -88.017583 
L 464.732936 -88.017583 
L 466.463314 -88.017583 
L 468.193693 -88.017583 
L 469.924072 -88.017583 
L 471.654451 -88.017583 
L 473.38483 -88.017583 
L 475.115208 -88.017583 
L 476.845587 -88.017583 
L 478.575966 -88.017583 
L 480.306345 -88.017583 
L 482.036723 -88.017583 
L 483.767102 -88.017583 
L 485.497481 -88.017583 
L 487.22786 -88.017583 
L 488.958239 -88.017583 
L 490.688617 -88.017583 
L 492.418996 -88.017583 
L 494.149375 -88.017583 
L 495.879754 -88.017583 
L 497.610133 -88.017583 
L 499.340511 -88.017583 
L 501.07089 -88.017583 
L 502.801269 -88.017583 
L 504.531648 -88.017583 
L 506.262027 -88.017583 
L 507.992405 -88.017583 
L 509.722784 -88.017583 
L 511.453163 -88.017583 
L 513.183542 -88.017583 
L 514.91392 -88.017583 
L 516.644299 -88.017583 
L 518.374678 -88.017583 
L 520.105057 -88.017583 
L 521.835436 -88.017583 
L 523.565814 -88.017583 
L 525.296193 -88.017583 
L 527.026572 -88.017583 
L 528.756951 -88.017583 
L 530.48733 -88.017583 
L 532.217708 -88.017583 
L 533.948087 -88.017583 
L 535.678466 -88.017583 
L 537.408845 -88.017583 
L 539.139223 -88.017583 
L 540.869602 -88.017583 
L 542.599981 -88.017583 
L 544.33036 -88.017583 
L 546.060739 -88.017583 
L 547.791117 -88.017583 
L 549.521496 -88.017583 
L 551.251875 -88.017583 
L 552.982254 -88.017583 
L 554.712633 -88.017583 
L 556.443011 -88.017583 
L 558.17339 -88.017583 
L 559.903769 -88.017583 
L 561.634148 -88.017583 
L 563.364527 -88.017583 
L 565.094905 -88.017583 
L 566.825284 -88.017583 
L 568.555663 -88.017583 
L 570.286042 -88.017583 
L 572.01642 -88.017583 
L 573.746799 -88.017583 
L 575.477178 -88.017583 
L 577.207557 -88.017583 
L 578.937936 -88.017583 
L 580.668314 -88.017583 
L 582.398693 -88.017583 
L 584.129072 -88.017583 
L 585.859451 -88.017583 
L 587.58983 -88.017583 
L 589.320208 -88.017583 
L 591.050587 -88.017583 
L 592.780966 -88.017583 
L 594.511345 -88.017583 
L 596.241723 -88.017583 
L 597.972102 -88.017583 
L 599.702481 -88.017583 
L 601.43286 -88.017583 
L 603.163239 -88.017583 
L 604.893617 -88.017583 
L 606.623996 -88.017583 
L 608.354375 -88.017583 
L 610.084754 -88.017583 
L 611.815133 -88.017583 
L 613.545511 -88.017583 
L 615.27589 -88.017583 
L 617.006269 -88.017583 
L 618.736648 -88.017583 
L 620.467027 -88.017583 
L 622.197405 -88.017583 
L 623.927784 -88.017583 
L 625.658163 -88.017583 
L 627.388542 -88.017583 
L 629.11892 -88.017583 
L 630.849299 -88.017583 
L 632.579678 -88.017583 
L 634.310057 -88.017583 
L 636.040436 -88.017583 
L 637.770814 -88.017583 
L 639.501193 -88.017583 
L 641.231572 -88.017583 
L 642.961951 -88.017583 
L 644.69233 -88.017583 
L 646.422708 -88.017583 
L 648.153087 -88.017583 
L 649.883466 -88.017583 
L 651.613845 -88.017583 
L 653.344223 -88.017583 
L 655.074602 -88.017583 
L 656.804981 -88.017583 
L 658.53536 -88.017583 
L 660.265739 -88.017583 
L 661.996117 -88.017583 
L 663.726496 -88.017583 
L 665.456875 -88.017583 
L 667.187254 -88.017583 
L 668.917633 -88.017583 
L 670.648011 -88.017583 
L 672.37839 -88.017583 
L 674.108769 -88.017583 
L 675.839148 -88.017583 
L 677.569527 -88.017583 
L 679.299905 -88.017583 
L 681.030284 -88.017583 
L 682.760663 -88.017583 
L 684.491042 -88.017583 
L 686.22142 -88.017583 
L 687.951799 -88.017583 
L 689.682178 -88.017583 
L 691.412557 -88.017583 
L 693.142936 -88.017583 
L 694.873314 -88.017583 
L 696.603693 -88.017583 
L 698.334072 -88.017583 
L 700.064451 -88.017583 
L 701.79483 -88.017583 
L 703.525208 -88.017583 
L 705.255587 -88.017583 
L 706.985966 -88.017583 
L 708.716345 -88.017583 
L 710.446723 -88.017583 
L 712.177102 -88.017583 
L 713.907481 -88.017583 
L 715.63786 -88.017583 
L 717.368239 -88.017583 
L 719.098617 -88.017583 
L 720.828996 -88.017583 
L 722.559375 -88.017583 
L 724.289754 -88.017583 
L 726.020133 -88.017583 
L 727.750511 -88.017583 
L 729.48089 -88.017583 
L 731.211269 -88.017583 
L 732.941648 -88.017583 
L 734.672027 -88.017583 
L 736.402405 -88.017583 
L 738.132784 -88.017583 
L 739.863163 -88.017583 
L 741.593542 -88.017583 
L 743.32392 -88.017583 
L 745.054299 -88.017583 
L 746.784678 -88.017583 
L 748.515057 -88.017583 
L 750.245436 -88.017583 
L 751.975814 -88.017583 
L 753.706193 -88.017583 
L 755.436572 -88.017583 
L 757.166951 -88.017583 
L 758.89733 -88.017583 
L 760.627708 -88.017583 
L 762.358087 -88.017583 
L 764.088466 -88.017583 
L 765.818845 -88.017583 
L 767.549223 -88.017583 
L 769.279602 -88.017583 
L 771.009981 -88.017583 
L 772.74036 -88.017583 
L 774.470739 -88.017583 
L 776.201117 -88.017583 
L 777.931496 -88.017583 
L 779.661875 -88.017583 
L 781.392254 -88.017583 
L 783.122633 -88.017583 
L 784.853011 -88.017583 
L 786.58339 -88.017583 
L 788.313769 -88.017583 
L 790.044148 -88.017583 
L 791.774527 -88.017583 
L 793.504905 -88.017583 
L 795.235284 -88.017583 
L 796.965663 -88.017583 
L 798.696042 -88.017583 
L 800.42642 -88.017583 
L 802.156799 -88.017583 
L 803.887178 -88.017583 
L 805.617557 -88.017583 
L 807.347936 -88.017583 
L 809.078314 -88.017583 
L 810.808693 -88.017583 
L 812.539072 -88.017583 
L 814.269451 -88.017583 
L 815.99983 -88.017583 
L 815.99983 -88.017583 
L 815.99983 -88.017583 
L 814.269451 -88.017583 
L 812.539072 -88.017583 
L 810.808693 -88.017583 
L 809.078314 -88.017583 
L 807.347936 -88.017583 
L 805.617557 -88.017583 
L 803.887178 -88.017583 
L 802.156799 -88.017583 
L 800.42642 -88.017583 
L 798.696042 -88.017583 
L 796.965663 -88.017583 
L 795.235284 -88.017583 
L 793.504905 -88.017583 
L 791.774527 -88.017583 
L 790.044148 -88.017583 
L 788.313769 -88.017583 
L 786.58339 -88.017583 
L 784.853011 -88.017583 
L 783.122633 -88.017583 
L 781.392254 -88.017583 
L 779.661875 -88.017583 
L 777.931496 -88.017583 
L 776.201117 -88.017583 
L 774.470739 -88.017583 
L 772.74036 -88.017583 
L 771.009981 -88.017583 
L 769.279602 -88.017583 
L 767.549223 -88.017583 
L 765.818845 -88.017583 
L 764.088466 -88.017583 
L 762.358087 -88.017583 
L 760.627708 -88.017583 
L 758.89733 -88.017583 
L 757.166951 -88.017583 
L 755.436572 -88.017583 
L 753.706193 -88.017583 
L 751.975814 -88.017583 
L 750.245436 -389.280599 
L 748.515057 -389.280599 
L 746.784678 -389.280599 
L 745.054299 -389.280599 
L 743.32392 -381.843029 
L 741.593542 -381.843029 
L 739.863163 -381.843029 
L 738.132784 -381.843029 
L 736.402405 -381.843029 
L 734.672027 -381.843029 
L 732.941648 -381.843029 
L 731.211269 -381.843029 
L 729.48089 -381.843029 
L 727.750511 -381.843029 
L 726.020133 -381.843029 
L 724.289754 -381.843029 
L 722.559375 -381.843029 
L 720.828996 -381.843029 
L 719.098617 -374.355734 
L 717.368239 -374.355734 
L 715.63786 -374.355734 
L 713.907481 -374.355734 
L 712.177102 -374.355734 
L 710.446723 -374.355734 
L 708.716345 -374.355734 
L 706.985966 -374.355734 
L 705.255587 -374.355734 
L 703.525208 -374.355734 
L 701.79483 -374.355734 
L 700.064451 -374.355734 
L 698.334072 -374.355734 
L 696.603693 -374.355734 
L 694.873314 -366.967826 
L 693.142936 -366.967826 
L 691.412557 -366.967826 
L 689.682178 -366.967826 
L 687.951799 -366.967826 
L 686.22142 -366.967826 
L 684.491042 -366.967826 
L 682.760663 -366.967826 
L 681.030284 -366.967826 
L 679.299905 -366.967826 
L 677.569527 -366.967826 
L 675.839148 -366.967826 
L 674.108769 -366.967826 
L 672.37839 -366.967826 
L 670.648011 -357.390214 
L 668.917633 -357.390214 
L 667.187254 -357.390214 
L 665.456875 -357.390214 
L 663.726496 -357.390214 
L 661.996117 -357.390214 
L 660.265739 -357.390214 
L 658.53536 -357.390214 
L 656.804981 -357.390214 
L 655.074602 -357.390214 
L 653.344223 -357.390214 
L 651.613845 -357.390214 
L 649.883466 -357.390214 
L 648.153087 -357.390214 
L 646.422708 -346.721205 
L 644.69233 -346.721205 
L 642.961951 -346.721205 
L 641.231572 -346.721205 
L 639.501193 -346.721205 
L 637.770814 -346.721205 
L 636.040436 -346.721205 
L 634.310057 -346.721205 
L 632.579678 -346.721205 
L 630.849299 -346.721205 
L 629.11892 -346.721205 
L 627.388542 -346.721205 
L 625.658163 -346.721205 
L 623.927784 -346.721205 
L 622.197405 -334.63093 
L 620.467027 -334.63093 
L 618.736648 -334.63093 
L 617.006269 -334.63093 
L 615.27589 -334.63093 
L 613.545511 -334.63093 
L 611.815133 -334.63093 
L 610.084754 -334.63093 
L 608.354375 -334.63093 
L 606.623996 -334.63093 
L 604.893617 -334.63093 
L 603.163239 -334.63093 
L 601.43286 -334.63093 
L 599.702481 -334.63093 
L 597.972102 -323.456852 
L 596.241723 -323.456852 
L 594.511345 -323.456852 
L 592.780966 -323.456852 
L 591.050587 -323.456852 
L 589.320208 -323.456852 
L 587.58983 -323.456852 
L 585.859451 -323.456852 
L 584.129072 -323.456852 
L 582.398693 -323.456852 
L 580.668314 -323.456852 
L 578.937936 -323.456852 
L 577.207557 -323.456852 
L 575.477178 -323.456852 
L 573.746799 -310.93208 
L 572.01642 -310.93208 
L 570.286042 -310.93208 
L 568.555663 -310.93208 
L 566.825284 -310.93208 
L 565.094905 -310.93208 
L 563.364527 -310.93208 
L 561.634148 -310.93208 
L 559.903769 -310.93208 
L 558.17339 -310.93208 
L 556.443011 -310.93208 
L 554.712633 -310.93208 
L 552.982254 -310.93208 
L 551.251875 -310.93208 
L 549.521496 -298.669958 
L 547.791117 -298.669958 
L 546.060739 -298.669958 
L 544.33036 -298.669958 
L 542.599981 -298.669958 
L 540.869602 -298.669958 
L 539.139223 -298.669958 
L 537.408845 -298.669958 
L 535.678466 -298.669958 
L 533.948087 -298.669958 
L 532.217708 -298.669958 
L 530.48733 -298.669958 
L 528.756951 -298.669958 
L 527.026572 -298.669958 
L 525.296193 -286.04024 
L 523.565814 -286.04024 
L 521.835436 -286.04024 
L 520.105057 -286.04024 
L 518.374678 -286.04024 
L 516.644299 -286.04024 
L 514.91392 -286.04024 
L 513.183542 -286.04024 
L 511.453163 -286.04024 
L 509.722784 -286.04024 
L 507.992405 -286.04024 
L 506.262027 -286.04024 
L 504.531648 -286.04024 
L 502.801269 -286.04024 
L 501.07089 -274.904931 
L 499.340511 -274.904931 
L 497.610133 -274.904931 
L 495.879754 -274.904931 
L 494.149375 -274.904931 
L 492.418996 -274.904931 
L 490.688617 -274.904931 
L 488.958239 -274.904931 
L 487.22786 -274.904931 
L 485.497481 -274.904931 
L 483.767102 -274.904931 
L 482.036723 -274.904931 
L 480.306345 -274.904931 
L 478.575966 -274.904931 
L 476.845587 -263.526238 
L 475.115208 -263.526238 
L 473.38483 -263.526238 
L 471.654451 -263.526238 
L 469.924072 -263.526238 
L 468.193693 -263.526238 
L 466.463314 -263.526238 
L 464.732936 -263.526238 
L 463.002557 -263.526238 
L 461.272178 -263.526238 
L 459.541799 -263.526238 
L 457.81142 -263.526238 
L 456.081042 -263.526238 
L 454.350663 -263.526238 
L 452.620284 -250.800467 
L 450.889905 -250.800467 
L 449.159527 -250.800467 
L 447.429148 -250.800467 
L 445.698769 -250.800467 
L 443.96839 -250.800467 
L 442.238011 -250.800467 
L 440.507633 -250.800467 
L 438.777254 -250.800467 
L 437.046875 -250.800467 
L 435.316496 -250.800467 
L 433.586117 -250.800467 
L 431.855739 -250.800467 
L 430.12536 -250.800467 
L 428.394981 -239.577089 
L 426.664602 -239.577089 
L 424.934223 -239.577089 
L 423.203845 -239.577089 
L 421.473466 -239.577089 
L 419.743087 -239.577089 
L 418.012708 -239.577089 
L 416.28233 -239.577089 
L 414.551951 -239.577089 
L 412.821572 -239.577089 
L 411.091193 -239.577089 
L 409.360814 -239.577089 
L 407.630436 -239.577089 
L 405.900057 -239.577089 
L 404.169678 -229.291892 
L 402.439299 -229.291892 
L 400.70892 -229.291892 
L 398.978542 -229.291892 
L 397.248163 -229.291892 
L 395.517784 -229.291892 
L 393.787405 -229.291892 
L 392.057027 -229.291892 
L 390.326648 -229.291892 
L 388.596269 -229.291892 
L 386.86589 -229.291892 
L 385.135511 -229.291892 
L 383.405133 -229.291892 
L 381.674754 -229.291892 
L 379.944375 -218.574557 
L 378.213996 -218.574557 
L 376.483617 -218.574557 
L 374.753239 -218.574557 
L 373.02286 -218.574557 
L 371.292481 -218.574557 
L 369.562102 -218.574557 
L 367.831723 -218.574557 
L 366.101345 -218.574557 
L 364.370966 -218.574557 
L 362.640587 -218.574557 
L 360.910208 -218.574557 
L 359.17983 -218.574557 
L 357.449451 -218.574557 
L 355.719072 -207.049736 
L 353.988693 -207.049736 
L 352.258314 -207.049736 
L 350.527936 -207.049736 
L 348.797557 -207.049736 
L 347.067178 -207.049736 
L 345.336799 -207.049736 
L 343.60642 -207.049736 
L 341.876042 -207.049736 
L 340.145663 -207.049736 
L 338.415284 -207.049736 
L 336.684905 -207.049736 
L 334.954527 -207.049736 
L 333.224148 -207.049736 
L 331.493769 -195.763965 
L 329.76339 -195.763965 
L 328.033011 -195.763965 
L 326.302633 -195.763965 
L 324.572254 -195.763965 
L 322.841875 -195.763965 
L 321.111496 -195.763965 
L 319.381117 -195.763965 
L 317.650739 -195.763965 
L 315.92036 -195.763965 
L 314.189981 -195.763965 
L 312.459602 -195.763965 
L 310.729223 -195.763965 
L 308.998845 -195.763965 
L 307.268466 -185.382979 
L 305.538087 -185.382979 
L 303.807708 -185.382979 
L 302.07733 -185.382979 
L 300.346951 -185.382979 
L 298.616572 -185.382979 
L 296.886193 -185.382979 
L 295.155814 -185.382979 
L 293.425436 -185.382979 
L 291.695057 -185.382979 
L 289.964678 -185.382979 
L 288.234299 -185.382979 
L 286.50392 -185.382979 
L 284.773542 -185.382979 
L 283.043163 -175.090597 
L 281.312784 -175.090597 
L 279.582405 -175.090597 
L 277.852027 -175.090597 
L 276.121648 -175.090597 
L 274.391269 -175.090597 
L 272.66089 -175.090597 
L 270.930511 -175.090597 
L 269.200133 -175.090597 
L 267.469754 -175.090597 
L 265.739375 -175.090597 
L 264.008996 -175.090597 
L 262.278617 -175.090597 
L 260.548239 -175.090597 
L 258.81786 -164.900511 
L 257.087481 -164.900511 
L 255.357102 -164.900511 
L 253.626723 -164.900511 
L 251.896345 -164.900511 
L 250.165966 -164.900511 
L 248.435587 -164.900511 
L 246.705208 -164.900511 
L 244.97483 -164.900511 
L 243.244451 -164.900511 
L 241.514072 -164.900511 
L 239.783693 -164.900511 
L 238.053314 -164.900511 
L 236.322936 -164.900511 
L 234.592557 -153.027795 
L 232.862178 -153.027795 
L 231.131799 -153.027795 
L 229.40142 -153.027795 
L 227.671042 -153.027795 
L 225.940663 -153.027795 
L 224.210284 -153.027795 
L 222.479905 -153.027795 
L 220.749527 -153.027795 
L 219.019148 -153.027795 
L 217.288769 -153.027795 
L 215.55839 -153.027795 
L 213.828011 -153.027795 
L 212.097633 -153.027795 
L 210.367254 -139.020845 
L 208.636875 -139.020845 
L 206.906496 -139.020845 
L 205.176117 -139.020845 
L 203.445739 -139.020845 
L 201.71536 -139.020845 
L 199.984981 -139.020845 
L 198.254602 -139.020845 
L 196.524223 -139.020845 
L 194.793845 -139.020845 
L 193.063466 -139.020845 
L 191.333087 -139.020845 
L 189.602708 -139.020845 
L 187.87233 -139.020845 
L 186.141951 -122.122947 
L 184.411572 -122.122947 
L 182.681193 -122.122947 
L 180.950814 -122.122947 
L 179.220436 -122.122947 
L 177.490057 -122.122947 
L 175.759678 -122.122947 
L 174.029299 -122.122947 
L 172.29892 -122.122947 
L 170.568542 -122.122947 
L 168.838163 -122.122947 
L 167.107784 -122.122947 
L 165.377405 -122.122947 
L 163.647027 -122.122947 
L 161.916648 -104.484757 
L 160.186269 -104.484757 
L 158.45589 -104.484757 
L 156.725511 -104.484757 
L 154.995133 -104.484757 
L 153.264754 -104.484757 
L 151.534375 -104.484757 
L 149.803996 -104.484757 
L 148.073617 -104.484757 
L 146.343239 -104.484757 
L 144.61286 -104.484757 
L 142.882481 -104.484757 
L 141.152102 -104.484757 
L 139.421723 -104.484757 
z
" style="stroke: #90ee90; stroke-opacity: 0.5"/>
    </defs>
    <g clip-path="url(#p39f7b57f19)">
     <use xlink:href="#m2ba347bff9" x="0" y="432" style="fill: #90ee90; fill-opacity: 0.5; stroke: #90ee90; stroke-opacity: 0.5"/>
    </g>
   </g>
   <g id="line2d_13">
    <path d="M 80.15625 42.719401 
L 851.04 42.719401 
" clip-path="url(#p39f7b57f19)" style="fill: none; stroke-dasharray: 5.55,2.4; stroke-dashoffset: 0; stroke: #808080; stroke-width: 1.5"/>
   </g>
   <g id="line2d_14">
    <path d="M 115.19642 343.982417 
L 137.691345 343.982417 
L 139.421723 327.515243 
L 161.916648 327.515243 
L 163.647027 309.877053 
L 186.141951 309.877053 
L 187.87233 292.979155 
L 210.367254 292.979155 
L 212.097633 278.972205 
L 234.592557 278.972205 
L 236.322936 267.099489 
L 258.81786 267.099489 
L 260.548239 256.909403 
L 283.043163 256.909403 
L 284.773542 246.617021 
L 307.268466 246.617021 
L 308.998845 236.236035 
L 331.493769 236.236035 
L 333.224148 224.950264 
L 355.719072 224.950264 
L 357.449451 213.425443 
L 379.944375 213.425443 
L 381.674754 202.708108 
L 404.169678 202.708108 
L 405.900057 192.422911 
L 428.394981 192.422911 
L 430.12536 181.199533 
L 452.620284 181.199533 
L 454.350663 168.473762 
L 476.845587 168.473762 
L 478.575966 157.095069 
L 501.07089 157.095069 
L 502.801269 145.95976 
L 525.296193 145.95976 
L 527.026572 133.330042 
L 549.521496 133.330042 
L 551.251875 121.06792 
L 573.746799 121.06792 
L 575.477178 108.543148 
L 597.972102 108.543148 
L 599.702481 97.36907 
L 622.197405 97.36907 
L 623.927784 85.278795 
L 646.422708 85.278795 
L 648.153087 74.609786 
L 670.648011 74.609786 
L 672.37839 65.032174 
L 694.873314 65.032174 
L 696.603693 57.644266 
L 719.098617 57.644266 
L 720.828996 50.156971 
L 743.32392 50.156971 
L 745.054299 42.719401 
L 750.245436 42.719401 
L 751.975814 343.982417 
L 815.99983 343.982417 
L 815.99983 343.982417 
" clip-path="url(#p39f7b57f19)" style="fill: none; stroke: #000000; stroke-width: 2; stroke-linecap: round"/>
   </g>
   <g id="patch_3">
    <path d="M 80.15625 359.045568 
L 80.15625 27.65625 
" style="fill: none; stroke: #cccccc; stroke-width: 1.25; stroke-linejoin: miter; stroke-linecap: square"/>
   </g>
   <g id="patch_4">
    <path d="M 851.04 359.045568 
L 851.04 27.65625 
" style="fill: none; stroke: #cccccc; stroke-width: 1.25; stroke-linejoin: miter; stroke-linecap: square"/>
   </g>
   <g id="patch_5">
    <path d="M 80.15625 359.045568 
L 851.04 359.045568 
" style="fill: none; stroke: #cccccc; stroke-width: 1.25; stroke-linejoin: miter; stroke-linecap: square"/>
   </g>
   <g id="patch_6">
    <path d="M 80.15625 27.65625 
L 851.04 27.65625 
" style="fill: none; stroke: #cccccc; stroke-width: 1.25; stroke-linejoin: miter; stroke-linecap: square"/>
   </g>
   <g id="text_15">
    <!-- LSP Liquidity Requirements -->
    <g style="fill: #262626" transform="translate(391.667812 21.65625) scale(0.12 -0.12)">
     <defs>
      <path id="ArialMT-53" d="M 288 1472 
L 859 1522 
Q 900 1178 1048 958 
Q 1197 738 1509 602 
Q 1822 466 2213 466 
Q 2559 466 2825 569 
Q 3091 672 3220 851 
Q 3350 1031 3350 1244 
Q 3350 1459 3225 1620 
Q 3100 1781 2813 1891 
Q 2628 1963 1997 2114 
Q 1366 2266 1113 2400 
Q 784 2572 623 2826 
Q 463 3081 463 3397 
Q 463 3744 659 4045 
Q 856 4347 1234 4503 
Q 1613 4659 2075 4659 
Q 2584 4659 2973 4495 
Q 3363 4331 3572 4012 
Q 3781 3694 3797 3291 
L 3216 3247 
Q 3169 3681 2898 3903 
Q 2628 4125 2100 4125 
Q 1550 4125 1298 3923 
Q 1047 3722 1047 3438 
Q 1047 3191 1225 3031 
Q 1400 2872 2139 2705 
Q 2878 2538 3153 2413 
Q 3553 2228 3743 1945 
Q 3934 1663 3934 1294 
Q 3934 928 3725 604 
Q 3516 281 3123 101 
Q 2731 -78 2241 -78 
Q 1619 -78 1198 103 
Q 778 284 539 648 
Q 300 1013 288 1472 
z
" transform="scale(0.015625)"/>
      <path id="ArialMT-50" d="M 494 0 
L 494 4581 
L 2222 4581 
Q 2678 4581 2919 4538 
Q 3256 4481 3484 4323 
Q 3713 4166 3852 3881 
Q 3991 3597 3991 3256 
Q 3991 2672 3619 2267 
Q 3247 1863 2275 1863 
L 1100 1863 
L 1100 0 
L 494 0 
z
M 1100 2403 
L 2284 2403 
Q 2872 2403 3119 2622 
Q 3366 2841 3366 3238 
Q 3366 3525 3220 3729 
Q 3075 3934 2838 4000 
Q 2684 4041 2272 4041 
L 1100 4041 
L 1100 2403 
z
" transform="scale(0.015625)"/>
      <path id="ArialMT-52" d="M 503 0 
L 503 4581 
L 2534 4581 
Q 3147 4581 3465 4457 
Q 3784 4334 3975 4021 
Q 4166 3709 4166 3331 
Q 4166 2844 3850 2509 
Q 3534 2175 2875 2084 
Q 3116 1969 3241 1856 
Q 3506 1613 3744 1247 
L 4541 0 
L 3778 0 
L 3172 953 
Q 2906 1366 2734 1584 
Q 2563 1803 2427 1890 
Q 2291 1978 2150 2013 
Q 2047 2034 1813 2034 
L 1109 2034 
L 1109 0 
L 503 0 
z
M 1109 2559 
L 2413 2559 
Q 2828 2559 3062 2645 
Q 3297 2731 3419 2920 
Q 3541 3109 3541 3331 
Q 3541 3656 3305 3865 
Q 3069 4075 2559 4075 
L 1109 4075 
L 1109 2559 
z
" transform="scale(0.015625)"/>
      <path id="ArialMT-72" d="M 416 0 
L 416 3319 
L 922 3319 
L 922 2816 
Q 1116 3169 1280 3281 
Q 1444 3394 1641 3394 
Q 1925 3394 2219 3213 
L 2025 2691 
Q 1819 2813 1613 2813 
Q 1428 2813 1281 2702 
Q 1134 2591 1072 2394 
Q 978 2094 978 1738 
L 978 0 
L 416 0 
z
" transform="scale(0.015625)"/>
      <path id="ArialMT-6e" d="M 422 0 
L 422 3319 
L 928 3319 
L 928 2847 
Q 1294 3394 1984 3394 
Q 2284 3394 2536 3286 
Q 2788 3178 2913 3003 
Q 3038 2828 3088 2588 
Q 3119 2431 3119 2041 
L 3119 0 
L 2556 0 
L 2556 2019 
Q 2556 2363 2490 2533 
Q 2425 2703 2258 2804 
Q 2091 2906 1866 2906 
Q 1506 2906 1245 2678 
Q 984 2450 984 1813 
L 984 0 
L 422 0 
z
" transform="scale(0.015625)"/>
     </defs>
     <use xlink:href="#ArialMT-4c"/>
     <use xlink:href="#ArialMT-53" x="55.615234"/>
     <use xlink:href="#ArialMT-50" x="122.314453"/>
     <use xlink:href="#ArialMT-20" x="187.263672"/>
     <use xlink:href="#ArialMT-4c" x="215.046875"/>
     <use xlink:href="#ArialMT-69" x="270.662109"/>
     <use xlink:href="#ArialMT-71" x="292.878906"/>
     <use xlink:href="#ArialMT-75" x="348.494141"/>
     <use xlink:href="#ArialMT-69" x="404.109375"/>
     <use xlink:href="#ArialMT-64" x="426.326172"/>
     <use xlink:href="#ArialMT-69" x="481.941406"/>
     <use xlink:href="#ArialMT-74" x="504.158203"/>
     <use xlink:href="#ArialMT-79" x="531.941406"/>
     <use xlink:href="#ArialMT-20" x="581.941406"/>
     <use xlink:href="#ArialMT-52" x="609.724609"/>
     <use xlink:href="#ArialMT-65" x="681.941406"/>
     <use xlink:href="#ArialMT-71" x="737.556641"/>
     <use xlink:href="#ArialMT-75" x="793.171875"/>
     <use xlink:href="#ArialMT-69" x="848.787109"/>
     <use xlink:href="#ArialMT-72" x="871.003906"/>
     <use xlink:href="#ArialMT-65" x="904.304688"/>
     <use xlink:href="#ArialMT-6d" x="959.919922"/>
     <use xlink:href="#ArialMT-65" x="1043.220703"/>
     <use xlink:href="#ArialMT-6e" x="1098.835938"/>
     <use xlink:href="#ArialMT-74" x="1154.451172"/>
     <use xlink:href="#ArialMT-73" x="1182.234375"/>
    </g>
   </g>
   <g id="legend_1">
    <g id="patch_7">
     <path d="M 87.85625 226.316534 
L 230.655156 226.316534 
Q 232.855156 226.316534 232.855156 224.116534 
L 232.855156 162.585284 
Q 232.855156 160.385284 230.655156 160.385284 
L 87.85625 160.385284 
Q 85.65625 160.385284 85.65625 162.585284 
L 85.65625 224.116534 
Q 85.65625 226.316534 87.85625 226.316534 
z
" style="fill: #ffffff; opacity: 0.8; stroke: #cccccc; stroke-linejoin: miter"/>
    </g>
    <g id="line2d_15">
     <path d="M 90.05625 168.808878 
L 101.05625 168.808878 
L 112.05625 168.808878 
" style="fill: none; stroke-dasharray: 5.55,2.4; stroke-dashoffset: 0; stroke: #808080; stroke-width: 1.5"/>
    </g>
    <g id="text_16">
     <!-- Channel size -->
     <g style="fill: #262626" transform="translate(120.85625 172.658878) scale(0.11 -0.11)">
      <defs>
       <path id="ArialMT-43" d="M 3763 1606 
L 4369 1453 
Q 4178 706 3683 314 
Q 3188 -78 2472 -78 
Q 1731 -78 1267 223 
Q 803 525 561 1097 
Q 319 1669 319 2325 
Q 319 3041 592 3573 
Q 866 4106 1370 4382 
Q 1875 4659 2481 4659 
Q 3169 4659 3637 4309 
Q 4106 3959 4291 3325 
L 3694 3184 
Q 3534 3684 3231 3912 
Q 2928 4141 2469 4141 
Q 1941 4141 1586 3887 
Q 1231 3634 1087 3207 
Q 944 2781 944 2328 
Q 944 1744 1114 1308 
Q 1284 872 1643 656 
Q 2003 441 2422 441 
Q 2931 441 3284 734 
Q 3638 1028 3763 1606 
z
" transform="scale(0.015625)"/>
       <path id="ArialMT-68" d="M 422 0 
L 422 4581 
L 984 4581 
L 984 2938 
Q 1378 3394 1978 3394 
Q 2347 3394 2619 3248 
Q 2891 3103 3008 2847 
Q 3125 2591 3125 2103 
L 3125 0 
L 2563 0 
L 2563 2103 
Q 2563 2525 2380 2717 
Q 2197 2909 1863 2909 
Q 1613 2909 1392 2779 
Q 1172 2650 1078 2428 
Q 984 2206 984 1816 
L 984 0 
L 422 0 
z
" transform="scale(0.015625)"/>
       <path id="ArialMT-7a" d="M 125 0 
L 125 456 
L 2238 2881 
Q 1878 2863 1603 2863 
L 250 2863 
L 250 3319 
L 2963 3319 
L 2963 2947 
L 1166 841 
L 819 456 
Q 1197 484 1528 484 
L 3063 484 
L 3063 0 
L 125 0 
z
" transform="scale(0.015625)"/>
      </defs>
      <use xlink:href="#ArialMT-43"/>
      <use xlink:href="#ArialMT-68" x="72.216797"/>
      <use xlink:href="#ArialMT-61" x="127.832031"/>
      <use xlink:href="#ArialMT-6e" x="183.447266"/>
      <use xlink:href="#ArialMT-6e" x="239.0625"/>
      <use xlink:href="#ArialMT-65" x="294.677734"/>
      <use xlink:href="#ArialMT-6c" x="350.292969"/>
      <use xlink:href="#ArialMT-20" x="372.509766"/>
      <use xlink:href="#ArialMT-73" x="400.292969"/>
      <use xlink:href="#ArialMT-69" x="450.292969"/>
      <use xlink:href="#ArialMT-7a" x="472.509766"/>
      <use xlink:href="#ArialMT-65" x="522.509766"/>
     </g>
    </g>
    <g id="patch_8">
     <path d="M 90.05625 188.352784 
L 112.05625 188.352784 
L 112.05625 180.652784 
L 90.05625 180.652784 
z
" style="fill: #87ceeb; fill-opacity: 0.5; stroke: #87ceeb; stroke-opacity: 0.5; stroke-linejoin: miter"/>
    </g>
    <g id="text_17">
     <!-- LSP-supplied liquidity -->
     <g style="fill: #262626" transform="translate(120.85625 188.352784) scale(0.11 -0.11)">
      <use xlink:href="#ArialMT-4c"/>
      <use xlink:href="#ArialMT-53" x="55.615234"/>
      <use xlink:href="#ArialMT-50" x="122.314453"/>
      <use xlink:href="#ArialMT-2d" x="189.013672"/>
      <use xlink:href="#ArialMT-73" x="222.314453"/>
      <use xlink:href="#ArialMT-75" x="272.314453"/>
      <use xlink:href="#ArialMT-70" x="327.929688"/>
      <use xlink:href="#ArialMT-70" x="383.544922"/>
      <use xlink:href="#ArialMT-6c" x="439.160156"/>
      <use xlink:href="#ArialMT-69" x="461.376953"/>
      <use xlink:href="#ArialMT-65" x="483.59375"/>
      <use xlink:href="#ArialMT-64" x="539.208984"/>
      <use xlink:href="#ArialMT-20" x="594.824219"/>
      <use xlink:href="#ArialMT-6c" x="622.607422"/>
      <use xlink:href="#ArialMT-69" x="644.824219"/>
      <use xlink:href="#ArialMT-71" x="667.041016"/>
      <use xlink:href="#ArialMT-75" x="722.65625"/>
      <use xlink:href="#ArialMT-69" x="778.271484"/>
      <use xlink:href="#ArialMT-64" x="800.488281"/>
      <use xlink:href="#ArialMT-69" x="856.103516"/>
      <use xlink:href="#ArialMT-74" x="878.320312"/>
      <use xlink:href="#ArialMT-79" x="906.103516"/>
     </g>
    </g>
    <g id="patch_9">
     <path d="M 90.05625 204.041534 
L 112.05625 204.041534 
L 112.05625 196.341534 
L 90.05625 196.341534 
z
" style="fill: #90ee90; fill-opacity: 0.5; stroke: #90ee90; stroke-opacity: 0.5; stroke-linejoin: miter"/>
    </g>
    <g id="text_18">
     <!-- User-supplied liquidity -->
     <g style="fill: #262626" transform="translate(120.85625 204.041534) scale(0.11 -0.11)">
      <defs>
       <path id="ArialMT-55" d="M 3500 4581 
L 4106 4581 
L 4106 1934 
Q 4106 1244 3950 837 
Q 3794 431 3386 176 
Q 2978 -78 2316 -78 
Q 1672 -78 1262 144 
Q 853 366 678 786 
Q 503 1206 503 1934 
L 503 4581 
L 1109 4581 
L 1109 1938 
Q 1109 1341 1220 1058 
Q 1331 775 1601 622 
Q 1872 469 2263 469 
Q 2931 469 3215 772 
Q 3500 1075 3500 1938 
L 3500 4581 
z
" transform="scale(0.015625)"/>
      </defs>
      <use xlink:href="#ArialMT-55"/>
      <use xlink:href="#ArialMT-73" x="72.216797"/>
      <use xlink:href="#ArialMT-65" x="122.216797"/>
      <use xlink:href="#ArialMT-72" x="177.832031"/>
      <use xlink:href="#ArialMT-2d" x="211.132812"/>
      <use xlink:href="#ArialMT-73" x="244.433594"/>
      <use xlink:href="#ArialMT-75" x="294.433594"/>
      <use xlink:href="#ArialMT-70" x="350.048828"/>
      <use xlink:href="#ArialMT-70" x="405.664062"/>
      <use xlink:href="#ArialMT-6c" x="461.279297"/>
      <use xlink:href="#ArialMT-69" x="483.496094"/>
      <use xlink:href="#ArialMT-65" x="505.712891"/>
      <use xlink:href="#ArialMT-64" x="561.328125"/>
      <use xlink:href="#ArialMT-20" x="616.943359"/>
      <use xlink:href="#ArialMT-6c" x="644.726562"/>
      <use xlink:href="#ArialMT-69" x="666.943359"/>
      <use xlink:href="#ArialMT-71" x="689.160156"/>
      <use xlink:href="#ArialMT-75" x="744.775391"/>
      <use xlink:href="#ArialMT-69" x="800.390625"/>
      <use xlink:href="#ArialMT-64" x="822.607422"/>
      <use xlink:href="#ArialMT-69" x="878.222656"/>
      <use xlink:href="#ArialMT-74" x="900.439453"/>
      <use xlink:href="#ArialMT-79" x="928.222656"/>
     </g>
    </g>
    <g id="line2d_16">
     <path d="M 90.05625 215.880284 
L 101.05625 215.880284 
L 112.05625 215.880284 
" style="fill: none; stroke: #000000; stroke-width: 2; stroke-linecap: round"/>
    </g>
    <g id="text_19">
     <!-- User account balance -->
     <g style="fill: #262626" transform="translate(120.85625 219.730284) scale(0.11 -0.11)">
      <defs>
       <path id="ArialMT-63" d="M 2588 1216 
L 3141 1144 
Q 3050 572 2676 248 
Q 2303 -75 1759 -75 
Q 1078 -75 664 370 
Q 250 816 250 1647 
Q 250 2184 428 2587 
Q 606 2991 970 3192 
Q 1334 3394 1763 3394 
Q 2303 3394 2647 3120 
Q 2991 2847 3088 2344 
L 2541 2259 
Q 2463 2594 2264 2762 
Q 2066 2931 1784 2931 
Q 1359 2931 1093 2626 
Q 828 2322 828 1663 
Q 828 994 1084 691 
Q 1341 388 1753 388 
Q 2084 388 2306 591 
Q 2528 794 2588 1216 
z
" transform="scale(0.015625)"/>
       <path id="ArialMT-62" d="M 941 0 
L 419 0 
L 419 4581 
L 981 4581 
L 981 2947 
Q 1338 3394 1891 3394 
Q 2197 3394 2470 3270 
Q 2744 3147 2920 2923 
Q 3097 2700 3197 2384 
Q 3297 2069 3297 1709 
Q 3297 856 2875 390 
Q 2453 -75 1863 -75 
Q 1275 -75 941 416 
L 941 0 
z
M 934 1684 
Q 934 1088 1097 822 
Q 1363 388 1816 388 
Q 2184 388 2453 708 
Q 2722 1028 2722 1663 
Q 2722 2313 2464 2622 
Q 2206 2931 1841 2931 
Q 1472 2931 1203 2611 
Q 934 2291 934 1684 
z
" transform="scale(0.015625)"/>
      </defs>
      <use xlink:href="#ArialMT-55"/>
      <use xlink:href="#ArialMT-73" x="72.216797"/>
      <use xlink:href="#ArialMT-65" x="122.216797"/>
      <use xlink:href="#ArialMT-72" x="177.832031"/>
      <use xlink:href="#ArialMT-20" x="211.132812"/>
      <use xlink:href="#ArialMT-61" x="238.916016"/>
      <use xlink:href="#ArialMT-63" x="294.53125"/>
      <use xlink:href="#ArialMT-63" x="344.53125"/>
      <use xlink:href="#ArialMT-6f" x="394.53125"/>
      <use xlink:href="#ArialMT-75" x="450.146484"/>
      <use xlink:href="#ArialMT-6e" x="505.761719"/>
      <use xlink:href="#ArialMT-74" x="561.376953"/>
      <use xlink:href="#ArialMT-20" x="589.160156"/>
      <use xlink:href="#ArialMT-62" x="616.943359"/>
      <use xlink:href="#ArialMT-61" x="672.558594"/>
      <use xlink:href="#ArialMT-6c" x="728.173828"/>
      <use xlink:href="#ArialMT-61" x="750.390625"/>
      <use xlink:href="#ArialMT-6e" x="806.005859"/>
      <use xlink:href="#ArialMT-63" x="861.621094"/>
      <use xlink:href="#ArialMT-65" x="911.621094"/>
     </g>
    </g>
   </g>
  </g>
 </g>
 <defs>
  <clipPath id="p39f7b57f19">
   <rect x="80.15625" y="27.65625" width="770.88375" height="331.389318"/>
  </clipPath>
 </defs>
</svg>
