<svg xmlns="http://www.w3.org/2000/svg" xmlns:xlink="http://www.w3.org/1999/xlink" x="0" y="0" width="662.2222290039062" height="484.0278015136719" style="
        width:662.2222290039062px;
        height:484.0278015136719px;
        background: black;
        fill: none;
">
        
        
        <svg xmlns="http://www.w3.org/2000/svg" class="role-diagram-draw-area"><g class="shapes-region" style="stroke: black; fill: none;"><g class="composite-shape"><path class="real" d=" M390,162 C390,155.37 395.37,150 402,150 L488,150 C494.63,150 500,155.37 500,162 L500,198 C500,204.63 494.63,210 488,210 L402,210 C395.37,210 390,204.63 390,198 Z" style="stroke-width: 1; stroke: rgb(224, 224, 224); fill: none; fill-opacity: 1;"/></g><g class="composite-shape"><path class="real" d=" M50,162 C50,155.37 55.37,150 62,150 L128,150 C134.63,150 140,155.37 140,162 L140,198 C140,204.63 134.63,210 128,210 L62,210 C55.37,210 50,204.63 50,198 Z" style="stroke-width: 1; stroke: rgb(224, 224, 224); fill: none; fill-opacity: 1;"/></g><g class="composite-shape"><path class="real" d=" M49.5,33.06 C49.5,25.29 55.79,19 63.56,19 L204.17,19 L204.17,89.28 L49.5,89.28 Z" style="stroke-width: 1; stroke: rgb(224, 224, 224); fill: rgb(86, 243, 247); fill-opacity: 0.52;"/></g><g class="composite-shape"><path class="real" d=" M210,162 C210,155.37 215.37,150 222,150 L338,150 C344.63,150 350,155.37 350,162 L350,198 C350,204.63 344.63,210 338,210 L222,210 C215.37,210 210,204.63 210,198 Z" style="stroke-width: 1; stroke: rgb(224, 224, 224); fill: none; fill-opacity: 1;"/></g><g class="arrow-line"><path class="connection real" stroke-dasharray="" d="  M140,180 L208,180" style="stroke: rgb(224, 224, 224); stroke-width: 1; fill: none; fill-opacity: 1;"/><g stroke="#e0e0e0" transform="matrix(-1,1.2246467991473532e-16,-1.2246467991473532e-16,-1,209.99999999999997,180.00000000000003)" style="stroke: rgb(224, 224, 224); stroke-width: 1;"><path d=" M10.93,-3.29 Q4.96,-0.45 0,0 Q4.96,0.45 10.93,3.29"/></g></g><g class="arrow-line"><path class="connection real" stroke-dasharray="" d="  M350,180 L388,180" style="stroke: rgb(224, 224, 224); stroke-width: 1; fill: none; fill-opacity: 1;"/><g stroke="#e0e0e0" transform="matrix(-1,1.2246467991473532e-16,-1.2246467991473532e-16,-1,390,180)" style="stroke: rgb(224, 224, 224); stroke-width: 1;"><path d=" M10.93,-3.29 Q4.96,-0.45 0,0 Q4.96,0.45 10.93,3.29"/></g></g><g class="composite-shape"><path class="real" d=" M550,162 C550,155.37 555.37,150 562,150 L638,150 C644.63,150 650,155.37 650,162 L650,198 C650,204.63 644.63,210 638,210 L562,210 C555.37,210 550,204.63 550,198 Z" style="stroke-width: 1; stroke: rgb(224, 224, 224); fill: none; fill-opacity: 1;"/></g><g class="arrow-line"><path class="connection real" stroke-dasharray="" d="  M500,180 L548,180" style="stroke: rgb(224, 224, 224); stroke-width: 1; fill: none; fill-opacity: 1;"/><g stroke="#e0e0e0" transform="matrix(-1,1.2246467991473532e-16,-1.2246467991473532e-16,-1,550,180)" style="stroke: rgb(224, 224, 224); stroke-width: 1;"><path d=" M10.93,-3.29 Q4.96,-0.45 0,0 Q4.96,0.45 10.93,3.29"/></g></g><g class="composite-shape"><path class="real" d=" M390,242 C390,235.37 395.37,230 402,230 L488,230 C494.63,230 500,235.37 500,242 L500,278 C500,284.63 494.63,290 488,290 L402,290 C395.37,290 390,284.63 390,278 Z" style="stroke-width: 1; stroke: rgb(224, 224, 224); fill: none; fill-opacity: 1;"/></g><g class="composite-shape"><path class="real" d=" M50,242 C50,235.37 55.37,230 62,230 L128,230 C134.63,230 140,235.37 140,242 L140,278 C140,284.63 134.63,290 128,290 L62,290 C55.37,290 50,284.63 50,278 Z" style="stroke-width: 1; stroke: rgb(224, 224, 224); fill: none; fill-opacity: 1;"/></g><g class="composite-shape"><path class="real" d=" M210,242 C210,235.37 215.37,230 222,230 L338,230 C344.63,230 350,235.37 350,242 L350,278 C350,284.63 344.63,290 338,290 L222,290 C215.37,290 210,284.63 210,278 Z" style="stroke-width: 1; stroke: rgb(224, 224, 224); fill: none; fill-opacity: 1;"/></g><g class="arrow-line"><path class="connection real" stroke-dasharray="" d="  M140,260 L208,260" style="stroke: rgb(224, 224, 224); stroke-width: 1; fill: none; fill-opacity: 1;"/><g stroke="#e0e0e0" transform="matrix(-1,1.2246467991473532e-16,-1.2246467991473532e-16,-1,209.99999999999997,260)" style="stroke: rgb(224, 224, 224); stroke-width: 1;"><path d=" M10.93,-3.29 Q4.96,-0.45 0,0 Q4.96,0.45 10.93,3.29"/></g></g><g class="arrow-line"><path class="connection real" stroke-dasharray="" d="  M350,260 L388,260" style="stroke: rgb(224, 224, 224); stroke-width: 1; fill: none; fill-opacity: 1;"/><g stroke="#e0e0e0" transform="matrix(-1,1.2246467991473532e-16,-1.2246467991473532e-16,-1,389.99999999999994,260.00000000000006)" style="stroke: rgb(224, 224, 224); stroke-width: 1;"><path d=" M10.93,-3.29 Q4.96,-0.45 0,0 Q4.96,0.45 10.93,3.29"/></g></g><g class="composite-shape"><path class="real" d=" M550,242 C550,235.37 555.37,230 562,230 L638,230 C644.63,230 650,235.37 650,242 L650,278 C650,284.63 644.63,290 638,290 L562,290 C555.37,290 550,284.63 550,278 Z" style="stroke-width: 1; stroke: rgb(224, 224, 224); fill: none; fill-opacity: 1;"/></g><g class="arrow-line"><path class="connection real" stroke-dasharray="" d="  M500,260 L548,260" style="stroke: rgb(224, 224, 224); stroke-width: 1; fill: none; fill-opacity: 1;"/><g stroke="#e0e0e0" transform="matrix(-1,1.2246467991473532e-16,-1.2246467991473532e-16,-1,550,260.00000000000006)" style="stroke: rgb(224, 224, 224); stroke-width: 1;"><path d=" M10.93,-3.29 Q4.96,-0.45 0,0 Q4.96,0.45 10.93,3.29"/></g></g><g class="composite-shape"><path class="real" d=" M390,322 C390,315.37 395.37,310 402,310 L488,310 C494.63,310 500,315.37 500,322 L500,358 C500,364.63 494.63,370 488,370 L402,370 C395.37,370 390,364.63 390,358 Z" style="stroke-width: 1; stroke: rgb(224, 224, 224); fill: none; fill-opacity: 1;"/></g><g class="composite-shape"><path class="real" d=" M50,322 C50,315.37 55.37,310 62,310 L128,310 C134.63,310 140,315.37 140,322 L140,358 C140,364.63 134.63,370 128,370 L62,370 C55.37,370 50,364.63 50,358 Z" style="stroke-width: 1; stroke: rgb(224, 224, 224); fill: none; fill-opacity: 1;"/></g><g class="composite-shape"><path class="real" d=" M210,322 C210,315.37 215.37,310 222,310 L338,310 C344.63,310 350,315.37 350,322 L350,358 C350,364.63 344.63,370 338,370 L222,370 C215.37,370 210,364.63 210,358 Z" style="stroke-width: 1; stroke: rgb(224, 224, 224); fill: none; fill-opacity: 1;"/></g><g class="arrow-line"><path class="connection real" stroke-dasharray="" d="  M140,340 L208,340" style="stroke: rgb(224, 224, 224); stroke-width: 1; fill: none; fill-opacity: 1;"/><g stroke="#e0e0e0" transform="matrix(-1,1.2246467991473532e-16,-1.2246467991473532e-16,-1,209.99999999999997,340)" style="stroke: rgb(224, 224, 224); stroke-width: 1;"><path d=" M10.93,-3.29 Q4.96,-0.45 0,0 Q4.96,0.45 10.93,3.29"/></g></g><g class="arrow-line"><path class="connection real" stroke-dasharray="" d="  M350,340 L388,340" style="stroke: rgb(224, 224, 224); stroke-width: 1; fill: none; fill-opacity: 1;"/><g stroke="#e0e0e0" transform="matrix(-1,1.2246467991473532e-16,-1.2246467991473532e-16,-1,389.99999999999994,340.00000000000006)" style="stroke: rgb(224, 224, 224); stroke-width: 1;"><path d=" M10.93,-3.29 Q4.96,-0.45 0,0 Q4.96,0.45 10.93,3.29"/></g></g><g class="composite-shape"><path class="real" d=" M550,322 C550,315.37 555.37,310 562,310 L638,310 C644.63,310 650,315.37 650,322 L650,358 C650,364.63 644.63,370 638,370 L562,370 C555.37,370 550,364.63 550,358 Z" style="stroke-width: 1; stroke: rgb(224, 224, 224); fill: none; fill-opacity: 1;"/></g><g class="arrow-line"><path class="connection real" stroke-dasharray="" d="  M500,340 L548,340" style="stroke: rgb(224, 224, 224); stroke-width: 1; fill: none; fill-opacity: 1;"/><g stroke="#e0e0e0" transform="matrix(-1,1.2246467991473532e-16,-1.2246467991473532e-16,-1,550,340.00000000000006)" style="stroke: rgb(224, 224, 224); stroke-width: 1;"><path d=" M10.93,-3.29 Q4.96,-0.45 0,0 Q4.96,0.45 10.93,3.29"/></g></g><g class="arrow-line"><path class="connection real" stroke-dasharray="" d="  M50,60 L20,60" style="stroke: rgb(224, 224, 224); stroke-width: 1; fill: none; fill-opacity: 1;"/></g><g class="arrow-line"><path class="connection real" stroke-dasharray="" d="  M20,60 L20,380" style="stroke: rgb(224, 224, 224); stroke-width: 1; fill: none; fill-opacity: 1;"/></g><g class="arrow-line"><path class="connection real" stroke-dasharray="" d="  M20,160 C19.68,179.18 29.08,180.23 48.2,180.02" style="stroke: rgb(224, 224, 224); stroke-width: 1; fill: none; fill-opacity: 1;"/><g stroke="#e0e0e0" transform="matrix(-0.9999073368120139,0.013613147670748928,-0.013613147670748928,-0.9999073368120139,50,179.99999999999997)" style="stroke: rgb(224, 224, 224); stroke-width: 1;"><path d=" M10.93,-3.29 Q4.96,-0.45 0,0 Q4.96,0.45 10.93,3.29"/></g></g><g class="arrow-line"><path class="connection real" stroke-dasharray="" d="  M20,240 C19.68,259.18 29.08,260.23 48.2,260.02" style="stroke: rgb(224, 224, 224); stroke-width: 1; fill: none; fill-opacity: 1;"/><g stroke="#e0e0e0" transform="matrix(-0.9999073368120139,0.013613147670748928,-0.013613147670748928,-0.9999073368120139,49.99999999999999,259.99999999999994)" style="stroke: rgb(224, 224, 224); stroke-width: 1;"><path d=" M10.93,-3.29 Q4.96,-0.45 0,0 Q4.96,0.45 10.93,3.29"/></g></g><g class="arrow-line"><path class="connection real" stroke-dasharray="" d="  M20,320 C18.22,343.06 28.99,340.46 48.19,340.03" style="stroke: rgb(224, 224, 224); stroke-width: 1; fill: none; fill-opacity: 1;"/><g stroke="#e0e0e0" transform="matrix(-0.9999073368120139,0.013613147670748928,-0.013613147670748928,-0.9999073368120139,50,340.00000000000006)" style="stroke: rgb(224, 224, 224); stroke-width: 1;"><path d=" M10.93,-3.29 Q4.96,-0.45 0,0 Q4.96,0.45 10.93,3.29"/></g></g><g class="arrow-line"><path class="connection real" stroke-dasharray="" d="  M20,380 C18.22,403.06 28.99,400.46 48.19,400.03" style="stroke: rgb(224, 224, 224); stroke-width: 1; fill: none; fill-opacity: 1;"/><g stroke="#e0e0e0" transform="matrix(-0.9999073368120139,0.013613147670748928,-0.013613147670748928,-0.9999073368120139,50.00000000000001,400)" style="stroke: rgb(224, 224, 224); stroke-width: 1;"><path d=" M10.93,-3.29 Q4.96,-0.45 0,0 Q4.96,0.45 10.93,3.29"/></g></g><g/></g><g/><g/><g/></svg>
        <svg xmlns="http://www.w3.org/2000/svg" xmlns:xlink="http://www.w3.org/1999/xlink" width="660.0000610351562" height="481.8055725097656" style="width:660.0000610351562px;height:481.8055725097656px;font-family:Asana-Math, Asana;background:transparent;"><g><g><g><text x="399.09722900390625" y="160.98959350585938" style="white-space:pre;stroke:none;fill:rgb(224,224,224);fill-opacity:1;font-size:13.5px;font-family:Arial, Helvetica, sans-serif;font-weight:400;font-style:normal;dominant-baseline:text-before-edge;text-decoration:none solid rgb(224, 224, 224);">EC Secret Key</text></g></g></g><g><g><g><g transform="matrix(1,0,0,1,410.10418701171875,194.29307250976564)"><path transform="matrix(0.015300000000000001,0,0,-0.015300000000000001,0,0)" d="M240 722L228 733C176 707 140 698 68 691L64 670L112 670C136 670 146 663 146 646C146 638 145 629 144 622L96 354C82 279 66 210 14 1L23 -9L90 8L113 132C122 180 146 225 180 259C249 59 281 -9 306 -9C319 -9 343 4 387 35L433 67L425 86L382 62C368 54 361 52 353 52C343 52 336 58 327 75C292 139 270 193 231 316L245 330C306 391 352 416 402 416C410 416 421 414 438 410L455 473C437 479 419 482 407 482C341 482 258 405 133 230Z" stroke="rgb(224,224,224)" stroke-opacity="1" stroke-width="8" fill="rgb(224,224,224)" fill-opacity="1"></path></g></g><g><g><g><g><g transform="matrix(1,0,0,1,417.7257080078125,198.10584350585938)"><path transform="matrix(0.01071,0,0,-0.01071,0,0)" d="M418 -3L418 27L366 30C311 33 301 44 301 96L301 700L60 598L67 548L217 614L217 96C217 44 206 33 152 30L96 27L96 -3C250 0 250 0 261 0C292 0 402 -3 418 -3Z" stroke="rgb(224,224,224)" stroke-opacity="1" stroke-width="8" fill="rgb(224,224,224)" fill-opacity="1"></path></g></g></g></g></g><g><g transform="matrix(1,0,0,1,428.55908203125,194.29307250976564)"><path transform="matrix(0.015300000000000001,0,0,-0.015300000000000001,0,0)" d="M604 347L604 406L65 406L65 347ZM604 134L604 193L65 193L65 134Z" stroke="rgb(224,224,224)" stroke-opacity="1" stroke-width="8" fill="rgb(224,224,224)" fill-opacity="1"></path></g></g><g><g transform="matrix(1,0,0,1,443.36810302734375,194.29307250976564)"><path transform="matrix(0.015300000000000001,0,0,-0.015300000000000001,0,0)" d="M221 385L263 613C270 652 277 658 314 661L356 664L359 692L335 692L245 689C229 689 211 689 168 690L104 692L101 664L148 662C172 661 183 653 183 635C183 621 179 590 174 559L100 125C83 33 82 32 42 28L1 25L-3 -3L39 -2C87 -1 110 0 129 0L226 -3L252 -3L255 25L206 28C179 30 170 37 170 58C170 67 171 74 174 93L216 340L277 341C339 342 381 343 400 343C419 343 460 342 523 341L584 340L544 125C535 76 528 48 523 42C519 34 508 30 486 28L436 25L432 -3L488 -2C532 -1 562 0 573 0C589 0 620 -1 663 -2L705 -3L708 25L650 28C624 29 614 37 614 58C614 67 615 76 618 93L710 613C717 652 723 657 761 661L797 664L800 692L784 692L693 689C678 689 657 689 613 690L550 692L547 664L595 662C619 661 630 653 630 635C630 621 626 589 621 559L591 385Z" stroke="rgb(224,224,224)" stroke-opacity="1" stroke-width="8" fill="rgb(224,224,224)" fill-opacity="1"></path></g></g><g><g transform="matrix(1,0,0,1,455.26043701171875,195.40418701171876)"><path transform="matrix(0.015300000000000001,0,0,-0.015300000000000001,0,0)" d="M146 266C146 526 243 632 301 700L282 726C225 675 60 542 60 266C60 159 85 58 133 -32C168 -99 200 -138 282 -215L301 -194C255 -137 146 -15 146 266Z" stroke="rgb(224,224,224)" stroke-opacity="1" stroke-width="8" fill="rgb(224,224,224)" fill-opacity="1"></path></g></g><g><g transform="matrix(1,0,0,1,460.34722900390625,194.29307250976564)"><path transform="matrix(0.015300000000000001,0,0,-0.015300000000000001,0,0)" d="M105 664L160 662C184 661 195 653 195 635L112 125C95 34 94 31 54 28L13 25L9 -3L51 -2C92 -1 123 0 141 0C158 0 187 -1 227 -2L280 -3L283 25L218 28C192 29 182 37 182 58C182 67 183 74 186 93L284 648C320 654 336 656 355 656C457 656 506 612 506 519C506 411 434 323 346 323C324 323 304 328 267 342L269 311C306 293 326 288 355 288C484 288 594 405 594 541C594 642 531 695 412 692L108 692Z" stroke="rgb(224,224,224)" stroke-opacity="1" stroke-width="8" fill="rgb(224,224,224)" fill-opacity="1"></path></g></g><g><g><g><g><g transform="matrix(1,0,0,1,470.138916015625,198.10584350585938)"><path transform="matrix(0.01071,0,0,-0.01071,0,0)" d="M418 -3L418 27L366 30C311 33 301 44 301 96L301 700L60 598L67 548L217 614L217 96C217 44 206 33 152 30L96 27L96 -3C250 0 250 0 261 0C292 0 402 -3 418 -3Z" stroke="rgb(224,224,224)" stroke-opacity="1" stroke-width="8" fill="rgb(224,224,224)" fill-opacity="1"></path></g></g></g></g></g><g><g transform="matrix(1,0,0,1,476.388916015625,195.40418701171876)"><path transform="matrix(0.015300000000000001,0,0,-0.015300000000000001,0,0)" d="M51 726L32 700C87 636 187 526 187 266C187 -10 83 -131 32 -194L51 -215C104 -165 273 -23 273 265C273 542 108 675 51 726Z" stroke="rgb(224,224,224)" stroke-opacity="1" stroke-width="8" fill="rgb(224,224,224)" fill-opacity="1"></path></g></g></g></g><g><g><g><text x="62.1007080078125" y="160" style="white-space:pre;stroke:none;fill:rgb(224,224,224);fill-opacity:1;font-size:13.5px;font-family:Arial, Helvetica, sans-serif;font-weight:400;font-style:normal;dominant-baseline:text-before-edge;text-decoration:none solid rgb(224, 224, 224);">HBS Seed</text></g></g></g><g><g><g><g transform="matrix(1,0,0,1,59.09722900390625,194.29307250976564)"><path transform="matrix(0.015300000000000001,0,0,-0.015300000000000001,0,0)" d="M176 -11C232 -11 347 62 390 125C431 186 465 296 465 371C465 438 442 482 406 482C364 482 311 456 259 409C218 374 198 348 162 289L186 408C189 425 191 440 191 452C191 471 183 482 169 482C148 482 110 461 36 408L8 388L15 368L47 389C75 407 86 412 95 412C105 412 112 403 112 389C112 381 110 361 108 351L50 8C40 -52 21 -143 1 -233L-7 -270L0 -276C21 -269 41 -264 73 -259L115 3C136 -4 158 -11 176 -11ZM143 165C165 293 272 424 355 424C381 424 393 402 393 356C393 275 353 156 300 80C280 51 248 36 207 36C176 36 151 43 125 59Z" stroke="rgb(224,224,224)" stroke-opacity="1" stroke-width="8" fill="rgb(224,224,224)" fill-opacity="1"></path></g></g><g><g><g><g><g transform="matrix(1,0,0,1,67.1875,198.10584350585938)"><path transform="matrix(0.01071,0,0,-0.01071,0,0)" d="M418 -3L418 27L366 30C311 33 301 44 301 96L301 700L60 598L67 548L217 614L217 96C217 44 206 33 152 30L96 27L96 -3C250 0 250 0 261 0C292 0 402 -3 418 -3Z" stroke="rgb(224,224,224)" stroke-opacity="1" stroke-width="8" fill="rgb(224,224,224)" fill-opacity="1"></path></g></g></g></g></g><g><g transform="matrix(1,0,0,1,78.02084350585938,194.29307250976564)"><path transform="matrix(0.015300000000000001,0,0,-0.015300000000000001,0,0)" d="M604 347L604 406L65 406L65 347ZM604 134L604 193L65 193L65 134Z" stroke="rgb(224,224,224)" stroke-opacity="1" stroke-width="8" fill="rgb(224,224,224)" fill-opacity="1"></path></g></g><g><g transform="matrix(1,0,0,1,92.82986450195312,194.29307250976564)"><path transform="matrix(0.015300000000000001,0,0,-0.015300000000000001,0,0)" d="M221 385L263 613C270 652 277 658 314 661L356 664L359 692L335 692L245 689C229 689 211 689 168 690L104 692L101 664L148 662C172 661 183 653 183 635C183 621 179 590 174 559L100 125C83 33 82 32 42 28L1 25L-3 -3L39 -2C87 -1 110 0 129 0L226 -3L252 -3L255 25L206 28C179 30 170 37 170 58C170 67 171 74 174 93L216 340L277 341C339 342 381 343 400 343C419 343 460 342 523 341L584 340L544 125C535 76 528 48 523 42C519 34 508 30 486 28L436 25L432 -3L488 -2C532 -1 562 0 573 0C589 0 620 -1 663 -2L705 -3L708 25L650 28C624 29 614 37 614 58C614 67 615 76 618 93L710 613C717 652 723 657 761 661L797 664L800 692L784 692L693 689C678 689 657 689 613 690L550 692L547 664L595 662C619 661 630 653 630 635C630 621 626 589 621 559L591 385Z" stroke="rgb(224,224,224)" stroke-opacity="1" stroke-width="8" fill="rgb(224,224,224)" fill-opacity="1"></path></g></g><g><g transform="matrix(1,0,0,1,104.72222900390625,195.40418701171876)"><path transform="matrix(0.015300000000000001,0,0,-0.015300000000000001,0,0)" d="M146 266C146 526 243 632 301 700L282 726C225 675 60 542 60 266C60 159 85 58 133 -32C168 -99 200 -138 282 -215L301 -194C255 -137 146 -15 146 266Z" stroke="rgb(224,224,224)" stroke-opacity="1" stroke-width="8" fill="rgb(224,224,224)" fill-opacity="1"></path></g></g><g><g transform="matrix(1,0,0,1,109.80905151367188,194.29307250976564)"><path transform="matrix(0.015300000000000001,0,0,-0.015300000000000001,0,0)" d="M31 148C26 97 20 62 9 16C47 -2 81 -11 116 -11C165 -11 211 7 262 47C313 87 334 124 334 174C334 228 302 257 228 271L185 279C125 290 106 307 106 348C106 401 151 442 208 442C249 442 287 424 303 397L303 342L326 342C330 377 334 404 345 455C306 474 278 482 245 482C193 482 132 452 84 404C58 377 47 352 47 316C47 260 78 228 144 215L207 203C251 195 267 177 267 138C267 73 221 29 150 29C115 29 84 40 56 64L56 148Z" stroke="rgb(224,224,224)" stroke-opacity="1" stroke-width="8" fill="rgb(224,224,224)" fill-opacity="1"></path></g></g><g><g transform="matrix(1,0,0,1,115.74655151367188,194.29307250976564)"><path transform="matrix(0.015300000000000001,0,0,-0.015300000000000001,0,0)" d="M204 123C177 114 159 108 106 93C99 17 74 -48 16 -144L30 -155L71 -136C152 -31 190 32 218 109Z" stroke="rgb(224,224,224)" stroke-opacity="1" stroke-width="8" fill="rgb(224,224,224)" fill-opacity="1"></path></g></g><g><g transform="matrix(1,0,0,1,122.62155151367188,194.29307250976564)"><path transform="matrix(0.015300000000000001,0,0,-0.015300000000000001,0,0)" d="M667 -3L667 27L615 30C560 33 550 44 550 96L550 700L309 598L316 548L466 614L466 96C466 44 455 33 401 30L345 27L345 -3C499 0 499 0 510 0C541 0 651 -3 667 -3Z" stroke="rgb(224,224,224)" stroke-opacity="1" stroke-width="8" fill="rgb(224,224,224)" fill-opacity="1"></path></g></g><g><g transform="matrix(1,0,0,1,134.0625,195.40418701171876)"><path transform="matrix(0.015300000000000001,0,0,-0.015300000000000001,0,0)" d="M51 726L32 700C87 636 187 526 187 266C187 -10 83 -131 32 -194L51 -215C104 -165 273 -23 273 265C273 542 108 675 51 726Z" stroke="rgb(224,224,224)" stroke-opacity="1" stroke-width="8" fill="rgb(224,224,224)" fill-opacity="1"></path></g></g></g></g><g><g><g><text x="85.60763549804688" y="27.5" style="white-space:pre;stroke:none;fill:rgb(224,224,224);fill-opacity:1;font-size:15px;font-family:Arial, Helvetica, sans-serif;font-weight:400;font-style:normal;dominant-baseline:text-before-edge;text-decoration:none solid rgb(224, 224, 224);">BIP39 Seed</text></g></g></g><g><g><g><g transform="matrix(1,0,0,1,60.607635498046875,70.10763549804688)"><path transform="matrix(0.017,0,0,-0.017,0,0)" d="M31 148C26 97 20 62 9 16C47 -2 81 -11 116 -11C165 -11 211 7 262 47C313 87 334 124 334 174C334 228 302 257 228 271L185 279C125 290 106 307 106 348C106 401 151 442 208 442C249 442 287 424 303 397L303 342L326 342C330 377 334 404 345 455C306 474 278 482 245 482C193 482 132 452 84 404C58 377 47 352 47 316C47 260 78 228 144 215L207 203C251 195 267 177 267 138C267 73 221 29 150 29C115 29 84 40 56 64L56 148Z" stroke="rgb(224,224,224)" stroke-opacity="1" stroke-width="8" fill="rgb(224,224,224)" fill-opacity="1"></path></g></g><g><g transform="matrix(1,0,0,1,72.29168701171875,70.10763549804688)"><path transform="matrix(0.017,0,0,-0.017,0,0)" d="M604 347L604 406L65 406L65 347ZM604 134L604 193L65 193L65 134Z" stroke="rgb(224,224,224)" stroke-opacity="1" stroke-width="8" fill="rgb(224,224,224)" fill-opacity="1"></path></g></g></g></g><g><g><g><text x="225.10418701171875" y="160.98959350585938" style="white-space:pre;stroke:none;fill:rgb(224,224,224);fill-opacity:1;font-size:13.5px;font-family:Arial, Helvetica, sans-serif;font-weight:400;font-style:normal;dominant-baseline:text-before-edge;text-decoration:none solid rgb(224, 224, 224);">HBS Public Key</text></g></g></g><g><g><g><g transform="matrix(1,0,0,1,213.107666015625,195.3)"><path transform="matrix(0.015300000000000001,0,0,-0.015300000000000001,0,0)" d="M105 664L160 662C184 661 195 653 195 635L112 125C95 34 94 31 54 28L13 25L9 -3L51 -2C92 -1 123 0 141 0C158 0 187 -1 227 -2L280 -3L283 25L218 28C192 29 182 37 182 58C182 67 183 74 186 93L284 648C320 654 336 656 355 656C457 656 506 612 506 519C506 411 434 323 346 323C324 323 304 328 267 342L269 311C306 293 326 288 355 288C484 288 594 405 594 541C594 642 531 695 412 692L108 692Z" stroke="rgb(224,224,224)" stroke-opacity="1" stroke-width="8" fill="rgb(224,224,224)" fill-opacity="1"></path></g></g><g><g><g><g><g transform="matrix(1,0,0,1,222.89932250976562,199.11277099609376)"><path transform="matrix(0.01071,0,0,-0.01071,0,0)" d="M418 -3L418 27L366 30C311 33 301 44 301 96L301 700L60 598L67 548L217 614L217 96C217 44 206 33 152 30L96 27L96 -3C250 0 250 0 261 0C292 0 402 -3 418 -3Z" stroke="rgb(224,224,224)" stroke-opacity="1" stroke-width="8" fill="rgb(224,224,224)" fill-opacity="1"></path></g></g></g></g></g><g><g transform="matrix(1,0,0,1,233.732666015625,195.3)"><path transform="matrix(0.015300000000000001,0,0,-0.015300000000000001,0,0)" d="M604 347L604 406L65 406L65 347ZM604 134L604 193L65 193L65 134Z" stroke="rgb(224,224,224)" stroke-opacity="1" stroke-width="8" fill="rgb(224,224,224)" fill-opacity="1"></path></g></g><g><g><g><g><text x="248.54168701171875" y="183.33334350585938" style="white-space:pre;stroke:none;fill:rgb(224,224,224);fill-opacity:1;font-size:13.5px;font-family:Arial, Helvetica, sans-serif;font-weight:400;font-style:normal;dominant-baseline:text-before-edge;text-decoration:none solid rgb(224, 224, 224);">HBSKeyGen</text></g></g></g></g><g><g transform="matrix(1,0,0,1,325.03472900390625,196.41111450195314)"><path transform="matrix(0.015300000000000001,0,0,-0.015300000000000001,0,0)" d="M146 266C146 526 243 632 301 700L282 726C225 675 60 542 60 266C60 159 85 58 133 -32C168 -99 200 -138 282 -215L301 -194C255 -137 146 -15 146 266Z" stroke="rgb(224,224,224)" stroke-opacity="1" stroke-width="8" fill="rgb(224,224,224)" fill-opacity="1"></path></g></g><g><g transform="matrix(1,0,0,1,330.12152099609375,195.3)"><path transform="matrix(0.015300000000000001,0,0,-0.015300000000000001,0,0)" d="M176 -11C232 -11 347 62 390 125C431 186 465 296 465 371C465 438 442 482 406 482C364 482 311 456 259 409C218 374 198 348 162 289L186 408C189 425 191 440 191 452C191 471 183 482 169 482C148 482 110 461 36 408L8 388L15 368L47 389C75 407 86 412 95 412C105 412 112 403 112 389C112 381 110 361 108 351L50 8C40 -52 21 -143 1 -233L-7 -270L0 -276C21 -269 41 -264 73 -259L115 3C136 -4 158 -11 176 -11ZM143 165C165 293 272 424 355 424C381 424 393 402 393 356C393 275 353 156 300 80C280 51 248 36 207 36C176 36 151 43 125 59Z" stroke="rgb(224,224,224)" stroke-opacity="1" stroke-width="8" fill="rgb(224,224,224)" fill-opacity="1"></path></g></g><g><g><g><g><g transform="matrix(1,0,0,1,338.21185302734375,199.11277099609376)"><path transform="matrix(0.01071,0,0,-0.01071,0,0)" d="M418 -3L418 27L366 30C311 33 301 44 301 96L301 700L60 598L67 548L217 614L217 96C217 44 206 33 152 30L96 27L96 -3C250 0 250 0 261 0C292 0 402 -3 418 -3Z" stroke="rgb(224,224,224)" stroke-opacity="1" stroke-width="8" fill="rgb(224,224,224)" fill-opacity="1"></path></g></g></g></g></g><g><g transform="matrix(1,0,0,1,344.46185302734375,196.41111450195314)"><path transform="matrix(0.015300000000000001,0,0,-0.015300000000000001,0,0)" d="M51 726L32 700C87 636 187 526 187 266C187 -10 83 -131 32 -194L51 -215C104 -165 273 -23 273 265C273 542 108 675 51 726Z" stroke="rgb(224,224,224)" stroke-opacity="1" stroke-width="8" fill="rgb(224,224,224)" fill-opacity="1"></path></g></g></g></g><g><g><g><text x="145.10418701171875" y="158.99307250976562" style="white-space:pre;stroke:none;fill:rgb(224,224,224);fill-opacity:1;font-size:10.5px;font-family:Arial, Helvetica, sans-serif;font-weight:400;font-style:normal;dominant-baseline:text-before-edge;text-decoration:none solid rgb(224, 224, 224);">HBS keygen</text></g></g></g><g><g><g><text x="557.1007080078125" y="160.98959350585938" style="white-space:pre;stroke:none;fill:rgb(224,224,224);fill-opacity:1;font-size:13.5px;font-family:Arial, Helvetica, sans-serif;font-weight:400;font-style:normal;dominant-baseline:text-before-edge;text-decoration:none solid rgb(224, 224, 224);">EC Public Key</text></g></g></g><g><g><g><g transform="matrix(1,0,0,1,569.0972290039062,196.2895935058594)"><path transform="matrix(0.015300000000000001,0,0,-0.015300000000000001,0,0)" d="M371 664L374 692L350 692L260 689C244 689 226 689 183 690L119 692L116 664L163 662C187 661 198 653 198 635C198 621 195 592 189 559L116 125C99 33 98 32 58 28L17 25L13 -3L55 -2C103 -1 126 0 145 0L242 -3L268 -3L271 25L222 28C195 30 186 37 186 57C186 63 187 74 188 78L231 340C381 169 404 140 509 -3L578 0C614 -1 620 -2 646 -3L646 27L626 27C603 27 583 39 562 65L316 367L608 640C624 655 645 665 662 665L683 665L683 692L660 691C639 690 623 689 615 689C605 689 589 690 568 691L548 692L548 663C548 655 538 642 510 614C466 569 297 403 233 353L278 613C285 651 292 658 329 661Z" stroke="rgb(224,224,224)" stroke-opacity="1" stroke-width="8" fill="rgb(224,224,224)" fill-opacity="1"></path></g></g><g><g><g><g><g transform="matrix(1,0,0,1,579.7396240234375,200.10236450195313)"><path transform="matrix(0.01071,0,0,-0.01071,0,0)" d="M418 -3L418 27L366 30C311 33 301 44 301 96L301 700L60 598L67 548L217 614L217 96C217 44 206 33 152 30L96 27L96 -3C250 0 250 0 261 0C292 0 402 -3 418 -3Z" stroke="rgb(224,224,224)" stroke-opacity="1" stroke-width="8" fill="rgb(224,224,224)" fill-opacity="1"></path></g></g></g></g></g><g><g transform="matrix(1,0,0,1,590.5729370117188,196.2895935058594)"><path transform="matrix(0.015300000000000001,0,0,-0.015300000000000001,0,0)" d="M604 347L604 406L65 406L65 347ZM604 134L604 193L65 193L65 134Z" stroke="rgb(224,224,224)" stroke-opacity="1" stroke-width="8" fill="rgb(224,224,224)" fill-opacity="1"></path></g></g><g><g transform="matrix(1,0,0,1,605.3819580078125,196.2895935058594)"><path transform="matrix(0.015300000000000001,0,0,-0.015300000000000001,0,0)" d="M240 722L228 733C176 707 140 698 68 691L64 670L112 670C136 670 146 663 146 646C146 638 145 629 144 622L96 354C82 279 66 210 14 1L23 -9L90 8L113 132C122 180 146 225 180 259C249 59 281 -9 306 -9C319 -9 343 4 387 35L433 67L425 86L382 62C368 54 361 52 353 52C343 52 336 58 327 75C292 139 270 193 231 316L245 330C306 391 352 416 402 416C410 416 421 414 438 410L455 473C437 479 419 482 407 482C341 482 258 405 133 230Z" stroke="rgb(224,224,224)" stroke-opacity="1" stroke-width="8" fill="rgb(224,224,224)" fill-opacity="1"></path></g></g><g><g><g><g><g transform="matrix(1,0,0,1,613.0034790039062,200.10236450195313)"><path transform="matrix(0.01071,0,0,-0.01071,0,0)" d="M418 -3L418 27L366 30C311 33 301 44 301 96L301 700L60 598L67 548L217 614L217 96C217 44 206 33 152 30L96 27L96 -3C250 0 250 0 261 0C292 0 402 -3 418 -3Z" stroke="rgb(224,224,224)" stroke-opacity="1" stroke-width="8" fill="rgb(224,224,224)" fill-opacity="1"></path></g></g></g></g></g><g><g transform="matrix(1,0,0,1,619.2534790039062,196.2895935058594)"><path transform="matrix(0.015300000000000001,0,0,-0.015300000000000001,0,0)" d="M434 653C511 653 565 639 621 603L621 519L648 519C653 576 661 619 675 665C592 695 535 706 466 706C374 706 301 683 229 632C112 548 50 424 50 274C50 87 159 -18 355 -18C412 -21 559 6 608 37C628 193 632 216 633 219C635 228 647 238 660 240L692 246L694 274C655 270 620 269 569 269C518 269 482 270 440 274L435 246L469 244C544 240 553 236 553 212C553 197 533 84 528 60C483 36 444 27 390 27C224 27 138 120 138 297C138 443 197 653 434 653Z" stroke="rgb(224,224,224)" stroke-opacity="1" stroke-width="8" fill="rgb(224,224,224)" fill-opacity="1"></path></g></g></g></g><g><g><g><text x="515.7118530273438" y="148.99307250976562" style="white-space:pre;stroke:none;fill:rgb(224,224,224);fill-opacity:1;font-size:10.5px;font-family:Arial, Helvetica, sans-serif;font-weight:400;font-style:normal;dominant-baseline:text-before-edge;text-decoration:none solid rgb(224, 224, 224);">EC</text></g></g><g><g><text x="506.09375" y="159.49652099609375" style="white-space:pre;stroke:none;fill:rgb(224,224,224);fill-opacity:1;font-size:10.5px;font-family:Arial, Helvetica, sans-serif;font-weight:400;font-style:normal;dominant-baseline:text-before-edge;text-decoration:none solid rgb(224, 224, 224);">keygen</text></g></g></g><g><g><g><text x="399.09722900390625" y="240.98959350585938" style="white-space:pre;stroke:none;fill:rgb(224,224,224);fill-opacity:1;font-size:13.5px;font-family:Arial, Helvetica, sans-serif;font-weight:400;font-style:normal;dominant-baseline:text-before-edge;text-decoration:none solid rgb(224, 224, 224);">EC Secret Key</text></g></g></g><g><g><g><g transform="matrix(1,0,0,1,410.10418701171875,274.29307250976564)"><path transform="matrix(0.015300000000000001,0,0,-0.015300000000000001,0,0)" d="M240 722L228 733C176 707 140 698 68 691L64 670L112 670C136 670 146 663 146 646C146 638 145 629 144 622L96 354C82 279 66 210 14 1L23 -9L90 8L113 132C122 180 146 225 180 259C249 59 281 -9 306 -9C319 -9 343 4 387 35L433 67L425 86L382 62C368 54 361 52 353 52C343 52 336 58 327 75C292 139 270 193 231 316L245 330C306 391 352 416 402 416C410 416 421 414 438 410L455 473C437 479 419 482 407 482C341 482 258 405 133 230Z" stroke="rgb(224,224,224)" stroke-opacity="1" stroke-width="8" fill="rgb(224,224,224)" fill-opacity="1"></path></g></g><g><g><g><g><g transform="matrix(1,0,0,1,417.7257080078125,278.10584350585935)"><path transform="matrix(0.01071,0,0,-0.01071,0,0)" d="M16 23L16 -3C203 -3 203 0 239 0C275 0 275 -3 468 -3L468 82C353 77 307 81 122 77L304 270C401 373 431 428 431 503C431 618 353 689 226 689C154 689 105 669 56 619L39 483L68 483L81 529C97 587 133 612 200 612C286 612 341 558 341 473C341 398 299 324 186 204Z" stroke="rgb(224,224,224)" stroke-opacity="1" stroke-width="8" fill="rgb(224,224,224)" fill-opacity="1"></path></g></g></g></g></g><g><g transform="matrix(1,0,0,1,428.55908203125,274.29307250976564)"><path transform="matrix(0.015300000000000001,0,0,-0.015300000000000001,0,0)" d="M604 347L604 406L65 406L65 347ZM604 134L604 193L65 193L65 134Z" stroke="rgb(224,224,224)" stroke-opacity="1" stroke-width="8" fill="rgb(224,224,224)" fill-opacity="1"></path></g></g><g><g transform="matrix(1,0,0,1,443.36810302734375,274.29307250976564)"><path transform="matrix(0.015300000000000001,0,0,-0.015300000000000001,0,0)" d="M221 385L263 613C270 652 277 658 314 661L356 664L359 692L335 692L245 689C229 689 211 689 168 690L104 692L101 664L148 662C172 661 183 653 183 635C183 621 179 590 174 559L100 125C83 33 82 32 42 28L1 25L-3 -3L39 -2C87 -1 110 0 129 0L226 -3L252 -3L255 25L206 28C179 30 170 37 170 58C170 67 171 74 174 93L216 340L277 341C339 342 381 343 400 343C419 343 460 342 523 341L584 340L544 125C535 76 528 48 523 42C519 34 508 30 486 28L436 25L432 -3L488 -2C532 -1 562 0 573 0C589 0 620 -1 663 -2L705 -3L708 25L650 28C624 29 614 37 614 58C614 67 615 76 618 93L710 613C717 652 723 657 761 661L797 664L800 692L784 692L693 689C678 689 657 689 613 690L550 692L547 664L595 662C619 661 630 653 630 635C630 621 626 589 621 559L591 385Z" stroke="rgb(224,224,224)" stroke-opacity="1" stroke-width="8" fill="rgb(224,224,224)" fill-opacity="1"></path></g></g><g><g transform="matrix(1,0,0,1,455.26043701171875,275.40418701171876)"><path transform="matrix(0.015300000000000001,0,0,-0.015300000000000001,0,0)" d="M146 266C146 526 243 632 301 700L282 726C225 675 60 542 60 266C60 159 85 58 133 -32C168 -99 200 -138 282 -215L301 -194C255 -137 146 -15 146 266Z" stroke="rgb(224,224,224)" stroke-opacity="1" stroke-width="8" fill="rgb(224,224,224)" fill-opacity="1"></path></g></g><g><g transform="matrix(1,0,0,1,460.34722900390625,274.29307250976564)"><path transform="matrix(0.015300000000000001,0,0,-0.015300000000000001,0,0)" d="M105 664L160 662C184 661 195 653 195 635L112 125C95 34 94 31 54 28L13 25L9 -3L51 -2C92 -1 123 0 141 0C158 0 187 -1 227 -2L280 -3L283 25L218 28C192 29 182 37 182 58C182 67 183 74 186 93L284 648C320 654 336 656 355 656C457 656 506 612 506 519C506 411 434 323 346 323C324 323 304 328 267 342L269 311C306 293 326 288 355 288C484 288 594 405 594 541C594 642 531 695 412 692L108 692Z" stroke="rgb(224,224,224)" stroke-opacity="1" stroke-width="8" fill="rgb(224,224,224)" fill-opacity="1"></path></g></g><g><g><g><g><g transform="matrix(1,0,0,1,470.138916015625,278.10584350585935)"><path transform="matrix(0.01071,0,0,-0.01071,0,0)" d="M16 23L16 -3C203 -3 203 0 239 0C275 0 275 -3 468 -3L468 82C353 77 307 81 122 77L304 270C401 373 431 428 431 503C431 618 353 689 226 689C154 689 105 669 56 619L39 483L68 483L81 529C97 587 133 612 200 612C286 612 341 558 341 473C341 398 299 324 186 204Z" stroke="rgb(224,224,224)" stroke-opacity="1" stroke-width="8" fill="rgb(224,224,224)" fill-opacity="1"></path></g></g></g></g></g><g><g transform="matrix(1,0,0,1,476.388916015625,275.40418701171876)"><path transform="matrix(0.015300000000000001,0,0,-0.015300000000000001,0,0)" d="M51 726L32 700C87 636 187 526 187 266C187 -10 83 -131 32 -194L51 -215C104 -165 273 -23 273 265C273 542 108 675 51 726Z" stroke="rgb(224,224,224)" stroke-opacity="1" stroke-width="8" fill="rgb(224,224,224)" fill-opacity="1"></path></g></g></g></g><g><g><g><text x="62.1007080078125" y="240" style="white-space:pre;stroke:none;fill:rgb(224,224,224);fill-opacity:1;font-size:13.5px;font-family:Arial, Helvetica, sans-serif;font-weight:400;font-style:normal;dominant-baseline:text-before-edge;text-decoration:none solid rgb(224, 224, 224);">HBS Seed</text></g></g></g><g><g><g><g transform="matrix(1,0,0,1,58.107635498046875,274.29307250976564)"><path transform="matrix(0.015300000000000001,0,0,-0.015300000000000001,0,0)" d="M176 -11C232 -11 347 62 390 125C431 186 465 296 465 371C465 438 442 482 406 482C364 482 311 456 259 409C218 374 198 348 162 289L186 408C189 425 191 440 191 452C191 471 183 482 169 482C148 482 110 461 36 408L8 388L15 368L47 389C75 407 86 412 95 412C105 412 112 403 112 389C112 381 110 361 108 351L50 8C40 -52 21 -143 1 -233L-7 -270L0 -276C21 -269 41 -264 73 -259L115 3C136 -4 158 -11 176 -11ZM143 165C165 293 272 424 355 424C381 424 393 402 393 356C393 275 353 156 300 80C280 51 248 36 207 36C176 36 151 43 125 59Z" stroke="rgb(224,224,224)" stroke-opacity="1" stroke-width="8" fill="rgb(224,224,224)" fill-opacity="1"></path></g></g><g><g><g><g><g transform="matrix(1,0,0,1,66.19793701171875,278.10584350585935)"><path transform="matrix(0.01071,0,0,-0.01071,0,0)" d="M16 23L16 -3C203 -3 203 0 239 0C275 0 275 -3 468 -3L468 82C353 77 307 81 122 77L304 270C401 373 431 428 431 503C431 618 353 689 226 689C154 689 105 669 56 619L39 483L68 483L81 529C97 587 133 612 200 612C286 612 341 558 341 473C341 398 299 324 186 204Z" stroke="rgb(224,224,224)" stroke-opacity="1" stroke-width="8" fill="rgb(224,224,224)" fill-opacity="1"></path></g></g></g></g></g><g><g transform="matrix(1,0,0,1,77.03125,274.29307250976564)"><path transform="matrix(0.015300000000000001,0,0,-0.015300000000000001,0,0)" d="M604 347L604 406L65 406L65 347ZM604 134L604 193L65 193L65 134Z" stroke="rgb(224,224,224)" stroke-opacity="1" stroke-width="8" fill="rgb(224,224,224)" fill-opacity="1"></path></g></g><g><g transform="matrix(1,0,0,1,91.84030151367188,274.29307250976564)"><path transform="matrix(0.015300000000000001,0,0,-0.015300000000000001,0,0)" d="M221 385L263 613C270 652 277 658 314 661L356 664L359 692L335 692L245 689C229 689 211 689 168 690L104 692L101 664L148 662C172 661 183 653 183 635C183 621 179 590 174 559L100 125C83 33 82 32 42 28L1 25L-3 -3L39 -2C87 -1 110 0 129 0L226 -3L252 -3L255 25L206 28C179 30 170 37 170 58C170 67 171 74 174 93L216 340L277 341C339 342 381 343 400 343C419 343 460 342 523 341L584 340L544 125C535 76 528 48 523 42C519 34 508 30 486 28L436 25L432 -3L488 -2C532 -1 562 0 573 0C589 0 620 -1 663 -2L705 -3L708 25L650 28C624 29 614 37 614 58C614 67 615 76 618 93L710 613C717 652 723 657 761 661L797 664L800 692L784 692L693 689C678 689 657 689 613 690L550 692L547 664L595 662C619 661 630 653 630 635C630 621 626 589 621 559L591 385Z" stroke="rgb(224,224,224)" stroke-opacity="1" stroke-width="8" fill="rgb(224,224,224)" fill-opacity="1"></path></g></g><g><g transform="matrix(1,0,0,1,103.73263549804688,275.40418701171876)"><path transform="matrix(0.015300000000000001,0,0,-0.015300000000000001,0,0)" d="M146 266C146 526 243 632 301 700L282 726C225 675 60 542 60 266C60 159 85 58 133 -32C168 -99 200 -138 282 -215L301 -194C255 -137 146 -15 146 266Z" stroke="rgb(224,224,224)" stroke-opacity="1" stroke-width="8" fill="rgb(224,224,224)" fill-opacity="1"></path></g></g><g><g transform="matrix(1,0,0,1,108.8194580078125,274.29307250976564)"><path transform="matrix(0.015300000000000001,0,0,-0.015300000000000001,0,0)" d="M31 148C26 97 20 62 9 16C47 -2 81 -11 116 -11C165 -11 211 7 262 47C313 87 334 124 334 174C334 228 302 257 228 271L185 279C125 290 106 307 106 348C106 401 151 442 208 442C249 442 287 424 303 397L303 342L326 342C330 377 334 404 345 455C306 474 278 482 245 482C193 482 132 452 84 404C58 377 47 352 47 316C47 260 78 228 144 215L207 203C251 195 267 177 267 138C267 73 221 29 150 29C115 29 84 40 56 64L56 148Z" stroke="rgb(224,224,224)" stroke-opacity="1" stroke-width="8" fill="rgb(224,224,224)" fill-opacity="1"></path></g></g><g><g transform="matrix(1,0,0,1,114.7569580078125,274.29307250976564)"><path transform="matrix(0.015300000000000001,0,0,-0.015300000000000001,0,0)" d="M204 123C177 114 159 108 106 93C99 17 74 -48 16 -144L30 -155L71 -136C152 -31 190 32 218 109Z" stroke="rgb(224,224,224)" stroke-opacity="1" stroke-width="8" fill="rgb(224,224,224)" fill-opacity="1"></path></g></g><g><g transform="matrix(1,0,0,1,121.6319580078125,274.29307250976564)"><path transform="matrix(0.015300000000000001,0,0,-0.015300000000000001,0,0)" d="M265 23L265 -3C452 -3 452 0 488 0C524 0 524 -3 717 -3L717 82C602 77 556 81 371 77L553 270C650 373 680 428 680 503C680 618 602 689 475 689C403 689 354 669 305 619L288 483L317 483L330 529C346 587 382 612 449 612C535 612 590 558 590 473C590 398 548 324 435 204Z" stroke="rgb(224,224,224)" stroke-opacity="1" stroke-width="8" fill="rgb(224,224,224)" fill-opacity="1"></path></g></g><g><g transform="matrix(1,0,0,1,133.07293701171875,275.40418701171876)"><path transform="matrix(0.015300000000000001,0,0,-0.015300000000000001,0,0)" d="M51 726L32 700C87 636 187 526 187 266C187 -10 83 -131 32 -194L51 -215C104 -165 273 -23 273 265C273 542 108 675 51 726Z" stroke="rgb(224,224,224)" stroke-opacity="1" stroke-width="8" fill="rgb(224,224,224)" fill-opacity="1"></path></g></g></g></g><g><g><g><text x="225.10418701171875" y="240.98959350585938" style="white-space:pre;stroke:none;fill:rgb(224,224,224);fill-opacity:1;font-size:13.5px;font-family:Arial, Helvetica, sans-serif;font-weight:400;font-style:normal;dominant-baseline:text-before-edge;text-decoration:none solid rgb(224, 224, 224);">HBS Public Key</text></g></g></g><g><g><g><g transform="matrix(1,0,0,1,213.107666015625,275.3)"><path transform="matrix(0.015300000000000001,0,0,-0.015300000000000001,0,0)" d="M105 664L160 662C184 661 195 653 195 635L112 125C95 34 94 31 54 28L13 25L9 -3L51 -2C92 -1 123 0 141 0C158 0 187 -1 227 -2L280 -3L283 25L218 28C192 29 182 37 182 58C182 67 183 74 186 93L284 648C320 654 336 656 355 656C457 656 506 612 506 519C506 411 434 323 346 323C324 323 304 328 267 342L269 311C306 293 326 288 355 288C484 288 594 405 594 541C594 642 531 695 412 692L108 692Z" stroke="rgb(224,224,224)" stroke-opacity="1" stroke-width="8" fill="rgb(224,224,224)" fill-opacity="1"></path></g></g><g><g><g><g><g transform="matrix(1,0,0,1,222.89932250976562,279.11280151367185)"><path transform="matrix(0.01071,0,0,-0.01071,0,0)" d="M16 23L16 -3C203 -3 203 0 239 0C275 0 275 -3 468 -3L468 82C353 77 307 81 122 77L304 270C401 373 431 428 431 503C431 618 353 689 226 689C154 689 105 669 56 619L39 483L68 483L81 529C97 587 133 612 200 612C286 612 341 558 341 473C341 398 299 324 186 204Z" stroke="rgb(224,224,224)" stroke-opacity="1" stroke-width="8" fill="rgb(224,224,224)" fill-opacity="1"></path></g></g></g></g></g><g><g transform="matrix(1,0,0,1,233.732666015625,275.3)"><path transform="matrix(0.015300000000000001,0,0,-0.015300000000000001,0,0)" d="M604 347L604 406L65 406L65 347ZM604 134L604 193L65 193L65 134Z" stroke="rgb(224,224,224)" stroke-opacity="1" stroke-width="8" fill="rgb(224,224,224)" fill-opacity="1"></path></g></g><g><g><g><g><text x="248.54168701171875" y="263.3333435058594" style="white-space:pre;stroke:none;fill:rgb(224,224,224);fill-opacity:1;font-size:13.5px;font-family:Arial, Helvetica, sans-serif;font-weight:400;font-style:normal;dominant-baseline:text-before-edge;text-decoration:none solid rgb(224, 224, 224);">HBSKeyGen</text></g></g></g></g><g><g transform="matrix(1,0,0,1,325.03472900390625,276.41111450195314)"><path transform="matrix(0.015300000000000001,0,0,-0.015300000000000001,0,0)" d="M146 266C146 526 243 632 301 700L282 726C225 675 60 542 60 266C60 159 85 58 133 -32C168 -99 200 -138 282 -215L301 -194C255 -137 146 -15 146 266Z" stroke="rgb(224,224,224)" stroke-opacity="1" stroke-width="8" fill="rgb(224,224,224)" fill-opacity="1"></path></g></g><g><g transform="matrix(1,0,0,1,330.12152099609375,275.3)"><path transform="matrix(0.015300000000000001,0,0,-0.015300000000000001,0,0)" d="M176 -11C232 -11 347 62 390 125C431 186 465 296 465 371C465 438 442 482 406 482C364 482 311 456 259 409C218 374 198 348 162 289L186 408C189 425 191 440 191 452C191 471 183 482 169 482C148 482 110 461 36 408L8 388L15 368L47 389C75 407 86 412 95 412C105 412 112 403 112 389C112 381 110 361 108 351L50 8C40 -52 21 -143 1 -233L-7 -270L0 -276C21 -269 41 -264 73 -259L115 3C136 -4 158 -11 176 -11ZM143 165C165 293 272 424 355 424C381 424 393 402 393 356C393 275 353 156 300 80C280 51 248 36 207 36C176 36 151 43 125 59Z" stroke="rgb(224,224,224)" stroke-opacity="1" stroke-width="8" fill="rgb(224,224,224)" fill-opacity="1"></path></g></g><g><g><g><g><g transform="matrix(1,0,0,1,338.21185302734375,279.11280151367185)"><path transform="matrix(0.01071,0,0,-0.01071,0,0)" d="M16 23L16 -3C203 -3 203 0 239 0C275 0 275 -3 468 -3L468 82C353 77 307 81 122 77L304 270C401 373 431 428 431 503C431 618 353 689 226 689C154 689 105 669 56 619L39 483L68 483L81 529C97 587 133 612 200 612C286 612 341 558 341 473C341 398 299 324 186 204Z" stroke="rgb(224,224,224)" stroke-opacity="1" stroke-width="8" fill="rgb(224,224,224)" fill-opacity="1"></path></g></g></g></g></g><g><g transform="matrix(1,0,0,1,344.46185302734375,276.41111450195314)"><path transform="matrix(0.015300000000000001,0,0,-0.015300000000000001,0,0)" d="M51 726L32 700C87 636 187 526 187 266C187 -10 83 -131 32 -194L51 -215C104 -165 273 -23 273 265C273 542 108 675 51 726Z" stroke="rgb(224,224,224)" stroke-opacity="1" stroke-width="8" fill="rgb(224,224,224)" fill-opacity="1"></path></g></g></g></g><g><g><g><text x="145.10418701171875" y="238.99307250976562" style="white-space:pre;stroke:none;fill:rgb(224,224,224);fill-opacity:1;font-size:10.5px;font-family:Arial, Helvetica, sans-serif;font-weight:400;font-style:normal;dominant-baseline:text-before-edge;text-decoration:none solid rgb(224, 224, 224);">HBS keygen</text></g></g></g><g><g><g><text x="557.1007080078125" y="240.98959350585938" style="white-space:pre;stroke:none;fill:rgb(224,224,224);fill-opacity:1;font-size:13.5px;font-family:Arial, Helvetica, sans-serif;font-weight:400;font-style:normal;dominant-baseline:text-before-edge;text-decoration:none solid rgb(224, 224, 224);">EC Public Key</text></g></g></g><g><g><g><g transform="matrix(1,0,0,1,569.0972290039062,276.2895935058594)"><path transform="matrix(0.015300000000000001,0,0,-0.015300000000000001,0,0)" d="M371 664L374 692L350 692L260 689C244 689 226 689 183 690L119 692L116 664L163 662C187 661 198 653 198 635C198 621 195 592 189 559L116 125C99 33 98 32 58 28L17 25L13 -3L55 -2C103 -1 126 0 145 0L242 -3L268 -3L271 25L222 28C195 30 186 37 186 57C186 63 187 74 188 78L231 340C381 169 404 140 509 -3L578 0C614 -1 620 -2 646 -3L646 27L626 27C603 27 583 39 562 65L316 367L608 640C624 655 645 665 662 665L683 665L683 692L660 691C639 690 623 689 615 689C605 689 589 690 568 691L548 692L548 663C548 655 538 642 510 614C466 569 297 403 233 353L278 613C285 651 292 658 329 661Z" stroke="rgb(224,224,224)" stroke-opacity="1" stroke-width="8" fill="rgb(224,224,224)" fill-opacity="1"></path></g></g><g><g><g><g><g transform="matrix(1,0,0,1,579.7396240234375,280.1023645019531)"><path transform="matrix(0.01071,0,0,-0.01071,0,0)" d="M16 23L16 -3C203 -3 203 0 239 0C275 0 275 -3 468 -3L468 82C353 77 307 81 122 77L304 270C401 373 431 428 431 503C431 618 353 689 226 689C154 689 105 669 56 619L39 483L68 483L81 529C97 587 133 612 200 612C286 612 341 558 341 473C341 398 299 324 186 204Z" stroke="rgb(224,224,224)" stroke-opacity="1" stroke-width="8" fill="rgb(224,224,224)" fill-opacity="1"></path></g></g></g></g></g><g><g transform="matrix(1,0,0,1,590.5729370117188,276.2895935058594)"><path transform="matrix(0.015300000000000001,0,0,-0.015300000000000001,0,0)" d="M604 347L604 406L65 406L65 347ZM604 134L604 193L65 193L65 134Z" stroke="rgb(224,224,224)" stroke-opacity="1" stroke-width="8" fill="rgb(224,224,224)" fill-opacity="1"></path></g></g><g><g transform="matrix(1,0,0,1,605.3819580078125,276.2895935058594)"><path transform="matrix(0.015300000000000001,0,0,-0.015300000000000001,0,0)" d="M240 722L228 733C176 707 140 698 68 691L64 670L112 670C136 670 146 663 146 646C146 638 145 629 144 622L96 354C82 279 66 210 14 1L23 -9L90 8L113 132C122 180 146 225 180 259C249 59 281 -9 306 -9C319 -9 343 4 387 35L433 67L425 86L382 62C368 54 361 52 353 52C343 52 336 58 327 75C292 139 270 193 231 316L245 330C306 391 352 416 402 416C410 416 421 414 438 410L455 473C437 479 419 482 407 482C341 482 258 405 133 230Z" stroke="rgb(224,224,224)" stroke-opacity="1" stroke-width="8" fill="rgb(224,224,224)" fill-opacity="1"></path></g></g><g><g><g><g><g transform="matrix(1,0,0,1,613.0034790039062,280.1023645019531)"><path transform="matrix(0.01071,0,0,-0.01071,0,0)" d="M16 23L16 -3C203 -3 203 0 239 0C275 0 275 -3 468 -3L468 82C353 77 307 81 122 77L304 270C401 373 431 428 431 503C431 618 353 689 226 689C154 689 105 669 56 619L39 483L68 483L81 529C97 587 133 612 200 612C286 612 341 558 341 473C341 398 299 324 186 204Z" stroke="rgb(224,224,224)" stroke-opacity="1" stroke-width="8" fill="rgb(224,224,224)" fill-opacity="1"></path></g></g></g></g></g><g><g transform="matrix(1,0,0,1,619.2534790039062,276.2895935058594)"><path transform="matrix(0.015300000000000001,0,0,-0.015300000000000001,0,0)" d="M434 653C511 653 565 639 621 603L621 519L648 519C653 576 661 619 675 665C592 695 535 706 466 706C374 706 301 683 229 632C112 548 50 424 50 274C50 87 159 -18 355 -18C412 -21 559 6 608 37C628 193 632 216 633 219C635 228 647 238 660 240L692 246L694 274C655 270 620 269 569 269C518 269 482 270 440 274L435 246L469 244C544 240 553 236 553 212C553 197 533 84 528 60C483 36 444 27 390 27C224 27 138 120 138 297C138 443 197 653 434 653Z" stroke="rgb(224,224,224)" stroke-opacity="1" stroke-width="8" fill="rgb(224,224,224)" fill-opacity="1"></path></g></g></g></g><g><g><g><text x="515.7118530273438" y="228.99307250976562" style="white-space:pre;stroke:none;fill:rgb(224,224,224);fill-opacity:1;font-size:10.5px;font-family:Arial, Helvetica, sans-serif;font-weight:400;font-style:normal;dominant-baseline:text-before-edge;text-decoration:none solid rgb(224, 224, 224);">EC</text></g></g><g><g><text x="506.09375" y="239.49655151367188" style="white-space:pre;stroke:none;fill:rgb(224,224,224);fill-opacity:1;font-size:10.5px;font-family:Arial, Helvetica, sans-serif;font-weight:400;font-style:normal;dominant-baseline:text-before-edge;text-decoration:none solid rgb(224, 224, 224);">keygen</text></g></g></g><g><g><g><text x="399.09722900390625" y="320.9895935058594" style="white-space:pre;stroke:none;fill:rgb(224,224,224);fill-opacity:1;font-size:13.5px;font-family:Arial, Helvetica, sans-serif;font-weight:400;font-style:normal;dominant-baseline:text-before-edge;text-decoration:none solid rgb(224, 224, 224);">EC Secret Key</text></g></g></g><g><g><g><g transform="matrix(1,0,0,1,410.10418701171875,354.29307250976564)"><path transform="matrix(0.015300000000000001,0,0,-0.015300000000000001,0,0)" d="M240 722L228 733C176 707 140 698 68 691L64 670L112 670C136 670 146 663 146 646C146 638 145 629 144 622L96 354C82 279 66 210 14 1L23 -9L90 8L113 132C122 180 146 225 180 259C249 59 281 -9 306 -9C319 -9 343 4 387 35L433 67L425 86L382 62C368 54 361 52 353 52C343 52 336 58 327 75C292 139 270 193 231 316L245 330C306 391 352 416 402 416C410 416 421 414 438 410L455 473C437 479 419 482 407 482C341 482 258 405 133 230Z" stroke="rgb(224,224,224)" stroke-opacity="1" stroke-width="8" fill="rgb(224,224,224)" fill-opacity="1"></path></g></g><g><g><g><g><g transform="matrix(1,0,0,1,417.7257080078125,358.10584350585935)"><path transform="matrix(0.01071,0,0,-0.01071,0,0)" d="M462 224C462 345 355 366 308 374C388 436 418 482 418 541C418 630 344 689 233 689C165 689 120 670 72 622L43 498L74 498L92 554C103 588 166 622 218 622C283 622 336 569 336 506C336 431 277 368 206 368C198 368 187 369 174 370L159 371L147 318L154 312C192 329 211 334 238 334C321 334 369 281 369 190C369 88 308 21 215 21C169 21 128 36 98 64C74 86 61 109 42 163L15 153C36 92 44 56 50 6C103 -12 147 -20 184 -20C307 -20 462 87 462 224Z" stroke="rgb(224,224,224)" stroke-opacity="1" stroke-width="8" fill="rgb(224,224,224)" fill-opacity="1"></path></g></g></g></g></g><g><g transform="matrix(1,0,0,1,428.55908203125,354.29307250976564)"><path transform="matrix(0.015300000000000001,0,0,-0.015300000000000001,0,0)" d="M604 347L604 406L65 406L65 347ZM604 134L604 193L65 193L65 134Z" stroke="rgb(224,224,224)" stroke-opacity="1" stroke-width="8" fill="rgb(224,224,224)" fill-opacity="1"></path></g></g><g><g transform="matrix(1,0,0,1,443.36810302734375,354.29307250976564)"><path transform="matrix(0.015300000000000001,0,0,-0.015300000000000001,0,0)" d="M221 385L263 613C270 652 277 658 314 661L356 664L359 692L335 692L245 689C229 689 211 689 168 690L104 692L101 664L148 662C172 661 183 653 183 635C183 621 179 590 174 559L100 125C83 33 82 32 42 28L1 25L-3 -3L39 -2C87 -1 110 0 129 0L226 -3L252 -3L255 25L206 28C179 30 170 37 170 58C170 67 171 74 174 93L216 340L277 341C339 342 381 343 400 343C419 343 460 342 523 341L584 340L544 125C535 76 528 48 523 42C519 34 508 30 486 28L436 25L432 -3L488 -2C532 -1 562 0 573 0C589 0 620 -1 663 -2L705 -3L708 25L650 28C624 29 614 37 614 58C614 67 615 76 618 93L710 613C717 652 723 657 761 661L797 664L800 692L784 692L693 689C678 689 657 689 613 690L550 692L547 664L595 662C619 661 630 653 630 635C630 621 626 589 621 559L591 385Z" stroke="rgb(224,224,224)" stroke-opacity="1" stroke-width="8" fill="rgb(224,224,224)" fill-opacity="1"></path></g></g><g><g transform="matrix(1,0,0,1,455.26043701171875,355.40418701171876)"><path transform="matrix(0.015300000000000001,0,0,-0.015300000000000001,0,0)" d="M146 266C146 526 243 632 301 700L282 726C225 675 60 542 60 266C60 159 85 58 133 -32C168 -99 200 -138 282 -215L301 -194C255 -137 146 -15 146 266Z" stroke="rgb(224,224,224)" stroke-opacity="1" stroke-width="8" fill="rgb(224,224,224)" fill-opacity="1"></path></g></g><g><g transform="matrix(1,0,0,1,460.34722900390625,354.29307250976564)"><path transform="matrix(0.015300000000000001,0,0,-0.015300000000000001,0,0)" d="M105 664L160 662C184 661 195 653 195 635L112 125C95 34 94 31 54 28L13 25L9 -3L51 -2C92 -1 123 0 141 0C158 0 187 -1 227 -2L280 -3L283 25L218 28C192 29 182 37 182 58C182 67 183 74 186 93L284 648C320 654 336 656 355 656C457 656 506 612 506 519C506 411 434 323 346 323C324 323 304 328 267 342L269 311C306 293 326 288 355 288C484 288 594 405 594 541C594 642 531 695 412 692L108 692Z" stroke="rgb(224,224,224)" stroke-opacity="1" stroke-width="8" fill="rgb(224,224,224)" fill-opacity="1"></path></g></g><g><g><g><g><g transform="matrix(1,0,0,1,470.138916015625,358.10584350585935)"><path transform="matrix(0.01071,0,0,-0.01071,0,0)" d="M462 224C462 345 355 366 308 374C388 436 418 482 418 541C418 630 344 689 233 689C165 689 120 670 72 622L43 498L74 498L92 554C103 588 166 622 218 622C283 622 336 569 336 506C336 431 277 368 206 368C198 368 187 369 174 370L159 371L147 318L154 312C192 329 211 334 238 334C321 334 369 281 369 190C369 88 308 21 215 21C169 21 128 36 98 64C74 86 61 109 42 163L15 153C36 92 44 56 50 6C103 -12 147 -20 184 -20C307 -20 462 87 462 224Z" stroke="rgb(224,224,224)" stroke-opacity="1" stroke-width="8" fill="rgb(224,224,224)" fill-opacity="1"></path></g></g></g></g></g><g><g transform="matrix(1,0,0,1,476.388916015625,355.40418701171876)"><path transform="matrix(0.015300000000000001,0,0,-0.015300000000000001,0,0)" d="M51 726L32 700C87 636 187 526 187 266C187 -10 83 -131 32 -194L51 -215C104 -165 273 -23 273 265C273 542 108 675 51 726Z" stroke="rgb(224,224,224)" stroke-opacity="1" stroke-width="8" fill="rgb(224,224,224)" fill-opacity="1"></path></g></g></g></g><g><g><g><text x="62.1007080078125" y="320" style="white-space:pre;stroke:none;fill:rgb(224,224,224);fill-opacity:1;font-size:13.5px;font-family:Arial, Helvetica, sans-serif;font-weight:400;font-style:normal;dominant-baseline:text-before-edge;text-decoration:none solid rgb(224, 224, 224);">HBS Seed</text></g></g></g><g><g><g><g transform="matrix(1,0,0,1,58.107635498046875,354.29307250976564)"><path transform="matrix(0.015300000000000001,0,0,-0.015300000000000001,0,0)" d="M176 -11C232 -11 347 62 390 125C431 186 465 296 465 371C465 438 442 482 406 482C364 482 311 456 259 409C218 374 198 348 162 289L186 408C189 425 191 440 191 452C191 471 183 482 169 482C148 482 110 461 36 408L8 388L15 368L47 389C75 407 86 412 95 412C105 412 112 403 112 389C112 381 110 361 108 351L50 8C40 -52 21 -143 1 -233L-7 -270L0 -276C21 -269 41 -264 73 -259L115 3C136 -4 158 -11 176 -11ZM143 165C165 293 272 424 355 424C381 424 393 402 393 356C393 275 353 156 300 80C280 51 248 36 207 36C176 36 151 43 125 59Z" stroke="rgb(224,224,224)" stroke-opacity="1" stroke-width="8" fill="rgb(224,224,224)" fill-opacity="1"></path></g></g><g><g><g><g><g transform="matrix(1,0,0,1,66.19793701171875,358.10584350585935)"><path transform="matrix(0.01071,0,0,-0.01071,0,0)" d="M462 224C462 345 355 366 308 374C388 436 418 482 418 541C418 630 344 689 233 689C165 689 120 670 72 622L43 498L74 498L92 554C103 588 166 622 218 622C283 622 336 569 336 506C336 431 277 368 206 368C198 368 187 369 174 370L159 371L147 318L154 312C192 329 211 334 238 334C321 334 369 281 369 190C369 88 308 21 215 21C169 21 128 36 98 64C74 86 61 109 42 163L15 153C36 92 44 56 50 6C103 -12 147 -20 184 -20C307 -20 462 87 462 224Z" stroke="rgb(224,224,224)" stroke-opacity="1" stroke-width="8" fill="rgb(224,224,224)" fill-opacity="1"></path></g></g></g></g></g><g><g transform="matrix(1,0,0,1,77.03125,354.29307250976564)"><path transform="matrix(0.015300000000000001,0,0,-0.015300000000000001,0,0)" d="M604 347L604 406L65 406L65 347ZM604 134L604 193L65 193L65 134Z" stroke="rgb(224,224,224)" stroke-opacity="1" stroke-width="8" fill="rgb(224,224,224)" fill-opacity="1"></path></g></g><g><g transform="matrix(1,0,0,1,91.84030151367188,354.29307250976564)"><path transform="matrix(0.015300000000000001,0,0,-0.015300000000000001,0,0)" d="M221 385L263 613C270 652 277 658 314 661L356 664L359 692L335 692L245 689C229 689 211 689 168 690L104 692L101 664L148 662C172 661 183 653 183 635C183 621 179 590 174 559L100 125C83 33 82 32 42 28L1 25L-3 -3L39 -2C87 -1 110 0 129 0L226 -3L252 -3L255 25L206 28C179 30 170 37 170 58C170 67 171 74 174 93L216 340L277 341C339 342 381 343 400 343C419 343 460 342 523 341L584 340L544 125C535 76 528 48 523 42C519 34 508 30 486 28L436 25L432 -3L488 -2C532 -1 562 0 573 0C589 0 620 -1 663 -2L705 -3L708 25L650 28C624 29 614 37 614 58C614 67 615 76 618 93L710 613C717 652 723 657 761 661L797 664L800 692L784 692L693 689C678 689 657 689 613 690L550 692L547 664L595 662C619 661 630 653 630 635C630 621 626 589 621 559L591 385Z" stroke="rgb(224,224,224)" stroke-opacity="1" stroke-width="8" fill="rgb(224,224,224)" fill-opacity="1"></path></g></g><g><g transform="matrix(1,0,0,1,103.73263549804688,355.40418701171876)"><path transform="matrix(0.015300000000000001,0,0,-0.015300000000000001,0,0)" d="M146 266C146 526 243 632 301 700L282 726C225 675 60 542 60 266C60 159 85 58 133 -32C168 -99 200 -138 282 -215L301 -194C255 -137 146 -15 146 266Z" stroke="rgb(224,224,224)" stroke-opacity="1" stroke-width="8" fill="rgb(224,224,224)" fill-opacity="1"></path></g></g><g><g transform="matrix(1,0,0,1,108.8194580078125,354.29307250976564)"><path transform="matrix(0.015300000000000001,0,0,-0.015300000000000001,0,0)" d="M31 148C26 97 20 62 9 16C47 -2 81 -11 116 -11C165 -11 211 7 262 47C313 87 334 124 334 174C334 228 302 257 228 271L185 279C125 290 106 307 106 348C106 401 151 442 208 442C249 442 287 424 303 397L303 342L326 342C330 377 334 404 345 455C306 474 278 482 245 482C193 482 132 452 84 404C58 377 47 352 47 316C47 260 78 228 144 215L207 203C251 195 267 177 267 138C267 73 221 29 150 29C115 29 84 40 56 64L56 148Z" stroke="rgb(224,224,224)" stroke-opacity="1" stroke-width="8" fill="rgb(224,224,224)" fill-opacity="1"></path></g></g><g><g transform="matrix(1,0,0,1,114.7569580078125,354.29307250976564)"><path transform="matrix(0.015300000000000001,0,0,-0.015300000000000001,0,0)" d="M204 123C177 114 159 108 106 93C99 17 74 -48 16 -144L30 -155L71 -136C152 -31 190 32 218 109Z" stroke="rgb(224,224,224)" stroke-opacity="1" stroke-width="8" fill="rgb(224,224,224)" fill-opacity="1"></path></g></g><g><g transform="matrix(1,0,0,1,121.6319580078125,354.29307250976564)"><path transform="matrix(0.015300000000000001,0,0,-0.015300000000000001,0,0)" d="M711 224C711 345 604 366 557 374C637 436 667 482 667 541C667 630 593 689 482 689C414 689 369 670 321 622L292 498L323 498L341 554C352 588 415 622 467 622C532 622 585 569 585 506C585 431 526 368 455 368C447 368 436 369 423 370L408 371L396 318L403 312C441 329 460 334 487 334C570 334 618 281 618 190C618 88 557 21 464 21C418 21 377 36 347 64C323 86 310 109 291 163L264 153C285 92 293 56 299 6C352 -12 396 -20 433 -20C556 -20 711 87 711 224Z" stroke="rgb(224,224,224)" stroke-opacity="1" stroke-width="8" fill="rgb(224,224,224)" fill-opacity="1"></path></g></g><g><g transform="matrix(1,0,0,1,133.07293701171875,355.40418701171876)"><path transform="matrix(0.015300000000000001,0,0,-0.015300000000000001,0,0)" d="M51 726L32 700C87 636 187 526 187 266C187 -10 83 -131 32 -194L51 -215C104 -165 273 -23 273 265C273 542 108 675 51 726Z" stroke="rgb(224,224,224)" stroke-opacity="1" stroke-width="8" fill="rgb(224,224,224)" fill-opacity="1"></path></g></g></g></g><g><g><g><text x="225.10418701171875" y="320.9895935058594" style="white-space:pre;stroke:none;fill:rgb(224,224,224);fill-opacity:1;font-size:13.5px;font-family:Arial, Helvetica, sans-serif;font-weight:400;font-style:normal;dominant-baseline:text-before-edge;text-decoration:none solid rgb(224, 224, 224);">HBS Public Key</text></g></g></g><g><g><g><g transform="matrix(1,0,0,1,213.107666015625,355.3)"><path transform="matrix(0.015300000000000001,0,0,-0.015300000000000001,0,0)" d="M105 664L160 662C184 661 195 653 195 635L112 125C95 34 94 31 54 28L13 25L9 -3L51 -2C92 -1 123 0 141 0C158 0 187 -1 227 -2L280 -3L283 25L218 28C192 29 182 37 182 58C182 67 183 74 186 93L284 648C320 654 336 656 355 656C457 656 506 612 506 519C506 411 434 323 346 323C324 323 304 328 267 342L269 311C306 293 326 288 355 288C484 288 594 405 594 541C594 642 531 695 412 692L108 692Z" stroke="rgb(224,224,224)" stroke-opacity="1" stroke-width="8" fill="rgb(224,224,224)" fill-opacity="1"></path></g></g><g><g><g><g><g transform="matrix(1,0,0,1,222.89932250976562,359.11280151367185)"><path transform="matrix(0.01071,0,0,-0.01071,0,0)" d="M462 224C462 345 355 366 308 374C388 436 418 482 418 541C418 630 344 689 233 689C165 689 120 670 72 622L43 498L74 498L92 554C103 588 166 622 218 622C283 622 336 569 336 506C336 431 277 368 206 368C198 368 187 369 174 370L159 371L147 318L154 312C192 329 211 334 238 334C321 334 369 281 369 190C369 88 308 21 215 21C169 21 128 36 98 64C74 86 61 109 42 163L15 153C36 92 44 56 50 6C103 -12 147 -20 184 -20C307 -20 462 87 462 224Z" stroke="rgb(224,224,224)" stroke-opacity="1" stroke-width="8" fill="rgb(224,224,224)" fill-opacity="1"></path></g></g></g></g></g><g><g transform="matrix(1,0,0,1,233.732666015625,355.3)"><path transform="matrix(0.015300000000000001,0,0,-0.015300000000000001,0,0)" d="M604 347L604 406L65 406L65 347ZM604 134L604 193L65 193L65 134Z" stroke="rgb(224,224,224)" stroke-opacity="1" stroke-width="8" fill="rgb(224,224,224)" fill-opacity="1"></path></g></g><g><g><g><g><text x="248.54168701171875" y="343.3333435058594" style="white-space:pre;stroke:none;fill:rgb(224,224,224);fill-opacity:1;font-size:13.5px;font-family:Arial, Helvetica, sans-serif;font-weight:400;font-style:normal;dominant-baseline:text-before-edge;text-decoration:none solid rgb(224, 224, 224);">HBSKeyGen</text></g></g></g></g><g><g transform="matrix(1,0,0,1,325.03472900390625,356.41111450195314)"><path transform="matrix(0.015300000000000001,0,0,-0.015300000000000001,0,0)" d="M146 266C146 526 243 632 301 700L282 726C225 675 60 542 60 266C60 159 85 58 133 -32C168 -99 200 -138 282 -215L301 -194C255 -137 146 -15 146 266Z" stroke="rgb(224,224,224)" stroke-opacity="1" stroke-width="8" fill="rgb(224,224,224)" fill-opacity="1"></path></g></g><g><g transform="matrix(1,0,0,1,330.12152099609375,355.3)"><path transform="matrix(0.015300000000000001,0,0,-0.015300000000000001,0,0)" d="M176 -11C232 -11 347 62 390 125C431 186 465 296 465 371C465 438 442 482 406 482C364 482 311 456 259 409C218 374 198 348 162 289L186 408C189 425 191 440 191 452C191 471 183 482 169 482C148 482 110 461 36 408L8 388L15 368L47 389C75 407 86 412 95 412C105 412 112 403 112 389C112 381 110 361 108 351L50 8C40 -52 21 -143 1 -233L-7 -270L0 -276C21 -269 41 -264 73 -259L115 3C136 -4 158 -11 176 -11ZM143 165C165 293 272 424 355 424C381 424 393 402 393 356C393 275 353 156 300 80C280 51 248 36 207 36C176 36 151 43 125 59Z" stroke="rgb(224,224,224)" stroke-opacity="1" stroke-width="8" fill="rgb(224,224,224)" fill-opacity="1"></path></g></g><g><g><g><g><g transform="matrix(1,0,0,1,338.21185302734375,359.11280151367185)"><path transform="matrix(0.01071,0,0,-0.01071,0,0)" d="M462 224C462 345 355 366 308 374C388 436 418 482 418 541C418 630 344 689 233 689C165 689 120 670 72 622L43 498L74 498L92 554C103 588 166 622 218 622C283 622 336 569 336 506C336 431 277 368 206 368C198 368 187 369 174 370L159 371L147 318L154 312C192 329 211 334 238 334C321 334 369 281 369 190C369 88 308 21 215 21C169 21 128 36 98 64C74 86 61 109 42 163L15 153C36 92 44 56 50 6C103 -12 147 -20 184 -20C307 -20 462 87 462 224Z" stroke="rgb(224,224,224)" stroke-opacity="1" stroke-width="8" fill="rgb(224,224,224)" fill-opacity="1"></path></g></g></g></g></g><g><g transform="matrix(1,0,0,1,344.46185302734375,356.41111450195314)"><path transform="matrix(0.015300000000000001,0,0,-0.015300000000000001,0,0)" d="M51 726L32 700C87 636 187 526 187 266C187 -10 83 -131 32 -194L51 -215C104 -165 273 -23 273 265C273 542 108 675 51 726Z" stroke="rgb(224,224,224)" stroke-opacity="1" stroke-width="8" fill="rgb(224,224,224)" fill-opacity="1"></path></g></g></g></g><g><g><g><text x="145.10418701171875" y="318.9930725097656" style="white-space:pre;stroke:none;fill:rgb(224,224,224);fill-opacity:1;font-size:10.5px;font-family:Arial, Helvetica, sans-serif;font-weight:400;font-style:normal;dominant-baseline:text-before-edge;text-decoration:none solid rgb(224, 224, 224);">HBS keygen</text></g></g></g><g><g><g><text x="557.1007080078125" y="320.9895935058594" style="white-space:pre;stroke:none;fill:rgb(224,224,224);fill-opacity:1;font-size:13.5px;font-family:Arial, Helvetica, sans-serif;font-weight:400;font-style:normal;dominant-baseline:text-before-edge;text-decoration:none solid rgb(224, 224, 224);">EC Public Key</text></g></g></g><g><g><g><g transform="matrix(1,0,0,1,569.0972290039062,356.2895935058594)"><path transform="matrix(0.015300000000000001,0,0,-0.015300000000000001,0,0)" d="M371 664L374 692L350 692L260 689C244 689 226 689 183 690L119 692L116 664L163 662C187 661 198 653 198 635C198 621 195 592 189 559L116 125C99 33 98 32 58 28L17 25L13 -3L55 -2C103 -1 126 0 145 0L242 -3L268 -3L271 25L222 28C195 30 186 37 186 57C186 63 187 74 188 78L231 340C381 169 404 140 509 -3L578 0C614 -1 620 -2 646 -3L646 27L626 27C603 27 583 39 562 65L316 367L608 640C624 655 645 665 662 665L683 665L683 692L660 691C639 690 623 689 615 689C605 689 589 690 568 691L548 692L548 663C548 655 538 642 510 614C466 569 297 403 233 353L278 613C285 651 292 658 329 661Z" stroke="rgb(224,224,224)" stroke-opacity="1" stroke-width="8" fill="rgb(224,224,224)" fill-opacity="1"></path></g></g><g><g><g><g><g transform="matrix(1,0,0,1,579.7396240234375,360.1023645019531)"><path transform="matrix(0.01071,0,0,-0.01071,0,0)" d="M462 224C462 345 355 366 308 374C388 436 418 482 418 541C418 630 344 689 233 689C165 689 120 670 72 622L43 498L74 498L92 554C103 588 166 622 218 622C283 622 336 569 336 506C336 431 277 368 206 368C198 368 187 369 174 370L159 371L147 318L154 312C192 329 211 334 238 334C321 334 369 281 369 190C369 88 308 21 215 21C169 21 128 36 98 64C74 86 61 109 42 163L15 153C36 92 44 56 50 6C103 -12 147 -20 184 -20C307 -20 462 87 462 224Z" stroke="rgb(224,224,224)" stroke-opacity="1" stroke-width="8" fill="rgb(224,224,224)" fill-opacity="1"></path></g></g></g></g></g><g><g transform="matrix(1,0,0,1,590.5729370117188,356.2895935058594)"><path transform="matrix(0.015300000000000001,0,0,-0.015300000000000001,0,0)" d="M604 347L604 406L65 406L65 347ZM604 134L604 193L65 193L65 134Z" stroke="rgb(224,224,224)" stroke-opacity="1" stroke-width="8" fill="rgb(224,224,224)" fill-opacity="1"></path></g></g><g><g transform="matrix(1,0,0,1,605.3819580078125,356.2895935058594)"><path transform="matrix(0.015300000000000001,0,0,-0.015300000000000001,0,0)" d="M240 722L228 733C176 707 140 698 68 691L64 670L112 670C136 670 146 663 146 646C146 638 145 629 144 622L96 354C82 279 66 210 14 1L23 -9L90 8L113 132C122 180 146 225 180 259C249 59 281 -9 306 -9C319 -9 343 4 387 35L433 67L425 86L382 62C368 54 361 52 353 52C343 52 336 58 327 75C292 139 270 193 231 316L245 330C306 391 352 416 402 416C410 416 421 414 438 410L455 473C437 479 419 482 407 482C341 482 258 405 133 230Z" stroke="rgb(224,224,224)" stroke-opacity="1" stroke-width="8" fill="rgb(224,224,224)" fill-opacity="1"></path></g></g><g><g><g><g><g transform="matrix(1,0,0,1,613.0034790039062,360.1023645019531)"><path transform="matrix(0.01071,0,0,-0.01071,0,0)" d="M462 224C462 345 355 366 308 374C388 436 418 482 418 541C418 630 344 689 233 689C165 689 120 670 72 622L43 498L74 498L92 554C103 588 166 622 218 622C283 622 336 569 336 506C336 431 277 368 206 368C198 368 187 369 174 370L159 371L147 318L154 312C192 329 211 334 238 334C321 334 369 281 369 190C369 88 308 21 215 21C169 21 128 36 98 64C74 86 61 109 42 163L15 153C36 92 44 56 50 6C103 -12 147 -20 184 -20C307 -20 462 87 462 224Z" stroke="rgb(224,224,224)" stroke-opacity="1" stroke-width="8" fill="rgb(224,224,224)" fill-opacity="1"></path></g></g></g></g></g><g><g transform="matrix(1,0,0,1,619.2534790039062,356.2895935058594)"><path transform="matrix(0.015300000000000001,0,0,-0.015300000000000001,0,0)" d="M434 653C511 653 565 639 621 603L621 519L648 519C653 576 661 619 675 665C592 695 535 706 466 706C374 706 301 683 229 632C112 548 50 424 50 274C50 87 159 -18 355 -18C412 -21 559 6 608 37C628 193 632 216 633 219C635 228 647 238 660 240L692 246L694 274C655 270 620 269 569 269C518 269 482 270 440 274L435 246L469 244C544 240 553 236 553 212C553 197 533 84 528 60C483 36 444 27 390 27C224 27 138 120 138 297C138 443 197 653 434 653Z" stroke="rgb(224,224,224)" stroke-opacity="1" stroke-width="8" fill="rgb(224,224,224)" fill-opacity="1"></path></g></g></g></g><g><g><g><text x="515.7118530273438" y="308.9930725097656" style="white-space:pre;stroke:none;fill:rgb(224,224,224);fill-opacity:1;font-size:10.5px;font-family:Arial, Helvetica, sans-serif;font-weight:400;font-style:normal;dominant-baseline:text-before-edge;text-decoration:none solid rgb(224, 224, 224);">EC</text></g></g><g><g><text x="506.09375" y="319.4965515136719" style="white-space:pre;stroke:none;fill:rgb(224,224,224);fill-opacity:1;font-size:10.5px;font-family:Arial, Helvetica, sans-serif;font-weight:400;font-style:normal;dominant-baseline:text-before-edge;text-decoration:none solid rgb(224, 224, 224);">keygen</text></g></g></g><g><g><g><text x="86.09375" y="387.8819580078125" style="white-space:pre;stroke:none;fill:rgb(224,224,224);fill-opacity:1;font-size:21.6px;font-family:Arial, Helvetica, sans-serif;font-weight:400;font-style:normal;dominant-baseline:text-before-edge;text-decoration:none solid rgb(224, 224, 224);">...</text></g></g></g><g><g><g><text x="270.10418701171875" y="387.8819580078125" style="white-space:pre;stroke:none;fill:rgb(224,224,224);fill-opacity:1;font-size:21.6px;font-family:Arial, Helvetica, sans-serif;font-weight:400;font-style:normal;dominant-baseline:text-before-edge;text-decoration:none solid rgb(224, 224, 224);">...</text></g></g></g><g><g><g><text x="440.10418701171875" y="387.8819580078125" style="white-space:pre;stroke:none;fill:rgb(224,224,224);fill-opacity:1;font-size:21.6px;font-family:Arial, Helvetica, sans-serif;font-weight:400;font-style:normal;dominant-baseline:text-before-edge;text-decoration:none solid rgb(224, 224, 224);">...</text></g></g></g><g><g><g><text x="590.1041870117188" y="387.8819580078125" style="white-space:pre;stroke:none;fill:rgb(224,224,224);fill-opacity:1;font-size:21.6px;font-family:Arial, Helvetica, sans-serif;font-weight:400;font-style:normal;dominant-baseline:text-before-edge;text-decoration:none solid rgb(224, 224, 224);">...</text></g></g></g><g><g><g><text x="88.10763549804688" y="48.71527099609375" style="white-space:pre;stroke:none;fill:rgb(224,224,224);fill-opacity:1;font-size:8.4px;font-family:Arial, Helvetica, sans-serif;font-weight:400;font-style:normal;dominant-baseline:text-before-edge;text-decoration:none solid rgb(224, 224, 224);">mandate absorb infant trigger </text></g></g><g><g><text x="98.125" y="58.767364501953125" style="white-space:pre;stroke:none;fill:rgb(224,224,224);fill-opacity:1;font-size:8.4px;font-family:Arial, Helvetica, sans-serif;font-weight:400;font-style:normal;dominant-baseline:text-before-edge;text-decoration:none solid rgb(224, 224, 224);">brass never result dress </text></g></g><g><g><text x="90.43405151367188" y="68.81944274902344" style="white-space:pre;stroke:none;fill:rgb(224,224,224);fill-opacity:1;font-size:8.4px;font-family:Arial, Helvetica, sans-serif;font-weight:400;font-style:normal;dominant-baseline:text-before-edge;text-decoration:none solid rgb(224, 224, 224);">execute extend arrange term</text></g></g></g></svg>
</svg>
