<?xml version="1.0" encoding="UTF-8"?>
<svg id="outlined-layers" xmlns="http://www.w3.org/2000/svg" viewBox="0 0 1708.79 951.94">
  <defs>
    <style>
      .cls-1, .cls-2 {
        fill: #fa1336;
      }

      .cls-3 {
        fill: #cfd1d1;
      }

      .cls-4 {
        stroke: #00090c;
      }

      .cls-4, .cls-5, .cls-6, .cls-7 {
        fill: none;
        stroke-linejoin: round;
        stroke-width: 4px;
      }

      .cls-4, .cls-6 {
        stroke-dasharray: 12;
      }

      .cls-4, .cls-6, .cls-7 {
        stroke-linecap: round;
      }

      .cls-8, .cls-9 {
        fill: #43b929;
      }

      .cls-5 {
        stroke: #000;
      }

      .cls-6 {
        stroke: #cfd1d1;
      }

      .cls-9, .cls-10, .cls-2 {
        fill-rule: evenodd;
      }

      .cls-11 {
        opacity: .5;
      }

      .cls-10, .cls-12 {
        fill: #00090c;
      }

      .cls-13 {
        fill: #f2f2f2;
      }

      .cls-7 {
        stroke: #e5e6e6;
      }
    </style>
  </defs>
  <g>
    <g>
      <path d="M1163.85,572.55c-2.86,0-5.38-.64-7.56-1.93-2.18-1.29-3.89-3.07-5.12-5.35-1.23-2.28-1.85-4.92-1.85-7.92s.62-5.63,1.85-7.92c1.23-2.28,2.94-4.07,5.12-5.35,2.18-1.29,4.7-1.93,7.56-1.93s5.42.64,7.6,1.93c2.18,1.29,3.88,3.07,5.1,5.35,1.22,2.28,1.83,4.92,1.83,7.92s-.61,5.64-1.83,7.92c-1.22,2.28-2.92,4.07-5.1,5.35-2.18,1.29-4.72,1.93-7.6,1.93ZM1163.85,567.46c1.79,0,3.34-.41,4.64-1.24,1.3-.83,2.32-2,3.04-3.51.73-1.51,1.09-3.3,1.09-5.38s-.36-3.9-1.09-5.4c-.73-1.5-1.74-2.65-3.04-3.46-1.3-.81-2.85-1.22-4.64-1.22s-3.3.41-4.62,1.22c-1.32.81-2.34,1.97-3.07,3.46-.73,1.5-1.09,3.3-1.09,5.4s.36,3.86,1.09,5.38c.73,1.51,1.75,2.68,3.07,3.51,1.32.83,2.86,1.24,4.62,1.24Z"/>
      <path d="M1181.15,555.62v-4.75h13.15v4.75h-13.15ZM1184.05,572.04v-23.06c0-1.76.29-3.16.88-4.2.59-1.04,1.43-1.79,2.54-2.27,1.11-.48,2.4-.71,3.88-.71h2.6v4.83h-1.76c-.9,0-1.53.18-1.91.53s-.57.96-.57,1.83v23.06h-5.67Z"/>
      <path d="M1196.74,555.62v-4.75h13.15v4.75h-13.15ZM1199.64,572.04v-23.06c0-1.76.29-3.16.88-4.2.59-1.04,1.43-1.79,2.54-2.27,1.11-.48,2.4-.71,3.88-.71h2.6v4.83h-1.76c-.9,0-1.53.18-1.91.53s-.57.96-.57,1.83v23.06h-5.67Z"/>
      <path d="M1214.71,562.05v-4.75h17.72v4.75h-17.72Z"/>
      <path d="M1248.69,572.55c-2.13,0-4.02-.48-5.67-1.43-1.65-.95-2.94-2.25-3.86-3.91-.92-1.65-1.39-3.54-1.39-5.67s.46-4.11,1.39-5.77c.92-1.67,2.21-2.98,3.86-3.95,1.65-.97,3.54-1.45,5.67-1.45,2.72,0,5,.71,6.85,2.14,1.85,1.43,3.02,3.39,3.53,5.88h-6.01c-.25-.98-.78-1.75-1.57-2.31-.8-.56-1.74-.84-2.84-.84-.98,0-1.85.25-2.62.73-.77.49-1.37,1.2-1.81,2.14-.43.94-.65,2.05-.65,3.34,0,.98.13,1.85.38,2.62.25.77.6,1.43,1.05,1.97.45.55.99.96,1.62,1.24.63.28,1.31.42,2.04.42s1.39-.13,2-.38,1.11-.61,1.53-1.07.71-1.03.88-1.7h6.01c-.5,2.44-1.69,4.38-3.55,5.82-1.86,1.44-4.14,2.16-6.83,2.16Z"/>
      <path d="M1263.94,572.04v-30.24h5.67v12.22c.7-1.09,1.63-1.97,2.79-2.65,1.16-.67,2.51-1.01,4.05-1.01,1.76,0,3.25.37,4.45,1.11,1.2.74,2.11,1.81,2.73,3.21.62,1.4.92,3.14.92,5.21v12.14h-5.63v-11.63c0-1.68-.35-2.98-1.05-3.89-.7-.91-1.81-1.36-3.32-1.36-.92,0-1.76.22-2.52.67-.76.45-1.35,1.1-1.79,1.95-.43.85-.65,1.87-.65,3.04v11.21h-5.67Z"/>
      <path d="M1297.03,572.55c-1.76,0-3.22-.29-4.37-.86-1.15-.57-2-1.34-2.54-2.31s-.82-2.04-.82-3.21c0-1.29.33-2.42.99-3.4.66-.98,1.65-1.75,2.98-2.31,1.33-.56,3-.84,5.02-.84h5.25c0-1.04-.14-1.9-.42-2.58-.28-.69-.71-1.2-1.3-1.53s-1.37-.5-2.35-.5c-1.06,0-1.97.23-2.71.69s-1.2,1.17-1.36,2.12h-5.5c.14-1.51.64-2.82,1.49-3.93.85-1.11,1.99-1.97,3.4-2.58,1.41-.62,2.99-.92,4.72-.92,1.99,0,3.71.34,5.17,1.01s2.58,1.64,3.36,2.9c.78,1.26,1.18,2.81,1.18,4.66v13.1h-4.79l-.63-3.23c-.31.56-.67,1.06-1.09,1.51-.42.45-.91.84-1.47,1.18-.56.34-1.19.59-1.89.78-.7.18-1.47.27-2.31.27ZM1298.37,568.18c.73,0,1.38-.13,1.95-.4.57-.27,1.07-.63,1.49-1.09s.75-.99.99-1.6c.24-.6.4-1.25.48-1.95v-.04h-4.33c-.87,0-1.58.1-2.12.31s-.94.51-1.2.9c-.25.39-.38.84-.38,1.34,0,.56.13,1.02.38,1.39.25.36.62.64,1.09.84.48.2,1.02.29,1.64.29Z"/>
      <path d="M1317.48,547.98c-1.01,0-1.84-.3-2.5-.9-.66-.6-.99-1.36-.99-2.29s.33-1.69.99-2.29c.66-.6,1.49-.9,2.5-.9s1.88.3,2.54.9c.66.6.99,1.36.99,2.29s-.33,1.69-.99,2.29c-.66.6-1.5.9-2.54.9ZM1314.63,572.04v-21.17h5.67v21.17h-5.67Z"/>
      <path d="M1326.01,572.04v-21.17h5l.42,3.44c.64-1.18,1.56-2.13,2.75-2.86,1.19-.73,2.61-1.09,4.26-1.09,1.76,0,3.25.36,4.45,1.09,1.2.73,2.12,1.79,2.75,3.19.63,1.4.94,3.12.94,5.17v12.22h-5.63v-11.68c0-1.68-.36-2.97-1.07-3.86-.71-.9-1.81-1.34-3.3-1.34-.95,0-1.8.22-2.54.67-.74.45-1.32,1.09-1.74,1.91-.42.83-.63,1.83-.63,3v11.3h-5.67Z"/>
    </g>
    <g class="cls-11">
      <path d="M1154.55,659.73c-.81-.79-1.55-1.73-2.24-2.82-.68-1.09-1.22-2.29-1.62-3.62-.4-1.33-.6-2.76-.6-4.3s.2-2.98.6-4.3c.4-1.33.94-2.54,1.62-3.63.68-1.09,1.43-2.03,2.24-2.81h2.29v.2c-.91.93-1.71,1.95-2.38,3.06s-1.2,2.29-1.57,3.55c-.37,1.26-.56,2.57-.56,3.93s.19,2.67.56,3.93c.38,1.26.9,2.44,1.58,3.55s1.47,2.13,2.37,3.06v.2h-2.29Z"/>
      <path d="M1160.49,643.01c-.43,0-.79-.14-1.07-.41s-.42-.61-.42-1.03.14-.74.42-1c.28-.26.63-.39,1.07-.39s.77.13,1.06.39c.29.26.43.6.43,1s-.14.76-.43,1.03c-.28.27-.64.41-1.06.41ZM1159.34,656.47v-11.32h2.25v11.32h-2.25Z"/>
      <path d="M1164.8,656.47v-11.32h2.02l.13,1.93c.36-.67.87-1.21,1.53-1.61s1.42-.6,2.27-.6c.9,0,1.67.18,2.31.54.64.36,1.15.9,1.51,1.63.36.73.54,1.64.54,2.73v6.7h-2.25v-6.47c0-1.05-.23-1.84-.7-2.38s-1.14-.81-2.02-.81c-.58,0-1.11.14-1.57.42-.46.28-.83.69-1.11,1.22-.28.54-.42,1.2-.42,1.98v6.04h-2.25Z"/>
      <path d="M1187.49,656.74c-.93,0-1.7-.16-2.31-.47s-1.07-.74-1.37-1.27c-.3-.53-.45-1.1-.45-1.72,0-.75.2-1.39.58-1.92.39-.53.94-.94,1.66-1.22.72-.28,1.58-.43,2.58-.43h2.94c0-.66-.1-1.21-.29-1.64-.19-.43-.48-.76-.87-.98-.38-.22-.87-.33-1.45-.33-.67,0-1.25.16-1.73.48-.48.32-.78.8-.9,1.43h-2.25c.09-.79.36-1.47.82-2.03s1.04-1,1.76-1.3c.72-.31,1.48-.46,2.29-.46,1.06,0,1.96.19,2.67.56.72.38,1.26.9,1.63,1.58.37.68.55,1.49.55,2.44v7.01h-1.96l-.18-1.91c-.17.3-.36.58-.58.85s-.49.5-.8.7c-.31.2-.66.35-1.06.46-.4.11-.83.17-1.31.17ZM1187.92,654.92c.48,0,.91-.1,1.3-.29.39-.2.72-.46,1-.8s.49-.72.63-1.15c.14-.43.22-.86.24-1.31v-.07h-2.67c-.64,0-1.17.08-1.56.24s-.69.37-.87.64-.27.58-.27.94.09.69.26.96c.17.26.42.47.75.62.33.15.73.22,1.19.22Z"/>
      <path d="M1196.26,656.47v-11.32h2.02l.13,1.93c.36-.67.87-1.21,1.53-1.61s1.42-.6,2.27-.6c.9,0,1.67.18,2.31.54.64.36,1.15.9,1.51,1.63.36.73.54,1.64.54,2.73v6.7h-2.25v-6.47c0-1.05-.23-1.84-.7-2.38s-1.14-.81-2.02-.81c-.58,0-1.11.14-1.57.42-.46.28-.83.69-1.11,1.22-.28.54-.42,1.2-.42,1.98v6.04h-2.25Z"/>
      <path d="M1220.32,656.74c-1.08,0-2.04-.25-2.88-.74s-1.49-1.18-1.97-2.07c-.47-.88-.71-1.91-.71-3.08s.24-2.24.71-3.13c.47-.89,1.13-1.59,1.97-2.09s1.81-.75,2.92-.75,2.06.25,2.85.74c.79.5,1.41,1.15,1.84,1.97s.65,1.72.65,2.71c0,.15,0,.31-.01.48,0,.17-.02.36-.03.57h-9.26v-1.59h7.05c-.04-.94-.36-1.68-.94-2.21-.58-.53-1.31-.8-2.18-.8-.61,0-1.18.14-1.68.42-.51.28-.92.68-1.22,1.21-.31.53-.46,1.2-.46,2.01v.63c0,.84.15,1.55.46,2.12.31.58.71,1.01,1.22,1.3.51.29,1.06.44,1.66.44.72,0,1.31-.16,1.78-.47.46-.32.81-.74,1.03-1.28h2.25c-.19.69-.52,1.31-.99,1.85-.46.55-1.04.98-1.72,1.29-.68.31-1.46.47-2.35.47Z"/>
      <path d="M1228.21,656.47v-11.32h2.02l.16,1.6c.36-.58.84-1.04,1.44-1.37.6-.33,1.27-.49,2.02-.49.57,0,1.08.08,1.55.24.46.16.88.39,1.24.71.36.31.65.7.88,1.17.4-.66.95-1.18,1.63-1.55.68-.37,1.4-.56,2.17-.56.91,0,1.7.18,2.36.55s1.16.91,1.51,1.64c.34.73.52,1.63.52,2.71v6.7h-2.22v-6.47c0-1.05-.21-1.84-.64-2.38s-1.05-.81-1.88-.81c-.55,0-1.05.14-1.48.43-.43.29-.77.7-1.02,1.24-.25.54-.37,1.2-.37,1.98v6.02h-2.25v-6.47c0-1.05-.21-1.84-.64-2.38-.43-.54-1.05-.81-1.88-.81-.52,0-1,.14-1.44.43-.43.29-.78.7-1.03,1.24-.25.54-.38,1.2-.38,1.98v6.02h-2.25Z"/>
      <path d="M1253.71,656.74c-1.08,0-2.04-.25-2.88-.74s-1.49-1.18-1.97-2.07c-.47-.88-.71-1.91-.71-3.08s.24-2.24.71-3.13c.47-.89,1.13-1.59,1.97-2.09s1.81-.75,2.92-.75,2.06.25,2.85.74c.79.5,1.41,1.15,1.84,1.97s.65,1.72.65,2.71c0,.15,0,.31-.01.48,0,.17-.02.36-.03.57h-9.26v-1.59h7.05c-.04-.94-.36-1.68-.94-2.21-.58-.53-1.31-.8-2.18-.8-.61,0-1.18.14-1.68.42-.51.28-.92.68-1.22,1.21-.31.53-.46,1.2-.46,2.01v.63c0,.84.15,1.55.46,2.12.31.58.71,1.01,1.22,1.3.51.29,1.06.44,1.66.44.72,0,1.31-.16,1.78-.47.46-.32.81-.74,1.03-1.28h2.25c-.19.69-.52,1.31-.99,1.85-.46.55-1.04.98-1.72,1.29-.68.31-1.46.47-2.35.47Z"/>
      <path d="M1261.59,656.47v-11.32h2.02l.2,2.13c.25-.51.58-.94.99-1.29.4-.35.88-.62,1.43-.82.55-.19,1.17-.29,1.88-.29v2.38h-.81c-.46,0-.91.06-1.33.17-.42.11-.79.3-1.11.57s-.57.64-.75,1.1c-.18.46-.27,1.04-.27,1.73v5.64h-2.25Z"/>
      <path d="M1274.51,661.68c-1.03,0-1.95-.13-2.74-.39-.79-.26-1.41-.66-1.84-1.2-.44-.54-.65-1.2-.65-1.98,0-.4.09-.81.27-1.22s.47-.8.88-1.18c.4-.37.95-.71,1.64-1.01l1.26,1.01c-.76.29-1.28.63-1.54,1.02-.26.4-.39.78-.39,1.16,0,.45.13.82.4,1.12s.64.52,1.11.67c.47.15,1.01.22,1.61.22s1.09-.08,1.53-.25c.43-.17.77-.4,1.01-.7s.36-.65.36-1.06c0-.48-.18-.88-.54-1.2-.36-.32-1.05-.51-2.07-.57-.85-.06-1.58-.14-2.17-.25-.59-.1-1.09-.23-1.51-.38s-.76-.31-1.03-.49-.51-.37-.71-.56v-.52l2.25-2.31,1.82.63-2.45,2.27.47-1.01c.17.11.32.21.47.3s.35.18.61.26c.25.08.6.14,1.03.2.43.06,1,.12,1.71.18,1.02.07,1.84.25,2.46.54.62.28,1.07.67,1.36,1.15.28.48.43,1.05.43,1.71s-.18,1.26-.53,1.84c-.35.58-.9,1.06-1.64,1.44-.74.37-1.7.56-2.87.56ZM1274.51,652.99c-.96,0-1.77-.18-2.44-.54-.67-.36-1.18-.85-1.53-1.46-.35-.61-.53-1.29-.53-2.04s.18-1.45.53-2.06c.35-.61.87-1.09,1.54-1.46.67-.37,1.48-.55,2.43-.55s1.75.18,2.42.55c.67.37,1.17.85,1.53,1.46.35.61.53,1.29.53,2.06s-.18,1.43-.53,2.04c-.35.61-.86,1.1-1.53,1.46-.67.36-1.47.54-2.42.54ZM1274.51,651.19c.73,0,1.32-.19,1.75-.57.43-.38.65-.94.65-1.67s-.22-1.29-.65-1.67c-.43-.38-1.02-.57-1.75-.57s-1.33.19-1.77.57c-.45.38-.67.94-.67,1.67s.22,1.29.67,1.67c.45.38,1.04.57,1.77.57ZM1276.36,646.92l-.54-1.78h4.65v1.55l-4.11.22Z"/>
      <path d="M1287.39,656.74c-1.08,0-2.04-.25-2.88-.74s-1.49-1.18-1.97-2.07c-.47-.88-.71-1.91-.71-3.08s.24-2.24.71-3.13c.47-.89,1.13-1.59,1.97-2.09s1.81-.75,2.92-.75,2.06.25,2.85.74c.79.5,1.41,1.15,1.84,1.97s.65,1.72.65,2.71c0,.15,0,.31-.01.48,0,.17-.02.36-.03.57h-9.26v-1.59h7.05c-.04-.94-.36-1.68-.94-2.21-.58-.53-1.31-.8-2.18-.8-.61,0-1.18.14-1.68.42-.51.28-.92.68-1.22,1.21-.31.53-.46,1.2-.46,2.01v.63c0,.84.15,1.55.46,2.12.31.58.71,1.01,1.22,1.3.51.29,1.06.44,1.66.44.72,0,1.31-.16,1.78-.47.46-.32.81-.74,1.03-1.28h2.25c-.19.69-.52,1.31-.99,1.85-.46.55-1.04.98-1.72,1.29-.68.31-1.46.47-2.35.47Z"/>
      <path d="M1295.27,656.47v-11.32h2.02l.13,1.93c.36-.67.87-1.21,1.53-1.61s1.42-.6,2.27-.6c.9,0,1.67.18,2.31.54.64.36,1.15.9,1.51,1.63.36.73.54,1.64.54,2.73v6.7h-2.25v-6.47c0-1.05-.23-1.84-.7-2.38s-1.14-.81-2.02-.81c-.58,0-1.11.14-1.57.42-.46.28-.83.69-1.11,1.22-.28.54-.42,1.2-.42,1.98v6.04h-2.25Z"/>
      <path d="M1313.7,656.74c-1.09,0-2.07-.25-2.92-.75-.85-.5-1.52-1.19-2.01-2.08-.49-.88-.73-1.91-.73-3.08s.24-2.22.73-3.11c.49-.89,1.16-1.59,2.01-2.09.85-.5,1.83-.75,2.92-.75,1.38,0,2.53.36,3.46,1.08.93.72,1.52,1.69,1.77,2.92h-2.34c-.15-.66-.49-1.17-1.02-1.53-.53-.36-1.17-.54-1.9-.54-.6,0-1.15.15-1.66.46-.51.31-.92.76-1.22,1.35-.31.59-.46,1.32-.46,2.19,0,.64.09,1.22.27,1.72.18.5.42.93.73,1.27.31.34.66.6,1.07.78.4.17.83.26,1.28.26.5,0,.94-.08,1.34-.24.4-.16.73-.39,1.01-.71.28-.31.47-.69.57-1.12h2.34c-.25,1.2-.85,2.16-1.77,2.89-.93.73-2.08,1.09-3.46,1.09Z"/>
      <path d="M1322.86,661.41l2.76-6.2h-.65l-4.47-10.07h2.43l3.55,8.22,3.57-8.22h2.36l-7.19,16.27h-2.36Z"/>
      <path d="M1335.9,656.58c-.43,0-.79-.14-1.07-.42s-.42-.61-.42-1,.14-.75.42-1.02.63-.42,1.07-.42.77.14,1.04.42.42.62.42,1.02-.14.72-.42,1-.63.42-1.04.42ZM1334.93,651.8l-.27-11.05h2.43l-.25,11.05h-1.91Z"/>
      <path d="M1341.96,659.73h-2.27v-.2c.91-.93,1.7-1.95,2.37-3.06.67-1.11,1.19-2.29,1.56-3.55.37-1.26.56-2.57.56-3.93s-.19-2.67-.56-3.93c-.38-1.26-.9-2.44-1.56-3.55-.67-1.11-1.46-2.13-2.37-3.06v-.2h2.27c.84.78,1.59,1.71,2.26,2.81.67,1.09,1.2,2.3,1.61,3.63.41,1.33.61,2.76.61,4.3s-.2,2.98-.61,4.3c-.4,1.33-.94,2.53-1.61,3.62-.67,1.09-1.42,2.03-2.26,2.82Z"/>
    </g>
    <g>
      <path d="M1099.52,620.19c-2.09,0-3.93-.49-5.5-1.46-1.58-.97-2.81-2.32-3.68-4.05-.88-1.73-1.31-3.74-1.31-6.05s.44-4.3,1.33-6.05c.88-1.75,2.14-3.12,3.78-4.1,1.63-.98,3.56-1.47,5.78-1.47,2.52,0,4.62.6,6.3,1.81,1.69,1.21,2.76,2.89,3.23,5.04h-3.1c-.3-1.34-1-2.41-2.11-3.2-1.11-.79-2.55-1.18-4.32-1.18-1.64,0-3.08.37-4.3,1.1-1.23.74-2.17,1.79-2.83,3.15-.66,1.37-.99,3-.99,4.9s.33,3.54.99,4.91c.66,1.38,1.58,2.43,2.77,3.15,1.18.73,2.54,1.09,4.08,1.09,2.39,0,4.19-.7,5.41-2.11,1.22-1.41,1.91-3.32,2.08-5.73h-6.46v-2.11h9.22v11.97h-2.46l-.22-3.68c-.53.88-1.15,1.62-1.84,2.22-.69.61-1.51,1.07-2.45,1.38-.94.31-2.06.46-3.36.46Z"/>
      <path d="M1121.06,620.19c-1.49,0-2.83-.35-4-1.06-1.17-.7-2.09-1.69-2.75-2.96s-.99-2.75-.99-4.43.32-3.19.98-4.45c.65-1.26,1.57-2.24,2.75-2.94,1.18-.7,2.54-1.06,4.08-1.06s2.92.35,4.03,1.06c1.11.7,1.96,1.63,2.54,2.77.59,1.14.88,2.4.88,3.76v.67c0,.23-.01.5-.03.8h-13.22v-2.08h10.59c-.06-1.47-.55-2.62-1.46-3.46-.91-.83-2.04-1.25-3.41-1.25-.9,0-1.74.21-2.53.62-.79.42-1.42,1.02-1.89,1.82-.47.8-.7,1.8-.7,2.99v.9c0,1.32.24,2.43.72,3.33.48.9,1.11,1.57,1.89,2.02.78.45,1.62.67,2.51.67,1.13,0,2.06-.25,2.8-.75.74-.5,1.27-1.19,1.62-2.06h2.66c-.28.98-.74,1.85-1.38,2.61-.64.76-1.43,1.36-2.38,1.81s-2.05.67-3.31.67Z"/>
      <path d="M1137.95,619.81c-.96,0-1.79-.15-2.5-.45s-1.24-.8-1.62-1.52-.56-1.68-.56-2.9v-8.99h-2.82v-2.27h2.82l.35-3.9h2.34v3.9h4.67v2.27h-4.67v8.99c0,1,.2,1.68.61,2.03.41.35,1.12.53,2.14.53h1.73v2.3h-2.5Z"/>
      <path d="M1150.24,620.19c-1.32,0-2.49-.22-3.49-.67s-1.8-1.07-2.38-1.87c-.59-.8-.94-1.74-1.07-2.83h2.75c.11.55.33,1.07.67,1.54.34.47.81.85,1.39,1.14.59.29,1.31.43,2.16.43.75,0,1.37-.11,1.86-.34.49-.22.86-.53,1.1-.91.25-.38.37-.8.37-1.25,0-.66-.15-1.16-.46-1.5-.31-.34-.76-.61-1.36-.82-.6-.2-1.32-.38-2.18-.53-.7-.13-1.4-.3-2.08-.51-.68-.21-1.29-.5-1.82-.85-.53-.35-.96-.78-1.26-1.3-.31-.51-.46-1.14-.46-1.89,0-.92.24-1.73.72-2.45.48-.71,1.16-1.27,2.03-1.68s1.9-.61,3.07-.61c1.73,0,3.12.42,4.19,1.25,1.07.83,1.7,2.04,1.89,3.62h-2.66c-.11-.81-.45-1.44-1.04-1.9s-1.39-.69-2.42-.69-1.77.2-2.29.61-.78.94-.78,1.6c0,.43.14.81.43,1.14.29.33.72.61,1.3.85.58.23,1.27.43,2.08.58,1.07.19,2.04.45,2.91.77.87.32,1.58.79,2.13,1.42.54.63.82,1.52.82,2.67,0,1-.25,1.88-.75,2.62-.5.75-1.21,1.33-2.13,1.74s-2,.62-3.23.62Z"/>
      <path d="M1170.5,626.85l3.94-8.83h-.93l-6.34-14.34h2.91l5.25,12.32,5.54-12.32h2.78l-10.34,23.17h-2.82Z"/>
      <path d="M1192.22,620.19c-1.49,0-2.84-.35-4.03-1.04-1.2-.69-2.13-1.67-2.82-2.94-.68-1.27-1.02-2.75-1.02-4.43s.35-3.23,1.04-4.5c.69-1.27,1.64-2.25,2.85-2.94,1.21-.69,2.55-1.04,4.05-1.04s2.9.35,4.08,1.04c1.18.69,2.12,1.68,2.82,2.94.69,1.27,1.04,2.76,1.04,4.46s-.35,3.2-1.06,4.46c-.7,1.27-1.65,2.25-2.85,2.94-1.2.69-2.56,1.04-4.1,1.04ZM1192.25,617.89c.92,0,1.77-.23,2.56-.69.79-.46,1.43-1.15,1.92-2.06.49-.92.74-2.05.74-3.39s-.24-2.5-.72-3.41c-.48-.91-1.11-1.59-1.89-2.05-.78-.46-1.64-.69-2.58-.69s-1.74.23-2.54.69c-.8.46-1.44,1.14-1.92,2.05-.48.91-.72,2.04-.72,3.41s.24,2.48.72,3.39c.48.92,1.11,1.61,1.89,2.06.78.46,1.63.69,2.54.69Z"/>
      <path d="M1209.86,620.19c-1.24,0-2.32-.25-3.25-.74-.93-.49-1.64-1.25-2.14-2.27-.5-1.02-.75-2.3-.75-3.84v-9.66h2.69v9.38c0,1.6.35,2.81,1.06,3.62.7.81,1.7,1.22,2.98,1.22.9,0,1.71-.22,2.43-.66.73-.44,1.3-1.07,1.71-1.89s.62-1.84.62-3.06v-8.61h2.69v16.13h-2.43l-.16-2.82c-.49,1-1.22,1.79-2.18,2.35-.96.56-2.05.85-3.26.85Z"/>
      <path d="M1222.34,619.81v-16.13h2.43l.19,3.07c.36-.72.83-1.34,1.39-1.86s1.25-.91,2.05-1.18c.8-.28,1.71-.42,2.74-.42v2.82h-.99c-.68,0-1.33.09-1.95.27-.62.18-1.17.47-1.65.88-.48.41-.85.96-1.12,1.65-.27.69-.4,1.55-.4,2.58v8.32h-2.69Z"/>
      <path d="M1248.77,620.19c-1.32,0-2.49-.22-3.49-.67s-1.8-1.07-2.38-1.87c-.59-.8-.94-1.74-1.07-2.83h2.75c.11.55.33,1.07.67,1.54.34.47.81.85,1.39,1.14.59.29,1.31.43,2.16.43.75,0,1.37-.11,1.86-.34.49-.22.86-.53,1.1-.91.25-.38.37-.8.37-1.25,0-.66-.15-1.16-.46-1.5-.31-.34-.76-.61-1.36-.82-.6-.2-1.32-.38-2.18-.53-.7-.13-1.4-.3-2.08-.51-.68-.21-1.29-.5-1.82-.85-.53-.35-.96-.78-1.26-1.3-.31-.51-.46-1.14-.46-1.89,0-.92.24-1.73.72-2.45.48-.71,1.16-1.27,2.03-1.68s1.9-.61,3.07-.61c1.73,0,3.12.42,4.19,1.25,1.07.83,1.7,2.04,1.89,3.62h-2.66c-.11-.81-.45-1.44-1.04-1.9s-1.39-.69-2.42-.69-1.77.2-2.29.61-.78.94-.78,1.6c0,.43.14.81.43,1.14.29.33.72.61,1.3.85.58.23,1.27.43,2.08.58,1.07.19,2.04.45,2.91.77.87.32,1.58.79,2.13,1.42.54.63.82,1.52.82,2.67,0,1-.25,1.88-.75,2.62-.5.75-1.21,1.33-2.13,1.74s-2,.62-3.23.62Z"/>
      <path d="M1264,620.19c-1.3,0-2.39-.23-3.26-.69-.88-.46-1.53-1.07-1.95-1.82-.43-.76-.64-1.58-.64-2.48,0-1.09.28-2.01.85-2.77.56-.76,1.36-1.33,2.4-1.73,1.03-.39,2.26-.59,3.66-.59h4.26c0-1-.16-1.84-.46-2.51-.31-.67-.76-1.18-1.34-1.52-.59-.34-1.32-.51-2.19-.51-1.02,0-1.91.26-2.66.77-.75.51-1.21,1.27-1.38,2.27h-2.75c.13-1.15.52-2.12,1.17-2.9.65-.78,1.48-1.38,2.48-1.79,1-.42,2.05-.62,3.14-.62,1.49,0,2.74.27,3.73.82.99.54,1.73,1.3,2.22,2.27.49.97.74,2.12.74,3.44v9.98h-2.4l-.16-2.85c-.21.45-.49.87-.82,1.26-.33.39-.71.74-1.15,1.02s-.94.52-1.52.69c-.58.17-1.23.26-1.95.26ZM1264.41,617.92c.75,0,1.42-.15,2.03-.46.61-.31,1.12-.74,1.55-1.28.43-.54.75-1.15.98-1.81.22-.66.34-1.35.34-2.08v-.1h-4.03c-1.04,0-1.89.12-2.53.37-.64.25-1.1.59-1.38,1.02-.28.44-.42.93-.42,1.49s.13,1.08.4,1.5.66.76,1.18.99c.52.24,1.15.35,1.87.35Z"/>
      <path d="M1282.05,619.81c-.96,0-1.79-.15-2.5-.45s-1.24-.8-1.62-1.52-.56-1.68-.56-2.9v-8.99h-2.82v-2.27h2.82l.35-3.9h2.34v3.9h4.67v2.27h-4.67v8.99c0,1,.2,1.68.61,2.03.41.35,1.12.53,2.14.53h1.73v2.3h-2.5Z"/>
      <path d="M1294.33,620.19c-1.32,0-2.49-.22-3.49-.67s-1.8-1.07-2.38-1.87c-.59-.8-.94-1.74-1.07-2.83h2.75c.11.55.33,1.07.67,1.54.34.47.81.85,1.39,1.14.59.29,1.31.43,2.16.43.75,0,1.37-.11,1.86-.34.49-.22.86-.53,1.1-.91.25-.38.37-.8.37-1.25,0-.66-.15-1.16-.46-1.5-.31-.34-.76-.61-1.36-.82-.6-.2-1.32-.38-2.18-.53-.7-.13-1.4-.3-2.08-.51-.68-.21-1.29-.5-1.82-.85-.53-.35-.96-.78-1.26-1.3-.31-.51-.46-1.14-.46-1.89,0-.92.24-1.73.72-2.45.48-.71,1.16-1.27,2.03-1.68s1.9-.61,3.07-.61c1.73,0,3.12.42,4.19,1.25,1.07.83,1.7,2.04,1.89,3.62h-2.66c-.11-.81-.45-1.44-1.04-1.9s-1.39-.69-2.42-.69-1.77.2-2.29.61-.78.94-.78,1.6c0,.43.14.81.43,1.14.29.33.72.61,1.3.85.58.23,1.27.43,2.08.58,1.07.19,2.04.45,2.91.77.87.32,1.58.79,2.13,1.42.54.63.82,1.52.82,2.67,0,1-.25,1.88-.75,2.62-.5.75-1.21,1.33-2.13,1.74s-2,.62-3.23.62Z"/>
      <path d="M1320.03,620.19c-1.49,0-2.84-.35-4.03-1.04-1.2-.69-2.13-1.67-2.82-2.94-.68-1.27-1.02-2.75-1.02-4.43s.35-3.23,1.04-4.5c.69-1.27,1.64-2.25,2.85-2.94,1.21-.69,2.55-1.04,4.05-1.04s2.9.35,4.08,1.04c1.18.69,2.12,1.68,2.82,2.94.69,1.27,1.04,2.76,1.04,4.46s-.35,3.2-1.06,4.46c-.7,1.27-1.65,2.25-2.85,2.94-1.2.69-2.56,1.04-4.1,1.04ZM1320.06,617.89c.92,0,1.77-.23,2.56-.69.79-.46,1.43-1.15,1.92-2.06.49-.92.74-2.05.74-3.39s-.24-2.5-.72-3.41c-.48-.91-1.11-1.59-1.89-2.05-.78-.46-1.64-.69-2.58-.69s-1.74.23-2.54.69c-.8.46-1.44,1.14-1.92,2.05-.48.91-.72,2.04-.72,3.41s.24,2.48.72,3.39c.48.92,1.11,1.61,1.89,2.06.78.46,1.63.69,2.54.69Z"/>
      <path d="M1330.24,605.95v-2.27h9.22v2.27h-9.22ZM1332.7,619.81v-18.62c0-1.02.17-1.86.51-2.51.34-.65.85-1.13,1.52-1.44.67-.31,1.5-.46,2.48-.46h1.82v2.3h-1.41c-.79,0-1.36.16-1.71.48-.35.32-.53.88-.53,1.7v18.56h-2.69Z"/>
      <path d="M1341.12,605.95v-2.27h9.22v2.27h-9.22ZM1343.58,619.81v-18.62c0-1.02.17-1.86.51-2.51.34-.65.85-1.13,1.52-1.44.67-.31,1.5-.46,2.48-.46h1.82v2.3h-1.41c-.79,0-1.36.16-1.71.48-.35.32-.53.88-.53,1.7v18.56h-2.69Z"/>
      <path d="M1360.8,619.81l8.26-22.4h2.85l8.22,22.4h-2.85l-6.82-19.04-6.85,19.04h-2.82ZM1364.57,614.05l.77-2.18h10.14l.77,2.18h-11.68Z"/>
      <path d="M1383.32,619.81v-16.13h2.43l.19,3.07c.36-.72.83-1.34,1.39-1.86s1.25-.91,2.05-1.18c.8-.28,1.71-.42,2.74-.42v2.82h-.99c-.68,0-1.33.09-1.95.27-.62.18-1.17.47-1.65.88-.48.41-.85.96-1.12,1.65-.27.69-.4,1.55-.4,2.58v8.32h-2.69Z"/>
      <path d="M1395.16,619.81v-23.04h2.69v23.04h-2.69ZM1405.08,619.81l-7.68-8.83,7.01-7.3h3.3l-8.03,8.26.03-1.92,8.8,9.79h-3.42Z"/>
    </g>
  </g>
  <path class="cls-13" d="M1032.85,192.15h430.84c23.26,0,42.15,18.89,42.15,42.15v34.97h-515.14v-34.97c0-23.26,18.89-42.15,42.15-42.15Z"/>
  <path d="M1470.69,196.15c17.18,0,31.15,13.97,31.15,31.15v229.08c0,17.18-13.97,31.15-31.15,31.15h-444.84c-17.18,0-31.15-13.97-31.15-31.15v-229.08c0-17.18,13.97-31.15,31.15-31.15h444.84M1470.69,192.15h-444.84c-19.41,0-35.15,15.74-35.15,35.15v229.08c0,19.41,15.74,35.15,35.15,35.15h444.84c19.41,0,35.15-15.74,35.15-35.15v-229.08c0-19.41-15.74-35.15-35.15-35.15h0Z"/>
  <line class="cls-5" x1="990.7" y1="269.27" x2="1505.84" y2="269.27"/>
  <g>
    <line class="cls-7" x1="1248.27" y1="300.08" x2="1248.27" y2="466.33"/>
    <line class="cls-7" x1="1476.78" y1="383.21" x2="1385.72" y2="383.21"/>
    <line class="cls-7" x1="1339.97" y1="383.21" x2="1248.89" y2="383.21"/>
  </g>
  <g>
    <path d="M1037.08,245.04v-24.44h15.44v2.86h-11.94v7.82h10.9v2.79h-10.9v8.1h11.94v2.86h-15.44Z"/>
    <path d="M1055.17,245.04l6.08-8.8-6.08-8.8h3.77l4.61,6.84,4.64-6.84h3.74l-6.08,8.8,6.08,8.8h-3.74l-4.64-6.88-4.61,6.88h-3.77Z"/>
    <path d="M1077.03,224.13c-.68,0-1.23-.21-1.66-.63s-.65-.95-.65-1.61.21-1.15.65-1.55c.43-.41.98-.61,1.66-.61s1.2.2,1.64.61c.44.41.66.93.66,1.55s-.22,1.19-.66,1.61-.99.63-1.64.63ZM1075.25,245.04v-17.6h3.49v17.6h-3.49Z"/>
    <path d="M1090.97,245.04c-1.09,0-2.05-.17-2.86-.52-.81-.35-1.44-.93-1.89-1.75-.44-.81-.66-1.92-.66-3.32v-9.04h-3.04v-2.97h3.04l.42-4.4h3.07v4.4h4.99v2.97h-4.99v9.08c0,1,.21,1.68.63,2.04.42.36,1.14.54,2.17.54h2.03v2.97h-2.9Z"/>
  </g>
  <g>
    <path class="cls-3" d="M1356.14,392.66c-1.68,0-3.18-.39-4.52-1.17-1.34-.78-2.39-1.86-3.14-3.25-.76-1.38-1.13-2.97-1.13-4.77s.38-3.45,1.15-4.84c.77-1.38,1.82-2.47,3.16-3.25,1.34-.78,2.85-1.17,4.52-1.17s3.18.39,4.52,1.17c1.34.78,2.39,1.86,3.14,3.23.76,1.37,1.13,2.98,1.13,4.82s-.38,3.45-1.15,4.82c-.77,1.37-1.82,2.45-3.16,3.23-1.34.78-2.85,1.17-4.52,1.17ZM1356.14,389.06c.84,0,1.6-.21,2.29-.63.69-.42,1.24-1.05,1.66-1.89.42-.84.63-1.87.63-3.11s-.2-2.26-.61-3.09c-.41-.83-.96-1.45-1.64-1.87s-1.45-.63-2.29-.63-1.57.21-2.27.63c-.7.42-1.26,1.04-1.68,1.87-.42.83-.63,1.86-.63,3.09s.21,2.27.63,3.11c.42.84.97,1.47,1.66,1.89.69.42,1.44.63,2.25.63Z"/>
    <path class="cls-3" d="M1369.06,392.24v-17.6h3.74l.38,3.28c.42-.77.94-1.43,1.57-1.97.63-.55,1.37-.97,2.22-1.27.85-.3,1.79-.45,2.81-.45v4.44h-1.47c-.7,0-1.36.09-1.99.26-.63.17-1.17.45-1.62.84-.45.38-.81.91-1.07,1.57s-.38,1.5-.38,2.5v8.42h-4.19Z"/>
  </g>
  <g>
    <path d="M1310.34,339.67c-1.3-1.33-2.47-2.85-3.49-4.56s-1.82-3.59-2.39-5.64c-.57-2.05-.86-4.21-.86-6.5s.29-4.48.86-6.51,1.37-3.92,2.39-5.64c1.02-1.72,2.19-3.24,3.49-4.54h4.68v.45c-1.4,1.47-2.6,3.07-3.61,4.82-1.01,1.75-1.8,3.58-2.36,5.5-.56,1.92-.84,3.89-.84,5.92s.28,4,.84,5.92c.56,1.92,1.35,3.75,2.38,5.48s2.22,3.35,3.6,4.84v.45h-4.68Z"/>
    <path class="cls-1" d="M1323.4,334.6l8.94-24.44h5.34l8.9,24.44h-4.99l-6.6-19.07-6.64,19.07h-4.96ZM1327.34,329.05l1.26-3.67h12.43l1.22,3.67h-14.91Z"/>
    <path d="M1355,326.47v-3.95h17.04v3.95h-17.04ZM1361.53,332.47v-15.92h4.02v15.92h-4.02Z"/>
    <path class="cls-8" d="M1391.46,335.02c-1.77,0-3.35-.3-4.73-.91-1.39-.61-2.48-1.49-3.28-2.65-.8-1.16-1.22-2.57-1.24-4.23h4.99c.02.72.21,1.37.56,1.96.35.58.83,1.04,1.45,1.38.62.34,1.36.51,2.22.51.75,0,1.39-.12,1.94-.37.55-.24.97-.59,1.27-1.03.3-.44.45-.97.45-1.57,0-.7-.17-1.28-.51-1.75-.34-.47-.8-.86-1.4-1.19-.59-.33-1.28-.62-2.06-.89s-1.6-.55-2.46-.86c-1.93-.63-3.4-1.47-4.42-2.51-1.01-1.05-1.52-2.43-1.52-4.16,0-1.47.35-2.72,1.06-3.77.71-1.05,1.69-1.85,2.95-2.41,1.26-.56,2.69-.84,4.29-.84s3.1.29,4.35.86c1.25.57,2.24,1.39,2.97,2.46.73,1.07,1.11,2.33,1.13,3.77h-5.03c-.02-.54-.18-1.04-.47-1.52-.29-.48-.69-.86-1.21-1.15-.51-.29-1.12-.44-1.82-.44-.61-.02-1.16.07-1.66.28-.5.21-.9.52-1.19.93-.29.41-.44.91-.44,1.52s.15,1.07.44,1.47c.29.4.69.74,1.21,1.03.51.29,1.12.56,1.82.8.7.24,1.46.5,2.27.75,1.21.42,2.33.91,3.35,1.48,1.02.57,1.84,1.31,2.44,2.22.6.91.91,2.11.91,3.6,0,1.28-.34,2.47-1.01,3.56-.67,1.09-1.65,1.98-2.92,2.65-1.27.68-2.85,1.01-4.73,1.01Z"/>
    <path d="M1414.5,339.67h-4.71v-.45c1.4-1.49,2.61-3.1,3.63-4.84s1.81-3.56,2.36-5.48c.55-1.92.82-3.89.82-5.92s-.27-4-.82-5.92c-.55-1.92-1.33-3.75-2.36-5.5-1.02-1.75-2.23-3.35-3.63-4.82v-.45h4.71c1.3,1.3,2.46,2.82,3.47,4.54,1.01,1.72,1.81,3.6,2.39,5.64s.87,4.21.87,6.51-.29,4.45-.87,6.5c-.58,2.05-1.38,3.93-2.39,5.64s-2.17,3.23-3.47,4.56Z"/>
  </g>
  <path class="cls-1" d="M1336.96,456.88l8.94-24.44h5.34l8.9,24.44h-4.99l-6.6-19.07-6.64,19.07h-4.96ZM1340.9,451.33l1.26-3.67h12.43l1.22,3.67h-14.91Z"/>
  <g>
    <path d="M1043.16,402.62v-39.59l-8.23,2.09v-5.06l10.72-4.65h4.38v47.21h-6.88Z"/>
    <path d="M1077.15,402.62v-47.21h17.47c3.28,0,6.02.53,8.23,1.58,2.2,1.06,3.86,2.5,4.96,4.32,1.1,1.82,1.65,3.88,1.65,6.17s-.52,4.38-1.55,6c-1.04,1.62-2.39,2.87-4.08,3.74-1.69.88-3.5,1.38-5.43,1.52l.94-.67c2.07.04,3.96.6,5.67,1.65,1.71,1.06,3.06,2.46,4.05,4.22.99,1.75,1.48,3.69,1.48,5.8,0,2.43-.58,4.62-1.75,6.58-1.17,1.96-2.9,3.5-5.19,4.62-2.29,1.12-5.1,1.69-8.43,1.69h-18.01ZM1083.89,375.78h9.98c2.83,0,4.99-.66,6.47-1.99,1.48-1.33,2.23-3.16,2.23-5.5s-.74-4.04-2.23-5.36c-1.48-1.33-3.71-1.99-6.68-1.99h-9.78v14.84ZM1083.89,397.02h10.39c2.97,0,5.27-.68,6.91-2.06,1.64-1.37,2.46-3.32,2.46-5.83s-.84-4.45-2.53-5.94c-1.69-1.48-4.01-2.23-6.98-2.23h-10.25v16.05Z"/>
    <path d="M1128.6,402.62v-41.68h-13.96v-5.53h34.73v5.53h-14.03v41.68h-6.74Z"/>
    <path d="M1174.73,403.43c-4.63,0-8.62-1.02-11.97-3.07-3.35-2.05-5.93-4.9-7.75-8.56-1.82-3.66-2.73-7.92-2.73-12.78s.91-9.06,2.73-12.75c1.82-3.69,4.41-6.55,7.75-8.6,3.35-2.05,7.34-3.07,11.97-3.07,5.53,0,10.01,1.33,13.45,3.98,3.44,2.65,5.63,6.38,6.58,11.19h-7.42c-.67-2.79-2.06-5.01-4.15-6.68-2.09-1.66-4.91-2.5-8.46-2.5-3.19,0-5.96.74-8.29,2.23-2.34,1.48-4.14,3.6-5.4,6.34-1.26,2.74-1.89,6.03-1.89,9.85s.63,7.11,1.89,9.88,3.06,4.88,5.4,6.34c2.34,1.46,5.1,2.19,8.29,2.19,3.55,0,6.37-.8,8.46-2.39,2.09-1.6,3.47-3.77,4.15-6.51h7.42c-.94,4.68-3.14,8.33-6.58,10.96-3.44,2.63-7.92,3.94-13.45,3.94Z"/>
  </g>
  <g>
    <g>
      <path d="M375.25,572.55c-2.86,0-5.38-.64-7.56-1.93-2.18-1.29-3.89-3.07-5.12-5.35-1.23-2.28-1.85-4.92-1.85-7.92s.62-5.63,1.85-7.92c1.23-2.28,2.94-4.07,5.12-5.35,2.18-1.29,4.7-1.93,7.56-1.93s5.42.64,7.6,1.93c2.18,1.29,3.88,3.07,5.1,5.35,1.22,2.28,1.83,4.92,1.83,7.92s-.61,5.64-1.83,7.92c-1.22,2.28-2.92,4.07-5.1,5.35-2.18,1.29-4.72,1.93-7.6,1.93ZM375.25,567.46c1.79,0,3.34-.41,4.64-1.24,1.3-.83,2.32-2,3.04-3.51.73-1.51,1.09-3.3,1.09-5.38s-.36-3.9-1.09-5.4c-.73-1.5-1.74-2.65-3.04-3.46-1.3-.81-2.85-1.22-4.64-1.22s-3.3.41-4.62,1.22c-1.32.81-2.34,1.97-3.07,3.46-.73,1.5-1.09,3.3-1.09,5.4s.36,3.86,1.09,5.38c.73,1.51,1.75,2.68,3.07,3.51,1.32.83,2.86,1.24,4.62,1.24Z"/>
      <path d="M394.49,572.04v-21.17h5l.42,3.44c.64-1.18,1.56-2.13,2.75-2.86,1.19-.73,2.61-1.09,4.26-1.09,1.76,0,3.25.36,4.45,1.09,1.2.73,2.12,1.79,2.75,3.19.63,1.4.94,3.12.94,5.17v12.22h-5.63v-11.68c0-1.68-.36-2.97-1.07-3.86-.71-.9-1.81-1.34-3.3-1.34-.95,0-1.8.22-2.54.67-.74.45-1.32,1.09-1.74,1.91-.42.83-.63,1.83-.63,3v11.3h-5.67Z"/>
      <path d="M420.87,562.05v-4.75h17.72v4.75h-17.72Z"/>
      <path d="M454.84,572.55c-2.13,0-4.02-.48-5.67-1.43-1.65-.95-2.94-2.25-3.86-3.91-.92-1.65-1.39-3.54-1.39-5.67s.46-4.11,1.39-5.77c.92-1.67,2.21-2.98,3.86-3.95,1.65-.97,3.54-1.45,5.67-1.45,2.72,0,5,.71,6.85,2.14,1.85,1.43,3.02,3.39,3.53,5.88h-6.01c-.25-.98-.78-1.75-1.57-2.31-.8-.56-1.74-.84-2.84-.84-.98,0-1.85.25-2.62.73-.77.49-1.37,1.2-1.81,2.14-.43.94-.65,2.05-.65,3.34,0,.98.13,1.85.38,2.62.25.77.6,1.43,1.05,1.97.45.55.99.96,1.62,1.24.63.28,1.31.42,2.04.42s1.39-.13,2-.38,1.11-.61,1.53-1.07.71-1.03.88-1.7h6.01c-.5,2.44-1.69,4.38-3.55,5.82-1.86,1.44-4.14,2.16-6.83,2.16Z"/>
      <path d="M470.09,572.04v-30.24h5.67v12.22c.7-1.09,1.63-1.97,2.79-2.65,1.16-.67,2.51-1.01,4.05-1.01,1.76,0,3.25.37,4.45,1.11,1.2.74,2.11,1.81,2.73,3.21.62,1.4.92,3.14.92,5.21v12.14h-5.63v-11.63c0-1.68-.35-2.98-1.05-3.89-.7-.91-1.81-1.36-3.32-1.36-.92,0-1.76.22-2.52.67-.76.45-1.35,1.1-1.79,1.95-.43.85-.65,1.87-.65,3.04v11.21h-5.67Z"/>
      <path d="M503.19,572.55c-1.76,0-3.22-.29-4.37-.86-1.15-.57-2-1.34-2.54-2.31s-.82-2.04-.82-3.21c0-1.29.33-2.42.99-3.4.66-.98,1.65-1.75,2.98-2.31,1.33-.56,3-.84,5.02-.84h5.25c0-1.04-.14-1.9-.42-2.58-.28-.69-.71-1.2-1.3-1.53s-1.37-.5-2.35-.5c-1.06,0-1.97.23-2.71.69s-1.2,1.17-1.36,2.12h-5.5c.14-1.51.64-2.82,1.49-3.93.85-1.11,1.99-1.97,3.4-2.58,1.41-.62,2.99-.92,4.72-.92,1.99,0,3.71.34,5.17,1.01s2.58,1.64,3.36,2.9c.78,1.26,1.18,2.81,1.18,4.66v13.1h-4.79l-.63-3.23c-.31.56-.67,1.06-1.09,1.51-.42.45-.91.84-1.47,1.18-.56.34-1.19.59-1.89.78-.7.18-1.47.27-2.31.27ZM504.53,568.18c.73,0,1.38-.13,1.95-.4.57-.27,1.07-.63,1.49-1.09s.75-.99.99-1.6c.24-.6.4-1.25.48-1.95v-.04h-4.33c-.87,0-1.58.1-2.12.31s-.94.51-1.2.9c-.25.39-.38.84-.38,1.34,0,.56.13,1.02.38,1.39.25.36.62.64,1.09.84.48.2,1.02.29,1.64.29Z"/>
      <path d="M523.64,547.98c-1.01,0-1.84-.3-2.5-.9-.66-.6-.99-1.36-.99-2.29s.33-1.69.99-2.29c.66-.6,1.49-.9,2.5-.9s1.88.3,2.54.9c.66.6.99,1.36.99,2.29s-.33,1.69-.99,2.29c-.66.6-1.5.9-2.54.9ZM520.78,572.04v-21.17h5.67v21.17h-5.67Z"/>
      <path d="M532.16,572.04v-21.17h5l.42,3.44c.64-1.18,1.56-2.13,2.75-2.86,1.19-.73,2.61-1.09,4.26-1.09,1.76,0,3.25.36,4.45,1.09,1.2.73,2.12,1.79,2.75,3.19.63,1.4.94,3.12.94,5.17v12.22h-5.63v-11.68c0-1.68-.36-2.97-1.07-3.86-.71-.9-1.81-1.34-3.3-1.34-.95,0-1.8.22-2.54.67-.74.45-1.32,1.09-1.74,1.91-.42.83-.63,1.83-.63,3v11.3h-5.67Z"/>
    </g>
    <g>
      <path d="M279.22,620.23c-2.29,0-4.29-.53-6.02-1.59-1.73-1.06-3.07-2.54-4.02-4.43-.96-1.89-1.44-4.09-1.44-6.61s.48-4.7,1.45-6.62c.97-1.91,2.34-3.41,4.13-4.48,1.79-1.07,3.89-1.61,6.32-1.61,2.75,0,5.05.66,6.89,1.98,1.84,1.32,3.02,3.16,3.54,5.51h-3.39c-.33-1.47-1.1-2.64-2.31-3.5-1.21-.86-2.79-1.29-4.72-1.29-1.8,0-3.37.4-4.71,1.21-1.34.81-2.37,1.95-3.1,3.45-.72,1.49-1.08,3.28-1.08,5.35s.36,3.87,1.08,5.37c.72,1.5,1.73,2.65,3.03,3.45,1.29.79,2.78,1.19,4.46,1.19,2.61,0,4.58-.77,5.92-2.31s2.09-3.63,2.28-6.26h-7.07v-2.31h10.08v13.09h-2.7l-.24-4.02c-.58.96-1.25,1.77-2.01,2.43-.76.66-1.65,1.17-2.68,1.5-1.03.34-2.25.51-3.67.51Z"/>
      <path d="M302.77,620.23c-1.63,0-3.09-.38-4.38-1.15s-2.29-1.85-3.01-3.24c-.72-1.39-1.08-3-1.08-4.85s.36-3.49,1.07-4.87c.71-1.38,1.71-2.45,3.01-3.22,1.29-.77,2.78-1.16,4.46-1.16s3.2.39,4.41,1.16c1.21.77,2.14,1.78,2.78,3.03.64,1.25.96,2.62.96,4.11v.74c0,.26-.01.55-.04.88h-14.46v-2.28h11.58c-.07-1.61-.6-2.87-1.59-3.78-.99-.91-2.23-1.37-3.73-1.37-.98,0-1.9.23-2.76.68s-1.55,1.12-2.06,2c-.51.88-.77,1.97-.77,3.27v.98c0,1.45.26,2.66.79,3.64.53.98,1.21,1.71,2.07,2.21.85.49,1.77.73,2.75.73,1.24,0,2.26-.27,3.06-.82.81-.55,1.39-1.3,1.77-2.26h2.91c-.3,1.07-.8,2.02-1.5,2.85-.7.83-1.57,1.49-2.61,1.98-1.04.49-2.25.73-3.62.73Z"/>
      <path d="M321.25,619.81c-1.05,0-1.96-.16-2.73-.49-.77-.33-1.36-.88-1.77-1.66-.41-.78-.61-1.84-.61-3.17v-9.83h-3.08v-2.49h3.08l.39-4.27h2.55v4.27h5.11v2.49h-5.11v9.83c0,1.1.22,1.84.67,2.22.44.39,1.22.58,2.34.58h1.89v2.52h-2.73Z"/>
      <path d="M334.69,620.23c-1.45,0-2.72-.25-3.81-.73-1.1-.49-1.97-1.17-2.61-2.05-.64-.88-1.03-1.91-1.17-3.1h3.01c.12.61.36,1.17.74,1.68s.88.93,1.52,1.24,1.43.47,2.36.47c.82,0,1.49-.12,2.03-.37.54-.25.94-.58,1.21-1,.27-.42.4-.88.4-1.36,0-.72-.17-1.27-.51-1.65-.34-.37-.83-.67-1.49-.89-.65-.22-1.45-.41-2.38-.58-.77-.14-1.53-.33-2.28-.56-.75-.23-1.41-.54-2-.93-.58-.39-1.04-.86-1.38-1.42-.34-.56-.51-1.25-.51-2.06,0-1,.26-1.9.79-2.68.53-.78,1.27-1.39,2.22-1.84.96-.44,2.08-.67,3.36-.67,1.89,0,3.42.46,4.58,1.37,1.17.91,1.85,2.23,2.06,3.95h-2.9c-.12-.89-.5-1.58-1.14-2.08-.64-.5-1.52-.75-2.64-.75s-1.93.22-2.5.67c-.57.44-.86,1.03-.86,1.75,0,.47.16.88.47,1.24.32.36.79.67,1.42.93.63.26,1.39.47,2.27.63,1.17.21,2.23.49,3.19.84.96.35,1.73.87,2.33,1.56.59.69.89,1.66.89,2.92,0,1.1-.27,2.05-.82,2.87-.55.82-1.33,1.45-2.33,1.91-1,.46-2.18.68-3.54.68Z"/>
      <path d="M356.84,627.51l4.3-9.66h-1.01l-6.93-15.68h3.18l5.74,13.48,6.05-13.48h3.04l-11.3,25.34h-3.08Z"/>
      <path d="M380.61,620.23c-1.63,0-3.1-.38-4.41-1.14-1.31-.76-2.33-1.83-3.08-3.22-.75-1.39-1.12-3-1.12-4.85s.38-3.53,1.14-4.92c.76-1.39,1.8-2.46,3.12-3.22,1.32-.76,2.79-1.14,4.43-1.14s3.17.38,4.46,1.14,2.32,1.83,3.08,3.22c.76,1.39,1.14,3.02,1.14,4.88s-.38,3.49-1.16,4.88c-.77,1.39-1.81,2.46-3.12,3.22-1.31.76-2.8,1.14-4.48,1.14ZM380.65,617.71c1,0,1.94-.25,2.8-.75.86-.5,1.56-1.25,2.1-2.26.54-1,.81-2.24.81-3.71s-.26-2.74-.79-3.73c-.52-.99-1.21-1.74-2.06-2.24-.85-.5-1.79-.75-2.82-.75s-1.91.25-2.78.75c-.88.5-1.58,1.25-2.1,2.24-.53.99-.79,2.23-.79,3.73s.26,2.71.79,3.71c.52,1,1.21,1.76,2.06,2.26.85.5,1.78.75,2.78.75Z"/>
      <path d="M399.9,620.23c-1.35,0-2.54-.27-3.55-.8-1.02-.54-1.8-1.37-2.35-2.49-.55-1.12-.82-2.52-.82-4.2v-10.57h2.94v10.26c0,1.75.38,3.07,1.16,3.95.77.89,1.85,1.33,3.25,1.33.98,0,1.87-.24,2.66-.72.79-.48,1.42-1.17,1.87-2.06.46-.9.68-2.01.68-3.34v-9.42h2.94v17.64h-2.66l-.18-3.08c-.54,1.1-1.33,1.95-2.38,2.57-1.05.62-2.24.93-3.57.93Z"/>
      <path d="M413.54,619.81v-17.64h2.66l.21,3.36c.4-.79.9-1.47,1.52-2.03.62-.56,1.36-.99,2.24-1.29.88-.3,1.87-.46,2.99-.46v3.08h-1.08c-.75,0-1.46.1-2.13.3-.68.2-1.28.52-1.8.96-.53.44-.93,1.04-1.23,1.8-.29.76-.44,1.7-.44,2.82v9.1h-2.94Z"/>
      <path d="M442.45,620.23c-1.45,0-2.72-.25-3.81-.73-1.1-.49-1.97-1.17-2.61-2.05-.64-.88-1.03-1.91-1.17-3.1h3.01c.12.61.36,1.17.74,1.68s.88.93,1.52,1.24,1.43.47,2.36.47c.82,0,1.49-.12,2.03-.37.54-.25.94-.58,1.21-1,.27-.42.4-.88.4-1.36,0-.72-.17-1.27-.51-1.65-.34-.37-.83-.67-1.49-.89-.65-.22-1.45-.41-2.38-.58-.77-.14-1.53-.33-2.28-.56-.75-.23-1.41-.54-2-.93-.58-.39-1.04-.86-1.38-1.42-.34-.56-.51-1.25-.51-2.06,0-1,.26-1.9.79-2.68.53-.78,1.27-1.39,2.22-1.84.96-.44,2.08-.67,3.36-.67,1.89,0,3.42.46,4.58,1.37,1.17.91,1.85,2.23,2.06,3.95h-2.9c-.12-.89-.5-1.58-1.14-2.08-.64-.5-1.52-.75-2.64-.75s-1.93.22-2.5.67c-.57.44-.86,1.03-.86,1.75,0,.47.16.88.47,1.24.32.36.79.67,1.42.93.63.26,1.39.47,2.27.63,1.17.21,2.23.49,3.19.84.96.35,1.73.87,2.33,1.56.59.69.89,1.66.89,2.92,0,1.1-.27,2.05-.82,2.87-.55.82-1.33,1.45-2.33,1.91-1,.46-2.18.68-3.54.68Z"/>
      <path d="M459.11,620.23c-1.42,0-2.61-.25-3.57-.75-.96-.5-1.67-1.17-2.13-2-.47-.83-.7-1.73-.7-2.71,0-1.19.31-2.2.93-3.03.62-.83,1.49-1.46,2.62-1.89,1.13-.43,2.47-.65,4.01-.65h4.66c0-1.1-.17-2.01-.51-2.75s-.83-1.29-1.47-1.66c-.64-.37-1.44-.56-2.4-.56-1.12,0-2.09.28-2.91.84s-1.32,1.39-1.5,2.48h-3.01c.14-1.26.57-2.32,1.28-3.17.71-.85,1.62-1.5,2.71-1.96,1.1-.46,2.24-.68,3.43-.68,1.63,0,2.99.3,4.08.89s1.9,1.42,2.43,2.48c.54,1.06.81,2.32.81,3.76v10.92h-2.62l-.18-3.12c-.23.49-.53.95-.89,1.38-.36.43-.78.8-1.26,1.12-.48.31-1.03.57-1.66.75s-1.34.28-2.13.28ZM459.57,617.74c.82,0,1.56-.17,2.22-.51s1.23-.81,1.7-1.4c.47-.59.82-1.25,1.07-1.98.25-.72.37-1.48.37-2.27v-.1h-4.41c-1.14,0-2.06.13-2.76.4-.7.27-1.2.64-1.5,1.12-.3.48-.46,1.02-.46,1.63s.15,1.18.44,1.65c.29.47.72.83,1.29,1.08.57.26,1.25.39,2.05.39Z"/>
      <path d="M478.85,619.81c-1.05,0-1.96-.16-2.73-.49-.77-.33-1.36-.88-1.77-1.66-.41-.78-.61-1.84-.61-3.17v-9.83h-3.08v-2.49h3.08l.39-4.27h2.55v4.27h5.11v2.49h-5.11v9.83c0,1.1.22,1.84.67,2.22.44.39,1.22.58,2.34.58h1.89v2.52h-2.73Z"/>
      <path d="M492.29,620.23c-1.45,0-2.72-.25-3.81-.73-1.1-.49-1.97-1.17-2.61-2.05-.64-.88-1.03-1.91-1.17-3.1h3.01c.12.61.36,1.17.74,1.68s.88.93,1.52,1.24,1.43.47,2.36.47c.82,0,1.49-.12,2.03-.37.54-.25.94-.58,1.21-1,.27-.42.4-.88.4-1.36,0-.72-.17-1.27-.51-1.65-.34-.37-.83-.67-1.49-.89-.65-.22-1.45-.41-2.38-.58-.77-.14-1.53-.33-2.28-.56-.75-.23-1.41-.54-2-.93-.58-.39-1.04-.86-1.38-1.42-.34-.56-.51-1.25-.51-2.06,0-1,.26-1.9.79-2.68.53-.78,1.27-1.39,2.22-1.84.96-.44,2.08-.67,3.36-.67,1.89,0,3.42.46,4.58,1.37,1.17.91,1.85,2.23,2.06,3.95h-2.9c-.12-.89-.5-1.58-1.14-2.08-.64-.5-1.52-.75-2.64-.75s-1.93.22-2.5.67c-.57.44-.86,1.03-.86,1.75,0,.47.16.88.47,1.24.32.36.79.67,1.42.93.63.26,1.39.47,2.27.63,1.17.21,2.23.49,3.19.84.96.35,1.73.87,2.33,1.56.59.69.89,1.66.89,2.92,0,1.1-.27,2.05-.82,2.87-.55.82-1.33,1.45-2.33,1.91-1,.46-2.18.68-3.54.68Z"/>
      <path d="M520.4,620.23c-1.63,0-3.1-.38-4.41-1.14-1.31-.76-2.33-1.83-3.08-3.22-.75-1.39-1.12-3-1.12-4.85s.38-3.53,1.14-4.92c.76-1.39,1.8-2.46,3.12-3.22,1.32-.76,2.79-1.14,4.43-1.14s3.17.38,4.46,1.14,2.32,1.83,3.08,3.22c.76,1.39,1.14,3.02,1.14,4.88s-.38,3.49-1.16,4.88c-.77,1.39-1.81,2.46-3.12,3.22-1.31.76-2.8,1.14-4.48,1.14ZM520.43,617.71c1,0,1.94-.25,2.8-.75.86-.5,1.56-1.25,2.1-2.26.54-1,.81-2.24.81-3.71s-.26-2.74-.79-3.73c-.52-.99-1.21-1.74-2.06-2.24-.85-.5-1.79-.75-2.82-.75s-1.91.25-2.78.75c-.88.5-1.58,1.25-2.1,2.24-.53.99-.79,2.23-.79,3.73s.26,2.71.79,3.71c.52,1,1.21,1.76,2.06,2.26.85.5,1.78.75,2.78.75Z"/>
      <path d="M533.28,619.81v-17.64h2.66l.14,3.08c.56-1.1,1.36-1.95,2.4-2.57s2.22-.93,3.55-.93,2.57.27,3.57.82c1,.55,1.79,1.38,2.35,2.48.56,1.11.84,2.51.84,4.22v10.54h-2.94v-10.22c0-1.77-.39-3.1-1.17-3.99-.78-.89-1.88-1.33-3.31-1.33-.98,0-1.86.24-2.62.72-.77.48-1.38,1.17-1.84,2.06-.46.9-.68,2.01-.68,3.34v9.42h-2.94Z"/>
      <path d="M560.3,619.81c-1.05,0-1.96-.16-2.73-.49-.77-.33-1.36-.88-1.77-1.66-.41-.78-.61-1.84-.61-3.17v-9.83h-3.08v-2.49h3.08l.39-4.27h2.55v4.27h5.11v2.49h-5.11v9.83c0,1.1.22,1.84.67,2.22.44.39,1.22.58,2.34.58h1.89v2.52h-2.73Z"/>
      <path d="M574.47,620.23c-1.63,0-3.1-.38-4.41-1.14-1.31-.76-2.33-1.83-3.08-3.22-.75-1.39-1.12-3-1.12-4.85s.38-3.53,1.14-4.92c.76-1.39,1.8-2.46,3.12-3.22,1.32-.76,2.79-1.14,4.43-1.14s3.17.38,4.46,1.14,2.32,1.83,3.08,3.22c.76,1.39,1.14,3.02,1.14,4.88s-.38,3.49-1.16,4.88c-.77,1.39-1.81,2.46-3.12,3.22-1.31.76-2.8,1.14-4.48,1.14ZM574.51,617.71c1,0,1.94-.25,2.8-.75.86-.5,1.56-1.25,2.1-2.26.54-1,.81-2.24.81-3.71s-.26-2.74-.79-3.73c-.52-.99-1.21-1.74-2.06-2.24-.85-.5-1.79-.75-2.82-.75s-1.91.25-2.78.75c-.88.5-1.58,1.25-2.1,2.24-.53.99-.79,2.23-.79,3.73s.26,2.71.79,3.71c.52,1,1.21,1.76,2.06,2.26.85.5,1.78.75,2.78.75Z"/>
      <path d="M595.26,619.81l9.03-24.5h3.12l9,24.5h-3.12l-7.46-20.83-7.49,20.83h-3.08ZM599.39,613.51l.84-2.38h11.1l.84,2.38h-12.78Z"/>
      <path d="M619.9,619.81v-17.64h2.66l.21,3.36c.4-.79.9-1.47,1.52-2.03.62-.56,1.36-.99,2.24-1.29.88-.3,1.87-.46,2.99-.46v3.08h-1.08c-.75,0-1.46.1-2.13.3-.68.2-1.28.52-1.8.96-.53.44-.93,1.04-1.23,1.8-.29.76-.44,1.7-.44,2.82v9.1h-2.94Z"/>
      <path d="M632.85,619.81v-25.2h2.94v25.2h-2.94ZM643.7,619.81l-8.4-9.66,7.67-7.98h3.6l-8.79,9.03.04-2.1,9.62,10.71h-3.75Z"/>
    </g>
  </g>
  <path class="cls-13" d="M241.63,192.15h430.84c23.26,0,42.15,18.89,42.15,42.15v34.97H199.48v-34.97c0-23.26,18.89-42.15,42.15-42.15Z"/>
  <path d="M679.47,196.15c17.18,0,31.15,13.97,31.15,31.15v229.08c0,17.18-13.97,31.15-31.15,31.15H234.63c-17.18,0-31.15-13.97-31.15-31.15v-229.08c0-17.18,13.97-31.15,31.15-31.15h444.84M679.47,192.15H234.63c-19.41,0-35.15,15.74-35.15,35.15v229.08c0,19.41,15.74,35.15,35.15,35.15h444.84c19.41,0,35.15-15.74,35.15-35.15v-229.08c0-19.41-15.74-35.15-35.15-35.15h0Z"/>
  <line class="cls-5" x1="199.48" y1="269.27" x2="714.62" y2="269.27"/>
  <g>
    <line class="cls-7" x1="457.05" y1="300.08" x2="457.05" y2="466.33"/>
    <line class="cls-7" x1="685.55" y1="383.21" x2="594.49" y2="383.21"/>
    <line class="cls-7" x1="548.75" y1="383.21" x2="457.66" y2="383.21"/>
  </g>
  <g>
    <path d="M245.86,245.04v-24.44h15.19v2.86h-11.7v7.93h9.78v2.79h-9.78v10.86h-3.49Z"/>
    <path d="M271.07,245.46c-1.37,0-2.57-.28-3.58-.84s-1.79-1.4-2.34-2.51c-.55-1.12-.82-2.53-.82-4.23v-10.44h3.49v10.06c0,1.65.36,2.9,1.08,3.74.72.84,1.76,1.26,3.11,1.26.91,0,1.73-.22,2.46-.66.73-.44,1.31-1.08,1.73-1.92.42-.84.63-1.86.63-3.07v-9.39h3.49v17.6h-3.11l-.24-3c-.54,1.07-1.32,1.91-2.34,2.51-1.02.6-2.21.91-3.56.91Z"/>
    <path d="M285.11,245.04v-17.6h3.14l.21,3c.56-1.05,1.35-1.88,2.38-2.5,1.02-.62,2.2-.93,3.53-.93,1.4,0,2.6.28,3.6.84,1,.56,1.78,1.4,2.34,2.53.56,1.13.84,2.54.84,4.24v10.41h-3.49v-10.06c0-1.63-.36-2.86-1.08-3.7-.72-.84-1.77-1.26-3.14-1.26-.91,0-1.72.22-2.44.65s-1.3,1.06-1.73,1.9c-.43.84-.65,1.86-.65,3.07v9.39h-3.49Z"/>
    <path d="M313.43,245.46c-1.68,0-3.16-.4-4.44-1.2s-2.28-1.9-2.99-3.28c-.71-1.38-1.07-2.96-1.07-4.73s.35-3.38,1.07-4.75c.71-1.37,1.71-2.46,3-3.27,1.29-.8,2.78-1.2,4.45-1.2,1.37,0,2.58.27,3.63.82,1.05.55,1.86,1.32,2.44,2.32v-10.27h3.49v25.14h-3.11l-.38-2.72c-.35.54-.8,1.04-1.36,1.52s-1.23.87-2.03,1.17c-.79.3-1.7.45-2.72.45ZM313.99,242.43c1.09,0,2.06-.26,2.9-.77.84-.51,1.48-1.23,1.94-2.17s.68-2.01.68-3.25-.23-2.31-.68-3.23c-.45-.92-1.1-1.64-1.94-2.17-.84-.52-1.8-.79-2.9-.79s-1.99.26-2.83.79-1.49,1.25-1.96,2.17c-.47.92-.7,2-.7,3.23s.23,2.32.7,3.25c.46.93,1.12,1.65,1.96,2.17.84.51,1.78.77,2.83.77Z"/>
    <path d="M329.84,224.13c-.68,0-1.23-.21-1.66-.63s-.65-.95-.65-1.61.21-1.15.65-1.55c.43-.41.98-.61,1.66-.61s1.2.2,1.64.61c.44.41.66.93.66,1.55s-.22,1.19-.66,1.61-.99.63-1.64.63ZM328.06,245.04v-17.6h3.49v17.6h-3.49Z"/>
    <path d="M336.55,245.04v-17.6h3.14l.21,3c.56-1.05,1.35-1.88,2.38-2.5,1.02-.62,2.2-.93,3.53-.93,1.4,0,2.6.28,3.6.84,1,.56,1.78,1.4,2.34,2.53.56,1.13.84,2.54.84,4.24v10.41h-3.49v-10.06c0-1.63-.36-2.86-1.08-3.7-.72-.84-1.77-1.26-3.14-1.26-.91,0-1.72.22-2.44.65s-1.3,1.06-1.73,1.9c-.43.84-.65,1.86-.65,3.07v9.39h-3.49Z"/>
    <path d="M364.21,253.15c-1.61,0-3.03-.2-4.26-.61-1.23-.41-2.19-1.03-2.86-1.87-.67-.84-1.01-1.86-1.01-3.07,0-.63.14-1.26.42-1.9.28-.64.73-1.25,1.36-1.83.63-.58,1.48-1.11,2.55-1.57l1.96,1.57c-1.19.44-1.99.97-2.39,1.59-.41.62-.61,1.22-.61,1.8,0,.7.21,1.28.63,1.75s1,.81,1.73,1.05c.73.23,1.57.35,2.5.35s1.7-.13,2.38-.38c.67-.26,1.2-.62,1.57-1.08.37-.47.56-1.01.56-1.64,0-.75-.28-1.37-.84-1.87s-1.63-.8-3.21-.89c-1.33-.09-2.45-.22-3.37-.38-.92-.16-1.7-.36-2.34-.59-.64-.23-1.18-.49-1.61-.77-.43-.28-.8-.57-1.1-.87v-.8l3.49-3.6,2.83.98-3.81,3.53.73-1.57c.26.16.5.32.73.47.23.15.55.29.94.4.4.12.93.22,1.61.31.67.09,1.56.19,2.65.28,1.58.12,2.86.4,3.82.84.97.44,1.67,1.04,2.11,1.78.44.75.66,1.63.66,2.65s-.27,1.96-.82,2.86c-.55.91-1.4,1.65-2.55,2.23-1.15.58-2.64.87-4.45.87ZM364.21,239.63c-1.49,0-2.75-.28-3.79-.84-1.04-.56-1.83-1.31-2.37-2.27-.55-.95-.82-2.01-.82-3.18s.27-2.25.82-3.2c.55-.94,1.34-1.7,2.39-2.27,1.05-.57,2.3-.86,3.77-.86s2.72.29,3.75.86c1.04.57,1.83,1.33,2.38,2.27.55.94.82,2.01.82,3.2s-.27,2.22-.82,3.18c-.55.95-1.34,1.71-2.38,2.27-1.04.56-2.29.84-3.75.84ZM364.21,236.84c1.14,0,2.05-.3,2.72-.89s1.01-1.46,1.01-2.6-.34-2.01-1.01-2.6c-.67-.59-1.58-.89-2.72-.89s-2.06.3-2.76.89c-.7.59-1.05,1.46-1.05,2.6s.35,2.01,1.05,2.6,1.62.89,2.76.89ZM367.07,230.2l-.84-2.76h7.23v2.41l-6.39.35Z"/>
  </g>
  <g>
    <path class="cls-3" d="M564.92,392.66c-1.68,0-3.18-.39-4.52-1.17-1.34-.78-2.39-1.86-3.14-3.25-.76-1.38-1.13-2.97-1.13-4.77s.38-3.45,1.15-4.84c.77-1.38,1.82-2.47,3.16-3.25,1.34-.78,2.85-1.17,4.52-1.17s3.18.39,4.52,1.17c1.34.78,2.39,1.86,3.14,3.23.76,1.37,1.13,2.98,1.13,4.82s-.38,3.45-1.15,4.82c-.77,1.37-1.82,2.45-3.16,3.23-1.34.78-2.85,1.17-4.52,1.17ZM564.92,389.06c.84,0,1.6-.21,2.29-.63.69-.42,1.24-1.05,1.66-1.89.42-.84.63-1.87.63-3.11s-.2-2.26-.61-3.09c-.41-.83-.96-1.45-1.64-1.87s-1.45-.63-2.29-.63-1.57.21-2.27.63c-.7.42-1.26,1.04-1.68,1.87-.42.83-.63,1.86-.63,3.09s.21,2.27.63,3.11c.42.84.97,1.47,1.66,1.89.69.42,1.44.63,2.25.63Z"/>
    <path class="cls-3" d="M577.84,392.24v-17.6h3.74l.38,3.28c.42-.77.94-1.43,1.57-1.97.63-.55,1.37-.97,2.22-1.27.85-.3,1.79-.45,2.81-.45v4.44h-1.47c-.7,0-1.36.09-1.99.26-.63.17-1.17.45-1.62.84-.45.38-.81.91-1.07,1.57s-.38,1.5-.38,2.5v8.42h-4.19Z"/>
  </g>
  <g>
    <path d="M519.11,339.67c-1.3-1.33-2.47-2.85-3.49-4.56s-1.82-3.59-2.39-5.64c-.57-2.05-.86-4.21-.86-6.5s.29-4.48.86-6.51,1.37-3.92,2.39-5.64c1.02-1.72,2.19-3.24,3.49-4.54h4.68v.45c-1.4,1.47-2.6,3.07-3.61,4.82-1.01,1.75-1.8,3.58-2.36,5.5-.56,1.92-.84,3.89-.84,5.92s.28,4,.84,5.92c.56,1.92,1.35,3.75,2.38,5.48s2.22,3.35,3.6,4.84v.45h-4.68Z"/>
    <path class="cls-1" d="M532.18,334.6l8.94-24.44h5.34l8.9,24.44h-4.99l-6.6-19.07-6.64,19.07h-4.96ZM536.12,329.05l1.26-3.67h12.43l1.22,3.67h-14.91Z"/>
    <path d="M563.78,326.47v-3.95h17.04v3.95h-17.04ZM570.31,332.47v-15.92h4.02v15.92h-4.02Z"/>
    <path class="cls-8" d="M600.24,335.02c-1.77,0-3.35-.3-4.73-.91-1.39-.61-2.48-1.49-3.28-2.65-.8-1.16-1.22-2.57-1.24-4.23h4.99c.02.72.21,1.37.56,1.96.35.58.83,1.04,1.45,1.38.62.34,1.36.51,2.22.51.75,0,1.39-.12,1.94-.37.55-.24.97-.59,1.27-1.03.3-.44.45-.97.45-1.57,0-.7-.17-1.28-.51-1.75-.34-.47-.8-.86-1.4-1.19-.59-.33-1.28-.62-2.06-.89s-1.6-.55-2.46-.86c-1.93-.63-3.4-1.47-4.42-2.51-1.01-1.05-1.52-2.43-1.52-4.16,0-1.47.35-2.72,1.06-3.77.71-1.05,1.69-1.85,2.95-2.41,1.26-.56,2.69-.84,4.29-.84s3.1.29,4.35.86c1.25.57,2.24,1.39,2.97,2.46.73,1.07,1.11,2.33,1.13,3.77h-5.03c-.02-.54-.18-1.04-.47-1.52-.29-.48-.69-.86-1.21-1.15-.51-.29-1.12-.44-1.82-.44-.61-.02-1.16.07-1.66.28-.5.21-.9.52-1.19.93-.29.41-.44.91-.44,1.52s.15,1.07.44,1.47c.29.4.69.74,1.21,1.03.51.29,1.12.56,1.82.8.7.24,1.46.5,2.27.75,1.21.42,2.33.91,3.35,1.48,1.02.57,1.84,1.31,2.44,2.22.6.91.91,2.11.91,3.6,0,1.28-.34,2.47-1.01,3.56-.67,1.09-1.65,1.98-2.92,2.65-1.27.68-2.85,1.01-4.73,1.01Z"/>
    <path d="M623.28,339.67h-4.71v-.45c1.4-1.49,2.61-3.1,3.63-4.84s1.81-3.56,2.36-5.48c.55-1.92.82-3.89.82-5.92s-.27-4-.82-5.92c-.55-1.92-1.33-3.75-2.36-5.5-1.02-1.75-2.23-3.35-3.63-4.82v-.45h4.71c1.3,1.3,2.46,2.82,3.47,4.54,1.01,1.72,1.81,3.6,2.39,5.64s.87,4.21.87,6.51-.29,4.45-.87,6.5c-.58,2.05-1.38,3.93-2.39,5.64s-2.17,3.23-3.47,4.56Z"/>
  </g>
  <path class="cls-8" d="M556.4,457.3c-1.77,0-3.35-.3-4.73-.91-1.39-.61-2.48-1.49-3.28-2.65-.8-1.16-1.22-2.57-1.24-4.23h4.99c.02.72.21,1.37.56,1.96.35.58.83,1.04,1.45,1.38.62.34,1.36.51,2.22.51.75,0,1.39-.12,1.94-.37.55-.24.97-.59,1.27-1.03.3-.44.45-.97.45-1.57,0-.7-.17-1.28-.51-1.75-.34-.47-.8-.86-1.4-1.19-.59-.33-1.28-.62-2.06-.89s-1.6-.55-2.46-.86c-1.93-.63-3.4-1.47-4.42-2.51-1.01-1.05-1.52-2.43-1.52-4.16,0-1.47.35-2.72,1.06-3.77.71-1.05,1.69-1.85,2.95-2.41,1.26-.56,2.69-.84,4.29-.84s3.1.29,4.35.86c1.25.57,2.24,1.39,2.97,2.46.73,1.07,1.11,2.33,1.13,3.77h-5.03c-.02-.54-.18-1.04-.47-1.52-.29-.48-.69-.86-1.21-1.15-.51-.29-1.12-.44-1.82-.44-.61-.02-1.16.07-1.66.28-.5.21-.9.52-1.19.93-.29.41-.44.91-.44,1.52s.15,1.07.44,1.47c.29.4.69.74,1.21,1.03.51.29,1.12.56,1.82.8.7.24,1.46.5,2.27.75,1.21.42,2.33.91,3.35,1.48,1.02.57,1.84,1.31,2.44,2.22.6.91.91,2.11.91,3.6,0,1.28-.34,2.47-1.01,3.56-.67,1.09-1.65,1.98-2.92,2.65-1.27.68-2.85,1.01-4.73,1.01Z"/>
  <g>
    <path d="M251.94,402.62v-39.59l-8.23,2.09v-5.06l10.72-4.65h4.38v47.21h-6.88Z"/>
    <path d="M285.92,402.62v-47.21h17.47c3.28,0,6.02.53,8.23,1.58,2.2,1.06,3.86,2.5,4.96,4.32,1.1,1.82,1.65,3.88,1.65,6.17s-.52,4.38-1.55,6c-1.04,1.62-2.39,2.87-4.08,3.74-1.69.88-3.5,1.38-5.43,1.52l.94-.67c2.07.04,3.96.6,5.67,1.65,1.71,1.06,3.06,2.46,4.05,4.22.99,1.75,1.48,3.69,1.48,5.8,0,2.43-.58,4.62-1.75,6.58-1.17,1.96-2.9,3.5-5.19,4.62-2.29,1.12-5.1,1.69-8.43,1.69h-18.01ZM292.67,375.78h9.98c2.83,0,4.99-.66,6.47-1.99,1.48-1.33,2.23-3.16,2.23-5.5s-.74-4.04-2.23-5.36c-1.48-1.33-3.71-1.99-6.68-1.99h-9.78v14.84ZM292.67,397.02h10.39c2.97,0,5.27-.68,6.91-2.06,1.64-1.37,2.46-3.32,2.46-5.83s-.84-4.45-2.53-5.94c-1.69-1.48-4.01-2.23-6.98-2.23h-10.25v16.05Z"/>
    <path d="M337.38,402.62v-41.68h-13.96v-5.53h34.73v5.53h-14.03v41.68h-6.74Z"/>
    <path d="M383.51,403.43c-4.63,0-8.62-1.02-11.97-3.07-3.35-2.05-5.93-4.9-7.75-8.56-1.82-3.66-2.73-7.92-2.73-12.78s.91-9.06,2.73-12.75c1.82-3.69,4.41-6.55,7.75-8.6,3.35-2.05,7.34-3.07,11.97-3.07,5.53,0,10.01,1.33,13.45,3.98,3.44,2.65,5.63,6.38,6.58,11.19h-7.42c-.67-2.79-2.06-5.01-4.15-6.68-2.09-1.66-4.91-2.5-8.46-2.5-3.19,0-5.96.74-8.29,2.23-2.34,1.48-4.14,3.6-5.4,6.34-1.26,2.74-1.89,6.03-1.89,9.85s.63,7.11,1.89,9.88,3.06,4.88,5.4,6.34c2.34,1.46,5.1,2.19,8.29,2.19,3.55,0,6.37-.8,8.46-2.39,2.09-1.6,3.47-3.77,4.15-6.51h7.42c-.94,4.68-3.14,8.33-6.58,10.96-3.44,2.63-7.92,3.94-13.45,3.94Z"/>
  </g>
  <line class="cls-4" x1="714.62" y1="323.55" x2="991.77" y2="323.55"/>
  <path class="cls-6" d="M1044.89,93.9h496.3c30.62,0,55.44,24.82,55.44,55.44v521.12c0,30.61-24.82,55.43-55.44,55.43H164.13c-30.62,0-55.44-24.82-55.44-55.43V149.34c0-30.62,24.82-55.44,55.44-55.44h491.03"/>
  <g>
    <path d="M684.81,110.86v-41.28h16.92c2.87,0,5.29.45,7.25,1.36,1.97.9,3.45,2.15,4.45,3.74,1,1.59,1.5,3.43,1.5,5.51s-.45,3.83-1.36,5.25c-.91,1.42-2.09,2.51-3.57,3.27-1.47.77-3.1,1.21-4.87,1.33l.94-.65c1.89.08,3.57.58,5.04,1.5,1.47.92,2.63,2.15,3.48,3.69.84,1.53,1.27,3.2,1.27,5.01,0,2.2-.53,4.15-1.59,5.84-1.06,1.69-2.59,3.02-4.6,3.98-2,.96-4.46,1.44-7.37,1.44h-17.51ZM692.77,86.81h7.67c2.08,0,3.67-.47,4.75-1.42,1.08-.94,1.62-2.28,1.62-4.01s-.54-3.02-1.62-3.98c-1.08-.96-2.68-1.44-4.81-1.44h-7.61v10.85ZM692.77,104.38h8.26c2.16,0,3.83-.49,5.01-1.47,1.18-.98,1.77-2.4,1.77-4.25s-.61-3.29-1.83-4.33c-1.22-1.04-2.91-1.56-5.07-1.56h-8.14v11.62Z"/>
    <path d="M736.29,111.57c-2.83,0-5.38-.66-7.64-1.98-2.26-1.32-4.05-3.15-5.37-5.48-1.32-2.34-1.98-5.02-1.98-8.05s.66-5.83,1.98-8.17c1.32-2.34,3.12-4.17,5.4-5.48,2.28-1.32,4.83-1.98,7.67-1.98s5.43.66,7.7,1.98c2.26,1.32,4.05,3.15,5.37,5.48,1.32,2.34,1.98,5.04,1.98,8.11s-.66,5.77-1.98,8.11c-1.32,2.34-3.12,4.17-5.4,5.48-2.28,1.32-4.86,1.98-7.72,1.98ZM736.29,104.67c1.34,0,2.53-.31,3.57-.94,1.04-.63,1.87-1.59,2.48-2.89s.91-2.91.91-4.84-.3-3.53-.91-4.81c-.61-1.28-1.44-2.24-2.48-2.89-1.04-.65-2.21-.97-3.51-.97s-2.42.32-3.48.97c-1.06.65-1.9,1.61-2.51,2.89-.61,1.28-.91,2.88-.91,4.81s.3,3.54.91,4.84c.61,1.3,1.43,2.26,2.48,2.89,1.04.63,2.19.94,3.45.94Z"/>
    <path d="M768.25,111.57c-2.48,0-4.52-.4-6.13-1.21-1.61-.81-2.8-1.89-3.57-3.24-.77-1.36-1.15-2.86-1.15-4.51,0-1.81.46-3.4,1.39-4.78.92-1.38,2.32-2.46,4.19-3.24,1.87-.79,4.22-1.18,7.05-1.18h7.37c0-1.45-.2-2.66-.59-3.63-.39-.96-1-1.68-1.83-2.15-.83-.47-1.93-.71-3.3-.71-1.49,0-2.76.32-3.8.97-1.04.65-1.68,1.64-1.92,2.98h-7.72c.2-2.12.89-3.96,2.09-5.51,1.2-1.55,2.79-2.76,4.78-3.63,1.98-.86,4.2-1.3,6.63-1.3,2.79,0,5.21.47,7.25,1.42,2.04.94,3.62,2.3,4.72,4.07,1.1,1.77,1.65,3.95,1.65,6.54v18.4h-6.72l-.88-4.54c-.43.79-.94,1.49-1.53,2.12-.59.63-1.28,1.18-2.06,1.65s-1.67.83-2.65,1.09c-.98.26-2.06.38-3.24.38ZM770.13,105.44c1.02,0,1.94-.19,2.74-.56.81-.37,1.5-.88,2.09-1.53.59-.65,1.05-1.4,1.39-2.24.33-.84.56-1.76.68-2.74v-.06h-6.07c-1.22,0-2.21.15-2.98.44-.77.29-1.33.72-1.68,1.27-.35.55-.53,1.18-.53,1.89,0,.79.18,1.44.53,1.95.35.51.86.9,1.53,1.18.67.28,1.43.41,2.3.41Z"/>
    <path d="M792.78,110.86v-29.72h7.08l.77,5.48c.71-1.3,1.6-2.4,2.68-3.3,1.08-.9,2.32-1.61,3.72-2.12,1.39-.51,2.94-.77,4.63-.77v8.43h-2.71c-1.18,0-2.27.14-3.27.41-1,.28-1.88.72-2.62,1.33-.75.61-1.32,1.44-1.71,2.51-.39,1.06-.59,2.4-.59,4.01v13.74h-7.96Z"/>
    <path d="M829.63,111.57c-2.71,0-5.14-.67-7.28-2-2.14-1.34-3.82-3.18-5.04-5.54-1.22-2.36-1.83-5.01-1.83-7.96s.62-5.71,1.86-8.05c1.24-2.34,2.95-4.19,5.13-5.54,2.18-1.36,4.63-2.03,7.34-2.03,2.12,0,3.99.39,5.6,1.18,1.61.79,2.91,1.91,3.89,3.36v-16.57h7.96v42.46h-7.08l-.88-4.07c-.59.83-1.33,1.61-2.21,2.36-.88.75-1.94,1.34-3.15,1.77-1.22.43-2.65.65-4.3.65ZM831.52,104.61c1.57,0,2.96-.36,4.16-1.09,1.2-.73,2.13-1.74,2.8-3.04.67-1.3,1-2.79,1-4.48s-.33-3.18-1-4.48c-.67-1.3-1.6-2.31-2.8-3.04-1.2-.73-2.58-1.09-4.16-1.09s-2.85.36-4.07,1.09c-1.22.73-2.17,1.74-2.86,3.04-.69,1.3-1.03,2.77-1.03,4.42s.34,3.24,1.03,4.54c.69,1.3,1.63,2.31,2.83,3.04,1.2.73,2.56,1.09,4.1,1.09Z"/>
    <path d="M880.93,110.86l-15.04-41.28h8.49l11.44,33.14,11.5-33.14h8.43l-15.04,41.28h-9.79Z"/>
    <path d="M920.32,110.86v-34.85h-12.09v-6.43h32.02v6.43h-12.03v34.85h-7.9Z"/>
    <path d="M943.79,110.86l13.03-20.93-13.21-20.34h9.2l9.08,14.09,8.31-14.09h8.96l-12.91,20.7,13.27,20.58h-9.2l-9.14-14.33-8.37,14.33h-9.02Z"/>
    <path d="M1001.46,111.57c-4.01,0-7.55-.9-10.61-2.71-3.07-1.81-5.46-4.31-7.19-7.52-1.73-3.2-2.59-6.91-2.59-11.12s.86-7.91,2.59-11.12c1.73-3.2,4.13-5.71,7.19-7.52,3.07-1.81,6.6-2.71,10.61-2.71s7.61.9,10.67,2.71c3.07,1.81,5.45,4.31,7.17,7.52,1.71,3.2,2.56,6.91,2.56,11.12s-.85,7.91-2.56,11.12c-1.71,3.2-4.1,5.71-7.17,7.52-3.07,1.81-6.62,2.71-10.67,2.71ZM1001.46,104.44c2.52,0,4.69-.58,6.52-1.74,1.83-1.16,3.25-2.8,4.28-4.92,1.02-2.12,1.53-4.64,1.53-7.55s-.51-5.47-1.53-7.58c-1.02-2.1-2.45-3.72-4.28-4.86-1.83-1.14-4-1.71-6.52-1.71s-4.64.57-6.49,1.71c-1.85,1.14-3.28,2.76-4.3,4.86-1.02,2.1-1.53,4.63-1.53,7.58s.51,5.43,1.53,7.55c1.02,2.12,2.46,3.76,4.3,4.92,1.85,1.16,4.01,1.74,6.49,1.74Z"/>
  </g>
  <g>
    <path class="cls-1" d="M191.89,855.35l7.68-21h4.59l7.65,21h-4.29l-5.67-16.38-5.7,16.38h-4.26ZM195.28,850.58l1.08-3.15h10.68l1.05,3.15h-12.81Z"/>
    <g>
      <path class="cls-1" d="M232.55,845.06v-3.54h12.87v3.54h-12.87ZM232.55,851.78v-3.54h12.87v3.54h-12.87Z"/>
      <path class="cls-1" d="M262.43,855.35l7.68-21h4.59l7.65,21h-4.29l-5.67-16.38-5.7,16.38h-4.26ZM265.82,850.58l1.08-3.15h10.68l1.05,3.15h-12.81Z"/>
      <path class="cls-1" d="M285.02,855.35v-21.6h4.05v21.6h-4.05Z"/>
      <path class="cls-1" d="M295.16,838.16c-.72,0-1.32-.21-1.79-.65-.47-.43-.71-.98-.71-1.64s.23-1.2.71-1.63c.47-.43,1.06-.65,1.79-.65s1.34.22,1.81.65c.47.43.71.98.71,1.63s-.24,1.21-.71,1.64c-.47.43-1.08.65-1.81.65ZM293.12,855.35v-15.12h4.05v15.12h-4.05Z"/>
      <path class="cls-1" d="M308.57,855.71c-1.52,0-2.87-.34-4.05-1.02-1.18-.68-2.1-1.61-2.76-2.79-.66-1.18-.99-2.53-.99-4.05s.33-2.94.99-4.12c.66-1.19,1.58-2.13,2.76-2.82,1.18-.69,2.53-1.04,4.05-1.04,1.94,0,3.57.51,4.89,1.53,1.32,1.02,2.16,2.42,2.52,4.2h-4.29c-.18-.7-.55-1.25-1.12-1.65-.57-.4-1.25-.6-2.03-.6-.7,0-1.32.18-1.88.52-.55.35-.98.86-1.29,1.53-.31.67-.47,1.47-.47,2.38,0,.7.09,1.33.27,1.88.18.55.43,1.02.75,1.41.32.39.71.69,1.16.88.45.2.93.3,1.45.3s1-.09,1.43-.27c.43-.18.79-.44,1.09-.77s.51-.73.63-1.21h4.29c-.36,1.74-1.21,3.12-2.54,4.15-1.33,1.03-2.96,1.54-4.88,1.54Z"/>
      <path class="cls-1" d="M326.72,855.71c-1.52,0-2.87-.33-4.04-.98-1.17-.65-2.08-1.56-2.73-2.73-.65-1.17-.97-2.52-.97-4.06s.32-2.97.96-4.19c.64-1.21,1.54-2.16,2.71-2.85s2.52-1.04,4.07-1.04,2.81.33,3.93.99c1.12.66,1.99,1.55,2.61,2.67.62,1.12.93,2.39.93,3.81v.67c0,.25-.02.51-.06.77h-12.27v-2.46h8.25c-.06-.98-.41-1.75-1.04-2.31s-1.42-.84-2.35-.84c-.68,0-1.31.16-1.89.47s-1.03.79-1.36,1.42c-.33.64-.5,1.45-.5,2.43v.87c0,.82.15,1.54.46,2.15.31.61.75,1.08,1.3,1.41s1.21.5,1.95.5,1.35-.16,1.84-.48c.49-.32.86-.73,1.1-1.23h4.14c-.28.94-.75,1.79-1.41,2.55-.66.76-1.47,1.36-2.43,1.8-.96.44-2.03.66-3.21.66Z"/>
      <path class="cls-1" d="M349.76,859.7c-1.12-1.14-2.12-2.45-3-3.92-.88-1.47-1.57-3.08-2.05-4.85-.49-1.76-.74-3.62-.74-5.58s.25-3.84.74-5.59c.49-1.75,1.17-3.36,2.05-4.85.88-1.48,1.88-2.78,3-3.9h4.02v.39c-1.2,1.26-2.24,2.64-3.11,4.14s-1.54,3.07-2.03,4.72c-.48,1.65-.72,3.35-.72,5.08s.24,3.44.72,5.09c.48,1.65,1.16,3.22,2.04,4.71s1.91,2.87,3.09,4.15v.39h-4.02Z"/>
      <path class="cls-1" d="M362.36,855.71c-1.22,0-2.26-.25-3.13-.76-.87-.51-1.54-1.26-2-2.25-.46-.99-.69-2.21-.69-3.68v-8.79h4.05v8.37c0,1.22.26,2.14.77,2.76.51.62,1.29.93,2.35.93.68,0,1.28-.15,1.8-.46.52-.31.94-.76,1.25-1.35.31-.59.47-1.31.47-2.17v-8.07h4.02v15.12h-3.54l-.33-2.46c-.44.86-1.09,1.54-1.95,2.06-.86.51-1.88.76-3.06.76Z"/>
      <path class="cls-1" d="M381.38,855.71c-1.38,0-2.58-.22-3.6-.66-1.02-.44-1.82-1.05-2.4-1.83-.58-.78-.91-1.66-.99-2.64h4.02c.1.38.27.73.51,1.04s.56.55.96.73c.4.18.88.27,1.44.27s.98-.08,1.32-.23.59-.35.76-.61.26-.53.26-.81c0-.42-.12-.75-.36-.98-.24-.23-.59-.42-1.05-.56-.46-.14-1.02-.28-1.68-.42-.72-.14-1.42-.31-2.11-.52-.69-.21-1.31-.48-1.85-.79s-.97-.73-1.29-1.23c-.32-.5-.48-1.12-.48-1.86,0-.9.24-1.7.72-2.41.48-.71,1.18-1.28,2.1-1.7.92-.42,2.03-.63,3.33-.63,1.82,0,3.26.41,4.32,1.23,1.06.82,1.69,1.95,1.89,3.39h-3.81c-.12-.46-.38-.83-.79-1.1s-.96-.4-1.63-.4c-.72,0-1.27.13-1.65.39-.38.26-.57.6-.57,1.02,0,.28.12.53.38.75.25.22.61.41,1.07.56s1.02.3,1.68.44c1.16.24,2.18.52,3.06.83.88.31,1.57.75,2.07,1.32s.75,1.4.75,2.48c0,.96-.26,1.81-.78,2.56-.52.75-1.26,1.33-2.21,1.75-.95.42-2.08.63-3.38.63Z"/>
      <path class="cls-1" d="M398.42,855.71c-1.52,0-2.87-.33-4.04-.98-1.17-.65-2.08-1.56-2.73-2.73-.65-1.17-.97-2.52-.97-4.06s.32-2.97.96-4.19c.64-1.21,1.54-2.16,2.71-2.85s2.52-1.04,4.07-1.04,2.81.33,3.93.99c1.12.66,1.99,1.55,2.61,2.67.62,1.12.93,2.39.93,3.81v.67c0,.25-.02.51-.06.77h-12.27v-2.46h8.25c-.06-.98-.41-1.75-1.04-2.31s-1.42-.84-2.35-.84c-.68,0-1.31.16-1.89.47s-1.03.79-1.36,1.42c-.33.64-.5,1.45-.5,2.43v.87c0,.82.15,1.54.46,2.15.31.61.75,1.08,1.3,1.41s1.21.5,1.95.5,1.35-.16,1.84-.48c.49-.32.86-.73,1.1-1.23h4.14c-.28.94-.75,1.79-1.41,2.55-.66.76-1.47,1.36-2.43,1.8-.96.44-2.03.66-3.21.66Z"/>
      <path class="cls-1" d="M409.22,855.35v-15.12h3.6l.39,2.79c.36-.66.82-1.22,1.37-1.68s1.18-.82,1.89-1.08,1.5-.39,2.36-.39v4.29h-1.38c-.6,0-1.16.07-1.67.21-.51.14-.96.37-1.33.67-.38.31-.67.74-.87,1.28-.2.54-.3,1.22-.3,2.04v6.99h-4.05Z"/>
      <path class="cls-1" d="M424.49,859.7h-4.05v-.39c1.2-1.28,2.24-2.67,3.12-4.15s1.55-3.06,2.03-4.71c.47-1.65.71-3.35.71-5.09s-.24-3.43-.71-5.08c-.47-1.65-1.15-3.22-2.03-4.72s-1.92-2.88-3.12-4.14v-.39h4.05c1.12,1.12,2.11,2.42,2.98,3.9.87,1.48,1.55,3.1,2.05,4.85.5,1.75.75,3.61.75,5.59s-.25,3.82-.75,5.58c-.5,1.76-1.18,3.38-2.05,4.85-.87,1.47-1.87,2.77-2.98,3.92Z"/>
    </g>
  </g>
  <g>
    <path class="cls-8" d="M503.82,855.71c-1.52,0-2.88-.26-4.06-.78-1.19-.52-2.13-1.28-2.82-2.28-.69-1-1.04-2.21-1.07-3.63h4.29c.02.62.18,1.18.48,1.68s.71.9,1.25,1.19c.53.29,1.17.44,1.9.44.64,0,1.2-.1,1.67-.32.47-.21.83-.5,1.1-.88.26-.38.39-.83.39-1.35,0-.6-.15-1.1-.43-1.5-.29-.4-.69-.74-1.2-1.02-.51-.28-1.1-.53-1.77-.77-.67-.23-1.38-.47-2.11-.73-1.66-.54-2.93-1.26-3.79-2.16-.87-.9-1.31-2.09-1.31-3.57,0-1.26.3-2.34.92-3.24.61-.9,1.46-1.59,2.54-2.07s2.31-.72,3.69-.72,2.66.25,3.73.73c1.07.49,1.92,1.2,2.55,2.12.63.92.96,2,.98,3.24h-4.32c-.02-.46-.16-.9-.41-1.31-.25-.41-.59-.74-1.03-.99-.44-.25-.96-.38-1.56-.38-.52-.02-1,.06-1.42.24-.43.18-.77.45-1.02.8s-.38.79-.38,1.3.12.92.38,1.26c.25.34.6.63,1.04.88.44.25.96.48,1.56.69.6.21,1.25.43,1.95.65,1.04.36,2,.79,2.88,1.27.88.49,1.58,1.12,2.1,1.91.52.78.78,1.81.78,3.09,0,1.1-.29,2.12-.87,3.06-.58.94-1.42,1.7-2.5,2.28-1.09.58-2.45.87-4.07.87Z"/>
    <g>
      <path class="cls-8" d="M532.69,845.06v-3.54h12.87v3.54h-12.87ZM532.69,851.78v-3.54h12.87v3.54h-12.87Z"/>
      <path class="cls-8" d="M562.57,855.35l7.68-21h4.59l7.65,21h-4.29l-5.67-16.38-5.7,16.38h-4.26ZM565.96,850.58l1.08-3.15h10.68l1.05,3.15h-12.81Z"/>
      <path class="cls-8" d="M585.16,855.35v-15.12h3.6l.39,2.79c.36-.66.82-1.22,1.37-1.68s1.18-.82,1.89-1.08,1.5-.39,2.36-.39v4.29h-1.38c-.6,0-1.16.07-1.67.21-.51.14-.96.37-1.33.67-.38.31-.67.74-.87,1.28-.2.54-.3,1.22-.3,2.04v6.99h-4.05Z"/>
      <path class="cls-8" d="M597.43,855.35v-21.6h4.05v21.6h-4.05ZM607.33,855.35l-6.45-8.28,5.79-6.84h4.77l-7.47,8.55v-3.21l8.4,9.78h-5.04Z"/>
      <path class="cls-8" d="M628,855.71c-1.38,0-2.58-.22-3.6-.66-1.02-.44-1.82-1.05-2.4-1.83-.58-.78-.91-1.66-.99-2.64h4.02c.1.38.27.73.51,1.04s.56.55.96.73c.4.18.88.27,1.44.27s.98-.08,1.32-.23.59-.35.76-.61.26-.53.26-.81c0-.42-.12-.75-.36-.98-.24-.23-.59-.42-1.05-.56-.46-.14-1.02-.28-1.68-.42-.72-.14-1.42-.31-2.11-.52-.69-.21-1.31-.48-1.85-.79s-.97-.73-1.29-1.23c-.32-.5-.48-1.12-.48-1.86,0-.9.24-1.7.72-2.41.48-.71,1.18-1.28,2.1-1.7.92-.42,2.03-.63,3.33-.63,1.82,0,3.26.41,4.32,1.23,1.06.82,1.69,1.95,1.89,3.39h-3.81c-.12-.46-.38-.83-.79-1.1s-.96-.4-1.63-.4c-.72,0-1.27.13-1.65.39-.38.26-.57.6-.57,1.02,0,.28.12.53.38.75.25.22.61.41,1.07.56s1.02.3,1.68.44c1.16.24,2.18.52,3.06.83.88.31,1.57.75,2.07,1.32s.75,1.4.75,2.48c0,.96-.26,1.81-.78,2.56-.52.75-1.26,1.33-2.21,1.75-.95.42-2.08.63-3.38.63Z"/>
      <path class="cls-8" d="M645.04,855.71c-1.52,0-2.87-.33-4.04-.98-1.17-.65-2.08-1.56-2.73-2.73-.65-1.17-.97-2.52-.97-4.06s.32-2.97.96-4.19c.64-1.21,1.54-2.16,2.71-2.85s2.52-1.04,4.07-1.04,2.81.33,3.93.99c1.12.66,1.99,1.55,2.61,2.67.62,1.12.93,2.39.93,3.81v.67c0,.25-.02.51-.06.77h-12.27v-2.46h8.25c-.06-.98-.41-1.75-1.04-2.31s-1.42-.84-2.35-.84c-.68,0-1.31.16-1.89.47s-1.03.79-1.36,1.42c-.33.64-.5,1.45-.5,2.43v.87c0,.82.15,1.54.46,2.15.31.61.75,1.08,1.3,1.41s1.21.5,1.95.5,1.35-.16,1.84-.48c.49-.32.86-.73,1.1-1.23h4.14c-.28.94-.75,1.79-1.41,2.55-.66.76-1.47,1.36-2.43,1.8-.96.44-2.03.66-3.21.66Z"/>
      <path class="cls-8" d="M655.84,855.35v-15.12h3.6l.39,2.79c.36-.66.82-1.22,1.37-1.68s1.18-.82,1.89-1.08,1.5-.39,2.36-.39v4.29h-1.38c-.6,0-1.16.07-1.67.21-.51.14-.96.37-1.33.67-.38.31-.67.74-.87,1.28-.2.54-.3,1.22-.3,2.04v6.99h-4.05Z"/>
      <path class="cls-8" d="M672.16,855.35l-5.55-15.12h4.26l3.75,11.31,3.75-11.31h4.23l-5.52,15.12h-4.92Z"/>
      <path class="cls-8" d="M691.63,855.71c-1.52,0-2.87-.33-4.04-.98-1.17-.65-2.08-1.56-2.73-2.73-.65-1.17-.97-2.52-.97-4.06s.32-2.97.96-4.19c.64-1.21,1.54-2.16,2.71-2.85s2.52-1.04,4.07-1.04,2.81.33,3.93.99c1.12.66,1.99,1.55,2.61,2.67.62,1.12.93,2.39.93,3.81v.67c0,.25-.02.51-.06.77h-12.27v-2.46h8.25c-.06-.98-.41-1.75-1.04-2.31s-1.42-.84-2.35-.84c-.68,0-1.31.16-1.89.47s-1.03.79-1.36,1.42c-.33.64-.5,1.45-.5,2.43v.87c0,.82.15,1.54.46,2.15.31.61.75,1.08,1.3,1.41s1.21.5,1.95.5,1.35-.16,1.84-.48c.49-.32.86-.73,1.1-1.23h4.14c-.28.94-.75,1.79-1.41,2.55-.66.76-1.47,1.36-2.43,1.8-.96.44-2.03.66-3.21.66Z"/>
      <path class="cls-8" d="M702.43,855.35v-15.12h3.6l.39,2.79c.36-.66.82-1.22,1.37-1.68s1.18-.82,1.89-1.08,1.5-.39,2.36-.39v4.29h-1.38c-.6,0-1.16.07-1.67.21-.51.14-.96.37-1.33.67-.38.31-.67.74-.87,1.28-.2.54-.3,1.22-.3,2.04v6.99h-4.05Z"/>
    </g>
  </g>
  <g id="Layer_1">
    <g>
      <rect class="cls-1" x="1374.93" y="442.9" width="7.74" height="3.49"/>
      <g>
        <path class="cls-2" d="M1368.14,441.94l3.55.75c.17-.79.44-1.54.79-2.24l-3.25-1.61c-.49.98-.86,2.01-1.09,3.1h0Z"/>
        <path class="cls-2" d="M1375.26,432.88l1.57,3.26c.67-.33,1.39-.58,2.14-.74l-.75-3.55c-1.04.22-2.03.57-2.97,1.03h0Z"/>
        <path class="cls-2" d="M1380.93,431.57v3.63c5.21,0,9.44,4.23,9.44,9.44s-4.23,9.44-9.44,9.44-9.44-4.23-9.44-9.44h-3.63c0,7.22,5.85,13.07,13.07,13.07s13.07-5.85,13.07-13.07-5.85-13.07-13.07-13.07Z"/>
        <path class="cls-2" d="M1373.53,438.79c.48-.6,1.03-1.14,1.64-1.62l-2.21-2.87c-.84.65-1.61,1.4-2.27,2.24l2.84,2.25Z"/>
      </g>
    </g>
  </g>
  <g>
    <g>
      <path d="M1234.99,845.06v-3.54h12.87v3.54h-12.87ZM1234.99,851.78v-3.54h12.87v3.54h-12.87Z"/>
      <path d="M1266.28,855.35v-21h7.83c1.7,0,3.1.29,4.2.87s1.92,1.35,2.46,2.32c.54.97.81,2.05.81,3.23s-.26,2.17-.78,3.14c-.52.97-1.33,1.75-2.45,2.34-1.11.59-2.53.88-4.27.88h-3.75v8.22h-4.05ZM1270.33,844.19h3.54c1.22,0,2.12-.3,2.7-.9.58-.6.87-1.39.87-2.37s-.29-1.75-.86-2.32c-.57-.57-1.48-.85-2.71-.85h-3.54v6.45ZM1277.17,855.35l-4.32-9.24h4.38l4.56,9.24h-4.62Z"/>
      <path d="M1291.48,855.71c-1.52,0-2.87-.33-4.04-.98-1.17-.65-2.08-1.56-2.73-2.73-.65-1.17-.97-2.52-.97-4.06s.32-2.97.96-4.19c.64-1.21,1.54-2.16,2.71-2.85s2.52-1.04,4.07-1.04,2.81.33,3.93.99c1.12.66,1.99,1.55,2.61,2.67.62,1.12.93,2.39.93,3.81v.67c0,.25-.02.51-.06.77h-12.27v-2.46h8.25c-.06-.98-.41-1.75-1.04-2.31s-1.42-.84-2.35-.84c-.68,0-1.31.16-1.89.47s-1.03.79-1.36,1.42c-.33.64-.5,1.45-.5,2.43v.87c0,.82.15,1.54.46,2.15.31.61.75,1.08,1.3,1.41s1.21.5,1.95.5,1.35-.16,1.84-.48c.49-.32.86-.73,1.1-1.23h4.14c-.28.94-.75,1.79-1.41,2.55-.66.76-1.47,1.36-2.43,1.8-.96.44-2.03.66-3.21.66Z"/>
      <path d="M1302.28,855.35v-21.6h4.05v21.6h-4.05Z"/>
      <path d="M1315.39,855.71c-1.26,0-2.3-.21-3.12-.61s-1.42-.96-1.82-1.65c-.39-.69-.58-1.46-.58-2.3,0-.92.24-1.73.71-2.43s1.18-1.25,2.13-1.65c.95-.4,2.15-.6,3.59-.6h3.75c0-.74-.1-1.35-.3-1.85-.2-.49-.51-.85-.93-1.09-.42-.24-.98-.36-1.68-.36-.76,0-1.41.17-1.94.5s-.85.84-.97,1.52h-3.93c.1-1.08.45-2.01,1.06-2.81.61-.79,1.42-1.4,2.43-1.84s2.13-.66,3.38-.66c1.42,0,2.65.24,3.69.72,1.04.48,1.84,1.17,2.4,2.07.56.9.84,2.01.84,3.33v9.36h-3.42l-.45-2.31c-.22.4-.48.76-.78,1.08-.3.32-.65.6-1.05.84-.4.24-.85.42-1.35.56-.5.13-1.05.19-1.65.19ZM1316.35,852.59c.52,0,.98-.09,1.39-.29.41-.19.77-.45,1.07-.78.3-.33.54-.71.71-1.14s.29-.9.34-1.4v-.03h-3.09c-.62,0-1.12.08-1.51.23-.39.15-.68.37-.86.65-.18.28-.27.6-.27.96,0,.4.09.73.27.99s.44.46.78.6c.34.14.73.21,1.17.21Z"/>
      <path d="M1334.5,855.35c-1.06,0-1.99-.17-2.78-.5s-1.41-.88-1.84-1.65c-.44-.77-.66-1.82-.66-3.17v-6.42h-2.58v-3.39h2.58l.45-4.11h3.6v4.11h3.99v3.39h-3.99v6.48c0,.68.15,1.15.45,1.41s.81.39,1.53.39h1.98v3.45h-2.73Z"/>
      <path d="M1342.81,838.16c-.72,0-1.32-.21-1.79-.65-.47-.43-.71-.98-.71-1.64s.23-1.2.71-1.63c.47-.43,1.06-.65,1.79-.65s1.34.22,1.81.65c.47.43.71.98.71,1.63s-.24,1.21-.71,1.64c-.47.43-1.08.65-1.81.65ZM1340.77,855.35v-15.12h4.05v15.12h-4.05Z"/>
      <path d="M1352.95,855.35l-5.55-15.12h4.26l3.75,11.31,3.75-11.31h4.23l-5.52,15.12h-4.92Z"/>
      <path d="M1372.42,855.71c-1.52,0-2.87-.33-4.04-.98-1.17-.65-2.08-1.56-2.73-2.73-.65-1.17-.97-2.52-.97-4.06s.32-2.97.96-4.19c.64-1.21,1.54-2.16,2.71-2.85s2.52-1.04,4.07-1.04,2.81.33,3.93.99c1.12.66,1.99,1.55,2.61,2.67.62,1.12.93,2.39.93,3.81v.67c0,.25-.02.51-.06.77h-12.27v-2.46h8.25c-.06-.98-.41-1.75-1.04-2.31s-1.42-.84-2.35-.84c-.68,0-1.31.16-1.89.47s-1.03.79-1.36,1.42c-.33.64-.5,1.45-.5,2.43v.87c0,.82.15,1.54.46,2.15.31.61.75,1.08,1.3,1.41s1.21.5,1.95.5,1.35-.16,1.84-.48c.49-.32.86-.73,1.1-1.23h4.14c-.28.94-.75,1.79-1.41,2.55-.66.76-1.47,1.36-2.43,1.8-.96.44-2.03.66-3.21.66Z"/>
      <path d="M1397.07,855.35c-1.06,0-1.99-.17-2.78-.5s-1.41-.88-1.84-1.65c-.44-.77-.66-1.82-.66-3.17v-6.42h-2.58v-3.39h2.58l.45-4.11h3.6v4.11h3.99v3.39h-3.99v6.48c0,.68.15,1.15.45,1.41s.81.39,1.53.39h1.98v3.45h-2.73Z"/>
      <path d="M1405.39,838.16c-.72,0-1.32-.21-1.79-.65-.47-.43-.71-.98-.71-1.64s.23-1.2.71-1.63c.47-.43,1.06-.65,1.79-.65s1.34.22,1.81.65c.47.43.71.98.71,1.63s-.24,1.21-.71,1.64c-.47.43-1.08.65-1.81.65ZM1403.35,855.35v-15.12h4.05v15.12h-4.05Z"/>
      <path d="M1411.48,855.35v-15.12h3.57l.33,2.01c.48-.72,1.12-1.29,1.91-1.73.79-.43,1.7-.65,2.71-.65.76,0,1.44.1,2.04.3.6.2,1.13.49,1.6.87.47.38.86.86,1.16,1.44.56-.82,1.29-1.46,2.19-1.92.9-.46,1.88-.69,2.94-.69,1.32,0,2.42.27,3.3.79.88.53,1.54,1.3,1.99,2.29.45,1,.68,2.23.68,3.69v8.7h-4.02v-8.34c0-1.2-.24-2.12-.71-2.76-.47-.64-1.2-.96-2.17-.96-.64,0-1.21.16-1.71.48-.5.32-.88.78-1.16,1.38-.27.6-.4,1.32-.4,2.16v8.04h-4.05v-8.34c0-1.2-.24-2.12-.72-2.76-.48-.64-1.22-.96-2.22-.96-.62,0-1.18.16-1.67.48-.49.32-.87.78-1.14,1.38-.27.6-.4,1.32-.4,2.16v8.04h-4.05Z"/>
      <path d="M1446.96,855.71c-1.52,0-2.87-.33-4.04-.98-1.17-.65-2.08-1.56-2.73-2.73-.65-1.17-.97-2.52-.97-4.06s.32-2.97.96-4.19c.64-1.21,1.54-2.16,2.71-2.85s2.52-1.04,4.07-1.04,2.81.33,3.93.99c1.12.66,1.99,1.55,2.61,2.67.62,1.12.93,2.39.93,3.81v.67c0,.25-.02.51-.06.77h-12.27v-2.46h8.25c-.06-.98-.41-1.75-1.04-2.31s-1.42-.84-2.35-.84c-.68,0-1.31.16-1.89.47s-1.03.79-1.36,1.42c-.33.64-.5,1.45-.5,2.43v.87c0,.82.15,1.54.46,2.15.31.61.75,1.08,1.3,1.41s1.21.5,1.95.5,1.35-.16,1.84-.48c.49-.32.86-.73,1.1-1.23h4.14c-.28.94-.75,1.79-1.41,2.55-.66.76-1.47,1.36-2.43,1.8-.96.44-2.03.66-3.21.66Z"/>
      <path d="M1457.76,855.35v-21.6h4.05v21.6h-4.05Z"/>
      <path d="M1472.91,855.71c-1.44,0-2.74-.33-3.88-1-1.15-.67-2.06-1.6-2.73-2.79-.67-1.19-1-2.55-1-4.09s.33-2.96,1-4.16c.67-1.19,1.58-2.12,2.75-2.79,1.16-.67,2.46-1,3.9-1s2.76.33,3.92,1c1.15.67,2.06,1.6,2.73,2.79.67,1.19,1,2.56,1,4.12s-.33,2.94-1,4.12c-.67,1.19-1.58,2.12-2.75,2.79s-2.47,1-3.93,1ZM1472.91,852.2c.68,0,1.29-.16,1.81-.48.53-.32.95-.81,1.26-1.47.31-.66.46-1.48.46-2.46s-.16-1.79-.46-2.44c-.31-.65-.73-1.14-1.26-1.47-.53-.33-1.12-.5-1.78-.5s-1.23.17-1.77.5-.96.82-1.27,1.47c-.31.65-.47,1.47-.47,2.44s.16,1.8.47,2.46c.31.66.73,1.15,1.26,1.47.53.32,1.11.48,1.75.48Z"/>
      <path d="M1491.39,855.71c-1.52,0-2.87-.34-4.05-1.02-1.18-.68-2.1-1.61-2.76-2.79-.66-1.18-.99-2.53-.99-4.05s.33-2.94.99-4.12c.66-1.19,1.58-2.13,2.76-2.82,1.18-.69,2.53-1.04,4.05-1.04,1.94,0,3.57.51,4.89,1.53,1.32,1.02,2.16,2.42,2.52,4.2h-4.29c-.18-.7-.55-1.25-1.12-1.65-.57-.4-1.25-.6-2.03-.6-.7,0-1.32.18-1.88.52-.55.35-.98.86-1.29,1.53-.31.67-.47,1.47-.47,2.38,0,.7.09,1.33.27,1.88.18.55.43,1.02.75,1.41.32.39.71.69,1.16.88.45.2.93.3,1.45.3s1-.09,1.43-.27c.43-.18.79-.44,1.09-.77s.51-.73.63-1.21h4.29c-.36,1.74-1.21,3.12-2.54,4.15-1.33,1.03-2.96,1.54-4.88,1.54Z"/>
      <path d="M1502.28,855.35v-21.6h4.05v21.6h-4.05ZM1512.18,855.35l-6.45-8.28,5.79-6.84h4.77l-7.47,8.55v-3.21l8.4,9.78h-5.04Z"/>
    </g>
    <g id="Layer_1-2" data-name="Layer_1">
      <g>
        <rect class="cls-12" x="1193.91" y="843.02" width="7.74" height="3.49"/>
        <g>
          <path class="cls-10" d="M1187.11,842.06l3.55.75c.17-.79.44-1.54.79-2.24l-3.25-1.61c-.49.98-.86,2.01-1.09,3.1h0Z"/>
          <path class="cls-10" d="M1194.23,832.99l1.57,3.26c.67-.33,1.39-.58,2.14-.74l-.75-3.55c-1.04.22-2.03.57-2.97,1.03h0Z"/>
          <path class="cls-10" d="M1199.91,831.69v3.63c5.21,0,9.44,4.23,9.44,9.44s-4.23,9.44-9.44,9.44-9.44-4.23-9.44-9.44h-3.63c0,7.22,5.85,13.07,13.07,13.07s13.07-5.85,13.07-13.07-5.85-13.07-13.07-13.07Z"/>
          <path class="cls-10" d="M1192.5,838.9c.48-.6,1.03-1.14,1.64-1.62l-2.21-2.87c-.84.65-1.61,1.4-2.27,2.24l2.84,2.25Z"/>
        </g>
      </g>
    </g>
  </g>
  <g id="Layer_1-3" data-name="Layer_1">
    <g>
      <path class="cls-9" d="M586.45,431.73c-7.22,0-13.07,5.85-13.07,13.07s5.85,13.07,13.07,13.07,13.07-5.85,13.07-13.07-5.85-13.07-13.07-13.07ZM586.45,454.25c-5.22,0-9.44-4.23-9.44-9.44s4.23-9.44,9.44-9.44,9.44,4.23,9.44,9.44-4.23,9.44-9.44,9.44Z"/>
      <polygon class="cls-9" points="588.2 438.28 584.71 438.28 584.71 446.55 584.78 446.55 588.2 446.55 592.52 446.55 592.52 443.06 588.2 443.06 588.2 438.28"/>
    </g>
  </g>
  <g>
    <g>
      <path d="M823.7,845.06v-3.54h12.87v3.54h-12.87ZM823.7,851.78v-3.54h12.87v3.54h-12.87Z"/>
      <path d="M853.58,855.35l7.68-21h4.59l7.65,21h-4.29l-5.67-16.38-5.7,16.38h-4.26ZM856.97,850.58l1.08-3.15h10.68l1.05,3.15h-12.81Z"/>
      <path d="M885.11,855.71c-.78,0-1.47-.1-2.08-.3s-1.15-.48-1.62-.83c-.47-.35-.87-.74-1.18-1.19l-.45,1.95h-3.6v-21.6h4.05v8.58c.48-.7,1.11-1.28,1.9-1.75.79-.47,1.78-.71,2.96-.71,1.4,0,2.65.35,3.74,1.04s1.95,1.63,2.58,2.82c.63,1.19.95,2.56.95,4.1s-.32,2.85-.95,4.05-1.49,2.14-2.57,2.82-2.32,1.02-3.72,1.02ZM884.15,852.17c.8,0,1.5-.18,2.12-.55.61-.37,1.08-.88,1.42-1.53.34-.65.51-1.4.51-2.26s-.17-1.62-.51-2.3c-.34-.67-.82-1.19-1.42-1.56-.61-.37-1.32-.56-2.12-.56s-1.48.19-2.08.56c-.61.37-1.09.88-1.44,1.54-.35.66-.52,1.42-.52,2.28s.17,1.62.52,2.29c.35.67.83,1.19,1.44,1.54.61.36,1.3.54,2.08.54Z"/>
      <path d="M902,855.71c-1.38,0-2.58-.22-3.6-.66-1.02-.44-1.82-1.05-2.4-1.83-.58-.78-.91-1.66-.99-2.64h4.02c.1.38.27.73.51,1.04s.56.55.96.73c.4.18.88.27,1.44.27s.98-.08,1.32-.23.59-.35.76-.61.26-.53.26-.81c0-.42-.12-.75-.36-.98-.24-.23-.59-.42-1.05-.56-.46-.14-1.02-.28-1.68-.42-.72-.14-1.42-.31-2.11-.52-.69-.21-1.31-.48-1.85-.79s-.97-.73-1.29-1.23c-.32-.5-.48-1.12-.48-1.86,0-.9.24-1.7.72-2.41.48-.71,1.18-1.28,2.1-1.7.92-.42,2.03-.63,3.33-.63,1.82,0,3.26.41,4.32,1.23,1.06.82,1.69,1.95,1.89,3.39h-3.81c-.12-.46-.38-.83-.79-1.1s-.96-.4-1.63-.4c-.72,0-1.27.13-1.65.39-.38.26-.57.6-.57,1.02,0,.28.12.53.38.75.25.22.61.41,1.07.56s1.02.3,1.68.44c1.16.24,2.18.52,3.06.83.88.31,1.57.75,2.07,1.32s.75,1.4.75,2.48c0,.96-.26,1.81-.78,2.56-.52.75-1.26,1.33-2.21,1.75-.95.42-2.08.63-3.38.63Z"/>
      <path d="M918.92,855.71c-1.44,0-2.74-.33-3.88-1-1.15-.67-2.06-1.6-2.73-2.79-.67-1.19-1-2.55-1-4.09s.33-2.96,1-4.16c.67-1.19,1.58-2.12,2.75-2.79,1.16-.67,2.46-1,3.9-1s2.76.33,3.92,1c1.15.67,2.06,1.6,2.73,2.79.67,1.19,1,2.56,1,4.12s-.33,2.94-1,4.12c-.67,1.19-1.58,2.12-2.75,2.79s-2.47,1-3.93,1ZM918.92,852.2c.68,0,1.29-.16,1.81-.48.53-.32.95-.81,1.26-1.47.31-.66.46-1.48.46-2.46s-.16-1.79-.46-2.44c-.31-.65-.73-1.14-1.26-1.47-.53-.33-1.12-.5-1.78-.5s-1.23.17-1.77.5-.96.82-1.27,1.47c-.31.65-.47,1.47-.47,2.44s.16,1.8.47,2.46c.31.66.73,1.15,1.26,1.47.53.32,1.11.48,1.75.48Z"/>
      <path d="M930.08,855.35v-21.6h4.05v21.6h-4.05Z"/>
      <path d="M943.73,855.71c-1.22,0-2.26-.25-3.13-.76-.87-.51-1.54-1.26-2-2.25-.46-.99-.69-2.21-.69-3.68v-8.79h4.05v8.37c0,1.22.26,2.14.77,2.76.51.62,1.29.93,2.35.93.68,0,1.28-.15,1.8-.46.52-.31.94-.76,1.25-1.35.31-.59.47-1.31.47-2.17v-8.07h4.02v15.12h-3.54l-.33-2.46c-.44.86-1.09,1.54-1.95,2.06-.86.51-1.88.76-3.06.76Z"/>
      <path d="M963.38,855.35c-1.06,0-1.99-.17-2.78-.5s-1.41-.88-1.84-1.65c-.44-.77-.66-1.82-.66-3.17v-6.42h-2.58v-3.39h2.58l.45-4.11h3.6v4.11h3.99v3.39h-3.99v6.48c0,.68.15,1.15.45,1.41s.81.39,1.53.39h1.98v3.45h-2.73Z"/>
      <path d="M976.43,855.71c-1.52,0-2.87-.33-4.04-.98-1.17-.65-2.08-1.56-2.73-2.73-.65-1.17-.97-2.52-.97-4.06s.32-2.97.96-4.19c.64-1.21,1.54-2.16,2.71-2.85s2.52-1.04,4.07-1.04,2.81.33,3.93.99c1.12.66,1.99,1.55,2.61,2.67.62,1.12.93,2.39.93,3.81v.67c0,.25-.02.51-.06.77h-12.27v-2.46h8.25c-.06-.98-.41-1.75-1.04-2.31s-1.42-.84-2.35-.84c-.68,0-1.31.16-1.89.47s-1.03.79-1.36,1.42c-.33.64-.5,1.45-.5,2.43v.87c0,.82.15,1.54.46,2.15.31.61.75,1.08,1.3,1.41s1.21.5,1.95.5,1.35-.16,1.84-.48c.49-.32.86-.73,1.1-1.23h4.14c-.28.94-.75,1.79-1.41,2.55-.66.76-1.47,1.36-2.43,1.8-.96.44-2.03.66-3.21.66Z"/>
      <path d="M1001.09,855.35c-1.06,0-1.99-.17-2.78-.5s-1.41-.88-1.84-1.65c-.44-.77-.66-1.82-.66-3.17v-6.42h-2.58v-3.39h2.58l.45-4.11h3.6v4.11h3.99v3.39h-3.99v6.48c0,.68.15,1.15.45,1.41s.81.39,1.53.39h1.98v3.45h-2.73Z"/>
      <path d="M1009.4,838.16c-.72,0-1.32-.21-1.79-.65-.47-.43-.71-.98-.71-1.64s.23-1.2.71-1.63c.47-.43,1.06-.65,1.79-.65s1.34.22,1.81.65c.47.43.71.98.71,1.63s-.24,1.21-.71,1.64c-.47.43-1.08.65-1.81.65ZM1007.36,855.35v-15.12h4.05v15.12h-4.05Z"/>
      <path d="M1015.49,855.35v-15.12h3.57l.33,2.01c.48-.72,1.12-1.29,1.91-1.73.79-.43,1.7-.65,2.71-.65.76,0,1.44.1,2.04.3.6.2,1.13.49,1.6.87.47.38.86.86,1.16,1.44.56-.82,1.29-1.46,2.19-1.92.9-.46,1.88-.69,2.94-.69,1.32,0,2.42.27,3.3.79.88.53,1.54,1.3,1.99,2.29.45,1,.68,2.23.68,3.69v8.7h-4.02v-8.34c0-1.2-.24-2.12-.71-2.76-.47-.64-1.2-.96-2.17-.96-.64,0-1.21.16-1.71.48-.5.32-.88.78-1.16,1.38-.27.6-.4,1.32-.4,2.16v8.04h-4.05v-8.34c0-1.2-.24-2.12-.72-2.76-.48-.64-1.22-.96-2.22-.96-.62,0-1.18.16-1.67.48-.49.32-.87.78-1.14,1.38-.27.6-.4,1.32-.4,2.16v8.04h-4.05Z"/>
      <path d="M1050.98,855.71c-1.52,0-2.87-.33-4.04-.98-1.17-.65-2.08-1.56-2.73-2.73-.65-1.17-.97-2.52-.97-4.06s.32-2.97.96-4.19c.64-1.21,1.54-2.16,2.71-2.85s2.52-1.04,4.07-1.04,2.81.33,3.93.99c1.12.66,1.99,1.55,2.61,2.67.62,1.12.93,2.39.93,3.81v.67c0,.25-.02.51-.06.77h-12.27v-2.46h8.25c-.06-.98-.41-1.75-1.04-2.31s-1.42-.84-2.35-.84c-.68,0-1.31.16-1.89.47s-1.03.79-1.36,1.42c-.33.64-.5,1.45-.5,2.43v.87c0,.82.15,1.54.46,2.15.31.61.75,1.08,1.3,1.41s1.21.5,1.95.5,1.35-.16,1.84-.48c.49-.32.86-.73,1.1-1.23h4.14c-.28.94-.75,1.79-1.41,2.55-.66.76-1.47,1.36-2.43,1.8-.96.44-2.03.66-3.21.66Z"/>
      <path d="M1061.78,855.35v-21.6h4.05v21.6h-4.05Z"/>
      <path d="M1076.93,855.71c-1.44,0-2.74-.33-3.88-1-1.15-.67-2.06-1.6-2.73-2.79-.67-1.19-1-2.55-1-4.09s.33-2.96,1-4.16c.67-1.19,1.58-2.12,2.75-2.79,1.16-.67,2.46-1,3.9-1s2.76.33,3.92,1c1.15.67,2.06,1.6,2.73,2.79.67,1.19,1,2.56,1,4.12s-.33,2.94-1,4.12c-.67,1.19-1.58,2.12-2.75,2.79s-2.47,1-3.93,1ZM1076.93,852.2c.68,0,1.29-.16,1.81-.48.53-.32.95-.81,1.26-1.47.31-.66.46-1.48.46-2.46s-.16-1.79-.46-2.44c-.31-.65-.73-1.14-1.26-1.47-.53-.33-1.12-.5-1.78-.5s-1.23.17-1.77.5-.96.82-1.27,1.47c-.31.65-.47,1.47-.47,2.44s.16,1.8.47,2.46c.31.66.73,1.15,1.26,1.47.53.32,1.11.48,1.75.48Z"/>
      <path d="M1095.41,855.71c-1.52,0-2.87-.34-4.05-1.02-1.18-.68-2.1-1.61-2.76-2.79-.66-1.18-.99-2.53-.99-4.05s.33-2.94.99-4.12c.66-1.19,1.58-2.13,2.76-2.82,1.18-.69,2.53-1.04,4.05-1.04,1.94,0,3.57.51,4.89,1.53,1.32,1.02,2.16,2.42,2.52,4.2h-4.29c-.18-.7-.55-1.25-1.12-1.65-.57-.4-1.25-.6-2.03-.6-.7,0-1.32.18-1.88.52-.55.35-.98.86-1.29,1.53-.31.67-.47,1.47-.47,2.38,0,.7.09,1.33.27,1.88.18.55.43,1.02.75,1.41.32.39.71.69,1.16.88.45.2.93.3,1.45.3s1-.09,1.43-.27c.43-.18.79-.44,1.09-.77s.51-.73.63-1.21h4.29c-.36,1.74-1.21,3.12-2.54,4.15-1.33,1.03-2.96,1.54-4.88,1.54Z"/>
      <path d="M1106.3,855.35v-21.6h4.05v21.6h-4.05ZM1116.2,855.35l-6.45-8.28,5.79-6.84h4.77l-7.47,8.55v-3.21l8.4,9.78h-5.04Z"/>
    </g>
    <g id="Layer_1-4" data-name="Layer_1">
      <g>
        <path class="cls-10" d="M792.19,831.69c-7.22,0-13.07,5.85-13.07,13.07s5.85,13.07,13.07,13.07,13.07-5.85,13.07-13.07-5.85-13.07-13.07-13.07ZM792.19,854.2c-5.22,0-9.44-4.23-9.44-9.44s4.23-9.44,9.44-9.44,9.44,4.23,9.44,9.44-4.23,9.44-9.44,9.44Z"/>
        <polygon class="cls-10" points="793.93 838.24 790.45 838.24 790.45 846.5 790.52 846.5 793.93 846.5 798.26 846.5 798.26 843.01 793.93 843.01 793.93 838.24"/>
      </g>
    </g>
  </g>
</svg>