<?xml version="1.0" encoding="UTF-8"?>
<svg id="outlines" xmlns="http://www.w3.org/2000/svg" viewBox="0 0 1372.07 878.86">
  <defs>
    <style>
      .cls-1 {
        fill: #fa1336;
      }

      .cls-2 {
        fill: #e5e6e6;
      }

      .cls-3 {
        fill: #cfd1d1;
      }

      .cls-4 {
        stroke: #00090c;
      }

      .cls-4, .cls-5 {
        fill: none;
        stroke-miterlimit: 10;
        stroke-width: 1.5px;
      }

      .cls-6 {
        isolation: isolate;
      }

      .cls-7 {
        fill: #fff;
      }

      .cls-8 {
        fill: #43b929;
      }

      .cls-8, .cls-9 {
        fill-rule: evenodd;
      }

      .cls-10 {
        fill: #43b929;
      }

      .cls-9, .cls-11 {
        fill: #00090c;
      }

      .cls-12 {
        fill: #f2f2f2;
      }

      .cls-13 {
        fill: #b3b3b3;
      }

      .cls-5 {
        stroke: #00090c;
      }

      .cls-14 {
        fill: #00090c;
      }
    </style>
  </defs>
  <g>
    <path class="cls-12" d="M940.15,344.26h315.1c8,0,14.4,6.5,14.4,14.4v27.1h-344v-27.1c0-8,6.5-14.4,14.4-14.4h.1Z"/>
    <path d="M1255.15,346.56c6.7,0,12.1,5.4,12.1,12.1v123.6c0,6.7-5.4,12.1-12.1,12.1h-315c-6.7,0-12.1-5.4-12.1-12.1v-123.6c0-6.7,5.4-12.1,12.1-12.1h315.1M1255.15,344.26h-315c-8,0-14.4,6.5-14.4,14.4v123.6c0,8,6.5,14.4,14.4,14.4h315.1c8,0,14.4-6.5,14.4-14.4v-123.6c0-8-6.5-14.4-14.4-14.4h-.1Z"/>
    <rect x="925.65" y="384.66" width="344" height="2.3"/>
    <path class="cls-2" d="M1012.35,486.56c-.6,0-1.1-.5-1.1-1.1v-88c0-.6.5-1.1,1.1-1.1s1.1.5,1.1,1.1v88c0,.6-.5,1.1-1.1,1.1Z"/>
    <path class="cls-2" d="M1259.85,443.56h-98.8c-.6,0-1.1-.5-1.1-1.1s.5-1.1,1.1-1.1h98.8c.6,0,1.1.5,1.1,1.1s-.5,1.1-1.1,1.1Z"/>
    <path class="cls-2" d="M1119.45,443.56h-106.8c-.6,0-1.1-.5-1.1-1.1s.5-1.1,1.1-1.1h106.8c.6,0,1.1.5,1.1,1.1s-.5,1.1-1.1,1.1Z"/>
    <g class="cls-6">
      <g class="cls-6">
        <path class="cls-3" d="M1135.95,449.46c-1.2,0-2.3-.3-3.2-.8-1-.6-1.7-1.3-2.2-2.3s-.8-2.1-.8-3.4.3-2.5.8-3.5,1.3-1.8,2.3-2.3,2-.8,3.2-.8,2.3.3,3.2.8c1,.6,1.7,1.3,2.2,2.3s.8,2.1.8,3.5-.3,2.5-.8,3.5-1.3,1.8-2.3,2.3c-1,.6-2,.8-3.2.8v-.1ZM1135.95,446.86c.6,0,1.1-.1,1.6-.4.5-.3.9-.8,1.2-1.4.3-.6.5-1.3.5-2.2s-.1-1.6-.4-2.2c-.3-.6-.7-1-1.2-1.3s-1-.5-1.6-.5-1.1.1-1.6.5c-.5.3-.9.7-1.2,1.3-.3.6-.5,1.3-.5,2.2s.2,1.6.5,2.2c.3.6.7,1,1.2,1.4.5.3,1,.4,1.6.4h-.1Z"/>
        <path class="cls-3" d="M1145.25,449.16v-12.6h2.7l.3,2.3c.3-.5.7-1,1.1-1.4s1-.7,1.6-.9,1.3-.3,2-.3v3.2h-1.1c-.5,0-1,0-1.4.2s-.8.3-1.2.6c-.3.3-.6.7-.8,1.1-.2.5-.3,1.1-.3,1.8v6h-3,.1Z"/>
      </g>
    </g>
  </g>
  <g>
    <path class="cls-12" d="M940.15,532.06h315.1c8,0,14.4,6.5,14.4,14.4v27.1h-344v-27.1c0-8,6.5-14.4,14.4-14.4h.1Z"/>
    <path d="M1255.15,534.36c6.7,0,12.1,5.4,12.1,12.1v233.5c0,6.7-5.4,12.1-12.1,12.1h-315c-6.7,0-12.1-5.4-12.1-12.1v-233.5c0-6.7,5.4-12.1,12.1-12.1h315.1M1255.15,532.06h-315c-8,0-14.4,6.5-14.4,14.4v233.5c0,8,6.5,14.4,14.4,14.4h315.1c8,0,14.4-6.5,14.4-14.4v-233.5c0-8-6.5-14.4-14.4-14.4h-.1Z"/>
    <rect x="925.65" y="572.46" width="344" height="2.3"/>
    <rect x="925.65" y="682.86" width="344" height="2.3"/>
    <path class="cls-2" d="M1012.35,674.36c-.6,0-1.1-.5-1.1-1.1v-88c0-.6.5-1.1,1.1-1.1s1.1.5,1.1,1.1v88c0,.6-.5,1.1-1.1,1.1Z"/>
    <path class="cls-2" d="M1259.85,631.36h-98.8c-.6,0-1.1-.5-1.1-1.1s.5-1.1,1.1-1.1h98.8c.6,0,1.1.5,1.1,1.1s-.5,1.1-1.1,1.1Z"/>
    <path class="cls-2" d="M1119.45,631.36h-106.8c-.6,0-1.1-.5-1.1-1.1s.5-1.1,1.1-1.1h106.8c.6,0,1.1.5,1.1,1.1s-.5,1.1-1.1,1.1Z"/>
    <g class="cls-6">
      <g class="cls-6">
        <path class="cls-3" d="M1135.95,637.16c-1.2,0-2.3-.3-3.2-.8-1-.6-1.7-1.3-2.2-2.3s-.8-2.1-.8-3.4.3-2.5.8-3.5,1.3-1.8,2.3-2.3,2-.8,3.2-.8,2.3.3,3.2.8c1,.6,1.7,1.3,2.2,2.3s.8,2.1.8,3.5-.3,2.5-.8,3.5-1.3,1.8-2.3,2.3c-1,.6-2,.8-3.2.8v-.1ZM1135.95,634.56c.6,0,1.1-.1,1.6-.4s.9-.8,1.2-1.4c.3-.6.5-1.3.5-2.2s-.1-1.6-.4-2.2-.7-1-1.2-1.3-1-.5-1.6-.5-1.1.1-1.6.5c-.5.3-.9.7-1.2,1.3-.3.6-.5,1.3-.5,2.2s.2,1.6.5,2.2.7,1,1.2,1.4c.5.3,1,.4,1.6.4h-.1Z"/>
        <path class="cls-3" d="M1145.25,636.86v-12.6h2.7l.3,2.3c.3-.5.7-1,1.1-1.4s1-.7,1.6-.9c.6-.2,1.3-.3,2-.3v3.2h-1.1c-.5,0-1,0-1.4.2s-.8.3-1.2.6c-.3.3-.6.7-.8,1.1-.2.5-.3,1.1-.3,1.8v6h-3,.1Z"/>
      </g>
    </g>
    <path class="cls-2" d="M1012.35,784.26c-.6,0-1.1-.5-1.1-1.1v-88c0-.6.5-1.1,1.1-1.1s1.1.5,1.1,1.1v88c0,.6-.5,1.1-1.1,1.1Z"/>
    <path class="cls-2" d="M1259.85,741.26h-98.8c-.6,0-1.1-.5-1.1-1.1s.5-1.1,1.1-1.1h98.8c.6,0,1.1.5,1.1,1.1s-.5,1.1-1.1,1.1Z"/>
    <path class="cls-2" d="M1119.45,741.26h-106.8c-.6,0-1.1-.5-1.1-1.1s.5-1.1,1.1-1.1h106.8c.6,0,1.1.5,1.1,1.1s-.5,1.1-1.1,1.1Z"/>
    <g class="cls-6">
      <g class="cls-6">
        <path class="cls-3" d="M1135.95,747.06c-1.2,0-2.3-.3-3.2-.8-1-.6-1.7-1.3-2.2-2.3s-.8-2.1-.8-3.4.3-2.5.8-3.5,1.3-1.8,2.3-2.3,2-.8,3.2-.8,2.3.3,3.2.8c1,.6,1.7,1.3,2.2,2.3s.8,2.1.8,3.5-.3,2.5-.8,3.5-1.3,1.8-2.3,2.3c-1,.6-2,.8-3.2.8v-.1ZM1135.95,744.46c.6,0,1.1-.1,1.6-.4s.9-.8,1.2-1.4c.3-.6.5-1.3.5-2.2s-.1-1.6-.4-2.2-.7-1-1.2-1.3-1-.5-1.6-.5-1.1.1-1.6.5c-.5.3-.9.7-1.2,1.3-.3.6-.5,1.3-.5,2.2s.2,1.6.5,2.2.7,1,1.2,1.4c.5.3,1,.4,1.6.4h-.1Z"/>
        <path class="cls-3" d="M1145.25,746.76v-12.6h2.7l.3,2.3c.3-.5.7-1,1.1-1.4s1-.7,1.6-.9c.6-.2,1.3-.3,2-.3v3.2h-1.1c-.5,0-1,0-1.4.2s-.8.3-1.2.6c-.3.3-.6.7-.8,1.1-.2.5-.3,1.1-.3,1.8v6h-3,.1Z"/>
      </g>
    </g>
  </g>
  <g>
    <path class="cls-13" d="M921.55,553.96h-15.1c-6.2,0-11.3-5.1-11.3-11.3v-17.2c0-6.2,5.1-11.3,11.3-11.3h382.5c5.6,0,10.1-4.5,10.1-10.1v-79.7c0-5.6-4.5-10.1-10.1-10.1h-19.3v-1.2h19.3c6.2,0,11.3,5.1,11.3,11.3v79.7c0,6.2-5.1,11.3-11.3,11.3h-382.5c-5.6,0-10.1,4.5-10.1,10.1v17.2c0,5.6,4.5,10.1,10.1,10.1h15.1v1.2h0Z"/>
    <path class="cls-13" d="M916.05,557.86c-.2,0-.4-.1-.5-.3-.2-.3,0-.7.2-.8l5.7-3.2-5.7-3.2c-.3-.2-.4-.5-.2-.8s.5-.4.8-.2l6.6,3.7c.2.1.3.3.3.5s-.1.4-.3.5l-6.6,3.7h-.3v.1Z"/>
  </g>
  <g>
    <path class="cls-12" d="M65.59,644.97h315.1c8,0,14.4,6.5,14.4,14.4v27.1H51.19v-27.1c0-8,6.5-14.4,14.4-14.4Z"/>
    <path d="M380.69,647.27c6.7,0,12.1,5.4,12.1,12.1v123.6c0,6.7-5.4,12.1-12.1,12.1H65.59c-6.7,0-12.1-5.4-12.1-12.1v-123.6c0-6.7,5.4-12.1,12.1-12.1h315.1M380.69,644.97H65.59c-8,0-14.4,6.5-14.4,14.4v123.6c0,8,6.5,14.4,14.4,14.4h315.1c8,0,14.4-6.5,14.4-14.4v-123.6c0-8-6.5-14.4-14.4-14.4h0Z"/>
    <rect x="51.19" y="685.37" width="343.9" height="2.3"/>
    <path class="cls-2" d="M137.79,787.27c-.6,0-1.2-.5-1.2-1.1v-88c0-.6.5-1.1,1.2-1.1s1.2.5,1.2,1.1v88c0,.6-.5,1.1-1.2,1.1Z"/>
  </g>
  <path d="M379.49,818.57H66.69c-8.6,0-15.6-7-15.6-15.5v-26.8h2.3v26.8c0,7.3,5.9,13.2,13.2,13.2h312.8c7.3,0,13.2-5.9,13.2-13.2v-20h2.3v20c0,8.6-7,15.5-15.6,15.5h.2Z"/>
  <path d="M379.49,838.57H66.69c-8.6,0-15.6-7-15.6-15.5v-22.8h2.3v22.8c0,7.3,5.9,13.2,13.2,13.2h312.8c7.3,0,13.2-5.9,13.2-13.2v-20h2.3v20c0,8.6-7,15.5-15.6,15.5h.2Z"/>
  <g class="cls-6">
    <g class="cls-6">
      <path class="cls-14" d="M82.57,542.47v-15.4h5.74c1.25,0,2.27.21,3.08.64.81.42,1.41.99,1.8,1.71.4.71.59,1.5.59,2.36s-.19,1.59-.57,2.3c-.38.71-.98,1.28-1.79,1.72-.81.43-1.86.65-3.14.65h-2.75v6.03h-2.97ZM85.54,534.29h2.6c.89,0,1.55-.22,1.98-.66.42-.44.64-1.02.64-1.74s-.21-1.29-.63-1.71-1.08-.63-1.99-.63h-2.6v4.73ZM90.56,542.47l-3.17-6.78h3.21l3.34,6.78h-3.39Z"/>
      <path class="cls-14" d="M100.97,542.74c-1.06,0-2.01-.25-2.85-.74s-1.51-1.17-2-2.05c-.49-.87-.74-1.87-.74-3s.24-2.17.74-3.05c.49-.87,1.16-1.55,2.01-2.05.85-.49,1.8-.74,2.86-.74s2.03.25,2.87.74c.84.49,1.51,1.17,2,2.05.49.87.74,1.88.74,3.03s-.25,2.15-.74,3.03c-.49.87-1.16,1.55-2.01,2.05-.85.49-1.81.74-2.88.74ZM100.97,540.16c.5,0,.94-.12,1.33-.35.39-.23.7-.59.92-1.08.23-.48.34-1.08.34-1.8s-.11-1.32-.34-1.79c-.23-.48-.54-.84-.92-1.08s-.82-.36-1.31-.36-.9.12-1.3.36-.71.6-.93,1.08c-.23.48-.34,1.07-.34,1.79s.11,1.32.34,1.8c.23.48.54.84.92,1.08.39.24.82.35,1.29.35Z"/>
      <path class="cls-14" d="M113.28,542.74c-.89,0-1.66-.19-2.3-.56-.64-.37-1.12-.92-1.46-1.65-.34-.73-.51-1.62-.51-2.69v-6.45h2.97v6.14c0,.89.19,1.57.56,2.02.37.45.95.68,1.73.68.5,0,.94-.11,1.32-.34s.69-.56.91-.99.34-.96.34-1.59v-5.92h2.95v11.09h-2.6l-.24-1.8c-.32.63-.8,1.13-1.43,1.51s-1.38.56-2.24.56Z"/>
      <path class="cls-14" d="M122.7,542.47v-11.09h2.62l.22,1.8c.34-.62.82-1.11,1.44-1.5.62-.38,1.37-.57,2.23-.57.92,0,1.7.19,2.33.57.63.38,1.11.94,1.44,1.67.33.73.5,1.64.5,2.71v6.4h-2.95v-6.12c0-.88-.19-1.55-.56-2.02-.37-.47-.95-.7-1.73-.7-.5,0-.94.12-1.33.35-.39.24-.69.57-.91,1-.22.43-.33.96-.33,1.57v5.92h-2.97Z"/>
      <path class="cls-14" d="M141.2,542.74c-1.01,0-1.92-.25-2.72-.75-.8-.5-1.43-1.19-1.88-2.07-.46-.88-.68-1.87-.68-2.97s.23-2.13.69-3c.46-.87,1.1-1.56,1.91-2.07s1.73-.76,2.74-.76c.79,0,1.49.15,2.09.44.6.29,1.08.71,1.45,1.25v-6.18h2.97v15.84h-2.64l-.33-1.52c-.22.31-.49.6-.82.88s-.72.5-1.18.66c-.45.16-.99.24-1.61.24ZM141.91,540.14c.59,0,1.1-.14,1.55-.41.45-.27.8-.65,1.05-1.13.25-.48.37-1.04.37-1.67s-.12-1.19-.37-1.67c-.25-.48-.6-.86-1.05-1.13s-.96-.41-1.55-.41-1.06.14-1.52.41c-.45.27-.81.65-1.07,1.13-.26.48-.38,1.03-.38,1.65,0,.65.13,1.21.38,1.69.26.48.61.86,1.06,1.13.45.27.96.41,1.53.41Z"/>
      <path class="cls-14" d="M154.18,527.07l-2.27,5.63h-2.02l1.19-5.63h3.1Z"/>
      <path class="cls-14" d="M159.66,542.74c-1.01,0-1.89-.16-2.64-.48s-1.33-.77-1.76-1.34c-.43-.57-.67-1.22-.73-1.94h2.95c.07.28.2.53.37.76.18.23.41.41.7.54.29.13.65.2,1.06.2s.72-.05.97-.17c.25-.11.44-.26.56-.45.12-.19.19-.39.19-.59,0-.31-.09-.55-.26-.71-.18-.17-.43-.3-.77-.41-.34-.1-.75-.21-1.23-.31-.53-.1-1.04-.23-1.55-.39-.51-.15-.96-.35-1.35-.58-.4-.23-.71-.54-.95-.9-.23-.37-.35-.82-.35-1.36,0-.66.18-1.25.53-1.77.35-.52.87-.93,1.54-1.24.67-.31,1.49-.46,2.44-.46,1.33,0,2.39.3,3.17.9.78.6,1.24,1.43,1.39,2.49h-2.79c-.09-.34-.28-.61-.58-.8-.3-.2-.7-.3-1.2-.3-.53,0-.93.1-1.21.29-.28.19-.42.44-.42.75,0,.21.09.39.28.55.18.16.44.3.78.41.34.11.75.22,1.23.32.85.18,1.6.38,2.24.6.64.23,1.15.55,1.52.97.37.42.55,1.02.55,1.81,0,.7-.19,1.33-.57,1.88-.38.55-.92.98-1.62,1.29-.7.31-1.52.46-2.48.46Z"/>
      <path class="cls-14" d="M175.74,542.74c-.92,0-1.69-.15-2.29-.45-.6-.3-1.04-.7-1.33-1.21-.29-.51-.43-1.07-.43-1.68,0-.67.17-1.27.52-1.78.34-.51.87-.92,1.56-1.21.7-.29,1.57-.44,2.63-.44h2.75c0-.54-.07-.99-.22-1.35s-.37-.63-.68-.8-.72-.26-1.23-.26c-.56,0-1.03.12-1.42.36-.39.24-.63.61-.71,1.11h-2.88c.07-.79.33-1.48.78-2.06s1.04-1.03,1.78-1.35c.74-.32,1.56-.48,2.47-.48,1.04,0,1.94.18,2.71.53.76.35,1.35.86,1.76,1.52.41.66.62,1.47.62,2.44v6.86h-2.51l-.33-1.69c-.16.29-.35.56-.57.79-.22.24-.48.44-.77.62-.29.18-.62.31-.99.41-.37.09-.77.14-1.21.14ZM176.45,540.45c.38,0,.72-.07,1.02-.21.3-.14.56-.33.78-.57.22-.24.39-.52.52-.84s.21-.66.25-1.02v-.02h-2.27c-.46,0-.83.05-1.11.16-.29.11-.5.27-.63.47s-.2.44-.2.7c0,.29.07.54.2.73.13.19.32.34.57.44s.54.15.86.15Z"/>
      <path class="cls-14" d="M191.45,542.74c-.57,0-1.08-.07-1.53-.22s-.84-.35-1.19-.6c-.35-.26-.63-.55-.87-.87l-.33,1.43h-2.64v-15.84h2.97v6.29c.35-.51.82-.94,1.4-1.29s1.3-.52,2.17-.52c1.03,0,1.94.25,2.74.76.8.51,1.43,1.2,1.89,2.07.46.87.69,1.87.69,3s-.23,2.09-.69,2.97c-.46.88-1.09,1.57-1.88,2.07-.79.5-1.7.75-2.73.75ZM190.75,540.14c.59,0,1.1-.14,1.55-.41.45-.27.8-.64,1.04-1.12.25-.48.37-1.03.37-1.66s-.12-1.19-.37-1.68-.6-.87-1.04-1.14c-.45-.27-.96-.41-1.55-.41s-1.08.14-1.53.41-.8.65-1.06,1.13c-.26.48-.38,1.04-.38,1.67s.13,1.19.38,1.68c.26.49.61.87,1.06,1.13.45.26.96.4,1.53.4Z"/>
      <path class="cls-14" d="M203.84,542.74c-1.01,0-1.89-.16-2.64-.48s-1.33-.77-1.76-1.34c-.43-.57-.67-1.22-.73-1.94h2.95c.07.28.2.53.37.76.18.23.41.41.7.54.29.13.65.2,1.06.2s.72-.05.97-.17c.25-.11.44-.26.56-.45.12-.19.19-.39.19-.59,0-.31-.09-.55-.26-.71-.18-.17-.43-.3-.77-.41-.34-.1-.75-.21-1.23-.31-.53-.1-1.04-.23-1.55-.39-.51-.15-.96-.35-1.35-.58-.4-.23-.71-.54-.95-.9-.23-.37-.35-.82-.35-1.36,0-.66.18-1.25.53-1.77.35-.52.87-.93,1.54-1.24.67-.31,1.49-.46,2.44-.46,1.33,0,2.39.3,3.17.9.78.6,1.24,1.43,1.39,2.49h-2.79c-.09-.34-.28-.61-.58-.8-.3-.2-.7-.3-1.2-.3-.53,0-.93.1-1.21.29-.28.19-.42.44-.42.75,0,.21.09.39.28.55.18.16.44.3.78.41.34.11.75.22,1.23.32.85.18,1.6.38,2.24.6.64.23,1.15.55,1.52.97.37.42.55,1.02.55,1.81,0,.7-.19,1.33-.57,1.88-.38.55-.92.98-1.62,1.29-.7.31-1.52.46-2.48.46Z"/>
      <path class="cls-14" d="M216.24,542.74c-1.06,0-2.01-.25-2.85-.74s-1.51-1.17-2-2.05c-.49-.87-.74-1.87-.74-3s.25-2.17.74-3.05c.49-.87,1.16-1.55,2.01-2.05.85-.49,1.8-.74,2.86-.74s2.03.25,2.87.74c.84.49,1.51,1.17,2,2.05.49.87.74,1.88.74,3.03s-.25,2.15-.74,3.03c-.49.87-1.16,1.55-2.01,2.05-.85.49-1.81.74-2.88.74ZM216.24,540.16c.5,0,.94-.12,1.33-.35.39-.23.7-.59.92-1.08.23-.48.34-1.08.34-1.8s-.11-1.32-.34-1.79c-.23-.48-.54-.84-.92-1.08-.39-.24-.83-.36-1.31-.36s-.9.12-1.3.36-.71.6-.94,1.08c-.23.48-.34,1.07-.34,1.79s.11,1.32.34,1.8c.23.48.54.84.92,1.08.39.24.82.35,1.29.35Z"/>
      <path class="cls-14" d="M224.43,542.47v-15.84h2.97v15.84h-2.97Z"/>
      <path class="cls-14" d="M234.44,542.74c-.89,0-1.66-.19-2.3-.56s-1.13-.92-1.46-1.65c-.34-.73-.51-1.62-.51-2.69v-6.45h2.97v6.14c0,.89.19,1.57.56,2.02.38.45.95.68,1.73.68.5,0,.94-.11,1.32-.34.38-.23.69-.56.91-.99.23-.43.34-.96.34-1.59v-5.92h2.95v11.09h-2.6l-.24-1.8c-.32.63-.8,1.13-1.43,1.51-.63.37-1.38.56-2.24.56Z"/>
      <path class="cls-14" d="M248.85,542.47c-.78,0-1.46-.12-2.03-.36s-1.03-.64-1.35-1.21c-.32-.56-.48-1.34-.48-2.32v-4.71h-1.89v-2.49h1.89l.33-3.01h2.64v3.01h2.93v2.49h-2.93v4.75c0,.5.11.84.33,1.03.22.19.59.29,1.12.29h1.45v2.53h-2Z"/>
      <path class="cls-14" d="M258.42,542.74c-1.11,0-2.1-.24-2.96-.71-.86-.48-1.53-1.14-2-2-.48-.86-.71-1.85-.71-2.98s.23-2.18.71-3.07c.47-.89,1.13-1.58,1.99-2.09s1.85-.76,2.98-.76,2.06.24,2.88.73c.82.48,1.46,1.14,1.91,1.96.45.82.68,1.75.68,2.79v.5c0,.18-.01.37-.04.56h-9v-1.8h6.05c-.04-.72-.3-1.28-.76-1.69-.46-.41-1.04-.62-1.73-.62-.5,0-.96.11-1.38.34-.43.23-.76.58-1,1.04s-.36,1.06-.36,1.78v.64c0,.6.11,1.13.34,1.57.23.45.55.79.96,1.03.41.24.89.36,1.43.36s.99-.12,1.35-.35.63-.54.8-.9h3.04c-.21.69-.55,1.31-1.03,1.87s-1.08,1-1.78,1.32-1.49.48-2.35.48Z"/>
      <path class="cls-14" d="M276.5,542.47c-.78,0-1.46-.12-2.04-.36-.58-.24-1.03-.64-1.35-1.21-.32-.56-.48-1.34-.48-2.32v-4.71h-1.89v-2.49h1.89l.33-3.01h2.64v3.01h2.93v2.49h-2.93v4.75c0,.5.11.84.33,1.03.22.19.59.29,1.12.29h1.45v2.53h-2Z"/>
      <path class="cls-14" d="M282.59,529.87c-.53,0-.96-.16-1.31-.47-.34-.32-.52-.71-.52-1.2s.17-.88.52-1.2c.34-.32.78-.47,1.31-.47s.99.16,1.33.47c.34.32.52.71.52,1.2s-.17.88-.52,1.2c-.35.32-.79.47-1.33.47ZM281.1,542.47v-11.09h2.97v11.09h-2.97Z"/>
      <path class="cls-14" d="M287.06,542.47v-11.09h2.62l.24,1.47c.35-.53.82-.95,1.4-1.26.58-.32,1.24-.47,1.99-.47.56,0,1.05.07,1.5.22s.83.36,1.18.64c.34.28.63.63.85,1.06.41-.6.95-1.07,1.61-1.41.66-.34,1.38-.51,2.16-.51.97,0,1.77.19,2.42.58s1.13.95,1.46,1.68.5,1.64.5,2.71v6.38h-2.95v-6.12c0-.88-.17-1.55-.52-2.02-.34-.47-.88-.7-1.59-.7-.47,0-.89.12-1.25.35-.37.24-.65.57-.85,1.01-.2.44-.3.97-.3,1.58v5.9h-2.97v-6.12c0-.88-.18-1.55-.53-2.02-.35-.47-.89-.7-1.63-.7-.45,0-.86.12-1.22.35-.36.24-.64.57-.84,1.01-.2.44-.3.97-.3,1.58v5.9h-2.97Z"/>
      <path class="cls-14" d="M313.09,542.74c-1.12,0-2.1-.24-2.96-.71-.86-.48-1.53-1.14-2-2-.48-.86-.71-1.85-.71-2.98s.23-2.18.7-3.07c.47-.89,1.13-1.58,1.99-2.09s1.85-.76,2.98-.76,2.06.24,2.88.73,1.46,1.14,1.91,1.96c.46.82.68,1.75.68,2.79v.5c0,.18-.01.37-.04.56h-9v-1.8h6.05c-.04-.72-.3-1.28-.76-1.69-.46-.41-1.04-.62-1.73-.62-.5,0-.96.11-1.39.34s-.76.58-1,1.04c-.24.47-.36,1.06-.36,1.78v.64c0,.6.11,1.13.34,1.57s.55.79.96,1.03c.41.24.89.36,1.43.36s.99-.12,1.35-.35.63-.54.8-.9h3.04c-.21.69-.55,1.31-1.03,1.87s-1.08,1-1.78,1.32-1.49.48-2.35.48Z"/>
      <path class="cls-14" d="M321.01,542.47v-15.84h2.97v15.84h-2.97Z"/>
      <path class="cls-14" d="M332.12,542.74c-1.06,0-2.01-.25-2.85-.74s-1.51-1.17-2-2.05c-.49-.87-.74-1.87-.74-3s.25-2.17.74-3.05c.49-.87,1.16-1.55,2.01-2.05.85-.49,1.8-.74,2.86-.74s2.03.25,2.87.74c.84.49,1.51,1.17,2,2.05.49.87.74,1.88.74,3.03s-.25,2.15-.74,3.03c-.49.87-1.16,1.55-2.01,2.05-.85.49-1.81.74-2.88.74ZM332.12,540.16c.5,0,.94-.12,1.33-.35.39-.23.7-.59.92-1.08.23-.48.34-1.08.34-1.8s-.11-1.32-.34-1.79c-.23-.48-.54-.84-.92-1.08-.39-.24-.83-.36-1.31-.36s-.9.12-1.3.36-.71.6-.94,1.08c-.23.48-.34,1.07-.34,1.79s.11,1.32.34,1.8c.23.48.54.84.92,1.08.39.24.82.35,1.29.35Z"/>
      <path class="cls-14" d="M345.67,542.74c-1.11,0-2.1-.25-2.97-.75-.87-.5-1.54-1.18-2.02-2.05-.48-.87-.73-1.85-.73-2.97s.24-2.15.73-3.03c.48-.87,1.16-1.56,2.02-2.07s1.86-.76,2.97-.76c1.42,0,2.62.37,3.59,1.12.97.75,1.58,1.78,1.85,3.08h-3.15c-.13-.51-.41-.92-.82-1.21-.42-.29-.91-.44-1.49-.44-.51,0-.97.13-1.38.38-.4.26-.72.63-.95,1.12-.23.49-.34,1.07-.34,1.75,0,.51.07.97.2,1.38.13.4.31.75.55,1.03.24.29.52.5.85.65.33.15.69.22,1.07.22s.73-.07,1.04-.2c.32-.13.58-.32.8-.56.22-.24.37-.54.46-.89h3.15c-.26,1.28-.88,2.29-1.86,3.05-.98.76-2.17,1.13-3.58,1.13Z"/>
      <path class="cls-14" d="M353.65,542.47v-15.84h2.97v15.84h-2.97ZM360.91,542.47l-4.73-6.07,4.25-5.02h3.5l-5.48,6.27v-2.35l6.16,7.17h-3.7Z"/>
      <path class="cls-14" d="M140.27,569.14c-1.11,0-2.1-.24-2.96-.71-.86-.48-1.53-1.14-2-2-.48-.86-.71-1.85-.71-2.98s.23-2.18.71-3.07c.47-.89,1.13-1.58,1.99-2.09s1.85-.76,2.98-.76,2.06.24,2.88.73c.82.48,1.46,1.14,1.91,1.96.45.82.68,1.75.68,2.79v.5c0,.18-.01.37-.04.56h-9v-1.8h6.05c-.04-.72-.3-1.28-.76-1.69-.46-.41-1.04-.62-1.73-.62-.5,0-.96.11-1.38.34-.43.23-.76.58-1,1.04s-.36,1.06-.36,1.78v.64c0,.6.11,1.13.34,1.57.23.45.55.79.96,1.03.41.24.89.36,1.43.36s.99-.12,1.35-.35.63-.54.8-.9h3.04c-.21.69-.55,1.31-1.03,1.87s-1.08,1-1.78,1.32-1.49.48-2.35.48Z"/>
      <path class="cls-14" d="M146.38,568.87l3.98-5.54-3.98-5.54h3.21l2.66,3.81,2.66-3.81h3.19l-3.98,5.54,3.98,5.54h-3.19l-2.66-3.83-2.66,3.83h-3.21Z"/>
      <path class="cls-14" d="M159.98,573.71v-15.93h2.64l.33,1.54c.23-.32.51-.62.84-.89.32-.27.71-.49,1.16-.66.45-.17.97-.25,1.57-.25,1.04,0,1.96.26,2.75.77.79.51,1.42,1.21,1.88,2.08.46.87.69,1.87.69,2.98s-.23,2.11-.7,2.98c-.47.87-1.1,1.56-1.89,2.06-.79.5-1.69.75-2.71.75-.82,0-1.53-.15-2.12-.45-.59-.3-1.08-.72-1.46-1.24v6.27h-2.97ZM165.83,566.54c.59,0,1.1-.13,1.55-.4.45-.26.8-.64,1.04-1.12.25-.48.38-1.04.38-1.67s-.12-1.19-.38-1.68c-.25-.49-.6-.87-1.04-1.14s-.96-.41-1.55-.41-1.08.14-1.53.41-.8.65-1.05,1.13c-.26.48-.39,1.04-.39,1.67s.13,1.19.39,1.68c.26.49.61.87,1.05,1.13.45.26.96.4,1.53.4Z"/>
      <path class="cls-14" d="M175.95,556.27c-.53,0-.96-.16-1.31-.47-.34-.32-.52-.71-.52-1.2s.17-.88.52-1.2c.34-.32.78-.47,1.31-.47s.99.16,1.33.47c.34.32.52.71.52,1.2s-.17.88-.52,1.2c-.35.32-.79.47-1.33.47ZM174.46,568.87v-11.09h2.97v11.09h-2.97Z"/>
      <path class="cls-14" d="M180.42,568.87v-11.09h2.64l.29,2.05c.26-.48.6-.89,1-1.23.4-.34.87-.6,1.39-.79.52-.19,1.1-.29,1.73-.29v3.15h-1.01c-.44,0-.85.05-1.22.15s-.7.27-.98.5c-.28.23-.49.54-.64.93-.15.4-.22.89-.22,1.5v5.13h-2.97Z"/>
      <path class="cls-14" d="M194.56,569.14c-1.12,0-2.1-.24-2.96-.71-.86-.48-1.53-1.14-2-2-.48-.86-.71-1.85-.71-2.98s.23-2.18.7-3.07c.47-.89,1.13-1.58,1.99-2.09s1.85-.76,2.98-.76,2.06.24,2.88.73,1.46,1.14,1.91,1.96c.46.82.68,1.75.68,2.79v.5c0,.18-.01.37-.04.56h-9v-1.8h6.05c-.04-.72-.3-1.28-.76-1.69-.46-.41-1.04-.62-1.73-.62-.5,0-.96.11-1.39.34s-.76.58-1,1.04c-.24.47-.36,1.06-.36,1.78v.64c0,.6.11,1.13.34,1.57s.55.79.96,1.03c.41.24.89.36,1.43.36s.99-.12,1.35-.35.63-.54.8-.9h3.04c-.21.69-.55,1.31-1.03,1.87s-1.08,1-1.78,1.32-1.49.48-2.35.48Z"/>
      <path class="cls-14" d="M207.01,569.14c-1.01,0-1.89-.16-2.64-.48-.75-.32-1.33-.77-1.76-1.34-.43-.57-.67-1.22-.73-1.94h2.95c.07.28.2.53.37.76.18.23.41.41.7.54.29.13.64.2,1.06.2s.72-.05.97-.17.44-.26.56-.45c.12-.19.19-.39.19-.59,0-.31-.09-.55-.26-.71s-.43-.3-.77-.41c-.34-.1-.75-.21-1.23-.31-.53-.1-1.04-.23-1.55-.39-.51-.15-.96-.35-1.35-.58-.4-.23-.71-.54-.95-.9-.24-.37-.35-.82-.35-1.36,0-.66.18-1.25.53-1.77.35-.52.87-.93,1.54-1.24.68-.31,1.49-.46,2.44-.46,1.33,0,2.39.3,3.17.9.78.6,1.24,1.43,1.38,2.49h-2.79c-.09-.34-.28-.61-.58-.8-.3-.2-.7-.3-1.2-.3-.53,0-.93.1-1.21.29-.28.19-.42.44-.42.75,0,.21.09.39.28.55.18.16.44.3.78.41.34.11.75.22,1.23.32.85.18,1.6.38,2.24.6.65.23,1.15.55,1.52.97s.55,1.02.55,1.81c0,.7-.19,1.33-.57,1.88-.38.55-.92.98-1.62,1.29-.7.31-1.52.46-2.47.46Z"/>
      <path class="cls-14" d="M220.92,556.27c-.53,0-.96-.16-1.31-.47s-.52-.71-.52-1.2.17-.88.52-1.2.78-.47,1.31-.47.99.16,1.33.47.52.71.52,1.2-.17.88-.52,1.2-.79.47-1.33.47ZM219.42,568.87v-11.09h2.97v11.09h-2.97Z"/>
      <path class="cls-14" d="M225.38,568.87v-11.09h2.62l.22,1.8c.34-.62.82-1.11,1.44-1.5.62-.38,1.37-.57,2.23-.57.92,0,1.7.19,2.33.57.63.38,1.11.94,1.44,1.67.33.73.5,1.64.5,2.71v6.4h-2.95v-6.12c0-.88-.19-1.55-.56-2.02-.37-.47-.95-.7-1.73-.7-.5,0-.94.12-1.33.35-.39.24-.69.57-.91,1-.22.43-.33.96-.33,1.57v5.92h-2.97Z"/>
      <path class="cls-14" d="M249.28,569.14c-1,0-1.91-.18-2.75-.55s-1.5-.92-2-1.67-.76-1.69-.79-2.84h2.9c.01.48.12.92.33,1.31.21.39.51.7.9.92.4.23.87.34,1.41.34.51,0,.95-.1,1.32-.31.37-.21.65-.48.84-.81.19-.34.29-.73.29-1.17,0-.51-.13-.94-.38-1.29-.26-.34-.61-.61-1.06-.78s-.96-.26-1.53-.26h-1.14v-2.44h1.14c.72,0,1.32-.17,1.82-.51.49-.34.74-.84.74-1.52,0-.56-.18-1-.54-1.34-.36-.34-.86-.51-1.51-.51-.7,0-1.25.21-1.65.62-.4.41-.62.92-.66,1.52h-2.9c.04-.97.29-1.8.74-2.5.45-.7,1.05-1.23,1.81-1.6.76-.37,1.65-.55,2.66-.55,1.07,0,1.98.19,2.72.56.74.37,1.3.88,1.68,1.51s.57,1.31.57,2.05c0,.6-.11,1.14-.34,1.61-.23.47-.53.86-.91,1.17-.38.31-.8.53-1.25.66.57.12,1.07.34,1.51.67.43.33.77.75,1.01,1.27s.36,1.11.36,1.78c0,.84-.2,1.61-.6,2.32-.4.71-1,1.28-1.8,1.71-.8.42-1.77.64-2.92.64Z"/>
      <path class="cls-14" d="M267.49,569.14c-1.01,0-1.92-.25-2.72-.75-.8-.5-1.43-1.19-1.88-2.07-.46-.88-.68-1.87-.68-2.97s.23-2.13.69-3c.46-.87,1.1-1.56,1.91-2.07s1.73-.76,2.74-.76c.79,0,1.49.15,2.09.44.6.29,1.08.71,1.45,1.25v-6.18h2.97v15.84h-2.64l-.33-1.52c-.22.31-.49.6-.82.88s-.72.5-1.18.66c-.45.16-.99.24-1.61.24ZM268.2,566.54c.59,0,1.1-.14,1.55-.41.45-.27.8-.65,1.05-1.13.25-.48.37-1.04.37-1.67s-.12-1.19-.37-1.67c-.25-.48-.6-.86-1.05-1.13s-.96-.41-1.55-.41-1.06.14-1.52.41c-.45.27-.81.65-1.07,1.13-.26.48-.38,1.03-.38,1.65,0,.65.13,1.21.38,1.69.26.48.61.86,1.06,1.13.45.27.96.41,1.53.41Z"/>
      <path class="cls-14" d="M280.71,569.14c-.92,0-1.69-.15-2.29-.45-.6-.3-1.04-.7-1.33-1.21-.29-.51-.43-1.07-.43-1.68,0-.67.17-1.27.52-1.78.34-.51.87-.92,1.56-1.21.7-.29,1.57-.44,2.63-.44h2.75c0-.54-.07-.99-.22-1.35s-.38-.63-.68-.8c-.31-.18-.72-.26-1.23-.26-.56,0-1.03.12-1.42.36-.39.24-.63.61-.71,1.11h-2.88c.07-.79.33-1.48.78-2.06s1.04-1.03,1.78-1.35c.74-.32,1.57-.48,2.47-.48,1.04,0,1.94.18,2.71.53.76.35,1.35.86,1.76,1.52.41.66.62,1.47.62,2.44v6.86h-2.51l-.33-1.69c-.16.29-.35.56-.57.79-.22.24-.48.44-.77.62s-.62.31-.99.41c-.37.09-.77.14-1.21.14ZM281.42,566.85c.38,0,.72-.07,1.02-.21.3-.14.56-.33.78-.57.22-.24.39-.52.52-.84.12-.32.21-.66.25-1.02v-.02h-2.27c-.46,0-.83.05-1.11.16-.29.11-.5.27-.63.47-.13.21-.2.44-.2.7,0,.29.07.54.2.73.13.19.32.34.57.44.25.1.54.15.86.15Z"/>
      <path class="cls-14" d="M290.88,573.71l2.68-6.07h-.66l-4.44-9.86h3.23l3.17,7.15,2.86-7.15h3.15l-6.84,15.93h-3.15Z"/>
      <path class="cls-14" d="M306.76,569.14c-1.01,0-1.89-.16-2.64-.48-.75-.32-1.34-.77-1.76-1.34-.43-.57-.67-1.22-.73-1.94h2.95c.07.28.2.53.38.76.18.23.41.41.7.54s.65.2,1.06.2.72-.05.97-.17c.25-.11.44-.26.56-.45.12-.19.19-.39.19-.59,0-.31-.09-.55-.26-.71s-.43-.3-.77-.41c-.34-.1-.75-.21-1.23-.31-.53-.1-1.04-.23-1.55-.39-.51-.15-.96-.35-1.35-.58-.4-.23-.71-.54-.95-.9-.23-.37-.35-.82-.35-1.36,0-.66.18-1.25.53-1.77.35-.52.87-.93,1.54-1.24.67-.31,1.49-.46,2.44-.46,1.33,0,2.39.3,3.17.9.78.6,1.24,1.43,1.39,2.49h-2.79c-.09-.34-.28-.61-.58-.8-.3-.2-.7-.3-1.2-.3-.53,0-.93.1-1.21.29-.28.19-.42.44-.42.75,0,.21.09.39.28.55.18.16.44.3.78.41.34.11.75.22,1.23.32.85.18,1.6.38,2.24.6.65.23,1.15.55,1.52.97.37.42.55,1.02.55,1.81,0,.7-.19,1.33-.57,1.88-.38.55-.92.98-1.62,1.29-.7.31-1.52.46-2.48.46Z"/>
    </g>
  </g>
  <g class="cls-6">
    <g class="cls-6">
      <path d="M68.09,675.02v-17.5h10.88v2.05h-8.38v5.67h7v2h-7v7.78h-2.5Z"/>
      <path d="M86.69,675.32c-1.18,0-2.25-.27-3.19-.83-.94-.55-1.68-1.32-2.22-2.31-.54-.99-.81-2.14-.81-3.44s.27-2.5.82-3.49c.55-.99,1.3-1.76,2.25-2.31.95-.55,2.02-.83,3.2-.83s2.27.28,3.2.83,1.67,1.32,2.21,2.3c.54.98.81,2.14.81,3.48s-.27,2.49-.81,3.47c-.54.98-1.29,1.75-2.24,2.3-.95.55-2.02.83-3.22.83ZM86.69,673.17c.68,0,1.3-.17,1.86-.5.56-.33,1.01-.83,1.35-1.49.34-.66.51-1.48.51-2.46s-.17-1.8-.5-2.46c-.33-.66-.78-1.15-1.34-1.49-.56-.33-1.17-.5-1.84-.5s-1.28.17-1.85.5c-.57.33-1.02.83-1.36,1.49-.34.66-.51,1.48-.51,2.46s.17,1.8.51,2.46c.34.66.79,1.15,1.35,1.49.56.33,1.16.5,1.81.5Z"/>
      <path d="M95.91,675.02v-12.6h2.25l.22,2.38c.28-.57.65-1.05,1.1-1.44s.98-.7,1.59-.91c.61-.22,1.3-.33,2.09-.33v2.65h-.9c-.52,0-1.01.06-1.47.19s-.88.34-1.24.64-.64.71-.84,1.22-.3,1.16-.3,1.92v6.28h-2.5Z"/>
      <path d="M104.29,664.54v-2.12h7.38v2.12h-7.38ZM106.14,675.02v-14.3c0-.87.15-1.58.44-2.12s.72-.95,1.29-1.2c.57-.25,1.25-.38,2.05-.38h1.47v2.12h-1.08c-.6,0-1.03.12-1.29.36-.26.24-.39.66-.39,1.26v14.25h-2.5Z"/>
      <path d="M119.41,675.32c-1.2,0-2.27-.27-3.2-.83-.93-.55-1.66-1.32-2.19-2.3s-.79-2.12-.79-3.42.26-2.5.79-3.49,1.25-1.77,2.19-2.33,2.02-.84,3.25-.84,2.29.28,3.17.83,1.57,1.28,2.05,2.19c.48.91.73,1.91.73,3.01,0,.17,0,.35-.01.54,0,.19-.02.4-.04.64h-10.3v-1.77h7.85c-.05-1.05-.4-1.87-1.05-2.46-.65-.59-1.46-.89-2.43-.89-.68,0-1.31.15-1.88.46s-1.02.76-1.36,1.35c-.34.59-.51,1.34-.51,2.24v.7c0,.93.17,1.72.51,2.36.34.64.8,1.12,1.36,1.45s1.18.49,1.85.49c.8,0,1.46-.17,1.97-.52.52-.35.9-.83,1.15-1.42h2.5c-.22.77-.58,1.45-1.1,2.06s-1.15,1.09-1.91,1.44c-.76.35-1.63.52-2.61.52Z"/>
      <path d="M129.64,660.04c-.48,0-.88-.15-1.19-.45s-.46-.68-.46-1.15.15-.82.46-1.11c.31-.29.7-.44,1.19-.44s.86.15,1.18.44c.32.29.47.66.47,1.11s-.16.85-.47,1.15c-.32.3-.71.45-1.18.45ZM128.36,675.02v-12.6h2.5v12.6h-2.5Z"/>
      <path d="M139.61,675.02c-.78,0-1.47-.12-2.05-.38-.58-.25-1.03-.67-1.35-1.25-.32-.58-.47-1.38-.47-2.38v-6.47h-2.17v-2.12h2.17l.3-3.15h2.2v3.15h3.58v2.12h-3.58v6.5c0,.72.15,1.2.45,1.46.3.26.82.39,1.55.39h1.45v2.12h-2.08Z"/>
      <path d="M149.44,675.32c-1.07,0-2-.17-2.8-.52-.8-.35-1.43-.84-1.9-1.48-.47-.63-.75-1.38-.85-2.22h2.55c.08.4.25.77.49,1.1.24.33.58.6,1,.8.42.2.93.3,1.51.3.55,0,1-.08,1.36-.24.36-.16.62-.38.79-.65.17-.28.25-.57.25-.89,0-.47-.11-.82-.34-1.06-.23-.24-.56-.43-1-.58-.44-.14-.97-.27-1.59-.39-.58-.1-1.15-.24-1.69-.41-.54-.17-1.03-.4-1.45-.66s-.76-.6-1.01-1.01-.38-.91-.38-1.51c0-.72.19-1.36.58-1.94s.93-1.03,1.64-1.35c.71-.33,1.55-.49,2.51-.49,1.4,0,2.52.33,3.38,1,.85.67,1.35,1.61,1.5,2.83h-2.42c-.07-.57-.32-1-.75-1.31-.43-.31-1.01-.46-1.73-.46s-1.27.14-1.65.42c-.38.28-.58.66-.58,1.12,0,.3.11.57.33.8.22.23.54.43.96.59s.95.3,1.56.44c.88.17,1.67.38,2.38.62s1.26.62,1.67,1.1c.42.48.62,1.17.62,2.08.02.78-.18,1.47-.59,2.08-.41.6-.98,1.07-1.73,1.4-.74.33-1.62.5-2.64.5Z"/>
    </g>
  </g>
  <g class="cls-6">
    <g class="cls-6">
      <path class="cls-10" d="M265.94,750.47c-1.27,0-2.4-.22-3.39-.65-.99-.43-1.77-1.07-2.35-1.9-.57-.83-.87-1.84-.89-3.03h3.57c.02.52.15.98.4,1.4.25.42.6.75,1.04.99.44.24.97.36,1.59.36.53,0,1-.09,1.39-.26.39-.18.7-.42.91-.74.22-.32.33-.69.33-1.12,0-.5-.12-.92-.36-1.25-.24-.33-.57-.62-1-.85-.42-.23-.92-.45-1.47-.64-.56-.19-1.15-.4-1.76-.61-1.38-.45-2.44-1.05-3.16-1.8s-1.09-1.74-1.09-2.98c0-1.05.25-1.95.76-2.7s1.21-1.33,2.11-1.73c.9-.4,1.92-.6,3.07-.6s2.22.2,3.11.61c.89.41,1.6,1,2.12,1.76.52.77.79,1.67.81,2.7h-3.6c-.02-.38-.13-.75-.34-1.09-.21-.34-.5-.62-.86-.83-.37-.21-.8-.31-1.3-.31-.43-.02-.83.05-1.19.2s-.64.37-.85.66c-.21.29-.31.65-.31,1.09s.1.77.31,1.05c.21.28.5.53.86.74.37.21.8.4,1.3.58s1.04.35,1.62.54c.87.3,1.67.65,2.4,1.06.73.41,1.32.94,1.75,1.59.43.65.65,1.51.65,2.58,0,.92-.24,1.77-.72,2.55-.48.78-1.18,1.42-2.09,1.9s-2.04.72-3.39.72Z"/>
    </g>
  </g>
  <g class="cls-6">
    <g class="cls-6">
      <path d="M94.94,741.32v-6.06h-14.88v-3.31l14.2-20.31h4.88v19.93h4.24v3.69h-4.24v6.06h-4.2ZM84.68,731.57h10.52v-15.26l-10.52,15.26Z"/>
    </g>
    <g class="cls-6">
      <path d="M69.49,771.32v-17.5h6.47c1.22,0,2.23.2,3.05.59s1.43.92,1.84,1.6c.41.67.61,1.44.61,2.29s-.19,1.62-.58,2.23c-.38.6-.89,1.06-1.51,1.39-.62.32-1.3.51-2.01.56l.35-.25c.77.02,1.47.22,2.1.61.63.39,1.13.91,1.5,1.56.37.65.55,1.37.55,2.15,0,.9-.22,1.71-.65,2.44-.43.73-1.08,1.3-1.92,1.71-.85.42-1.89.62-3.12.62h-6.67ZM71.99,761.37h3.7c1.05,0,1.85-.25,2.4-.74.55-.49.83-1.17.83-2.04s-.28-1.5-.83-1.99c-.55-.49-1.38-.74-2.47-.74h-3.62v5.5ZM71.99,769.24h3.85c1.1,0,1.95-.25,2.56-.76.61-.51.91-1.23.91-2.16s-.31-1.65-.94-2.2-1.49-.83-2.59-.83h-3.8v5.95Z"/>
      <path d="M88.56,771.32v-15.45h-5.17v-2.05h12.88v2.05h-5.2v15.45h-2.5Z"/>
      <path d="M105.66,771.62c-1.72,0-3.2-.38-4.44-1.14-1.24-.76-2.2-1.82-2.88-3.17s-1.01-2.94-1.01-4.74.34-3.36,1.01-4.72c.67-1.37,1.63-2.43,2.88-3.19,1.24-.76,2.72-1.14,4.44-1.14,2.05,0,3.71.49,4.99,1.47s2.09,2.37,2.44,4.15h-2.75c-.25-1.03-.76-1.86-1.54-2.48-.78-.62-1.82-.92-3.14-.92-1.18,0-2.21.28-3.08.83-.87.55-1.53,1.33-2,2.35-.47,1.02-.7,2.23-.7,3.65s.23,2.64.7,3.66c.47,1.03,1.13,1.81,2,2.35.87.54,1.89.81,3.08.81,1.32,0,2.36-.3,3.14-.89.77-.59,1.29-1.4,1.54-2.41h2.75c-.35,1.73-1.16,3.09-2.44,4.06-1.28.97-2.94,1.46-4.99,1.46Z"/>
    </g>
  </g>
  <g class="cls-6">
    <g class="cls-6">
      <path d="M945.48,373.16v-17.5h5.92c1.38,0,2.52.23,3.4.7.88.47,1.54,1.09,1.96,1.86s.64,1.65.64,2.64-.21,1.8-.64,2.59c-.42.79-1.09,1.43-1.99,1.9s-2.05.71-3.45.71h-3.35v7.1h-2.5ZM947.98,364.16h3.25c1.23,0,2.14-.3,2.72-.91s.88-1.39.88-2.34-.28-1.73-.85-2.3c-.57-.57-1.48-.85-2.75-.85h-3.25v6.4ZM954.68,373.16l-3.78-7.78h2.75l3.92,7.78h-2.9Z"/>
      <path d="M965.5,373.46c-1.18,0-2.25-.27-3.19-.83-.94-.55-1.68-1.32-2.22-2.31-.54-.99-.81-2.14-.81-3.44s.28-2.5.82-3.49c.55-.99,1.3-1.76,2.25-2.31.95-.55,2.02-.83,3.2-.83s2.27.28,3.2.83,1.67,1.32,2.21,2.3c.54.98.81,2.14.81,3.48s-.27,2.49-.81,3.47c-.54.98-1.29,1.75-2.24,2.3-.95.55-2.02.83-3.22.83ZM965.5,371.31c.68,0,1.3-.17,1.86-.5.56-.33,1.01-.83,1.35-1.49.34-.66.51-1.48.51-2.46s-.17-1.8-.5-2.46c-.33-.66-.78-1.15-1.34-1.49-.56-.33-1.17-.5-1.84-.5s-1.28.17-1.85.5c-.57.33-1.02.83-1.36,1.49-.34.66-.51,1.48-.51,2.46s.17,1.8.51,2.46c.34.66.79,1.15,1.35,1.49.56.33,1.16.5,1.81.5Z"/>
      <path d="M979.35,373.46c-.98,0-1.84-.2-2.56-.6-.72-.4-1.28-1-1.67-1.8-.39-.8-.59-1.81-.59-3.03v-7.47h2.5v7.2c0,1.18.26,2.08.77,2.68.52.6,1.26.9,2.23.9.65,0,1.24-.16,1.76-.47s.94-.78,1.24-1.38c.3-.6.45-1.33.45-2.2v-6.72h2.5v12.6h-2.22l-.18-2.15c-.38.77-.94,1.37-1.67,1.8-.73.43-1.58.65-2.55.65Z"/>
      <path d="M989.4,373.16v-12.6h2.25l.15,2.15c.4-.75.97-1.35,1.7-1.79.73-.44,1.57-.66,2.53-.66,1,0,1.86.2,2.57.6.72.4,1.28,1,1.68,1.81.4.81.6,1.82.6,3.04v7.45h-2.5v-7.2c0-1.17-.26-2.05-.78-2.65-.52-.6-1.27-.9-2.25-.9-.65,0-1.23.15-1.75.46s-.93.76-1.24,1.36c-.31.6-.46,1.33-.46,2.2v6.72h-2.5Z"/>
      <path d="M1009.68,373.46c-1.2,0-2.26-.29-3.17-.86-.92-.58-1.63-1.36-2.14-2.35-.51-.99-.76-2.12-.76-3.39s.25-2.42.76-3.4c.51-.98,1.23-1.76,2.15-2.34.93-.58,1.99-.86,3.19-.86.98,0,1.85.2,2.6.59s1.33.95,1.75,1.66v-7.35h2.5v18h-2.22l-.28-1.95c-.25.38-.57.75-.97,1.09s-.88.62-1.45.84c-.57.22-1.22.33-1.95.33ZM1010.08,371.29c.78,0,1.47-.18,2.08-.55s1.06-.88,1.39-1.55c.32-.67.49-1.44.49-2.33s-.16-1.65-.49-2.31c-.33-.66-.79-1.17-1.39-1.55s-1.29-.56-2.08-.56-1.42.19-2.03.56c-.6.38-1.07.89-1.4,1.55s-.5,1.43-.5,2.31.17,1.66.5,2.33c.33.67.8,1.18,1.4,1.55.6.37,1.28.55,2.03.55Z"/>
    </g>
  </g>
  <g class="cls-6">
    <g class="cls-6">
      <path d="M1040.93,422.69c-.93-.95-1.77-2.04-2.5-3.26-.73-1.22-1.3-2.57-1.71-4.04s-.61-3.02-.61-4.65.2-3.2.61-4.66.98-2.8,1.71-4.04c.73-1.23,1.57-2.32,2.5-3.25h3.35v.33c-1,1.05-1.86,2.2-2.59,3.45-.72,1.25-1.29,2.56-1.69,3.94-.4,1.38-.6,2.79-.6,4.24s.2,2.86.6,4.24c.4,1.38.97,2.68,1.7,3.93.73,1.24,1.59,2.4,2.57,3.46v.33h-3.35Z"/>
    </g>
    <g class="cls-6">
      <path class="cls-1" d="M1050.6,419.06l6.4-17.5h3.82l6.38,17.5h-3.57l-4.73-13.65-4.75,13.65h-3.55ZM1053.43,415.09l.9-2.62h8.9l.88,2.62h-10.67Z"/>
    </g>
    <g class="cls-6">
      <path d="M1073.88,413.24v-2.83h12.2v2.83h-12.2ZM1078.55,417.54v-11.4h2.88v11.4h-2.88Z"/>
    </g>
    <g class="cls-6">
      <path class="cls-1" d="M1093.98,419.06v-17.5h7.17c1.22,0,2.24.19,3.08.58s1.46.91,1.89,1.59c.42.68.64,1.46.64,2.34s-.19,1.62-.58,2.22c-.38.6-.89,1.06-1.51,1.39s-1.31.51-2.06.56l.4-.27c.8.03,1.51.25,2.14.64.62.39,1.12.91,1.47,1.56.36.65.54,1.36.54,2.12,0,.93-.22,1.76-.67,2.48s-1.1,1.28-1.95,1.69c-.85.41-1.89.61-3.12.61h-7.42ZM1097.35,408.86h3.25c.88,0,1.55-.2,2.01-.6.46-.4.69-.97.69-1.7s-.23-1.28-.69-1.69c-.46-.41-1.14-.61-2.04-.61h-3.23v4.6ZM1097.35,416.31h3.5c.92,0,1.62-.21,2.12-.62.5-.42.75-1.02.75-1.8s-.26-1.4-.77-1.84c-.52-.44-1.23-.66-2.15-.66h-3.45v4.92Z"/>
    </g>
    <g class="cls-6">
      <path d="M1114.38,413.24v-2.83h12.2v2.83h-12.2ZM1119.05,417.54v-11.4h2.88v11.4h-2.88Z"/>
    </g>
    <g class="cls-6">
      <path class="cls-1" d="M1142.23,419.36c-1.75,0-3.25-.38-4.51-1.14-1.26-.76-2.22-1.82-2.9-3.17s-1.01-2.93-1.01-4.71.34-3.36,1.01-4.73c.67-1.37,1.64-2.43,2.9-3.2,1.26-.77,2.76-1.15,4.51-1.15,2.12,0,3.85.52,5.2,1.58,1.35,1.05,2.19,2.53,2.53,4.45h-3.68c-.22-.93-.67-1.66-1.36-2.19-.69-.52-1.6-.79-2.71-.79-1.03,0-1.92.25-2.66.74-.74.49-1.31,1.18-1.71,2.08s-.6,1.96-.6,3.21.2,2.3.6,3.2c.4.9.97,1.59,1.71,2.08.74.48,1.63.73,2.66.73,1.12,0,2.02-.25,2.7-.74.68-.49,1.13-1.18,1.35-2.06h3.7c-.33,1.82-1.18,3.24-2.53,4.28s-3.08,1.55-5.2,1.55Z"/>
    </g>
    <g class="cls-6">
      <path d="M1157.28,413.24v-2.83h12.2v2.83h-12.2ZM1161.95,417.54v-11.4h2.88v11.4h-2.88Z"/>
    </g>
    <g class="cls-6">
      <path class="cls-1" d="M1177.38,419.06v-17.5h5.85c2.03,0,3.71.36,5.04,1.09,1.32.72,2.31,1.74,2.95,3.05.64,1.31.96,2.85.96,4.61s-.32,3.3-.96,4.61c-.64,1.31-1.62,2.33-2.94,3.05-1.32.73-3,1.09-5.05,1.09h-5.85ZM1180.75,416.16h2.3c1.43,0,2.56-.23,3.39-.7s1.41-1.14,1.76-2.01.53-1.92.53-3.14-.18-2.29-.53-3.16-.94-1.55-1.76-2.01-1.95-.7-3.39-.7h-2.3v11.72Z"/>
    </g>
    <g class="cls-6">
      <path d="M1199.38,413.24v-2.83h12.2v2.83h-12.2ZM1204.05,417.54v-11.4h2.88v11.4h-2.88Z"/>
    </g>
    <g class="cls-6">
      <path class="cls-10" d="M1225.5,419.36c-1.27,0-2.4-.22-3.39-.65-.99-.43-1.78-1.07-2.35-1.9-.58-.83-.87-1.84-.89-3.03h3.58c.02.52.15.98.4,1.4.25.42.6.75,1.04.99.44.24.97.36,1.59.36.53,0,1-.09,1.39-.26.39-.18.7-.42.91-.74.22-.32.33-.69.33-1.12,0-.5-.12-.92-.36-1.25-.24-.33-.58-.62-1-.85s-.92-.45-1.47-.64c-.56-.19-1.15-.4-1.76-.61-1.38-.45-2.44-1.05-3.16-1.8-.72-.75-1.09-1.74-1.09-2.98,0-1.05.25-1.95.76-2.7.51-.75,1.21-1.33,2.11-1.73.9-.4,1.92-.6,3.08-.6s2.22.2,3.11.61,1.6,1,2.12,1.76c.52.77.8,1.67.81,2.7h-3.6c-.02-.38-.13-.75-.34-1.09-.21-.34-.5-.62-.86-.83-.37-.21-.8-.31-1.3-.31-.43-.02-.83.05-1.19.2s-.64.37-.85.66c-.21.29-.31.65-.31,1.09s.1.77.31,1.05c.21.28.5.53.86.74.37.21.8.4,1.3.58s1.04.35,1.62.54c.87.3,1.67.65,2.4,1.06s1.32.94,1.75,1.59c.43.65.65,1.51.65,2.58,0,.92-.24,1.77-.73,2.55-.48.78-1.18,1.42-2.09,1.9-.91.48-2.04.72-3.39.72Z"/>
    </g>
    <g class="cls-6">
      <path d="M1242,422.69h-3.38v-.33c1-1.07,1.87-2.22,2.6-3.46.73-1.24,1.3-2.55,1.69-3.93s.59-2.79.59-4.24-.2-2.86-.59-4.24-.95-2.69-1.69-3.94-1.6-2.4-2.6-3.45v-.33h3.38c.93.93,1.76,2.02,2.49,3.25.72,1.23,1.3,2.58,1.71,4.04.42,1.46.62,3.01.62,4.66s-.21,3.18-.62,4.65c-.42,1.47-.99,2.81-1.71,4.04-.72,1.23-1.55,2.31-2.49,3.26Z"/>
    </g>
  </g>
  <g class="cls-6">
    <g class="cls-6">
      <path d="M953.84,439.46v-24.89l-5.17,1.31v-3.18l6.74-2.92h2.76v29.68h-4.32Z"/>
      <path d="M975.93,439.97c-2.63,0-4.89-.64-6.78-1.93s-3.35-3.08-4.37-5.39c-1.02-2.3-1.53-4.98-1.53-8.03s.51-5.73,1.53-8.04c1.02-2.3,2.47-4.1,4.37-5.38,1.89-1.29,4.16-1.93,6.78-1.93s4.88.64,6.76,1.93c1.88,1.29,3.32,3.08,4.33,5.38,1,2.3,1.5,4.98,1.5,8.04s-.5,5.73-1.5,8.03c-1,2.3-2.45,4.1-4.33,5.39s-4.13,1.93-6.76,1.93ZM975.93,436.2c1.58,0,3-.47,4.26-1.4,1.26-.93,2.24-2.26,2.95-3.99.71-1.72,1.06-3.79,1.06-6.19s-.35-4.47-1.06-6.19c-.71-1.72-1.69-3.05-2.95-3.96-1.26-.92-2.68-1.38-4.26-1.38s-3.05.46-4.32,1.38c-1.27.92-2.26,2.24-2.97,3.96-.71,1.72-1.06,3.79-1.06,6.19s.35,4.47,1.06,6.19c.71,1.72,1.7,3.05,2.97,3.99,1.27.93,2.71,1.4,4.32,1.4Z"/>
    </g>
    <g class="cls-6">
      <path d="M946.88,469.46v-17.5h6.47c1.22,0,2.23.2,3.05.59s1.43.92,1.84,1.6c.41.67.61,1.44.61,2.29s-.19,1.62-.58,2.23c-.38.6-.89,1.06-1.51,1.39-.62.32-1.3.51-2.01.56l.35-.25c.77.02,1.47.22,2.1.61.63.39,1.13.91,1.5,1.56.37.65.55,1.37.55,2.15,0,.9-.22,1.71-.65,2.44-.43.73-1.08,1.3-1.92,1.71-.85.42-1.89.62-3.12.62h-6.67ZM949.38,459.51h3.7c1.05,0,1.85-.25,2.4-.74.55-.49.83-1.17.83-2.04s-.28-1.5-.83-1.99c-.55-.49-1.38-.74-2.47-.74h-3.62v5.5ZM949.38,467.39h3.85c1.1,0,1.95-.25,2.56-.76.61-.51.91-1.23.91-2.16s-.31-1.65-.94-2.2-1.49-.83-2.59-.83h-3.8v5.95Z"/>
      <path d="M965.95,469.46v-15.45h-5.17v-2.05h12.88v2.05h-5.2v15.45h-2.5Z"/>
      <path d="M983.05,469.76c-1.72,0-3.2-.38-4.44-1.14-1.24-.76-2.2-1.82-2.88-3.17s-1.01-2.94-1.01-4.74.34-3.36,1.01-4.72c.67-1.37,1.63-2.43,2.88-3.19,1.24-.76,2.72-1.14,4.44-1.14,2.05,0,3.71.49,4.99,1.47s2.09,2.37,2.44,4.15h-2.75c-.25-1.03-.76-1.86-1.54-2.48-.78-.62-1.82-.92-3.14-.92-1.18,0-2.21.28-3.08.83-.87.55-1.53,1.33-2,2.35-.47,1.02-.7,2.23-.7,3.65s.23,2.64.7,3.66c.47,1.03,1.13,1.81,2,2.35.87.54,1.89.81,3.08.81,1.32,0,2.36-.3,3.14-.89.77-.59,1.29-1.4,1.54-2.41h2.75c-.35,1.73-1.16,3.09-2.44,4.06-1.28.97-2.94,1.46-4.99,1.46Z"/>
    </g>
  </g>
  <g class="cls-6">
    <g class="cls-6">
      <path d="M1042.67,277.39v-23.87l-5.26,1.36v-3.94l7.29-3.22h3.18v29.68h-5.22Z"/>
      <path d="M1065.7,277.9c-2.69,0-4.99-.64-6.91-1.93-1.92-1.29-3.4-3.08-4.43-5.39-1.03-2.3-1.55-4.98-1.55-8.03s.52-5.73,1.55-8.04c1.03-2.3,2.51-4.1,4.43-5.38,1.92-1.29,4.23-1.93,6.91-1.93s4.94.64,6.85,1.93c1.91,1.29,3.38,3.08,4.41,5.38,1.03,2.3,1.55,4.98,1.55,8.04s-.52,5.73-1.55,8.03c-1.03,2.3-2.5,4.1-4.41,5.39s-4.19,1.93-6.85,1.93ZM1065.66,273.32c1.5,0,2.83-.43,3.99-1.29,1.16-.86,2.06-2.1,2.69-3.71s.95-3.53.95-5.77-.32-4.16-.95-5.77-1.53-2.85-2.69-3.71c-1.16-.86-2.49-1.29-3.99-1.29s-2.83.43-3.98,1.29c-1.16.86-2.06,2.1-2.69,3.71-.64,1.61-.95,3.53-.95,5.77s.32,4.16.95,5.77c.64,1.61,1.53,2.85,2.69,3.71,1.16.86,2.49,1.29,3.98,1.29Z"/>
      <path d="M1093.81,277.39v-29.68h11.62c2.09,0,3.84.33,5.24.97,1.4.65,2.45,1.55,3.16,2.69.71,1.15,1.06,2.47,1.06,3.96s-.33,2.76-.97,3.77c-.65,1.02-1.51,1.79-2.57,2.33s-2.21.86-3.46.98l.64-.47c1.33.03,2.52.38,3.58,1.06,1.06.68,1.9,1.56,2.52,2.65.62,1.09.93,2.3.93,3.62,0,1.55-.38,2.95-1.12,4.18s-1.84,2.19-3.29,2.88c-1.44.69-3.21,1.04-5.3,1.04h-12.04ZM1098.9,260.26h5.81c1.64,0,2.88-.37,3.73-1.12.85-.75,1.27-1.79,1.27-3.12s-.42-2.33-1.27-3.07c-.85-.75-2.11-1.12-3.77-1.12h-5.77v8.44ZM1098.9,273.23h6.19c1.67,0,2.97-.4,3.9-1.19.93-.79,1.4-1.89,1.4-3.31s-.48-2.54-1.44-3.37c-.96-.83-2.28-1.25-3.94-1.25h-6.11v9.12Z"/>
      <path d="M1126.92,277.39v-25.57h-8.73v-4.11h22.51v4.11h-8.73v25.57h-5.05Z"/>
      <path d="M1156.94,277.9c-2.94,0-5.48-.64-7.61-1.93-2.13-1.29-3.77-3.08-4.92-5.39-1.14-2.3-1.72-4.97-1.72-7.99s.57-5.73,1.72-8.03,2.78-4.11,4.92-5.41c2.13-1.3,4.67-1.95,7.61-1.95,3.53,0,6.42.87,8.65,2.61s3.65,4.19,4.24,7.36h-5.6c-.4-1.67-1.2-2.98-2.42-3.94-1.22-.96-2.86-1.44-4.92-1.44-1.87,0-3.47.43-4.81,1.29-1.34.86-2.37,2.11-3.09,3.73-.72,1.63-1.08,3.55-1.08,5.79s.36,4.15,1.08,5.75c.72,1.6,1.75,2.83,3.09,3.69,1.34.86,2.95,1.29,4.81,1.29,2.06,0,3.7-.45,4.92-1.34,1.21-.89,2.02-2.13,2.42-3.71h5.6c-.57,3-1.97,5.35-4.22,7.06-2.25,1.71-5.14,2.57-8.67,2.57Z"/>
    </g>
  </g>
  <g class="cls-6">
    <g class="cls-6">
      <path d="M168.11,277.39v-23.87l-5.26,1.36v-3.94l7.29-3.22h3.18v29.68h-5.21Z"/>
      <path d="M191.13,277.9c-2.69,0-4.99-.64-6.91-1.93s-3.4-3.08-4.43-5.39c-1.03-2.3-1.55-4.98-1.55-8.03s.52-5.73,1.55-8.04c1.03-2.3,2.51-4.1,4.43-5.38,1.92-1.29,4.23-1.93,6.91-1.93s4.94.64,6.85,1.93c1.91,1.29,3.38,3.08,4.41,5.38,1.03,2.3,1.55,4.98,1.55,8.04s-.52,5.73-1.55,8.03c-1.03,2.3-2.5,4.1-4.41,5.39-1.91,1.29-4.19,1.93-6.85,1.93ZM191.09,273.32c1.5,0,2.83-.43,3.99-1.29s2.06-2.1,2.69-3.71c.64-1.61.95-3.53.95-5.77s-.32-4.16-.95-5.77c-.64-1.61-1.53-2.85-2.69-3.71s-2.49-1.29-3.99-1.29-2.83.43-3.99,1.29c-1.16.86-2.06,2.1-2.69,3.71-.64,1.61-.95,3.53-.95,5.77s.32,4.16.95,5.77c.64,1.61,1.53,2.85,2.69,3.71,1.16.86,2.49,1.29,3.99,1.29Z"/>
      <path d="M219.24,277.39v-29.68h11.62c2.09,0,3.84.33,5.24.97,1.4.65,2.45,1.55,3.16,2.69.71,1.15,1.06,2.47,1.06,3.96s-.33,2.76-.97,3.77c-.65,1.02-1.5,1.79-2.57,2.33-1.06.54-2.21.86-3.46.98l.64-.47c1.33.03,2.52.38,3.58,1.06,1.06.68,1.9,1.56,2.52,2.65.62,1.09.93,2.3.93,3.62,0,1.55-.38,2.95-1.12,4.18-.75,1.23-1.84,2.19-3.29,2.88-1.44.69-3.21,1.04-5.3,1.04h-12.04ZM224.33,260.26h5.81c1.64,0,2.88-.37,3.73-1.12s1.27-1.79,1.27-3.12-.42-2.33-1.27-3.07-2.11-1.12-3.77-1.12h-5.77v8.44ZM224.33,273.23h6.19c1.67,0,2.97-.4,3.9-1.19.93-.79,1.4-1.89,1.4-3.31s-.48-2.54-1.44-3.37c-.96-.83-2.28-1.25-3.94-1.25h-6.11v9.12Z"/>
      <path d="M252.36,277.39v-25.57h-8.73v-4.11h22.51v4.11h-8.73v25.57h-5.05Z"/>
      <path d="M282.38,277.9c-2.94,0-5.48-.64-7.61-1.93-2.13-1.29-3.77-3.08-4.92-5.39-1.14-2.3-1.72-4.97-1.72-7.99s.57-5.73,1.72-8.03c1.15-2.3,2.78-4.11,4.92-5.41,2.13-1.3,4.67-1.95,7.61-1.95,3.53,0,6.42.87,8.65,2.61,2.23,1.74,3.65,4.19,4.24,7.36h-5.6c-.4-1.67-1.2-2.98-2.42-3.94-1.22-.96-2.86-1.44-4.92-1.44-1.87,0-3.47.43-4.81,1.29-1.34.86-2.37,2.11-3.1,3.73-.72,1.63-1.08,3.55-1.08,5.79s.36,4.15,1.08,5.75c.72,1.6,1.75,2.83,3.1,3.69,1.34.86,2.95,1.29,4.81,1.29,2.06,0,3.7-.45,4.92-1.34,1.21-.89,2.02-2.13,2.42-3.71h5.6c-.57,3-1.97,5.35-4.22,7.06-2.25,1.71-5.14,2.57-8.67,2.57Z"/>
    </g>
  </g>
  <g class="cls-6">
    <g class="cls-6">
      <path d="M945.48,560.86v-17.5h6.47c1.22,0,2.23.2,3.05.59s1.43.92,1.84,1.6.61,1.44.61,2.29-.19,1.62-.58,2.23c-.38.6-.89,1.06-1.51,1.39-.62.32-1.3.51-2.01.56l.35-.25c.77.02,1.47.22,2.1.61.63.39,1.13.91,1.5,1.56.37.65.55,1.37.55,2.15,0,.9-.22,1.71-.65,2.44-.43.73-1.08,1.3-1.92,1.71-.85.42-1.89.62-3.12.62h-6.67ZM947.98,550.91h3.7c1.05,0,1.85-.25,2.4-.74.55-.49.83-1.17.83-2.04s-.28-1.5-.83-1.99c-.55-.49-1.38-.74-2.47-.74h-3.62v5.5ZM947.98,558.79h3.85c1.1,0,1.95-.25,2.56-.76.61-.51.91-1.23.91-2.16s-.31-1.65-.94-2.2-1.49-.83-2.59-.83h-3.8v5.95Z"/>
      <path d="M960.7,560.86v-12.6h2.25l.22,2.38c.28-.57.65-1.05,1.1-1.44.45-.39.98-.7,1.59-.91.61-.22,1.3-.33,2.09-.33v2.65h-.9c-.52,0-1.01.06-1.47.19-.47.12-.88.34-1.24.64s-.64.71-.84,1.22c-.2.52-.3,1.16-.3,1.92v6.28h-2.5Z"/>
      <path d="M974.43,561.16c-1.03,0-1.89-.17-2.58-.52-.68-.35-1.19-.82-1.52-1.41-.33-.59-.5-1.23-.5-1.91,0-.83.22-1.55.65-2.14s1.05-1.05,1.85-1.36,1.76-.48,2.88-.48h3.27c0-.73-.11-1.34-.32-1.82s-.54-.85-.96-1.09c-.42-.24-.96-.36-1.61-.36-.75,0-1.39.18-1.92.54s-.87.89-1,1.59h-2.5c.1-.88.4-1.64.91-2.26s1.16-1.11,1.96-1.45c.8-.34,1.65-.51,2.55-.51,1.18,0,2.17.21,2.98.62.8.42,1.4,1,1.81,1.76.41.76.61,1.66.61,2.71v7.8h-2.17l-.2-2.12c-.18.33-.4.65-.65.95s-.55.56-.89.77c-.34.22-.73.39-1.17.51-.44.12-.93.19-1.46.19ZM974.9,559.14c.53,0,1.02-.11,1.45-.33s.8-.51,1.11-.89.54-.8.7-1.28c.16-.47.25-.96.26-1.46v-.08h-2.98c-.72,0-1.3.09-1.74.26s-.76.41-.96.71c-.2.3-.3.65-.3,1.05s.1.77.29,1.06c.19.29.47.52.84.69.37.17.81.25,1.33.25Z"/>
      <path d="M984.18,560.86v-12.6h2.25l.15,2.15c.4-.75.97-1.35,1.7-1.79s1.58-.66,2.53-.66c1,0,1.86.2,2.58.6.72.4,1.27,1,1.67,1.81.4.81.6,1.82.6,3.04v7.45h-2.5v-7.2c0-1.17-.26-2.05-.77-2.65-.52-.6-1.27-.9-2.25-.9-.65,0-1.23.15-1.75.46-.52.31-.93.76-1.24,1.36-.31.6-.46,1.33-.46,2.2v6.72h-2.5Z"/>
      <path d="M1004.68,561.16c-1.22,0-2.3-.28-3.25-.84-.95-.56-1.7-1.33-2.24-2.31-.54-.98-.81-2.12-.81-3.43s.27-2.47.81-3.46c.54-.99,1.29-1.77,2.24-2.33.95-.56,2.03-.84,3.25-.84,1.53,0,2.82.4,3.85,1.2,1.03.8,1.69,1.88,1.98,3.25h-2.6c-.17-.73-.55-1.3-1.14-1.7-.59-.4-1.3-.6-2.11-.6-.67,0-1.28.17-1.85.51s-1.02.84-1.36,1.5c-.34.66-.51,1.47-.51,2.44,0,.72.1,1.35.3,1.91.2.56.47,1.03.81,1.41.34.38.74.67,1.19.86.45.19.92.29,1.42.29.55,0,1.05-.09,1.49-.26.44-.17.82-.44,1.12-.79s.52-.77.64-1.25h2.6c-.28,1.33-.94,2.4-1.98,3.21-1.03.81-2.32,1.21-3.85,1.21Z"/>
      <path d="M1013.43,560.86v-18h2.5v7.45c.42-.73,1-1.31,1.74-1.73.74-.42,1.56-.62,2.46-.62,1,0,1.86.21,2.57.61s1.27,1.02,1.65,1.82c.38.81.58,1.82.58,3.04v7.42h-2.48v-7.15c0-1.18-.25-2.08-.75-2.69-.5-.61-1.24-.91-2.22-.91-.67,0-1.27.16-1.8.47-.53.32-.96.78-1.28,1.39s-.47,1.35-.47,2.21v6.67h-2.5Z"/>
    </g>
  </g>
  <g class="cls-6">
    <g class="cls-6">
      <path d="M1082.23,610.49c-.93-.95-1.77-2.04-2.5-3.26-.73-1.22-1.3-2.57-1.71-4.04-.41-1.47-.61-3.02-.61-4.65s.2-3.2.61-4.66c.41-1.46.98-2.8,1.71-4.04.73-1.23,1.57-2.32,2.5-3.25h3.35v.33c-1,1.05-1.86,2.2-2.59,3.45s-1.29,2.56-1.69,3.94-.6,2.79-.6,4.24.2,2.86.6,4.24.97,2.68,1.7,3.93c.73,1.24,1.59,2.4,2.58,3.46v.33h-3.35Z"/>
    </g>
    <g class="cls-6">
      <path class="cls-1" d="M1100.93,607.16c-1.75,0-3.25-.38-4.51-1.14-1.26-.76-2.22-1.82-2.9-3.17-.68-1.36-1.01-2.93-1.01-4.71s.34-3.36,1.01-4.73c.67-1.37,1.64-2.43,2.9-3.2,1.26-.77,2.76-1.15,4.51-1.15,2.12,0,3.85.52,5.2,1.58,1.35,1.05,2.19,2.53,2.52,4.45h-3.67c-.22-.93-.67-1.66-1.36-2.19-.69-.52-1.6-.79-2.71-.79-1.03,0-1.92.25-2.66.74-.74.49-1.31,1.18-1.71,2.08-.4.89-.6,1.96-.6,3.21s.2,2.3.6,3.2c.4.9.97,1.59,1.71,2.08.74.48,1.63.73,2.66.73,1.12,0,2.02-.25,2.7-.74.68-.49,1.13-1.18,1.35-2.06h3.7c-.33,1.82-1.17,3.24-2.52,4.28-1.35,1.03-3.08,1.55-5.2,1.55Z"/>
    </g>
    <g class="cls-6">
      <path d="M1115.98,601.04v-2.83h12.2v2.83h-12.2ZM1120.65,605.34v-11.4h2.88v11.4h-2.88Z"/>
    </g>
    <g class="cls-6">
      <path class="cls-1" d="M1135.98,606.86v-17.5h5.85c2.03,0,3.71.36,5.04,1.09,1.33.72,2.31,1.74,2.95,3.05s.96,2.85.96,4.61-.32,3.3-.96,4.61c-.64,1.31-1.62,2.33-2.94,3.05-1.32.73-3,1.09-5.05,1.09h-5.85ZM1139.35,603.96h2.3c1.43,0,2.56-.23,3.39-.7s1.41-1.14,1.76-2.01.53-1.92.53-3.14-.18-2.29-.53-3.16-.94-1.55-1.76-2.01-1.95-.7-3.39-.7h-2.3v11.72Z"/>
    </g>
    <g class="cls-6">
      <path d="M1158.08,601.04v-2.83h12.2v2.83h-12.2ZM1162.75,605.34v-11.4h2.88v11.4h-2.88Z"/>
    </g>
    <g class="cls-6">
      <path class="cls-10" d="M1184.2,607.16c-1.27,0-2.4-.22-3.39-.65-.99-.43-1.77-1.07-2.35-1.9-.57-.83-.87-1.84-.89-3.03h3.57c.02.52.15.98.4,1.4.25.42.6.75,1.04.99.44.24.97.36,1.59.36.53,0,1-.09,1.39-.26.39-.18.7-.42.91-.74.22-.32.33-.69.33-1.12,0-.5-.12-.92-.36-1.25-.24-.33-.57-.62-1-.85-.42-.23-.92-.45-1.47-.64-.56-.19-1.15-.4-1.76-.61-1.38-.45-2.44-1.05-3.16-1.8s-1.09-1.74-1.09-2.98c0-1.05.25-1.95.76-2.7s1.21-1.33,2.11-1.73c.9-.4,1.92-.6,3.07-.6s2.22.2,3.11.61c.89.41,1.6,1,2.12,1.76.52.77.79,1.67.81,2.7h-3.6c-.02-.38-.13-.75-.34-1.09-.21-.34-.5-.62-.86-.83-.37-.21-.8-.31-1.3-.31-.43-.02-.83.05-1.19.2s-.64.37-.85.66c-.21.29-.31.65-.31,1.09s.1.77.31,1.05c.21.28.5.53.86.74.37.21.8.4,1.3.58s1.04.35,1.62.54c.87.3,1.67.65,2.4,1.06.73.41,1.32.94,1.75,1.59.43.65.65,1.51.65,2.58,0,.92-.24,1.77-.72,2.55-.48.78-1.18,1.42-2.09,1.9s-2.04.72-3.39.72Z"/>
    </g>
    <g class="cls-6">
      <path d="M1200.7,610.49h-3.38v-.33c1-1.07,1.87-2.22,2.6-3.46.73-1.24,1.3-2.55,1.69-3.93s.59-2.79.59-4.24-.2-2.86-.59-4.24-.95-2.69-1.69-3.94-1.6-2.4-2.6-3.45v-.33h3.38c.93.93,1.76,2.02,2.49,3.25.72,1.23,1.3,2.58,1.71,4.04.42,1.46.62,3.01.62,4.66s-.21,3.18-.62,4.65c-.42,1.47-.99,2.81-1.71,4.04-.73,1.23-1.55,2.31-2.49,3.26Z"/>
    </g>
  </g>
  <g class="cls-6">
    <g class="cls-6">
      <path d="M968.86,627.67c-1.89,0-3.62-.35-5.19-1.04-1.57-.69-2.81-1.74-3.73-3.14-.92-1.4-1.41-3.16-1.46-5.28h4.24c.03,1.07.28,2.05.76,2.93.48.88,1.18,1.58,2.1,2.1.92.52,2.01.78,3.29.78s2.34-.24,3.2-.72c.86-.48,1.51-1.13,1.95-1.95.44-.82.66-1.74.66-2.76,0-1.27-.3-2.3-.91-3.1-.61-.79-1.43-1.38-2.46-1.78-1.03-.4-2.18-.59-3.46-.59h-2.2v-3.56h2.2c1.78,0,3.2-.41,4.26-1.23,1.06-.82,1.59-1.98,1.59-3.48,0-1.24-.41-2.26-1.23-3.05-.82-.79-2.02-1.19-3.6-1.19s-2.83.45-3.75,1.36c-.92.91-1.43,2.05-1.55,3.43h-4.2c.08-1.67.53-3.14,1.34-4.43.8-1.29,1.91-2.28,3.31-2.97,1.4-.69,3.02-1.04,4.85-1.04,1.98,0,3.64.35,4.98,1.04,1.34.69,2.36,1.62,3.05,2.78.69,1.16,1.04,2.43,1.04,3.82,0,1.05-.2,2.01-.59,2.9-.4.89-.96,1.66-1.7,2.31-.74.65-1.63,1.12-2.67,1.4,1.13.23,2.15.66,3.05,1.31.9.65,1.61,1.49,2.12,2.52.51,1.03.76,2.23.76,3.58,0,1.61-.38,3.1-1.14,4.47s-1.89,2.47-3.37,3.31c-1.48.83-3.33,1.25-5.53,1.25Z"/>
    </g>
    <g class="cls-6">
      <path d="M946.88,657.16v-17.5h6.47c1.22,0,2.23.2,3.05.59s1.43.92,1.84,1.6c.41.67.61,1.44.61,2.29s-.19,1.62-.58,2.23c-.38.6-.89,1.06-1.51,1.39-.62.32-1.3.51-2.01.56l.35-.25c.77.02,1.47.22,2.1.61.63.39,1.13.91,1.5,1.56.37.65.55,1.37.55,2.15,0,.9-.22,1.71-.65,2.44-.43.73-1.08,1.3-1.92,1.71-.85.42-1.89.62-3.12.62h-6.67ZM949.38,647.21h3.7c1.05,0,1.85-.25,2.4-.74.55-.49.83-1.17.83-2.04s-.28-1.5-.83-1.99c-.55-.49-1.38-.74-2.47-.74h-3.62v5.5ZM949.38,655.09h3.85c1.1,0,1.95-.25,2.56-.76.61-.51.91-1.23.91-2.16s-.31-1.65-.94-2.2-1.49-.83-2.59-.83h-3.8v5.95Z"/>
      <path d="M965.95,657.16v-15.45h-5.17v-2.05h12.88v2.05h-5.2v15.45h-2.5Z"/>
      <path d="M983.05,657.46c-1.72,0-3.2-.38-4.44-1.14-1.24-.76-2.2-1.82-2.88-3.17s-1.01-2.94-1.01-4.74.34-3.36,1.01-4.72c.67-1.37,1.63-2.43,2.88-3.19,1.24-.76,2.72-1.14,4.44-1.14,2.05,0,3.71.49,4.99,1.47s2.09,2.37,2.44,4.15h-2.75c-.25-1.03-.76-1.86-1.54-2.48-.78-.62-1.82-.92-3.14-.92-1.18,0-2.21.28-3.08.83-.87.55-1.53,1.33-2,2.35-.47,1.02-.7,2.23-.7,3.65s.23,2.64.7,3.66c.47,1.03,1.13,1.81,2,2.35.87.54,1.89.81,3.08.81,1.32,0,2.36-.3,3.14-.89.77-.59,1.29-1.4,1.54-2.41h2.75c-.35,1.73-1.16,3.09-2.44,4.06-1.28.97-2.94,1.46-4.99,1.46Z"/>
    </g>
  </g>
  <g class="cls-6">
    <g class="cls-6">
      <path d="M1083.43,720.39c-.93-.95-1.77-2.04-2.5-3.26-.73-1.22-1.3-2.57-1.71-4.04s-.61-3.02-.61-4.65.2-3.2.61-4.66.98-2.8,1.71-4.04c.73-1.23,1.57-2.32,2.5-3.25h3.35v.33c-1,1.05-1.86,2.2-2.59,3.45-.72,1.25-1.29,2.56-1.69,3.94-.4,1.38-.6,2.79-.6,4.24s.2,2.86.6,4.24c.4,1.38.97,2.68,1.7,3.93.73,1.24,1.59,2.4,2.57,3.46v.33h-3.35Z"/>
    </g>
    <g class="cls-6">
      <path class="cls-1" d="M1093.1,716.76l6.4-17.5h3.83l6.38,17.5h-3.58l-4.73-13.65-4.75,13.65h-3.55ZM1095.93,712.79l.9-2.62h8.9l.88,2.62h-10.67Z"/>
    </g>
    <g class="cls-6">
      <path d="M1116.38,710.94v-2.83h12.2v2.83h-12.2ZM1121.05,715.24v-11.4h2.88v11.4h-2.88Z"/>
    </g>
    <g class="cls-6">
      <path class="cls-1" d="M1136.48,716.76v-17.5h7.17c1.22,0,2.24.19,3.08.58s1.46.91,1.89,1.59c.42.68.64,1.46.64,2.34s-.19,1.62-.58,2.22c-.38.6-.89,1.06-1.51,1.39s-1.31.51-2.06.56l.4-.27c.8.03,1.51.25,2.14.64.62.39,1.12.91,1.47,1.56.36.65.54,1.36.54,2.12,0,.93-.22,1.76-.67,2.48s-1.1,1.28-1.95,1.69c-.85.41-1.89.61-3.12.61h-7.42ZM1139.85,706.56h3.25c.88,0,1.55-.2,2.01-.6.46-.4.69-.97.69-1.7s-.23-1.28-.69-1.69c-.46-.41-1.14-.61-2.04-.61h-3.23v4.6ZM1139.85,714.01h3.5c.92,0,1.62-.21,2.12-.62.5-.42.75-1.02.75-1.8s-.26-1.4-.77-1.84c-.52-.44-1.23-.66-2.15-.66h-3.45v4.92Z"/>
    </g>
    <g class="cls-6">
      <path d="M1156.88,710.94v-2.83h12.2v2.83h-12.2ZM1161.55,715.24v-11.4h2.88v11.4h-2.88Z"/>
    </g>
    <g class="cls-6">
      <path class="cls-10" d="M1182.9,717.06c-1.27,0-2.4-.22-3.39-.65-.99-.43-1.78-1.07-2.35-1.9-.58-.83-.87-1.84-.89-3.03h3.58c.02.52.15.98.4,1.4.25.42.6.75,1.04.99.44.24.97.36,1.59.36.53,0,1-.09,1.39-.26.39-.18.7-.42.91-.74.22-.32.33-.69.33-1.12,0-.5-.12-.92-.36-1.25-.24-.33-.58-.62-1-.85-.43-.23-.92-.45-1.47-.64-.56-.19-1.15-.4-1.76-.61-1.38-.45-2.44-1.05-3.16-1.8s-1.09-1.74-1.09-2.98c0-1.05.25-1.95.76-2.7.51-.75,1.21-1.33,2.11-1.73.9-.4,1.93-.6,3.08-.6s2.22.2,3.11.61c.89.41,1.6,1,2.12,1.76.53.77.8,1.67.81,2.7h-3.6c-.02-.38-.13-.75-.34-1.09-.21-.34-.5-.62-.86-.83-.37-.21-.8-.31-1.3-.31-.43-.02-.83.05-1.19.2s-.64.37-.85.66c-.21.29-.31.65-.31,1.09s.1.77.31,1.05c.21.28.5.53.86.74.37.21.8.4,1.3.58s1.04.35,1.62.54c.87.3,1.67.65,2.4,1.06.73.41,1.32.94,1.75,1.59.43.65.65,1.51.65,2.58,0,.92-.24,1.77-.73,2.55-.48.78-1.18,1.42-2.09,1.9-.91.48-2.04.72-3.39.72Z"/>
    </g>
    <g class="cls-6">
      <path d="M1199.4,720.39h-3.38v-.33c1-1.07,1.87-2.22,2.6-3.46.73-1.24,1.3-2.55,1.69-3.93s.59-2.79.59-4.24-.2-2.86-.59-4.24-.95-2.69-1.69-3.94-1.6-2.4-2.6-3.45v-.33h3.38c.93.93,1.76,2.02,2.49,3.25.72,1.23,1.29,2.58,1.71,4.04s.62,3.01.62,4.66-.21,3.18-.62,4.65-.99,2.81-1.71,4.04c-.73,1.23-1.55,2.31-2.49,3.26Z"/>
    </g>
  </g>
  <g class="cls-6">
    <g class="cls-6">
      <path d="M963.07,737.06l11.32-26.03h-15.69v-3.65h20.06v3.09l-11.28,26.58h-4.41Z"/>
    </g>
    <g class="cls-6">
      <path d="M946.88,767.06v-17.5h6.47c1.22,0,2.23.2,3.05.59s1.43.92,1.84,1.6c.41.67.61,1.44.61,2.29s-.19,1.62-.58,2.23c-.38.6-.89,1.06-1.51,1.39-.62.32-1.3.51-2.01.56l.35-.25c.77.02,1.47.22,2.1.61.63.39,1.13.91,1.5,1.56.37.65.55,1.37.55,2.15,0,.9-.22,1.71-.65,2.44-.43.73-1.08,1.3-1.92,1.71-.85.42-1.89.62-3.12.62h-6.67ZM949.38,757.11h3.7c1.05,0,1.85-.25,2.4-.74.55-.49.83-1.17.83-2.04s-.28-1.5-.83-1.99c-.55-.49-1.38-.74-2.47-.74h-3.62v5.5ZM949.38,764.99h3.85c1.1,0,1.95-.25,2.56-.76.61-.51.91-1.23.91-2.16s-.31-1.65-.94-2.2-1.49-.83-2.59-.83h-3.8v5.95Z"/>
      <path d="M965.95,767.06v-15.45h-5.17v-2.05h12.88v2.05h-5.2v15.45h-2.5Z"/>
      <path d="M983.05,767.36c-1.72,0-3.2-.38-4.44-1.14-1.24-.76-2.2-1.82-2.88-3.17s-1.01-2.94-1.01-4.74.34-3.36,1.01-4.72c.67-1.37,1.63-2.43,2.88-3.19,1.24-.76,2.72-1.14,4.44-1.14,2.05,0,3.71.49,4.99,1.47s2.09,2.37,2.44,4.15h-2.75c-.25-1.03-.76-1.86-1.54-2.48-.78-.62-1.82-.92-3.14-.92-1.18,0-2.21.28-3.08.83-.87.55-1.53,1.33-2,2.35-.47,1.02-.7,2.23-.7,3.65s.23,2.64.7,3.66c.47,1.03,1.13,1.81,2,2.35.87.54,1.89.81,3.08.81,1.32,0,2.36-.3,3.14-.89.77-.59,1.29-1.4,1.54-2.41h2.75c-.35,1.73-1.16,3.09-2.44,4.06-1.28.97-2.94,1.46-4.99,1.46Z"/>
    </g>
  </g>
  <g class="cls-6">
    <g class="cls-6">
      <path class="cls-10" d="M1129.87,481.86c-1.27,0-2.4-.22-3.39-.65-.99-.43-1.77-1.07-2.35-1.9-.58-.83-.87-1.84-.89-3.03h3.58c.02.52.15.98.4,1.4.25.42.6.75,1.04.99.44.24.97.36,1.59.36.53,0,1-.09,1.39-.26.39-.18.7-.42.91-.74.22-.32.32-.69.32-1.12,0-.5-.12-.92-.36-1.25-.24-.33-.58-.62-1-.85s-.92-.45-1.47-.64c-.56-.19-1.15-.4-1.76-.61-1.38-.45-2.44-1.05-3.16-1.8-.73-.75-1.09-1.74-1.09-2.98,0-1.05.25-1.95.76-2.7.51-.75,1.21-1.33,2.11-1.73.9-.4,1.92-.6,3.08-.6s2.22.2,3.11.61,1.6,1,2.12,1.76.8,1.67.81,2.7h-3.6c-.02-.38-.13-.75-.34-1.09-.21-.34-.5-.62-.86-.83-.37-.21-.8-.31-1.3-.31-.43-.02-.83.05-1.19.2-.36.15-.64.37-.85.66-.21.29-.31.65-.31,1.09s.1.77.31,1.05c.21.28.5.53.86.74.37.21.8.4,1.3.58s1.04.35,1.62.54c.87.3,1.67.65,2.4,1.06s1.32.94,1.75,1.59c.43.65.65,1.51.65,2.58,0,.92-.24,1.77-.73,2.55-.48.78-1.18,1.42-2.09,1.9-.91.48-2.04.72-3.39.72Z"/>
    </g>
  </g>
  <g id="Layer_1">
    <g>
      <path class="cls-8" d="M1149.94,463.24c-5.31,0-9.62,4.3-9.62,9.61s4.3,9.62,9.62,9.62,9.61-4.3,9.61-9.62-4.3-9.61-9.61-9.61ZM1149.94,479.8c-3.84,0-6.95-3.11-6.95-6.95s3.11-6.95,6.95-6.95,6.95,3.11,6.95,6.95-3.11,6.95-6.95,6.95Z"/>
      <polygon class="cls-8" points="1151.22 468.06 1148.66 468.06 1148.66 474.14 1148.71 474.14 1151.22 474.14 1154.4 474.14 1154.4 471.57 1151.22 471.57 1151.22 468.06"/>
    </g>
  </g>
  <g class="cls-6">
    <g class="cls-6">
      <path class="cls-10" d="M1129.87,669.49c-1.27,0-2.4-.22-3.39-.65-.99-.43-1.77-1.07-2.35-1.9-.58-.83-.87-1.84-.89-3.03h3.58c.02.52.15.98.4,1.4.25.42.6.75,1.04.99.44.24.97.36,1.59.36.53,0,1-.09,1.39-.26.39-.18.7-.42.91-.74.22-.32.32-.69.32-1.12,0-.5-.12-.92-.36-1.25-.24-.33-.58-.62-1-.85s-.92-.45-1.47-.64c-.56-.19-1.15-.4-1.76-.61-1.38-.45-2.44-1.05-3.16-1.8-.73-.75-1.09-1.74-1.09-2.98,0-1.05.25-1.95.76-2.7.51-.75,1.21-1.33,2.11-1.73.9-.4,1.92-.6,3.08-.6s2.22.2,3.11.61,1.6,1,2.12,1.76.8,1.67.81,2.7h-3.6c-.02-.38-.13-.75-.34-1.09-.21-.34-.5-.62-.86-.83-.37-.21-.8-.31-1.3-.31-.43-.02-.83.05-1.19.2-.36.15-.64.37-.85.66-.21.29-.31.65-.31,1.09s.1.77.31,1.05c.21.28.5.53.86.74.37.21.8.4,1.3.58s1.04.35,1.62.54c.87.3,1.67.65,2.4,1.06s1.32.94,1.75,1.59c.43.65.65,1.51.65,2.58,0,.92-.24,1.77-.73,2.55-.48.78-1.18,1.42-2.09,1.9-.91.48-2.04.72-3.39.72Z"/>
    </g>
  </g>
  <g id="Layer_1-2" data-name="Layer_1">
    <g>
      <path class="cls-8" d="M1149.94,650.87c-5.31,0-9.62,4.3-9.62,9.61s4.3,9.62,9.62,9.62,9.61-4.3,9.61-9.62-4.3-9.61-9.61-9.61ZM1149.94,667.43c-3.84,0-6.95-3.11-6.95-6.95s3.11-6.95,6.95-6.95,6.95,3.11,6.95,6.95-3.11,6.95-6.95,6.95Z"/>
      <polygon class="cls-8" points="1151.22 655.69 1148.66 655.69 1148.66 661.76 1148.71 661.76 1151.22 661.76 1154.4 661.76 1154.4 659.19 1151.22 659.19 1151.22 655.69"/>
    </g>
  </g>
  <g class="cls-6">
    <g class="cls-6">
      <path class="cls-10" d="M1129.87,778.86c-1.27,0-2.4-.22-3.39-.65-.99-.43-1.77-1.07-2.35-1.9-.58-.83-.87-1.84-.89-3.03h3.58c.02.52.15.98.4,1.4.25.42.6.75,1.04.99.44.24.97.36,1.59.36.53,0,1-.09,1.39-.26.39-.18.7-.42.91-.74.22-.32.32-.69.32-1.12,0-.5-.12-.92-.36-1.25-.24-.33-.58-.62-1-.85s-.92-.45-1.47-.64c-.56-.19-1.15-.4-1.76-.61-1.38-.45-2.44-1.05-3.16-1.8-.73-.75-1.09-1.74-1.09-2.98,0-1.05.25-1.95.76-2.7.51-.75,1.21-1.33,2.11-1.73.9-.4,1.92-.6,3.08-.6s2.22.2,3.11.61,1.6,1,2.12,1.76.8,1.67.81,2.7h-3.6c-.02-.38-.13-.75-.34-1.09-.21-.34-.5-.62-.86-.83-.37-.21-.8-.31-1.3-.31-.43-.02-.83.05-1.19.2-.36.15-.64.37-.85.66-.21.29-.31.65-.31,1.09s.1.77.31,1.05c.21.28.5.53.86.74.37.21.8.4,1.3.58s1.04.35,1.62.54c.87.3,1.67.65,2.4,1.06s1.32.94,1.75,1.59c.43.65.65,1.51.65,2.58,0,.92-.24,1.77-.73,2.55-.48.78-1.18,1.42-2.09,1.9-.91.48-2.04.72-3.39.72Z"/>
    </g>
  </g>
  <g id="Layer_1-3" data-name="Layer_1">
    <g>
      <path class="cls-8" d="M1149.94,760.23c-5.31,0-9.62,4.3-9.62,9.61s4.3,9.62,9.62,9.62,9.61-4.3,9.61-9.62-4.3-9.61-9.61-9.61ZM1149.94,776.79c-3.84,0-6.95-3.11-6.95-6.95s3.11-6.95,6.95-6.95,6.95,3.11,6.95,6.95-3.11,6.95-6.95,6.95Z"/>
      <polygon class="cls-8" points="1151.22 765.05 1148.66 765.05 1148.66 771.13 1148.71 771.13 1151.22 771.13 1154.4 771.13 1154.4 768.56 1151.22 768.56 1151.22 765.05"/>
    </g>
  </g>
  <g>
    <path class="cls-12" d="M65.59,344.26h315.1c8,0,14.4,6.5,14.4,14.4v27.1H51.09v-27.1c0-8,6.5-14.4,14.4-14.4h.1Z"/>
    <path d="M380.59,346.56c6.7,0,12.1,5.4,12.1,12.1v123.6c0,6.7-5.4,12.1-12.1,12.1H65.59c-6.7,0-12.1-5.4-12.1-12.1v-123.6c0-6.7,5.4-12.1,12.1-12.1h315.1M380.59,344.26H65.59c-8,0-14.4,6.5-14.4,14.4v123.6c0,8,6.5,14.4,14.4,14.4h315.1c8,0,14.4-6.5,14.4-14.4v-123.6c0-8-6.5-14.4-14.4-14.4h-.1Z"/>
    <rect x="51.09" y="384.66" width="344" height="2.3"/>
    <path class="cls-2" d="M137.79,486.56c-.6,0-1.1-.5-1.1-1.1v-88c0-.6.5-1.1,1.1-1.1s1.1.5,1.1,1.1v88c0,.6-.5,1.1-1.1,1.1Z"/>
    <path class="cls-2" d="M385.29,443.56h-98.8c-.6,0-1.1-.5-1.1-1.1s.5-1.1,1.1-1.1h98.8c.6,0,1.1.5,1.1,1.1s-.5,1.1-1.1,1.1Z"/>
    <path class="cls-2" d="M244.89,443.56h-106.8c-.6,0-1.1-.5-1.1-1.1s.5-1.1,1.1-1.1h106.8c.6,0,1.1.5,1.1,1.1s-.5,1.1-1.1,1.1Z"/>
    <g class="cls-6">
      <g class="cls-6">
        <path class="cls-3" d="M261.39,449.46c-1.2,0-2.3-.3-3.2-.8-1-.6-1.7-1.3-2.2-2.3s-.8-2.1-.8-3.4.3-2.5.8-3.5,1.3-1.8,2.3-2.3,2-.8,3.2-.8,2.3.3,3.2.8c1,.6,1.7,1.3,2.2,2.3s.8,2.1.8,3.5-.3,2.5-.8,3.5-1.3,1.8-2.3,2.3c-1,.6-2,.8-3.2.8v-.1ZM261.39,446.86c.6,0,1.1-.1,1.6-.4.5-.3.9-.8,1.2-1.4.3-.6.5-1.3.5-2.2s-.1-1.6-.4-2.2c-.3-.6-.7-1-1.2-1.3s-1-.5-1.6-.5-1.1.1-1.6.5c-.5.3-.9.7-1.2,1.3-.3.6-.5,1.3-.5,2.2s.2,1.6.5,2.2c.3.6.7,1,1.2,1.4.5.3,1,.4,1.6.4h-.1Z"/>
        <path class="cls-3" d="M270.69,449.16v-12.6h2.7l.3,2.3c.3-.5.7-1,1.1-1.4s1-.7,1.6-.9,1.3-.3,2-.3v3.2h-1.1c-.5,0-1,0-1.4.2s-.8.3-1.2.6c-.3.3-.6.7-.8,1.1-.2.5-.3,1.1-.3,1.8v6h-3,.1Z"/>
      </g>
    </g>
  </g>
  <g class="cls-6">
    <g class="cls-6">
      <path d="M70.91,373.16v-17.5h5.93c1.38,0,2.52.23,3.4.7s1.54,1.09,1.96,1.86c.43.78.64,1.65.64,2.64s-.21,1.8-.64,2.59c-.42.79-1.09,1.43-1.99,1.9-.9.47-2.05.71-3.45.71h-3.35v7.1h-2.5ZM73.41,364.16h3.25c1.23,0,2.14-.3,2.72-.91.58-.61.88-1.39.88-2.34s-.28-1.73-.85-2.3-1.48-.85-2.75-.85h-3.25v6.4ZM80.11,373.16l-3.77-7.78h2.75l3.92,7.78h-2.9Z"/>
      <path d="M90.94,373.46c-1.18,0-2.25-.27-3.19-.83-.94-.55-1.68-1.32-2.22-2.31-.54-.99-.81-2.14-.81-3.44s.27-2.5.82-3.49c.55-.99,1.3-1.76,2.25-2.31.95-.55,2.02-.83,3.2-.83s2.27.28,3.2.83,1.67,1.32,2.21,2.3c.54.98.81,2.14.81,3.48s-.27,2.49-.81,3.47c-.54.98-1.29,1.75-2.24,2.3-.95.55-2.03.83-3.22.83ZM90.94,371.31c.68,0,1.3-.17,1.86-.5.56-.33,1.01-.83,1.35-1.49.34-.66.51-1.48.51-2.46s-.17-1.8-.5-2.46c-.33-.66-.78-1.15-1.34-1.49-.56-.33-1.17-.5-1.84-.5s-1.28.17-1.85.5c-.57.33-1.02.83-1.36,1.49-.34.66-.51,1.48-.51,2.46s.17,1.8.51,2.46c.34.66.79,1.15,1.35,1.49.56.33,1.16.5,1.81.5Z"/>
      <path d="M104.79,373.46c-.98,0-1.84-.2-2.56-.6-.72-.4-1.28-1-1.68-1.8-.39-.8-.59-1.81-.59-3.03v-7.47h2.5v7.2c0,1.18.26,2.08.77,2.68.52.6,1.26.9,2.23.9.65,0,1.24-.16,1.76-.47s.94-.78,1.24-1.38c.3-.6.45-1.33.45-2.2v-6.72h2.5v12.6h-2.22l-.18-2.15c-.38.77-.94,1.37-1.67,1.8-.73.43-1.58.65-2.55.65Z"/>
      <path d="M114.84,373.16v-12.6h2.25l.15,2.15c.4-.75.97-1.35,1.7-1.79s1.58-.66,2.53-.66c1,0,1.86.2,2.58.6.72.4,1.27,1,1.67,1.81.4.81.6,1.82.6,3.04v7.45h-2.5v-7.2c0-1.17-.26-2.05-.77-2.65-.52-.6-1.27-.9-2.25-.9-.65,0-1.23.15-1.75.46-.52.31-.93.76-1.24,1.36-.31.6-.46,1.33-.46,2.2v6.72h-2.5Z"/>
      <path d="M135.11,373.46c-1.2,0-2.26-.29-3.17-.86s-1.63-1.36-2.14-2.35c-.51-.99-.76-2.12-.76-3.39s.25-2.42.76-3.4,1.22-1.76,2.15-2.34c.92-.58,1.99-.86,3.19-.86.98,0,1.85.2,2.6.59s1.33.95,1.75,1.66v-7.35h2.5v18h-2.22l-.28-1.95c-.25.38-.57.75-.97,1.09s-.88.62-1.45.84c-.57.22-1.22.33-1.95.33ZM135.51,371.29c.78,0,1.47-.18,2.07-.55.6-.37,1.06-.88,1.39-1.55.32-.67.49-1.44.49-2.33s-.16-1.65-.49-2.31c-.33-.66-.79-1.17-1.39-1.55-.6-.38-1.29-.56-2.07-.56s-1.43.19-2.03.56-1.07.89-1.4,1.55c-.33.66-.5,1.43-.5,2.31s.17,1.66.5,2.33c.33.67.8,1.18,1.4,1.55s1.28.55,2.03.55Z"/>
    </g>
  </g>
  <g class="cls-6">
    <g class="cls-6">
      <path d="M166.36,422.69c-.93-.95-1.77-2.04-2.5-3.26-.73-1.22-1.3-2.57-1.71-4.04-.41-1.47-.61-3.02-.61-4.65s.2-3.2.61-4.66c.41-1.46.98-2.8,1.71-4.04.73-1.23,1.57-2.32,2.5-3.25h3.35v.33c-1,1.05-1.86,2.2-2.59,3.45s-1.29,2.56-1.69,3.94-.6,2.79-.6,4.24.2,2.86.6,4.24.97,2.68,1.7,3.93c.73,1.24,1.59,2.4,2.58,3.46v.33h-3.35Z"/>
    </g>
    <g class="cls-6">
      <path class="cls-1" d="M176.04,419.06l6.4-17.5h3.83l6.38,17.5h-3.58l-4.72-13.65-4.75,13.65h-3.55ZM178.86,415.09l.9-2.62h8.9l.88,2.62h-10.67Z"/>
    </g>
    <g class="cls-6">
      <path d="M199.31,413.24v-2.83h12.2v2.83h-12.2ZM203.99,417.54v-11.4h2.88v11.4h-2.88Z"/>
    </g>
    <g class="cls-6">
      <path class="cls-1" d="M219.41,419.06v-17.5h7.17c1.22,0,2.24.19,3.08.58.83.38,1.46.91,1.89,1.59.43.68.64,1.46.64,2.34s-.19,1.62-.58,2.22c-.38.6-.89,1.06-1.51,1.39s-1.31.51-2.06.56l.4-.27c.8.03,1.51.25,2.14.64.62.39,1.12.91,1.47,1.56.36.65.54,1.36.54,2.12,0,.93-.23,1.76-.67,2.48-.45.72-1.1,1.28-1.95,1.69-.85.41-1.89.61-3.12.61h-7.42ZM222.79,408.86h3.25c.88,0,1.55-.2,2.01-.6.46-.4.69-.97.69-1.7s-.23-1.28-.69-1.69c-.46-.41-1.14-.61-2.04-.61h-3.22v4.6ZM222.79,416.31h3.5c.92,0,1.62-.21,2.12-.62.5-.42.75-1.02.75-1.8s-.26-1.4-.78-1.84c-.52-.44-1.23-.66-2.15-.66h-3.45v4.92Z"/>
    </g>
    <g class="cls-6">
      <path d="M239.81,413.24v-2.83h12.2v2.83h-12.2ZM244.49,417.54v-11.4h2.88v11.4h-2.88Z"/>
    </g>
    <g class="cls-6">
      <path class="cls-1" d="M267.66,419.36c-1.75,0-3.25-.38-4.51-1.14-1.26-.76-2.23-1.82-2.9-3.17s-1.01-2.93-1.01-4.71.34-3.36,1.01-4.73c.67-1.37,1.64-2.43,2.9-3.2,1.26-.77,2.76-1.15,4.51-1.15,2.12,0,3.85.52,5.2,1.58,1.35,1.05,2.19,2.53,2.53,4.45h-3.67c-.22-.93-.67-1.66-1.36-2.19-.69-.52-1.6-.79-2.71-.79-1.03,0-1.92.25-2.66.74-.74.49-1.31,1.18-1.71,2.08s-.6,1.96-.6,3.21.2,2.3.6,3.2c.4.9.97,1.59,1.71,2.08.74.48,1.63.73,2.66.73,1.12,0,2.02-.25,2.7-.74.68-.49,1.13-1.18,1.35-2.06h3.7c-.33,1.82-1.17,3.24-2.53,4.28-1.35,1.03-3.08,1.55-5.2,1.55Z"/>
    </g>
    <g class="cls-6">
      <path d="M282.71,413.24v-2.83h12.2v2.83h-12.2ZM287.39,417.54v-11.4h2.88v11.4h-2.88Z"/>
    </g>
    <g class="cls-6">
      <path class="cls-1" d="M302.81,419.06v-17.5h5.85c2.03,0,3.71.36,5.04,1.09,1.33.72,2.31,1.74,2.95,3.05s.96,2.85.96,4.61-.32,3.3-.96,4.61c-.64,1.31-1.62,2.33-2.94,3.05-1.32.73-3,1.09-5.05,1.09h-5.85ZM306.19,416.16h2.3c1.43,0,2.56-.23,3.39-.7s1.41-1.14,1.76-2.01.53-1.92.53-3.14-.18-2.29-.53-3.16-.94-1.55-1.76-2.01-1.95-.7-3.39-.7h-2.3v11.72Z"/>
    </g>
    <g class="cls-6">
      <path d="M324.81,413.24v-2.83h12.2v2.83h-12.2ZM329.49,417.54v-11.4h2.88v11.4h-2.88Z"/>
    </g>
    <g class="cls-6">
      <path class="cls-10" d="M350.94,419.36c-1.27,0-2.4-.22-3.39-.65-.99-.43-1.77-1.07-2.35-1.9-.58-.83-.87-1.84-.89-3.03h3.58c.02.52.15.98.4,1.4.25.42.6.75,1.04.99.44.24.97.36,1.59.36.53,0,1-.09,1.39-.26.39-.18.7-.42.91-.74.22-.32.33-.69.33-1.12,0-.5-.12-.92-.36-1.25-.24-.33-.57-.62-1-.85-.42-.23-.92-.45-1.47-.64-.56-.19-1.15-.4-1.76-.61-1.38-.45-2.44-1.05-3.16-1.8-.73-.75-1.09-1.74-1.09-2.98,0-1.05.25-1.95.76-2.7.51-.75,1.21-1.33,2.11-1.73.9-.4,1.92-.6,3.08-.6s2.22.2,3.11.61,1.6,1,2.12,1.76c.53.77.8,1.67.81,2.7h-3.6c-.02-.38-.13-.75-.34-1.09s-.5-.62-.86-.83c-.37-.21-.8-.31-1.3-.31-.43-.02-.83.05-1.19.2s-.64.37-.85.66c-.21.29-.31.65-.31,1.09s.1.77.31,1.05c.21.28.5.53.86.74.37.21.8.4,1.3.58s1.04.35,1.62.54c.87.3,1.67.65,2.4,1.06s1.32.94,1.75,1.59c.43.65.65,1.51.65,2.58,0,.92-.24,1.77-.72,2.55-.48.78-1.18,1.42-2.09,1.9s-2.04.72-3.39.72Z"/>
    </g>
    <g class="cls-6">
      <path d="M367.44,422.69h-3.38v-.33c1-1.07,1.87-2.22,2.6-3.46.73-1.24,1.3-2.55,1.69-3.93.39-1.38.59-2.79.59-4.24s-.2-2.86-.59-4.24c-.39-1.38-.95-2.69-1.69-3.94-.73-1.25-1.6-2.4-2.6-3.45v-.33h3.38c.93.93,1.76,2.02,2.49,3.25.72,1.23,1.29,2.58,1.71,4.04s.62,3.01.62,4.66-.21,3.18-.62,4.65-.99,2.81-1.71,4.04c-.73,1.23-1.55,2.31-2.49,3.26Z"/>
    </g>
  </g>
  <g class="cls-6">
    <g class="cls-6">
      <path d="M79.27,439.46v-24.89l-5.17,1.31v-3.18l6.74-2.92h2.76v29.68h-4.32Z"/>
      <path d="M101.36,439.97c-2.63,0-4.89-.64-6.79-1.93-1.89-1.29-3.35-3.08-4.37-5.39-1.02-2.3-1.53-4.98-1.53-8.03s.51-5.73,1.53-8.04c1.02-2.3,2.47-4.1,4.37-5.38,1.89-1.29,4.16-1.93,6.79-1.93s4.88.64,6.76,1.93c1.88,1.29,3.32,3.08,4.33,5.38,1,2.3,1.5,4.98,1.5,8.04s-.5,5.73-1.5,8.03c-1,2.3-2.45,4.1-4.33,5.39-1.88,1.29-4.13,1.93-6.76,1.93ZM101.36,436.2c1.58,0,3-.47,4.26-1.4,1.26-.93,2.24-2.26,2.95-3.99.71-1.72,1.06-3.79,1.06-6.19s-.35-4.47-1.06-6.19c-.71-1.72-1.69-3.05-2.95-3.96-1.26-.92-2.68-1.38-4.26-1.38s-3.05.46-4.33,1.38c-1.27.92-2.26,2.24-2.97,3.96-.71,1.72-1.06,3.79-1.06,6.19s.35,4.47,1.06,6.19c.71,1.72,1.7,3.05,2.97,3.99s2.71,1.4,4.33,1.4Z"/>
    </g>
    <g class="cls-6">
      <path d="M72.31,469.46v-17.5h6.47c1.22,0,2.23.2,3.05.59.82.39,1.43.92,1.84,1.6s.61,1.44.61,2.29-.19,1.62-.57,2.23c-.38.6-.89,1.06-1.51,1.39-.62.32-1.3.51-2.01.56l.35-.25c.77.02,1.47.22,2.1.61.63.39,1.13.91,1.5,1.56.37.65.55,1.37.55,2.15,0,.9-.22,1.71-.65,2.44-.43.73-1.07,1.3-1.92,1.71-.85.42-1.89.62-3.12.62h-6.67ZM74.81,459.51h3.7c1.05,0,1.85-.25,2.4-.74.55-.49.83-1.17.83-2.04s-.27-1.5-.83-1.99c-.55-.49-1.38-.74-2.47-.74h-3.62v5.5ZM74.81,467.39h3.85c1.1,0,1.95-.25,2.56-.76.61-.51.91-1.23.91-2.16s-.31-1.65-.94-2.2-1.49-.83-2.59-.83h-3.8v5.95Z"/>
      <path d="M91.39,469.46v-15.45h-5.17v-2.05h12.88v2.05h-5.2v15.45h-2.5Z"/>
      <path d="M108.49,469.76c-1.72,0-3.2-.38-4.44-1.14-1.24-.76-2.2-1.82-2.88-3.17s-1.01-2.94-1.01-4.74.34-3.36,1.01-4.72c.67-1.37,1.63-2.43,2.88-3.19,1.24-.76,2.72-1.14,4.44-1.14,2.05,0,3.71.49,4.99,1.47,1.28.98,2.09,2.37,2.44,4.15h-2.75c-.25-1.03-.76-1.86-1.54-2.48-.78-.62-1.82-.92-3.14-.92-1.18,0-2.21.28-3.08.83-.87.55-1.53,1.33-2,2.35-.47,1.02-.7,2.23-.7,3.65s.23,2.64.7,3.66c.47,1.03,1.13,1.81,2,2.35.87.54,1.89.81,3.08.81,1.32,0,2.36-.3,3.14-.89s1.29-1.4,1.54-2.41h2.75c-.35,1.73-1.16,3.09-2.44,4.06-1.27.97-2.94,1.46-4.99,1.46Z"/>
    </g>
  </g>
  <g class="cls-6">
    <g class="cls-6">
      <path class="cls-10" d="M255.3,481.86c-1.27,0-2.4-.22-3.39-.65-.99-.43-1.77-1.07-2.35-1.9-.58-.83-.87-1.84-.89-3.03h3.58c.02.52.15.98.4,1.4.25.42.6.75,1.04.99.44.24.97.36,1.59.36.53,0,1-.09,1.39-.26.39-.18.7-.42.91-.74.22-.32.33-.69.33-1.12,0-.5-.12-.92-.36-1.25-.24-.33-.57-.62-1-.85-.42-.23-.92-.45-1.47-.64-.56-.19-1.15-.4-1.76-.61-1.38-.45-2.44-1.05-3.16-1.8-.73-.75-1.09-1.74-1.09-2.98,0-1.05.25-1.95.76-2.7.51-.75,1.21-1.33,2.11-1.73.9-.4,1.92-.6,3.08-.6s2.22.2,3.11.61,1.6,1,2.12,1.76c.53.77.8,1.67.81,2.7h-3.6c-.02-.38-.13-.75-.34-1.09s-.5-.62-.86-.83c-.37-.21-.8-.31-1.3-.31-.43-.02-.83.05-1.19.2s-.64.37-.85.66c-.21.29-.31.65-.31,1.09s.1.77.31,1.05c.21.28.5.53.86.74.37.21.8.4,1.3.58s1.04.35,1.62.54c.87.3,1.67.65,2.4,1.06s1.32.94,1.75,1.59c.43.65.65,1.51.65,2.58,0,.92-.24,1.77-.72,2.55-.48.78-1.18,1.42-2.09,1.9s-2.04.72-3.39.72Z"/>
    </g>
  </g>
  <g id="Layer_1-4" data-name="Layer_1">
    <g>
      <path class="cls-8" d="M275.37,463.24c-5.31,0-9.62,4.3-9.62,9.61s4.3,9.62,9.62,9.62,9.61-4.3,9.61-9.62-4.3-9.61-9.61-9.61ZM275.37,479.8c-3.84,0-6.95-3.11-6.95-6.95s3.11-6.95,6.95-6.95,6.95,3.11,6.95,6.95-3.11,6.95-6.95,6.95Z"/>
      <polygon class="cls-8" points="276.66 468.06 274.09 468.06 274.09 474.14 274.15 474.14 276.66 474.14 279.84 474.14 279.84 471.57 276.66 471.57 276.66 468.06"/>
    </g>
  </g>
  <path class="cls-13" d="M424.49,494.36v-71.87c0-5.6-4.5-10.1-10.1-10.1h-19.3v-1.2h19.3c6.2,0,11.3,5.1,11.3,11.3"/>
  <g>
    <path d="M1136.32,197.92h-69.24c-3.81,0-6.91-3.1-6.91-6.91v-38.01c0-3.81,3.1-6.91,6.91-6.91h69.24c3.81,0,6.91,3.1,6.91,6.91v38.01c0,3.81-3.1,6.91-6.91,6.91ZM1067.09,148.3c-2.59,0-4.7,2.11-4.7,4.7v38.01c0,2.59,2.11,4.7,4.7,4.7h69.24c2.59,0,4.7-2.11,4.7-4.7v-38.01c0-2.59-2.11-4.7-4.7-4.7h-69.24Z"/>
    <rect x="1061.28" y="171.13" width="80.85" height="2.2"/>
    <path class="cls-14" d="M1086.02,163.72l-5.28-9.04h0c-.22-.37-.6-.58-1.03-.58s-.81.22-1.03.58l-5.36,9.04c-.22.36-.22.82-.01,1.19.21.37.59.59,1.02.59h10.69c.43,0,.81-.22,1.02-.59.21-.37.2-.82-.01-1.18Z"/>
    <path class="cls-7" d="M1078.39,158.5l-2.62,4.74c-.12.23.08.47.31.39l4.46-1.6c.16-.04.23-.24.16-.39l-1.84-3.13c-.12-.2-.35-.2-.47,0"/>
    <path class="cls-14" d="M1079.66,179.53c-2.74,0-4.93,2.19-4.93,4.93s2.19,4.93,4.93,4.93,4.93-2.19,4.93-4.93-2.19-4.93-4.93-4.93ZM1079.66,187.41c-1.59,0-2.94-1.35-2.94-2.94s1.35-2.94,2.94-2.94,2.94,1.35,2.94,2.94-1.35,2.94-2.94,2.94Z"/>
    <rect x="1095.17" y="158.69" width="11.94" height="2.2"/>
    <rect x="1115.01" y="158.69" width="11.94" height="2.2"/>
    <rect x="1095.17" y="183.37" width="11.94" height="2.2"/>
    <rect x="1115.01" y="183.37" width="11.94" height="2.2"/>
    <path d="M1140.61,150.92l-7.04-14.51c-.78-1.61-2.44-2.65-4.23-2.65h-55.25c-1.79,0-3.45,1.04-4.23,2.65l-7.04,14.51-1.98-.96,7.04-14.51c1.15-2.36,3.59-3.89,6.21-3.89h55.25c2.63,0,5.07,1.53,6.21,3.89l7.04,14.51-1.98.96Z"/>
  </g>
  <g>
    <line class="cls-5" x1="1101.7" y1="288.33" x2="1101.7" y2="330.23"/>
    <path class="cls-14" d="M1094.5,319.98c.35-.22.81-.12,1.04.23l6.16,9.68,6.16-9.68c.22-.35.69-.45,1.04-.23.35.22.45.69.23,1.04l-6.8,10.67c-.14.22-.38.35-.63.35s-.5-.13-.63-.35l-6.8-10.67c-.08-.12-.12-.26-.12-.4,0-.25.12-.49.35-.63Z"/>
  </g>
  <line class="cls-5" x1="1101.7" y1="208.95" x2="1101.7" y2="238.24"/>
  <g>
    <line class="cls-4" x1="753.03" y1="166.5" x2="1042.47" y2="166.5"/>
    <path class="cls-11" d="M1032.22,173.69c-.22-.35-.12-.81.23-1.04l9.68-6.16-9.68-6.16c-.35-.22-.45-.69-.23-1.04.22-.35.69-.45,1.04-.23l10.67,6.8c.22.14.35.38.35.63s-.13.5-.35.63l-10.67,6.8c-.12.08-.26.12-.4.12-.25,0-.49-.12-.63-.35Z"/>
  </g>
  <path class="cls-4" d="M226.59,236.92v-58.42c0-6.6,5.4-12,12-12h264.75"/>
  <line class="cls-4" x1="226.59" y1="329.39" x2="226.59" y2="288"/>
  <g>
    <g class="cls-6">
      <g class="cls-6">
        <path d="M570.21,180.04l11.07-25.31h-14.92v-4.37h20.14v3.65l-10.98,26.03h-5.3Z"/>
        <path d="M589.54,180.04v-3.69c1.89-1.5,3.7-3,5.43-4.5,1.72-1.5,3.28-2.98,4.66-4.45,1.38-1.47,2.47-2.91,3.26-4.33.79-1.41,1.19-2.77,1.19-4.07,0-.85-.16-1.64-.47-2.38-.31-.73-.8-1.33-1.46-1.78s-1.55-.68-2.65-.68-1.99.24-2.73.72c-.75.48-1.31,1.12-1.67,1.93-.37.81-.55,1.72-.55,2.73h-4.92c.06-2.15.52-3.94,1.4-5.38.88-1.44,2.06-2.52,3.56-3.24,1.5-.72,3.18-1.08,5.05-1.08,2.01,0,3.72.37,5.13,1.1s2.5,1.77,3.26,3.09c.76,1.33,1.15,2.9,1.15,4.71,0,1.33-.25,2.64-.74,3.92-.5,1.29-1.18,2.53-2.06,3.73-.88,1.2-1.86,2.36-2.95,3.48-1.09,1.12-2.21,2.18-3.37,3.18-1.16,1-2.28,1.93-3.35,2.78h13.27v4.2h-20.44Z"/>
        <path d="M624.9,180.04v-30.53h5.09v12.47c.71-1.16,1.67-2.08,2.88-2.78,1.21-.69,2.59-1.04,4.11-1.04,1.75,0,3.24.36,4.45,1.08,1.21.72,2.14,1.78,2.78,3.18.64,1.4.95,3.14.95,5.24v12.38h-5.04v-11.91c0-1.84-.39-3.24-1.17-4.2-.78-.96-1.96-1.44-3.54-1.44-1.02,0-1.94.25-2.76.74-.82.5-1.47,1.2-1.95,2.12-.48.92-.72,2.04-.72,3.37v11.32h-5.09Z"/>
        <path d="M660.52,180.55c-2.04,0-3.87-.47-5.49-1.42-1.63-.95-2.9-2.26-3.82-3.94-.92-1.68-1.38-3.61-1.38-5.79s.47-4.19,1.4-5.87,2.21-3,3.84-3.94c1.62-.95,3.46-1.42,5.49-1.42s3.87.47,5.49,1.42c1.62.95,2.9,2.25,3.82,3.92.92,1.67,1.38,3.62,1.38,5.85s-.47,4.18-1.4,5.85c-.93,1.67-2.21,2.98-3.84,3.92-1.63.95-3.46,1.42-5.49,1.42ZM660.52,176.18c1.02,0,1.94-.25,2.78-.76s1.51-1.27,2.01-2.29.76-2.28.76-3.77-.25-2.75-.74-3.75c-.5-1-1.16-1.76-1.99-2.27-.83-.51-1.76-.76-2.78-.76s-1.91.25-2.76.76c-.85.51-1.53,1.27-2.04,2.27-.51,1-.76,2.25-.76,3.75s.25,2.76.76,3.77,1.18,1.78,2.01,2.29c.83.51,1.75.76,2.73.76Z"/>
        <path d="M684.13,180.55c-1.72,0-3.2-.35-4.43-1.04s-2.17-1.74-2.82-3.14c-.65-1.4-.97-3.13-.97-5.19v-12.51h5.09v12c0,1.84.39,3.23,1.17,4.18.78.95,1.96,1.42,3.54,1.42,1.02,0,1.93-.24,2.74-.72s1.44-1.18,1.91-2.1c.47-.92.7-2.04.7-3.37v-11.41h5.09v21.37h-4.49l-.38-3.56c-.65,1.24-1.59,2.23-2.82,2.97s-2.67,1.1-4.3,1.1Z"/>
        <path d="M701.81,180.04v-21.37h4.54l.47,3.99c.51-.93,1.14-1.73,1.91-2.4.76-.66,1.66-1.18,2.69-1.55s2.17-.55,3.41-.55v5.38h-1.78c-.85,0-1.65.11-2.42.32-.76.21-1.42.55-1.97,1.02-.55.47-.98,1.1-1.29,1.91-.31.81-.47,1.82-.47,3.03v10.22h-5.09Z"/>
        <path d="M727.17,180.55c-1.89,0-3.54-.3-4.94-.91-1.4-.61-2.5-1.46-3.31-2.54-.81-1.09-1.28-2.34-1.42-3.75h5.09c.14.59.4,1.14.76,1.63s.87.88,1.5,1.17c.64.28,1.39.42,2.27.42s1.54-.12,2.08-.36c.54-.24.93-.56,1.19-.95.25-.4.38-.82.38-1.27,0-.68-.18-1.2-.55-1.57-.37-.37-.9-.66-1.59-.87-.69-.21-1.52-.42-2.48-.62-1.02-.2-2-.45-2.95-.74s-1.79-.67-2.54-1.12-1.34-1.03-1.78-1.74c-.44-.71-.66-1.57-.66-2.59,0-1.24.33-2.36,1-3.35.66-.99,1.62-1.77,2.88-2.35s2.76-.87,4.52-.87c2.49,0,4.47.57,5.96,1.72,1.48,1.14,2.35,2.75,2.61,4.81h-4.83c-.14-.79-.54-1.41-1.19-1.84-.65-.44-1.51-.66-2.59-.66s-1.94.21-2.52.62-.87.95-.87,1.63c0,.45.18.85.53,1.19s.87.63,1.55.87,1.51.47,2.5.7c1.58.31,2.98.68,4.2,1.1,1.21.42,2.18,1.05,2.88,1.87.71.82,1.06,1.98,1.06,3.48.03,1.36-.32,2.56-1.04,3.6-.72,1.05-1.73,1.86-3.03,2.44-1.3.58-2.86.87-4.66.87Z"/>
      </g>
    </g>
    <g id="Layer_1-5" data-name="Layer_1">
      <g>
        <path class="cls-9" d="M536.01,148.69c-9.14,0-16.56,7.41-16.56,16.56s7.41,16.56,16.56,16.56,16.56-7.41,16.56-16.56-7.41-16.56-16.56-16.56ZM536.01,177.21c-6.61,0-11.97-5.36-11.97-11.97s5.36-11.97,11.97-11.97,11.97,5.36,11.97,11.97-5.36,11.97-11.97,11.97Z"/>
        <polygon class="cls-9" points="538.23 156.99 533.81 156.99 533.81 167.46 533.9 167.46 538.23 167.46 543.7 167.46 543.7 163.04 538.23 163.04 538.23 156.99"/>
      </g>
    </g>
  </g>
  <g class="cls-6">
    <g class="cls-6">
      <path class="cls-14" d="M1045.31,76.02v-15.4h2.97l7.08,10.63v-10.63h2.97v15.4h-2.97l-7.08-10.6v10.6h-2.97Z"/>
      <path class="cls-14" d="M1066.6,76.28c-1.12,0-2.1-.24-2.96-.71s-1.53-1.14-2-2c-.48-.86-.71-1.85-.71-2.98s.23-2.18.7-3.07,1.13-1.58,1.99-2.09c.86-.51,1.85-.76,2.98-.76s2.06.24,2.88.73c.82.48,1.46,1.14,1.91,1.96s.68,1.75.68,2.79v.5c0,.18-.02.37-.04.56h-9v-1.8h6.05c-.04-.72-.3-1.28-.76-1.69-.46-.41-1.04-.62-1.73-.62-.5,0-.96.11-1.39.34-.43.23-.76.58-1,1.04s-.36,1.06-.36,1.78v.64c0,.6.11,1.13.34,1.57.23.45.54.79.96,1.03.41.24.89.36,1.43.36s.99-.12,1.35-.35.63-.54.8-.9h3.04c-.21.69-.55,1.31-1.03,1.87-.48.56-1.08,1-1.78,1.32-.7.32-1.49.48-2.35.48Z"/>
      <path class="cls-14" d="M1076.26,76.02l-3.26-11.09h2.93l2.16,9-.55-.02,2.46-8.98h3.3l2.46,8.98-.57.02,2.18-9h2.93l-3.26,11.09h-3.08l-2.62-9.24h.62l-2.62,9.24h-3.08Z"/>
      <path class="cls-14" d="M1097.29,76.02v-11.09h2.64l.29,2.05c.26-.48.6-.89,1-1.23.4-.34.87-.6,1.39-.79.52-.19,1.1-.29,1.73-.29v3.15h-1.01c-.44,0-.85.05-1.22.15-.37.1-.7.27-.98.5s-.49.54-.64.93c-.15.4-.22.89-.22,1.5v5.13h-2.97Z"/>
      <path class="cls-14" d="M1111.35,76.28c-1.06,0-2.01-.25-2.85-.74-.84-.49-1.51-1.17-2-2.05-.49-.87-.74-1.87-.74-3s.25-2.17.74-3.05c.49-.87,1.16-1.55,2.01-2.05.85-.49,1.8-.74,2.86-.74s2.03.25,2.87.74c.84.49,1.51,1.17,2,2.05.49.87.74,1.88.74,3.03s-.25,2.15-.74,3.03c-.49.87-1.16,1.55-2.01,2.05s-1.81.74-2.88.74ZM1111.35,73.71c.5,0,.94-.12,1.33-.35.39-.23.7-.59.92-1.08.23-.48.34-1.08.34-1.8s-.11-1.32-.34-1.79-.54-.84-.92-1.08c-.39-.24-.83-.36-1.31-.36s-.9.12-1.3.36c-.4.24-.71.6-.94,1.08-.23.48-.34,1.07-.34,1.79s.11,1.32.34,1.8c.23.48.54.84.92,1.08.39.24.82.35,1.29.35Z"/>
      <path class="cls-14" d="M1123.67,76.28c-.89,0-1.66-.19-2.3-.56s-1.13-.92-1.46-1.65c-.34-.73-.51-1.62-.51-2.69v-6.45h2.97v6.14c0,.89.19,1.57.56,2.02.38.45.95.68,1.73.68.5,0,.94-.11,1.32-.34.38-.23.69-.56.91-.99.23-.43.34-.96.34-1.59v-5.92h2.95v11.09h-2.6l-.24-1.8c-.32.63-.8,1.13-1.43,1.51-.63.37-1.38.56-2.24.56Z"/>
      <path class="cls-14" d="M1133.09,76.02v-11.09h2.62l.22,1.8c.34-.62.82-1.11,1.44-1.5.62-.38,1.37-.57,2.23-.57.92,0,1.7.19,2.33.57.63.38,1.11.94,1.44,1.67.33.73.5,1.64.5,2.71v6.4h-2.95v-6.12c0-.88-.19-1.55-.56-2.02-.37-.47-.95-.7-1.73-.7-.5,0-.94.12-1.33.35-.39.24-.69.57-.91,1-.22.43-.33.96-.33,1.57v5.92h-2.97Z"/>
      <path class="cls-14" d="M1151.59,76.28c-1.01,0-1.92-.25-2.72-.75-.8-.5-1.43-1.19-1.88-2.07s-.68-1.87-.68-2.97.23-2.13.69-3c.46-.87,1.1-1.56,1.91-2.07.81-.51,1.73-.76,2.74-.76.79,0,1.49.15,2.09.44.6.29,1.09.71,1.45,1.25v-6.18h2.97v15.84h-2.64l-.33-1.52c-.22.31-.5.6-.83.88s-.72.5-1.18.66c-.45.16-.99.24-1.61.24ZM1152.29,73.69c.59,0,1.1-.14,1.55-.41.45-.27.79-.65,1.04-1.13.25-.48.37-1.04.37-1.67s-.12-1.19-.37-1.67c-.25-.48-.6-.86-1.04-1.13s-.96-.41-1.55-.41-1.06.14-1.52.41-.81.65-1.07,1.13c-.26.48-.38,1.03-.38,1.65,0,.65.13,1.21.38,1.69.26.48.61.86,1.06,1.13.45.27.96.41,1.53.41Z"/>
    </g>
  </g>
  <g class="cls-6">
    <g class="cls-6">
      <path class="cls-14" d="M1163.52,173.33l5.63-15.4h3.37l5.61,15.4h-3.15l-4.16-12.01-4.18,12.01h-3.12ZM1166,169.83l.79-2.31h7.83l.77,2.31h-9.39Z"/>
      <path class="cls-14" d="M1180.08,173.33v-11.09h2.64l.29,2.05c.26-.48.6-.89,1-1.23.4-.34.87-.6,1.39-.79.52-.19,1.1-.29,1.73-.29v3.15h-1.01c-.44,0-.85.05-1.22.15s-.7.27-.98.5c-.28.23-.49.54-.64.93-.15.4-.22.89-.22,1.5v5.13h-2.97Z"/>
      <path class="cls-14" d="M1189.08,173.33v-15.84h2.97v15.84h-2.97ZM1196.34,173.33l-4.73-6.07,4.25-5.02h3.5l-5.48,6.27v-2.35l6.16,7.17h-3.7Z"/>
      <path class="cls-14" d="M1211.5,173.59c-1.01,0-1.89-.16-2.64-.48-.75-.32-1.33-.77-1.76-1.34-.43-.57-.67-1.22-.73-1.94h2.95c.07.28.2.53.37.76.18.23.41.41.7.54.29.13.65.2,1.06.2s.72-.05.97-.17c.25-.11.44-.26.56-.45.12-.19.19-.39.19-.59,0-.31-.09-.55-.26-.71-.18-.17-.43-.3-.77-.41s-.75-.21-1.23-.31c-.53-.1-1.04-.23-1.55-.39-.51-.15-.96-.35-1.35-.58-.4-.23-.71-.54-.95-.9-.23-.37-.35-.82-.35-1.36,0-.66.18-1.25.53-1.77.35-.52.87-.93,1.54-1.24.67-.31,1.49-.46,2.44-.46,1.33,0,2.39.3,3.17.9.78.6,1.24,1.43,1.39,2.49h-2.79c-.09-.34-.28-.61-.58-.8-.3-.2-.7-.3-1.2-.3-.53,0-.93.1-1.21.29-.28.19-.42.44-.42.75,0,.21.09.39.28.55.18.16.44.3.78.41.34.11.75.22,1.23.32.85.18,1.6.38,2.24.6.65.23,1.15.55,1.52.97.37.42.55,1.02.55,1.81,0,.7-.19,1.33-.57,1.88-.38.55-.92.98-1.62,1.29-.7.31-1.52.46-2.47.46Z"/>
      <path class="cls-14" d="M1223.99,173.59c-1.11,0-2.1-.24-2.96-.71-.86-.48-1.53-1.14-2-2-.48-.86-.71-1.85-.71-2.98s.23-2.18.7-3.07,1.13-1.58,1.99-2.09c.86-.51,1.85-.76,2.98-.76s2.06.24,2.88.73c.82.48,1.46,1.14,1.91,1.96.46.82.68,1.75.68,2.79v.5c0,.18-.01.37-.04.56h-9v-1.8h6.05c-.04-.72-.3-1.28-.76-1.69-.46-.41-1.04-.62-1.73-.62-.5,0-.96.11-1.39.34s-.76.58-1,1.04-.36,1.06-.36,1.78v.64c0,.6.11,1.13.34,1.57.23.45.55.79.96,1.03.41.24.89.36,1.43.36s.99-.12,1.35-.35.63-.54.8-.9h3.04c-.21.69-.55,1.31-1.03,1.87-.48.56-1.08,1-1.78,1.32s-1.49.48-2.35.48Z"/>
      <path class="cls-14" d="M1231.91,173.33v-11.09h2.64l.29,2.05c.26-.48.6-.89,1-1.23.4-.34.87-.6,1.39-.79.52-.19,1.1-.29,1.73-.29v3.15h-1.01c-.44,0-.85.05-1.22.15s-.7.27-.98.5c-.28.23-.49.54-.64.93-.15.4-.22.89-.22,1.5v5.13h-2.97Z"/>
      <path class="cls-14" d="M1243.88,173.33l-4.07-11.09h3.12l2.75,8.29,2.75-8.29h3.1l-4.05,11.09h-3.61Z"/>
      <path class="cls-14" d="M1258.16,173.59c-1.12,0-2.1-.24-2.96-.71-.86-.48-1.53-1.14-2-2-.48-.86-.71-1.85-.71-2.98s.23-2.18.7-3.07c.47-.89,1.13-1.58,1.99-2.09.86-.51,1.85-.76,2.98-.76s2.06.24,2.88.73,1.46,1.14,1.91,1.96c.45.82.68,1.75.68,2.79v.5c0,.18-.01.37-.04.56h-9v-1.8h6.05c-.04-.72-.3-1.28-.76-1.69-.46-.41-1.04-.62-1.73-.62-.5,0-.96.11-1.39.34-.43.23-.76.58-1,1.04-.24.47-.36,1.06-.36,1.78v.64c0,.6.11,1.13.34,1.57s.55.79.96,1.03c.41.24.89.36,1.43.36s.99-.12,1.35-.35.63-.54.8-.9h3.04c-.21.69-.55,1.31-1.03,1.87-.48.56-1.08,1-1.78,1.32s-1.49.48-2.35.48Z"/>
      <path class="cls-14" d="M1266.08,173.33v-11.09h2.64l.29,2.05c.26-.48.6-.89,1-1.23.4-.34.87-.6,1.39-.79.52-.19,1.1-.29,1.73-.29v3.15h-1.01c-.44,0-.85.05-1.22.15s-.7.27-.98.5c-.28.23-.49.54-.64.93-.15.4-.22.89-.22,1.5v5.13h-2.97Z"/>
    </g>
  </g>
  <path class="cls-3" d="M927.5,68.11c0-.6.5-1.1,1.1-1.1h105.05c.6,0,1.1.5,1.1,1.1s-.5,1.1-1.1,1.1h-105.05c-.6,0-1.1-.5-1.1-1.1Z"/>
  <path class="cls-3" d="M1168.73,68.11c0-.6.5-1.1,1.1-1.1h96.99c.6,0,1.1.5,1.1,1.1s-.5,1.1-1.1,1.1h-96.99c-.6,0-1.1-.5-1.1-1.1Z"/>
  <g class="cls-6">
    <g class="cls-6">
      <path class="cls-14" d="M182.79,76.28c-1.5,0-2.82-.34-3.96-1.01-1.14-.67-2.04-1.61-2.68-2.8s-.97-2.58-.97-4.15.32-2.95.97-4.15,1.54-2.13,2.68-2.81c1.14-.67,2.46-1.01,3.96-1.01s2.84.34,3.98,1.01c1.14.67,2.04,1.61,2.67,2.81.64,1.2.96,2.58.96,4.15s-.32,2.95-.96,4.15c-.64,1.2-1.53,2.13-2.67,2.8-1.14.67-2.47,1.01-3.98,1.01ZM182.79,73.62c.94,0,1.75-.22,2.43-.65s1.21-1.04,1.59-1.84c.38-.79.57-1.73.57-2.82s-.19-2.04-.57-2.83c-.38-.78-.91-1.39-1.59-1.81s-1.49-.64-2.43-.64-1.73.21-2.42.64c-.69.43-1.23,1.03-1.61,1.81-.38.79-.57,1.73-.57,2.83s.19,2.02.57,2.82c.38.79.92,1.4,1.61,1.84.69.43,1.5.65,2.42.65Z"/>
      <path class="cls-14" d="M192.86,76.02v-15.84h2.97v15.84h-2.97Z"/>
      <path class="cls-14" d="M203.67,76.28c-1.01,0-1.92-.25-2.72-.75-.8-.5-1.43-1.19-1.88-2.07-.46-.88-.68-1.87-.68-2.97s.23-2.13.69-3c.46-.87,1.1-1.56,1.91-2.07.81-.51,1.73-.76,2.74-.76.79,0,1.49.15,2.09.44.6.29,1.08.71,1.45,1.25v-6.18h2.97v15.84h-2.64l-.33-1.52c-.22.31-.49.6-.82.88s-.72.5-1.18.66c-.45.16-.99.24-1.61.24ZM204.37,73.69c.59,0,1.1-.14,1.55-.41.45-.27.8-.65,1.04-1.13s.37-1.04.37-1.67-.12-1.19-.37-1.67c-.25-.48-.6-.86-1.04-1.13s-.96-.41-1.55-.41-1.06.14-1.52.41c-.45.27-.81.65-1.07,1.13-.26.48-.39,1.03-.39,1.65,0,.65.13,1.21.39,1.69.26.48.61.86,1.06,1.13.45.27.96.41,1.53.41Z"/>
      <path class="cls-14" d="M218.32,76.02v-11.09h2.64l.29,2.05c.26-.48.6-.89,1-1.23.4-.34.87-.6,1.39-.79.52-.19,1.1-.29,1.73-.29v3.15h-1.01c-.44,0-.85.05-1.22.15s-.7.27-.98.5c-.28.23-.49.54-.64.93-.15.4-.22.89-.22,1.5v5.13h-2.97Z"/>
      <path class="cls-14" d="M232.38,76.28c-1.06,0-2.01-.25-2.85-.74-.84-.49-1.51-1.17-2-2.05-.49-.87-.74-1.87-.74-3s.25-2.17.74-3.05c.49-.87,1.16-1.55,2.01-2.05.85-.49,1.8-.74,2.86-.74s2.03.25,2.87.74c.84.49,1.51,1.17,2,2.05.49.87.74,1.88.74,3.03s-.25,2.15-.74,3.03c-.49.87-1.16,1.55-2.01,2.05s-1.81.74-2.88.74ZM232.38,73.71c.5,0,.94-.12,1.33-.35.39-.23.7-.59.92-1.08.23-.48.34-1.08.34-1.8s-.11-1.32-.34-1.79-.54-.84-.92-1.08-.83-.36-1.31-.36-.9.12-1.3.36c-.4.24-.71.6-.94,1.08s-.34,1.07-.34,1.79.11,1.32.34,1.8c.23.48.54.84.92,1.08.39.24.82.35,1.29.35Z"/>
      <path class="cls-14" d="M244.7,76.28c-.89,0-1.66-.19-2.3-.56-.64-.37-1.13-.92-1.46-1.65-.34-.73-.51-1.62-.51-2.69v-6.45h2.97v6.14c0,.89.19,1.57.56,2.02.37.45.95.68,1.73.68.5,0,.94-.11,1.32-.34.38-.23.69-.56.91-.99s.34-.96.34-1.59v-5.92h2.95v11.09h-2.6l-.24-1.8c-.32.63-.8,1.13-1.43,1.51-.63.37-1.38.56-2.24.56Z"/>
      <path class="cls-14" d="M254.11,76.02v-11.09h2.62l.22,1.8c.34-.62.82-1.11,1.44-1.5.62-.38,1.37-.57,2.23-.57.92,0,1.7.19,2.33.57.63.38,1.11.94,1.44,1.67.33.73.5,1.64.5,2.71v6.4h-2.95v-6.12c0-.88-.19-1.55-.56-2.02-.37-.47-.95-.7-1.73-.7-.5,0-.94.12-1.33.35-.39.24-.69.57-.91,1s-.33.96-.33,1.57v5.92h-2.97Z"/>
      <path class="cls-14" d="M272.61,76.28c-1.01,0-1.92-.25-2.72-.75-.8-.5-1.43-1.19-1.88-2.07-.46-.88-.68-1.87-.68-2.97s.23-2.13.69-3c.46-.87,1.1-1.56,1.91-2.07.81-.51,1.73-.76,2.74-.76.79,0,1.49.15,2.09.44.6.29,1.08.71,1.45,1.25v-6.18h2.97v15.84h-2.64l-.33-1.52c-.22.31-.5.6-.83.88s-.72.5-1.18.66c-.46.16-.99.24-1.61.24ZM273.32,73.69c.59,0,1.1-.14,1.55-.41.45-.27.8-.65,1.05-1.13.25-.48.37-1.04.37-1.67s-.12-1.19-.37-1.67c-.25-.48-.6-.86-1.05-1.13s-.96-.41-1.55-.41-1.06.14-1.52.41c-.46.27-.81.65-1.07,1.13-.26.48-.38,1.03-.38,1.65,0,.65.13,1.21.38,1.69s.61.86,1.06,1.13c.45.27.96.41,1.53.41Z"/>
    </g>
  </g>
  <path class="cls-3" d="M53.2,68.11c0-.6.5-1.1,1.1-1.1h105.05c.6,0,1.1.5,1.1,1.1s-.5,1.1-1.1,1.1H54.3c-.6,0-1.1-.5-1.1-1.1Z"/>
  <path class="cls-3" d="M294.43,68.11c0-.6.5-1.1,1.1-1.1h96.99c.6,0,1.1.5,1.1,1.1s-.5,1.1-1.1,1.1h-96.99c-.6,0-1.1-.5-1.1-1.1Z"/>
  <path class="cls-13" d="M1299.08,721.41c0-5.6-4.5-10.1-10.1-10.1h-19.3v-1.2h19.3c6.2,0,11.3,5.1,11.3,11.3v79.7"/>
  <path class="cls-13" d="M1329.08,710.11v-92.9c0-7.8-6.4-14.2-14.2-14.2h-45.2v-1.2h45.2c8.5,0,15.4,6.9,15.4,15.4"/>
</svg>