<?xml version="1.0" encoding="UTF-8"?>
<svg id="board-spend-vtxo-outlines" xmlns="http://www.w3.org/2000/svg" viewBox="0 0 1340.65 1015.09">
  <defs>
    <style>
      .cls-1, .cls-2 {
        fill: #fa1336;
      }

      .cls-3, .cls-4 {
        fill: #3d8afb;
      }

      .cls-3, .cls-5, .cls-6, .cls-2 {
        fill-rule: evenodd;
      }

      .cls-7, .cls-8, .cls-9, .cls-10, .cls-11 {
        fill: none;
        stroke-linejoin: round;
        stroke-width: 4px;
      }

      .cls-7, .cls-8, .cls-9, .cls-11 {
        stroke-linecap: round;
      }

      .cls-7, .cls-9 {
        stroke: #00090c;
      }

      .cls-12 {
        fill: #cfd1d1;
      }

      .cls-13 {
        isolation: isolate;
      }

      .cls-8 {
        stroke: #cfd1d1;
      }

      .cls-8, .cls-9 {
        stroke-dasharray: 12;
      }

      .cls-10 {
        stroke: #000;
      }

      .cls-5 {
        fill: #43b929;
      }

      .cls-14 {
        fill: #43b929;
      }

      .cls-6, .cls-15 {
        fill: #00090c;
      }

      .cls-11 {
        stroke: #e5e6e6;
      }

      .cls-16 {
        fill: #f2f2f2;
      }
    </style>
  </defs>
  <path class="cls-8" d="M487.17,72.54h717.96c30.4,0,55,24.6,55,55v702c0,30.4-24.6,55-55,55h.1-507.9c-30.4,0-55-24.6-55-55v-232.5c0-30.4-24.6-55-55-55H135.43c-30.4,0-55-24.6-55-55V127.54c0-30.4,24.6-55,55-55h43.58"/>
  <path class="cls-16" d="M793.23,202.04h315.3c13.8,0,25,11.2,25,25v29.7h-365.3v-29.7c0-13.8,11.2-25,25-25h0Z"/>
  <path d="M1108.53,206.04c11.6,0,21,9.4,21,21v162.3c0,11.6-9.4,21-21,21h-315.3c-11.6,0-21-9.4-21-21v-162.3c0-11.6,9.4-21,21-21h315.3M1108.53,202.04h-315.3c-13.8,0-25,11.2-25,25v162.3c0,13.8,11.2,25,25,25h315.3c13.8,0,25-11.2,25-25v-162.3c0-13.8-11.2-25-25-25h0Z"/>
  <line class="cls-10" x1="768.23" y1="256.74" x2="1133.53" y2="256.74"/>
  <line class="cls-11" x1="950.83" y1="278.54" x2="950.83" y2="396.44"/>
  <line class="cls-11" x1="1112.83" y1="337.54" x2="1048.33" y2="337.54"/>
  <line class="cls-11" x1="1015.83" y1="337.54" x2="951.33" y2="337.54"/>
  <g class="cls-13">
    <path d="M801.14,239.54v-17.36h10.96v2.03h-8.48v5.55h7.74v1.98h-7.74v5.75h8.48v2.03h-10.96Z"/>
    <path d="M813.99,239.54l4.32-6.25-4.32-6.25h2.68l3.27,4.86,3.3-4.86h2.65l-4.31,6.25,4.31,6.25h-2.65l-3.3-4.89-3.27,4.89h-2.68Z"/>
    <path d="M829.51,224.69c-.48,0-.87-.15-1.18-.45-.31-.3-.46-.68-.46-1.14s.15-.81.46-1.1c.31-.29.7-.43,1.18-.43s.85.15,1.17.43.47.66.47,1.1-.16.84-.47,1.14-.7.45-1.17.45ZM828.25,239.54v-12.5h2.48v12.5h-2.48Z"/>
    <path d="M839.41,239.54c-.78,0-1.46-.12-2.03-.37s-1.03-.66-1.34-1.24c-.31-.58-.47-1.36-.47-2.36v-6.42h-2.16v-2.11h2.16l.3-3.12h2.18v3.12h3.55v2.11h-3.55v6.45c0,.71.15,1.19.45,1.45.3.26.81.38,1.54.38h1.44v2.11h-2.06Z"/>
  </g>
  <g class="cls-13">
    <path class="cls-12" d="M1027.32,344.24c-1.19,0-2.26-.28-3.21-.83s-1.69-1.32-2.23-2.31c-.54-.98-.81-2.11-.81-3.38s.27-2.45.82-3.43c.55-.98,1.29-1.75,2.24-2.31.95-.55,2.02-.83,3.21-.83s2.26.28,3.21.83,1.69,1.32,2.23,2.29c.54.98.81,2.12.81,3.42s-.27,2.45-.82,3.42-1.29,1.74-2.25,2.29c-.95.55-2.02.83-3.21.83ZM1027.32,341.69c.6,0,1.14-.15,1.62-.45s.88-.74,1.18-1.34c.3-.6.45-1.33.45-2.21s-.14-1.61-.43-2.19-.68-1.03-1.17-1.33c-.49-.3-1.03-.45-1.62-.45s-1.12.15-1.61.45c-.5.3-.89.74-1.19,1.33-.3.59-.45,1.32-.45,2.19s.15,1.61.45,2.21c.3.59.69,1.04,1.18,1.34.49.3,1.02.45,1.6.45Z"/>
    <path class="cls-12" d="M1036.5,343.94v-12.5h2.65l.27,2.33c.3-.55.67-1.01,1.12-1.4.45-.39.97-.69,1.57-.91s1.27-.32,2-.32v3.15h-1.04c-.5,0-.97.06-1.41.19-.45.12-.83.32-1.15.59-.32.27-.58.64-.76,1.12-.18.47-.27,1.06-.27,1.77v5.98h-2.98Z"/>
  </g>
  <g class="cls-13">
    <path d="M995.64,306.64c-.93-.94-1.75-2.02-2.48-3.24-.73-1.21-1.29-2.55-1.7-4-.4-1.46-.61-2.99-.61-4.61s.2-3.18.61-4.62c.41-1.45.97-2.78,1.7-4,.73-1.22,1.55-2.3,2.48-3.22h3.32v.32c-.99,1.04-1.85,2.18-2.57,3.42s-1.28,2.54-1.67,3.91-.6,2.76-.6,4.2.2,2.84.6,4.2.96,2.66,1.69,3.89c.73,1.23,1.58,2.38,2.55,3.43v.32h-3.32Z"/>
  </g>
  <g class="cls-13">
    <path class="cls-1" d="M1005.47,303.04l6.35-17.36h3.79l6.32,17.36h-3.55l-4.69-13.54-4.71,13.54h-3.52ZM1008.27,299.1l.89-2.6h8.83l.87,2.6h-10.59Z"/>
  </g>
  <g class="cls-13">
    <path d="M1029.12,297.26v-2.8h12.1v2.8h-12.1ZM1033.76,301.53v-11.31h2.85v11.31h-2.85Z"/>
  </g>
  <g class="cls-13">
    <path class="cls-14" d="M1054.89,303.34c-1.26,0-2.38-.21-3.36-.65-.98-.43-1.76-1.06-2.33-1.88-.57-.83-.86-1.83-.88-3h3.55c.02.51.15.98.4,1.39s.59.74,1.03.98c.44.24.96.36,1.58.36.53,0,.99-.09,1.38-.26.39-.17.69-.42.91-.73.21-.31.32-.69.32-1.12,0-.5-.12-.91-.36-1.24-.24-.33-.57-.61-.99-.84-.42-.23-.91-.44-1.46-.63-.55-.19-1.14-.39-1.75-.61-1.37-.45-2.42-1.04-3.14-1.79-.72-.74-1.08-1.73-1.08-2.95,0-1.04.25-1.93.76-2.68.5-.74,1.2-1.31,2.1-1.71s1.91-.59,3.05-.59,2.2.2,3.09.61c.88.41,1.59.99,2.11,1.75.52.76.79,1.65.81,2.68h-3.57c-.02-.38-.13-.74-.33-1.08-.21-.34-.49-.61-.86-.82-.36-.21-.79-.31-1.29-.31-.43-.02-.82.05-1.18.2-.36.15-.64.37-.84.66-.21.29-.31.65-.31,1.08s.1.76.31,1.04c.21.28.49.53.86.73.36.21.79.4,1.29.57.5.17,1.03.35,1.61.53.86.3,1.65.65,2.38,1.05.73.41,1.31.93,1.74,1.57.43.65.64,1.5.64,2.55,0,.91-.24,1.75-.72,2.53-.48.78-1.17,1.41-2.07,1.88-.9.48-2.02.72-3.36.72Z"/>
  </g>
  <g class="cls-13">
    <path d="M1071.32,306.64h-3.35v-.32c.99-1.06,1.85-2.2,2.58-3.43s1.29-2.53,1.67-3.89c.39-1.36.58-2.77.58-4.2s-.2-2.84-.58-4.2c-.39-1.36-.95-2.67-1.67-3.91s-1.59-2.38-2.58-3.42v-.32h3.35c.93.93,1.75,2,2.47,3.22s1.29,2.56,1.7,4c.41,1.45.62,2.99.62,4.62s-.21,3.16-.62,4.61c-.41,1.46-.98,2.79-1.7,4-.72,1.22-1.54,2.29-2.47,3.24Z"/>
  </g>
  <g class="cls-13">
    <path class="cls-1" d="M1012.08,389.74l6.35-17.36h3.79l6.32,17.36h-3.55l-4.69-13.54-4.71,13.54h-3.52ZM1014.88,385.8l.89-2.6h8.83l.87,2.6h-10.59Z"/>
  </g>
  <g class="cls-13">
    <path d="M804.35,351.24v-28.06l-5.83,1.48v-3.58l7.6-3.3h3.11v33.46h-4.88Z"/>
    <path d="M828.44,351.24v-33.46h12.38c2.33,0,4.27.38,5.83,1.12,1.56.75,2.73,1.77,3.51,3.06.78,1.29,1.17,2.75,1.17,4.37s-.37,3.11-1.1,4.25c-.73,1.15-1.7,2.03-2.89,2.65-1.2.62-2.48.98-3.85,1.08l.67-.48c1.47.03,2.8.42,4.02,1.17,1.21.75,2.17,1.75,2.87,2.99.7,1.24,1.05,2.61,1.05,4.11,0,1.72-.42,3.27-1.24,4.66-.83,1.39-2.06,2.48-3.68,3.27-1.62.8-3.62,1.2-5.97,1.2h-12.76ZM833.22,332.22h7.07c2.01,0,3.54-.47,4.59-1.41,1.05-.94,1.58-2.24,1.58-3.9s-.53-2.86-1.58-3.8c-1.05-.94-2.63-1.41-4.73-1.41h-6.93v10.52ZM833.22,347.28h7.36c2.1,0,3.74-.49,4.9-1.46,1.16-.97,1.75-2.35,1.75-4.13s-.6-3.16-1.79-4.21c-1.2-1.05-2.84-1.58-4.95-1.58h-7.27v11.38Z"/>
    <path d="M864.91,351.24v-29.54h-9.89v-3.92h24.62v3.92h-9.94v29.54h-4.78Z"/>
    <path d="M897.6,351.82c-3.28,0-6.11-.72-8.48-2.17-2.37-1.45-4.21-3.47-5.5-6.07-1.29-2.6-1.94-5.62-1.94-9.06s.64-6.42,1.94-9.03c1.29-2.61,3.12-4.64,5.5-6.09s5.2-2.17,8.48-2.17c3.92,0,7.1.94,9.54,2.82,2.44,1.88,3.99,4.53,4.66,7.94h-5.26c-.48-1.98-1.46-3.55-2.94-4.73-1.48-1.18-3.48-1.77-6-1.77-2.26,0-4.22.53-5.88,1.58-1.66,1.05-2.93,2.55-3.82,4.49-.89,1.94-1.34,4.27-1.34,6.98s.45,5.04,1.34,7,2.17,3.46,3.82,4.49c1.66,1.04,3.62,1.55,5.88,1.55,2.52,0,4.52-.57,6-1.7,1.48-1.13,2.46-2.67,2.94-4.61h5.26c-.67,3.31-2.22,5.9-4.66,7.77s-5.62,2.8-9.54,2.8Z"/>
  </g>
  <path class="cls-16" d="M232.13,202.04h315.3c13.8,0,25,11.2,25,25v29.7H207.13v-29.7c0-13.8,11.2-25,25-25Z"/>
  <path d="M547.43,206.04c11.6,0,21,9.4,21,21v162.3c0,11.6-9.4,21-21,21H232.13c-11.6,0-21-9.4-21-21v-162.3c0-11.6,9.4-21,21-21h315.3M547.43,202.04H232.13c-13.8,0-25,11.2-25,25v162.3c0,13.8,11.2,25,25,25h315.3c13.8,0,25-11.2,25-25v-162.3c0-13.8-11.2-25-25-25h0Z"/>
  <line class="cls-10" x1="207.13" y1="256.74" x2="572.43" y2="256.74"/>
  <line class="cls-11" x1="389.83" y1="278.54" x2="389.83" y2="396.44"/>
  <line class="cls-11" x1="551.83" y1="337.54" x2="487.23" y2="337.54"/>
  <line class="cls-11" x1="454.83" y1="337.54" x2="390.23" y2="337.54"/>
  <g class="cls-13">
    <path d="M240.04,239.54v-17.36h5.88c1.37,0,2.5.23,3.37.69.88.46,1.52,1.08,1.95,1.85.42.77.63,1.64.63,2.62s-.21,1.78-.63,2.57-1.08,1.41-1.97,1.88c-.89.47-2.03.71-3.42.71h-3.32v7.04h-2.48ZM242.52,230.62h3.22c1.22,0,2.12-.3,2.7-.91.58-.6.87-1.38.87-2.32s-.28-1.72-.84-2.28-1.47-.84-2.73-.84h-3.22v6.35ZM249.17,239.54l-3.75-7.71h2.73l3.89,7.71h-2.88Z"/>
    <path d="M259.91,239.84c-1.17,0-2.23-.27-3.16-.82-.93-.55-1.67-1.31-2.21-2.29s-.81-2.12-.81-3.41.27-2.48.82-3.46c.55-.98,1.29-1.75,2.23-2.29s2-.82,3.17-.82,2.25.27,3.17.82,1.66,1.31,2.19,2.28c.54.98.81,2.12.81,3.45s-.27,2.47-.81,3.45c-.54.98-1.28,1.74-2.22,2.28-.94.54-2.01.82-3.2.82ZM259.91,237.71c.68,0,1.29-.17,1.85-.5.55-.33,1-.82,1.34-1.48s.51-1.47.51-2.44-.17-1.79-.5-2.44c-.33-.65-.77-1.14-1.33-1.48s-1.16-.5-1.82-.5-1.27.17-1.83.5c-.56.33-1.01.82-1.35,1.48-.34.65-.51,1.47-.51,2.44s.17,1.79.51,2.44c.34.65.78,1.14,1.34,1.48.55.33,1.15.5,1.8.5Z"/>
    <path d="M274.76,239.84c-1.17,0-2.23-.27-3.16-.82-.94-.55-1.67-1.31-2.21-2.29s-.81-2.12-.81-3.41.27-2.48.82-3.46c.54-.98,1.29-1.75,2.23-2.29.94-.55,2-.82,3.17-.82s2.25.27,3.17.82,1.66,1.31,2.2,2.28c.54.98.81,2.12.81,3.45s-.27,2.47-.81,3.45c-.54.98-1.28,1.74-2.22,2.28-.94.54-2.01.82-3.2.82ZM274.76,237.71c.68,0,1.29-.17,1.85-.5s1-.82,1.34-1.48c.34-.65.51-1.47.51-2.44s-.17-1.79-.5-2.44c-.33-.65-.77-1.14-1.33-1.48-.55-.33-1.16-.5-1.82-.5s-1.27.17-1.83.5c-.56.33-1.01.82-1.35,1.48s-.51,1.47-.51,2.44.17,1.79.51,2.44.78,1.14,1.34,1.48c.55.33,1.15.5,1.8.5Z"/>
    <path d="M288.55,239.54c-.78,0-1.46-.12-2.03-.37-.58-.25-1.03-.66-1.34-1.24-.31-.58-.47-1.36-.47-2.36v-6.42h-2.16v-2.11h2.16l.3-3.12h2.18v3.12h3.55v2.11h-3.55v6.45c0,.71.15,1.19.45,1.45.3.26.81.38,1.54.38h1.44v2.11h-2.06Z"/>
  </g>
  <g class="cls-13">
    <path class="cls-12" d="M466.32,344.24c-1.19,0-2.26-.28-3.21-.83s-1.69-1.32-2.23-2.31c-.54-.98-.81-2.11-.81-3.38s.27-2.45.82-3.43c.55-.98,1.29-1.75,2.24-2.31.95-.55,2.02-.83,3.21-.83s2.26.28,3.21.83,1.69,1.32,2.23,2.29c.54.98.81,2.12.81,3.42s-.27,2.45-.82,3.42-1.29,1.74-2.25,2.29c-.95.55-2.02.83-3.21.83ZM466.32,341.69c.6,0,1.14-.15,1.62-.45s.88-.74,1.18-1.34c.3-.6.45-1.33.45-2.21s-.14-1.61-.43-2.19-.68-1.03-1.17-1.33c-.49-.3-1.03-.45-1.62-.45s-1.12.15-1.61.45c-.5.3-.89.74-1.19,1.33-.3.59-.45,1.32-.45,2.19s.15,1.61.45,2.21c.3.59.69,1.04,1.18,1.34.49.3,1.02.45,1.6.45Z"/>
    <path class="cls-12" d="M475.5,343.94v-12.5h2.65l.27,2.33c.3-.55.67-1.01,1.12-1.4.45-.39.97-.69,1.57-.91s1.27-.32,2-.32v3.15h-1.04c-.5,0-.97.06-1.41.19-.45.12-.83.32-1.15.59-.32.27-.58.64-.76,1.12-.18.47-.27,1.06-.27,1.77v5.98h-2.98Z"/>
  </g>
  <g class="cls-13">
    <path d="M433.27,306.64c-.93-.94-1.75-2.02-2.48-3.24-.73-1.21-1.29-2.55-1.7-4-.4-1.46-.61-2.99-.61-4.61s.2-3.18.61-4.62c.41-1.45.97-2.78,1.7-4,.73-1.22,1.55-2.3,2.48-3.22h3.32v.32c-.99,1.04-1.85,2.18-2.57,3.42s-1.28,2.54-1.67,3.91-.6,2.76-.6,4.2.2,2.84.6,4.2.96,2.66,1.69,3.89c.73,1.23,1.58,2.38,2.55,3.43v.32h-3.32Z"/>
  </g>
  <g class="cls-13">
    <path class="cls-1" d="M442.93,303.04l6.35-17.36h3.79l6.32,17.36h-3.55l-4.69-13.54-4.71,13.54h-3.52ZM445.73,299.1l.89-2.6h8.83l.87,2.6h-10.59Z"/>
  </g>
  <g class="cls-13">
    <path d="M465.15,297.26v-2.8h12.1v2.8h-12.1ZM469.79,301.53v-11.31h2.85v11.31h-2.85Z"/>
  </g>
  <g class="cls-13">
    <path class="cls-14" d="M490.92,303.34c-1.26,0-2.38-.21-3.36-.65-.98-.43-1.76-1.06-2.33-1.88-.57-.83-.86-1.83-.88-3h3.55c.02.51.15.98.4,1.39s.59.74,1.03.98.96.36,1.58.36c.53,0,.99-.09,1.38-.26.39-.17.69-.42.91-.73.21-.31.32-.69.32-1.12,0-.5-.12-.91-.36-1.24-.24-.33-.57-.61-.99-.84-.42-.23-.91-.44-1.46-.63-.55-.19-1.14-.39-1.75-.61-1.37-.45-2.42-1.04-3.14-1.79s-1.08-1.73-1.08-2.95c0-1.04.25-1.93.76-2.68.5-.74,1.2-1.31,2.09-1.71.89-.4,1.91-.59,3.05-.59s2.2.2,3.09.61,1.59.99,2.11,1.75c.52.76.79,1.65.81,2.68h-3.57c-.02-.38-.13-.74-.33-1.08s-.49-.61-.86-.82c-.36-.21-.79-.31-1.29-.31-.43-.02-.82.05-1.18.2-.36.15-.64.37-.84.66s-.31.65-.31,1.08.1.76.31,1.04.49.53.86.73c.36.21.79.4,1.29.57.5.17,1.03.35,1.61.53.86.3,1.65.65,2.38,1.05s1.31.93,1.74,1.57c.43.65.65,1.5.65,2.55,0,.91-.24,1.75-.72,2.53-.48.78-1.17,1.41-2.07,1.88-.9.48-2.02.72-3.36.72Z"/>
  </g>
  <g class="cls-13">
    <path d="M507.35,306.64h-3.35v-.32c.99-1.06,1.85-2.2,2.58-3.43s1.29-2.53,1.67-3.89c.39-1.36.58-2.77.58-4.2s-.2-2.84-.58-4.2c-.39-1.36-.95-2.67-1.67-3.91s-1.59-2.38-2.58-3.42v-.32h3.35c.93.93,1.75,2,2.47,3.22s1.29,2.56,1.7,4c.41,1.45.62,2.99.62,4.62s-.21,3.16-.62,4.61c-.41,1.46-.98,2.79-1.7,4-.72,1.22-1.54,2.29-2.47,3.24Z"/>
  </g>
  <g class="cls-13">
    <path class="cls-14" d="M459.64,390.04c-1.26,0-2.38-.21-3.36-.65-.98-.43-1.76-1.06-2.33-1.88-.57-.83-.87-1.83-.88-3h3.55c.02.51.15.98.4,1.39s.59.74,1.03.98c.44.24.96.36,1.57.36.53,0,.99-.09,1.38-.26.39-.17.69-.42.9-.73.21-.31.32-.69.32-1.12,0-.5-.12-.91-.36-1.24-.24-.33-.57-.61-.99-.84-.42-.23-.91-.44-1.46-.63-.55-.19-1.14-.39-1.75-.61-1.37-.45-2.42-1.04-3.14-1.79-.72-.74-1.08-1.73-1.08-2.95,0-1.04.25-1.93.76-2.68.5-.74,1.2-1.31,2.09-1.71.89-.4,1.91-.59,3.05-.59s2.2.2,3.09.61,1.59.99,2.11,1.75c.52.76.79,1.65.81,2.68h-3.57c-.02-.38-.13-.74-.34-1.08-.21-.34-.49-.61-.86-.82-.36-.21-.79-.31-1.29-.31-.43-.02-.82.05-1.18.2-.36.15-.64.37-.84.66s-.31.65-.31,1.08.1.76.31,1.04.49.53.86.73c.36.21.79.4,1.29.57.5.17,1.03.35,1.61.53.86.3,1.65.65,2.38,1.05.73.41,1.31.93,1.74,1.57.43.65.65,1.5.65,2.55,0,.91-.24,1.75-.72,2.53-.48.78-1.17,1.41-2.07,1.88-.9.48-2.02.72-3.36.72Z"/>
  </g>
  <g class="cls-13">
    <path d="M243.25,351.24v-28.06l-5.83,1.48v-3.58l7.6-3.3h3.11v33.46h-4.88Z"/>
    <path d="M267.34,351.24v-33.46h12.38c2.33,0,4.27.38,5.83,1.12,1.56.75,2.73,1.77,3.51,3.06.78,1.29,1.17,2.75,1.17,4.37s-.37,3.11-1.1,4.25c-.73,1.15-1.7,2.03-2.89,2.65-1.2.62-2.48.98-3.85,1.08l.67-.48c1.47.03,2.8.42,4.02,1.17,1.21.75,2.17,1.75,2.87,2.99.7,1.24,1.05,2.61,1.05,4.11,0,1.72-.42,3.27-1.24,4.66-.83,1.39-2.06,2.48-3.68,3.27-1.62.8-3.62,1.2-5.97,1.2h-12.76ZM272.12,332.22h7.07c2.01,0,3.54-.47,4.59-1.41,1.05-.94,1.58-2.24,1.58-3.9s-.53-2.86-1.58-3.8c-1.05-.94-2.63-1.41-4.73-1.41h-6.93v10.52ZM272.12,347.28h7.36c2.1,0,3.74-.49,4.9-1.46,1.16-.97,1.75-2.35,1.75-4.13s-.6-3.16-1.79-4.21c-1.2-1.05-2.84-1.58-4.95-1.58h-7.27v11.38Z"/>
    <path d="M303.81,351.24v-29.54h-9.89v-3.92h24.62v3.92h-9.94v29.54h-4.78Z"/>
    <path d="M336.5,351.82c-3.28,0-6.11-.72-8.48-2.17-2.37-1.45-4.21-3.47-5.5-6.07-1.29-2.6-1.94-5.62-1.94-9.06s.64-6.42,1.94-9.03c1.29-2.61,3.12-4.64,5.5-6.09s5.2-2.17,8.48-2.17c3.92,0,7.1.94,9.54,2.82,2.44,1.88,3.99,4.53,4.66,7.94h-5.26c-.48-1.98-1.46-3.55-2.94-4.73-1.48-1.18-3.48-1.77-6-1.77-2.26,0-4.22.53-5.88,1.58-1.66,1.05-2.93,2.55-3.82,4.49-.89,1.94-1.34,4.27-1.34,6.98s.45,5.04,1.34,7,2.17,3.46,3.82,4.49c1.66,1.04,3.62,1.55,5.88,1.55,2.52,0,4.52-.57,6-1.7,1.48-1.13,2.46-2.67,2.94-4.61h5.26c-.67,3.31-2.22,5.9-4.66,7.77s-5.62,2.8-9.54,2.8Z"/>
  </g>
  <line class="cls-9" x1="572.43" y1="309.54" x2="768.93" y2="309.54"/>
  <path class="cls-8" d="M798.51,132.34h359.32c22.1,0,40,17.9,40,40v268.1c0,22.1-17.9,40-40,40H182.83c-22.1,0-40-17.9-40-40V172.34c0-22.1,17.9-40,40-40h336.7"/>
  <g class="cls-13">
    <path class="cls-12" d="M542.15,144.34v-29.26h12c2.03,0,3.75.32,5.14.96,1.39.64,2.45,1.53,3.16,2.65.71,1.13,1.07,2.43,1.07,3.91s-.32,2.72-.96,3.72c-.64,1-1.48,1.78-2.53,2.32-1.04.54-2.2.86-3.45.94l.67-.46c1.34.06,2.53.41,3.57,1.07,1.04.66,1.87,1.53,2.47,2.61s.9,2.27.9,3.55c0,1.56-.38,2.94-1.13,4.14-.75,1.2-1.84,2.14-3.26,2.82-1.42.68-3.16,1.02-5.22,1.02h-12.41ZM547.79,127.29h5.43c1.48,0,2.6-.33,3.37-1,.77-.67,1.15-1.62,1.15-2.84s-.38-2.14-1.15-2.82c-.77-.68-1.9-1.02-3.41-1.02h-5.39v7.69ZM547.79,139.75h5.85c1.53,0,2.72-.35,3.55-1.04s1.25-1.7,1.25-3.01-.43-2.33-1.29-3.07c-.86-.74-2.06-1.11-3.6-1.11h-5.77v8.24Z"/>
    <path class="cls-12" d="M578.64,144.85c-2.01,0-3.81-.47-5.41-1.4-1.6-.93-2.87-2.23-3.8-3.89-.93-1.66-1.4-3.56-1.4-5.71s.47-4.13,1.4-5.79c.93-1.66,2.21-2.95,3.82-3.89,1.62-.93,3.43-1.4,5.43-1.4s3.85.47,5.46,1.4c1.6.93,2.87,2.23,3.8,3.89.93,1.66,1.4,3.57,1.4,5.75s-.47,4.09-1.4,5.75c-.93,1.66-2.21,2.95-3.82,3.89-1.62.93-3.44,1.4-5.48,1.4ZM578.64,139.95c.95,0,1.79-.22,2.53-.67.74-.45,1.32-1.13,1.76-2.05.43-.92.65-2.06.65-3.43s-.22-2.5-.65-3.41c-.43-.91-1.02-1.59-1.76-2.05s-1.57-.69-2.49-.69-1.71.23-2.47.69c-.75.46-1.35,1.14-1.78,2.05-.43.91-.65,2.04-.65,3.41s.22,2.51.65,3.43c.43.92,1.02,1.6,1.76,2.05.74.45,1.55.67,2.45.67Z"/>
    <path class="cls-12" d="M601.3,144.85c-1.75,0-3.2-.29-4.35-.86-1.14-.57-1.99-1.34-2.53-2.3-.54-.96-.82-2.03-.82-3.2,0-1.28.33-2.41.98-3.39.66-.97,1.64-1.74,2.97-2.3,1.32-.56,2.99-.84,4.99-.84h5.23c0-1.03-.14-1.89-.42-2.57s-.71-1.19-1.3-1.53c-.58-.33-1.37-.5-2.34-.5-1.06,0-1.96.23-2.7.69s-1.19,1.16-1.36,2.11h-5.48c.14-1.5.63-2.81,1.48-3.91.85-1.1,1.98-1.96,3.38-2.57,1.41-.61,2.97-.92,4.7-.92,1.98,0,3.69.33,5.14,1s2.56,1.63,3.34,2.88,1.17,2.8,1.17,4.64v13.04h-4.77l-.63-3.22c-.31.56-.67,1.06-1.09,1.5-.42.45-.91.84-1.46,1.17-.56.33-1.18.59-1.88.77-.7.18-1.46.27-2.3.27ZM602.63,140.5c.72,0,1.37-.13,1.94-.4.57-.26,1.07-.63,1.48-1.09.42-.46.75-.99.98-1.59.24-.6.4-1.25.48-1.94v-.04h-4.3c-.87,0-1.57.1-2.11.31s-.94.51-1.19.9c-.25.39-.38.84-.38,1.34,0,.56.12,1.02.38,1.38.25.36.61.64,1.09.84.47.2,1.02.29,1.63.29Z"/>
    <path class="cls-12" d="M618.68,144.34v-21.07h5.02l.54,3.89c.5-.92,1.13-1.7,1.9-2.34.77-.64,1.64-1.14,2.63-1.5.99-.36,2.08-.54,3.28-.54v5.98h-1.92c-.84,0-1.61.1-2.32.29-.71.2-1.33.51-1.86.94-.53.43-.93,1.02-1.21,1.78-.28.75-.42,1.7-.42,2.84v9.74h-5.64Z"/>
    <path class="cls-12" d="M644.81,144.85c-1.92,0-3.64-.47-5.16-1.42-1.52-.95-2.71-2.26-3.57-3.93-.86-1.67-1.3-3.55-1.3-5.64s.44-4.05,1.32-5.71c.88-1.66,2.09-2.97,3.64-3.93,1.55-.96,3.28-1.44,5.21-1.44,1.5,0,2.83.28,3.97.84,1.14.56,2.06,1.35,2.76,2.38v-11.75h5.64v30.1h-5.02l-.63-2.88c-.42.58-.94,1.14-1.57,1.67s-1.37.95-2.24,1.25c-.87.31-1.88.46-3.05.46ZM646.15,139.91c1.12,0,2.1-.26,2.95-.77s1.51-1.23,1.99-2.15c.47-.92.71-1.98.71-3.18s-.24-2.26-.71-3.18c-.47-.92-1.14-1.64-1.99-2.15-.85-.51-1.83-.77-2.95-.77s-2.02.26-2.88.77c-.86.52-1.54,1.23-2.03,2.15-.49.92-.73,1.96-.73,3.13s.24,2.3.73,3.22c.49.92,1.16,1.64,2.01,2.15.85.52,1.82.77,2.9.77Z"/>
    <path class="cls-12" d="M681.18,144.34l-10.66-29.26h6.02l8.11,23.49,8.15-23.49h5.98l-10.66,29.26h-6.94Z"/>
    <path class="cls-12" d="M709.1,144.34v-24.7h-8.57v-4.56h22.7v4.56h-8.53v24.7h-5.6Z"/>
    <path class="cls-12" d="M725.73,144.34l9.24-14.84-9.36-14.42h6.52l6.44,9.99,5.89-9.99h6.35l-9.15,14.67,9.4,14.59h-6.52l-6.48-10.16-5.94,10.16h-6.4Z"/>
    <path class="cls-12" d="M766.61,144.85c-2.84,0-5.35-.64-7.52-1.92-2.17-1.28-3.88-3.06-5.1-5.33-1.23-2.27-1.84-4.9-1.84-7.88s.61-5.61,1.84-7.88c1.22-2.27,2.93-4.05,5.1-5.33,2.17-1.28,4.68-1.92,7.52-1.92s5.39.64,7.57,1.92c2.17,1.28,3.87,3.06,5.08,5.33,1.21,2.27,1.82,4.9,1.82,7.88s-.61,5.61-1.82,7.88c-1.21,2.27-2.91,4.05-5.08,5.33-2.17,1.28-4.7,1.92-7.57,1.92ZM766.61,139.79c1.78,0,3.32-.41,4.62-1.23,1.29-.82,2.3-1.99,3.03-3.49.72-1.5,1.09-3.29,1.09-5.35s-.36-3.88-1.09-5.37c-.73-1.49-1.74-2.64-3.03-3.45-1.3-.81-2.84-1.21-4.62-1.21s-3.29.4-4.6,1.21c-1.31.81-2.33,1.96-3.05,3.45-.73,1.49-1.09,3.28-1.09,5.37s.36,3.85,1.09,5.35c.72,1.5,1.74,2.67,3.05,3.49,1.31.82,2.84,1.23,4.6,1.23Z"/>
  </g>
  <g class="cls-13">
    <path class="cls-12" d="M219.09,87.12c-2.12,0-4.01-.36-5.66-1.09-1.66-.72-2.97-1.78-3.93-3.18-.96-1.39-1.46-3.08-1.48-5.06h5.98c.03.86.25,1.64.67,2.34s1,1.25,1.73,1.65c.74.4,1.62.61,2.65.61.89,0,1.67-.15,2.32-.44.65-.29,1.16-.7,1.53-1.23.36-.53.54-1.16.54-1.88,0-.84-.2-1.53-.61-2.09-.4-.56-.96-1.03-1.67-1.42-.71-.39-1.53-.75-2.47-1.07s-1.92-.66-2.95-1.02c-2.31-.75-4.07-1.76-5.29-3.01-1.21-1.25-1.82-2.91-1.82-4.97,0-1.76.42-3.26,1.28-4.51.85-1.25,2.03-2.22,3.53-2.88,1.51-.67,3.22-1,5.14-1s3.71.34,5.2,1.02,2.68,1.67,3.55,2.95c.88,1.28,1.33,2.79,1.36,4.51h-6.02c-.03-.64-.22-1.25-.56-1.82-.35-.57-.83-1.03-1.44-1.38-.61-.35-1.34-.52-2.17-.52-.72-.03-1.39.08-1.99.33s-1.07.62-1.42,1.11c-.35.49-.52,1.09-.52,1.82s.17,1.28.52,1.76c.35.47.83.88,1.44,1.23s1.34.67,2.17.96c.84.29,1.74.59,2.72.9,1.45.5,2.79,1.09,4.01,1.78,1.23.68,2.2,1.57,2.93,2.65.72,1.09,1.09,2.52,1.09,4.3,0,1.53-.4,2.95-1.21,4.26-.81,1.31-1.97,2.37-3.49,3.18-1.52.81-3.41,1.21-5.66,1.21Z"/>
    <path class="cls-12" d="M234.14,95.81v-30.26h5.02l.63,2.93c.45-.61.97-1.18,1.59-1.69s1.34-.93,2.2-1.25c.85-.32,1.85-.48,2.99-.48,1.98,0,3.72.49,5.22,1.46,1.51.98,2.7,2.29,3.57,3.95.88,1.66,1.32,3.55,1.32,5.66s-.45,4.01-1.34,5.66c-.89,1.66-2.09,2.96-3.59,3.91-1.51.95-3.22,1.42-5.14,1.42-1.56,0-2.91-.29-4.03-.86-1.13-.57-2.05-1.36-2.78-2.36v11.91h-5.64ZM245.26,82.18c1.11,0,2.1-.25,2.95-.75.85-.5,1.51-1.21,1.99-2.13.47-.92.71-1.98.71-3.18s-.24-2.26-.71-3.2c-.47-.93-1.14-1.66-1.99-2.17-.85-.51-1.83-.77-2.95-.77s-2.06.26-2.91.77c-.85.52-1.52,1.23-2.01,2.15-.49.92-.73,1.98-.73,3.18s.24,2.26.73,3.2c.49.93,1.16,1.65,2.01,2.15.85.5,1.82.75,2.91.75Z"/>
    <path class="cls-12" d="M271.63,87.12c-2.12,0-3.99-.45-5.62-1.36-1.63-.91-2.9-2.17-3.8-3.8-.91-1.63-1.36-3.52-1.36-5.66s.45-4.15,1.34-5.83c.89-1.69,2.15-3.01,3.78-3.97,1.63-.96,3.52-1.44,5.66-1.44s3.91.46,5.48,1.38c1.56.92,2.77,2.16,3.64,3.72.86,1.56,1.3,3.33,1.3,5.31v.94c0,.35-.03.7-.08,1.07h-17.1v-3.43h11.49c-.08-1.37-.56-2.44-1.44-3.22-.88-.78-1.97-1.17-3.28-1.17-.95,0-1.83.22-2.63.65-.81.43-1.44,1.09-1.9,1.99-.46.89-.69,2.02-.69,3.39v1.21c0,1.14.21,2.14.65,2.99.43.85,1.04,1.5,1.82,1.96s1.69.69,2.72.69,1.89-.22,2.57-.67c.68-.45,1.19-1.02,1.53-1.71h5.77c-.39,1.31-1.04,2.49-1.96,3.55-.92,1.06-2.05,1.9-3.39,2.51s-2.83.92-4.47.92Z"/>
    <path class="cls-12" d="M286.68,86.61v-21.07h4.97l.42,3.43c.64-1.17,1.55-2.12,2.74-2.84,1.18-.72,2.6-1.09,4.24-1.09,1.75,0,3.23.36,4.43,1.09,1.2.73,2.11,1.78,2.74,3.18.63,1.39.94,3.11.94,5.14v12.16h-5.6v-11.62c0-1.67-.36-2.95-1.07-3.85-.71-.89-1.8-1.34-3.28-1.34-.95,0-1.79.22-2.53.67-.74.45-1.32,1.08-1.73,1.9s-.63,1.82-.63,2.99v11.24h-5.64Z"/>
    <path class="cls-12" d="M321.83,87.12c-1.92,0-3.64-.47-5.16-1.42-1.52-.95-2.71-2.26-3.57-3.93-.86-1.67-1.3-3.55-1.3-5.64s.44-4.05,1.32-5.71c.88-1.66,2.09-2.97,3.64-3.93,1.55-.96,3.28-1.44,5.2-1.44,1.51,0,2.83.28,3.97.84s2.06,1.35,2.76,2.38v-11.75h5.64v30.1h-5.02l-.63-2.88c-.42.58-.94,1.14-1.57,1.67s-1.37.95-2.24,1.25c-.86.31-1.88.46-3.05.46ZM323.17,82.18c1.11,0,2.1-.26,2.95-.77.85-.52,1.51-1.23,1.98-2.15.47-.92.71-1.98.71-3.18s-.24-2.26-.71-3.18c-.47-.92-1.13-1.64-1.98-2.15-.85-.51-1.83-.77-2.95-.77s-2.02.26-2.88.77c-.86.52-1.54,1.23-2.03,2.15-.49.92-.73,1.96-.73,3.13s.24,2.3.73,3.22c.49.92,1.16,1.64,2.01,2.15.85.52,1.82.77,2.91.77Z"/>
    <path class="cls-12" d="M358.2,86.61l-10.66-29.26h6.02l8.11,23.49,8.15-23.49h5.98l-10.66,29.26h-6.94Z"/>
    <path class="cls-12" d="M386.12,86.61v-24.7h-8.57v-4.56h22.7v4.56h-8.53v24.7h-5.6Z"/>
    <path class="cls-12" d="M402.76,86.61l9.24-14.84-9.36-14.42h6.52l6.44,9.99,5.89-9.99h6.35l-9.15,14.67,9.41,14.59h-6.52l-6.48-10.16-5.94,10.16h-6.4Z"/>
    <path class="cls-12" d="M443.64,87.12c-2.84,0-5.35-.64-7.52-1.92-2.17-1.28-3.87-3.06-5.1-5.33-1.23-2.27-1.84-4.9-1.84-7.88s.61-5.61,1.84-7.88c1.23-2.27,2.93-4.05,5.1-5.33,2.17-1.28,4.68-1.92,7.52-1.92s5.39.64,7.57,1.92c2.17,1.28,3.87,3.06,5.08,5.33,1.21,2.27,1.82,4.9,1.82,7.88s-.61,5.61-1.82,7.88c-1.21,2.27-2.91,4.05-5.08,5.33-2.17,1.28-4.7,1.92-7.57,1.92ZM443.64,82.06c1.78,0,3.32-.41,4.62-1.23,1.3-.82,2.31-1.99,3.03-3.49s1.09-3.29,1.09-5.35-.36-3.88-1.09-5.37-1.73-2.64-3.03-3.45c-1.29-.81-2.84-1.21-4.62-1.21s-3.29.4-4.6,1.21c-1.31.81-2.33,1.96-3.05,3.45s-1.09,3.28-1.09,5.37.36,3.85,1.09,5.35,1.74,2.67,3.05,3.49c1.31.82,2.84,1.23,4.6,1.23Z"/>
  </g>
  <path class="cls-16" d="M793.23,609.84h315.3c13.8,0,25,11.2,25,25v29.7h-365.3v-29.7c0-13.8,11.2-25,25-25h0Z"/>
  <path d="M1108.53,613.84c11.6,0,21,9.4,21,21v162.3c0,11.6-9.4,21-21,21h-315.3c-11.6,0-21-9.4-21-21v-162.3c0-11.6,9.4-21,21-21h315.3M1108.53,609.84h-315.3c-13.8,0-25,11.2-25,25v162.3c0,13.8,11.2,25,25,25h315.3c13.8,0,25-11.2,25-25v-162.3c0-13.8-11.2-25-25-25h0Z"/>
  <line class="cls-10" x1="768.23" y1="664.54" x2="1133.53" y2="664.54"/>
  <g>
    <line class="cls-11" x1="950.83" y1="686.34" x2="950.83" y2="804.24"/>
    <line class="cls-11" x1="1112.83" y1="745.24" x2="1048.33" y2="745.24"/>
    <line class="cls-11" x1="1015.83" y1="745.24" x2="951.33" y2="745.24"/>
  </g>
  <g class="cls-13">
    <g class="cls-13">
      <g class="cls-13">
        <path d="M801.14,647.34v-17.36h10.96v2.03h-8.48v5.55h7.74v1.98h-7.74v5.75h8.48v2.03h-10.96Z"/>
        <path d="M813.99,647.34l4.32-6.25-4.32-6.25h2.68l3.27,4.86,3.3-4.86h2.65l-4.31,6.25,4.31,6.25h-2.65l-3.3-4.89-3.27,4.89h-2.68Z"/>
        <path d="M829.51,632.49c-.48,0-.87-.15-1.18-.45-.31-.3-.46-.68-.46-1.14s.15-.81.46-1.1c.31-.29.7-.43,1.18-.43s.85.15,1.17.43.47.66.47,1.1-.16.84-.47,1.14-.7.45-1.17.45ZM828.25,647.34v-12.5h2.48v12.5h-2.48Z"/>
        <path d="M839.41,647.34c-.78,0-1.46-.12-2.03-.37s-1.03-.66-1.34-1.24c-.31-.58-.47-1.36-.47-2.36v-6.42h-2.16v-2.11h2.16l.3-3.12h2.18v3.12h3.55v2.11h-3.55v6.45c0,.71.15,1.19.45,1.45.3.26.81.38,1.54.38h1.44v2.11h-2.06Z"/>
        <path d="M855.06,650.94c-.89-.88-1.72-1.91-2.47-3.11-.75-1.2-1.35-2.53-1.79-3.99-.44-1.46-.66-3.05-.66-4.75s.22-3.29.66-4.75c.44-1.46,1.03-2.8,1.79-4s1.57-2.24,2.47-3.1h2.53v.22c-1.01,1.03-1.88,2.15-2.63,3.37-.74,1.22-1.32,2.53-1.74,3.92-.41,1.39-.62,2.84-.62,4.34s.21,2.95.62,4.34c.41,1.39,1,2.69,1.75,3.92s1.62,2.35,2.62,3.37v.22h-2.53Z"/>
        <path d="M863.24,647.64c-1.03,0-1.88-.17-2.55-.52-.68-.35-1.18-.81-1.51-1.4-.33-.59-.5-1.22-.5-1.9,0-.83.21-1.53.65-2.12.43-.59,1.04-1.04,1.83-1.35.79-.31,1.74-.47,2.85-.47h3.25c0-.73-.11-1.33-.32-1.81-.22-.48-.53-.84-.96-1.08-.42-.24-.96-.36-1.6-.36-.74,0-1.38.18-1.91.53-.53.36-.86.88-.99,1.58h-2.48c.1-.88.4-1.62.91-2.24.5-.62,1.15-1.1,1.95-1.44s1.64-.51,2.53-.51c1.17,0,2.16.21,2.95.62.79.41,1.39,1,1.8,1.75.41.75.61,1.65.61,2.69v7.74h-2.16l-.2-2.11c-.18.33-.4.65-.64.94-.25.3-.54.55-.88.77-.34.21-.73.38-1.17.51s-.92.19-1.45.19ZM863.71,645.63c.53,0,1.01-.11,1.44-.32.43-.21.8-.51,1.1-.88s.54-.79.69-1.26c.16-.47.24-.96.26-1.45v-.07h-2.95c-.71,0-1.29.09-1.72.26-.44.17-.76.41-.96.71-.2.3-.3.64-.3,1.04s.09.76.29,1.05c.19.29.47.52.83.68s.8.25,1.31.25Z"/>
        <path d="M872.91,647.34v-12.5h2.23l.22,2.36c.28-.56.64-1.04,1.09-1.43.45-.39.97-.69,1.58-.91s1.29-.32,2.07-.32v2.63h-.89c-.51,0-1,.06-1.46.19-.46.12-.87.33-1.23.63s-.63.7-.83,1.21c-.2.51-.3,1.15-.3,1.91v6.22h-2.48Z"/>
        <path d="M882.39,647.34v-17.86h2.48v17.86h-2.48ZM890.25,647.34l-5.75-6.84,5.21-5.65h3l-6.2,6.62v-1.86l6.87,7.74h-3.12Z"/>
        <path d="M900.22,647.64c-1.17,0-2.23-.27-3.16-.82-.94-.55-1.67-1.31-2.21-2.29s-.81-2.12-.81-3.41.27-2.48.82-3.46c.54-.98,1.29-1.75,2.23-2.29.94-.55,2-.82,3.17-.82s2.25.27,3.17.82,1.66,1.31,2.2,2.28c.54.98.81,2.12.81,3.45s-.27,2.47-.81,3.45c-.54.98-1.28,1.74-2.22,2.28-.94.54-2.01.82-3.2.82ZM900.22,645.51c.68,0,1.29-.17,1.85-.5s1-.82,1.34-1.48c.34-.65.51-1.47.51-2.44s-.17-1.79-.5-2.44c-.33-.65-.77-1.14-1.33-1.48-.55-.33-1.16-.5-1.82-.5s-1.27.17-1.83.5c-.56.33-1.01.82-1.35,1.48s-.51,1.47-.51,2.44.17,1.79.51,2.44.78,1.14,1.34,1.48c.55.33,1.15.5,1.8.5Z"/>
        <path d="M915.07,647.64c-1.17,0-2.23-.27-3.16-.82-.93-.55-1.67-1.31-2.21-2.29s-.8-2.12-.8-3.41.27-2.48.82-3.46c.54-.98,1.29-1.75,2.23-2.29s2-.82,3.17-.82,2.25.27,3.17.82,1.66,1.31,2.2,2.28c.54.98.81,2.12.81,3.45s-.27,2.47-.81,3.45c-.54.98-1.28,1.74-2.22,2.28-.94.54-2.01.82-3.2.82ZM915.07,645.51c.68,0,1.29-.17,1.85-.5.55-.33,1-.82,1.34-1.48s.51-1.47.51-2.44-.17-1.79-.5-2.44c-.33-.65-.77-1.14-1.33-1.48-.55-.33-1.16-.5-1.82-.5s-1.27.17-1.84.5-1.01.82-1.35,1.48-.51,1.47-.51,2.44.17,1.79.51,2.44.79,1.14,1.34,1.48c.55.33,1.15.5,1.8.5Z"/>
        <path d="M924.23,647.34v-12.5h2.23l.22,2.36c.28-.56.64-1.04,1.09-1.43.45-.39.97-.69,1.58-.91s1.29-.32,2.07-.32v2.63h-.89c-.51,0-1,.06-1.46.19-.46.12-.87.33-1.23.63s-.63.7-.83,1.21c-.2.51-.3,1.15-.3,1.91v6.22h-2.48Z"/>
        <path d="M935.41,650.94h-2.5v-.22c1.01-1.03,1.88-2.15,2.62-3.37s1.31-2.53,1.72-3.92c.41-1.39.62-2.84.62-4.34s-.21-2.95-.62-4.34c-.41-1.39-.99-2.69-1.72-3.92s-1.61-2.35-2.62-3.37v-.22h2.5c.93.86,1.76,1.89,2.49,3.1s1.33,2.54,1.77,4c.45,1.46.67,3.05.67,4.75s-.22,3.29-.67,4.75c-.45,1.46-1.04,2.79-1.77,3.99-.74,1.2-1.57,2.24-2.49,3.11Z"/>
      </g>
    </g>
  </g>
  <g class="cls-13">
    <g class="cls-13">
      <g class="cls-13">
        <path class="cls-12" d="M1027.32,751.94c-1.19,0-2.26-.28-3.21-.83s-1.69-1.32-2.23-2.31c-.54-.98-.81-2.11-.81-3.38s.27-2.45.82-3.43c.55-.98,1.29-1.75,2.24-2.31.95-.55,2.02-.83,3.21-.83s2.26.28,3.21.83,1.69,1.32,2.23,2.29c.54.98.81,2.12.81,3.42s-.27,2.45-.82,3.42-1.29,1.74-2.25,2.29c-.95.55-2.02.83-3.21.83ZM1027.32,749.39c.6,0,1.14-.15,1.62-.45s.88-.74,1.18-1.34c.3-.6.45-1.33.45-2.21s-.14-1.61-.43-2.19-.68-1.03-1.17-1.33c-.49-.3-1.03-.45-1.62-.45s-1.12.15-1.61.45c-.5.3-.89.74-1.19,1.33-.3.59-.45,1.32-.45,2.19s.15,1.61.45,2.21c.3.59.69,1.04,1.18,1.34.49.3,1.02.45,1.6.45Z"/>
        <path class="cls-12" d="M1036.5,751.64v-12.5h2.65l.27,2.33c.3-.55.67-1.01,1.12-1.4.45-.39.97-.69,1.57-.91s1.27-.32,2-.32v3.15h-1.04c-.5,0-.97.06-1.41.19-.45.12-.83.32-1.15.59-.32.27-.58.64-.76,1.12-.18.47-.27,1.06-.27,1.77v5.98h-2.98Z"/>
      </g>
    </g>
  </g>
  <g class="cls-13">
    <path d="M992.2,714.44c-.93-.94-1.75-2.02-2.48-3.24-.73-1.21-1.29-2.55-1.7-4-.41-1.46-.61-2.99-.61-4.61s.2-3.18.61-4.62c.4-1.45.97-2.78,1.7-4s1.55-2.3,2.48-3.22h3.32v.32c-.99,1.04-1.85,2.18-2.57,3.42s-1.28,2.54-1.67,3.91c-.4,1.36-.59,2.76-.59,4.2s.2,2.84.59,4.2c.4,1.36.96,2.66,1.69,3.89.73,1.23,1.58,2.38,2.55,3.43v.32h-3.32Z"/>
  </g>
  <g class="cls-13">
    <path class="cls-4" d="M1005.58,710.84l-4.56-17.36h3.57l3.03,13.57,3.57-13.57h3.7l3.47,13.57,3.05-13.57h3.6l-4.69,17.36h-3.99l-3.32-12.65-3.45,12.65h-3.97Z"/>
  </g>
  <g class="cls-13">
    <path d="M1029.74,705.07v-2.8h12.1v2.8h-12.1ZM1034.38,709.33v-11.31h2.85v11.31h-2.85Z"/>
  </g>
  <g class="cls-13">
    <path class="cls-14" d="M1055.61,711.14c-1.26,0-2.38-.21-3.36-.65-.98-.43-1.76-1.06-2.33-1.88-.57-.83-.86-1.83-.88-3h3.55c.02.51.15.98.4,1.39s.59.74,1.03.98c.44.24.96.36,1.58.36.53,0,.99-.09,1.38-.26.39-.17.69-.42.91-.73.21-.31.32-.69.32-1.12,0-.5-.12-.91-.36-1.24-.24-.33-.57-.61-.99-.84-.42-.23-.91-.44-1.46-.63-.55-.19-1.14-.39-1.75-.61-1.37-.45-2.42-1.04-3.14-1.79-.72-.74-1.08-1.73-1.08-2.95,0-1.04.25-1.93.76-2.68.5-.74,1.2-1.31,2.1-1.71s1.91-.59,3.05-.59,2.2.2,3.09.61c.88.41,1.59.99,2.11,1.75.52.76.79,1.65.81,2.68h-3.57c-.02-.38-.13-.74-.33-1.08-.21-.34-.49-.61-.86-.82-.36-.21-.79-.31-1.29-.31-.43-.02-.82.05-1.18.2-.36.15-.64.37-.84.66-.21.29-.31.65-.31,1.08s.1.76.31,1.04c.21.28.49.53.86.73.36.21.79.4,1.29.57.5.17,1.03.35,1.61.53.86.3,1.65.65,2.38,1.05.73.41,1.31.93,1.74,1.57.43.65.64,1.5.64,2.55,0,.91-.24,1.75-.72,2.53-.48.78-1.17,1.41-2.07,1.88-.9.48-2.02.72-3.36.72Z"/>
  </g>
  <g class="cls-13">
    <path d="M1071.94,714.44h-3.35v-.32c.99-1.06,1.85-2.2,2.58-3.43s1.29-2.53,1.67-3.89.58-2.77.58-4.2-.2-2.84-.58-4.2-.95-2.67-1.67-3.91-1.59-2.38-2.58-3.42v-.32h3.35c.93.93,1.75,2,2.47,3.22.72,1.22,1.29,2.56,1.7,4,.41,1.45.62,2.99.62,4.62s-.21,3.16-.62,4.61c-.41,1.46-.98,2.79-1.7,4-.72,1.22-1.54,2.29-2.47,3.24Z"/>
  </g>
  <g class="cls-13">
    <g class="cls-13">
      <g class="cls-13">
        <path class="cls-4" d="M1014.18,797.54l-4.56-17.36h3.57l3.03,13.57,3.57-13.57h3.7l3.47,13.57,3.05-13.57h3.6l-4.69,17.36h-3.99l-3.32-12.65-3.45,12.65h-3.97Z"/>
      </g>
    </g>
  </g>
  <g class="cls-13">
    <g class="cls-13">
      <g class="cls-13">
        <path d="M804.35,759.04v-28.06l-5.83,1.48v-3.58l7.6-3.3h3.11v33.46h-4.88Z"/>
        <path d="M828.44,759.04v-33.46h12.38c2.33,0,4.27.38,5.83,1.12,1.56.75,2.73,1.77,3.51,3.06.78,1.29,1.17,2.75,1.17,4.37s-.37,3.11-1.1,4.25c-.73,1.15-1.7,2.03-2.89,2.65-1.2.62-2.48.98-3.85,1.08l.67-.48c1.47.03,2.8.42,4.02,1.17,1.21.75,2.17,1.75,2.87,2.99.7,1.24,1.05,2.61,1.05,4.11,0,1.72-.42,3.27-1.24,4.66-.83,1.39-2.06,2.48-3.68,3.27-1.62.8-3.62,1.2-5.97,1.2h-12.76ZM833.22,740.02h7.07c2.01,0,3.54-.47,4.59-1.41,1.05-.94,1.58-2.24,1.58-3.9s-.53-2.86-1.58-3.8c-1.05-.94-2.63-1.41-4.73-1.41h-6.93v10.52ZM833.22,755.08h7.36c2.1,0,3.74-.49,4.9-1.46,1.16-.97,1.75-2.35,1.75-4.13s-.6-3.16-1.79-4.21c-1.2-1.05-2.84-1.58-4.95-1.58h-7.27v11.38Z"/>
        <path d="M864.91,759.04v-29.54h-9.89v-3.92h24.62v3.92h-9.94v29.54h-4.78Z"/>
        <path d="M897.6,759.62c-3.28,0-6.11-.72-8.48-2.17-2.37-1.45-4.21-3.47-5.5-6.07-1.29-2.6-1.94-5.62-1.94-9.06s.64-6.42,1.94-9.03c1.29-2.61,3.12-4.64,5.5-6.09s5.2-2.17,8.48-2.17c3.92,0,7.1.94,9.54,2.82,2.44,1.88,3.99,4.53,4.66,7.94h-5.26c-.48-1.98-1.46-3.55-2.94-4.73-1.48-1.18-3.48-1.77-6-1.77-2.26,0-4.22.53-5.88,1.58-1.66,1.05-2.93,2.55-3.82,4.49-.89,1.94-1.34,4.27-1.34,6.98s.45,5.04,1.34,7,2.17,3.46,3.82,4.49c1.66,1.04,3.62,1.55,5.88,1.55,2.52,0,4.52-.57,6-1.7,1.48-1.13,2.46-2.67,2.94-4.61h5.26c-.67,3.31-2.22,5.9-4.66,7.77s-5.62,2.8-9.54,2.8Z"/>
      </g>
    </g>
  </g>
  <line class="cls-9" x1="951.33" y1="414.34" x2="951.33" y2="610.84"/>
  <g>
    <g>
      <line class="cls-7" x1="296.53" y1="946.54" x2="139.13" y2="946.54"/>
      <line class="cls-7" x1="640.93" y1="946.54" x2="483.53" y2="946.54"/>
      <g class="cls-13">
        <g class="cls-13">
          <g class="cls-13">
            <path d="M325.37,957.16c-2.35,0-4.41-.53-6.19-1.59-1.78-1.06-3.18-2.54-4.19-4.43-1.01-1.9-1.52-4.1-1.52-6.61s.51-4.68,1.52-6.58c1.01-1.9,2.41-3.38,4.19-4.45,1.78-1.07,3.84-1.61,6.19-1.61s4.49.54,6.28,1.61c1.79,1.07,3.18,2.55,4.17,4.45.99,1.9,1.48,4.09,1.48,6.58s-.5,4.72-1.48,6.61c-.99,1.9-2.38,3.37-4.17,4.43-1.79,1.06-3.89,1.59-6.28,1.59ZM325.41,954.06c1.68,0,3.14-.38,4.4-1.15,1.26-.77,2.23-1.86,2.91-3.28.69-1.42,1.03-3.12,1.03-5.1s-.34-3.68-1.03-5.1c-.69-1.42-1.66-2.51-2.91-3.26-1.26-.76-2.72-1.13-4.4-1.13s-3.14.38-4.4,1.13c-1.26.76-2.23,1.84-2.93,3.26-.7,1.42-1.05,3.12-1.05,5.1s.35,3.68,1.05,5.1c.7,1.42,1.67,2.51,2.93,3.28,1.26.77,2.72,1.15,4.4,1.15Z"/>
            <path d="M341.32,956.74v-17.59h3.14l.21,3c.56-1.05,1.35-1.88,2.37-2.5,1.02-.62,2.2-.92,3.52-.92,1.4,0,2.59.28,3.59.84s1.78,1.4,2.34,2.53c.56,1.13.84,2.54.84,4.24v10.4h-3.49v-10.05c0-1.63-.36-2.86-1.08-3.7-.72-.84-1.77-1.26-3.14-1.26-.91,0-1.72.21-2.44.65-.72.43-1.3,1.06-1.73,1.9-.43.84-.65,1.86-.65,3.07v9.39h-3.49Z"/>
            <path d="M362.02,947.91v-2.93h14.1v2.93h-14.1Z"/>
            <path d="M389.21,957.16c-1.7,0-3.21-.39-4.54-1.17s-2.37-1.86-3.12-3.23c-.76-1.37-1.13-2.97-1.13-4.78s.38-3.45,1.13-4.83c.76-1.38,1.8-2.47,3.12-3.25s2.84-1.17,4.54-1.17c2.14,0,3.93.56,5.37,1.68,1.44,1.12,2.36,2.63,2.76,4.54h-3.63c-.23-1.02-.76-1.82-1.59-2.37-.83-.56-1.81-.84-2.95-.84-.93,0-1.79.24-2.58.71-.79.48-1.42,1.18-1.9,2.09-.48.92-.72,2.05-.72,3.4,0,1,.14,1.89.42,2.67.28.78.66,1.44,1.13,1.97.48.54,1.03.94,1.66,1.2.63.27,1.29.4,1.99.4.77,0,1.46-.12,2.08-.37.62-.24,1.14-.61,1.57-1.1.43-.49.73-1.07.89-1.75h3.63c-.4,1.86-1.31,3.36-2.76,4.49-1.44,1.13-3.23,1.69-5.37,1.69Z"/>
            <path d="M401.42,956.74v-25.13h3.49v10.4c.58-1.02,1.39-1.83,2.42-2.41,1.04-.58,2.18-.87,3.44-.87,1.4,0,2.59.29,3.59.86s1.77,1.42,2.3,2.55c.54,1.13.8,2.54.8,4.24v10.37h-3.46v-9.98c0-1.65-.35-2.9-1.05-3.75-.7-.85-1.73-1.27-3.11-1.27-.93,0-1.77.22-2.51.66-.75.44-1.34,1.09-1.78,1.94-.44.85-.66,1.88-.66,3.09v9.32h-3.49Z"/>
            <path d="M427.77,957.16c-1.44,0-2.64-.24-3.6-.73-.95-.49-1.66-1.15-2.13-1.97-.46-.83-.7-1.72-.7-2.67,0-1.16.3-2.16.91-2.98.6-.83,1.47-1.46,2.58-1.9,1.12-.44,2.45-.66,4.01-.66h4.57c0-1.02-.15-1.87-.45-2.55s-.75-1.18-1.34-1.52c-.59-.34-1.34-.51-2.25-.51-1.05,0-1.94.25-2.69.75-.75.5-1.21,1.24-1.4,2.22h-3.49c.14-1.23.56-2.29,1.27-3.16.71-.87,1.62-1.55,2.74-2.02,1.12-.48,2.3-.72,3.56-.72,1.65,0,3.04.29,4.15.87,1.12.58,1.96,1.4,2.53,2.46.57,1.06.85,2.32.85,3.79v10.89h-3.04l-.28-2.97c-.26.47-.56.91-.91,1.33-.35.42-.76.78-1.24,1.08-.48.3-1.02.54-1.64.72-.62.17-1.3.26-2.04.26ZM428.43,954.34c.74,0,1.42-.15,2.02-.45.6-.3,1.12-.72,1.55-1.24.43-.52.76-1.12.98-1.78s.34-1.34.37-2.04v-.11h-4.15c-1,0-1.81.12-2.42.37-.62.24-1.06.58-1.34.99s-.42.91-.42,1.47.13,1.08.4,1.48c.27.41.66.73,1.17.96s1.13.35,1.85.35Z"/>
            <path d="M443.4,935.84c-.68,0-1.23-.21-1.66-.63-.43-.42-.65-.95-.65-1.61s.21-1.15.65-1.55c.43-.41.98-.61,1.66-.61s1.2.2,1.64.61.66.92.66,1.55-.22,1.19-.66,1.61-.99.63-1.64.63ZM441.62,956.74v-17.59h3.49v17.59h-3.49Z"/>
            <path d="M450.11,956.74v-17.59h3.14l.21,3c.56-1.05,1.35-1.88,2.37-2.5,1.02-.62,2.2-.92,3.53-.92,1.4,0,2.59.28,3.59.84s1.78,1.4,2.34,2.53c.56,1.13.84,2.54.84,4.24v10.4h-3.49v-10.05c0-1.63-.36-2.86-1.08-3.7-.72-.84-1.77-1.26-3.14-1.26-.91,0-1.72.21-2.44.65s-1.3,1.06-1.73,1.9c-.43.84-.65,1.86-.65,3.07v9.39h-3.49Z"/>
          </g>
        </g>
      </g>
    </g>
    <g>
      <g class="cls-13">
        <g class="cls-13">
          <g class="cls-13">
            <path d="M883.97,957.16c-2.35,0-4.42-.53-6.19-1.59-1.78-1.06-3.18-2.54-4.19-4.43-1.01-1.9-1.52-4.1-1.52-6.61s.51-4.68,1.52-6.58c1.01-1.9,2.41-3.38,4.19-4.45,1.78-1.07,3.84-1.61,6.19-1.61s4.49.54,6.28,1.61c1.79,1.07,3.18,2.55,4.17,4.45.99,1.9,1.48,4.09,1.48,6.58s-.5,4.72-1.48,6.61c-.99,1.9-2.38,3.37-4.17,4.43-1.79,1.06-3.89,1.59-6.28,1.59ZM884.01,954.06c1.67,0,3.14-.38,4.4-1.15s2.23-1.86,2.91-3.28c.69-1.42,1.03-3.12,1.03-5.1s-.34-3.68-1.03-5.1c-.69-1.42-1.66-2.51-2.91-3.26s-2.72-1.13-4.4-1.13-3.14.38-4.4,1.13-2.23,1.84-2.93,3.26c-.7,1.42-1.05,3.12-1.05,5.1s.35,3.68,1.05,5.1c.7,1.42,1.68,2.51,2.93,3.28s2.72,1.15,4.4,1.15Z"/>
            <path d="M898.28,942.12v-2.97h10.29v2.97h-10.29ZM900.87,956.74v-19.96c0-1.21.2-2.2.61-2.97.41-.77,1.01-1.33,1.8-1.67s1.75-.52,2.86-.52h2.06v2.97h-1.5c-.84,0-1.44.17-1.8.51-.36.34-.54.92-.54,1.76v19.89h-3.49Z"/>
            <path d="M910.5,942.12v-2.97h10.3v2.97h-10.3ZM913.08,956.74v-19.96c0-1.21.2-2.2.61-2.97.41-.77,1.01-1.33,1.8-1.67.79-.35,1.74-.52,2.86-.52h2.06v2.97h-1.5c-.84,0-1.44.17-1.8.51-.36.34-.54.92-.54,1.76v19.89h-3.49Z"/>
            <path d="M924.56,947.91v-2.93h14.1v2.93h-14.1Z"/>
            <path d="M951.75,957.16c-1.7,0-3.21-.39-4.54-1.17s-2.37-1.86-3.12-3.23c-.76-1.37-1.13-2.97-1.13-4.78s.38-3.45,1.13-4.83c.76-1.38,1.8-2.47,3.12-3.25s2.84-1.17,4.54-1.17c2.14,0,3.93.56,5.38,1.68,1.44,1.12,2.36,2.63,2.76,4.54h-3.63c-.23-1.02-.76-1.82-1.59-2.37-.83-.56-1.81-.84-2.95-.84-.93,0-1.79.24-2.58.71-.79.48-1.43,1.18-1.9,2.09s-.71,2.05-.71,3.4c0,1,.14,1.89.42,2.67.28.78.66,1.44,1.13,1.97.48.54,1.03.94,1.66,1.2.63.27,1.29.4,1.99.4.77,0,1.46-.12,2.08-.37.62-.24,1.14-.61,1.57-1.1.43-.49.73-1.07.89-1.75h3.63c-.4,1.86-1.32,3.36-2.76,4.49-1.44,1.13-3.23,1.69-5.38,1.69Z"/>
            <path d="M963.96,956.74v-25.13h3.49v10.4c.58-1.02,1.39-1.83,2.43-2.41,1.04-.58,2.18-.87,3.44-.87,1.4,0,2.59.29,3.59.86,1,.57,1.77,1.42,2.3,2.55.54,1.13.8,2.54.8,4.24v10.37h-3.46v-9.98c0-1.65-.35-2.9-1.05-3.75-.7-.85-1.73-1.27-3.11-1.27-.93,0-1.77.22-2.51.66-.75.44-1.34,1.09-1.78,1.94-.44.85-.66,1.88-.66,3.09v9.32h-3.49Z"/>
            <path d="M990.31,957.16c-1.44,0-2.64-.24-3.59-.73-.95-.49-1.66-1.15-2.13-1.97-.47-.83-.7-1.72-.7-2.67,0-1.16.3-2.16.91-2.98.6-.83,1.46-1.46,2.58-1.9,1.12-.44,2.45-.66,4.01-.66h4.57c0-1.02-.15-1.87-.46-2.55-.3-.67-.75-1.18-1.34-1.52-.59-.34-1.34-.51-2.25-.51-1.05,0-1.94.25-2.69.75-.75.5-1.21,1.24-1.4,2.22h-3.49c.14-1.23.56-2.29,1.27-3.16.71-.87,1.62-1.55,2.74-2.02,1.12-.48,2.3-.72,3.56-.72,1.65,0,3.04.29,4.15.87,1.12.58,1.96,1.4,2.53,2.46.57,1.06.85,2.32.85,3.79v10.89h-3.04l-.28-2.97c-.26.47-.56.91-.91,1.33s-.76.78-1.24,1.08c-.48.3-1.02.54-1.64.72-.62.17-1.3.26-2.04.26ZM990.98,954.34c.74,0,1.42-.15,2.02-.45.6-.3,1.12-.72,1.55-1.24.43-.52.76-1.12.98-1.78.22-.66.34-1.34.37-2.04v-.11h-4.15c-1,0-1.81.12-2.42.37-.62.24-1.06.58-1.34.99s-.42.91-.42,1.47.13,1.08.4,1.48c.27.41.66.73,1.17.96.51.23,1.13.35,1.85.35Z"/>
            <path d="M1005.95,935.84c-.68,0-1.23-.21-1.66-.63-.43-.42-.64-.95-.64-1.61s.21-1.15.64-1.55c.43-.41.98-.61,1.66-.61s1.2.2,1.64.61c.44.41.66.92.66,1.55s-.22,1.19-.66,1.61c-.44.42-.99.63-1.64.63ZM1004.17,956.74v-17.59h3.49v17.59h-3.49Z"/>
            <path d="M1012.65,956.74v-17.59h3.14l.21,3c.56-1.05,1.35-1.88,2.37-2.5,1.02-.62,2.2-.92,3.53-.92,1.4,0,2.59.28,3.59.84,1,.56,1.78,1.4,2.34,2.53.56,1.13.84,2.54.84,4.24v10.4h-3.49v-10.05c0-1.63-.36-2.86-1.08-3.7-.72-.84-1.77-1.26-3.14-1.26-.91,0-1.72.21-2.44.65-.72.43-1.3,1.06-1.73,1.9-.43.84-.64,1.86-.64,3.07v9.39h-3.49Z"/>
          </g>
        </g>
      </g>
      <line class="cls-7" x1="857.13" y1="946.54" x2="699.73" y2="946.54"/>
      <line class="cls-7" x1="1201.53" y1="946.54" x2="1044.13" y2="946.54"/>
    </g>
  </g>
  <g>
    <g class="cls-13">
      <path class="cls-1" d="M147.67,622.94l7.68-21h4.59l7.65,21h-4.29l-5.67-16.38-5.7,16.38h-4.26ZM151.06,618.17l1.08-3.15h10.68l1.05,3.15h-12.81Z"/>
    </g>
    <g class="cls-13">
      <path class="cls-1" d="M185.98,612.65v-3.54h12.87v3.54h-12.87ZM185.98,619.37v-3.54h12.87v3.54h-12.87Z"/>
      <path class="cls-1" d="M215.86,622.94l7.68-21h4.59l7.65,21h-4.29l-5.67-16.38-5.7,16.38h-4.26ZM219.25,618.17l1.08-3.15h10.68l1.05,3.15h-12.81Z"/>
      <path class="cls-1" d="M238.45,622.94v-21.6h4.05v21.6h-4.05Z"/>
      <path class="cls-1" d="M248.59,605.75c-.72,0-1.32-.21-1.79-.64-.47-.43-.71-.97-.71-1.63s.23-1.21.71-1.64c.47-.43,1.06-.64,1.79-.64s1.34.21,1.81.64c.47.43.71.98.71,1.64s-.24,1.21-.71,1.63c-.47.43-1.08.64-1.81.64ZM246.55,622.94v-15.12h4.05v15.12h-4.05Z"/>
      <path class="cls-1" d="M262,623.3c-1.52,0-2.87-.34-4.05-1.02s-2.1-1.61-2.76-2.79c-.66-1.18-.99-2.53-.99-4.05s.33-2.93.99-4.12c.66-1.19,1.58-2.13,2.76-2.82,1.18-.69,2.53-1.04,4.05-1.04,1.94,0,3.57.51,4.89,1.53,1.32,1.02,2.16,2.42,2.52,4.2h-4.29c-.18-.7-.55-1.25-1.12-1.65-.57-.4-1.25-.6-2.03-.6-.7,0-1.32.18-1.88.53-.55.35-.98.86-1.29,1.53-.31.67-.46,1.47-.46,2.39,0,.7.09,1.33.27,1.88s.43,1.02.75,1.41c.32.39.71.69,1.15.89.45.2.94.3,1.46.3s1-.09,1.43-.27c.43-.18.79-.43,1.09-.76s.51-.74.63-1.21h4.29c-.36,1.74-1.21,3.12-2.54,4.16s-2.95,1.54-4.88,1.54Z"/>
      <path class="cls-1" d="M280.15,623.3c-1.52,0-2.87-.33-4.04-.98-1.17-.65-2.08-1.56-2.73-2.73-.65-1.17-.98-2.53-.98-4.07s.32-2.97.96-4.18c.64-1.21,1.54-2.16,2.71-2.85,1.17-.69,2.52-1.04,4.06-1.04s2.81.33,3.93.99c1.12.66,1.99,1.55,2.61,2.67.62,1.12.93,2.39.93,3.81v.67c0,.25-.02.5-.06.76h-12.27v-2.46h8.25c-.06-.98-.41-1.75-1.04-2.31-.63-.56-1.42-.84-2.36-.84-.68,0-1.31.16-1.89.46-.58.31-1.04.79-1.37,1.42-.33.64-.5,1.45-.5,2.43v.87c0,.82.15,1.54.46,2.15s.75,1.08,1.3,1.41c.56.33,1.21.49,1.95.49s1.35-.16,1.84-.48c.49-.32.85-.73,1.09-1.23h4.14c-.28.94-.75,1.79-1.41,2.55s-1.47,1.36-2.43,1.8c-.96.44-2.03.66-3.21.66Z"/>
      <path class="cls-1" d="M303.19,627.29c-1.12-1.14-2.12-2.44-3-3.92-.88-1.47-1.56-3.08-2.05-4.84-.49-1.76-.73-3.62-.73-5.58s.24-3.84.73-5.59,1.17-3.36,2.05-4.84c.88-1.48,1.88-2.78,3-3.9h4.02v.39c-1.2,1.26-2.24,2.64-3.1,4.14-.87,1.5-1.54,3.08-2.03,4.72-.48,1.65-.72,3.34-.72,5.08s.24,3.44.72,5.08c.48,1.65,1.16,3.22,2.04,4.71.88,1.49,1.91,2.88,3.09,4.16v.39h-4.02Z"/>
      <path class="cls-1" d="M315.73,623.3c-1.38,0-2.58-.22-3.6-.66-1.02-.44-1.82-1.05-2.4-1.83s-.91-1.66-.99-2.64h4.02c.1.38.27.72.51,1.03.24.31.56.56.96.74s.88.27,1.44.27.98-.07,1.32-.22.59-.35.77-.62c.17-.26.25-.53.25-.81,0-.42-.12-.75-.36-.98-.24-.23-.59-.41-1.05-.55-.46-.14-1.02-.28-1.68-.42-.72-.14-1.42-.31-2.12-.53-.69-.21-1.3-.47-1.84-.79-.54-.32-.97-.73-1.29-1.23s-.48-1.12-.48-1.86c0-.9.24-1.71.72-2.42.48-.71,1.18-1.27,2.1-1.69s2.03-.63,3.33-.63c1.82,0,3.26.41,4.32,1.23s1.69,1.95,1.89,3.39h-3.81c-.12-.46-.38-.82-.79-1.09-.41-.27-.96-.41-1.63-.41-.72,0-1.27.13-1.65.39s-.57.6-.57,1.02c0,.28.12.53.38.75.25.22.61.41,1.07.56.46.15,1.02.29,1.68.43,1.16.24,2.18.51,3.06.83s1.57.75,2.07,1.32c.5.57.75,1.4.75,2.48,0,.96-.26,1.81-.78,2.56-.52.75-1.26,1.33-2.21,1.76-.95.42-2.08.63-3.38.63Z"/>
      <path class="cls-1" d="M332.77,623.3c-1.52,0-2.87-.33-4.04-.98-1.17-.65-2.08-1.56-2.73-2.73-.65-1.17-.98-2.53-.98-4.07s.32-2.97.96-4.18c.64-1.21,1.54-2.16,2.71-2.85,1.17-.69,2.53-1.04,4.07-1.04s2.81.33,3.93.99,1.99,1.55,2.61,2.67c.62,1.12.93,2.39.93,3.81v.67c0,.25-.02.5-.06.76h-12.27v-2.46h8.25c-.06-.98-.4-1.75-1.04-2.31-.63-.56-1.42-.84-2.35-.84-.68,0-1.31.16-1.89.46-.58.31-1.04.79-1.37,1.42-.33.64-.5,1.45-.5,2.43v.87c0,.82.15,1.54.46,2.15.31.61.75,1.08,1.3,1.41.56.33,1.21.49,1.95.49s1.35-.16,1.85-.48c.49-.32.85-.73,1.09-1.23h4.14c-.28.94-.75,1.79-1.41,2.55s-1.47,1.36-2.43,1.8-2.03.66-3.21.66Z"/>
      <path class="cls-1" d="M343.57,622.94v-15.12h3.57l.3,2.46c.46-.84,1.12-1.52,1.96-2.04.85-.52,1.87-.78,3.04-.78,1.26,0,2.32.26,3.18.78.86.52,1.51,1.28,1.96,2.28s.67,2.23.67,3.69v8.73h-4.02v-8.34c0-1.2-.26-2.12-.77-2.76-.51-.64-1.29-.96-2.35-.96-.68,0-1.29.16-1.82.48-.53.32-.95.78-1.24,1.37-.3.59-.45,1.3-.45,2.14v8.07h-4.05Z"/>
      <path class="cls-1" d="M368.8,623.3c-1.38,0-2.62-.34-3.71-1.02-1.09-.68-1.95-1.62-2.57-2.82-.62-1.2-.93-2.55-.93-4.05s.31-2.9.95-4.09c.63-1.19,1.5-2.13,2.61-2.82,1.11-.69,2.36-1.04,3.74-1.04,1.08,0,2.03.2,2.85.6.82.4,1.48.97,1.98,1.71v-8.43h4.05v21.6h-3.6l-.45-2.07c-.3.42-.67.82-1.12,1.2s-.99.68-1.6.9c-.62.22-1.35.33-2.19.33ZM369.76,619.76c.8,0,1.5-.18,2.12-.56.61-.37,1.08-.88,1.42-1.54.34-.66.51-1.42.51-2.28s-.17-1.62-.51-2.28c-.34-.66-.82-1.17-1.42-1.54-.61-.37-1.32-.56-2.12-.56s-1.45.19-2.07.56c-.62.37-1.11.88-1.46,1.54s-.53,1.41-.53,2.25.18,1.65.53,2.31.83,1.18,1.44,1.54c.61.37,1.3.56,2.08.56Z"/>
      <path class="cls-1" d="M388.99,623.3c-1.52,0-2.87-.33-4.04-.98-1.17-.65-2.08-1.56-2.73-2.73-.65-1.17-.97-2.53-.97-4.07s.32-2.97.96-4.18c.64-1.21,1.54-2.16,2.71-2.85,1.17-.69,2.53-1.04,4.07-1.04s2.81.33,3.93.99c1.12.66,1.99,1.55,2.61,2.67.62,1.12.93,2.39.93,3.81v.67c0,.25-.02.5-.06.76h-12.27v-2.46h8.25c-.06-.98-.4-1.75-1.03-2.31s-1.42-.84-2.35-.84c-.68,0-1.31.16-1.89.46-.58.31-1.04.79-1.37,1.42-.33.64-.49,1.45-.49,2.43v.87c0,.82.15,1.54.46,2.15.31.61.74,1.08,1.3,1.41.56.33,1.21.49,1.95.49s1.36-.16,1.85-.48c.49-.32.86-.73,1.09-1.23h4.14c-.28.94-.75,1.79-1.41,2.55-.66.76-1.47,1.36-2.43,1.8-.96.44-2.03.66-3.21.66Z"/>
      <path class="cls-1" d="M399.79,622.94v-15.12h3.6l.39,2.79c.36-.66.81-1.22,1.37-1.68.55-.46,1.18-.82,1.89-1.08s1.5-.39,2.35-.39v4.29h-1.38c-.6,0-1.16.07-1.67.21-.51.14-.96.37-1.33.68-.38.31-.67.73-.87,1.27-.2.54-.3,1.22-.3,2.04v6.99h-4.05Z"/>
      <path class="cls-1" d="M415.06,627.29h-4.05v-.39c1.2-1.28,2.24-2.67,3.12-4.16.88-1.49,1.55-3.06,2.03-4.71.47-1.65.71-3.34.71-5.08s-.24-3.43-.71-5.08c-.47-1.65-1.15-3.22-2.03-4.72s-1.92-2.88-3.12-4.14v-.39h4.05c1.12,1.12,2.12,2.42,2.99,3.9s1.56,3.09,2.06,4.84c.5,1.75.75,3.62.75,5.59s-.25,3.82-.75,5.58c-.5,1.76-1.19,3.38-2.06,4.84-.87,1.47-1.87,2.78-2.99,3.92Z"/>
    </g>
  </g>
  <g>
    <g class="cls-13">
      <path class="cls-14" d="M158.59,735.55c-1.52,0-2.88-.26-4.07-.78-1.19-.52-2.13-1.28-2.82-2.28-.69-1-1.05-2.21-1.07-3.63h4.29c.02.62.18,1.18.48,1.68.3.5.71.9,1.25,1.19.53.29,1.16.43,1.9.43.64,0,1.2-.1,1.67-.31.47-.21.83-.5,1.09-.89.26-.38.39-.83.39-1.35,0-.6-.14-1.1-.44-1.5-.29-.4-.69-.74-1.2-1.02s-1.1-.54-1.77-.77c-.67-.23-1.38-.47-2.12-.73-1.66-.54-2.93-1.26-3.79-2.16-.87-.9-1.31-2.09-1.31-3.57,0-1.26.3-2.34.92-3.24.61-.9,1.46-1.59,2.54-2.07,1.08-.48,2.31-.72,3.69-.72s2.67.25,3.74.74,1.92,1.2,2.55,2.12c.63.92.96,2,.98,3.24h-4.32c-.02-.46-.16-.9-.41-1.31-.25-.41-.59-.74-1.04-.99-.44-.25-.96-.38-1.56-.38-.52-.02-1,.06-1.42.24-.43.18-.77.45-1.02.79-.25.35-.38.79-.38,1.31s.12.92.38,1.26c.25.34.59.63,1.04.88.44.25.96.48,1.56.69.6.21,1.25.42,1.95.64,1.04.36,2,.79,2.88,1.28.88.49,1.58,1.12,2.1,1.9.52.78.78,1.81.78,3.09,0,1.1-.29,2.12-.87,3.06-.58.94-1.42,1.7-2.5,2.28s-2.45.87-4.07.87Z"/>
    </g>
    <g class="cls-13">
      <path class="cls-14" d="M185.98,724.9v-3.54h12.87v3.54h-12.87ZM185.98,731.62v-3.54h12.87v3.54h-12.87Z"/>
      <path class="cls-14" d="M215.86,735.19l7.68-21h4.59l7.65,21h-4.29l-5.67-16.38-5.7,16.38h-4.26ZM219.25,730.42l1.08-3.15h10.68l1.05,3.15h-12.81Z"/>
      <path class="cls-14" d="M238.45,735.19v-15.12h3.6l.39,2.79c.36-.66.81-1.22,1.37-1.68.55-.46,1.18-.82,1.89-1.08.71-.26,1.49-.39,2.35-.39v4.29h-1.38c-.6,0-1.16.07-1.67.21-.51.14-.96.37-1.33.68-.38.31-.67.73-.87,1.27s-.3,1.22-.3,2.04v6.99h-4.05Z"/>
      <path class="cls-14" d="M250.72,735.19v-21.6h4.05v21.6h-4.05ZM260.62,735.19l-6.45-8.28,5.79-6.84h4.77l-7.47,8.55v-3.21l8.4,9.78h-5.04Z"/>
      <path class="cls-14" d="M281.29,735.55c-1.38,0-2.58-.22-3.6-.66-1.02-.44-1.82-1.05-2.4-1.83s-.91-1.66-.99-2.64h4.02c.1.38.27.72.51,1.03.24.31.56.56.96.74s.88.27,1.44.27.98-.07,1.32-.22.59-.35.77-.62c.17-.26.25-.53.25-.81,0-.42-.12-.75-.36-.98-.24-.23-.59-.41-1.05-.55-.46-.14-1.02-.28-1.68-.42-.72-.14-1.42-.31-2.12-.53-.69-.21-1.3-.47-1.84-.79-.54-.32-.97-.73-1.29-1.23s-.48-1.12-.48-1.86c0-.9.24-1.71.72-2.42.48-.71,1.18-1.27,2.1-1.69s2.03-.63,3.33-.63c1.82,0,3.26.41,4.32,1.23s1.69,1.95,1.89,3.39h-3.81c-.12-.46-.38-.82-.79-1.09-.41-.27-.96-.41-1.63-.41-.72,0-1.27.13-1.65.39s-.57.6-.57,1.02c0,.28.12.53.38.75.25.22.61.41,1.07.56.46.15,1.02.29,1.68.43,1.16.24,2.18.51,3.06.83s1.57.75,2.07,1.32c.5.57.75,1.4.75,2.48,0,.96-.26,1.81-.78,2.56-.52.75-1.26,1.33-2.21,1.76-.95.42-2.08.63-3.38.63Z"/>
      <path class="cls-14" d="M298.33,735.55c-1.52,0-2.87-.33-4.04-.98-1.17-.65-2.08-1.56-2.73-2.73-.65-1.17-.98-2.53-.98-4.07s.32-2.97.96-4.18c.64-1.21,1.54-2.16,2.71-2.85,1.17-.69,2.53-1.04,4.07-1.04s2.81.33,3.93.99,1.99,1.55,2.61,2.67c.62,1.12.93,2.39.93,3.81v.67c0,.25-.02.5-.06.76h-12.27v-2.46h8.25c-.06-.98-.4-1.75-1.04-2.31-.63-.56-1.42-.84-2.35-.84-.68,0-1.31.16-1.89.46-.58.31-1.04.79-1.37,1.42-.33.64-.5,1.45-.5,2.43v.87c0,.82.15,1.54.46,2.15.31.61.75,1.08,1.3,1.41.56.33,1.21.49,1.95.49s1.35-.16,1.85-.48c.49-.32.85-.73,1.09-1.23h4.14c-.28.94-.75,1.79-1.41,2.55s-1.47,1.36-2.43,1.8-2.03.66-3.21.66Z"/>
      <path class="cls-14" d="M309.13,735.19v-15.12h3.6l.39,2.79c.36-.66.81-1.22,1.36-1.68s1.18-.82,1.89-1.08,1.5-.39,2.36-.39v4.29h-1.38c-.6,0-1.16.07-1.67.21-.51.14-.96.37-1.33.68-.38.31-.67.73-.87,1.27-.2.54-.3,1.22-.3,2.04v6.99h-4.05Z"/>
      <path class="cls-14" d="M325.45,735.19l-5.55-15.12h4.26l3.75,11.31,3.75-11.31h4.23l-5.52,15.12h-4.92Z"/>
      <path class="cls-14" d="M344.92,735.55c-1.52,0-2.87-.33-4.04-.98-1.17-.65-2.08-1.56-2.73-2.73-.65-1.17-.98-2.53-.98-4.07s.32-2.97.96-4.18c.64-1.21,1.54-2.16,2.71-2.85,1.17-.69,2.52-1.04,4.06-1.04s2.81.33,3.93.99c1.12.66,1.99,1.55,2.61,2.67.62,1.12.93,2.39.93,3.81v.67c0,.25-.02.5-.06.76h-12.27v-2.46h8.25c-.06-.98-.41-1.75-1.04-2.31-.63-.56-1.42-.84-2.36-.84-.68,0-1.31.16-1.89.46-.58.31-1.04.79-1.37,1.42-.33.64-.5,1.45-.5,2.43v.87c0,.82.15,1.54.46,2.15s.75,1.08,1.3,1.41c.56.33,1.21.49,1.95.49s1.35-.16,1.84-.48c.49-.32.85-.73,1.09-1.23h4.14c-.28.94-.75,1.79-1.41,2.55s-1.47,1.36-2.43,1.8c-.96.44-2.03.66-3.21.66Z"/>
      <path class="cls-14" d="M355.72,735.19v-15.12h3.6l.39,2.79c.36-.66.81-1.22,1.36-1.68.55-.46,1.18-.82,1.89-1.08.71-.26,1.49-.39,2.36-.39v4.29h-1.38c-.6,0-1.15.07-1.66.21-.51.14-.96.37-1.34.68-.38.31-.67.73-.87,1.27-.2.54-.3,1.22-.3,2.04v6.99h-4.05Z"/>
    </g>
  </g>
  <g>
    <g class="cls-13">
      <path class="cls-4" d="M149.38,679.06l-5.52-21h4.32l3.66,16.41,4.32-16.41h4.47l4.2,16.41,3.69-16.41h4.35l-5.67,21h-4.83l-4.02-15.3-4.17,15.3h-4.8Z"/>
    </g>
    <g class="cls-13">
      <path class="cls-4" d="M185.98,668.77v-3.54h12.87v3.54h-12.87ZM185.98,675.49v-3.54h12.87v3.54h-12.87Z"/>
      <path class="cls-4" d="M221.5,679.06l-5.52-21h4.32l3.66,16.41,4.32-16.41h4.47l4.2,16.41,3.69-16.41h4.35l-5.67,21h-4.83l-4.02-15.3-4.17,15.3h-4.8Z"/>
      <path class="cls-4" d="M253.36,679.43c-1.52,0-2.87-.33-4.04-.98-1.17-.65-2.08-1.56-2.73-2.73-.65-1.17-.98-2.53-.98-4.07s.32-2.97.96-4.18c.64-1.21,1.54-2.16,2.71-2.85,1.17-.69,2.53-1.04,4.07-1.04s2.81.33,3.93.99,1.99,1.55,2.61,2.67c.62,1.12.93,2.39.93,3.81v.67c0,.25-.02.5-.06.76h-12.27v-2.46h8.25c-.06-.98-.4-1.75-1.04-2.31-.63-.56-1.42-.84-2.35-.84-.68,0-1.31.16-1.89.46-.58.31-1.04.79-1.37,1.42-.33.64-.5,1.45-.5,2.43v.87c0,.82.15,1.54.46,2.15.31.61.75,1.08,1.3,1.41.56.33,1.21.49,1.95.49s1.35-.16,1.85-.48c.49-.32.85-.73,1.09-1.23h4.14c-.28.94-.75,1.79-1.41,2.55s-1.47,1.36-2.43,1.8-2.03.66-3.21.66Z"/>
      <path class="cls-4" d="M264.16,679.06v-15.12h3.57l.3,2.46c.46-.84,1.12-1.52,1.96-2.04.85-.52,1.87-.78,3.04-.78,1.26,0,2.32.26,3.18.78.86.52,1.51,1.28,1.96,2.28s.67,2.23.67,3.69v8.73h-4.02v-8.34c0-1.2-.26-2.12-.77-2.76-.51-.64-1.29-.96-2.35-.96-.68,0-1.29.16-1.82.48-.53.32-.95.78-1.24,1.37-.3.59-.45,1.3-.45,2.14v8.07h-4.05Z"/>
      <path class="cls-4" d="M289.39,679.43c-1.38,0-2.62-.34-3.71-1.02-1.09-.68-1.95-1.62-2.57-2.82-.62-1.2-.93-2.55-.93-4.05s.31-2.9.95-4.09c.63-1.19,1.5-2.13,2.61-2.82,1.11-.69,2.36-1.04,3.74-1.04,1.08,0,2.03.2,2.85.6.82.4,1.48.97,1.98,1.71v-8.43h4.05v21.6h-3.6l-.45-2.07c-.3.42-.67.82-1.12,1.2s-.99.68-1.6.9c-.62.22-1.35.33-2.19.33ZM290.35,675.89c.8,0,1.5-.18,2.12-.56.61-.37,1.08-.88,1.42-1.54.34-.66.51-1.42.51-2.28s-.17-1.62-.51-2.28c-.34-.66-.82-1.17-1.42-1.54-.61-.37-1.32-.56-2.12-.56s-1.45.19-2.07.56c-.62.37-1.11.88-1.46,1.54s-.53,1.41-.53,2.25.18,1.65.53,2.31.83,1.18,1.44,1.54c.61.37,1.3.56,2.08.56Z"/>
      <path class="cls-4" d="M304.24,685.66l3.66-8.28h-.9l-6.06-13.44h4.41l4.32,9.75,3.9-9.75h4.29l-9.33,21.72h-4.29Z"/>
      <path class="cls-4" d="M332.68,683.41c-1.12-1.14-2.12-2.44-3-3.92-.88-1.47-1.57-3.08-2.05-4.84-.49-1.76-.74-3.62-.74-5.58s.24-3.84.74-5.59c.49-1.75,1.17-3.36,2.05-4.84s1.88-2.78,3-3.9h4.02v.39c-1.2,1.26-2.24,2.64-3.11,4.14s-1.54,3.08-2.03,4.72c-.48,1.65-.72,3.34-.72,5.08s.24,3.44.72,5.08c.48,1.65,1.16,3.22,2.04,4.71.88,1.49,1.91,2.88,3.09,4.16v.39h-4.02Z"/>
      <path class="cls-4" d="M339.64,679.06v-15.12h3.6l.39,2.79c.36-.66.81-1.22,1.37-1.68.55-.46,1.18-.82,1.89-1.08s1.5-.39,2.35-.39v4.29h-1.38c-.6,0-1.16.07-1.67.21-.51.14-.96.37-1.33.68-.38.31-.67.73-.87,1.27-.2.54-.3,1.22-.3,2.04v6.99h-4.05Z"/>
      <path class="cls-4" d="M358.93,679.43c-1.52,0-2.87-.33-4.04-.98-1.17-.65-2.08-1.56-2.73-2.73-.65-1.17-.98-2.53-.98-4.07s.32-2.97.96-4.18c.64-1.21,1.54-2.16,2.71-2.85,1.17-.69,2.53-1.04,4.07-1.04s2.81.33,3.93.99,1.99,1.55,2.61,2.67c.62,1.12.93,2.39.93,3.81v.67c0,.25-.02.5-.06.76h-12.27v-2.46h8.25c-.06-.98-.4-1.75-1.04-2.31-.63-.56-1.42-.84-2.35-.84-.68,0-1.31.16-1.89.46-.58.31-1.04.79-1.37,1.42-.33.64-.5,1.45-.5,2.43v.87c0,.82.15,1.54.46,2.15.31.61.75,1.08,1.3,1.41.56.33,1.21.49,1.95.49s1.35-.16,1.85-.48c.49-.32.85-.73,1.09-1.23h4.14c-.28.94-.75,1.79-1.41,2.55s-1.47,1.36-2.43,1.8-2.03.66-3.21.66Z"/>
      <path class="cls-4" d="M377.05,679.43c-1.52,0-2.87-.34-4.05-1.02s-2.1-1.61-2.76-2.79c-.66-1.18-.99-2.53-.99-4.05s.33-2.93.99-4.12c.66-1.19,1.58-2.13,2.76-2.82,1.18-.69,2.53-1.04,4.05-1.04,1.94,0,3.57.51,4.89,1.53,1.32,1.02,2.16,2.42,2.52,4.2h-4.29c-.18-.7-.55-1.25-1.12-1.65-.57-.4-1.24-.6-2.02-.6-.7,0-1.33.18-1.88.53s-.98.86-1.29,1.53c-.31.67-.46,1.47-.46,2.39,0,.7.09,1.33.27,1.88s.43,1.02.75,1.41c.32.39.71.69,1.16.89s.93.3,1.46.3,1-.09,1.42-.27c.43-.18.79-.43,1.1-.76.3-.33.51-.74.63-1.21h4.29c-.36,1.74-1.21,3.12-2.54,4.16s-2.96,1.54-4.88,1.54Z"/>
      <path class="cls-4" d="M395.2,679.43c-1.52,0-2.87-.33-4.04-.98-1.17-.65-2.08-1.56-2.73-2.73-.65-1.17-.98-2.53-.98-4.07s.32-2.97.96-4.18c.64-1.21,1.54-2.16,2.71-2.85,1.17-.69,2.53-1.04,4.07-1.04s2.81.33,3.93.99,1.99,1.55,2.61,2.67c.62,1.12.93,2.39.93,3.81v.67c0,.25-.02.5-.06.76h-12.27v-2.46h8.25c-.06-.98-.4-1.75-1.04-2.31-.63-.56-1.42-.84-2.35-.84-.68,0-1.31.16-1.89.46-.58.31-1.04.79-1.37,1.42-.33.64-.5,1.45-.5,2.43v.87c0,.82.15,1.54.46,2.15.31.61.75,1.08,1.3,1.41.56.33,1.21.49,1.95.49s1.35-.16,1.85-.48c.49-.32.85-.73,1.09-1.23h4.14c-.28.94-.75,1.79-1.41,2.55s-1.47,1.36-2.43,1.8-2.03.66-3.21.66Z"/>
      <path class="cls-4" d="M408.13,661.87c-.72,0-1.32-.21-1.78-.64-.47-.43-.71-.97-.71-1.63s.23-1.21.71-1.64c.47-.43,1.06-.64,1.78-.64s1.34.21,1.82.64c.47.43.71.98.71,1.64s-.24,1.21-.71,1.63c-.47.43-1.08.64-1.82.64ZM406.09,679.06v-15.12h4.05v15.12h-4.05Z"/>
      <path class="cls-4" d="M418.27,679.06l-5.55-15.12h4.26l3.75,11.31,3.75-11.31h4.23l-5.52,15.12h-4.92Z"/>
      <path class="cls-4" d="M437.74,679.43c-1.52,0-2.87-.33-4.04-.98-1.17-.65-2.08-1.56-2.73-2.73-.65-1.17-.98-2.53-.98-4.07s.32-2.97.96-4.18c.64-1.21,1.54-2.16,2.71-2.85,1.17-.69,2.53-1.04,4.07-1.04s2.81.33,3.93.99,1.99,1.55,2.61,2.67c.62,1.12.93,2.39.93,3.81v.67c0,.25-.02.5-.06.76h-12.27v-2.46h8.25c-.06-.98-.4-1.75-1.04-2.31-.63-.56-1.42-.84-2.35-.84-.68,0-1.31.16-1.89.46-.58.31-1.04.79-1.37,1.42-.33.64-.5,1.45-.5,2.43v.87c0,.82.15,1.54.46,2.15.31.61.75,1.08,1.3,1.41.56.33,1.21.49,1.95.49s1.35-.16,1.85-.48c.49-.32.85-.73,1.09-1.23h4.14c-.28.94-.75,1.79-1.41,2.55s-1.47,1.36-2.43,1.8-2.03.66-3.21.66Z"/>
      <path class="cls-4" d="M448.54,679.06v-15.12h3.6l.39,2.79c.36-.66.81-1.22,1.37-1.68.55-.46,1.18-.82,1.89-1.08s1.5-.39,2.35-.39v4.29h-1.38c-.6,0-1.16.07-1.67.21-.51.14-.96.37-1.33.68-.38.31-.67.73-.87,1.27-.2.54-.3,1.22-.3,2.04v6.99h-4.05Z"/>
      <path class="cls-4" d="M463.81,683.41h-4.05v-.39c1.2-1.28,2.24-2.67,3.12-4.16.88-1.49,1.55-3.06,2.03-4.71.47-1.65.7-3.34.7-5.08s-.24-3.43-.7-5.08c-.47-1.65-1.15-3.22-2.03-4.72-.88-1.5-1.92-2.88-3.12-4.14v-.39h4.05c1.12,1.12,2.12,2.42,2.98,3.9.87,1.48,1.56,3.09,2.06,4.84.5,1.75.75,3.62.75,5.59s-.25,3.82-.75,5.58c-.5,1.76-1.18,3.38-2.06,4.84-.87,1.47-1.87,2.78-2.98,3.92Z"/>
    </g>
  </g>
  <g id="Layer_1" data-name="Layer 1">
    <g>
      <rect class="cls-1" x="1039.53" y="379.83" width="5.91" height="2.67"/>
      <g>
        <path class="cls-2" d="M1034.34,379.09l2.71.57c.13-.6.34-1.18.6-1.72l-2.48-1.23c-.37.75-.66,1.54-.83,2.37h0Z"/>
        <path class="cls-2" d="M1039.78,372.17l1.2,2.49c.52-.25,1.06-.44,1.64-.57l-.57-2.71c-.8.17-1.55.44-2.27.78h0Z"/>
        <path class="cls-2" d="M1044.11,371.17v2.77c3.98,0,7.22,3.23,7.22,7.22s-3.23,7.22-7.22,7.22-7.22-3.23-7.22-7.22h-2.77c0,5.52,4.47,9.99,9.99,9.99s9.99-4.47,9.99-9.99-4.47-9.99-9.99-9.99Z"/>
        <path class="cls-2" d="M1038.46,376.68c.36-.46.79-.87,1.25-1.24l-1.69-2.19c-.64.5-1.23,1.07-1.73,1.71l2.17,1.72Z"/>
      </g>
    </g>
  </g>
  <g id="Layer_1-2" data-name="Layer 1">
    <g>
      <rect class="cls-4" x="1044.23" y="787.45" width="5.91" height="2.67"/>
      <g>
        <path class="cls-3" d="M1039.04,786.72l2.71.57c.13-.6.34-1.18.6-1.72l-2.48-1.23c-.37.75-.66,1.54-.83,2.37h0Z"/>
        <path class="cls-3" d="M1044.48,779.79l1.2,2.49c.52-.25,1.06-.44,1.64-.57l-.57-2.71c-.8.17-1.55.44-2.27.78h0Z"/>
        <path class="cls-3" d="M1048.82,778.79v2.77c3.98,0,7.22,3.23,7.22,7.22s-3.23,7.22-7.22,7.22-7.22-3.23-7.22-7.22h-2.77c0,5.52,4.47,9.99,9.99,9.99s9.99-4.47,9.99-9.99-4.47-9.99-9.99-9.99Z"/>
        <path class="cls-3" d="M1043.16,784.31c.36-.46.79-.87,1.25-1.24l-1.69-2.19c-.64.5-1.23,1.07-1.73,1.71l2.17,1.72Z"/>
      </g>
    </g>
  </g>
  <g>
    <g class="cls-13">
      <path d="M185.98,837.14v-3.54h12.87v3.54h-12.87ZM185.98,843.86v-3.54h12.87v3.54h-12.87Z"/>
      <path d="M217.27,847.43v-21h7.83c1.7,0,3.1.29,4.2.87,1.1.58,1.92,1.36,2.46,2.33s.81,2.04.81,3.22-.26,2.17-.78,3.13c-.52.97-1.33,1.75-2.44,2.34-1.11.59-2.54.89-4.27.89h-3.75v8.22h-4.05ZM221.32,836.27h3.54c1.22,0,2.12-.3,2.7-.9.58-.6.87-1.39.87-2.37s-.29-1.75-.86-2.33c-.57-.57-1.47-.86-2.71-.86h-3.54v6.45ZM228.16,847.43l-4.32-9.24h4.38l4.56,9.24h-4.62Z"/>
      <path d="M242.47,847.79c-1.52,0-2.87-.33-4.04-.98-1.17-.65-2.08-1.56-2.73-2.73-.65-1.17-.97-2.53-.97-4.07s.32-2.97.96-4.18c.64-1.21,1.54-2.16,2.71-2.85,1.17-.69,2.53-1.04,4.07-1.04s2.81.33,3.93.99c1.12.66,1.99,1.55,2.61,2.67.62,1.12.93,2.39.93,3.81v.67c0,.25-.02.5-.06.76h-12.27v-2.46h8.25c-.06-.98-.4-1.75-1.03-2.31s-1.42-.84-2.35-.84c-.68,0-1.31.16-1.89.46-.58.31-1.04.79-1.37,1.42-.33.64-.49,1.45-.49,2.43v.87c0,.82.15,1.54.46,2.15.31.61.74,1.08,1.3,1.41.56.33,1.21.49,1.95.49s1.36-.16,1.85-.48c.49-.32.86-.73,1.09-1.23h4.14c-.28.94-.75,1.79-1.41,2.55-.66.76-1.47,1.36-2.43,1.8-.96.44-2.03.66-3.21.66Z"/>
      <path d="M253.27,847.43v-21.6h4.05v21.6h-4.05Z"/>
      <path d="M266.38,847.79c-1.26,0-2.3-.21-3.12-.62-.82-.41-1.43-.96-1.82-1.65-.39-.69-.58-1.46-.58-2.29,0-.92.23-1.73.71-2.43.47-.7,1.18-1.25,2.13-1.65.95-.4,2.15-.6,3.58-.6h3.75c0-.74-.1-1.35-.3-1.84s-.51-.86-.93-1.1c-.42-.24-.98-.36-1.68-.36-.76,0-1.41.17-1.94.5-.53.33-.85.83-.97,1.51h-3.93c.1-1.08.46-2.01,1.06-2.8.61-.79,1.42-1.41,2.43-1.85,1.01-.44,2.13-.66,3.38-.66,1.42,0,2.65.24,3.69.72,1.04.48,1.84,1.17,2.4,2.07.56.9.84,2.01.84,3.33v9.36h-3.42l-.45-2.31c-.22.4-.48.76-.78,1.08-.3.32-.65.6-1.05.84-.4.24-.85.42-1.35.55s-1.05.2-1.65.2ZM267.34,844.67c.52,0,.98-.09,1.39-.29.41-.19.77-.45,1.06-.78.3-.33.54-.71.71-1.14s.29-.89.35-1.4v-.03h-3.09c-.62,0-1.12.07-1.52.22-.39.15-.67.37-.86.65-.18.28-.27.6-.27.96,0,.4.09.73.27.99.18.26.44.46.78.6.34.14.73.21,1.17.21Z"/>
      <path d="M285.49,847.43c-1.06,0-1.99-.17-2.78-.5-.79-.33-1.41-.88-1.85-1.65-.44-.77-.66-1.83-.66-3.17v-6.42h-2.58v-3.39h2.58l.45-4.11h3.6v4.11h3.99v3.39h-3.99v6.48c0,.68.15,1.15.45,1.41.3.26.81.39,1.53.39h1.98v3.45h-2.73Z"/>
      <path d="M293.8,830.24c-.72,0-1.31-.21-1.78-.64-.47-.43-.71-.97-.71-1.63s.24-1.21.71-1.64c.47-.43,1.07-.64,1.78-.64s1.35.21,1.82.64c.47.43.71.98.71,1.64s-.24,1.21-.71,1.63c-.47.43-1.08.64-1.82.64ZM291.76,847.43v-15.12h4.05v15.12h-4.05Z"/>
      <path d="M303.94,847.43l-5.55-15.12h4.26l3.75,11.31,3.75-11.31h4.23l-5.52,15.12h-4.92Z"/>
      <path d="M323.41,847.79c-1.52,0-2.87-.33-4.04-.98-1.17-.65-2.08-1.56-2.73-2.73-.65-1.17-.98-2.53-.98-4.07s.32-2.97.96-4.18c.64-1.21,1.54-2.16,2.71-2.85,1.17-.69,2.53-1.04,4.07-1.04s2.81.33,3.93.99,1.99,1.55,2.61,2.67c.62,1.12.93,2.39.93,3.81v.67c0,.25-.02.5-.06.76h-12.27v-2.46h8.25c-.06-.98-.4-1.75-1.04-2.31-.63-.56-1.42-.84-2.35-.84-.68,0-1.31.16-1.89.46-.58.31-1.04.79-1.37,1.42-.33.64-.5,1.45-.5,2.43v.87c0,.82.15,1.54.46,2.15.31.61.75,1.08,1.3,1.41.56.33,1.21.49,1.95.49s1.35-.16,1.85-.48c.49-.32.85-.73,1.09-1.23h4.14c-.28.94-.75,1.79-1.41,2.55s-1.47,1.36-2.43,1.8-2.03.66-3.21.66Z"/>
      <path d="M348.07,847.43c-1.06,0-1.99-.17-2.78-.5s-1.4-.88-1.84-1.65c-.44-.77-.66-1.83-.66-3.17v-6.42h-2.58v-3.39h2.58l.45-4.11h3.6v4.11h3.99v3.39h-3.99v6.48c0,.68.15,1.15.45,1.41s.81.39,1.53.39h1.98v3.45h-2.73Z"/>
      <path d="M356.38,830.24c-.72,0-1.32-.21-1.78-.64-.47-.43-.71-.97-.71-1.63s.23-1.21.71-1.64c.47-.43,1.06-.64,1.78-.64s1.34.21,1.82.64c.47.43.71.98.71,1.64s-.24,1.21-.71,1.63c-.47.43-1.08.64-1.82.64ZM354.34,847.43v-15.12h4.05v15.12h-4.05Z"/>
      <path d="M362.47,847.43v-15.12h3.57l.33,2.01c.48-.72,1.12-1.29,1.91-1.72.79-.43,1.69-.65,2.71-.65.76,0,1.44.1,2.04.3.6.2,1.13.49,1.61.87.47.38.86.86,1.15,1.44.56-.82,1.29-1.46,2.19-1.92.9-.46,1.88-.69,2.94-.69,1.32,0,2.42.27,3.3.8.88.53,1.54,1.29,2,2.29.45,1,.67,2.23.67,3.69v8.7h-4.02v-8.34c0-1.2-.23-2.12-.71-2.76-.47-.64-1.2-.96-2.17-.96-.64,0-1.21.16-1.71.48-.5.32-.88.78-1.15,1.38-.27.6-.41,1.32-.41,2.16v8.04h-4.05v-8.34c0-1.2-.24-2.12-.72-2.76-.48-.64-1.22-.96-2.22-.96-.62,0-1.18.16-1.67.48-.49.32-.87.78-1.14,1.38-.27.6-.41,1.32-.41,2.16v8.04h-4.05Z"/>
      <path d="M397.96,847.79c-1.52,0-2.87-.33-4.04-.98-1.17-.65-2.08-1.56-2.73-2.73-.65-1.17-.98-2.53-.98-4.07s.32-2.97.96-4.18c.64-1.21,1.54-2.16,2.71-2.85,1.17-.69,2.52-1.04,4.06-1.04s2.81.33,3.93.99c1.12.66,1.99,1.55,2.61,2.67.62,1.12.93,2.39.93,3.81v.67c0,.25-.02.5-.06.76h-12.27v-2.46h8.25c-.06-.98-.41-1.75-1.04-2.31-.63-.56-1.42-.84-2.36-.84-.68,0-1.31.16-1.89.46-.58.31-1.04.79-1.37,1.42-.33.64-.5,1.45-.5,2.43v.87c0,.82.15,1.54.46,2.15s.75,1.08,1.3,1.41c.56.33,1.21.49,1.95.49s1.35-.16,1.84-.48c.49-.32.85-.73,1.09-1.23h4.14c-.28.94-.75,1.79-1.41,2.55s-1.47,1.36-2.43,1.8c-.96.44-2.03.66-3.21.66Z"/>
      <path d="M408.76,847.43v-21.6h4.05v21.6h-4.05Z"/>
      <path d="M423.91,847.79c-1.44,0-2.74-.34-3.89-1-1.15-.67-2.06-1.6-2.73-2.79-.67-1.19-1-2.55-1-4.1s.33-2.96,1-4.15c.67-1.19,1.58-2.12,2.75-2.79s2.46-1.01,3.9-1.01,2.76.34,3.91,1.01,2.06,1.6,2.73,2.79c.67,1.19,1,2.56,1,4.12s-.33,2.93-1,4.12c-.67,1.19-1.59,2.12-2.75,2.79-1.16.67-2.47,1-3.93,1ZM423.91,844.28c.68,0,1.28-.16,1.82-.48.53-.32.95-.81,1.26-1.47.31-.66.46-1.48.46-2.46s-.16-1.79-.46-2.45c-.31-.65-.73-1.14-1.26-1.47-.53-.33-1.12-.5-1.79-.5s-1.23.17-1.77.5-.96.82-1.27,1.47c-.31.65-.46,1.46-.46,2.45s.15,1.8.46,2.46c.31.66.73,1.15,1.26,1.47.53.32,1.11.48,1.75.48Z"/>
      <path d="M442.39,847.79c-1.52,0-2.87-.34-4.05-1.02-1.18-.68-2.1-1.61-2.76-2.79-.66-1.18-.99-2.53-.99-4.05s.33-2.93.99-4.12c.66-1.19,1.58-2.13,2.76-2.82,1.18-.69,2.53-1.04,4.05-1.04,1.94,0,3.57.51,4.89,1.53,1.32,1.02,2.16,2.42,2.52,4.2h-4.29c-.18-.7-.55-1.25-1.12-1.65-.57-.4-1.25-.6-2.02-.6-.7,0-1.33.18-1.88.53-.55.35-.98.86-1.29,1.53-.31.67-.46,1.47-.46,2.39,0,.7.09,1.33.27,1.88.18.55.43,1.02.75,1.41.32.39.71.69,1.16.89.45.2.93.3,1.46.3s.99-.09,1.42-.27c.43-.18.8-.43,1.1-.76s.51-.74.63-1.21h4.29c-.36,1.74-1.21,3.12-2.54,4.16s-2.96,1.54-4.88,1.54Z"/>
      <path d="M453.28,847.43v-21.6h4.05v21.6h-4.05ZM463.18,847.43l-6.45-8.28,5.79-6.84h4.77l-7.47,8.55v-3.21l8.4,9.78h-5.04Z"/>
    </g>
    <g id="Layer_1-3" data-name="Layer 1">
      <g>
        <rect class="cls-15" x="152.84" y="837.02" width="7.1" height="3.2"/>
        <g>
          <path class="cls-6" d="M146.61,836.14l3.26.69c.15-.73.4-1.41.72-2.06l-2.98-1.48c-.45.9-.79,1.85-1,2.85h0Z"/>
          <path class="cls-6" d="M153.14,827.82l1.45,3c.62-.3,1.28-.53,1.97-.68l-.69-3.26c-.96.2-1.86.53-2.73.94h0Z"/>
          <path class="cls-6" d="M158.35,826.62v3.33c4.79,0,8.67,3.88,8.67,8.67s-3.88,8.67-8.67,8.67-8.67-3.88-8.67-8.67h-3.33c0,6.63,5.37,12,12,12s12-5.37,12-12-5.37-12-12-12Z"/>
          <path class="cls-6" d="M151.55,833.25c.44-.55.95-1.05,1.5-1.48l-2.03-2.63c-.77.6-1.48,1.29-2.08,2.05l2.61,2.06Z"/>
        </g>
      </g>
    </g>
  </g>
  <g id="Layer_1-4" data-name="Layer 1">
    <g>
      <path class="cls-5" d="M482.49,371.17c-5.52,0-9.99,4.47-9.99,9.99s4.47,9.99,9.99,9.99,9.99-4.47,9.99-9.99-4.47-9.99-9.99-9.99ZM482.49,388.38c-3.99,0-7.22-3.23-7.22-7.22s3.23-7.22,7.22-7.22,7.22,3.23,7.22,7.22-3.23,7.22-7.22,7.22Z"/>
      <polygon class="cls-5" points="483.83 376.18 481.16 376.18 481.16 382.49 481.22 382.49 483.83 382.49 487.13 382.49 487.13 379.82 483.83 379.82 483.83 376.18"/>
    </g>
  </g>
  <g>
    <g class="cls-13">
      <path d="M185.98,781.02v-3.54h12.87v3.54h-12.87ZM185.98,787.74v-3.54h12.87v3.54h-12.87Z"/>
      <path d="M215.86,791.31l7.68-21h4.59l7.65,21h-4.29l-5.67-16.38-5.7,16.38h-4.26ZM219.25,786.54l1.08-3.15h10.68l1.05,3.15h-12.81Z"/>
      <path d="M247.39,791.67c-.78,0-1.48-.1-2.08-.3-.61-.2-1.15-.47-1.62-.82s-.87-.75-1.18-1.19l-.45,1.95h-3.6v-21.6h4.05v8.58c.48-.7,1.11-1.29,1.9-1.76.79-.47,1.78-.71,2.96-.71,1.4,0,2.64.35,3.74,1.04,1.09.69,1.95,1.63,2.58,2.82.63,1.19.94,2.55.94,4.09s-.31,2.85-.94,4.05c-.63,1.2-1.49,2.14-2.57,2.82s-2.32,1.02-3.72,1.02ZM246.43,788.13c.8,0,1.5-.18,2.12-.56.61-.37,1.08-.88,1.42-1.53.34-.65.51-1.41.51-2.27s-.17-1.62-.51-2.29c-.34-.67-.82-1.19-1.42-1.56-.61-.37-1.32-.56-2.12-.56s-1.47.19-2.08.56-1.09.88-1.44,1.54-.52,1.42-.52,2.28.17,1.62.52,2.29.83,1.18,1.44,1.54c.61.36,1.31.54,2.08.54Z"/>
      <path d="M264.28,791.67c-1.38,0-2.58-.22-3.6-.66s-1.82-1.05-2.4-1.83-.91-1.66-.99-2.64h4.02c.1.38.27.72.51,1.03.24.31.56.56.96.74s.88.27,1.44.27.98-.07,1.32-.22.6-.35.77-.62c.17-.26.25-.53.25-.81,0-.42-.12-.75-.36-.98-.24-.23-.59-.41-1.05-.55-.46-.14-1.02-.28-1.68-.42-.72-.14-1.42-.31-2.12-.53-.69-.21-1.3-.47-1.84-.79-.54-.32-.97-.73-1.29-1.23-.32-.5-.48-1.12-.48-1.86,0-.9.24-1.71.72-2.42.48-.71,1.18-1.27,2.1-1.69s2.03-.63,3.33-.63c1.82,0,3.26.41,4.32,1.23,1.06.82,1.69,1.95,1.89,3.39h-3.81c-.12-.46-.38-.82-.79-1.09-.41-.27-.96-.41-1.63-.41-.72,0-1.27.13-1.65.39-.38.26-.57.6-.57,1.02,0,.28.12.53.38.75.25.22.6.41,1.07.56.46.15,1.02.29,1.68.43,1.16.24,2.18.51,3.06.83.88.31,1.57.75,2.07,1.32.5.57.75,1.4.75,2.48,0,.96-.26,1.81-.78,2.56s-1.25,1.33-2.21,1.76c-.95.42-2.07.63-3.38.63Z"/>
      <path d="M281.2,791.67c-1.44,0-2.73-.34-3.88-1-1.15-.67-2.06-1.6-2.73-2.79-.67-1.19-1-2.55-1-4.1s.33-2.96,1-4.15c.67-1.19,1.59-2.12,2.75-2.79,1.16-.67,2.46-1.01,3.9-1.01s2.76.34,3.92,1.01,2.06,1.6,2.73,2.79c.67,1.19,1,2.56,1,4.12s-.33,2.93-1,4.12c-.67,1.19-1.59,2.12-2.75,2.79-1.16.67-2.47,1-3.93,1ZM281.2,788.16c.68,0,1.29-.16,1.82-.48.53-.32.95-.81,1.26-1.47.31-.66.47-1.48.47-2.46s-.16-1.79-.47-2.45c-.31-.65-.73-1.14-1.26-1.47s-1.12-.5-1.79-.5-1.23.17-1.77.5c-.54.33-.96.82-1.27,1.47-.31.65-.46,1.46-.46,2.45s.16,1.8.46,2.46c.31.66.73,1.15,1.26,1.47.53.32,1.11.48,1.75.48Z"/>
      <path d="M292.36,791.31v-21.6h4.05v21.6h-4.05Z"/>
      <path d="M306.01,791.67c-1.22,0-2.27-.25-3.14-.77-.87-.51-1.54-1.26-2-2.25-.46-.99-.69-2.21-.69-3.67v-8.79h4.05v8.37c0,1.22.25,2.14.76,2.76.51.62,1.29.93,2.36.93.68,0,1.28-.16,1.8-.47.52-.31.93-.76,1.25-1.35.31-.59.46-1.31.46-2.17v-8.07h4.02v15.12h-3.54l-.33-2.46c-.44.86-1.09,1.54-1.95,2.05-.86.51-1.88.77-3.06.77Z"/>
      <path d="M325.66,791.31c-1.06,0-1.99-.17-2.77-.5-.79-.33-1.41-.88-1.85-1.65-.44-.77-.66-1.83-.66-3.17v-6.42h-2.58v-3.39h2.58l.45-4.11h3.6v4.11h3.99v3.39h-3.99v6.48c0,.68.15,1.15.45,1.41.3.26.81.39,1.53.39h1.98v3.45h-2.73Z"/>
      <path d="M338.71,791.67c-1.52,0-2.87-.33-4.04-.98-1.17-.65-2.08-1.56-2.73-2.73-.65-1.17-.98-2.53-.98-4.07s.32-2.97.96-4.18c.64-1.21,1.54-2.16,2.71-2.85,1.17-.69,2.53-1.04,4.07-1.04s2.81.33,3.93.99,1.99,1.55,2.61,2.67c.62,1.12.93,2.39.93,3.81v.67c0,.25-.02.5-.06.76h-12.27v-2.46h8.25c-.06-.98-.4-1.75-1.04-2.31-.63-.56-1.42-.84-2.35-.84-.68,0-1.31.16-1.89.46-.58.31-1.04.79-1.37,1.42-.33.64-.5,1.45-.5,2.43v.87c0,.82.15,1.54.46,2.15.31.61.75,1.08,1.3,1.41.56.33,1.21.49,1.95.49s1.35-.16,1.85-.48c.49-.32.85-.73,1.09-1.23h4.14c-.28.94-.75,1.79-1.41,2.55s-1.47,1.36-2.43,1.8-2.03.66-3.21.66Z"/>
      <path d="M363.37,791.31c-1.06,0-1.99-.17-2.78-.5s-1.4-.88-1.84-1.65c-.44-.77-.66-1.83-.66-3.17v-6.42h-2.58v-3.39h2.58l.45-4.11h3.6v4.11h3.99v3.39h-3.99v6.48c0,.68.15,1.15.45,1.41s.81.39,1.53.39h1.98v3.45h-2.73Z"/>
      <path d="M371.68,774.12c-.72,0-1.32-.21-1.78-.64-.47-.43-.71-.97-.71-1.63s.23-1.21.71-1.64c.47-.43,1.06-.64,1.78-.64s1.34.21,1.82.64c.47.43.71.98.71,1.64s-.24,1.21-.71,1.63c-.47.43-1.08.64-1.82.64ZM369.64,791.31v-15.12h4.05v15.12h-4.05Z"/>
      <path d="M377.77,791.31v-15.12h3.57l.33,2.01c.48-.72,1.12-1.29,1.91-1.72.79-.43,1.69-.65,2.71-.65.76,0,1.44.1,2.04.3.6.2,1.13.49,1.61.87.47.38.86.86,1.15,1.44.56-.82,1.29-1.46,2.19-1.92.9-.46,1.88-.69,2.94-.69,1.32,0,2.42.27,3.3.8.88.53,1.54,1.29,2,2.29.45,1,.67,2.23.67,3.69v8.7h-4.02v-8.34c0-1.2-.23-2.12-.71-2.76-.47-.64-1.2-.96-2.17-.96-.64,0-1.21.16-1.71.48-.5.32-.88.78-1.15,1.38-.27.6-.41,1.32-.41,2.16v8.04h-4.05v-8.34c0-1.2-.24-2.12-.72-2.76-.48-.64-1.22-.96-2.22-.96-.62,0-1.18.16-1.67.48-.49.32-.87.78-1.14,1.38-.27.6-.41,1.32-.41,2.16v8.04h-4.05Z"/>
      <path d="M413.26,791.67c-1.52,0-2.87-.33-4.04-.98-1.17-.65-2.08-1.56-2.73-2.73-.65-1.17-.98-2.53-.98-4.07s.32-2.97.96-4.18c.64-1.21,1.54-2.16,2.71-2.85,1.17-.69,2.52-1.04,4.06-1.04s2.81.33,3.93.99c1.12.66,1.99,1.55,2.61,2.67.62,1.12.93,2.39.93,3.81v.67c0,.25-.02.5-.06.76h-12.27v-2.46h8.25c-.06-.98-.41-1.75-1.04-2.31-.63-.56-1.42-.84-2.36-.84-.68,0-1.31.16-1.89.46-.58.31-1.04.79-1.37,1.42-.33.64-.5,1.45-.5,2.43v.87c0,.82.15,1.54.46,2.15s.75,1.08,1.3,1.41c.56.33,1.21.49,1.95.49s1.35-.16,1.84-.48c.49-.32.85-.73,1.09-1.23h4.14c-.28.94-.75,1.79-1.41,2.55s-1.47,1.36-2.43,1.8c-.96.44-2.03.66-3.21.66Z"/>
      <path d="M424.06,791.31v-21.6h4.05v21.6h-4.05Z"/>
      <path d="M439.21,791.67c-1.44,0-2.74-.34-3.89-1-1.15-.67-2.06-1.6-2.73-2.79-.67-1.19-1-2.55-1-4.1s.33-2.96,1-4.15c.67-1.19,1.58-2.12,2.75-2.79s2.46-1.01,3.9-1.01,2.76.34,3.91,1.01,2.06,1.6,2.73,2.79c.67,1.19,1,2.56,1,4.12s-.33,2.93-1,4.12c-.67,1.19-1.59,2.12-2.75,2.79-1.16.67-2.47,1-3.93,1ZM439.21,788.16c.68,0,1.28-.16,1.82-.48.53-.32.95-.81,1.26-1.47.31-.66.46-1.48.46-2.46s-.16-1.79-.46-2.45c-.31-.65-.73-1.14-1.26-1.47-.53-.33-1.12-.5-1.79-.5s-1.23.17-1.77.5-.96.82-1.27,1.47c-.31.65-.46,1.46-.46,2.45s.15,1.8.46,2.46c.31.66.73,1.15,1.26,1.47.53.32,1.11.48,1.75.48Z"/>
      <path d="M457.69,791.67c-1.52,0-2.87-.34-4.05-1.02-1.18-.68-2.1-1.61-2.76-2.79-.66-1.18-.99-2.53-.99-4.05s.33-2.93.99-4.12c.66-1.19,1.58-2.13,2.76-2.82,1.18-.69,2.53-1.04,4.05-1.04,1.94,0,3.57.51,4.89,1.53,1.32,1.02,2.16,2.42,2.52,4.2h-4.29c-.18-.7-.55-1.25-1.12-1.65-.57-.4-1.25-.6-2.02-.6-.7,0-1.33.18-1.88.53-.55.35-.98.86-1.29,1.53-.31.67-.46,1.47-.46,2.39,0,.7.09,1.33.27,1.88.18.55.43,1.02.75,1.41.32.39.71.69,1.16.89.45.2.93.3,1.46.3s.99-.09,1.42-.27c.43-.18.8-.43,1.1-.76s.51-.74.63-1.21h4.29c-.36,1.74-1.21,3.12-2.54,4.16s-2.96,1.54-4.88,1.54Z"/>
      <path d="M468.58,791.31v-21.6h4.05v21.6h-4.05ZM478.48,791.31l-6.45-8.28,5.79-6.84h4.77l-7.47,8.55v-3.21l8.4,9.78h-5.04Z"/>
    </g>
    <g id="Layer_1-5" data-name="Layer 1">
      <g>
        <path class="cls-6" d="M158.35,768.84c-6.65,0-12.04,5.39-12.04,12.04s5.39,12.04,12.04,12.04,12.04-5.39,12.04-12.04-5.38-12.04-12.04-12.04ZM158.35,789.57c-4.8,0-8.7-3.89-8.7-8.7s3.89-8.7,8.7-8.7,8.7,3.89,8.7,8.7-3.89,8.7-8.7,8.7Z"/>
        <polygon class="cls-6" points="159.96 774.87 156.74 774.87 156.74 782.48 156.81 782.48 159.96 782.48 163.94 782.48 163.94 779.27 159.96 779.27 159.96 774.87"/>
      </g>
    </g>
  </g>
</svg>