<svg xmlns="http://www.w3.org/2000/svg" xmlns:xlink="http://www.w3.org/1999/xlink" x="0" y="0" width="662.2222290039062" height="348.8715515136719" style="
        width:662.2222290039062px;
        height:348.8715515136719px;
        background: black;
        fill: none;
">
        
        
        <svg xmlns="http://www.w3.org/2000/svg" class="role-diagram-draw-area"><g class="shapes-region" style="stroke: black; fill: none;"><g class="composite-shape"><path class="real" d=" M260,86 C260,93.73 266.27,100 274,100 L376,100 C383.73,100 390,93.73 390,86 L390,44 C390,36.27 383.73,30 376,30 L274,30 C266.27,30 260,36.27 260,44 Z" style="stroke-width: 1; stroke: rgb(224, 224, 224); fill: none; fill-opacity: 1;"/></g><g class="composite-shape"><path class="real" d=" M200,158.4 C200,153.76 203.76,150 208.4,150 L261.6,150 C266.24,150 270,153.76 270,158.4 L270,183.6 C270,188.24 266.24,192 261.6,192 L208.4,192 C203.76,192 200,188.24 200,183.6 Z" style="stroke-width: 1; stroke: rgb(224, 224, 224); fill: none; fill-opacity: 1;"/></g><g class="composite-shape"><path class="real" d=" M390,158.4 C390,153.76 393.76,150 398.4,150 L451.6,150 C456.24,150 460,153.76 460,158.4 L460,183.6 C460,188.24 456.24,192 451.6,192 L398.4,192 C393.76,192 390,188.24 390,183.6 Z" style="stroke-width: 1; stroke: rgb(224, 224, 224); fill: none; fill-opacity: 1;"/></g><g class="composite-shape"><path class="real" d=" M160,242 L220,242 L220,286 L160,286 Z" style="stroke-width: 1; stroke: rgb(224, 224, 224); fill: none; fill-opacity: 1;"/></g><g class="composite-shape"><path class="real" d=" M250,242 L310,242 L310,286 L250,286 Z" style="stroke-width: 1; stroke: rgb(224, 224, 224); fill: none; fill-opacity: 1;"/></g><g class="arrow-line"><path class="connection real" stroke-dasharray="" d="  M190,212 L190,242" style="stroke: rgb(224, 224, 224); stroke-width: 1; fill: none; fill-opacity: 1;"/></g><g class="arrow-line"><path class="connection real" stroke-dasharray="" d="  M280,212 L280,242" style="stroke: rgb(224, 224, 224); stroke-width: 1; fill: none; fill-opacity: 1;"/></g><g class="arrow-line"><path class="connection real" stroke-dasharray="" d="  M190,212 L280,212" style="stroke: rgb(224, 224, 224); stroke-width: 1; fill: none; fill-opacity: 1;"/></g><g class="arrow-line"><path class="connection real" stroke-dasharray="" d="  M235,212 L235,194" style="stroke: rgb(224, 224, 224); stroke-width: 1; fill: none; fill-opacity: 1;"/><g stroke="#e0e0e0" transform="matrix(3.061616997868383e-16,1,-1,3.061616997868383e-16,234.99999999999997,192)" style="stroke: rgb(224, 224, 224); stroke-width: 1;"><path d=" M10.93,-3.29 Q4.96,-0.45 0,0 Q4.96,0.45 10.93,3.29"/></g></g><g class="composite-shape"><path class="real" d=" M350,242 L410,242 L410,286 L350,286 Z" style="stroke-width: 1; stroke: rgb(224, 224, 224); fill: none; fill-opacity: 1;"/></g><g class="composite-shape"><path class="real" d=" M440,242 L500,242 L500,286 L440,286 Z" style="stroke-width: 1; stroke: rgb(224, 224, 224); fill: none; fill-opacity: 1;"/></g><g class="arrow-line"><path class="connection real" stroke-dasharray="" d="  M380,212 L380,242" style="stroke: rgb(224, 224, 224); stroke-width: 1; fill: none; fill-opacity: 1;"/></g><g class="arrow-line"><path class="connection real" stroke-dasharray="" d="  M470,212 L470,242" style="stroke: rgb(224, 224, 224); stroke-width: 1; fill: none; fill-opacity: 1;"/></g><g class="arrow-line"><path class="connection real" stroke-dasharray="" d="  M380,212 L470,212" style="stroke: rgb(224, 224, 224); stroke-width: 1; fill: none; fill-opacity: 1;"/></g><g class="arrow-line"><path class="connection real" stroke-dasharray="" d="  M425,212 L425,194" style="stroke: rgb(224, 224, 224); stroke-width: 1; fill: none; fill-opacity: 1;"/><g stroke="#e0e0e0" transform="matrix(3.061616997868383e-16,1,-1,3.061616997868383e-16,425,192)" style="stroke: rgb(224, 224, 224); stroke-width: 1;"><path d=" M10.93,-3.29 Q4.96,-0.45 0,0 Q4.96,0.45 10.93,3.29"/></g></g><g class="arrow-line"><path class="connection real" stroke-dasharray="" d="  M237,120 L237,150" style="stroke: rgb(224, 224, 224); stroke-width: 1; fill: none; fill-opacity: 1;"/></g><g class="arrow-line"><path class="connection real" stroke-dasharray="" d="  M420,120 L420,150" style="stroke: rgb(224, 224, 224); stroke-width: 1; fill: none; fill-opacity: 1;"/></g><g class="arrow-line"><path class="connection real" stroke-dasharray="" d="  M237,120 L420,120" style="stroke: rgb(224, 224, 224); stroke-width: 1; fill: none; fill-opacity: 1;"/></g><g class="arrow-line"><path class="connection real" stroke-dasharray="" d="  M325,120 L325,102" style="stroke: rgb(224, 224, 224); stroke-width: 1; fill: none; fill-opacity: 1;"/><g stroke="#e0e0e0" transform="matrix(3.061616997868383e-16,1,-1,3.061616997868383e-16,325,100)" style="stroke: rgb(224, 224, 224); stroke-width: 1;"><path d=" M10.93,-3.29 Q4.96,-0.45 0,0 Q4.96,0.45 10.93,3.29"/></g></g><g/></g><g/><g/><g/></svg>
        <svg xmlns="http://www.w3.org/2000/svg" xmlns:xlink="http://www.w3.org/1999/xlink" width="660.0000610351562" height="346.6493225097656" style="width:660.0000610351562px;height:346.6493225097656px;font-family:Asana-Math, Asana;background:transparent;"><g><g><g><text x="273.107666015625" y="44.21875" style="white-space:pre;stroke:none;fill:rgb(224,224,224);fill-opacity:1;font-size:15px;font-family:Arial, Helvetica, sans-serif;font-weight:400;font-style:normal;dominant-baseline:text-before-edge;text-decoration:none solid rgb(224, 224, 224);">MSS Public Key</text></g></g></g><g><g><g><g transform="matrix(1,0,0,1,317.1007080078125,87.10417175292969)"><path transform="matrix(0.017,0,0,-0.017,0,0)" d="M105 664L160 662C184 661 195 653 195 635L112 125C95 34 94 31 54 28L13 25L9 -3L51 -2C92 -1 123 0 141 0C158 0 187 -1 227 -2L280 -3L283 25L218 28C192 29 182 37 182 58C182 67 183 74 186 93L284 648C320 654 336 656 355 656C457 656 506 612 506 519C506 411 434 323 346 323C324 323 304 328 267 342L269 311C306 293 326 288 355 288C484 288 594 405 594 541C594 642 531 695 412 692L108 692Z" stroke="rgb(224,224,224)" stroke-opacity="1" stroke-width="8" fill="rgb(224,224,224)" fill-opacity="1"></path></g></g></g></g><g><g><g><text x="212.1007080078125" y="153.21180725097656" style="white-space:pre;stroke:none;fill:rgb(224,224,224);fill-opacity:1;font-size:13.5px;font-family:Arial, Helvetica, sans-serif;font-weight:400;font-style:normal;dominant-baseline:text-before-edge;text-decoration:none solid rgb(224, 224, 224);">internal</text></g></g><g><g><text x="219.21878051757812" y="172.11805725097656" style="white-space:pre;stroke:none;fill:rgb(224,224,224);fill-opacity:1;font-size:13.5px;font-family:Arial, Helvetica, sans-serif;font-weight:400;font-style:normal;dominant-baseline:text-before-edge;text-decoration:none solid rgb(224, 224, 224);">node</text></g></g></g><g><g><g><text x="402.1007080078125" y="153.21180725097656" style="white-space:pre;stroke:none;fill:rgb(224,224,224);fill-opacity:1;font-size:13.5px;font-family:Arial, Helvetica, sans-serif;font-weight:400;font-style:normal;dominant-baseline:text-before-edge;text-decoration:none solid rgb(224, 224, 224);">internal</text></g></g><g><g><text x="409.21875" y="172.11805725097656" style="white-space:pre;stroke:none;fill:rgb(224,224,224);fill-opacity:1;font-size:13.5px;font-family:Arial, Helvetica, sans-serif;font-weight:400;font-style:normal;dominant-baseline:text-before-edge;text-decoration:none solid rgb(224, 224, 224);">node</text></g></g></g><g><g><g><text x="175.98959350585938" y="246.2152862548828" style="white-space:pre;stroke:none;fill:rgb(224,224,224);fill-opacity:1;font-size:13.5px;font-family:Arial, Helvetica, sans-serif;font-weight:400;font-style:normal;dominant-baseline:text-before-edge;text-decoration:none solid rgb(224, 224, 224);">OTS</text></g></g><g><g><text x="168.107666015625" y="265.1215362548828" style="white-space:pre;stroke:none;fill:rgb(224,224,224);fill-opacity:1;font-size:13.5px;font-family:Arial, Helvetica, sans-serif;font-weight:400;font-style:normal;dominant-baseline:text-before-edge;text-decoration:none solid rgb(224, 224, 224);">pubkey</text></g></g></g><g><g><g><text x="265.9896240234375" y="246.2152862548828" style="white-space:pre;stroke:none;fill:rgb(224,224,224);fill-opacity:1;font-size:13.5px;font-family:Arial, Helvetica, sans-serif;font-weight:400;font-style:normal;dominant-baseline:text-before-edge;text-decoration:none solid rgb(224, 224, 224);">OTS</text></g></g><g><g><text x="258.107666015625" y="265.1215362548828" style="white-space:pre;stroke:none;fill:rgb(224,224,224);fill-opacity:1;font-size:13.5px;font-family:Arial, Helvetica, sans-serif;font-weight:400;font-style:normal;dominant-baseline:text-before-edge;text-decoration:none solid rgb(224, 224, 224);">pubkey</text></g></g></g><g><g><g><text x="365.9896240234375" y="246.2152862548828" style="white-space:pre;stroke:none;fill:rgb(224,224,224);fill-opacity:1;font-size:13.5px;font-family:Arial, Helvetica, sans-serif;font-weight:400;font-style:normal;dominant-baseline:text-before-edge;text-decoration:none solid rgb(224, 224, 224);">OTS</text></g></g><g><g><text x="358.107666015625" y="265.1215362548828" style="white-space:pre;stroke:none;fill:rgb(224,224,224);fill-opacity:1;font-size:13.5px;font-family:Arial, Helvetica, sans-serif;font-weight:400;font-style:normal;dominant-baseline:text-before-edge;text-decoration:none solid rgb(224, 224, 224);">pubkey</text></g></g></g><g><g><g><text x="455.9896240234375" y="246.2152862548828" style="white-space:pre;stroke:none;fill:rgb(224,224,224);fill-opacity:1;font-size:13.5px;font-family:Arial, Helvetica, sans-serif;font-weight:400;font-style:normal;dominant-baseline:text-before-edge;text-decoration:none solid rgb(224, 224, 224);">OTS</text></g></g><g><g><text x="448.107666015625" y="265.1215362548828" style="white-space:pre;stroke:none;fill:rgb(224,224,224);fill-opacity:1;font-size:13.5px;font-family:Arial, Helvetica, sans-serif;font-weight:400;font-style:normal;dominant-baseline:text-before-edge;text-decoration:none solid rgb(224, 224, 224);">pubkey</text></g></g></g></svg>
</svg>
